<svg width="198" height="46" viewBox="0 0 198 46" fill="none" xmlns="http://www.w3.org/2000/svg">
<rect width="198" height="46" rx="5" fill="#F87537"/>
<path d="M48.946 27.106H43.942L43.114 29.5H40.468L44.986 16.918H47.92L52.438 29.5H49.774L48.946 27.106ZM48.262 25.09L46.444 19.834L44.626 25.09H48.262ZM53.4788 24.514C53.4788 23.482 53.6888 22.582 54.1088 21.814C54.5288 21.034 55.1108 20.434 55.8548 20.014C56.5988 19.582 57.4508 19.366 58.4108 19.366C59.6468 19.366 60.6668 19.678 61.4708 20.302C62.2868 20.914 62.8328 21.778 63.1088 22.894H60.3908C60.2468 22.462 60.0008 22.126 59.6528 21.886C59.3168 21.634 58.8968 21.508 58.3928 21.508C57.6728 21.508 57.1028 21.772 56.6828 22.3C56.2628 22.816 56.0528 23.554 56.0528 24.514C56.0528 25.462 56.2628 26.2 56.6828 26.728C57.1028 27.244 57.6728 27.502 58.3928 27.502C59.4128 27.502 60.0788 27.046 60.3908 26.134H63.1088C62.8328 27.214 62.2868 28.072 61.4708 28.708C60.6548 29.344 59.6348 29.662 58.4108 29.662C57.4508 29.662 56.5988 29.452 55.8548 29.032C55.1108 28.6 54.5288 28 54.1088 27.232C53.6888 26.452 53.4788 25.546 53.4788 24.514ZM64.3069 24.496C64.3069 23.5 64.5109 22.618 64.9189 21.85C65.3389 21.07 65.9029 20.464 66.6109 20.032C67.3189 19.6 68.0989 19.384 68.9509 19.384C69.6589 19.384 70.2829 19.522 70.8229 19.798C71.3749 20.062 71.8189 20.404 72.1549 20.824V19.528H74.6929V34.252H72.1549V28.132C71.8189 28.564 71.3689 28.924 70.8049 29.212C70.2409 29.5 69.6049 29.644 68.8969 29.644C68.0569 29.644 67.2829 29.428 66.5749 28.996C65.8789 28.552 65.3269 27.94 64.9189 27.16C64.5109 26.38 64.3069 25.492 64.3069 24.496ZM72.1549 24.514C72.1549 23.902 72.0289 23.374 71.7769 22.93C71.5249 22.486 71.1949 22.15 70.7869 21.922C70.3909 21.694 69.9649 21.58 69.5089 21.58C69.0649 21.58 68.6389 21.694 68.2309 21.922C67.8349 22.15 67.5109 22.486 67.2589 22.93C67.0069 23.362 66.8809 23.884 66.8809 24.496C66.8809 25.108 67.0069 25.642 67.2589 26.098C67.5109 26.542 67.8349 26.878 68.2309 27.106C68.6389 27.334 69.0649 27.448 69.5089 27.448C69.9649 27.448 70.3909 27.334 70.7869 27.106C71.1949 26.878 71.5249 26.542 71.7769 26.098C72.0289 25.654 72.1549 25.126 72.1549 24.514ZM86.5681 19.528V29.5H84.0301V28.24C83.7061 28.672 83.2801 29.014 82.7521 29.266C82.2361 29.506 81.6721 29.626 81.0601 29.626C80.2801 29.626 79.5901 29.464 78.9901 29.14C78.3901 28.804 77.9161 28.318 77.5681 27.682C77.2321 27.034 77.0641 26.266 77.0641 25.378V19.528H79.5841V25.018C79.5841 25.81 79.7821 26.422 80.1781 26.854C80.5741 27.274 81.1141 27.484 81.7981 27.484C82.4941 27.484 83.0401 27.274 83.4361 26.854C83.8321 26.422 84.0301 25.81 84.0301 25.018V19.528H86.5681ZM90.3325 18.34C89.8885 18.34 89.5165 18.202 89.2165 17.926C88.9285 17.638 88.7845 17.284 88.7845 16.864C88.7845 16.444 88.9285 16.096 89.2165 15.82C89.5165 15.532 89.8885 15.388 90.3325 15.388C90.7765 15.388 91.1425 15.532 91.4305 15.82C91.7305 16.096 91.8805 16.444 91.8805 16.864C91.8805 17.284 91.7305 17.638 91.4305 17.926C91.1425 18.202 90.7765 18.34 90.3325 18.34ZM91.5745 19.528V29.5H89.0545V19.528H91.5745ZM97.8803 29.662C97.0643 29.662 96.3323 29.518 95.6843 29.23C95.0363 28.93 94.5203 28.528 94.1363 28.024C93.7643 27.52 93.5603 26.962 93.5243 26.35H96.0623C96.1103 26.734 96.2963 27.052 96.6203 27.304C96.9563 27.556 97.3703 27.682 97.8623 27.682C98.3423 27.682 98.7143 27.586 98.9783 27.394C99.2543 27.202 99.3923 26.956 99.3923 26.656C99.3923 26.332 99.2243 26.092 98.8883 25.936C98.5643 25.768 98.0423 25.588 97.3223 25.396C96.5783 25.216 95.9663 25.03 95.4863 24.838C95.0183 24.646 94.6103 24.352 94.2623 23.956C93.9263 23.56 93.7583 23.026 93.7583 22.354C93.7583 21.802 93.9143 21.298 94.2263 20.842C94.5503 20.386 95.0063 20.026 95.5943 19.762C96.1943 19.498 96.8963 19.366 97.7003 19.366C98.8883 19.366 99.8363 19.666 100.544 20.266C101.252 20.854 101.642 21.652 101.714 22.66H99.3023C99.2663 22.264 99.0983 21.952 98.7983 21.724C98.5103 21.484 98.1203 21.364 97.6283 21.364C97.1723 21.364 96.8183 21.448 96.5663 21.616C96.3263 21.784 96.2063 22.018 96.2063 22.318C96.2063 22.654 96.3743 22.912 96.7103 23.092C97.0463 23.26 97.5683 23.434 98.2763 23.614C98.9963 23.794 99.5903 23.98 100.058 24.172C100.526 24.364 100.928 24.664 101.264 25.072C101.612 25.468 101.792 25.996 101.804 26.656C101.804 27.232 101.642 27.748 101.318 28.204C101.006 28.66 100.55 29.02 99.9503 29.284C99.3623 29.536 98.6723 29.662 97.8803 29.662ZM106.807 21.598V26.422C106.807 26.758 106.885 27.004 107.041 27.16C107.209 27.304 107.485 27.376 107.869 27.376H109.039V29.5H107.455C105.331 29.5 104.269 28.468 104.269 26.404V21.598H103.081V19.528H104.269V17.062H106.807V19.528H109.039V21.598H106.807ZM110.203 24.478C110.203 23.47 110.401 22.576 110.797 21.796C111.205 21.016 111.751 20.416 112.435 19.996C113.131 19.576 113.905 19.366 114.757 19.366C115.501 19.366 116.149 19.516 116.701 19.816C117.265 20.116 117.715 20.494 118.051 20.95V19.528H120.589V29.5H118.051V28.042C117.727 28.51 117.277 28.9 116.701 29.212C116.137 29.512 115.483 29.662 114.739 29.662C113.899 29.662 113.131 29.446 112.435 29.014C111.751 28.582 111.205 27.976 110.797 27.196C110.401 26.404 110.203 25.498 110.203 24.478ZM118.051 24.514C118.051 23.902 117.931 23.38 117.691 22.948C117.451 22.504 117.127 22.168 116.719 21.94C116.311 21.7 115.873 21.58 115.405 21.58C114.937 21.58 114.505 21.694 114.109 21.922C113.713 22.15 113.389 22.486 113.137 22.93C112.897 23.362 112.777 23.878 112.777 24.478C112.777 25.078 112.897 25.606 113.137 26.062C113.389 26.506 113.713 26.848 114.109 27.088C114.517 27.328 114.949 27.448 115.405 27.448C115.873 27.448 116.311 27.334 116.719 27.106C117.127 26.866 117.451 26.53 117.691 26.098C117.931 25.654 118.051 25.126 118.051 24.514ZM131.768 29.662C130.808 29.662 129.944 29.452 129.176 29.032C128.408 28.6 127.802 27.994 127.358 27.214C126.926 26.434 126.71 25.534 126.71 24.514C126.71 23.494 126.932 22.594 127.376 21.814C127.832 21.034 128.45 20.434 129.23 20.014C130.01 19.582 130.88 19.366 131.84 19.366C132.8 19.366 133.67 19.582 134.45 20.014C135.23 20.434 135.842 21.034 136.286 21.814C136.742 22.594 136.97 23.494 136.97 24.514C136.97 25.534 136.736 26.434 136.268 27.214C135.812 27.994 135.188 28.6 134.396 29.032C133.616 29.452 132.74 29.662 131.768 29.662ZM131.768 27.466C132.224 27.466 132.65 27.358 133.046 27.142C133.454 26.914 133.778 26.578 134.018 26.134C134.258 25.69 134.378 25.15 134.378 24.514C134.378 23.566 134.126 22.84 133.622 22.336C133.13 21.82 132.524 21.562 131.804 21.562C131.084 21.562 130.478 21.82 129.986 22.336C129.506 22.84 129.266 23.566 129.266 24.514C129.266 25.462 129.5 26.194 129.968 26.71C130.448 27.214 131.048 27.466 131.768 27.466ZM141.338 21.076C141.662 20.548 142.082 20.134 142.598 19.834C143.126 19.534 143.726 19.384 144.398 19.384V22.03H143.732C142.94 22.03 142.34 22.216 141.932 22.588C141.536 22.96 141.338 23.608 141.338 24.532V29.5H138.818V19.528H141.338V21.076ZM145.448 24.478C145.448 23.47 145.646 22.576 146.042 21.796C146.45 21.016 146.996 20.416 147.68 19.996C148.376 19.576 149.15 19.366 150.002 19.366C150.746 19.366 151.394 19.516 151.946 19.816C152.51 20.116 152.96 20.494 153.296 20.95V19.528H155.834V29.5H153.296V28.042C152.972 28.51 152.522 28.9 151.946 29.212C151.382 29.512 150.728 29.662 149.984 29.662C149.144 29.662 148.376 29.446 147.68 29.014C146.996 28.582 146.45 27.976 146.042 27.196C145.646 26.404 145.448 25.498 145.448 24.478ZM153.296 24.514C153.296 23.902 153.176 23.38 152.936 22.948C152.696 22.504 152.372 22.168 151.964 21.94C151.556 21.7 151.118 21.58 150.65 21.58C150.182 21.58 149.75 21.694 149.354 21.922C148.958 22.15 148.634 22.486 148.382 22.93C148.142 23.362 148.022 23.878 148.022 24.478C148.022 25.078 148.142 25.606 148.382 26.062C148.634 26.506 148.958 26.848 149.354 27.088C149.762 27.328 150.194 27.448 150.65 27.448C151.118 27.448 151.556 27.334 151.964 27.106C152.372 26.866 152.696 26.53 152.936 26.098C153.176 25.654 153.296 25.126 153.296 24.514Z" fill="white"/>
</svg>
