<svg width="343" height="46" viewBox="0 0 343 46" fill="none" xmlns="http://www.w3.org/2000/svg">
<rect width="343" height="46" rx="5" fill="#F87537" fill-opacity="0.1"/>
<path d="M48.946 27.106H43.942L43.114 29.5H40.468L44.986 16.918H47.92L52.438 29.5H49.774L48.946 27.106ZM48.262 25.09L46.444 19.834L44.626 25.09H48.262ZM56.6468 16.18V29.5H54.1268V16.18H56.6468ZM62.0705 21.598V26.422C62.0705 26.758 62.1485 27.004 62.3045 27.16C62.4725 27.304 62.7485 27.376 63.1325 27.376H64.3025V29.5H62.7185C60.5945 29.5 59.5325 28.468 59.5325 26.404V21.598H58.3445V19.528H59.5325V17.062H62.0705V19.528H64.3025V21.598H62.0705ZM68.635 21.076C68.959 20.548 69.379 20.134 69.895 19.834C70.423 19.534 71.023 19.384 71.695 19.384V22.03H71.029C70.237 22.03 69.637 22.216 69.229 22.588C68.833 22.96 68.635 23.608 68.635 24.532V29.5H66.115V19.528H68.635V21.076ZM82.6624 24.298C82.6624 24.658 82.6384 24.982 82.5904 25.27H75.3004C75.3604 25.99 75.6124 26.554 76.0564 26.962C76.5004 27.37 77.0464 27.574 77.6944 27.574C78.6304 27.574 79.2964 27.172 79.6924 26.368H82.4104C82.1224 27.328 81.5704 28.12 80.7544 28.744C79.9384 29.356 78.9364 29.662 77.7484 29.662C76.7884 29.662 75.9244 29.452 75.1564 29.032C74.4004 28.6 73.8064 27.994 73.3744 27.214C72.9544 26.434 72.7444 25.534 72.7444 24.514C72.7444 23.482 72.9544 22.576 73.3744 21.796C73.7944 21.016 74.3824 20.416 75.1384 19.996C75.8944 19.576 76.7644 19.366 77.7484 19.366C78.6964 19.366 79.5424 19.57 80.2864 19.978C81.0424 20.386 81.6244 20.968 82.0324 21.724C82.4524 22.468 82.6624 23.326 82.6624 24.298ZM80.0524 23.578C80.0404 22.93 79.8064 22.414 79.3504 22.03C78.8944 21.634 78.3364 21.436 77.6764 21.436C77.0524 21.436 76.5244 21.628 76.0924 22.012C75.6724 22.384 75.4144 22.906 75.3184 23.578H80.0524ZM93.2188 29.662C92.2588 29.662 91.3948 29.452 90.6268 29.032C89.8588 28.6 89.2528 27.994 88.8088 27.214C88.3768 26.434 88.1608 25.534 88.1608 24.514C88.1608 23.494 88.3828 22.594 88.8268 21.814C89.2828 21.034 89.9008 20.434 90.6808 20.014C91.4608 19.582 92.3308 19.366 93.2908 19.366C94.2508 19.366 95.1208 19.582 95.9008 20.014C96.6808 20.434 97.2928 21.034 97.7368 21.814C98.1928 22.594 98.4208 23.494 98.4208 24.514C98.4208 25.534 98.1868 26.434 97.7188 27.214C97.2628 27.994 96.6388 28.6 95.8468 29.032C95.0668 29.452 94.1908 29.662 93.2188 29.662ZM93.2188 27.466C93.6748 27.466 94.1008 27.358 94.4968 27.142C94.9048 26.914 95.2288 26.578 95.4688 26.134C95.7088 25.69 95.8288 25.15 95.8288 24.514C95.8288 23.566 95.5768 22.84 95.0728 22.336C94.5808 21.82 93.9748 21.562 93.2548 21.562C92.5348 21.562 91.9288 21.82 91.4368 22.336C90.9568 22.84 90.7168 23.566 90.7168 24.514C90.7168 25.462 90.9508 26.194 91.4188 26.71C91.8988 27.214 92.4988 27.466 93.2188 27.466ZM104.841 21.598H103.095V29.5H100.539V21.598H99.4053V19.528H100.539V19.024C100.539 17.8 100.887 16.9 101.583 16.324C102.279 15.748 103.329 15.478 104.733 15.514V17.638C104.121 17.626 103.695 17.728 103.455 17.944C103.215 18.16 103.095 18.55 103.095 19.114V19.528H104.841V21.598ZM111.046 21.598H109.3V29.5H106.744V21.598H105.61V19.528H106.744V19.024C106.744 17.8 107.092 16.9 107.788 16.324C108.484 15.748 109.534 15.478 110.938 15.514V17.638C110.326 17.626 109.9 17.728 109.66 17.944C109.42 18.16 109.3 18.55 109.3 19.114V19.528H111.046V21.598ZM121.95 24.298C121.95 24.658 121.926 24.982 121.878 25.27H114.588C114.648 25.99 114.9 26.554 115.344 26.962C115.788 27.37 116.334 27.574 116.982 27.574C117.918 27.574 118.584 27.172 118.98 26.368H121.698C121.41 27.328 120.858 28.12 120.042 28.744C119.226 29.356 118.224 29.662 117.036 29.662C116.076 29.662 115.212 29.452 114.444 29.032C113.688 28.6 113.094 27.994 112.662 27.214C112.242 26.434 112.031 25.534 112.031 24.514C112.031 23.482 112.242 22.576 112.662 21.796C113.082 21.016 113.67 20.416 114.426 19.996C115.182 19.576 116.052 19.366 117.036 19.366C117.984 19.366 118.83 19.57 119.574 19.978C120.33 20.386 120.912 20.968 121.32 21.724C121.74 22.468 121.95 23.326 121.95 24.298ZM119.34 23.578C119.328 22.93 119.094 22.414 118.638 22.03C118.182 21.634 117.624 21.436 116.964 21.436C116.34 21.436 115.812 21.628 115.38 22.012C114.96 22.384 114.702 22.906 114.606 23.578H119.34ZM126.309 21.076C126.633 20.548 127.053 20.134 127.569 19.834C128.097 19.534 128.697 19.384 129.369 19.384V22.03H128.703C127.911 22.03 127.311 22.216 126.903 22.588C126.507 22.96 126.309 23.608 126.309 24.532V29.5H123.789V19.528H126.309V21.076ZM134 21.598V26.422C134 26.758 134.078 27.004 134.234 27.16C134.402 27.304 134.678 27.376 135.062 27.376H136.232V29.5H134.648C132.524 29.5 131.462 28.468 131.462 26.404V21.598H130.274V19.528H131.462V17.062H134V19.528H136.232V21.598H134ZM147.315 24.298C147.315 24.658 147.291 24.982 147.243 25.27H139.953C140.013 25.99 140.265 26.554 140.709 26.962C141.153 27.37 141.699 27.574 142.347 27.574C143.283 27.574 143.949 27.172 144.345 26.368H147.063C146.775 27.328 146.223 28.12 145.407 28.744C144.591 29.356 143.589 29.662 142.401 29.662C141.441 29.662 140.577 29.452 139.809 29.032C139.053 28.6 138.459 27.994 138.027 27.214C137.607 26.434 137.397 25.534 137.397 24.514C137.397 23.482 137.607 22.576 138.027 21.796C138.447 21.016 139.035 20.416 139.791 19.996C140.547 19.576 141.417 19.366 142.401 19.366C143.349 19.366 144.195 19.57 144.939 19.978C145.695 20.386 146.277 20.968 146.685 21.724C147.105 22.468 147.315 23.326 147.315 24.298ZM144.705 23.578C144.693 22.93 144.459 22.414 144.003 22.03C143.547 21.634 142.989 21.436 142.329 21.436C141.705 21.436 141.177 21.628 140.745 22.012C140.325 22.384 140.067 22.906 139.971 23.578H144.705ZM152.795 24.478C152.795 23.47 152.993 22.576 153.389 21.796C153.797 21.016 154.349 20.416 155.045 19.996C155.741 19.576 156.515 19.366 157.367 19.366C158.015 19.366 158.633 19.51 159.221 19.798C159.809 20.074 160.277 20.446 160.625 20.914V16.18H163.181V29.5H160.625V28.024C160.313 28.516 159.875 28.912 159.311 29.212C158.747 29.512 158.093 29.662 157.349 29.662C156.509 29.662 155.741 29.446 155.045 29.014C154.349 28.582 153.797 27.976 153.389 27.196C152.993 26.404 152.795 25.498 152.795 24.478ZM160.643 24.514C160.643 23.902 160.523 23.38 160.283 22.948C160.043 22.504 159.719 22.168 159.311 21.94C158.903 21.7 158.465 21.58 157.997 21.58C157.529 21.58 157.097 21.694 156.701 21.922C156.305 22.15 155.981 22.486 155.729 22.93C155.489 23.362 155.369 23.878 155.369 24.478C155.369 25.078 155.489 25.606 155.729 26.062C155.981 26.506 156.305 26.848 156.701 27.088C157.109 27.328 157.541 27.448 157.997 27.448C158.465 27.448 158.903 27.334 159.311 27.106C159.719 26.866 160.043 26.53 160.283 26.098C160.523 25.654 160.643 25.126 160.643 24.514ZM174.912 24.298C174.912 24.658 174.888 24.982 174.84 25.27H167.55C167.61 25.99 167.862 26.554 168.306 26.962C168.75 27.37 169.296 27.574 169.944 27.574C170.88 27.574 171.546 27.172 171.942 26.368H174.66C174.372 27.328 173.82 28.12 173.004 28.744C172.188 29.356 171.186 29.662 169.998 29.662C169.038 29.662 168.174 29.452 167.406 29.032C166.65 28.6 166.056 27.994 165.624 27.214C165.204 26.434 164.994 25.534 164.994 24.514C164.994 23.482 165.204 22.576 165.624 21.796C166.044 21.016 166.632 20.416 167.388 19.996C168.144 19.576 169.014 19.366 169.998 19.366C170.946 19.366 171.792 19.57 172.536 19.978C173.292 20.386 173.874 20.968 174.282 21.724C174.702 22.468 174.912 23.326 174.912 24.298ZM172.302 23.578C172.29 22.93 172.056 22.414 171.6 22.03C171.144 21.634 170.586 21.436 169.926 21.436C169.302 21.436 168.774 21.628 168.342 22.012C167.922 22.384 167.664 22.906 167.568 23.578H172.302ZM179.272 16.18V29.5H176.752V16.18H179.272ZM198.435 19.384C199.659 19.384 200.643 19.762 201.387 20.518C202.143 21.262 202.521 22.306 202.521 23.65V29.5H200.001V23.992C200.001 23.212 199.803 22.618 199.407 22.21C199.011 21.79 198.471 21.58 197.787 21.58C197.103 21.58 196.557 21.79 196.149 22.21C195.753 22.618 195.555 23.212 195.555 23.992V29.5H193.035V23.992C193.035 23.212 192.837 22.618 192.441 22.21C192.045 21.79 191.505 21.58 190.821 21.58C190.125 21.58 189.573 21.79 189.165 22.21C188.769 22.618 188.571 23.212 188.571 23.992V29.5H186.051V19.528H188.571V20.734C188.895 20.314 189.309 19.984 189.813 19.744C190.329 19.504 190.893 19.384 191.505 19.384C192.285 19.384 192.981 19.552 193.593 19.888C194.205 20.212 194.679 20.68 195.015 21.292C195.339 20.716 195.807 20.254 196.419 19.906C197.043 19.558 197.715 19.384 198.435 19.384ZM209.34 29.662C208.38 29.662 207.516 29.452 206.748 29.032C205.98 28.6 205.374 27.994 204.93 27.214C204.498 26.434 204.282 25.534 204.282 24.514C204.282 23.494 204.504 22.594 204.948 21.814C205.404 21.034 206.022 20.434 206.802 20.014C207.582 19.582 208.452 19.366 209.412 19.366C210.372 19.366 211.242 19.582 212.022 20.014C212.802 20.434 213.414 21.034 213.858 21.814C214.314 22.594 214.542 23.494 214.542 24.514C214.542 25.534 214.308 26.434 213.84 27.214C213.384 27.994 212.76 28.6 211.968 29.032C211.188 29.452 210.312 29.662 209.34 29.662ZM209.34 27.466C209.796 27.466 210.222 27.358 210.618 27.142C211.026 26.914 211.35 26.578 211.59 26.134C211.83 25.69 211.95 25.15 211.95 24.514C211.95 23.566 211.698 22.84 211.194 22.336C210.702 21.82 210.096 21.562 209.376 21.562C208.656 21.562 208.05 21.82 207.558 22.336C207.078 22.84 206.838 23.566 206.838 24.514C206.838 25.462 207.072 26.194 207.54 26.71C208.02 27.214 208.62 27.466 209.34 27.466ZM228.774 19.384C229.998 19.384 230.982 19.762 231.726 20.518C232.482 21.262 232.86 22.306 232.86 23.65V29.5H230.34V23.992C230.34 23.212 230.142 22.618 229.746 22.21C229.35 21.79 228.81 21.58 228.126 21.58C227.442 21.58 226.896 21.79 226.488 22.21C226.092 22.618 225.894 23.212 225.894 23.992V29.5H223.374V23.992C223.374 23.212 223.176 22.618 222.78 22.21C222.384 21.79 221.844 21.58 221.16 21.58C220.464 21.58 219.912 21.79 219.504 22.21C219.108 22.618 218.91 23.212 218.91 23.992V29.5H216.39V19.528H218.91V20.734C219.234 20.314 219.648 19.984 220.152 19.744C220.668 19.504 221.232 19.384 221.844 19.384C222.624 19.384 223.32 19.552 223.932 19.888C224.544 20.212 225.018 20.68 225.354 21.292C225.678 20.716 226.146 20.254 226.758 19.906C227.382 19.558 228.054 19.384 228.774 19.384ZM244.522 24.298C244.522 24.658 244.498 24.982 244.45 25.27H237.16C237.22 25.99 237.472 26.554 237.916 26.962C238.36 27.37 238.906 27.574 239.554 27.574C240.49 27.574 241.156 27.172 241.552 26.368H244.27C243.982 27.328 243.43 28.12 242.614 28.744C241.798 29.356 240.796 29.662 239.608 29.662C238.648 29.662 237.784 29.452 237.016 29.032C236.26 28.6 235.666 27.994 235.234 27.214C234.814 26.434 234.604 25.534 234.604 24.514C234.604 23.482 234.814 22.576 235.234 21.796C235.654 21.016 236.242 20.416 236.998 19.996C237.754 19.576 238.624 19.366 239.608 19.366C240.556 19.366 241.402 19.57 242.146 19.978C242.902 20.386 243.484 20.968 243.892 21.724C244.312 22.468 244.522 23.326 244.522 24.298ZM241.912 23.578C241.9 22.93 241.666 22.414 241.21 22.03C240.754 21.634 240.196 21.436 239.536 21.436C238.912 21.436 238.384 21.628 237.952 22.012C237.532 22.384 237.274 22.906 237.178 23.578H241.912ZM251.887 19.384C253.075 19.384 254.035 19.762 254.767 20.518C255.499 21.262 255.865 22.306 255.865 23.65V29.5H253.345V23.992C253.345 23.2 253.147 22.594 252.751 22.174C252.355 21.742 251.815 21.526 251.131 21.526C250.435 21.526 249.883 21.742 249.475 22.174C249.079 22.594 248.881 23.2 248.881 23.992V29.5H246.361V19.528H248.881V20.77C249.217 20.338 249.643 20.002 250.159 19.762C250.687 19.51 251.263 19.384 251.887 19.384ZM261.196 21.598V26.422C261.196 26.758 261.274 27.004 261.43 27.16C261.598 27.304 261.874 27.376 262.258 27.376H263.428V29.5H261.844C259.72 29.5 258.658 28.468 258.658 26.404V21.598H257.47V19.528H258.658V17.062H261.196V19.528H263.428V21.598H261.196ZM269.668 29.662C268.708 29.662 267.844 29.452 267.076 29.032C266.308 28.6 265.702 27.994 265.258 27.214C264.826 26.434 264.61 25.534 264.61 24.514C264.61 23.494 264.832 22.594 265.276 21.814C265.732 21.034 266.35 20.434 267.13 20.014C267.91 19.582 268.78 19.366 269.74 19.366C270.7 19.366 271.57 19.582 272.35 20.014C273.13 20.434 273.742 21.034 274.186 21.814C274.642 22.594 274.87 23.494 274.87 24.514C274.87 25.534 274.636 26.434 274.168 27.214C273.712 27.994 273.088 28.6 272.296 29.032C271.516 29.452 270.64 29.662 269.668 29.662ZM269.668 27.466C270.124 27.466 270.55 27.358 270.946 27.142C271.354 26.914 271.678 26.578 271.918 26.134C272.158 25.69 272.278 25.15 272.278 24.514C272.278 23.566 272.026 22.84 271.522 22.336C271.03 21.82 270.424 21.562 269.704 21.562C268.984 21.562 268.378 21.82 267.886 22.336C267.406 22.84 267.166 23.566 267.166 24.514C267.166 25.462 267.4 26.194 267.868 26.71C268.348 27.214 268.948 27.466 269.668 27.466Z" fill="#862B00"/>
<path d="M308 23L286 23" stroke="#862B00" stroke-linecap="round" stroke-linejoin="round"/>
<path d="M308 23L304 27" stroke="#862B00" stroke-linecap="round" stroke-linejoin="round"/>
<path d="M308 23L304 19" stroke="#862B00" stroke-linecap="round" stroke-linejoin="round"/>
</svg>
