<svg width="269" height="102" viewBox="0 0 269 102" fill="none" xmlns="http://www.w3.org/2000/svg">
<path d="M19.6308 43.739C21.5622 44.502 23.9067 42.7292 24.7126 39.7199C25.3262 37.4275 24.7705 33.5482 22.8001 32.9374C21.7226 32.6035 18.593 33.974 17.7183 36.9566C16.8432 39.9392 17.6993 42.976 19.6308 43.739Z" fill="#F87537" fill-opacity="0.1"/>
<path d="M10.3659 46.5012C12.0168 46.5754 13.1738 44.5215 13.3139 41.943C13.406 40.2515 11.9341 37.1641 10.2843 37.1157C9.14712 37.0822 7.31396 39.0821 7.33697 41.6736C7.35929 44.2653 8.71575 46.4268 10.3659 46.5012Z" fill="#F87537" fill-opacity="0.1"/>
<path d="M14.6727 47.1496C13.4907 48.1348 12.0199 48.6348 10.4914 48.5209C8.85725 48.3993 7.16116 48.1452 5.53209 50.4816C3.52192 53.3651 4.53985 57.6962 7.41942 59.8484C8.23075 60.4547 9.1167 60.834 10.0118 60.9989C10.9816 61.1772 11.9018 61.5809 12.705 62.1741C13.5021 62.7771 14.185 63.5716 14.6977 64.501C15.1711 65.3594 15.8204 66.128 16.6318 66.7343C19.5113 68.8865 23.5144 68.3084 25.1715 65.1613C26.5144 62.6113 25.6661 60.9629 24.9513 59.3289C24.2832 57.8008 24.1496 56.1017 24.5303 54.5167C25.2039 51.7109 24.0845 48.7695 21.8649 47.1105C19.6452 45.4523 16.7666 45.4049 14.6727 47.1496Z" fill="#F87537" fill-opacity="0.1"/>
<path d="M27.0058 41.4295C24.7998 43.3963 24.2084 46.4747 25.5771 48.1675C26.9458 49.8603 29.8041 49.5883 31.9617 47.56C34.1193 45.5317 34.0774 41.801 33.3904 40.822C32.1339 39.0318 28.686 39.9313 27.0058 41.4295Z" fill="#F87537" fill-opacity="0.1"/>
<path d="M29.4729 53.9651C27.3738 55.0859 26.098 57.0515 26.7858 58.7166C27.4727 60.3824 29.7907 60.9554 31.9622 59.9969C34.1339 59.038 35.1082 56.3994 34.6493 55.2454C33.9837 53.5699 30.8496 53.23 29.4729 53.9651Z" fill="#F87537" fill-opacity="0.1"/>
<path d="M104.211 38.2696C107.605 39.6106 111.726 36.4948 113.142 31.2057C114.221 27.1768 113.244 20.3587 109.781 19.2852C107.887 18.6984 102.387 21.1072 100.849 26.3491C99.3114 31.5912 100.816 36.9286 104.211 38.2696Z" fill="#F87537" fill-opacity="0.1"/>
<path d="M87.9273 43.1242C90.8288 43.2546 92.8622 39.6449 93.1085 35.1131C93.2703 32.1401 90.6834 26.7139 87.7837 26.6288C85.7851 26.5699 82.5633 30.0848 82.6037 34.6396C82.6429 39.1946 85.027 42.9935 87.9273 43.1242Z" fill="#F87537" fill-opacity="0.1"/>
<path d="M95.4968 44.2639C93.4193 45.9954 90.8343 46.8741 88.1478 46.674C85.2758 46.4602 82.2948 46.0136 79.4317 50.1201C75.8987 55.1879 77.6878 62.8 82.7487 66.5825C84.1747 67.6481 85.7318 68.3148 87.305 68.6047C89.0095 68.918 90.6268 69.6276 92.0384 70.6701C93.4393 71.73 94.6395 73.1263 95.5407 74.7597C96.3727 76.2685 97.5139 77.6194 98.9399 78.685C104.001 82.4675 111.036 81.4514 113.949 75.9202C116.309 71.4386 114.818 68.5413 113.562 65.6695C112.388 62.9838 112.153 59.9976 112.822 57.212C114.006 52.2805 112.038 47.111 108.137 44.1951C104.236 41.2808 99.1768 41.1975 95.4968 44.2639Z" fill="#F87537" fill-opacity="0.1"/>
<path d="M117.173 34.2105C113.296 37.6673 112.256 43.0776 114.662 46.0529C117.067 49.0281 122.091 48.5499 125.883 44.9851C129.675 41.4203 129.601 34.8635 128.394 33.1428C126.186 29.9965 120.126 31.5773 117.173 34.2105Z" fill="#F87537" fill-opacity="0.1"/>
<path d="M121.509 56.2423C117.819 58.2123 115.577 61.6669 116.786 64.5934C117.993 67.5211 122.067 68.5282 125.884 66.8436C129.701 65.1583 131.413 60.5208 130.606 58.4926C129.437 55.5478 123.928 54.9504 121.509 56.2423Z" fill="#F87537" fill-opacity="0.1"/>
<path d="M218.361 32.9879C223.169 34.8871 229.005 30.4743 231.01 22.9838C232.538 17.2779 231.155 7.62189 226.25 6.10152C223.568 5.27043 215.778 8.68184 213.601 16.1056C211.423 23.5297 213.554 31.0887 218.361 32.9879Z" fill="#F87537" fill-opacity="0.1"/>
<path d="M195.3 39.8631C199.409 40.0478 202.289 34.9356 202.638 28.5174C202.867 24.3071 199.204 16.6223 195.097 16.5017C192.267 16.4183 187.704 21.3963 187.761 27.8469C187.816 34.2979 191.193 39.678 195.3 39.8631Z" fill="#F87537" fill-opacity="0.1"/>
<path d="M206.02 41.4772C203.078 43.9294 199.417 45.1738 195.613 44.8905C191.545 44.5876 187.323 43.9552 183.268 49.7709C178.265 56.9481 180.799 67.7286 187.966 73.0855C189.986 74.5947 192.191 75.5389 194.419 75.9494C196.833 76.3931 199.123 77.3981 201.123 78.8746C203.107 80.3755 204.806 82.353 206.083 84.6664C207.261 86.8031 208.877 88.7163 210.897 90.2254C218.064 95.5824 228.028 94.1433 232.153 86.3099C235.496 79.9628 233.384 75.8597 231.605 71.7925C229.942 67.9889 229.609 63.7597 230.557 59.8146C232.233 52.8306 229.447 45.5093 223.922 41.3798C218.397 37.2524 211.232 37.1344 206.02 41.4772Z" fill="#F87537" fill-opacity="0.1"/>
<path d="M236.719 27.2393C231.228 32.1349 229.755 39.7971 233.162 44.0108C236.569 48.2244 243.684 47.5472 249.054 42.4986C254.425 37.45 254.32 28.164 252.61 25.7271C249.483 21.2712 240.901 23.51 236.719 27.2393Z" fill="#F87537" fill-opacity="0.1"/>
<path d="M242.859 58.4414C237.634 61.2314 234.459 66.1239 236.171 70.2685C237.881 74.4148 243.65 75.841 249.055 73.4554C254.461 71.0685 256.886 64.5008 255.744 61.6283C254.087 57.4579 246.286 56.6118 242.859 58.4414Z" fill="#F87537" fill-opacity="0.1"/>
</svg>
