<?xml version="1.0" encoding="utf-8"?>
<!-- Generator: Adobe Illustrator 18.0.0, SVG Export Plug-In . SVG Version: 6.00 Build 0)  -->
<!DOCTYPE svg PUBLIC "-//W3C//DTD SVG 1.1//EN" "http://www.w3.org/Graphics/SVG/1.1/DTD/svg11.dtd">
<svg version="1.1" id="Livello_1" xmlns="http://www.w3.org/2000/svg" xmlns:xlink="http://www.w3.org/1999/xlink" x="0px" y="0px"
	 viewBox="0 0 30 30" enable-background="new 0 0 30 30" xml:space="preserve">
<g>
	<path fill="#F8F9FA" d="M14.6,1L14.6,1c7.7,0,14,6.3,14,14l0,0c0,7.7-6.3,14-14,14l0,0c-7.7,0-14-6.3-14-14l0,0
		C0.6,7.3,6.9,1,14.6,1z"/>
	<path fill="none" stroke="#F87537" stroke-width="1.3333" stroke-linecap="round" stroke-linejoin="round" d="M11.6,22.7
		c0.4,0,0.7-0.3,0.7-0.7s-0.3-0.7-0.7-0.7S11,21.6,11,22S11.3,22.7,11.6,22.7z"/>
	<path fill="none" stroke="#F87537" stroke-width="1.3333" stroke-linecap="round" stroke-linejoin="round" d="M19,22.7
		c0.4,0,0.7-0.3,0.7-0.7s-0.3-0.7-0.7-0.7c-0.4,0-0.7,0.3-0.7,0.7S18.6,22.7,19,22.7z"/>
	<path fill="none" stroke="#F87537" stroke-width="1.3333" stroke-linecap="round" stroke-linejoin="round" d="M6.3,8.7H9l1.8,8.9
		c0.1,0.3,0.2,0.6,0.5,0.8c0.2,0.2,0.5,0.3,0.9,0.3h6.5c0.3,0,0.6-0.1,0.9-0.3c0.2-0.2,0.4-0.5,0.5-0.8L21,12H9.6"/>
</g>
</svg>
