<svg width="192" height="24" viewBox="0 0 192 24" fill="none" xmlns="http://www.w3.org/2000/svg">
<rect x="0.959161" y="0.435419" width="33.7158" height="22.9659" rx="2.68749" fill="white" stroke="#D9D9D9" stroke-width="0.488635"/>
<path d="M22.3877 5.07745C26.0707 5.07751 29.0566 8.09782 29.0566 11.8235C29.0566 15.5493 26.0707 18.5696 22.3877 18.5696C20.7363 18.5696 19.2262 17.9611 18.0615 16.9554C16.8969 17.9609 15.3874 18.5696 13.7363 18.5696C10.0533 18.5696 7.06739 15.5493 7.06738 11.8235C7.06738 8.09779 10.0533 5.07745 13.7363 5.07745C15.3872 5.07752 16.897 5.68549 18.0615 6.69073C19.2262 5.68525 20.7366 5.07745 22.3877 5.07745Z" fill="#ED0006"/>
<path d="M22.3867 5.07745C26.0697 5.07745 29.0557 8.09779 29.0557 11.8235C29.0557 15.5493 26.0697 18.5696 22.3867 18.5696C20.7357 18.5695 19.2261 17.9609 18.0615 16.9554C19.4946 15.718 20.4043 13.8789 20.4043 11.8235C20.4043 9.76799 19.4948 7.92809 18.0615 6.69073C19.226 5.68548 20.7359 5.07755 22.3867 5.07745Z" fill="#F9A000"/>
<path d="M18.0615 6.69C19.4952 7.92736 20.4053 9.76793 20.4053 11.8238C20.4052 13.8792 19.4947 15.7183 18.0615 16.9556C16.6286 15.7183 15.7188 13.879 15.7188 11.8238C15.7188 9.76815 16.6281 7.92735 18.0615 6.69Z" fill="#FF5E00"/>
<rect x="53.3195" y="0.435419" width="33.7158" height="22.9659" rx="2.68749" fill="white" stroke="#D9D9D9" stroke-width="0.488635"/>
<path fill-rule="evenodd" clip-rule="evenodd" d="M62.7498 15.0857H61.2295C61.1255 15.0857 61.037 15.1613 61.0208 15.264L60.4059 19.1624C60.3937 19.2393 60.4532 19.3086 60.5313 19.3086H61.2571C61.3611 19.3086 61.4496 19.233 61.4658 19.1302L61.6316 18.0787C61.6476 17.9757 61.7363 17.9002 61.8401 17.9002H62.3214C63.3228 17.9002 63.9008 17.4156 64.0518 16.4553C64.1198 16.0352 64.0547 15.7051 63.8579 15.4738C63.6418 15.22 63.2586 15.0857 62.7498 15.0857ZM62.9251 16.5095C62.842 17.0551 62.4252 17.0551 62.0222 17.0551H61.7928L61.9537 16.0362C61.9633 15.9747 62.0166 15.9293 62.0789 15.9293H62.184C62.4586 15.9293 62.7176 15.9293 62.8514 16.0858C62.9311 16.1792 62.9556 16.3179 62.9251 16.5095ZM67.2942 16.492H66.5662C66.5041 16.492 66.4505 16.5374 66.441 16.599L66.4088 16.8026L66.3578 16.7288C66.2002 16.5001 65.8488 16.4236 65.4981 16.4236C64.6935 16.4236 64.0064 17.0329 63.8726 17.8877C63.803 18.314 63.9019 18.7217 64.1438 19.006C64.3656 19.2674 64.6831 19.3763 65.0607 19.3763C65.7089 19.3763 66.0685 18.9595 66.0685 18.9595L66.036 19.1618C66.0237 19.2392 66.0833 19.3085 66.1608 19.3085H66.8167C66.921 19.3085 67.0089 19.2329 67.0254 19.1301L67.4189 16.6383C67.4313 16.5617 67.3719 16.492 67.2942 16.492ZM66.2794 17.909C66.2091 18.3249 65.879 18.6041 65.458 18.6041C65.2466 18.6041 65.0776 18.5363 64.9692 18.4078C64.8616 18.2802 64.8206 18.0986 64.8549 17.8963C64.9205 17.4839 65.2562 17.1957 65.6708 17.1957C65.8774 17.1957 66.0455 17.2643 66.1562 17.3939C66.2671 17.5249 66.3111 17.7076 66.2794 17.909ZM70.4399 16.4919H71.1715C71.2739 16.4919 71.3337 16.6068 71.2755 16.6909L68.8423 20.2031C68.8029 20.26 68.738 20.2938 68.6686 20.2938H67.9379C67.8351 20.2938 67.775 20.178 67.8346 20.0938L68.5922 19.0243L67.7864 16.6595C67.7585 16.5773 67.8192 16.4919 67.9067 16.4919H68.6255C68.7189 16.4919 68.8013 16.5532 68.8283 16.6426L69.2559 18.0709L70.265 16.5846C70.3045 16.5266 70.3701 16.4919 70.4399 16.4919Z" fill="#253B80"/>
<path fill-rule="evenodd" clip-rule="evenodd" d="M78.3718 19.1623L78.9957 15.1926C79.0053 15.131 79.0587 15.0857 79.1207 15.0854H79.8231C79.9007 15.0854 79.9602 15.155 79.948 15.2319L79.3327 19.1301C79.3167 19.233 79.2282 19.3086 79.124 19.3086H78.4967C78.4191 19.3086 78.3596 19.2393 78.3718 19.1623ZM73.5936 15.0857H72.073C71.9692 15.0857 71.8808 15.1613 71.8645 15.2639L71.2496 19.1623C71.2374 19.2393 71.297 19.3086 71.3746 19.3086H72.1548C72.2273 19.3086 72.2894 19.2557 72.3007 19.1837L72.4751 18.0787C72.4912 17.9757 72.5799 17.9002 72.6837 17.9002H73.1647C74.1663 17.9002 74.7442 17.4156 74.8953 16.4553C74.9635 16.0352 74.898 15.705 74.7013 15.4738C74.4853 15.22 74.1024 15.0857 73.5936 15.0857ZM73.769 16.5095C73.686 17.055 73.2692 17.055 72.866 17.055H72.6368L72.798 16.0362C72.8075 15.9747 72.8604 15.9293 72.9228 15.9293H73.028C73.3023 15.9293 73.5616 15.9293 73.6953 16.0858C73.7751 16.1792 73.7994 16.3178 73.769 16.5095ZM78.1376 16.492H77.4101C77.3475 16.492 77.2944 16.5374 77.2851 16.599L77.2529 16.8026L77.2018 16.7288C77.0442 16.5 76.693 16.4236 76.3422 16.4236C75.5376 16.4236 74.8507 17.0329 74.7169 17.8877C74.6476 18.3139 74.746 18.7216 74.9879 19.006C75.2102 19.2674 75.5272 19.3763 75.9049 19.3763C76.5531 19.3763 76.9125 18.9595 76.9125 18.9595L76.8801 19.1618C76.8678 19.2392 76.9274 19.3085 77.0055 19.3085H77.661C77.7648 19.3085 77.8532 19.2329 77.8695 19.13L78.2632 16.6383C78.2752 16.5616 78.2157 16.492 78.1376 16.492ZM77.1229 17.9089C77.053 18.3249 76.7225 18.604 76.3014 18.604C76.0904 18.604 75.9211 18.5363 75.8126 18.4078C75.705 18.2802 75.6646 18.0985 75.6984 17.8963C75.7643 17.4839 76.0996 17.1956 76.5142 17.1956C76.7209 17.1956 76.8889 17.2643 76.9997 17.3939C77.111 17.5248 77.1551 17.7075 77.1229 17.9089Z" fill="#179BD7"/>
<path d="M68.3756 13.691L68.5625 12.5039L68.1462 12.4942H66.1582L67.5398 3.73414C67.544 3.70769 67.558 3.68303 67.5783 3.66552C67.5987 3.64802 67.6248 3.63837 67.652 3.63837H71.004C72.1169 3.63837 72.8848 3.86994 73.2858 4.327C73.4738 4.54143 73.5935 4.76549 73.6514 5.01207C73.7121 5.27081 73.7132 5.57993 73.6539 5.95695L73.6496 5.98447V6.22604L73.8376 6.33254C73.9959 6.41652 74.1216 6.51265 74.2181 6.62272C74.379 6.80605 74.483 7.03905 74.527 7.31529C74.5723 7.5994 74.5573 7.93746 74.483 8.32021C74.3972 8.76048 74.2586 9.14393 74.0713 9.4577C73.899 9.74681 73.6796 9.98655 73.4191 10.1724C73.1704 10.349 72.8748 10.483 72.5407 10.5688C72.2169 10.653 71.8478 10.6956 71.4429 10.6956H71.182C70.9955 10.6956 70.8142 10.7628 70.6721 10.8833C70.5295 11.0062 70.4351 11.1741 70.4062 11.3578L70.3865 11.4647L70.0563 13.557L70.0413 13.6338C70.0374 13.6582 70.0306 13.6704 70.0206 13.6786C70.0116 13.686 69.9988 13.691 69.9862 13.691H68.3756Z" fill="#253B80"/>
<path d="M74.0163 6.01251C74.0063 6.07648 73.9949 6.14187 73.982 6.20906C73.5399 8.47869 72.0276 9.26275 70.096 9.26275H69.1125C68.8763 9.26275 68.6773 9.43427 68.6404 9.66728L68.1369 12.8607L67.9943 13.7659C67.9703 13.9189 68.0883 14.0568 68.2426 14.0568H69.987C70.1936 14.0568 70.369 13.9067 70.4015 13.703L70.4187 13.6144L70.7471 11.5302L70.7682 11.4159C70.8003 11.2115 70.9761 11.0614 71.1827 11.0614H71.4436C73.1335 11.0614 74.4566 10.3753 74.8433 8.3897C75.0048 7.56026 74.9211 6.86769 74.4937 6.38059C74.3644 6.23372 74.2039 6.11185 74.0163 6.01251Z" fill="#179BD7"/>
<path d="M73.5531 5.82822C73.4856 5.80857 73.4158 5.7907 73.3443 5.77462C73.2725 5.7589 73.1989 5.74496 73.1232 5.73281C72.858 5.68992 72.5675 5.66956 72.2562 5.66956H69.6289C69.5641 5.66956 69.5027 5.6842 69.4477 5.71065C69.3265 5.7689 69.2365 5.88362 69.2147 6.02406L68.6557 9.56412L68.6396 9.66739C68.6765 9.43439 68.8755 9.26286 69.1117 9.26286H70.0952C72.0268 9.26286 73.5392 8.47844 73.9812 6.20917C73.9944 6.14199 74.0055 6.07659 74.0155 6.01263C73.9037 5.9533 73.7825 5.90256 73.652 5.85931C73.6199 5.84859 73.5867 5.83823 73.5531 5.82822Z" fill="#222D65"/>
<path d="M69.215 6.024C69.2368 5.88355 69.3269 5.76884 69.448 5.71094C69.5034 5.68449 69.5645 5.66984 69.6291 5.66984H72.2565C72.5678 5.66984 72.8583 5.69021 73.1234 5.7331C73.1993 5.74525 73.2729 5.75919 73.3447 5.77491C73.4162 5.79099 73.4858 5.80886 73.5534 5.82851C73.587 5.83852 73.6202 5.84888 73.6527 5.85925C73.7831 5.90249 73.9043 5.95359 74.0161 6.01256C74.1477 5.17382 74.0151 4.60275 73.5617 4.08564C73.0617 3.51637 72.1593 3.27264 71.0047 3.27264H67.6526C67.4167 3.27264 67.2156 3.44417 67.179 3.67753L65.7829 12.5277C65.7553 12.7028 65.8904 12.8608 66.0669 12.8608H68.1365L68.6561 9.56405L69.215 6.024Z" fill="#253B80"/>
<rect x="105.68" y="0.435419" width="33.7158" height="22.9659" rx="2.68749" fill="white" stroke="#D9D9D9" stroke-width="0.488635"/>
<path fill-rule="evenodd" clip-rule="evenodd" d="M115.819 16.0798H113.747L112.193 10.1518C112.119 9.87912 111.963 9.63804 111.732 9.52442C111.158 9.23889 110.524 9.01165 109.833 8.89704V8.66882H113.171C113.632 8.66882 113.977 9.01165 114.035 9.40982L114.841 13.6859L116.912 8.66882H118.927L115.819 16.0798ZM120.078 16.0798H118.121L119.733 8.66882H121.69L120.078 16.0798ZM124.222 10.7219C124.279 10.3228 124.625 10.0945 125.028 10.0945C125.661 10.0372 126.351 10.1518 126.927 10.4364L127.273 8.84076C126.697 8.61253 126.063 8.49792 125.489 8.49792C123.589 8.49792 122.207 9.52446 122.207 10.9492C122.207 12.033 123.186 12.6021 123.877 12.9449C124.625 13.2868 124.913 13.515 124.855 13.8568C124.855 14.3696 124.279 14.5978 123.704 14.5978C123.013 14.5978 122.322 14.4269 121.69 14.1414L121.344 15.738C122.035 16.0225 122.783 16.1371 123.474 16.1371C125.604 16.1935 126.927 15.1679 126.927 13.6286C126.927 11.6902 124.222 11.5765 124.222 10.7219ZM133.776 16.0798L132.222 8.66882H130.553C130.208 8.66882 129.862 8.89704 129.747 9.23889L126.87 16.0798H128.884L129.286 14.997H131.762L131.992 16.0798H133.776ZM130.841 10.6646L131.416 13.4577H129.805L130.841 10.6646Z" fill="#172B85"/>
<rect x="158.04" y="0.435419" width="33.7158" height="22.9659" rx="2.68749" fill="white" stroke="#D9D9D9" stroke-width="0.488635"/>
<path d="M179.788 8.9278C180.999 8.92797 182.141 10.0194 182.148 12.0215C182.148 14.2103 181.02 15.2049 179.781 15.2051C179.172 15.2051 178.805 14.9501 178.556 14.7706L178.549 16.7247L176.818 17.0909V9.03912H178.341L178.431 9.46686C178.673 9.24588 179.11 8.9278 179.788 8.9278ZM165.022 8.9278C165.597 8.9278 166.165 9.01828 166.739 9.24615V10.8682C166.213 10.5852 165.548 10.4268 165.022 10.4268C164.656 10.4268 164.435 10.5306 164.435 10.7999C164.435 11.573 167.071 11.2073 167.078 13.2647C167.078 14.5008 166.088 15.212 164.648 15.212C164.053 15.2119 163.402 15.0946 162.759 14.8184V13.1749C163.34 13.4925 164.074 13.7275 164.648 13.7276C165.036 13.7276 165.313 13.624 165.313 13.3067C165.313 12.485 162.683 12.7884 162.683 10.8829C162.683 9.66062 163.617 8.92781 165.022 8.9278ZM169.106 9.04596H170.422V10.5167H169.106V12.9678C169.106 13.9898 170.2 13.6719 170.422 13.5821V14.9844C170.193 15.1087 169.778 15.2119 169.211 15.212C168.186 15.212 167.418 14.4595 167.418 13.4376L167.425 7.90631L169.113 7.54694L169.106 9.04596ZM185.104 8.9278C186.745 8.92798 187.603 10.3232 187.604 12.0909C187.604 12.2564 187.589 12.6147 187.589 12.7051H184.204C184.28 13.5198 184.876 13.7549 185.547 13.7549C186.232 13.7549 186.772 13.6098 187.243 13.3751V14.7569C186.772 15.0192 186.149 15.2051 185.325 15.2051C183.636 15.2049 182.46 14.1555 182.46 12.0772C182.46 10.3232 183.457 8.9278 185.104 8.9278ZM172.575 9.5567C172.984 8.81111 173.793 8.9631 174.015 9.04596V10.6339C173.8 10.5579 173.108 10.4615 172.699 10.9932V15.088H170.969V9.04596H172.464L172.575 9.5567ZM176.174 15.088H174.437V9.04596H176.174V15.088ZM179.373 10.461C178.978 10.461 178.729 10.5996 178.549 10.7999L178.556 13.3614C178.722 13.5409 178.965 13.6856 179.373 13.6856C180.01 13.6853 180.438 12.9954 180.438 12.0704C180.438 11.166 180.003 10.4613 179.373 10.461ZM185.097 10.3301C184.661 10.3303 184.184 10.6547 184.184 11.4346H185.97C185.97 10.6545 185.519 10.3301 185.097 10.3301ZM176.175 8.14752L174.437 8.52057V7.11237L176.175 6.74615V8.14752Z" fill="#6461FC"/>
</svg>
