<svg width="659" height="416" viewBox="0 0 659 416" fill="none" xmlns="http://www.w3.org/2000/svg">
<path d="M674.137 78.1299C733.475 132.032 755.453 224.434 774.133 319.037C791.715 413.64 804.901 510.443 776.331 603.946C748.859 698.549 678.533 790.952 589.525 820.653C499.419 849.253 390.632 814.052 289.537 770.051C189.541 726.05 97.2374 674.348 47.7888 595.146C-1.65975 514.843 -9.35174 408.14 9.32882 306.937C28.0094 204.634 71.9637 107.831 145.587 55.0292C219.21 3.32765 322.503 -3.27257 421.4 1.12756C520.297 6.62773 615.898 23.1283 674.137 78.1299Z" fill="url(#paint0_linear_89_1583)"/>
<defs>
<linearGradient id="paint0_linear_89_1583" x1="0" y1="831" x2="830.091" y2="38.8679" gradientUnits="userSpaceOnUse">
<stop stop-color="#F87537"/>
<stop offset="1" stop-color="#FBA81F"/>
</linearGradient>
</defs>
</svg>
