<svg width="86" height="86" viewBox="0 0 86 86" fill="none" xmlns="http://www.w3.org/2000/svg">
<rect width="86" height="86" rx="43" fill="#FAEEE7"/>
<g clip-path="url(#clip0_126_195)">
<path d="M38.6667 49.4997L50.7697 37.3989C50.2657 36.8951 49.8938 36.2748 49.6868 35.5929C49.4798 34.911 49.4442 34.1886 49.5831 33.4897C49.722 32.7908 50.0311 32.1369 50.4831 31.5859C50.935 31.035 51.5159 30.604 52.1742 30.3312C52.8324 30.0584 53.5479 29.9521 54.2571 30.0217C54.9662 30.0914 55.6473 30.3349 56.2399 30.7307C56.8325 31.1264 57.3183 31.6622 57.6544 32.2906C57.9905 32.9189 58.1665 33.6205 58.1667 34.3331C58.8794 34.3326 59.5813 34.5079 60.2102 34.8435C60.839 35.1791 61.3753 35.6647 61.7716 36.2571C62.1679 36.8496 62.4119 37.5307 62.4821 38.24C62.5522 38.9493 62.4463 39.665 62.1737 40.3236C61.9011 40.9822 61.4703 41.5634 60.9194 42.0156C60.3685 42.4679 59.7145 42.7773 59.0154 42.9164C58.3163 43.0555 57.5938 43.02 56.9117 42.8131C56.2296 42.6062 55.6091 42.2342 55.1052 41.7301L47.3333 49.4997" stroke="#862B00" stroke-width="3" stroke-linecap="round" stroke-linejoin="round"/>
<path d="M43 45.1664L35.2303 37.3989C35.7343 36.8951 36.1062 36.2748 36.3132 35.5929C36.5201 34.911 36.5558 34.1886 36.4169 33.4897C36.278 32.7908 35.9689 32.1369 35.5169 31.5859C35.065 31.035 34.4841 30.604 33.8258 30.3312C33.1675 30.0584 32.4521 29.9521 31.7429 30.0217C31.0337 30.0914 30.3527 30.3349 29.7601 30.7307C29.1675 31.1264 28.6816 31.6622 28.3455 32.2906C28.0095 32.9189 27.8335 33.6205 27.8333 34.3331C27.1205 34.3326 26.4186 34.5079 25.7898 34.8435C25.161 35.1791 24.6247 35.6647 24.2284 36.2571C23.8321 36.8496 23.5881 37.5307 23.5179 38.24C23.4478 38.9493 23.5537 39.665 23.8263 40.3236C24.0989 40.9822 24.5297 41.5634 25.0806 42.0156C25.6315 42.4679 26.2855 42.7773 26.9846 42.9164C27.6836 43.0555 28.4062 43.02 29.0883 42.8131C29.7704 42.6062 30.3909 42.2342 30.8948 41.7301L38.6666 49.4997" stroke="#862B00" stroke-width="3" stroke-linecap="round" stroke-linejoin="round"/>
<path d="M23.5 60.3333H62.5C62.1208 56.7128 62.4003 53.0858 58.1667 49.5H27.8333C24.9452 51.6667 23.5 55.2785 23.5 60.3333Z" stroke="#862B00" stroke-width="3" stroke-linecap="round" stroke-linejoin="round"/>
</g>
<defs>
<clipPath id="clip0_126_195">
<rect width="52" height="52" fill="white" transform="translate(17 17)"/>
</clipPath>
</defs>
</svg>
