<svg width="246" height="29" viewBox="0 0 246 29" fill="none" xmlns="http://www.w3.org/2000/svg">
<path d="M1.03416 14.6445C1.03416 13.4205 1.31616 12.3225 1.88016 11.3505C2.45616 10.3785 3.23016 9.62251 4.20216 9.08251C5.18616 8.53051 6.26016 8.25451 7.42416 8.25451C8.75616 8.25451 9.93816 8.58451 10.9702 9.24451C12.0142 9.89251 12.7702 10.8165 13.2382 12.0165H10.7722C10.4482 11.3565 9.99816 10.8645 9.42216 10.5405C8.84616 10.2165 8.18016 10.0545 7.42416 10.0545C6.59616 10.0545 5.85816 10.2405 5.21016 10.6125C4.56216 10.9845 4.05216 11.5185 3.68016 12.2145C3.32016 12.9105 3.14016 13.7205 3.14016 14.6445C3.14016 15.5685 3.32016 16.3785 3.68016 17.0745C4.05216 17.7705 4.56216 18.3105 5.21016 18.6945C5.85816 19.0665 6.59616 19.2525 7.42416 19.2525C8.18016 19.2525 8.84616 19.0905 9.42216 18.7665C9.99816 18.4425 10.4482 17.9505 10.7722 17.2905H13.2382C12.7702 18.4905 12.0142 19.4145 10.9702 20.0625C9.93816 20.7105 8.75616 21.0345 7.42416 21.0345C6.24816 21.0345 5.17416 20.7645 4.20216 20.2245C3.23016 19.6725 2.45616 18.9105 1.88016 17.9385C1.31616 16.9665 1.03416 15.8685 1.03416 14.6445ZM16.684 9.69451C16.312 9.69451 16 9.56851 15.748 9.31651C15.496 9.06451 15.37 8.75251 15.37 8.38051C15.37 8.00851 15.496 7.69651 15.748 7.44451C16 7.19251 16.312 7.06651 16.684 7.06651C17.044 7.06651 17.35 7.19251 17.602 7.44451C17.854 7.69651 17.98 8.00851 17.98 8.38051C17.98 8.75251 17.854 9.06451 17.602 9.31651C17.35 9.56851 17.044 9.69451 16.684 9.69451ZM17.692 11.0085V20.9265H15.64V11.0085H17.692ZM24.6881 21.0885C23.7521 21.0885 22.9061 20.8785 22.1501 20.4585C21.3941 20.0265 20.8001 19.4265 20.3681 18.6585C19.9361 17.8785 19.7201 16.9785 19.7201 15.9585C19.7201 14.9505 19.9421 14.0565 20.3861 13.2765C20.8301 12.4965 21.4361 11.8965 22.2041 11.4765C22.9721 11.0565 23.8301 10.8465 24.7781 10.8465C25.7261 10.8465 26.5841 11.0565 27.3521 11.4765C28.1201 11.8965 28.7261 12.4965 29.1701 13.2765C29.6141 14.0565 29.8361 14.9505 29.8361 15.9585C29.8361 16.9665 29.6081 17.8605 29.1521 18.6405C28.6961 19.4205 28.0721 20.0265 27.2801 20.4585C26.5001 20.8785 25.6361 21.0885 24.6881 21.0885ZM24.6881 19.3065C25.2161 19.3065 25.7081 19.1805 26.1641 18.9285C26.6321 18.6765 27.0101 18.2985 27.2981 17.7945C27.5861 17.2905 27.7301 16.6785 27.7301 15.9585C27.7301 15.2385 27.5921 14.6325 27.3161 14.1405C27.0401 13.6365 26.6741 13.2585 26.2181 13.0065C25.7621 12.7545 25.2701 12.6285 24.7421 12.6285C24.2141 12.6285 23.7221 12.7545 23.2661 13.0065C22.8221 13.2585 22.4681 13.6365 22.2041 14.1405C21.9401 14.6325 21.8081 15.2385 21.8081 15.9585C21.8081 17.0265 22.0781 17.8545 22.6181 18.4425C23.1701 19.0185 23.8601 19.3065 24.6881 19.3065ZM34.2586 12.6825V18.1725C34.2586 18.5445 34.3426 18.8145 34.5106 18.9825C34.6906 19.1385 34.9906 19.2165 35.4106 19.2165H36.6706V20.9265H35.0506C34.1266 20.9265 33.4186 20.7105 32.9266 20.2785C32.4346 19.8465 32.1886 19.1445 32.1886 18.1725V12.6825H31.0186V11.0085H32.1886V8.54251H34.2586V11.0085H36.6706V12.6825H34.2586ZM42.8639 21.0885C41.9279 21.0885 41.0819 20.8785 40.3259 20.4585C39.5699 20.0265 38.9759 19.4265 38.5439 18.6585C38.1119 17.8785 37.8959 16.9785 37.8959 15.9585C37.8959 14.9505 38.1179 14.0565 38.5619 13.2765C39.0059 12.4965 39.6119 11.8965 40.3799 11.4765C41.1479 11.0565 42.0059 10.8465 42.9539 10.8465C43.9019 10.8465 44.7599 11.0565 45.5279 11.4765C46.2959 11.8965 46.9019 12.4965 47.3459 13.2765C47.7899 14.0565 48.0119 14.9505 48.0119 15.9585C48.0119 16.9665 47.7839 17.8605 47.3279 18.6405C46.8719 19.4205 46.2479 20.0265 45.4559 20.4585C44.6759 20.8785 43.8119 21.0885 42.8639 21.0885ZM42.8639 19.3065C43.3919 19.3065 43.8839 19.1805 44.3399 18.9285C44.8079 18.6765 45.1859 18.2985 45.4739 17.7945C45.7619 17.2905 45.9059 16.6785 45.9059 15.9585C45.9059 15.2385 45.7679 14.6325 45.4919 14.1405C45.2159 13.6365 44.8499 13.2585 44.3939 13.0065C43.9379 12.7545 43.4459 12.6285 42.9179 12.6285C42.3899 12.6285 41.8979 12.7545 41.4419 13.0065C40.9979 13.2585 40.6439 13.6365 40.3799 14.1405C40.1159 14.6325 39.9839 15.2385 39.9839 15.9585C39.9839 17.0265 40.2539 17.8545 40.7939 18.4425C41.3459 19.0185 42.0359 19.3065 42.8639 19.3065ZM52.0924 7.60651V20.9265H50.0404V7.60651H52.0924ZM54.1025 15.9225C54.1025 14.9265 54.3065 14.0445 54.7145 13.2765C55.1345 12.5085 55.6985 11.9145 56.4065 11.4945C57.1265 11.0625 57.9185 10.8465 58.7825 10.8465C59.5625 10.8465 60.2405 11.0025 60.8165 11.3145C61.4045 11.6145 61.8725 11.9925 62.2205 12.4485V11.0085H64.2905V20.9265H62.2205V19.4505C61.8725 19.9185 61.3985 20.3085 60.7985 20.6205C60.1985 20.9325 59.5145 21.0885 58.7465 21.0885C57.8945 21.0885 57.1145 20.8725 56.4065 20.4405C55.6985 19.9965 55.1345 19.3845 54.7145 18.6045C54.3065 17.8125 54.1025 16.9185 54.1025 15.9225ZM62.2205 15.9585C62.2205 15.2745 62.0765 14.6805 61.7885 14.1765C61.5125 13.6725 61.1465 13.2885 60.6905 13.0245C60.2345 12.7605 59.7425 12.6285 59.2145 12.6285C58.6865 12.6285 58.1945 12.7605 57.7385 13.0245C57.2825 13.2765 56.9105 13.6545 56.6225 14.1585C56.3465 14.6505 56.2085 15.2385 56.2085 15.9225C56.2085 16.6065 56.3465 17.2065 56.6225 17.7225C56.9105 18.2385 57.2825 18.6345 57.7385 18.9105C58.2065 19.1745 58.6985 19.3065 59.2145 19.3065C59.7425 19.3065 60.2345 19.1745 60.6905 18.9105C61.1465 18.6465 61.5125 18.2625 61.7885 17.7585C62.0765 17.2425 62.2205 16.6425 62.2205 15.9585ZM73.7135 12.4665C74.0615 12.0105 74.5355 11.6265 75.1355 11.3145C75.7355 11.0025 76.4135 10.8465 77.1695 10.8465C78.0335 10.8465 78.8195 11.0625 79.5275 11.4945C80.2475 11.9145 80.8115 12.5085 81.2195 13.2765C81.6275 14.0445 81.8315 14.9265 81.8315 15.9225C81.8315 16.9185 81.6275 17.8125 81.2195 18.6045C80.8115 19.3845 80.2475 19.9965 79.5275 20.4405C78.8195 20.8725 78.0335 21.0885 77.1695 21.0885C76.4135 21.0885 75.7415 20.9385 75.1535 20.6385C74.5655 20.3265 74.0855 19.9425 73.7135 19.4865V25.6425H71.6615V11.0085H73.7135V12.4665ZM79.7435 15.9225C79.7435 15.2385 79.5995 14.6505 79.3115 14.1585C79.0355 13.6545 78.6635 13.2765 78.1955 13.0245C77.7395 12.7605 77.2475 12.6285 76.7195 12.6285C76.2035 12.6285 75.7115 12.7605 75.2435 13.0245C74.7875 13.2885 74.4155 13.6725 74.1275 14.1765C73.8515 14.6805 73.7135 15.2745 73.7135 15.9585C73.7135 16.6425 73.8515 17.2425 74.1275 17.7585C74.4155 18.2625 74.7875 18.6465 75.2435 18.9105C75.7115 19.1745 76.2035 19.3065 76.7195 19.3065C77.2475 19.3065 77.7395 19.1745 78.1955 18.9105C78.6635 18.6345 79.0355 18.2385 79.3115 17.7225C79.5995 17.2065 79.7435 16.6065 79.7435 15.9225ZM92.9507 15.7245C92.9507 16.0965 92.9267 16.4325 92.8787 16.7325H85.3007C85.3607 17.5245 85.6547 18.1605 86.1827 18.6405C86.7107 19.1205 87.3587 19.3605 88.1267 19.3605C89.2307 19.3605 90.0107 18.8985 90.4667 17.9745H92.6807C92.3807 18.8865 91.8347 19.6365 91.0427 20.2245C90.2627 20.8005 89.2907 21.0885 88.1267 21.0885C87.1787 21.0885 86.3267 20.8785 85.5707 20.4585C84.8267 20.0265 84.2387 19.4265 83.8067 18.6585C83.3867 17.8785 83.1767 16.9785 83.1767 15.9585C83.1767 14.9385 83.3807 14.0445 83.7887 13.2765C84.2087 12.4965 84.7907 11.8965 85.5347 11.4765C86.2907 11.0565 87.1547 10.8465 88.1267 10.8465C89.0627 10.8465 89.8967 11.0505 90.6287 11.4585C91.3607 11.8665 91.9307 12.4425 92.3387 13.1865C92.7467 13.9185 92.9507 14.7645 92.9507 15.7245ZM90.8087 15.0765C90.7967 14.3205 90.5267 13.7145 89.9987 13.2585C89.4707 12.8025 88.8167 12.5745 88.0367 12.5745C87.3287 12.5745 86.7227 12.8025 86.2187 13.2585C85.7147 13.7025 85.4147 14.3085 85.3187 15.0765H90.8087ZM97.0221 12.4485C97.3221 11.9445 97.7181 11.5545 98.2101 11.2785C98.7141 10.9905 99.3081 10.8465 99.9921 10.8465V12.9705H99.4701C98.6661 12.9705 98.0541 13.1745 97.6341 13.5825C97.2261 13.9905 97.0221 14.6985 97.0221 15.7065V20.9265H94.9701V11.0085H97.0221V12.4485ZM105.87 15.9585C105.87 14.9385 106.074 14.0445 106.482 13.2765C106.902 12.4965 107.478 11.8965 108.21 11.4765C108.942 11.0565 109.782 10.8465 110.73 10.8465C111.93 10.8465 112.92 11.1345 113.7 11.7105C114.492 12.2745 115.026 13.0845 115.302 14.1405H113.088C112.908 13.6485 112.62 13.2645 112.224 12.9885C111.828 12.7125 111.33 12.5745 110.73 12.5745C109.89 12.5745 109.218 12.8745 108.714 13.4745C108.222 14.0625 107.976 14.8905 107.976 15.9585C107.976 17.0265 108.222 17.8605 108.714 18.4605C109.218 19.0605 109.89 19.3605 110.73 19.3605C111.918 19.3605 112.704 18.8385 113.088 17.7945H115.302C115.014 18.8025 114.474 19.6065 113.682 20.2065C112.89 20.7945 111.906 21.0885 110.73 21.0885C109.782 21.0885 108.942 20.8785 108.21 20.4585C107.478 20.0265 106.902 19.4265 106.482 18.6585C106.074 17.8785 105.87 16.9785 105.87 15.9585ZM116.663 15.9225C116.663 14.9265 116.867 14.0445 117.275 13.2765C117.695 12.5085 118.259 11.9145 118.967 11.4945C119.687 11.0625 120.479 10.8465 121.343 10.8465C122.123 10.8465 122.801 11.0025 123.377 11.3145C123.965 11.6145 124.433 11.9925 124.781 12.4485V11.0085H126.851V20.9265H124.781V19.4505C124.433 19.9185 123.959 20.3085 123.359 20.6205C122.759 20.9325 122.075 21.0885 121.307 21.0885C120.455 21.0885 119.675 20.8725 118.967 20.4405C118.259 19.9965 117.695 19.3845 117.275 18.6045C116.867 17.8125 116.663 16.9185 116.663 15.9225ZM124.781 15.9585C124.781 15.2745 124.637 14.6805 124.349 14.1765C124.073 13.6725 123.707 13.2885 123.251 13.0245C122.795 12.7605 122.303 12.6285 121.775 12.6285C121.247 12.6285 120.755 12.7605 120.299 13.0245C119.843 13.2765 119.471 13.6545 119.183 14.1585C118.907 14.6505 118.769 15.2385 118.769 15.9225C118.769 16.6065 118.907 17.2065 119.183 17.7225C119.471 18.2385 119.843 18.6345 120.299 18.9105C120.767 19.1745 121.259 19.3065 121.775 19.3065C122.303 19.3065 122.795 19.1745 123.251 18.9105C123.707 18.6465 124.073 18.2625 124.349 17.7585C124.637 17.2425 124.781 16.6425 124.781 15.9585ZM134.55 10.8465C135.33 10.8465 136.026 11.0085 136.638 11.3325C137.262 11.6565 137.748 12.1365 138.096 12.7725C138.444 13.4085 138.618 14.1765 138.618 15.0765V20.9265H136.584V15.3825C136.584 14.4945 136.362 13.8165 135.918 13.3485C135.474 12.8685 134.868 12.6285 134.1 12.6285C133.332 12.6285 132.72 12.8685 132.264 13.3485C131.82 13.8165 131.598 14.4945 131.598 15.3825V20.9265H129.546V11.0085H131.598V12.1425C131.934 11.7345 132.36 11.4165 132.876 11.1885C133.404 10.9605 133.962 10.8465 134.55 10.8465ZM142.28 9.69451C141.908 9.69451 141.596 9.56851 141.344 9.31651C141.092 9.06451 140.966 8.75251 140.966 8.38051C140.966 8.00851 141.092 7.69651 141.344 7.44451C141.596 7.19251 141.908 7.06651 142.28 7.06651C142.64 7.06651 142.946 7.19251 143.198 7.44451C143.45 7.69651 143.576 8.00851 143.576 8.38051C143.576 8.75251 143.45 9.06451 143.198 9.31651C142.946 9.56851 142.64 9.69451 142.28 9.69451ZM143.288 11.0085V20.9265H141.236V11.0085H143.288Z" fill="#1A1A1A"/>
<rect x="180" y="0.926514" width="28" height="28" rx="14" fill="#F8F9FA"/>
<path d="M191 22.5932C191.368 22.5932 191.667 22.2947 191.667 21.9265C191.667 21.5583 191.368 21.2598 191 21.2598C190.632 21.2598 190.333 21.5583 190.333 21.9265C190.333 22.2947 190.632 22.5932 191 22.5932Z" stroke="#F87537" stroke-width="1.33333" stroke-linecap="round" stroke-linejoin="round"/>
<path d="M198.333 22.5932C198.702 22.5932 199 22.2947 199 21.9265C199 21.5583 198.702 21.2598 198.333 21.2598C197.965 21.2598 197.667 21.5583 197.667 21.9265C197.667 22.2947 197.965 22.5932 198.333 22.5932Z" stroke="#F87537" stroke-width="1.33333" stroke-linecap="round" stroke-linejoin="round"/>
<path d="M185.667 8.5932H188.333L190.12 17.5199C190.181 17.8268 190.348 18.1025 190.592 18.2987C190.836 18.495 191.141 18.5992 191.453 18.5932H197.933C198.246 18.5992 198.551 18.495 198.795 18.2987C199.039 18.1025 199.206 17.8268 199.267 17.5199L200.333 11.9265H189" stroke="#F87537" stroke-width="1.33333" stroke-linecap="round" stroke-linejoin="round"/>
<rect x="218" y="0.926514" width="28" height="28" rx="14" fill="#F8F9FA"/>
<path d="M237.156 10.6156C236.858 10.3176 236.504 10.0811 236.115 9.91978C235.725 9.75845 235.308 9.67542 234.886 9.67542C234.465 9.67542 234.048 9.75845 233.658 9.91978C233.269 10.0811 232.915 10.3176 232.617 10.6156L231.999 11.234L231.381 10.6156C230.779 10.0138 229.963 9.67573 229.111 9.67573C228.26 9.67573 227.444 10.0138 226.842 10.6156C226.24 11.2175 225.902 12.0337 225.902 12.8848C225.902 13.7359 226.24 14.5522 226.842 15.154L227.461 15.7723L231.999 20.3106L236.537 15.7723L237.156 15.154C237.454 14.856 237.69 14.5023 237.851 14.1129C238.013 13.7236 238.096 13.3063 238.096 12.8848C238.096 12.4634 238.013 12.046 237.851 11.6567C237.69 11.2673 237.454 10.9136 237.156 10.6156Z" stroke="#FD7E14" stroke-width="1.4" stroke-linecap="round" stroke-linejoin="round"/>
</svg>
