<svg width="196" height="202" viewBox="0 0 196 202" fill="none" xmlns="http://www.w3.org/2000/svg">
<rect x="0.554945" y="0.554945" width="194.231" height="200.89" rx="4.99451" fill="#FBFAF6" stroke="#F87537" stroke-width="1.10989" stroke-dasharray="2.22 2.22"/>
<g clip-path="url(#clip0_2729_882)">
<path d="M98 91H85.75C84.8217 91 83.9315 90.6313 83.2751 89.9749C82.6187 89.3185 82.25 88.4283 82.25 87.5V71.75C82.25 70.8217 82.6187 69.9315 83.2751 69.2751C83.9315 68.6187 84.8217 68.25 85.75 68.25H87.5C88.4283 68.25 89.3185 67.8813 89.9749 67.2249C90.6313 66.5685 91 65.6783 91 64.75C91 64.2859 91.1844 63.8408 91.5126 63.5126C91.8408 63.1844 92.2859 63 92.75 63H103.25C103.714 63 104.159 63.1844 104.487 63.5126C104.816 63.8408 105 64.2859 105 64.75C105 65.6783 105.369 66.5685 106.025 67.2249C106.682 67.8813 107.572 68.25 108.5 68.25H110.25C111.178 68.25 112.068 68.6187 112.725 69.2751C113.381 69.9315 113.75 70.8217 113.75 71.75V77.875" stroke="#6B6F75" stroke-width="3.5" stroke-linecap="round" stroke-linejoin="round"/>
<path d="M98 84C99.3924 84 100.728 83.4469 101.712 82.4623C102.697 81.4777 103.25 80.1424 103.25 78.75C103.25 77.3576 102.697 76.0223 101.712 75.0377C100.728 74.0531 99.3924 73.5 98 73.5C96.6076 73.5 95.2723 74.0531 94.2877 75.0377C93.3031 76.0223 92.75 77.3576 92.75 78.75C92.75 80.1424 93.3031 81.4777 94.2877 82.4623C95.2723 83.4469 96.6076 84 98 84Z" stroke="#6B6F75" stroke-width="3.5" stroke-linecap="round" stroke-linejoin="round"/>
<path d="M110.25 94.5V84" stroke="#6B6F75" stroke-width="3.5" stroke-linecap="round" stroke-linejoin="round"/>
<path d="M115.5 89.25L110.25 84L105 89.25" stroke="#6B6F75" stroke-width="3.5" stroke-linecap="round" stroke-linejoin="round"/>
</g>
<path d="M30.518 117.114C30.518 116.162 30.7373 115.308 31.176 114.552C31.624 113.796 32.226 113.208 32.982 112.788C33.7473 112.359 34.5827 112.144 35.488 112.144C36.524 112.144 37.4433 112.401 38.246 112.914C39.058 113.418 39.646 114.137 40.01 115.07H38.092C37.84 114.557 37.49 114.174 37.042 113.922C36.594 113.67 36.076 113.544 35.488 113.544C34.844 113.544 34.27 113.689 33.766 113.978C33.262 114.267 32.8653 114.683 32.576 115.224C32.296 115.765 32.156 116.395 32.156 117.114C32.156 117.833 32.296 118.463 32.576 119.004C32.8653 119.545 33.262 119.965 33.766 120.264C34.27 120.553 34.844 120.698 35.488 120.698C36.076 120.698 36.594 120.572 37.042 120.32C37.49 120.068 37.84 119.685 38.092 119.172H40.01C39.646 120.105 39.058 120.824 38.246 121.328C37.4433 121.832 36.524 122.084 35.488 122.084C34.5733 122.084 33.738 121.874 32.982 121.454C32.226 121.025 31.624 120.432 31.176 119.676C30.7373 118.92 30.518 118.066 30.518 117.114ZM43.4741 111.64V122H41.8781V111.64H43.4741ZM46.3815 113.264C46.0922 113.264 45.8495 113.166 45.6535 112.97C45.4575 112.774 45.3595 112.531 45.3595 112.242C45.3595 111.953 45.4575 111.71 45.6535 111.514C45.8495 111.318 46.0922 111.22 46.3815 111.22C46.6615 111.22 46.8995 111.318 47.0955 111.514C47.2915 111.71 47.3895 111.953 47.3895 112.242C47.3895 112.531 47.2915 112.774 47.0955 112.97C46.8995 113.166 46.6615 113.264 46.3815 113.264ZM47.1655 114.286V122H45.5695V114.286H47.1655ZM48.7289 118.136C48.7289 117.343 48.8876 116.647 49.2049 116.05C49.5316 115.443 49.9796 114.977 50.5489 114.65C51.1183 114.323 51.7716 114.16 52.5089 114.16C53.4423 114.16 54.2123 114.384 54.8189 114.832C55.4349 115.271 55.8503 115.901 56.0649 116.722H54.3429C54.2029 116.339 53.9789 116.041 53.6709 115.826C53.3629 115.611 52.9756 115.504 52.5089 115.504C51.8556 115.504 51.3329 115.737 50.9409 116.204C50.5583 116.661 50.3669 117.305 50.3669 118.136C50.3669 118.967 50.5583 119.615 50.9409 120.082C51.3329 120.549 51.8556 120.782 52.5089 120.782C53.4329 120.782 54.0443 120.376 54.3429 119.564H56.0649C55.8409 120.348 55.4209 120.973 54.8049 121.44C54.1889 121.897 53.4236 122.126 52.5089 122.126C51.7716 122.126 51.1183 121.963 50.5489 121.636C49.9796 121.3 49.5316 120.833 49.2049 120.236C48.8876 119.629 48.7289 118.929 48.7289 118.136ZM57.1235 118.136C57.1235 117.343 57.2821 116.647 57.5995 116.05C57.9261 115.443 58.3741 114.977 58.9435 114.65C59.5128 114.323 60.1661 114.16 60.9035 114.16C61.8368 114.16 62.6068 114.384 63.2135 114.832C63.8295 115.271 64.2448 115.901 64.4595 116.722H62.7375C62.5975 116.339 62.3735 116.041 62.0655 115.826C61.7575 115.611 61.3701 115.504 60.9035 115.504C60.2501 115.504 59.7275 115.737 59.3355 116.204C58.9528 116.661 58.7615 117.305 58.7615 118.136C58.7615 118.967 58.9528 119.615 59.3355 120.082C59.7275 120.549 60.2501 120.782 60.9035 120.782C61.8275 120.782 62.4388 120.376 62.7375 119.564H64.4595C64.2355 120.348 63.8155 120.973 63.1995 121.44C62.5835 121.897 61.8181 122.126 60.9035 122.126C60.1661 122.126 59.5128 121.963 58.9435 121.636C58.3741 121.3 57.9261 120.833 57.5995 120.236C57.2821 119.629 57.1235 118.929 57.1235 118.136ZM65.518 118.108C65.518 117.333 65.6767 116.647 65.994 116.05C66.3207 115.453 66.7593 114.991 67.31 114.664C67.87 114.328 68.486 114.16 69.158 114.16C69.7647 114.16 70.292 114.281 70.74 114.524C71.1973 114.757 71.5613 115.051 71.832 115.406V114.286H73.442V122H71.832V120.852C71.5613 121.216 71.1927 121.519 70.726 121.762C70.2593 122.005 69.7273 122.126 69.13 122.126C68.4673 122.126 67.8607 121.958 67.31 121.622C66.7593 121.277 66.3207 120.801 65.994 120.194C65.6767 119.578 65.518 118.883 65.518 118.108ZM71.832 118.136C71.832 117.604 71.72 117.142 71.496 116.75C71.2813 116.358 70.9967 116.059 70.642 115.854C70.2873 115.649 69.9047 115.546 69.494 115.546C69.0833 115.546 68.7007 115.649 68.346 115.854C67.9913 116.05 67.702 116.344 67.478 116.736C67.2633 117.119 67.156 117.576 67.156 118.108C67.156 118.64 67.2633 119.107 67.478 119.508C67.702 119.909 67.9913 120.217 68.346 120.432C68.71 120.637 69.0927 120.74 69.494 120.74C69.9047 120.74 70.2873 120.637 70.642 120.432C70.9967 120.227 71.2813 119.928 71.496 119.536C71.72 119.135 71.832 118.668 71.832 118.136ZM80.771 115.42C81.0417 115.065 81.4103 114.767 81.877 114.524C82.3437 114.281 82.871 114.16 83.459 114.16C84.131 114.16 84.7423 114.328 85.293 114.664C85.853 114.991 86.2917 115.453 86.609 116.05C86.9263 116.647 87.085 117.333 87.085 118.108C87.085 118.883 86.9263 119.578 86.609 120.194C86.2917 120.801 85.853 121.277 85.293 121.622C84.7423 121.958 84.131 122.126 83.459 122.126C82.871 122.126 82.3483 122.009 81.891 121.776C81.4337 121.533 81.0603 121.235 80.771 120.88V125.668H79.175V114.286H80.771V115.42ZM85.461 118.108C85.461 117.576 85.349 117.119 85.125 116.736C84.9103 116.344 84.621 116.05 84.257 115.854C83.9023 115.649 83.5197 115.546 83.109 115.546C82.7077 115.546 82.325 115.649 81.961 115.854C81.6063 116.059 81.317 116.358 81.093 116.75C80.8783 117.142 80.771 117.604 80.771 118.136C80.771 118.668 80.8783 119.135 81.093 119.536C81.317 119.928 81.6063 120.227 81.961 120.432C82.325 120.637 82.7077 120.74 83.109 120.74C83.5197 120.74 83.9023 120.637 84.257 120.432C84.621 120.217 84.9103 119.909 85.125 119.508C85.349 119.107 85.461 118.64 85.461 118.108ZM95.7333 117.954C95.7333 118.243 95.7146 118.505 95.6773 118.738H89.7833C89.8299 119.354 90.0586 119.849 90.4693 120.222C90.8799 120.595 91.3839 120.782 91.9813 120.782C92.8399 120.782 93.4466 120.423 93.8013 119.704H95.5233C95.2899 120.413 94.8653 120.997 94.2493 121.454C93.6426 121.902 92.8866 122.126 91.9813 122.126C91.2439 122.126 90.5813 121.963 89.9933 121.636C89.4146 121.3 88.9573 120.833 88.6213 120.236C88.2946 119.629 88.1313 118.929 88.1313 118.136C88.1313 117.343 88.2899 116.647 88.6073 116.05C88.9339 115.443 89.3866 114.977 89.9653 114.65C90.5533 114.323 91.2253 114.16 91.9813 114.16C92.7093 114.16 93.3579 114.319 93.9273 114.636C94.4966 114.953 94.9399 115.401 95.2573 115.98C95.5746 116.549 95.7333 117.207 95.7333 117.954ZM94.0673 117.45C94.0579 116.862 93.8479 116.391 93.4373 116.036C93.0266 115.681 92.5179 115.504 91.9113 115.504C91.3606 115.504 90.8893 115.681 90.4973 116.036C90.1053 116.381 89.8719 116.853 89.7973 117.45H94.0673ZM98.8999 115.406C99.1332 115.014 99.4412 114.711 99.8239 114.496C100.216 114.272 100.678 114.16 101.21 114.16V115.812H100.804C100.179 115.812 99.7026 115.971 99.3759 116.288C99.0586 116.605 98.8999 117.156 98.8999 117.94V122H97.3039V114.286H98.8999V115.406ZM105.782 118.136C105.782 117.343 105.94 116.647 106.258 116.05C106.584 115.443 107.032 114.977 107.602 114.65C108.171 114.323 108.824 114.16 109.562 114.16C110.495 114.16 111.265 114.384 111.872 114.832C112.488 115.271 112.903 115.901 113.118 116.722H111.396C111.256 116.339 111.032 116.041 110.724 115.826C110.416 115.611 110.028 115.504 109.562 115.504C108.908 115.504 108.386 115.737 107.994 116.204C107.611 116.661 107.42 117.305 107.42 118.136C107.42 118.967 107.611 119.615 107.994 120.082C108.386 120.549 108.908 120.782 109.562 120.782C110.486 120.782 111.097 120.376 111.396 119.564H113.118C112.894 120.348 112.474 120.973 111.858 121.44C111.242 121.897 110.476 122.126 109.562 122.126C108.824 122.126 108.171 121.963 107.602 121.636C107.032 121.3 106.584 120.833 106.258 120.236C105.94 119.629 105.782 118.929 105.782 118.136ZM114.176 118.108C114.176 117.333 114.335 116.647 114.652 116.05C114.979 115.453 115.418 114.991 115.968 114.664C116.528 114.328 117.144 114.16 117.816 114.16C118.423 114.16 118.95 114.281 119.398 114.524C119.856 114.757 120.22 115.051 120.49 115.406V114.286H122.1V122H120.49V120.852C120.22 121.216 119.851 121.519 119.384 121.762C118.918 122.005 118.386 122.126 117.788 122.126C117.126 122.126 116.519 121.958 115.968 121.622C115.418 121.277 114.979 120.801 114.652 120.194C114.335 119.578 114.176 118.883 114.176 118.108ZM120.49 118.136C120.49 117.604 120.378 117.142 120.154 116.75C119.94 116.358 119.655 116.059 119.3 115.854C118.946 115.649 118.563 115.546 118.152 115.546C117.742 115.546 117.359 115.649 117.004 115.854C116.65 116.05 116.36 116.344 116.136 116.736C115.922 117.119 115.814 117.576 115.814 118.108C115.814 118.64 115.922 119.107 116.136 119.508C116.36 119.909 116.65 120.217 117.004 120.432C117.368 120.637 117.751 120.74 118.152 120.74C118.563 120.74 118.946 120.637 119.3 120.432C119.655 120.227 119.94 119.928 120.154 119.536C120.378 119.135 120.49 118.668 120.49 118.136ZM125.792 115.406C126.026 115.014 126.334 114.711 126.716 114.496C127.108 114.272 127.57 114.16 128.102 114.16V115.812H127.696C127.071 115.812 126.595 115.971 126.268 116.288C125.951 116.605 125.792 117.156 125.792 117.94V122H124.196V114.286H125.792V115.406ZM130.382 113.264C130.092 113.264 129.85 113.166 129.654 112.97C129.458 112.774 129.36 112.531 129.36 112.242C129.36 111.953 129.458 111.71 129.654 111.514C129.85 111.318 130.092 111.22 130.382 111.22C130.662 111.22 130.9 111.318 131.096 111.514C131.292 111.71 131.39 111.953 131.39 112.242C131.39 112.531 131.292 112.774 131.096 112.97C130.9 113.166 130.662 113.264 130.382 113.264ZM131.166 114.286V122H129.57V114.286H131.166ZM132.729 118.136C132.729 117.343 132.888 116.647 133.205 116.05C133.532 115.443 133.98 114.977 134.549 114.65C135.118 114.323 135.772 114.16 136.509 114.16C137.442 114.16 138.212 114.384 138.819 114.832C139.435 115.271 139.85 115.901 140.065 116.722H138.343C138.203 116.339 137.979 116.041 137.671 115.826C137.363 115.611 136.976 115.504 136.509 115.504C135.856 115.504 135.333 115.737 134.941 116.204C134.558 116.661 134.367 117.305 134.367 118.136C134.367 118.967 134.558 119.615 134.941 120.082C135.333 120.549 135.856 120.782 136.509 120.782C137.433 120.782 138.044 120.376 138.343 119.564H140.065C139.841 120.348 139.421 120.973 138.805 121.44C138.189 121.897 137.424 122.126 136.509 122.126C135.772 122.126 135.118 121.963 134.549 121.636C133.98 121.3 133.532 120.833 133.205 120.236C132.888 119.629 132.729 118.929 132.729 118.136ZM141.123 118.108C141.123 117.333 141.282 116.647 141.599 116.05C141.926 115.453 142.365 114.991 142.915 114.664C143.475 114.328 144.091 114.16 144.763 114.16C145.37 114.16 145.897 114.281 146.345 114.524C146.803 114.757 147.167 115.051 147.437 115.406V114.286H149.047V122H147.437V120.852C147.167 121.216 146.798 121.519 146.331 121.762C145.865 122.005 145.333 122.126 144.735 122.126C144.073 122.126 143.466 121.958 142.915 121.622C142.365 121.277 141.926 120.801 141.599 120.194C141.282 119.578 141.123 118.883 141.123 118.108ZM147.437 118.136C147.437 117.604 147.325 117.142 147.101 116.75C146.887 116.358 146.602 116.059 146.247 115.854C145.893 115.649 145.51 115.546 145.099 115.546C144.689 115.546 144.306 115.649 143.951 115.854C143.597 116.05 143.307 116.344 143.083 116.736C142.869 117.119 142.761 117.576 142.761 118.108C142.761 118.64 142.869 119.107 143.083 119.508C143.307 119.909 143.597 120.217 143.951 120.432C144.315 120.637 144.698 120.74 145.099 120.74C145.51 120.74 145.893 120.637 146.247 120.432C146.602 120.227 146.887 119.928 147.101 119.536C147.325 119.135 147.437 118.668 147.437 118.136ZM152.74 115.406C152.973 115.014 153.281 114.711 153.664 114.496C154.056 114.272 154.518 114.16 155.05 114.16V115.812H154.644C154.018 115.812 153.542 115.971 153.216 116.288C152.898 116.605 152.74 117.156 152.74 117.94V122H151.144V114.286H152.74V115.406ZM163.587 117.954C163.587 118.243 163.568 118.505 163.531 118.738H157.637C157.683 119.354 157.912 119.849 158.323 120.222C158.733 120.595 159.237 120.782 159.835 120.782C160.693 120.782 161.3 120.423 161.655 119.704H163.377C163.143 120.413 162.719 120.997 162.103 121.454C161.496 121.902 160.74 122.126 159.835 122.126C159.097 122.126 158.435 121.963 157.847 121.636C157.268 121.3 156.811 120.833 156.475 120.236C156.148 119.629 155.985 118.929 155.985 118.136C155.985 117.343 156.143 116.647 156.461 116.05C156.787 115.443 157.24 114.977 157.819 114.65C158.407 114.323 159.079 114.16 159.835 114.16C160.563 114.16 161.211 114.319 161.781 114.636C162.35 114.953 162.793 115.401 163.111 115.98C163.428 116.549 163.587 117.207 163.587 117.954ZM161.921 117.45C161.911 116.862 161.701 116.391 161.291 116.036C160.88 115.681 160.371 115.504 159.765 115.504C159.214 115.504 158.743 115.681 158.351 116.036C157.959 116.381 157.725 116.853 157.651 117.45H161.921Z" fill="#F87537"/>
<path d="M30 123.4H78.4719V124.1H30V123.4ZM81.4734 123.4H164.105V124.1H81.4734V123.4Z" fill="#F87537"/>
<path d="M45.396 142.126C44.668 142.126 44.01 141.963 43.422 141.636C42.834 141.3 42.372 140.833 42.036 140.236C41.7 139.629 41.532 138.929 41.532 138.136C41.532 137.352 41.7047 136.657 42.05 136.05C42.3953 135.443 42.8667 134.977 43.464 134.65C44.0613 134.323 44.7287 134.16 45.466 134.16C46.2033 134.16 46.8707 134.323 47.468 134.65C48.0653 134.977 48.5367 135.443 48.882 136.05C49.2273 136.657 49.4 137.352 49.4 138.136C49.4 138.92 49.2227 139.615 48.868 140.222C48.5133 140.829 48.028 141.3 47.412 141.636C46.8053 141.963 46.1333 142.126 45.396 142.126ZM45.396 140.74C45.8067 140.74 46.1893 140.642 46.544 140.446C46.908 140.25 47.202 139.956 47.426 139.564C47.65 139.172 47.762 138.696 47.762 138.136C47.762 137.576 47.6547 137.105 47.44 136.722C47.2253 136.33 46.9407 136.036 46.586 135.84C46.2313 135.644 45.8487 135.546 45.438 135.546C45.0273 135.546 44.6447 135.644 44.29 135.84C43.9447 136.036 43.6693 136.33 43.464 136.722C43.2587 137.105 43.156 137.576 43.156 138.136C43.156 138.967 43.366 139.611 43.786 140.068C44.2153 140.516 44.752 140.74 45.396 140.74ZM52.5737 135.42C52.8444 135.065 53.2131 134.767 53.6797 134.524C54.1464 134.281 54.6737 134.16 55.2617 134.16C55.9337 134.16 56.5451 134.328 57.0957 134.664C57.6557 134.991 58.0944 135.453 58.4117 136.05C58.7291 136.647 58.8877 137.333 58.8877 138.108C58.8877 138.883 58.7291 139.578 58.4117 140.194C58.0944 140.801 57.6557 141.277 57.0957 141.622C56.5451 141.958 55.9337 142.126 55.2617 142.126C54.6737 142.126 54.1511 142.009 53.6937 141.776C53.2364 141.533 52.8631 141.235 52.5737 140.88V145.668H50.9777V134.286H52.5737V135.42ZM57.2637 138.108C57.2637 137.576 57.1517 137.119 56.9277 136.736C56.7131 136.344 56.4237 136.05 56.0597 135.854C55.7051 135.649 55.3224 135.546 54.9117 135.546C54.5104 135.546 54.1277 135.649 53.7637 135.854C53.4091 136.059 53.1197 136.358 52.8957 136.75C52.6811 137.142 52.5737 137.604 52.5737 138.136C52.5737 138.668 52.6811 139.135 52.8957 139.536C53.1197 139.928 53.4091 140.227 53.7637 140.432C54.1277 140.637 54.5104 140.74 54.9117 140.74C55.3224 140.74 55.7051 140.637 56.0597 140.432C56.4237 140.217 56.7131 139.909 56.9277 139.508C57.1517 139.107 57.2637 138.64 57.2637 138.108ZM62.062 135.42C62.3327 135.065 62.7013 134.767 63.168 134.524C63.6347 134.281 64.162 134.16 64.75 134.16C65.422 134.16 66.0333 134.328 66.584 134.664C67.144 134.991 67.5827 135.453 67.9 136.05C68.2173 136.647 68.376 137.333 68.376 138.108C68.376 138.883 68.2173 139.578 67.9 140.194C67.5827 140.801 67.144 141.277 66.584 141.622C66.0333 141.958 65.422 142.126 64.75 142.126C64.162 142.126 63.6393 142.009 63.182 141.776C62.7247 141.533 62.3513 141.235 62.062 140.88V145.668H60.466V134.286H62.062V135.42ZM66.752 138.108C66.752 137.576 66.64 137.119 66.416 136.736C66.2013 136.344 65.912 136.05 65.548 135.854C65.1933 135.649 64.8107 135.546 64.4 135.546C63.9987 135.546 63.616 135.649 63.252 135.854C62.8973 136.059 62.608 136.358 62.384 136.75C62.1693 137.142 62.062 137.604 62.062 138.136C62.062 138.668 62.1693 139.135 62.384 139.536C62.608 139.928 62.8973 140.227 63.252 140.432C63.616 140.637 63.9987 140.74 64.4 140.74C64.8107 140.74 65.1933 140.637 65.548 140.432C65.912 140.217 66.2013 139.909 66.416 139.508C66.64 139.107 66.752 138.64 66.752 138.108ZM76.9403 134.286V142H75.3443V141.09C75.0923 141.407 74.761 141.659 74.3503 141.846C73.949 142.023 73.5196 142.112 73.0623 142.112C72.4556 142.112 71.9096 141.986 71.4243 141.734C70.9483 141.482 70.5703 141.109 70.2903 140.614C70.0196 140.119 69.8843 139.522 69.8843 138.822V134.286H71.4663V138.584C71.4663 139.275 71.639 139.807 71.9843 140.18C72.3296 140.544 72.801 140.726 73.3983 140.726C73.9956 140.726 74.467 140.544 74.8123 140.18C75.167 139.807 75.3443 139.275 75.3443 138.584V134.286H76.9403ZM80.6421 135.406C80.8754 135.014 81.1834 134.711 81.5661 134.496C81.9581 134.272 82.4201 134.16 82.9521 134.16V135.812H82.5461C81.9208 135.812 81.4448 135.971 81.1181 136.288C80.8008 136.605 80.6421 137.156 80.6421 137.94V142H79.0461V134.286H80.6421V135.406ZM91.4891 137.954C91.4891 138.243 91.4705 138.505 91.4331 138.738H85.5391C85.5858 139.354 85.8145 139.849 86.2251 140.222C86.6358 140.595 87.1398 140.782 87.7371 140.782C88.5958 140.782 89.2025 140.423 89.5571 139.704H91.2791C91.0458 140.413 90.6211 140.997 90.0051 141.454C89.3985 141.902 88.6425 142.126 87.7371 142.126C86.9998 142.126 86.3371 141.963 85.7491 141.636C85.1705 141.3 84.7131 140.833 84.3771 140.236C84.0505 139.629 83.8871 138.929 83.8871 138.136C83.8871 137.343 84.0458 136.647 84.3631 136.05C84.6898 135.443 85.1425 134.977 85.7211 134.65C86.3091 134.323 86.9811 134.16 87.7371 134.16C88.4651 134.16 89.1138 134.319 89.6831 134.636C90.2525 134.953 90.6958 135.401 91.0131 135.98C91.3305 136.549 91.4891 137.207 91.4891 137.954ZM89.8231 137.45C89.8138 136.862 89.6038 136.391 89.1931 136.036C88.7825 135.681 88.2738 135.504 87.6671 135.504C87.1165 135.504 86.6451 135.681 86.2531 136.036C85.8611 136.381 85.6278 136.853 85.5531 137.45H89.8231ZM98.5585 135.588V139.858C98.5585 140.147 98.6238 140.357 98.7545 140.488C98.8945 140.609 99.1278 140.67 99.4545 140.67H100.434V142H99.1745C98.4558 142 97.9052 141.832 97.5225 141.496C97.1398 141.16 96.9485 140.614 96.9485 139.858V135.588H96.0385V134.286H96.9485V132.368H98.5585V134.286H100.434V135.588H98.5585ZM103.501 135.406C103.735 135.014 104.043 134.711 104.425 134.496C104.817 134.272 105.279 134.16 105.811 134.16V135.812H105.405C104.78 135.812 104.304 135.971 103.977 136.288C103.66 136.605 103.501 137.156 103.501 137.94V142H101.905V134.286H103.501V135.406ZM106.747 138.108C106.747 137.333 106.905 136.647 107.223 136.05C107.549 135.453 107.988 134.991 108.539 134.664C109.099 134.328 109.715 134.16 110.387 134.16C110.993 134.16 111.521 134.281 111.969 134.524C112.426 134.757 112.79 135.051 113.061 135.406V134.286H114.671V142H113.061V140.852C112.79 141.216 112.421 141.519 111.955 141.762C111.488 142.005 110.956 142.126 110.359 142.126C109.696 142.126 109.089 141.958 108.539 141.622C107.988 141.277 107.549 140.801 107.223 140.194C106.905 139.578 106.747 138.883 106.747 138.108ZM113.061 138.136C113.061 137.604 112.949 137.142 112.725 136.75C112.51 136.358 112.225 136.059 111.871 135.854C111.516 135.649 111.133 135.546 110.723 135.546C110.312 135.546 109.929 135.649 109.575 135.854C109.22 136.05 108.931 136.344 108.707 136.736C108.492 137.119 108.385 137.576 108.385 138.108C108.385 138.64 108.492 139.107 108.707 139.508C108.931 139.909 109.22 140.217 109.575 140.432C109.939 140.637 110.321 140.74 110.723 140.74C111.133 140.74 111.516 140.637 111.871 140.432C112.225 140.227 112.51 139.928 112.725 139.536C112.949 139.135 113.061 138.668 113.061 138.136ZM119.567 142.126C118.96 142.126 118.414 142.019 117.929 141.804C117.453 141.58 117.075 141.281 116.795 140.908C116.515 140.525 116.365 140.101 116.347 139.634H117.999C118.027 139.961 118.181 140.236 118.461 140.46C118.75 140.675 119.109 140.782 119.539 140.782C119.987 140.782 120.332 140.698 120.575 140.53C120.827 140.353 120.953 140.129 120.953 139.858C120.953 139.569 120.813 139.354 120.533 139.214C120.262 139.074 119.828 138.92 119.231 138.752C118.652 138.593 118.181 138.439 117.817 138.29C117.453 138.141 117.135 137.912 116.865 137.604C116.603 137.296 116.473 136.89 116.473 136.386C116.473 135.975 116.594 135.602 116.837 135.266C117.079 134.921 117.425 134.65 117.873 134.454C118.33 134.258 118.853 134.16 119.441 134.16C120.318 134.16 121.023 134.384 121.555 134.832C122.096 135.271 122.385 135.873 122.423 136.638H120.827C120.799 136.293 120.659 136.017 120.407 135.812C120.155 135.607 119.814 135.504 119.385 135.504C118.965 135.504 118.643 135.583 118.419 135.742C118.195 135.901 118.083 136.111 118.083 136.372C118.083 136.577 118.157 136.75 118.307 136.89C118.456 137.03 118.638 137.142 118.853 137.226C119.067 137.301 119.385 137.399 119.805 137.52C120.365 137.669 120.822 137.823 121.177 137.982C121.541 138.131 121.853 138.355 122.115 138.654C122.376 138.953 122.511 139.349 122.521 139.844C122.521 140.283 122.399 140.675 122.157 141.02C121.914 141.365 121.569 141.636 121.121 141.832C120.682 142.028 120.164 142.126 119.567 142.126ZM123.713 138.136C123.713 137.343 123.872 136.647 124.189 136.05C124.516 135.443 124.964 134.977 125.533 134.65C126.103 134.323 126.756 134.16 127.493 134.16C128.427 134.16 129.197 134.384 129.803 134.832C130.419 135.271 130.835 135.901 131.049 136.722H129.327C129.187 136.339 128.963 136.041 128.655 135.826C128.347 135.611 127.96 135.504 127.493 135.504C126.84 135.504 126.317 135.737 125.925 136.204C125.543 136.661 125.351 137.305 125.351 138.136C125.351 138.967 125.543 139.615 125.925 140.082C126.317 140.549 126.84 140.782 127.493 140.782C128.417 140.782 129.029 140.376 129.327 139.564H131.049C130.825 140.348 130.405 140.973 129.789 141.44C129.173 141.897 128.408 142.126 127.493 142.126C126.756 142.126 126.103 141.963 125.533 141.636C124.964 141.3 124.516 140.833 124.189 140.236C123.872 139.629 123.713 138.929 123.713 138.136ZM133.452 133.264C133.163 133.264 132.92 133.166 132.724 132.97C132.528 132.774 132.43 132.531 132.43 132.242C132.43 131.953 132.528 131.71 132.724 131.514C132.92 131.318 133.163 131.22 133.452 131.22C133.732 131.22 133.97 131.318 134.166 131.514C134.362 131.71 134.46 131.953 134.46 132.242C134.46 132.531 134.362 132.774 134.166 132.97C133.97 133.166 133.732 133.264 133.452 133.264ZM134.236 134.286V142H132.64V134.286H134.236ZM140.223 134.16C140.83 134.16 141.371 134.286 141.847 134.538C142.333 134.79 142.711 135.163 142.981 135.658C143.252 136.153 143.387 136.75 143.387 137.45V142H141.805V137.688C141.805 136.997 141.633 136.47 141.287 136.106C140.942 135.733 140.471 135.546 139.873 135.546C139.276 135.546 138.8 135.733 138.445 136.106C138.1 136.47 137.927 136.997 137.927 137.688V142H136.331V134.286H137.927V135.168C138.189 134.851 138.52 134.603 138.921 134.426C139.332 134.249 139.766 134.16 140.223 134.16ZM144.891 138.108C144.891 137.333 145.05 136.647 145.367 136.05C145.694 135.453 146.132 134.991 146.683 134.664C147.243 134.328 147.859 134.16 148.531 134.16C149.138 134.16 149.665 134.281 150.113 134.524C150.57 134.757 150.934 135.051 151.205 135.406V134.286H152.815V142H151.205V140.852C150.934 141.216 150.566 141.519 150.099 141.762C149.632 142.005 149.1 142.126 148.503 142.126C147.84 142.126 147.234 141.958 146.683 141.622C146.132 141.277 145.694 140.801 145.367 140.194C145.05 139.578 144.891 138.883 144.891 138.108ZM151.205 138.136C151.205 137.604 151.093 137.142 150.869 136.75C150.654 136.358 150.37 136.059 150.015 135.854C149.66 135.649 149.278 135.546 148.867 135.546C148.456 135.546 148.074 135.649 147.719 135.854C147.364 136.05 147.075 136.344 146.851 136.736C146.636 137.119 146.529 137.576 146.529 138.108C146.529 138.64 146.636 139.107 146.851 139.508C147.075 139.909 147.364 140.217 147.719 140.432C148.083 140.637 148.466 140.74 148.867 140.74C149.278 140.74 149.66 140.637 150.015 140.432C150.37 140.227 150.654 139.928 150.869 139.536C151.093 139.135 151.205 138.668 151.205 138.136Z" fill="#5C5C5C"/>
<defs>
<clipPath id="clip0_2729_882">
<rect width="42" height="42" fill="white" transform="translate(77 56)"/>
</clipPath>
</defs>
</svg>
