<svg width="267" height="223" viewBox="0 0 267 223" fill="none" xmlns="http://www.w3.org/2000/svg">
<path d="M13.1766 85.7366L34.6208 86.0354L7.23914 102.088L13.1766 85.7366Z" fill="#663091"/>
<path d="M267 106.389C261.368 110.422 255.665 114.918 249.897 119.785C242.263 119.932 221.347 119.002 213.517 119.079C198.291 119.225 182.743 119.245 167.045 119.163C125.904 118.954 83.7395 118.047 43.7157 116.898C29.1557 118.093 14.8802 119.036 1.03851 119.57C30.7733 100.299 62.5194 69.2716 94.7654 39.1575C130.099 57.6365 166.031 82.9164 200.578 103.352C202.242 100.229 203.901 97.1489 205.558 94.1176C205.809 94.1808 206.061 94.2426 206.312 94.3058C208.428 94.8287 210.54 95.3488 212.645 95.8645C225.437 98.9963 251.176 103.016 263.411 105.632C264.611 105.886 265.807 106.139 267 106.389Z" fill="url(#paint0_linear_126_69)"/>
<path d="M169.844 220.51C124.726 226.501 78.2907 221.274 34.7272 205.706C34.9743 173.68 35.2084 141.556 35.4426 109.37V108.643C56.2145 95.0456 84.665 73.0915 106.274 56.8693C129.351 70.0473 152.661 85.3816 175.626 99.5709C175.639 101.013 175.651 102.456 175.639 103.909C175.552 141.382 169.438 183.516 169.844 220.51Z" fill="#FFAB32"/>
<path d="M267 106.389C251.397 103.128 223.6 99.2436 207.095 95.1636C171.364 71.1666 132.498 40.5411 95.7941 19.7347C117.273 25.2628 138.964 33.3624 160.425 42.5049C192.58 65.1214 237.384 90.1772 267 106.389Z" fill="#813AAF"/>
<path d="M165.487 27.4506C147.399 17.0985 129.122 7.54073 110.923 0C110.34 9.25604 109.758 18.5035 109.176 27.7451C126.792 31.6958 144.489 37.0457 162.025 43.1541C163.178 37.8933 164.332 32.6583 165.487 27.4506Z" fill="#663091"/>
<path opacity="0.5" d="M71.4852 216.055C66.3508 209.974 61.2394 203.899 56.1552 197.895C56.1854 198.656 68.6781 116.264 99.9989 108.429C133.49 101.691 141.699 143.257 141.682 143.166C144.018 170.003 147.743 195.825 150.076 222.401C124.306 223.465 96.9275 221.869 71.4852 216.055Z" fill="#D42F55"/>
<path d="M68.3953 197.928C67.2978 181.847 69.2415 148.354 69.2415 148.354C69.2415 148.354 69.2975 114.342 99.8814 107.498C132.656 100.558 141.954 142.179 141.922 142.139C144.041 162.75 146.16 183.345 148.278 203.881C121.462 205.033 94.5487 203.095 68.3953 197.928Z" fill="url(#paint1_linear_126_69)"/>
<path d="M136 202.307C109.189 203.453 82.2785 201.518 56.1208 196.353C55.7516 191.004 55.7258 183.719 55.8493 176.383C56.1079 161.69 56.9713 146.773 56.9713 146.773C56.9713 146.773 57.0201 112.763 87.604 105.921C120.382 98.9805 129.676 140.609 129.652 140.56C131.02 153.824 132.376 167.075 133.732 180.315C134.485 187.651 135.249 194.986 136 202.307Z" fill="#CD8AF9"/>
<path d="M123.723 191.06C123.703 191.06 123.683 191.061 123.663 191.061C111.818 191.081 99.9803 190.573 88.2231 189.527C86.1673 189.341 84.113 189.14 82.0615 188.923C82.0457 188.922 82.0314 188.921 82.0155 188.919C80.3261 188.745 78.6395 188.561 76.9544 188.365C73.4692 187.958 69.994 187.504 66.529 187.003C66.0836 174.375 67.039 152.34 67.039 152.34C67.039 152.34 66.7301 124.072 89.4227 119.953C94.4925 119.06 98.9086 119.77 102.68 121.469C105.267 122.631 107.537 124.243 109.508 126.096C110.016 126.575 110.506 127.06 110.972 127.57C112.246 128.937 113.375 130.392 114.366 131.857C118.481 137.933 120.241 144.129 120.544 145.268C120.578 145.394 120.593 145.458 120.593 145.458C121.636 160.654 122.68 175.856 123.723 191.06Z" fill="#813AAF"/>
<path d="M123.667 191.059C111.821 191.084 99.9861 190.567 88.2261 189.531C86.1674 189.346 84.1088 189.136 82.063 188.928C82.0501 188.915 82.0257 188.915 82.0142 188.915C80.3262 188.742 78.6367 188.557 76.9602 188.36V180.36C76.9473 171.904 76.9358 163.447 76.9358 154.978C76.9602 154.94 79.3637 128.524 102.674 121.473C105.263 122.633 107.531 124.247 109.504 126.096C110.021 126.578 110.502 127.057 110.97 127.576C112.24 128.945 113.374 130.399 114.361 131.854C118.478 137.931 120.241 144.131 120.55 145.266C121.215 155.091 121.881 164.916 122.559 174.741C122.927 180.176 123.296 185.623 123.667 191.059Z" fill="#600C3A"/>
<path d="M232.806 119.426C215.993 115.28 174.049 98.6257 174.049 98.6257L167.544 220.953C167.544 220.953 217.226 215.384 233.218 210.042C233.08 179.881 232.944 149.675 232.806 119.426Z" fill="url(#paint2_linear_126_69)"/>
<path opacity="0.5" d="M175.638 103.908L173.838 108.703C173.838 108.703 122.717 49.1146 35.4409 109.369V108.642C56.2128 95.0442 84.6633 73.09 106.273 56.8679C129.349 70.0459 152.659 85.3802 175.625 99.5695C175.638 101.01 175.649 102.453 175.638 103.908Z" fill="#D42F55"/>
<path d="M123.667 191.06C111.821 191.084 99.9863 190.567 88.2262 189.531C86.1676 189.346 84.1089 189.136 82.0632 188.928C82.0503 188.915 82.0259 188.915 82.0144 188.915C80.3263 188.743 78.6369 188.557 76.9604 188.36V180.36C87.5869 176.477 102.822 173.234 122.558 174.738C122.927 180.176 123.297 185.624 123.667 191.06Z" fill="#662063"/>
<path opacity="0.5" d="M176.356 182.555C186.428 215.708 229.651 210.251 231.329 205.636C233.007 201.02 231.644 122.545 227.238 119.083C222.832 115.621 208.354 111.215 208.354 111.215L206.308 114.362L194.663 110.271L179.083 100.83L176.356 182.555Z" fill="#D42F55"/>
<path opacity="0.3" d="M36.8246 184.547C35.4081 207.405 41.4404 208.047 41.4404 208.047L58.6984 213.188C58.6984 213.188 51.1447 198.684 46.1094 192.808C41.0727 186.935 36.8246 184.547 36.8246 184.547Z" fill="#D42F55"/>
<path opacity="0.5" d="M186.813 59.9667C143.249 40.3542 121.713 35.6335 119.593 33.7961C117.079 31.5894 112.986 28.4332 112.986 28.4332L160.427 42.5048L186.813 59.9667Z" fill="#79157C"/>
<path d="M74.8027 110.795C79.9428 121.811 82.6709 107.123 81.2027 107.752C79.7331 108.382 74.8027 110.795 74.8027 110.795Z" fill="white"/>
<path opacity="0.69" d="M136 202.307C109.189 203.453 82.2785 201.518 56.1208 196.354C55.7516 191.004 55.7258 183.719 55.8493 176.383C62.7651 181.117 69.8648 184.309 76.953 186.281C93.2743 190.843 109.496 188.944 123.216 184.444C126.927 183.236 130.439 181.831 133.73 180.315C134.485 187.651 135.249 194.986 136 202.307Z" fill="url(#paint3_linear_126_69)"/>
<path d="M1.03876 119.569C31.3482 102.587 63.7451 74.8687 96.6318 48.1335C133.405 70.9913 193.561 111.844 193.561 111.844L205.558 94.1163C205.558 94.1163 132.498 40.5411 95.7943 19.7347C62.9104 50.6347 30.5279 83.6378 0.250061 105.509C0.514396 110.173 0.775863 114.859 1.03876 119.569Z" fill="#CD8AF9"/>
<path d="M80.3464 9.11953C81.3075 21.7372 82.2685 34.4181 83.2311 47.155C91.5073 46.3721 99.8282 45.8118 108.169 45.4742C109.086 30.3367 110.004 15.1777 110.922 0.00140381C100.689 2.53845 90.4816 5.60703 80.3464 9.11953Z" fill="#CD8AF9"/>
<path d="M110.922 0.00140381C109.446 18.1357 107.972 36.2397 106.498 54.2993C107.287 55.2173 108.077 56.1396 108.866 57.0633C111.374 39.6474 113.884 22.1725 116.395 4.68473C114.571 3.10303 112.746 1.54144 110.922 0.00140381Z" fill="#663091"/>
<path d="M0 95.1636C0.346222 103.246 0.692448 111.381 1.03867 119.57C5.64298 116.994 10.2961 114.173 14.991 111.143C14.3847 102.598 13.7799 94.1278 13.1751 85.7366C8.74461 89.0365 4.35004 92.1898 0 95.1636Z" fill="#CD8AF9"/>
<path d="M194.664 75.0208L179.084 100.829C179.084 100.829 194.664 110.743 194.664 110.271C194.664 109.798 212.604 84.7768 212.604 84.7768L194.664 75.0208Z" fill="#CD8AF9"/>
<path d="M96.781 4.67755C103.391 15.8515 110.63 5.93602 110.157 2.15919C109.685 -1.61764 96.781 4.67755 96.781 4.67755Z" fill="#E0B8FF"/>
<path d="M187.896 86.0353C151.386 54.2475 116.289 31.9285 116.289 31.9285L189.785 81.3146L187.896 86.0353Z" fill="#E0B8FF"/>
<path d="M219.213 88.7117L212.603 84.7768L193.315 112.562L205.68 114.52L220.786 89.6555L219.213 88.7117Z" fill="url(#paint4_linear_126_69)"/>
<defs>
<linearGradient id="paint0_linear_126_69" x1="124.45" y1="165.696" x2="144.624" y2="54.5577" gradientUnits="userSpaceOnUse">
<stop stop-color="#D85126"/>
<stop offset="0.9919" stop-color="#663091"/>
</linearGradient>
<linearGradient id="paint1_linear_126_69" x1="82.9454" y1="71.0122" x2="104.586" y2="167.479" gradientUnits="userSpaceOnUse">
<stop stop-color="#D85126"/>
<stop offset="0.9919" stop-color="#663091"/>
</linearGradient>
<linearGradient id="paint2_linear_126_69" x1="237.809" y1="109.741" x2="146.356" y2="229.071" gradientUnits="userSpaceOnUse">
<stop stop-color="#A72D1C"/>
<stop offset="0.3883" stop-color="#D85126"/>
<stop offset="1" stop-color="#EC7532"/>
</linearGradient>
<linearGradient id="paint3_linear_126_69" x1="83.0946" y1="144.909" x2="103.447" y2="219.607" gradientUnits="userSpaceOnUse">
<stop stop-color="white"/>
<stop offset="1" stop-color="#760094"/>
</linearGradient>
<linearGradient id="paint4_linear_126_69" x1="200.965" y1="139.387" x2="208.546" y2="91.7041" gradientUnits="userSpaceOnUse">
<stop stop-color="#D85126"/>
<stop offset="0.9919" stop-color="#663091"/>
</linearGradient>
</defs>
</svg>
