<svg width="24" height="25" viewBox="0 0 24 25" fill="none" xmlns="http://www.w3.org/2000/svg">
<path d="M20.8382 5.10999C20.3274 4.599 19.721 4.19364 19.0535 3.91708C18.3861 3.64052 17.6707 3.49817 16.9482 3.49817C16.2257 3.49817 15.5103 3.64052 14.8428 3.91708C14.1754 4.19364 13.5689 4.599 13.0582 5.10999L11.9982 6.16999L10.9382 5.10999C9.90647 4.0783 8.5072 3.4987 7.04817 3.4987C5.58913 3.4987 4.18986 4.0783 3.15817 5.10999C2.12647 6.14169 1.54688 7.54096 1.54688 8.99999C1.54687 10.459 2.12647 11.8583 3.15817 12.89L4.21817 13.95L11.9982 21.73L19.7782 13.95L20.8382 12.89C21.3492 12.3792 21.7545 11.7728 22.0311 11.1053C22.3076 10.4379 22.45 9.72248 22.45 8.99999C22.45 8.27751 22.3076 7.5621 22.0311 6.89464C21.7545 6.22718 21.3492 5.62075 20.8382 5.10999Z" stroke="#1A1A1A" stroke-width="2" stroke-linecap="round" stroke-linejoin="round"/>
</svg>
