<svg width="50" height="50" viewBox="0 0 50 50" fill="none" xmlns="http://www.w3.org/2000/svg">
<circle cx="25" cy="25" r="24.5" fill="white" stroke="#EEEEEE"/>
<g clip-path="url(#clip0_840_178)">
<path d="M32.4998 26.572L24.9998 34L17.4998 26.572C17.0051 26.0906 16.6155 25.512 16.3554 24.8726C16.0953 24.2333 15.9704 23.5469 15.9886 22.8569C16.0067 22.1669 16.1676 21.4881 16.461 20.8633C16.7544 20.2385 17.1739 19.6812 17.6933 19.2266C18.2127 18.7719 18.8205 18.4297 19.4786 18.2215C20.1367 18.0133 20.8308 17.9436 21.5172 18.0168C22.2035 18.09 22.8673 18.3046 23.4667 18.6469C24.0661 18.9892 24.5881 19.452 24.9998 20.006C25.4133 19.456 25.9359 18.9973 26.5349 18.6586C27.1339 18.3199 27.7963 18.1084 28.4807 18.0375C29.1652 17.9666 29.8569 18.0377 30.5126 18.2464C31.1683 18.4551 31.7738 18.7969 32.2914 19.2504C32.8089 19.7038 33.2272 20.2593 33.5202 20.8819C33.8132 21.5045 33.9746 22.1809 33.9941 22.8687C34.0137 23.5565 33.8911 24.241 33.6339 24.8792C33.3768 25.5175 32.9907 26.0958 32.4998 26.578" stroke="#1A1A1A" stroke-width="2" stroke-linecap="round" stroke-linejoin="round"/>
</g>
<defs>
<clipPath id="clip0_840_178">
<rect width="24" height="24" fill="white" transform="translate(13 14)"/>
</clipPath>
</defs>
</svg>
