<?xml version="1.0" encoding="utf-8"?>
<!-- Generator: Adobe Illustrator 18.0.0, SVG Export Plug-In . SVG Version: 6.00 Build 0)  -->
<!DOCTYPE svg PUBLIC "-//W3C//DTD SVG 1.1//EN" "http://www.w3.org/Graphics/SVG/1.1/DTD/svg11.dtd">
<svg version="1.1" id="Livello_1" xmlns="http://www.w3.org/2000/svg" xmlns:xlink="http://www.w3.org/1999/xlink" x="0px" y="0px"
	 viewBox="0 0 30 30" enable-background="new 0 0 30 30" xml:space="preserve">
<path fill="#F8F9FA" d="M15,1L15,1c7.7,0,14,6.3,14,14l0,0c0,7.7-6.3,14-14,14l0,0C7.3,29,1,22.7,1,15l0,0C1,7.3,7.3,1,15,1z"/>
<path fill="none" stroke="#FD7E14" stroke-width="1.4" stroke-linecap="round" stroke-linejoin="round" d="M20.2,10.7
	c-0.3-0.3-0.7-0.5-1-0.7c-0.4-0.2-0.8-0.2-1.2-0.2c-0.4,0-0.8,0.1-1.2,0.2c-0.4,0.2-0.7,0.4-1,0.7L15,11.3l-0.6-0.6
	c-0.6-0.6-1.4-0.9-2.3-0.9c-0.9,0-1.7,0.3-2.3,0.9c-0.6,0.6-0.9,1.4-0.9,2.3s0.3,1.7,0.9,2.3l0.6,0.6l4.5,4.5l4.5-4.5l0.6-0.6
	c0.3-0.3,0.5-0.7,0.7-1c0.2-0.4,0.2-0.8,0.2-1.2c0-0.4-0.1-0.8-0.2-1.2C20.7,11.3,20.5,11,20.2,10.7z"/>
</svg>
