<svg width="24" height="24" viewBox="0 0 24 24" fill="none" xmlns="http://www.w3.org/2000/svg">
<g clip-path="url(#clip0_1216_2806)">
<path d="M10.425 1.41399C10.8858 1.15986 11.4003 1.01857 11.9263 1.00171C12.4523 0.984849 12.9748 1.09289 13.451 1.31699L13.641 1.41399L20.416 5.40899L20.512 5.47199L20.604 5.54899L20.711 5.62399C21.0585 5.88459 21.3498 6.21274 21.5674 6.58873C21.7849 6.96472 21.9243 7.3808 21.977 7.81199L21.995 8.01399L22 8.21799V15.502C22 16.608 21.43 17.631 20.546 18.195L20.376 18.295L13.573 22.597C12.655 23.101 11.554 23.132 10.569 22.665L10.373 22.565L3.678 18.328C3.20148 18.0674 2.79847 17.6908 2.50636 17.233C2.21424 16.7751 2.04248 16.2509 2.007 15.709L2 15.502V8.21699C2 7.11099 2.57 6.08899 3.476 5.51199L10.425 1.41399ZM12 15C11.7551 15 11.5187 15.0899 11.3356 15.2527C11.1526 15.4155 11.0357 15.6397 11.007 15.883L11 16L11.007 16.127C11.0359 16.37 11.153 16.594 11.336 16.7566C11.519 16.9191 11.7552 17.0089 12 17.0089C12.2448 17.0089 12.481 16.9191 12.664 16.7566C12.847 16.594 12.9641 16.37 12.993 16.127L13 16.01L12.993 15.883C12.9643 15.6397 12.8474 15.4155 12.6644 15.2527C12.4813 15.0899 12.2449 15 12 15ZM13.368 8.32698C12.7694 8.02095 12.0849 7.92633 11.4257 8.0585C10.7665 8.19066 10.1714 8.54184 9.737 9.05499C9.57138 9.24899 9.48616 9.49895 9.49878 9.75372C9.51139 10.0085 9.62089 10.2488 9.80487 10.4255C9.98884 10.6022 10.2334 10.7019 10.4885 10.7042C10.7435 10.7065 10.9898 10.6113 11.177 10.438L11.348 10.258C11.4955 10.1226 11.681 10.0356 11.8795 10.0088C12.0779 9.98196 12.2798 10.0166 12.458 10.108C12.6501 10.2052 12.8057 10.3618 12.9016 10.5545C12.9976 10.7472 13.0288 10.9658 12.9906 11.1776C12.9524 11.3895 12.8468 11.5834 12.6896 11.7305C12.5324 11.8776 12.3319 11.97 12.118 11.994L11.886 12.006C11.6317 12.034 11.3977 12.1584 11.2323 12.3536C11.0669 12.5489 10.9827 12.8001 10.9969 13.0556C11.0111 13.311 11.1228 13.5514 11.3088 13.727C11.4948 13.9027 11.7411 14.0004 11.997 14C12.6716 14.002 13.3272 13.7766 13.858 13.3601C14.3887 12.9437 14.7636 12.3605 14.9221 11.7047C15.0805 11.049 15.0134 10.3589 14.7314 9.74608C14.4494 9.1332 13.9691 8.63326 13.368 8.32698Z" fill="#7F7A7A"/>
</g>
<defs>
<clipPath id="clip0_1216_2806">
<rect width="24" height="24" fill="white"/>
</clipPath>
</defs>
</svg>
