<svg width="68" height="43" viewBox="0 0 68 43" fill="none" xmlns="http://www.w3.org/2000/svg">
<path d="M27.3413 25.8046C28.2778 25.5803 29.4495 25.5547 30.2927 26.077C30.7001 26.3294 31.0374 26.6925 31.1481 27.1693C31.3024 27.8341 31.0332 28.5745 30.6781 29.1316C30.2245 29.8433 29.34 30.5519 28.5615 30.8964C28.5248 30.8907 28.537 30.8876 28.5084 30.8975C28.501 30.9001 28.4939 30.9038 28.4863 30.9059C28.4528 30.9151 28.4337 30.917 28.4041 30.9369C28.3952 30.9429 28.3864 30.949 28.3775 30.9551C28.4383 30.8461 28.7554 30.6791 28.8669 30.6037C29.4383 30.2171 29.8314 29.8282 30.1823 29.2312C30.2928 29.0431 30.4012 28.84 30.463 28.6297C30.6156 28.1105 30.6154 27.5108 30.3521 27.0269C29.9025 26.2007 28.8741 25.9275 28.0015 25.8702C27.8402 25.8596 27.5089 25.8895 27.3784 25.8455C27.3488 25.8355 27.354 25.8309 27.3413 25.8046Z" fill="#F87537"/>
<path d="M15.2545 11.0976C15.8894 10.5035 16.7057 10.0007 17.5546 9.79194C18.1954 9.63434 18.9009 9.57481 19.4883 9.93491C19.877 10.1731 20.123 10.5543 20.2287 10.9932C20.4601 11.9536 20.1072 13.0136 19.6075 13.8366C19.5824 13.7876 19.5815 13.7733 19.5971 13.7205C19.6454 13.5563 19.722 13.4004 19.7697 13.2347C19.9544 12.5936 19.9597 11.8922 19.6639 11.2828C19.4487 10.8395 19.0881 10.5137 18.6213 10.3536C17.7482 10.054 16.7645 10.3502 15.9699 10.7471C15.8316 10.8162 15.3706 11.1279 15.2545 11.0976Z" fill="#F87537"/>
<path d="M30.4172 16.5011C30.613 16.4623 30.8129 16.4509 31.0119 16.4419C31.6568 16.4126 32.2561 16.4943 32.8034 16.8619C33.3116 17.2033 33.5923 17.7314 33.7046 18.3233C33.9548 19.6423 33.4625 21.1148 32.7161 22.1985C32.1929 22.9582 31.6579 23.4693 30.8743 23.9623C30.8739 23.9533 30.8707 23.9439 30.8732 23.9353C30.8768 23.9226 31.0015 23.8227 31.0193 23.8057C31.2182 23.615 31.4202 23.4254 31.6045 23.2203C31.6467 23.1729 31.688 23.1247 31.7287 23.0759C31.7693 23.0271 31.8091 22.9776 31.848 22.9275C31.887 22.8774 31.9251 22.8266 31.9624 22.7752C31.9997 22.7238 32.0361 22.6718 32.0717 22.6192C32.1072 22.5666 32.1419 22.5135 32.1757 22.4597C32.2095 22.406 32.2424 22.3517 32.2744 22.2969C32.3065 22.242 32.3375 22.1867 32.3677 22.1308C32.3979 22.0749 32.4271 22.0186 32.4554 21.9618C32.4837 21.9049 32.5111 21.8477 32.5375 21.7899C32.5639 21.7322 32.5893 21.674 32.6138 21.6154C32.6383 21.5568 32.6618 21.4978 32.6843 21.4385C32.7068 21.3791 32.7283 21.3194 32.7489 21.2593C32.7694 21.1992 32.789 21.1388 32.8075 21.0781C32.8261 21.0174 32.8436 20.9564 32.8601 20.8951C32.8766 20.8338 32.8921 20.7722 32.9066 20.7104C32.9211 20.6486 32.9346 20.5865 32.947 20.5243C33.1359 19.5336 33.0985 18.4366 32.511 17.5806C32.1528 17.0586 31.6113 16.6936 30.9869 16.5823C30.8007 16.5491 30.6074 16.5587 30.4252 16.5247L30.4172 16.5011Z" fill="#F87537"/>
<path d="M15.2543 11.0974C15.3704 11.1277 15.8314 10.816 15.9697 10.7469C16.7643 10.35 17.7479 10.0538 18.6211 10.3534C19.0879 10.5135 19.4485 10.8393 19.6637 11.2826C19.9595 11.892 19.9542 12.5934 19.7695 13.2345C19.7218 13.4002 19.6452 13.5561 19.5969 13.7203C19.5813 13.7731 19.5822 13.7874 19.6073 13.8364C19.5481 14.0033 19.4001 14.1739 19.2898 14.3107C18.6517 15.1018 17.79 15.7396 16.8743 16.1738C16.1883 16.499 15.2727 16.7119 14.5328 16.4463C14.1175 16.2971 13.804 15.9939 13.6214 15.5946C13.3154 14.9253 13.4501 14.0625 13.7013 13.3985C13.983 12.654 14.3854 11.9993 14.9298 11.4185C15.0285 11.3131 15.1391 11.1832 15.2543 11.0974Z" fill="#F87537"/>
<path d="M27.3414 25.8048C27.3541 25.831 27.3489 25.8356 27.3785 25.8456C27.5089 25.8896 27.8403 25.8597 28.0015 25.8703C28.8742 25.9277 29.9026 26.2008 30.3522 27.027C30.6154 27.5109 30.6156 28.1106 30.4631 28.6298C30.4013 28.8401 30.2929 29.0432 30.1823 29.2313C29.8315 29.8283 29.4383 30.2172 28.8669 30.6038C28.7554 30.6792 28.4384 30.8463 28.3776 30.9552C28.3864 30.9491 28.3952 30.943 28.4042 30.937C28.4337 30.9171 28.4529 30.9152 28.4864 30.906C28.494 30.9039 28.5011 30.9002 28.5085 30.8976C28.5371 30.8877 28.5248 30.8908 28.5616 30.8965C28.2314 31.0693 27.8296 31.2045 27.468 31.29C26.4478 31.5313 25.1863 31.565 24.2701 30.9888C23.8671 30.7353 23.5774 30.368 23.4757 29.8987C23.3424 29.2834 23.5747 28.5825 23.906 28.0664C24.6546 26.8999 26 26.0984 27.3414 25.8048Z" fill="#F87537"/>
<path d="M30.4173 16.501L30.4252 16.5246C30.6075 16.5585 30.8007 16.549 30.9869 16.5822C31.6113 16.6934 32.1528 17.0585 32.511 17.5805C33.0985 18.4365 33.1359 19.5335 32.947 20.5242C32.9346 20.5864 32.9211 20.6485 32.9066 20.7103C32.8922 20.7721 32.8767 20.8337 32.8601 20.895C32.8436 20.9563 32.8261 21.0173 32.8075 21.078C32.789 21.1387 32.7695 21.1991 32.7489 21.2592C32.7284 21.3193 32.7068 21.379 32.6843 21.4383C32.6618 21.4977 32.6383 21.5567 32.6138 21.6153C32.5894 21.6739 32.5639 21.732 32.5375 21.7898C32.5111 21.8475 32.4837 21.9048 32.4554 21.9616C32.4271 22.0185 32.3979 22.0748 32.3677 22.1307C32.3376 22.1865 32.3065 22.2419 32.2745 22.2968C32.2424 22.3516 32.2096 22.4059 32.1758 22.4596C32.1419 22.5134 32.1073 22.5665 32.0717 22.6191C32.0361 22.6717 31.9997 22.7237 31.9625 22.7751C31.9251 22.8265 31.887 22.8773 31.8481 22.9274C31.8091 22.9775 31.7693 23.027 31.7287 23.0758C31.6881 23.1246 31.6467 23.1727 31.6045 23.2202C31.4203 23.4252 31.2182 23.6149 31.0193 23.8056C31.0015 23.8226 30.8768 23.9225 30.8732 23.9352C30.8708 23.9438 30.8739 23.9531 30.8743 23.9621C30.7728 24.041 30.6446 24.1002 30.5296 24.1581C29.9632 24.4434 29.3391 24.6566 28.7048 24.711C27.952 24.7755 27.1788 24.6755 26.5879 24.1703C25.9697 23.6418 25.669 22.8948 25.6109 22.0963C25.5156 20.7849 26.1827 19.4612 27.0239 18.4935C27.7593 17.6475 28.6862 16.9885 29.7605 16.6549C29.9679 16.5905 30.2006 16.5165 30.4173 16.501Z" fill="#F87537"/>
<path d="M29.3621 11.4928C29.3864 11.5175 29.4055 11.5452 29.4259 11.5732C29.7859 12.0656 29.948 12.6261 29.8502 13.2342C29.6582 14.4273 28.774 15.5891 27.8058 16.2784C26.5304 17.1864 24.7748 17.7184 23.2123 17.4442C22.38 17.2982 21.5612 16.9238 21.066 16.2146C20.7536 15.7519 20.5968 15.2802 20.6406 14.7172C20.7306 13.5597 21.3825 12.442 22.2561 11.6937C23.4118 10.7038 25.0733 10.1871 26.5858 10.3002C27.6252 10.3779 28.6569 10.6744 29.3621 11.4928Z" fill="#F87537"/>
<path d="M23.1372 19.8799C23.1398 19.8833 23.1426 19.8867 23.1452 19.8902C24.2359 21.3556 24.3915 23.2583 24.1191 25.0099C23.7495 27.3863 22.2508 30.5644 20.2684 32.0037C19.443 32.603 18.3772 32.7996 17.3796 32.643C15.5535 32.3562 13.875 31.2236 12.6265 29.8998C12.1857 29.4325 11.7919 28.9242 11.4136 28.406C10.4543 27.0402 9.74831 25.5555 9.41976 23.9146C9.27459 23.1895 9.20526 22.4261 9.28398 21.6887C9.41326 20.4775 9.85255 19.3826 10.8233 18.6031C11.243 18.2661 11.7196 17.9829 12.225 17.7965C12.6215 17.6503 13.0615 17.5372 13.4788 17.4724C13.6975 17.4384 13.9186 17.4202 14.1375 17.3875C14.4731 17.3373 14.8065 17.2733 15.1432 17.2303C16.0151 17.1191 16.9388 17.0851 17.8134 17.1831C19.3792 17.3585 21.0657 17.8697 22.2704 18.9284C22.5939 19.2127 22.8698 19.5438 23.1372 19.8799Z" fill="#F87537"/>
<path d="M19.424 22.6297C19.5694 22.6434 19.7154 22.6599 19.8591 22.686C20.5243 22.8067 21.1445 23.1716 21.5303 23.734C21.9011 24.2744 22.0285 24.9853 21.905 25.6266C21.7713 26.3217 21.3468 26.9128 20.7651 27.3024C19.3161 28.2732 17.0078 27.9304 15.3902 27.6116C14.586 27.4606 13.8227 27.1975 13.0569 26.9182L13.1011 26.3051C13.2612 24.3278 13.7779 21.1964 15.3819 19.8445C15.9187 19.392 16.6184 19.1254 17.3244 19.1915C18.0428 19.2589 18.6485 19.6014 19.1041 20.1539C19.2141 20.275 19.302 20.4385 19.3719 20.5853C19.6846 21.2423 19.666 21.9544 19.424 22.6297Z" fill="#FAEDDE"/>
<path d="M56.3156 29.1748C57.0115 29.0081 57.8822 28.9891 58.5088 29.3772C58.8116 29.5648 59.0622 29.8346 59.1445 30.1889C59.2591 30.6829 59.0591 31.2331 58.7952 31.6471C58.4581 32.176 57.8009 32.7025 57.2223 32.9585C57.1951 32.9543 57.2042 32.952 57.1829 32.9594C57.1774 32.9613 57.1721 32.964 57.1665 32.9656C57.1416 32.9724 57.1274 32.9739 57.1054 32.9886C57.0987 32.993 57.0922 32.9976 57.0856 33.0021C57.1308 32.9212 57.3664 32.797 57.4493 32.741C57.8739 32.4537 58.166 32.1648 58.4268 31.7211C58.5089 31.5813 58.5894 31.4304 58.6354 31.2741C58.7487 30.8883 58.7486 30.4426 58.553 30.083C58.2189 29.4691 57.4546 29.2661 56.8062 29.2235C56.6863 29.2156 56.4401 29.2379 56.3432 29.2052C56.3212 29.1977 56.325 29.1943 56.3156 29.1748Z" fill="#F87537"/>
<path d="M47.3346 18.2463C47.8063 17.8048 48.413 17.4312 49.0438 17.2761C49.52 17.159 50.0442 17.1147 50.4807 17.3823C50.7695 17.5593 50.9524 17.8426 51.0309 18.1687C51.2029 18.8825 50.9406 19.6701 50.5693 20.2817C50.5506 20.2453 50.55 20.2347 50.5616 20.1954C50.5975 20.0734 50.6543 19.9575 50.6898 19.8344C50.8271 19.358 50.831 18.8368 50.6112 18.3839C50.4513 18.0545 50.1833 17.8124 49.8365 17.6934C49.1876 17.4708 48.4566 17.6909 47.8662 17.9859C47.7634 18.0372 47.4208 18.2689 47.3346 18.2463Z" fill="#F87537"/>
<path d="M58.602 22.2617C58.7474 22.2328 58.896 22.2243 59.0439 22.2176C59.5231 22.1959 59.9684 22.2566 60.3751 22.5298C60.7528 22.7834 60.9614 23.1759 61.0448 23.6157C61.2308 24.5959 60.8649 25.6901 60.3103 26.4954C59.9215 27.0599 59.5239 27.4398 58.9416 27.8061C58.9414 27.7994 58.939 27.7924 58.9408 27.786C58.9435 27.7766 59.0361 27.7024 59.0494 27.6897C59.1972 27.548 59.3473 27.4071 59.4842 27.2547C59.5156 27.2195 59.5463 27.1837 59.5765 27.1474C59.6067 27.1111 59.6362 27.0744 59.6652 27.0371C59.6942 26.9999 59.7225 26.9622 59.7502 26.924C59.7779 26.8858 59.805 26.8471 59.8314 26.8081C59.8578 26.769 59.8836 26.7295 59.9087 26.6895C59.9338 26.6496 59.9583 26.6093 59.9821 26.5685C60.0059 26.5278 60.029 26.4866 60.0514 26.4451C60.0738 26.4036 60.0955 26.3617 60.1166 26.3195C60.1376 26.2773 60.1579 26.2347 60.1775 26.1918C60.1972 26.1489 60.2161 26.1056 60.2343 26.0621C60.2524 26.0186 60.2699 25.9747 60.2866 25.9306C60.3034 25.8865 60.3194 25.8421 60.3346 25.7975C60.3499 25.7529 60.3644 25.708 60.3782 25.6628C60.392 25.6177 60.405 25.5724 60.4173 25.5268C60.4296 25.4813 60.4411 25.4355 60.4518 25.3896C60.4626 25.3437 60.4726 25.2976 60.4818 25.2513C60.6222 24.5151 60.5944 23.6999 60.1579 23.0638C59.8917 22.6759 59.4893 22.4047 59.0253 22.322C58.8869 22.2973 58.7433 22.3044 58.6079 22.2792L58.602 22.2617Z" fill="#F87537"/>
<path d="M47.3343 18.2462C47.4206 18.2687 47.7632 18.0371 47.8659 17.9858C48.4564 17.6908 49.1873 17.4707 49.8362 17.6933C50.1831 17.8123 50.451 18.0544 50.6109 18.3838C50.8307 18.8366 50.8268 19.3578 50.6896 19.8342C50.6541 19.9574 50.5972 20.0733 50.5613 20.1952C50.5497 20.2345 50.5504 20.2451 50.569 20.2816C50.5251 20.4056 50.4151 20.5323 50.3331 20.634C49.859 21.2218 49.2186 21.6958 48.5381 22.0185C48.0284 22.2602 47.348 22.4183 46.7982 22.2209C46.4895 22.1101 46.2566 21.8848 46.1209 21.5881C45.8935 21.0907 45.9936 20.4495 46.1803 19.9561C46.3896 19.4029 46.6886 18.9164 47.0931 18.4848C47.1665 18.4065 47.2487 18.31 47.3343 18.2462Z" fill="#F87537"/>
<path d="M56.3162 29.1751C56.3256 29.1946 56.3217 29.198 56.3437 29.2055C56.4407 29.2382 56.6869 29.2159 56.8067 29.2238C57.4552 29.2664 58.2194 29.4694 58.5535 30.0833C58.7491 30.4429 58.7493 30.8886 58.6359 31.2744C58.59 31.4306 58.5094 31.5816 58.4273 31.7214C58.1666 32.165 57.8744 32.454 57.4498 32.7413C57.3669 32.7973 57.1313 32.9215 57.0862 33.0024C57.0927 32.9979 57.0993 32.9933 57.1059 32.9889C57.1279 32.9741 57.1421 32.9727 57.167 32.9658C57.1727 32.9643 57.1779 32.9616 57.1834 32.9596C57.2047 32.9523 57.1956 32.9545 57.2229 32.9588C56.9775 33.0872 56.6789 33.1877 56.4103 33.2512C55.6521 33.4305 54.7147 33.4556 54.0339 33.0274C53.7344 32.839 53.5191 32.5661 53.4435 32.2174C53.3445 31.7601 53.5171 31.2392 53.7633 30.8557C54.3196 29.9889 55.3193 29.3933 56.3162 29.1751Z" fill="#F87537"/>
<path d="M58.6015 22.2612L58.6073 22.2787C58.7428 22.3039 58.8864 22.2969 59.0248 22.3215C59.4888 22.4042 59.8911 22.6755 60.1574 23.0634C60.5939 23.6994 60.6217 24.5146 60.4813 25.2508C60.4721 25.2971 60.4621 25.3432 60.4513 25.3891C60.4406 25.4351 60.4291 25.4808 60.4168 25.5264C60.4045 25.5719 60.3915 25.6173 60.3777 25.6624C60.3639 25.7075 60.3494 25.7524 60.3341 25.797C60.3189 25.8417 60.3029 25.8861 60.2861 25.9302C60.2694 25.9743 60.2519 26.0181 60.2337 26.0616C60.2156 26.1052 60.1966 26.1484 60.177 26.1913C60.1574 26.2342 60.1371 26.2768 60.116 26.319C60.095 26.3613 60.0733 26.4031 60.0509 26.4446C60.0285 26.4862 60.0053 26.5273 59.9816 26.5681C59.9578 26.6088 59.9333 26.6491 59.9082 26.6891C59.8831 26.729 59.8573 26.7685 59.8309 26.8076C59.8045 26.8467 59.7774 26.8853 59.7497 26.9235C59.722 26.9617 59.6936 26.9994 59.6647 27.0367C59.6357 27.0739 59.6062 27.1107 59.576 27.147C59.5458 27.1832 59.515 27.219 59.4837 27.2542C59.3468 27.4066 59.1966 27.5476 59.0489 27.6892C59.0356 27.7019 58.943 27.7761 58.9403 27.7856C58.9385 27.792 58.9408 27.7989 58.9411 27.8056C58.8657 27.8642 58.7704 27.9082 58.685 27.9512C58.2641 28.1633 57.8003 28.3217 57.3289 28.3621C56.7695 28.41 56.195 28.3357 55.7559 27.9603C55.2965 27.5676 55.073 27.0125 55.0298 26.4191C54.959 25.4446 55.4548 24.4609 56.0799 23.7418C56.6264 23.1131 57.3151 22.6235 58.1134 22.3756C58.2675 22.3277 58.4404 22.2727 58.6015 22.2612Z" fill="#F87537"/>
<path d="M57.8174 18.5396C57.8355 18.5579 57.8497 18.5785 57.8648 18.5993C58.1324 18.9652 58.2528 19.3817 58.1801 19.8337C58.0375 20.7202 57.3804 21.5836 56.661 22.0958C55.7132 22.7705 54.4086 23.1658 53.2475 22.9621C52.629 22.8536 52.0205 22.5754 51.6525 22.0484C51.4204 21.7045 51.3039 21.354 51.3364 20.9357C51.4033 20.0755 51.8877 19.245 52.5369 18.6889C53.3957 17.9532 54.6304 17.5693 55.7543 17.6533C56.5267 17.7111 57.2934 17.9314 57.8174 18.5396Z" fill="#F87537"/>
<path d="M53.1926 24.7729C53.1946 24.7754 53.1967 24.7779 53.1986 24.7805C54.0091 25.8695 54.1247 27.2833 53.9223 28.585C53.6476 30.3509 52.5339 32.7125 51.0608 33.7821C50.4474 34.2275 49.6554 34.3736 48.9142 34.2572C47.5571 34.0441 46.3099 33.2024 45.3821 32.2187C45.0546 31.8715 44.7619 31.4937 44.4808 31.1086C43.7679 30.0937 43.2433 28.9905 42.9991 27.771C42.8913 27.2322 42.8397 26.6649 42.8982 26.1169C42.9943 25.2169 43.3207 24.4033 44.0421 23.8241C44.354 23.5736 44.7082 23.3631 45.0838 23.2247C45.3783 23.116 45.7053 23.032 46.0155 22.9838C46.178 22.9585 46.3423 22.9451 46.5049 22.9207C46.7543 22.8834 47.002 22.8359 47.2523 22.8039C47.9001 22.7213 48.5865 22.6961 49.2365 22.7689C50.4001 22.8992 51.6533 23.2791 52.5485 24.0658C52.7889 24.277 52.9939 24.5231 53.1926 24.7729Z" fill="#F87537"/>
<path d="M50.4326 26.8156C50.5407 26.8258 50.6492 26.8381 50.756 26.8575C51.2502 26.9471 51.7111 27.2183 51.9979 27.6362C52.2734 28.0378 52.368 28.5661 52.2763 29.0426C52.1769 29.5591 51.8614 29.9984 51.4292 30.2879C50.3524 31.0093 48.6372 30.7546 47.4351 30.5177C46.8375 30.4054 46.2703 30.2099 45.7012 30.0024L45.734 29.5468C45.853 28.0775 46.237 25.7505 47.4289 24.7459C47.8278 24.4096 48.3478 24.2115 48.8724 24.2607C49.4062 24.3107 49.8563 24.5653 50.1949 24.9758C50.2766 25.0658 50.3419 25.1873 50.3939 25.2964C50.6263 25.7846 50.6125 26.3138 50.4326 26.8156Z" fill="#FAEDDE"/>
</svg>
