<svg width="118" height="71" viewBox="0 0 118 71" fill="none" xmlns="http://www.w3.org/2000/svg">
<path d="M83.9122 22.5276C80.5893 23.9479 76.4256 20.977 74.8789 15.7812C73.7011 11.8233 74.4807 5.04846 77.8789 3.89103C79.737 3.25832 85.247 5.49157 86.9122 10.6375C88.578 15.7836 87.2351 21.1074 83.9122 22.5276Z" fill="#F87537" fill-opacity="0.1"/>
<path d="M100.161 26.886C97.2933 27.0946 95.1818 23.5777 94.8138 19.0992C94.5721 16.1613 96.9838 10.7199 99.8513 10.5562C101.828 10.4431 105.113 13.8336 105.198 18.3426C105.284 22.852 103.028 26.6771 100.161 26.886Z" fill="#F87537" fill-opacity="0.1"/>
<path d="M92.701 28.2215C94.8046 29.8782 97.3871 30.6771 100.041 30.4054C102.877 30.115 105.815 29.5913 108.762 33.5771C112.397 38.496 110.835 46.0788 105.93 49.9613C104.548 51.055 103.025 51.7575 101.476 52.0875C99.7975 52.4443 98.2162 53.191 96.8477 54.2615C95.4902 55.3488 94.3407 56.7637 93.4935 58.4051C92.7114 59.9211 91.619 61.2894 90.2369 62.3831C85.3316 66.2655 78.3405 65.4527 75.3065 60.0583C72.8475 55.6873 74.2439 52.779 75.4084 49.9023C76.4969 47.212 76.6475 44.25 75.909 41.5114C74.6021 36.6631 76.4075 31.4927 80.1885 28.4999C83.9697 25.5086 88.9747 25.2874 92.701 28.2215Z" fill="#F87537" fill-opacity="0.1"/>
<path d="M70.9721 18.8656C74.9042 22.1806 76.0813 27.5068 73.782 30.5174C71.4827 33.528 66.4976 33.1924 62.6468 29.7682C58.796 26.344 58.6891 19.8526 59.8369 18.1165C61.9364 14.9419 67.9774 16.3404 70.9721 18.8656Z" fill="#F87537" fill-opacity="0.1"/>
<path d="M67.2846 40.7898C70.99 42.6384 73.3039 45.9961 72.1877 48.9256C71.0732 51.8563 67.0686 52.9647 63.2452 51.4021C59.4213 49.8387 57.5995 45.2959 58.3421 43.2663C59.4192 40.3198 64.8545 39.5775 67.2846 40.7898Z" fill="#F87537" fill-opacity="0.1"/>
<path d="M14.1802 31.8052C12.5275 33.0626 9.79055 31.9906 8.20012 29.3118C6.98884 27.2712 6.47354 23.3863 8.20508 22.2648C9.15192 21.6517 12.5357 22.1238 14.1852 24.7582C15.835 27.3926 15.833 30.5478 14.1802 31.8052Z" fill="#F87537" fill-opacity="0.1"/>
<path d="M23.8469 31.956C22.2778 32.4743 20.608 30.8104 19.775 28.3661C19.2285 26.7627 19.8096 23.3921 21.3847 22.8988C22.4703 22.5587 24.7765 23.9877 25.4559 26.4887C26.136 28.9897 25.4153 31.4377 23.8469 31.956Z" fill="#F87537" fill-opacity="0.1"/>
<path d="M19.8765 33.7462C21.2811 34.3746 22.8323 34.4577 24.2729 33.9343C25.8131 33.3748 27.3771 32.671 29.5778 34.4792C32.2935 36.7108 32.4861 41.1558 30.2967 44.0071C29.6798 44.8104 28.9296 45.4155 28.1126 45.8165C27.2273 46.2507 26.4507 46.8885 25.8381 47.6769C25.234 48.4732 24.7917 49.4229 24.5497 50.4564C24.3264 51.4109 23.9094 52.3266 23.2925 53.1299C21.1031 55.9813 17.093 56.5084 14.6458 53.9275C12.6627 51.8363 13.0331 50.0197 13.2789 48.2532C13.5083 46.6013 13.177 44.9295 12.3814 43.5068C10.9734 40.9881 11.2547 37.8535 12.9423 35.6556C14.6302 33.4584 17.3885 32.6334 19.8765 33.7462Z" fill="#F87537" fill-opacity="0.1"/>
<path d="M6.45529 31.5785C9.11139 32.8746 10.5141 35.6779 9.65476 37.6781C8.79544 39.6782 5.97017 40.1901 3.34408 38.8217C0.717993 37.4532 -0.251668 33.8505 0.144615 32.7221C0.869582 30.6586 4.43229 30.591 6.45529 31.5785Z" fill="#F87537" fill-opacity="0.1"/>
<path d="M7.47392 44.3138C9.79811 44.8245 11.5584 46.3713 11.347 48.1605C11.1367 49.95 9.0604 51.1291 6.71054 50.7943C4.36032 50.4591 2.70812 48.1828 2.83742 46.9476C3.02465 45.1545 5.94964 43.9788 7.47392 44.3138Z" fill="#F87537" fill-opacity="0.1"/>
</svg>
