<svg width="63" height="61" viewBox="0 0 63 61" fill="none" xmlns="http://www.w3.org/2000/svg">
<path d="M18.156 42.8918C18.2706 41.9357 18.1605 40.7689 17.5442 39.9918C17.2464 39.6162 16.8468 39.3232 16.3604 39.2684C15.6821 39.1919 14.9778 39.545 14.4656 39.962C13.811 40.4949 13.2095 41.4554 12.9573 42.2685C12.9672 42.3043 12.9689 42.2918 12.9623 42.3214C12.9606 42.329 12.9578 42.3365 12.9566 42.3443C12.9513 42.3786 12.9516 42.3979 12.9353 42.4296C12.9304 42.4391 12.9253 42.4486 12.9203 42.458C13.0215 42.3851 13.1507 42.0508 13.2128 41.9313C13.5307 41.3191 13.8715 40.8836 14.4239 40.4661C14.598 40.3346 14.7872 40.2034 14.989 40.1177C15.487 39.9061 16.0828 39.837 16.5938 40.0425C17.4665 40.3936 17.8567 41.3835 18.0145 42.2437C18.0437 42.4026 18.0523 42.7352 18.1111 42.8597C18.1245 42.8879 18.1284 42.8823 18.156 42.8918Z" fill="#F87537"/>
<path d="M34.1626 53.1971C34.6793 52.4978 35.0843 51.6288 35.1935 50.7615C35.276 50.1068 35.2535 49.3991 34.8279 48.8573C34.5464 48.4988 34.1394 48.2985 33.6912 48.2442C32.7104 48.1254 31.6983 48.5985 30.9386 49.19C30.9902 49.2093 31.0045 49.2085 31.0552 49.1869C31.2127 49.1199 31.3587 49.0259 31.5178 48.9593C32.1332 48.7017 32.8293 48.6154 33.4688 48.8388C33.934 49.0012 34.2993 49.3217 34.5123 49.7669C34.9108 50.5996 34.7304 51.6109 34.428 52.446C34.3753 52.5913 34.119 53.0853 34.1626 53.1971Z" fill="#F87537"/>
<path d="M27.042 38.7607C27.058 38.5618 27.0462 38.3619 27.0321 38.1632C26.9866 37.5193 26.8362 36.9334 26.4078 36.4323C26.0099 35.9669 25.4529 35.7492 24.852 35.7061C23.5129 35.61 22.1072 36.2693 21.1171 37.136C20.4229 37.7436 19.9771 38.334 19.5781 39.1694C19.5871 39.1687 19.5967 39.1708 19.605 39.1673C19.6172 39.1623 19.702 39.0269 19.7168 39.0072C19.8833 38.7877 20.0483 38.565 20.2307 38.3583C20.2729 38.3109 20.3159 38.2642 20.3597 38.2183C20.4035 38.1723 20.448 38.127 20.4933 38.0825C20.5386 38.038 20.5846 37.9943 20.6313 37.9513C20.6781 37.9083 20.7255 37.8661 20.7737 37.8247C20.8218 37.7833 20.8706 37.7427 20.9201 37.7029C20.9695 37.6632 21.0197 37.6242 21.0704 37.5861C21.1212 37.5479 21.1726 37.5106 21.2246 37.4742C21.2766 37.4378 21.3292 37.4022 21.3823 37.3676C21.4355 37.3329 21.4893 37.2991 21.5436 37.2662C21.5979 37.2333 21.6527 37.2013 21.7081 37.1702C21.7634 37.1391 21.8193 37.109 21.8757 37.0797C21.932 37.0505 21.9888 37.0222 22.0461 36.9948C22.1034 36.9675 22.1612 36.9411 22.2194 36.9156C22.2775 36.8902 22.3361 36.8657 22.3951 36.8422C22.4541 36.8187 22.5134 36.7962 22.5732 36.7747C22.6329 36.7532 22.6929 36.7326 22.7534 36.7131C23.7155 36.4109 24.8096 36.3213 25.7277 36.8058C26.2876 37.1013 26.7128 37.5969 26.8955 38.2043C26.95 38.3854 26.9629 38.5784 27.0177 38.7556L27.042 38.7607Z" fill="#F87537"/>
<path d="M34.1629 53.1972C34.1193 53.0854 34.3756 52.5914 34.4282 52.4461C34.7307 51.611 34.9111 50.5996 34.5126 49.7669C34.2996 49.3218 33.9343 49.0013 33.4691 48.8388C32.8296 48.6155 32.1335 48.7018 31.5181 48.9594C31.359 49.026 31.2129 49.12 31.0555 49.187C31.0048 49.2086 30.9905 49.2094 30.9389 49.1901C30.78 49.2682 30.6277 49.4349 30.5045 49.5603C29.7925 50.2856 29.2586 51.2152 28.9332 52.175C28.6894 52.894 28.5839 53.828 28.9333 54.5323C29.1294 54.9276 29.4668 55.2039 29.8846 55.3391C30.5848 55.5657 31.4263 55.3321 32.0568 55.0058C32.7636 54.64 33.3674 54.1645 33.8814 53.5567C33.9747 53.4465 34.0909 53.3216 34.1629 53.1972Z" fill="#F87537"/>
<path d="M18.1559 42.8917C18.1283 42.8822 18.1243 42.8878 18.111 42.8596C18.0522 42.7351 18.0436 42.4025 18.0144 42.2436C17.8566 41.3834 17.4664 40.3935 16.5937 40.0424C16.0827 39.8369 15.4869 39.906 14.9889 40.1176C14.7871 40.2033 14.5979 40.3345 14.4238 40.466C13.8714 40.8835 13.5306 41.319 13.2127 41.9312C13.1506 42.0507 13.0213 42.385 12.9201 42.4579C12.9252 42.4484 12.9303 42.439 12.9352 42.4295C12.9515 42.3978 12.9512 42.3785 12.9565 42.3442C12.9577 42.3364 12.9605 42.3289 12.9622 42.3213C12.9687 42.2917 12.9671 42.3042 12.9572 42.2684C12.8237 42.6164 12.7359 43.0311 12.6928 43.4001C12.571 44.4414 12.6834 45.6983 13.3617 46.5417C13.6601 46.9128 14.0584 47.1581 14.5363 47.2048C15.1629 47.2661 15.8323 46.9543 16.3066 46.5656C17.3787 45.6871 18.0193 44.2581 18.1559 42.8917Z" fill="#F87537"/>
<path d="M27.0415 38.7608L27.0172 38.7556C26.9624 38.5785 26.9495 38.3854 26.895 38.2043C26.7123 37.597 26.2871 37.1014 25.7272 36.8058C24.809 36.3213 23.715 36.411 22.7528 36.7131C22.6924 36.7327 22.6324 36.7532 22.5726 36.7748C22.5129 36.7963 22.4535 36.8188 22.3946 36.8423C22.3356 36.8658 22.277 36.8903 22.2188 36.9157C22.1607 36.9411 22.1029 36.9675 22.0456 36.9949C21.9883 37.0223 21.9315 37.0506 21.8751 37.0798C21.8188 37.109 21.7629 37.1392 21.7075 37.1703C21.6522 37.2013 21.5973 37.2333 21.543 37.2663C21.4887 37.2991 21.435 37.3329 21.3818 37.3676C21.3286 37.4023 21.276 37.4379 21.2241 37.4743C21.172 37.5107 21.1207 37.548 21.0699 37.5861C21.0191 37.6243 20.969 37.6632 20.9195 37.703C20.87 37.7428 20.8212 37.7834 20.7731 37.8248C20.725 37.8662 20.6775 37.9084 20.6308 37.9514C20.5841 37.9944 20.5381 38.0381 20.4928 38.0826C20.4475 38.1271 20.4029 38.1723 20.3592 38.2183C20.3154 38.2643 20.2724 38.311 20.2301 38.3584C20.0477 38.5651 19.8827 38.7877 19.7163 39.0073C19.7014 39.027 19.6167 39.1623 19.6045 39.1674C19.5962 39.1709 19.5865 39.1688 19.5776 39.1695C19.511 39.2793 19.467 39.4136 19.4227 39.5345C19.2048 40.1301 19.0652 40.7747 19.0845 41.411C19.1075 42.1663 19.2962 42.9226 19.8664 43.4512C20.4628 44.0041 21.2395 44.2165 22.0394 44.1818C23.3531 44.1249 24.5907 43.3091 25.4547 42.3617C26.21 41.5334 26.7574 40.5366 26.9645 39.4309C27.0045 39.2175 27.0512 38.9778 27.0415 38.7608Z" fill="#F87537"/>
<path d="M32.1388 39.2298C32.1115 39.2085 32.0817 39.1928 32.0516 39.1757C31.5209 38.875 30.9454 38.7788 30.3526 38.9463C29.1898 39.2749 28.138 40.2875 27.5653 41.3289C26.8108 42.7007 26.4854 44.5061 26.9384 46.0265C27.1796 46.8362 27.6462 47.6063 28.4079 48.0162C28.9036 48.2729 29.3903 48.3742 29.9444 48.2656C31.0838 48.0424 32.1186 47.2656 32.7608 46.3114C33.6105 45.049 33.9317 43.3388 33.6444 41.8496C33.447 40.8261 33.0333 39.8356 32.1388 39.2298Z" fill="#F87537"/>
<path d="M24.5272 46.3827C24.5235 46.3804 24.5198 46.3781 24.516 46.3759C22.9343 45.462 21.0264 45.5273 19.318 46.0005C17.0003 46.6424 14.0168 48.4984 12.8163 50.634C12.3165 51.5232 12.2444 52.6045 12.5154 53.5772C13.0114 55.358 14.3304 56.8943 15.7897 57.9814C16.3048 58.3651 16.8552 58.6976 17.4138 59.0134C18.8813 59.8083 20.4376 60.338 22.1055 60.4746C22.8426 60.5349 23.6089 60.5155 24.3322 60.3521C25.5203 60.0836 26.5571 59.5207 27.2191 58.4663C27.5053 58.0105 27.7316 57.5043 27.8583 56.9807C27.9576 56.5701 28.0191 56.1199 28.0352 55.6979C28.0437 55.4767 28.0362 55.255 28.0434 55.0338C28.0545 54.6947 28.0795 54.3561 28.0832 54.0166C28.093 53.1378 28.0198 52.2164 27.8214 51.3589C27.4661 49.8239 26.7634 48.2078 25.5725 47.1337C25.2527 46.8451 24.892 46.6094 24.5272 46.3827Z" fill="#F87537"/>
<path d="M22.2254 50.3888C22.195 50.246 22.1617 50.1028 22.1192 49.9631C21.9224 49.3164 21.4882 48.7426 20.8849 48.4243C20.3053 48.1185 19.5844 48.0741 18.9618 48.2709C18.2868 48.4842 17.7488 48.9742 17.429 49.597C16.6323 51.1485 17.2396 53.4016 17.7433 54.9716C17.9863 55.7529 18.3359 56.4806 18.7018 57.209L19.3058 57.0943C21.2512 56.7066 24.3019 55.8314 25.4593 54.0818C25.8467 53.4963 26.0306 52.7704 25.8833 52.0768C25.7333 51.371 25.3231 50.809 24.7216 50.4203C24.5886 50.3251 24.416 50.2567 24.2621 50.2042C23.5734 49.9696 22.8682 50.0703 22.2254 50.3888Z" fill="#FAEDDE"/>
<path d="M52.3153 41.1941C52.6238 40.7676 52.8809 40.1809 52.7927 39.6459C52.75 39.3874 52.6368 39.1414 52.419 38.9861C52.1152 38.7696 51.6849 38.7513 51.3294 38.8147C50.8752 38.8956 50.3329 39.1949 49.9966 39.5165C49.9918 39.5363 49.9959 39.5307 49.9849 39.5431C49.9821 39.5463 49.9787 39.5491 49.9761 39.5525C49.9645 39.5675 49.9595 39.5768 49.9433 39.5876C49.9384 39.5909 49.9335 39.5941 49.9285 39.5973C49.9963 39.5892 50.1468 39.4638 50.2081 39.4232C50.5225 39.215 50.8009 39.0974 51.1758 39.0445C51.2938 39.0278 51.4191 39.0154 51.5382 39.028C51.8324 39.059 52.1354 39.1841 52.3251 39.418C52.6489 39.8173 52.5726 40.3939 52.4198 40.8469C52.3915 40.9306 52.3074 41.0918 52.3024 41.1668C52.3013 41.1839 52.3047 41.1822 52.3153 41.1941Z" fill="#F87537"/>
<path d="M57.2286 50.3662C57.6611 50.1692 58.0853 49.8614 58.3676 49.476C58.5808 49.185 58.7579 48.8409 58.6983 48.469C58.6589 48.223 58.5176 48.0192 58.3178 47.8743C57.8807 47.5573 57.2715 47.5147 56.7515 47.5958C56.771 47.6187 56.7781 47.6221 56.808 47.6252C56.9011 47.635 56.9958 47.6288 57.0895 47.6392C57.4519 47.6795 57.8075 47.823 58.0538 48.0994C58.233 48.3005 58.3225 48.5506 58.3061 48.8199C58.2755 49.3235 57.9209 49.7589 57.5547 50.0777C57.491 50.1332 57.2374 50.3012 57.2286 50.3662Z" fill="#F87537"/>
<path d="M57.6579 41.5782C57.7183 41.4874 57.7657 41.3887 57.8117 41.29C57.9609 40.9703 58.0445 40.6504 57.9728 40.2972C57.9062 39.9693 57.6977 39.7174 57.422 39.5373C56.8077 39.136 55.961 39.078 55.2578 39.2293C54.7649 39.3354 54.3951 39.4993 53.9827 39.7926C53.9872 39.7946 53.9913 39.7982 53.9962 39.7987C54.0033 39.7995 54.0797 39.7573 54.0921 39.7519C54.2299 39.6911 54.3678 39.6285 54.5098 39.5782C54.5426 39.5667 54.5755 39.5558 54.6087 39.5455C54.6418 39.5351 54.6751 39.5253 54.7085 39.5161C54.742 39.5068 54.7756 39.4982 54.8093 39.49C54.8431 39.4819 54.8769 39.4743 54.9109 39.4673C54.9449 39.4603 54.979 39.4538 55.0132 39.448C55.0474 39.4421 55.0817 39.4368 55.1161 39.432C55.1505 39.4273 55.1849 39.4231 55.2194 39.4195C55.2539 39.4159 55.2885 39.4129 55.3231 39.4104C55.3577 39.4079 55.3924 39.406 55.4271 39.4047C55.4618 39.4034 55.4964 39.4027 55.5312 39.4025C55.5659 39.4024 55.6006 39.4028 55.6353 39.4038C55.6699 39.4048 55.7046 39.4063 55.7392 39.4085C55.7739 39.4106 55.8085 39.4133 55.843 39.4166C55.8776 39.4199 55.9121 39.4237 55.9465 39.4282C55.9809 39.4326 56.0152 39.4376 56.0495 39.4431C56.0838 39.4487 56.1179 39.4548 56.152 39.4615C56.6919 39.5725 57.2385 39.82 57.5487 40.2952C57.7378 40.585 57.8094 40.9347 57.7355 41.2734C57.7135 41.3744 57.6684 41.4701 57.6476 41.5693L57.6579 41.5782Z" fill="#F87537"/>
<path d="M57.2283 50.3663C57.2372 50.3014 57.4908 50.1333 57.5545 50.0778C57.9206 49.759 58.2753 49.3237 58.3058 48.82C58.3222 48.5508 58.2327 48.3007 58.0535 48.0996C57.8072 47.8231 57.4517 47.6796 57.0892 47.6393C56.9955 47.6289 56.9008 47.6351 56.8078 47.6253C56.7778 47.6222 56.7708 47.6188 56.7512 47.5959C56.6546 47.591 56.5375 47.6303 56.4454 47.6575C55.9127 47.8151 55.4108 48.1176 55.0006 48.4899C54.6933 48.7688 54.395 49.1871 54.375 49.6164C54.3638 49.8573 54.4517 50.0789 54.6155 50.2544C54.8899 50.5485 55.354 50.6602 55.7419 50.6716C56.1768 50.6844 56.5915 50.6175 56.9984 50.4634C57.0722 50.4355 57.1609 50.4067 57.2283 50.3663Z" fill="#F87537"/>
<path d="M52.3146 41.1938C52.3039 41.1819 52.3006 41.1835 52.3017 41.1665C52.3066 41.0914 52.3908 40.9302 52.419 40.8465C52.5719 40.3936 52.6481 39.817 52.3243 39.4176C52.1347 39.1838 51.8316 39.0587 51.5375 39.0276C51.4183 39.015 51.2931 39.0275 51.175 39.0441C50.8002 39.097 50.5218 39.2147 50.2074 39.4229C50.146 39.4635 49.9955 39.5889 49.9278 39.5969C49.9327 39.5937 49.9377 39.5906 49.9426 39.5873C49.9587 39.5765 49.9637 39.5672 49.9754 39.5522C49.978 39.5488 49.9813 39.546 49.9842 39.5428C49.9951 39.5304 49.991 39.5359 49.9958 39.5162C49.8397 39.647 49.6876 39.8219 49.5691 39.9868C49.2346 40.4521 48.9547 41.0825 49.055 41.6655C49.0991 41.9221 49.2243 42.145 49.4402 42.2942C49.7234 42.4897 50.126 42.5184 50.4558 42.4585C51.2013 42.3233 51.8867 41.8104 52.3146 41.1938Z" fill="#F87537"/>
<path d="M57.6578 41.5784L57.6476 41.5695C57.6684 41.4703 57.7135 41.3746 57.7355 41.2736C57.8094 40.9349 57.7377 40.5852 57.5486 40.2954C57.2385 39.8202 56.6919 39.5727 56.1519 39.4617C56.1179 39.455 56.0837 39.4489 56.0494 39.4433C56.0152 39.4377 55.9808 39.4327 55.9464 39.4283C55.912 39.4239 55.8775 39.42 55.843 39.4168C55.8084 39.4135 55.7738 39.4108 55.7392 39.4086C55.7045 39.4065 55.6699 39.4049 55.6352 39.4039C55.6005 39.4029 55.5658 39.4025 55.5311 39.4027C55.4964 39.4029 55.4617 39.4036 55.427 39.4049C55.3923 39.4062 55.3577 39.4081 55.3231 39.4106C55.2884 39.413 55.2539 39.416 55.2194 39.4197C55.1849 39.4233 55.1504 39.4274 55.116 39.4322C55.0816 39.4369 55.0474 39.4422 55.0131 39.4481C54.9789 39.454 54.9448 39.4605 54.9109 39.4675C54.8769 39.4745 54.843 39.482 54.8093 39.4902C54.7755 39.4983 54.7419 39.507 54.7085 39.5163C54.675 39.5255 54.6417 39.5353 54.6086 39.5457C54.5755 39.556 54.5425 39.5669 54.5098 39.5783C54.3678 39.6287 54.2298 39.6913 54.092 39.752C54.0797 39.7575 54.0033 39.7997 53.9961 39.7989C53.9912 39.7983 53.9872 39.7948 53.9827 39.7927C53.9217 39.8275 53.865 39.88 53.8118 39.926C53.5496 40.1528 53.3118 40.4238 53.1522 40.733C52.9627 41.1 52.8522 41.5115 52.9843 41.9154C53.1226 42.3379 53.4374 42.6455 53.8288 42.8413C54.4716 43.1627 55.2796 43.1014 55.9438 42.8779C56.5246 42.6826 57.0507 42.3515 57.4432 41.8782C57.5189 41.7868 57.6048 41.6846 57.6578 41.5784Z" fill="#F87537"/>
<path d="M59.9686 43.1551C59.9612 43.1376 59.9511 43.1222 59.9413 43.1061C59.7675 42.8215 59.518 42.6228 59.1903 42.5456C58.5474 42.394 57.776 42.5987 57.226 42.9443C56.5014 43.3996 55.8667 44.1759 55.6797 45.0227C55.58 45.4736 55.5986 45.9654 55.8538 46.3635C56.0226 46.6177 56.2282 46.7953 56.5218 46.8905C57.1255 47.0862 57.8262 46.9896 58.3863 46.7041C59.1274 46.3264 59.7347 45.5944 59.9927 44.8066C60.17 44.2651 60.2352 43.682 59.9686 43.1551Z" fill="#F87537"/>
<path d="M54.4338 44.5532C54.4326 44.5511 54.4315 44.549 54.4303 44.547C53.917 43.6905 52.988 43.2153 52.046 42.988C50.7682 42.6796 48.8499 42.7747 47.7094 43.4766C47.2346 43.7688 46.9132 44.2664 46.7845 44.8031C46.5489 45.7857 46.7714 46.8699 47.1802 47.7767C47.3245 48.0968 47.4993 48.4017 47.6824 48.7009C48.1727 49.4702 48.7758 50.1364 49.5366 50.6443C49.8728 50.8688 50.2441 51.0629 50.6331 51.1768C51.2721 51.3638 51.9169 51.37 52.5131 51.0418C52.7709 50.9 53.0133 50.7181 53.2128 50.5016C53.3693 50.3317 53.5181 50.1329 53.6379 49.9355C53.7006 49.8321 53.7558 49.7241 53.818 49.6204C53.9133 49.4612 54.0151 49.3061 54.107 49.1449C54.3449 48.7275 54.5545 48.2678 54.6872 47.8054C54.9249 46.9776 55.018 46.0188 54.734 45.1895C54.6578 44.9667 54.5479 44.7583 54.4338 44.5532Z" fill="#F87537"/>
<path d="M52.2694 45.8561C52.2928 45.7798 52.3149 45.7025 52.3316 45.6245C52.4092 45.2632 52.354 44.8738 52.1503 44.5616C51.9544 44.2616 51.6217 44.0491 51.272 43.9779C50.8928 43.9006 50.5057 43.992 50.1876 44.2047C49.3951 44.7347 49.0873 45.9725 48.9113 46.8564C48.8201 47.2943 48.794 47.7348 48.7755 48.18L49.0946 48.2854C50.1271 48.6165 51.8172 49.0079 52.8346 48.4791C53.1751 48.3021 53.4556 48.004 53.5693 47.6335C53.685 47.2565 53.6381 46.879 53.4538 46.5337C53.4156 46.4528 53.3513 46.3744 53.2917 46.3084C53.0248 46.0135 52.6611 45.8745 52.2694 45.8561Z" fill="#FAEDDE"/>
</svg>
