<svg width="40" height="27" viewBox="0 0 40 27" fill="none" xmlns="http://www.w3.org/2000/svg">
<rect width="40" height="27" rx="13.5" fill="#F87537"/>
<path d="M16.333 8.41667C16.333 9.38913 16.7193 10.3218 17.4069 11.0094C18.0946 11.697 19.0272 12.0833 19.9997 12.0833C20.9721 12.0833 21.9048 11.697 22.5924 11.0094C23.28 10.3218 23.6663 9.38913 23.6663 8.41667C23.6663 7.44421 23.28 6.51158 22.5924 5.82394C21.9048 5.13631 20.9721 4.75 19.9997 4.75C19.0272 4.75 18.0946 5.13631 17.4069 5.82394C16.7193 6.51158 16.333 7.44421 16.333 8.41667Z" stroke="white" stroke-width="1.83333" stroke-linecap="round" stroke-linejoin="round"/>
<path d="M14.5 21.25V19.4167C14.5 18.4442 14.8863 17.5116 15.5739 16.8239C16.2616 16.1363 17.1942 15.75 18.1667 15.75H21.8333C22.8058 15.75 23.7384 16.1363 24.4261 16.8239C25.1137 17.5116 25.5 18.4442 25.5 19.4167V21.25" stroke="white" stroke-width="1.83333" stroke-linecap="round" stroke-linejoin="round"/>
</svg>
