<?xml version="1.0" encoding="UTF-8" standalone="no"?>
<svg
   width="40"
   height="27"
   viewBox="0 0 40 27"
   fill="none"
   version="1.1"
   id="svg8"
   sodipodi:docname="filtro-risultati-attivo.svg"
   xml:space="preserve"
   inkscape:export-filename="filtro-risultati-attivo-borsa-spesa.svg"
   inkscape:export-xdpi="96"
   inkscape:export-ydpi="96"
   xmlns:inkscape="http://www.inkscape.org/namespaces/inkscape"
   xmlns:sodipodi="http://sodipodi.sourceforge.net/DTD/sodipodi-0.dtd"
   xmlns:xlink="http://www.w3.org/1999/xlink"
   xmlns="http://www.w3.org/2000/svg"
   xmlns:svg="http://www.w3.org/2000/svg"><defs
     id="defs12"><rect
       id="SVGID_1_-3"
       x="2"
       y="2"
       width="22"
       height="22" /><rect
       id="SVGID_3_"
       x="2"
       y="2"
       width="22"
       height="22" /></defs><sodipodi:namedview
     id="namedview10"
     pagecolor="#ffffff"
     bordercolor="#111111"
     borderopacity="1"
     inkscape:showpageshadow="0"
     inkscape:pageopacity="0"
     inkscape:pagecheckerboard="1"
     inkscape:deskcolor="#d1d1d1"
     showgrid="false" /><rect
     width="40"
     height="27"
     rx="13.5"
     fill="#f87537"
     id="rect2"
     x="0"
     y="0"
     style="display:inline"
     ry="13.5" /><path
     d="m 16.333,8.41667 c 0,0.97246 0.3863,1.90513 1.0739,2.59273 0.6877,0.6876 1.6203,1.0739 2.5928,1.0739 0.9724,0 1.9051,-0.3863 2.5927,-1.0739 C 23.28,10.3218 23.6663,9.38913 23.6663,8.41667 23.6663,7.44421 23.28,6.51158 22.5924,5.82394 21.9048,5.13631 20.9721,4.75 19.9997,4.75 19.0272,4.75 18.0946,5.13631 17.4069,5.82394 16.7193,6.51158 16.333,7.44421 16.333,8.41667 Z"
     stroke="#ffffff"
     stroke-width="1.83333"
     stroke-linecap="round"
     stroke-linejoin="round"
     id="path4"
     style="display:none" /><path
     d="m 14.5,21.25 v -1.8333 c 0,-0.9725 0.3863,-1.9051 1.0739,-2.5928 0.6877,-0.6876 1.6203,-1.0739 2.5928,-1.0739 h 3.6666 c 0.9725,0 1.9051,0.3863 2.5928,1.0739 0.6876,0.6877 1.0739,1.6203 1.0739,2.5928 V 21.25"
     stroke="#ffffff"
     stroke-width="1.83333"
     stroke-linecap="round"
     stroke-linejoin="round"
     id="path6"
     style="display:none" /><g
     id="g630"
     transform="translate(6.95,0.69999999)"><g
       id="Livello_2"
       display="none">
</g><rect
       x="-2.8"
       y="-1.4"
       display="none"
       fill="#1b8dbf"
       width="33.700001"
       height="26.9"
       id="rect564" /><g
       display="none"
       id="g578"
       style="stroke:#ffffff;stroke-opacity:1">
	<defs
   id="defs567" />
	<clipPath
   id="SVGID_2_-6"
   display="inline">
		<use
   xlink:href="#SVGID_1_-3"
   overflow="visible"
   id="use569" />
	</clipPath>
	<g
   display="none"
   clip-path="url(#SVGID_2_-6)"
   id="g576"
   style="stroke:#ffffff;stroke-opacity:1">
		<path
   fill="none"
   stroke="#c9c9c9"
   stroke-width="1.8333"
   stroke-linecap="round"
   stroke-linejoin="round"
   d="m 7.8,9.3 h 10.4 c 0.3,0 0.5,0.1 0.8,0.2 0.2,0.1 0.5,0.3 0.6,0.5 0.2,0.2 0.3,0.4 0.4,0.7 0.1,0.3 0.1,0.5 0,0.8 L 18.8,19 c -0.1,0.6 -0.4,1.2 -0.9,1.7 -0.5,0.4 -1.1,0.7 -1.8,0.7 H 9.9 C 9.2,21.4 8.6,21.2 8.1,20.7 7.6,20.3 7.3,19.7 7.2,19 L 6,11.4 C 6,11.1 6,10.9 6,10.6 6.1,10.3 6.2,10.1 6.4,9.9 6.6,9.8 6.8,9.6 7,9.5 7.3,9.4 7.5,9.3 7.8,9.3 Z"
   id="path572"
   style="stroke:#ffffff;stroke-opacity:1" />
		<path
   fill="none"
   stroke="#c9c9c9"
   stroke-width="1.8333"
   stroke-linecap="round"
   stroke-linejoin="round"
   d="M 10.3,12.1 V 7.5 c 0,-0.7 0.3,-1.4 0.8,-1.9 0.5,-0.6 1.2,-0.8 1.9,-0.8 0.7,0 1.4,0.3 1.9,0.8 0.5,0.5 0.8,1.2 0.8,1.9 v 4.6"
   id="path574"
   style="stroke:#ffffff;stroke-opacity:1" />
	</g>
</g><g
       id="g598"
       style="display:inline;stroke:#ffffff;stroke-opacity:1">
	<defs
   id="defs581" />
	<clipPath
   id="SVGID_4_">
		<use
   xlink:href="#SVGID_3_"
   overflow="visible"
   id="use583" />
	</clipPath>
	<g
   clip-path="url(#SVGID_4_)"
   id="g596"
   style="stroke:#ffffff;stroke-opacity:1">
		<path
   fill="none"
   stroke="#c9c9c9"
   stroke-width="1.8333"
   stroke-linecap="round"
   stroke-linejoin="round"
   d="M 4.8,21.3 H 21.3"
   id="path586"
   style="stroke:#ffffff;stroke-opacity:1" />
		<path
   fill="none"
   stroke="#c9c9c9"
   stroke-width="1.8333"
   stroke-linecap="round"
   stroke-linejoin="round"
   d="m 4.8,8.4 v 0.9 c 0,0.7 0.3,1.4 0.8,1.9 0.5,0.5 1.2,0.8 1.9,0.8 0.7,0 1.4,-0.3 1.9,-0.8 0.5,-0.5 0.8,-1.2 0.8,-1.9 M 4.8,8.4 H 21.3 M 4.8,8.4 6.6,4.7 h 12.8 l 1.8,3.7 M 10.3,9.3 V 8.4 m 0,0.9 c 0,0.7 0.3,1.4 0.8,1.9 0.5,0.5 1.2,0.8 1.9,0.8 0.7,0 1.4,-0.3 1.9,-0.8 0.5,-0.5 0.8,-1.2 0.8,-1.9 m 0.1,0 V 8.4 m 0,0.9 c 0,0.7 0.3,1.4 0.8,1.9 0.5,0.5 1.2,0.8 1.9,0.8 0.7,0 1.4,-0.3 1.9,-0.8 0.5,-0.5 0.8,-1.2 0.8,-1.9 V 8.4"
   id="path588"
   style="stroke:#ffffff;stroke-opacity:1" />
		<path
   fill="none"
   stroke="#c9c9c9"
   stroke-width="1.8333"
   stroke-linecap="round"
   stroke-linejoin="round"
   d="M 6.6,21.3 V 12"
   id="path590"
   style="stroke:#ffffff;stroke-opacity:1" />
		<path
   fill="none"
   stroke="#c9c9c9"
   stroke-width="1.8333"
   stroke-linecap="round"
   stroke-linejoin="round"
   d="M 19.4,21.3 V 12"
   id="path592"
   style="stroke:#ffffff;stroke-opacity:1" />
		<path
   fill="none"
   stroke="#c9c9c9"
   stroke-width="1.8333"
   stroke-linecap="round"
   stroke-linejoin="round"
   d="m 10.3,21.3 v -3.7 c 0,-0.5 0.2,-1 0.5,-1.3 0.3,-0.3 0.8,-0.5 1.3,-0.5 h 1.8 c 0.5,0 1,0.2 1.3,0.5 0.3,0.3 0.5,0.8 0.5,1.3 v 3.7"
   id="path594"
   style="stroke:#ffffff;stroke-opacity:1" />
	</g>
</g></g></svg>
