<svg width="20" height="20" viewBox="0 0 20 20" fill="none" xmlns="http://www.w3.org/2000/svg">
<g clip-path="url(#clip0_1673_955)">
<path d="M10 4.99999C10 5.44202 10.1756 5.86595 10.4882 6.17851C10.8007 6.49107 11.2246 6.66666 11.6667 6.66666C12.1087 6.66666 12.5326 6.49107 12.8452 6.17851C13.1577 5.86595 13.3333 5.44202 13.3333 4.99999C13.3333 4.55797 13.1577 4.13404 12.8452 3.82148C12.5326 3.50892 12.1087 3.33333 11.6667 3.33333C11.2246 3.33333 10.8007 3.50892 10.4882 3.82148C10.1756 4.13404 10 4.55797 10 4.99999Z" stroke="white" stroke-width="1.33333" stroke-linecap="round" stroke-linejoin="round"/>
<path d="M3.33331 5H9.99998" stroke="white" stroke-width="1.33333" stroke-linecap="round" stroke-linejoin="round"/>
<path d="M13.3333 5H16.6666" stroke="white" stroke-width="1.33333" stroke-linecap="round" stroke-linejoin="round"/>
<path d="M5 9.99999C5 10.442 5.17559 10.8659 5.48816 11.1785C5.80072 11.4911 6.22464 11.6667 6.66667 11.6667C7.10869 11.6667 7.53262 11.4911 7.84518 11.1785C8.15774 10.8659 8.33333 10.442 8.33333 9.99999C8.33333 9.55797 8.15774 9.13404 7.84518 8.82148C7.53262 8.50892 7.10869 8.33333 6.66667 8.33333C6.22464 8.33333 5.80072 8.50892 5.48816 8.82148C5.17559 9.13404 5 9.55797 5 9.99999Z" stroke="white" stroke-width="1.33333" stroke-linecap="round" stroke-linejoin="round"/>
<path d="M3.33331 10H4.99998" stroke="white" stroke-width="1.33333" stroke-linecap="round" stroke-linejoin="round"/>
<path d="M8.33331 10H16.6666" stroke="white" stroke-width="1.33333" stroke-linecap="round" stroke-linejoin="round"/>
<path d="M12.5 15C12.5 15.442 12.6756 15.8659 12.9882 16.1785C13.3007 16.4911 13.7246 16.6667 14.1667 16.6667C14.6087 16.6667 15.0326 16.4911 15.3452 16.1785C15.6577 15.8659 15.8333 15.442 15.8333 15C15.8333 14.558 15.6577 14.134 15.3452 13.8215C15.0326 13.5089 14.6087 13.3333 14.1667 13.3333C13.7246 13.3333 13.3007 13.5089 12.9882 13.8215C12.6756 14.134 12.5 14.558 12.5 15Z" stroke="white" stroke-width="1.33333" stroke-linecap="round" stroke-linejoin="round"/>
<path d="M3.33331 15H12.5" stroke="white" stroke-width="1.33333" stroke-linecap="round" stroke-linejoin="round"/>
<path d="M15.8333 15H16.6666" stroke="white" stroke-width="1.33333" stroke-linecap="round" stroke-linejoin="round"/>
</g>
<defs>
<clipPath id="clip0_1673_955">
<rect width="20" height="20" fill="white"/>
</clipPath>
</defs>
</svg>
