<?xml version="1.0" encoding="utf-8"?>
<!-- Generator: Adobe Illustrator 18.0.0, SVG Export Plug-In . SVG Version: 6.00 Build 0)  -->
<!DOCTYPE svg PUBLIC "-//W3C//DTD SVG 1.1//EN" "http://www.w3.org/Graphics/SVG/1.1/DTD/svg11.dtd">
<svg version="1.1" id="Livello_1" xmlns="http://www.w3.org/2000/svg" xmlns:xlink="http://www.w3.org/1999/xlink" x="0px" y="0px"
	 viewBox="0 0 28 28" enable-background="new 0 0 28 28" xml:space="preserve">
<g>
	<defs>
		<rect id="SVGID_1_" width="28" height="28"/>
	</defs>
	<clipPath id="SVGID_2_">
		<use xlink:href="#SVGID_1_"  overflow="visible"/>
	</clipPath>
	<g clip-path="url(#SVGID_2_)">
		<path fill="#F87537" d="M7.5,10.7h0.2c0.9,0,1.6,0.7,1.6,1.6v8.2c0,0.9-0.7,1.6-1.6,1.6H7.5c-0.9,0-1.6-0.7-1.6-1.6v-8.2
			C5.8,11.5,6.6,10.7,7.5,10.7z M14,5.8c0.9,0,1.6,0.7,1.6,1.6v13.1c0,0.9-0.7,1.6-1.6,1.6c-0.9,0-1.6-0.7-1.6-1.6V7.5
			C12.4,6.6,13.1,5.8,14,5.8z M20.5,15.2c0.9,0,1.6,0.7,1.6,1.6v3.7c0,0.9-0.7,1.6-1.6,1.6c-0.9,0-1.6-0.7-1.6-1.6v-3.7
			C18.9,15.9,19.6,15.2,20.5,15.2z"/>
	</g>
</g>
</svg>
