<?xml version="1.0" encoding="utf-8"?>
<!-- Generator: Adobe Illustrator 18.0.0, SVG Export Plug-In . SVG Version: 6.00 Build 0)  -->
<!DOCTYPE svg PUBLIC "-//W3C//DTD SVG 1.1//EN" "http://www.w3.org/Graphics/SVG/1.1/DTD/svg11.dtd">
<svg version="1.1" id="Livello_1" xmlns="http://www.w3.org/2000/svg" xmlns:xlink="http://www.w3.org/1999/xlink" x="0px" y="0px"
	 viewBox="0 0 24 24" enable-background="new 0 0 24 24" xml:space="preserve">
<g>
	<defs>
		<rect id="SVGID_1_" width="24" height="24"/>
	</defs>
	<clipPath id="SVGID_2_">
		<use xlink:href="#SVGID_1_"  overflow="visible"/>
	</clipPath>
	<g clip-path="url(#SVGID_2_)">
		<path fill="#807A7A" d="M10,19v-5h4v5c0,0.5,0.4,1,1,1h3c0.6,0,1-0.5,1-1v-7h1.7c0.5,0,0.7-0.6,0.3-0.9l-8.4-7.5
			c-0.4-0.3-1-0.3-1.3,0L3,11.1C2.6,11.4,2.8,12,3.3,12H5v7c0,0.5,0.5,1,1,1h3C9.5,20,10,19.5,10,19z"/>
	</g>
</g>
</svg>
