<?xml version="1.0" encoding="UTF-8" standalone="no"?>
<svg
   width="40"
   height="27"
   viewBox="0 0 40 27"
   fill="none"
   version="1.1"
   id="svg4264"
   sodipodi:docname="filtro-risultati-attivo.svg"
   xmlns:inkscape="http://www.inkscape.org/namespaces/inkscape"
   xmlns:sodipodi="http://sodipodi.sourceforge.net/DTD/sodipodi-0.dtd"
   xmlns="http://www.w3.org/2000/svg"
   xmlns:svg="http://www.w3.org/2000/svg">
  <defs
     id="defs4268" />
  <sodipodi:namedview
     id="namedview4266"
     pagecolor="#ffffff"
     bordercolor="#111111"
     borderopacity="1"
     inkscape:showpageshadow="0"
     inkscape:pageopacity="0"
     inkscape:pagecheckerboard="1"
     inkscape:deskcolor="#d1d1d1"
     showgrid="false" />
  <rect
     width="40"
     height="27"
     rx="13.5"
     fill="#f87537"
     id="rect4258"
     x="0"
     y="0"
     style="display:inline;fill:#f87537;fill-opacity:0"
     ry="13.5" />
  <path
     d="m 16.333,8.41667 c 0,0.97246 0.3863,1.90513 1.0739,2.59273 0.6877,0.6876 1.6203,1.0739 2.5928,1.0739 0.9724,0 1.9051,-0.3863 2.5927,-1.0739 C 23.28,10.3218 23.6663,9.38913 23.6663,8.41667 23.6663,7.44421 23.28,6.51158 22.5924,5.82394 21.9048,5.13631 20.9721,4.75 19.9997,4.75 19.0272,4.75 18.0946,5.13631 17.4069,5.82394 16.7193,6.51158 16.333,7.44421 16.333,8.41667 Z"
     stroke="white"
     stroke-width="1.83333"
     stroke-linecap="round"
     stroke-linejoin="round"
     id="path4260"
     style="stroke:#c9c9c9;stroke-opacity:1"
     inkscape:export-filename="icona-utente-grigio.svg"
     inkscape:export-xdpi="96"
     inkscape:export-ydpi="96" />
  <path
     d="m 14.5,21.25 v -1.8333 c 0,-0.9725 0.3863,-1.9051 1.0739,-2.5928 0.6877,-0.6876 1.6203,-1.0739 2.5928,-1.0739 h 3.6666 c 0.9725,0 1.9051,0.3863 2.5928,1.0739 0.6876,0.6877 1.0739,1.6203 1.0739,2.5928 V 21.25"
     stroke="white"
     stroke-width="1.83333"
     stroke-linecap="round"
     stroke-linejoin="round"
     id="path4262"
     style="display:inline;stroke:#c9c9c9;stroke-opacity:1" />
</svg>
