<svg width="28" height="28" viewBox="0 0 28 28" fill="none" xmlns="http://www.w3.org/2000/svg">
<g clip-path="url(#clip0_1496_235)">
<path d="M7.46634 10.7333H7.69967C8.59801 10.7333 9.33301 11.4683 9.33301 12.3667V20.5333C9.33301 21.4317 8.59801 22.1667 7.69967 22.1667H7.46634C6.56801 22.1667 5.83301 21.4317 5.83301 20.5333V12.3667C5.83301 11.4683 6.56801 10.7333 7.46634 10.7333ZM13.9997 5.83334C14.898 5.83334 15.633 6.56834 15.633 7.46668V20.5333C15.633 21.4317 14.898 22.1667 13.9997 22.1667C13.1013 22.1667 12.3663 21.4317 12.3663 20.5333V7.46668C12.3663 6.56834 13.1013 5.83334 13.9997 5.83334ZM20.533 15.1667C21.4313 15.1667 22.1663 15.9017 22.1663 16.8V20.5333C22.1663 21.4317 21.4313 22.1667 20.533 22.1667C19.6347 22.1667 18.8997 21.4317 18.8997 20.5333V16.8C18.8997 15.9017 19.6347 15.1667 20.533 15.1667Z" fill="#807A7A"/>
</g>
<defs>
<clipPath id="clip0_1496_235">
<rect width="28" height="28" fill="white"/>
</clipPath>
</defs>
</svg>
