<?xml version="1.0" encoding="utf-8"?>
<!-- Generator: Adobe Illustrator 18.0.0, SVG Export Plug-In . SVG Version: 6.00 Build 0)  -->
<!DOCTYPE svg PUBLIC "-//W3C//DTD SVG 1.1//EN" "http://www.w3.org/Graphics/SVG/1.1/DTD/svg11.dtd">
<svg version="1.1" xmlns="http://www.w3.org/2000/svg" xmlns:xlink="http://www.w3.org/1999/xlink" x="0px" y="0px"
	 viewBox="0 0 25 25" enable-background="new 0 0 25 25" xml:space="preserve">
<g id="Livello_2_1_" display="none">
</g>
<g id="Livello_1">
	<g id="Livello_2">
	</g>
	<g>
		<defs>
			<rect id="SVGID_1_" width="25" height="25"/>
		</defs>
		<clipPath id="SVGID_2_">
			<use xlink:href="#SVGID_1_"  overflow="visible"/>
		</clipPath>
		<g clip-path="url(#SVGID_2_)">
			<path fill="none" stroke="#FFFFFF" stroke-width="2.25" stroke-linecap="round" stroke-linejoin="round" d="M8.3,7.3
				c0,1.1,0.5,2.1,1.2,3c0.7,0.7,1.9,1.2,3,1.2s2.1-0.5,3-1.2c0.7-0.7,1.2-1.9,1.2-3s-0.5-2.1-1.2-3c-0.7-0.7-1.9-1.2-3-1.2
				s-2.1,0.5-3,1.2C8.8,5.1,8.3,6.2,8.3,7.3z"/>
			<path fill="none" stroke="#FFFFFF" stroke-width="2.25" stroke-linecap="round" stroke-linejoin="round" d="M6.3,21.9v-2.1
				c0-1.1,0.5-2.1,1.2-3c0.7-0.7,1.9-1.2,3-1.2h4.2c1.1,0,2.1,0.5,3,1.2c0.7,0.7,1.2,1.9,1.2,3v2.1"/>
		</g>
	</g>
</g>
</svg>
