<svg width="358" height="318" viewBox="0 0 358 318" fill="none" xmlns="http://www.w3.org/2000/svg">
<rect width="358" height="318" rx="3.04157" fill="#FAF9F8"/>
<g clip-path="url(#clip0_1673_1726)">
<path d="M188.525 147.336C191.351 147.335 194.097 148.28 196.325 150.02C198.553 151.759 200.135 154.193 200.821 156.936L200.872 157.164L201.125 157.224C203.209 157.749 205.125 158.794 206.693 160.263C208.262 161.732 209.431 163.575 210.091 165.62L210.272 166.232C210.92 168.648 210.839 171.202 210.038 173.572C209.237 175.942 207.753 178.022 205.772 179.55C203.791 181.078 201.402 181.986 198.906 182.158C196.41 182.331 193.919 181.761 191.747 180.521L191.598 180.429L180.43 191.597L180.563 191.819C181.562 193.597 182.118 195.59 182.183 197.628C182.247 199.667 181.819 201.691 180.933 203.529L180.61 204.153C179.283 206.558 177.21 208.468 174.704 209.593C172.198 210.718 169.394 210.998 166.714 210.391C164.445 209.876 162.362 208.744 160.695 207.121C159.028 205.497 157.842 203.445 157.266 201.191L157.193 200.89L156.756 200.785C154.629 200.218 152.687 199.106 151.12 197.56C149.554 196.014 148.417 194.087 147.822 191.968L147.663 191.337C147.122 188.945 147.286 186.446 148.136 184.146C148.987 181.845 150.486 179.84 152.454 178.375C154.421 176.91 156.771 176.047 159.219 175.891C161.668 175.736 164.108 176.294 166.245 177.498L166.461 177.625L177.626 166.46L177.512 166.266C176.621 164.693 176.078 162.948 175.918 161.147C175.758 159.346 175.985 157.532 176.583 155.827L176.834 155.177C177.792 152.861 179.416 150.882 181.5 149.489C183.584 148.096 186.034 147.352 188.541 147.352L188.1 147.364L188.164 147.355L188.525 147.336Z" fill="#CBCBCB"/>
</g>
<path d="M17.0354 24.1688C17.2417 23.8261 17.7385 23.8261 17.9447 24.1688L20.1687 27.8644C20.2428 27.9875 20.3637 28.0753 20.5037 28.1077L24.7056 29.0809C25.0953 29.1711 25.2488 29.6437 24.9866 29.9457L22.1592 33.2029C22.065 33.3114 22.0188 33.4534 22.0313 33.5966L22.4042 37.8936C22.4388 38.2921 22.0368 38.5841 21.6685 38.4281L17.6971 36.7456C17.5648 36.6895 17.4154 36.6895 17.2831 36.7456L13.3116 38.4281C12.9433 38.5841 12.5414 38.2921 12.576 37.8936L12.9489 33.5966C12.9613 33.4534 12.9152 33.3114 12.821 33.2029L9.99353 29.9457C9.73134 29.6437 9.88487 29.1711 10.2745 29.0809L14.4765 28.1077C14.6165 28.0753 14.7373 27.9875 14.8114 27.8644L17.0354 24.1688Z" fill="#FF7C00"/>
<path d="M40.1217 24.1688C40.328 23.8261 40.8248 23.8261 41.031 24.1688L43.2551 27.8644C43.3291 27.9875 43.45 28.0753 43.59 28.1077L47.7919 29.0809C48.1816 29.1711 48.3351 29.6437 48.0729 29.9457L45.2455 33.2029C45.1513 33.3114 45.1051 33.4534 45.1176 33.5966L45.4905 37.8936C45.5251 38.2921 45.1231 38.5841 44.7548 38.4281L40.7834 36.7456C40.6511 36.6895 40.5017 36.6895 40.3694 36.7456L36.3979 38.4281C36.0296 38.5841 35.6277 38.2921 35.6623 37.8936L36.0352 33.5966C36.0476 33.4534 36.0015 33.3114 35.9073 33.2029L33.0798 29.9457C32.8176 29.6437 32.9712 29.1711 33.3608 29.0809L37.5628 28.1077C37.7028 28.0753 37.8236 27.9875 37.8977 27.8644L40.1217 24.1688Z" fill="#FF7C00"/>
<path d="M63.2077 24.1688C63.4139 23.8261 63.9107 23.8261 64.117 24.1688L66.341 27.8644C66.4151 27.9875 66.5359 28.0753 66.6759 28.1077L70.8779 29.0809C71.2675 29.1711 71.421 29.6437 71.1589 29.9457L68.3314 33.2029C68.2372 33.3114 68.1911 33.4534 68.2035 33.5966L68.5764 37.8936C68.611 38.2921 68.2091 38.5841 67.8408 38.4281L63.8693 36.7456C63.737 36.6895 63.5876 36.6895 63.4553 36.7456L59.4838 38.4281C59.1156 38.5841 58.7136 38.2921 58.7482 37.8936L59.1211 33.5966C59.1336 33.4534 59.0874 33.3114 58.9932 33.2029L56.1658 29.9457C55.9036 29.6437 56.0571 29.1711 56.4468 29.0809L60.6487 28.1077C60.7887 28.0753 60.9096 27.9875 60.9836 27.8644L63.2077 24.1688Z" fill="#FF7C00"/>
<path d="M86.2932 24.1688C86.4995 23.8261 86.9963 23.8261 87.2025 24.1688L89.4266 27.8644C89.5006 27.9875 89.6215 28.0753 89.7615 28.1077L93.9634 29.0809C94.3531 29.1711 94.5066 29.6437 94.2444 29.9457L91.417 33.2029C91.3228 33.3114 91.2766 33.4534 91.2891 33.5966L91.662 37.8936C91.6966 38.2921 91.2946 38.5841 90.9264 38.4281L86.9549 36.7456C86.8226 36.6895 86.6732 36.6895 86.5409 36.7456L82.5694 38.4281C82.2011 38.5841 81.7992 38.2921 81.8338 37.8936L82.2067 33.5966C82.2191 33.4534 82.173 33.3114 82.0788 33.2029L79.2513 29.9457C78.9892 29.6437 79.1427 29.1711 79.5323 29.0809L83.7343 28.1077C83.8743 28.0753 83.9951 27.9875 84.0692 27.8644L86.2932 24.1688Z" fill="#E0E0E0"/>
<path d="M109.379 24.1688C109.585 23.8261 110.082 23.8261 110.288 24.1688L112.512 27.8644C112.587 27.9875 112.707 28.0753 112.847 28.1077L117.049 29.0809C117.439 29.1711 117.593 29.6437 117.33 29.9457L114.503 33.2029C114.409 33.3114 114.363 33.4534 114.375 33.5966L114.748 37.8936C114.783 38.2921 114.381 38.5841 114.012 38.4281L110.041 36.7456C109.909 36.6895 109.759 36.6895 109.627 36.7456L105.655 38.4281C105.287 38.5841 104.885 38.2921 104.92 37.8936L105.293 33.5966C105.305 33.4534 105.259 33.3114 105.165 33.2029L102.337 29.9457C102.075 29.6437 102.229 29.1711 102.618 29.0809L106.82 28.1077C106.96 28.0753 107.081 27.9875 107.155 27.8644L109.379 24.1688Z" fill="#E0E0E0"/>
<path d="M261.046 16.7525H343.156C345.855 16.7525 348.043 18.9407 348.043 21.64V47.0548H265.934C263.234 47.0548 261.046 44.8666 261.046 42.1673V16.7525Z" fill="#F87537"/>
<g clip-path="url(#clip1_1673_1726)">
<path d="M282.877 34.8369C283.179 34.8369 283.469 34.9571 283.683 35.171C283.897 35.3848 284.017 35.6749 284.017 35.9774C284.017 35.6749 284.137 35.3848 284.351 35.171C284.565 34.9571 284.855 34.8369 285.158 34.8369C284.855 34.8369 284.565 34.7168 284.351 34.5029C284.137 34.2891 284.017 33.999 284.017 33.6965C284.017 33.999 283.897 34.2891 283.683 34.5029C283.469 34.7168 283.179 34.8369 282.877 34.8369ZM282.877 27.9945C283.179 27.9945 283.469 28.1146 283.683 28.3285C283.897 28.5424 284.017 28.8324 284.017 29.1349C284.017 28.8324 284.137 28.5424 284.351 28.3285C284.565 28.1146 284.855 27.9945 285.158 27.9945C284.855 27.9945 284.565 27.8743 284.351 27.6605C284.137 27.4466 284.017 27.1565 284.017 26.8541C284.017 27.1565 283.897 27.4466 283.683 27.6605C283.469 27.8743 283.179 27.9945 282.877 27.9945ZM278.885 34.8369C278.885 33.9296 279.246 33.0594 279.888 32.4178C280.529 31.7762 281.399 31.4157 282.307 31.4157C281.399 31.4157 280.529 31.0553 279.888 30.4137C279.246 29.7721 278.885 28.9019 278.885 27.9945C278.885 28.9019 278.525 29.7721 277.883 30.4137C277.242 31.0553 276.372 31.4157 275.464 31.4157C276.372 31.4157 277.242 31.7762 277.883 32.4178C278.525 33.0594 278.885 33.9296 278.885 34.8369Z" stroke="#FAF9F8" stroke-width="1.14041" stroke-linecap="round" stroke-linejoin="round"/>
</g>
<path d="M298.169 36.6406H296.608L291.915 29.5381V36.6406H290.354V27.1159H291.915L296.608 34.2047V27.1159H298.169V36.6406ZM307.046 29.1002V36.6406H305.486V35.7511C305.24 36.0613 304.916 36.3076 304.514 36.4901C304.122 36.6634 303.702 36.7501 303.255 36.7501C302.662 36.7501 302.129 36.6269 301.654 36.3806C301.189 36.1343 300.819 35.7693 300.546 35.2858C300.281 34.8023 300.149 34.2184 300.149 33.5341V29.1002H301.695V33.3015C301.695 33.9766 301.864 34.4966 302.202 34.8616C302.539 35.2174 303 35.3953 303.584 35.3953C304.168 35.3953 304.628 35.2174 304.966 34.8616C305.313 34.4966 305.486 33.9766 305.486 33.3015V29.1002H307.046ZM312.375 36.7638C311.663 36.7638 311.02 36.6041 310.446 36.2848C309.871 35.9563 309.419 35.5002 309.091 34.9163C308.762 34.3233 308.598 33.639 308.598 32.8636C308.598 32.0972 308.767 31.4175 309.104 30.8245C309.442 30.2315 309.903 29.7753 310.487 29.456C311.07 29.1367 311.723 28.977 312.444 28.977C313.164 28.977 313.817 29.1367 314.4 29.456C314.984 29.7753 315.445 30.2315 315.783 30.8245C316.12 31.4175 316.289 32.0972 316.289 32.8636C316.289 33.6299 316.116 34.3096 315.769 34.9026C315.422 35.4956 314.948 35.9563 314.346 36.2848C313.753 36.6041 313.096 36.7638 312.375 36.7638ZM312.375 35.409C312.777 35.409 313.151 35.3132 313.497 35.1216C313.853 34.93 314.14 34.6426 314.359 34.2594C314.578 33.8762 314.688 33.411 314.688 32.8636C314.688 32.3162 314.583 31.8554 314.373 31.4814C314.163 31.0982 313.885 30.8108 313.538 30.6192C313.192 30.4276 312.818 30.3319 312.416 30.3319C312.015 30.3319 311.641 30.4276 311.294 30.6192C310.956 30.8108 310.687 31.0982 310.487 31.4814C310.286 31.8554 310.186 32.3162 310.186 32.8636C310.186 33.6755 310.391 34.305 310.801 34.7521C311.221 35.19 311.746 35.409 312.375 35.409ZM320.746 35.2447L322.881 29.1002H324.537L321.663 36.6406H319.802L316.942 29.1002H318.611L320.746 35.2447ZM328.987 36.7638C328.275 36.7638 327.632 36.6041 327.057 36.2848C326.482 35.9563 326.031 35.5002 325.702 34.9163C325.374 34.3233 325.21 33.639 325.21 32.8636C325.21 32.0972 325.379 31.4175 325.716 30.8245C326.054 30.2315 326.514 29.7753 327.098 29.456C327.682 29.1367 328.334 28.977 329.055 28.977C329.776 28.977 330.428 29.1367 331.012 29.456C331.596 29.7753 332.057 30.2315 332.394 30.8245C332.732 31.4175 332.901 32.0972 332.901 32.8636C332.901 33.6299 332.727 34.3096 332.381 34.9026C332.034 35.4956 331.56 35.9563 330.957 36.2848C330.364 36.6041 329.708 36.7638 328.987 36.7638ZM328.987 35.409C329.388 35.409 329.762 35.3132 330.109 35.1216C330.465 34.93 330.752 34.6426 330.971 34.2594C331.19 33.8762 331.3 33.411 331.3 32.8636C331.3 32.3162 331.195 31.8554 330.985 31.4814C330.775 31.0982 330.497 30.8108 330.15 30.6192C329.803 30.4276 329.429 30.3319 329.028 30.3319C328.626 30.3319 328.252 30.4276 327.906 30.6192C327.568 30.8108 327.299 31.0982 327.098 31.4814C326.898 31.8554 326.797 32.3162 326.797 32.8636C326.797 33.6755 327.002 34.305 327.413 34.7521C327.833 35.19 328.357 35.409 328.987 35.409Z" fill="#FAF9F8"/>
<rect x="202" y="276" width="30" height="20.25" rx="10.125" fill="#F87537"/>
<g clip-path="url(#clip2_1673_1726)">
<path d="M213.606 283.333H221.165C221.358 283.333 221.548 283.375 221.722 283.455C221.897 283.535 222.052 283.653 222.177 283.798C222.303 283.944 222.395 284.116 222.448 284.3C222.5 284.485 222.513 284.679 222.483 284.869L221.647 290.304C221.574 290.776 221.335 291.207 220.972 291.518C220.609 291.829 220.147 292 219.669 292H215.101C214.624 292 214.162 291.829 213.799 291.518C213.437 291.207 213.197 290.776 213.125 290.304L212.288 284.869C212.259 284.679 212.271 284.485 212.324 284.3C212.377 284.116 212.469 283.944 212.594 283.798C212.719 283.653 212.874 283.535 213.049 283.455C213.224 283.375 213.414 283.333 213.606 283.333Z" stroke="white" stroke-width="1.33333" stroke-linecap="round" stroke-linejoin="round"/>
<path d="M215.385 285.333V282C215.385 281.47 215.595 280.961 215.971 280.586C216.346 280.211 216.854 280 217.385 280C217.915 280 218.424 280.211 218.799 280.586C219.174 280.961 219.385 281.47 219.385 282V285.333" stroke="white" stroke-width="1.33333" stroke-linecap="round" stroke-linejoin="round"/>
</g>
<path d="M249.092 284.377C249.092 284.9 248.966 285.39 248.714 285.847C248.471 286.304 248.084 286.673 247.552 286.953C247.029 287.233 246.367 287.373 245.564 287.373H243.926V291.125H241.966V281.353H245.564C246.32 281.353 246.964 281.484 247.496 281.745C248.028 282.006 248.425 282.366 248.686 282.823C248.957 283.28 249.092 283.798 249.092 284.377ZM245.48 285.791C246.021 285.791 246.423 285.67 246.684 285.427C246.945 285.175 247.076 284.825 247.076 284.377C247.076 283.425 246.544 282.949 245.48 282.949H243.926V285.791H245.48ZM252.444 284.573C252.696 284.162 253.022 283.84 253.424 283.607C253.834 283.374 254.301 283.257 254.824 283.257V285.315H254.306C253.69 285.315 253.223 285.46 252.906 285.749C252.598 286.038 252.444 286.542 252.444 287.261V291.125H250.484V283.369H252.444V284.573ZM259.588 291.251C258.841 291.251 258.169 291.088 257.572 290.761C256.974 290.425 256.503 289.954 256.158 289.347C255.822 288.74 255.654 288.04 255.654 287.247C255.654 286.454 255.826 285.754 256.172 285.147C256.526 284.54 257.007 284.074 257.614 283.747C258.22 283.411 258.897 283.243 259.644 283.243C260.39 283.243 261.067 283.411 261.674 283.747C262.28 284.074 262.756 284.54 263.102 285.147C263.456 285.754 263.634 286.454 263.634 287.247C263.634 288.04 263.452 288.74 263.088 289.347C262.733 289.954 262.248 290.425 261.632 290.761C261.025 291.088 260.344 291.251 259.588 291.251ZM259.588 289.543C259.942 289.543 260.274 289.459 260.582 289.291C260.899 289.114 261.151 288.852 261.338 288.507C261.524 288.162 261.618 287.742 261.618 287.247C261.618 286.51 261.422 285.945 261.03 285.553C260.647 285.152 260.176 284.951 259.616 284.951C259.056 284.951 258.584 285.152 258.202 285.553C257.828 285.945 257.642 286.51 257.642 287.247C257.642 287.984 257.824 288.554 258.188 288.955C258.561 289.347 259.028 289.543 259.588 289.543ZM264.567 287.219C264.567 286.435 264.721 285.74 265.029 285.133C265.347 284.526 265.776 284.06 266.317 283.733C266.859 283.406 267.461 283.243 268.123 283.243C268.627 283.243 269.108 283.355 269.565 283.579C270.023 283.794 270.387 284.083 270.657 284.447V280.765H272.645V291.125H270.657V289.977C270.415 290.36 270.074 290.668 269.635 290.901C269.197 291.134 268.688 291.251 268.109 291.251C267.456 291.251 266.859 291.083 266.317 290.747C265.776 290.411 265.347 289.94 265.029 289.333C264.721 288.717 264.567 288.012 264.567 287.219ZM270.671 287.247C270.671 286.771 270.578 286.365 270.391 286.029C270.205 285.684 269.953 285.422 269.635 285.245C269.318 285.058 268.977 284.965 268.613 284.965C268.249 284.965 267.913 285.054 267.605 285.231C267.297 285.408 267.045 285.67 266.849 286.015C266.663 286.351 266.569 286.752 266.569 287.219C266.569 287.686 266.663 288.096 266.849 288.451C267.045 288.796 267.297 289.062 267.605 289.249C267.923 289.436 268.259 289.529 268.613 289.529C268.977 289.529 269.318 289.44 269.635 289.263C269.953 289.076 270.205 288.815 270.391 288.479C270.578 288.134 270.671 287.723 270.671 287.247ZM278.004 291.251C277.257 291.251 276.585 291.088 275.988 290.761C275.39 290.425 274.919 289.954 274.574 289.347C274.238 288.74 274.07 288.04 274.07 287.247C274.07 286.454 274.242 285.754 274.588 285.147C274.942 284.54 275.423 284.074 276.03 283.747C276.636 283.411 277.313 283.243 278.06 283.243C278.806 283.243 279.483 283.411 280.09 283.747C280.696 284.074 281.172 284.54 281.518 285.147C281.872 285.754 282.05 286.454 282.05 287.247C282.05 288.04 281.868 288.74 281.504 289.347C281.149 289.954 280.664 290.425 280.048 290.761C279.441 291.088 278.76 291.251 278.004 291.251ZM278.004 289.543C278.358 289.543 278.69 289.459 278.998 289.291C279.315 289.114 279.567 288.852 279.754 288.507C279.94 288.162 280.034 287.742 280.034 287.247C280.034 286.51 279.838 285.945 279.446 285.553C279.063 285.152 278.592 284.951 278.032 284.951C277.472 284.951 277 285.152 276.618 285.553C276.244 285.945 276.058 286.51 276.058 287.247C276.058 287.984 276.24 288.554 276.604 288.955C276.977 289.347 277.444 289.543 278.004 289.543ZM285.769 284.979V288.731C285.769 288.992 285.83 289.184 285.951 289.305C286.082 289.417 286.297 289.473 286.595 289.473H287.505V291.125H286.273C284.621 291.125 283.795 290.322 283.795 288.717V284.979H282.871V283.369H283.795V281.451H285.769V283.369H287.505V284.979H285.769ZM291.197 284.979V288.731C291.197 288.992 291.258 289.184 291.379 289.305C291.51 289.417 291.725 289.473 292.023 289.473H292.933V291.125H291.701C290.049 291.125 289.223 290.322 289.223 288.717V284.979H288.299V283.369H289.223V281.451H291.197V283.369H292.933V284.979H291.197ZM297.787 291.251C297.04 291.251 296.368 291.088 295.771 290.761C295.174 290.425 294.702 289.954 294.357 289.347C294.021 288.74 293.853 288.04 293.853 287.247C293.853 286.454 294.026 285.754 294.371 285.147C294.726 284.54 295.206 284.074 295.813 283.747C296.42 283.411 297.096 283.243 297.843 283.243C298.59 283.243 299.266 283.411 299.873 283.747C300.48 284.074 300.956 284.54 301.301 285.147C301.656 285.754 301.833 286.454 301.833 287.247C301.833 288.04 301.651 288.74 301.287 289.347C300.932 289.954 300.447 290.425 299.831 290.761C299.224 291.088 298.543 291.251 297.787 291.251ZM297.787 289.543C298.142 289.543 298.473 289.459 298.781 289.291C299.098 289.114 299.35 288.852 299.537 288.507C299.724 288.162 299.817 287.742 299.817 287.247C299.817 286.51 299.621 285.945 299.229 285.553C298.846 285.152 298.375 284.951 297.815 284.951C297.255 284.951 296.784 285.152 296.401 285.553C296.028 285.945 295.841 286.51 295.841 287.247C295.841 287.984 296.023 288.554 296.387 288.955C296.76 289.347 297.227 289.543 297.787 289.543Z" fill="#807A7A"/>
<g clip-path="url(#clip3_1673_1726)">
<path d="M66.9998 277.34C68.508 278.211 69.7627 279.461 70.6396 280.965C71.5164 282.47 71.9851 284.178 71.9992 285.919C72.0133 287.661 71.5722 289.376 70.7198 290.895C69.8673 292.413 68.633 293.683 67.139 294.578C65.645 295.473 63.9431 295.963 62.2019 295.998C60.4606 296.033 58.7403 295.613 57.2113 294.779C55.6823 293.945 54.3976 292.727 53.4844 291.244C52.5712 289.761 52.0612 288.065 52.0048 286.324L51.9998 286L52.0048 285.676C52.0608 283.949 52.5633 282.266 53.4634 280.791C54.3635 279.316 55.6304 278.099 57.1406 277.26C58.6509 276.42 60.3529 275.986 62.0808 276C63.8086 276.014 65.5034 276.476 66.9998 277.34ZM65.7068 283.293C65.5346 283.121 65.3055 283.017 65.0624 283.002C64.8194 282.987 64.5792 283.061 64.3868 283.21L64.2928 283.293L60.9998 286.585L59.7068 285.293L59.6128 285.21C59.4203 285.061 59.1801 284.987 58.9372 285.002C58.6942 285.018 58.4652 285.121 58.293 285.293C58.1209 285.465 58.0174 285.694 58.0021 285.937C57.9868 286.18 58.0606 286.421 58.2098 286.613L58.2928 286.707L60.2928 288.707L60.3868 288.79C60.5621 288.926 60.7778 289 60.9998 289C61.2217 289 61.4374 288.926 61.6128 288.79L61.7068 288.707L65.7068 284.707L65.7898 284.613C65.939 284.421 66.0129 284.18 65.9976 283.937C65.9824 283.694 65.8789 283.465 65.7068 283.293Z" fill="#F87537"/>
</g>
<path d="M89.3238 291H87.3638L82.9258 284.294V291H80.9658V281.214H82.9258L87.3638 287.934V281.214H89.3238V291ZM94.7047 291.126C93.958 291.126 93.286 290.963 92.6887 290.636C92.0913 290.3 91.62 289.829 91.2747 289.222C90.9387 288.615 90.7707 287.915 90.7707 287.122C90.7707 286.329 90.9433 285.629 91.2887 285.022C91.6433 284.415 92.124 283.949 92.7307 283.622C93.3373 283.286 94.014 283.118 94.7607 283.118C95.5073 283.118 96.184 283.286 96.7907 283.622C97.3973 283.949 97.8733 284.415 98.2187 285.022C98.5733 285.629 98.7507 286.329 98.7507 287.122C98.7507 287.915 98.5687 288.615 98.2047 289.222C97.85 289.829 97.3647 290.3 96.7487 290.636C96.142 290.963 95.4607 291.126 94.7047 291.126ZM94.7047 289.418C95.0593 289.418 95.3907 289.334 95.6987 289.166C96.016 288.989 96.268 288.727 96.4547 288.382C96.6413 288.037 96.7347 287.617 96.7347 287.122C96.7347 286.385 96.5387 285.82 96.1467 285.428C95.764 285.027 95.2927 284.826 94.7327 284.826C94.1727 284.826 93.7013 285.027 93.3187 285.428C92.9453 285.82 92.7587 286.385 92.7587 287.122C92.7587 287.859 92.9407 288.429 93.3047 288.83C93.678 289.222 94.1447 289.418 94.7047 289.418ZM109.82 283.132C110.772 283.132 111.538 283.426 112.116 284.014C112.704 284.593 112.998 285.405 112.998 286.45V291H111.038V286.716C111.038 286.109 110.884 285.647 110.576 285.33C110.268 285.003 109.848 284.84 109.316 284.84C108.784 284.84 108.36 285.003 108.042 285.33C107.734 285.647 107.58 286.109 107.58 286.716V291H105.62V286.716C105.62 286.109 105.466 285.647 105.158 285.33C104.85 285.003 104.43 284.84 103.898 284.84C103.357 284.84 102.928 285.003 102.61 285.33C102.302 285.647 102.148 286.109 102.148 286.716V291H100.188V283.244H102.148V284.182C102.4 283.855 102.722 283.599 103.114 283.412C103.516 283.225 103.954 283.132 104.43 283.132C105.037 283.132 105.578 283.263 106.054 283.524C106.53 283.776 106.899 284.14 107.16 284.616C107.412 284.168 107.776 283.809 108.252 283.538C108.738 283.267 109.26 283.132 109.82 283.132ZM122.068 286.954C122.068 287.234 122.05 287.486 122.012 287.71H116.342C116.389 288.27 116.585 288.709 116.93 289.026C117.276 289.343 117.7 289.502 118.204 289.502C118.932 289.502 119.45 289.189 119.758 288.564H121.872C121.648 289.311 121.219 289.927 120.584 290.412C119.95 290.888 119.17 291.126 118.246 291.126C117.5 291.126 116.828 290.963 116.23 290.636C115.642 290.3 115.18 289.829 114.844 289.222C114.518 288.615 114.354 287.915 114.354 287.122C114.354 286.319 114.518 285.615 114.844 285.008C115.171 284.401 115.628 283.935 116.216 283.608C116.804 283.281 117.481 283.118 118.246 283.118C118.984 283.118 119.642 283.277 120.22 283.594C120.808 283.911 121.261 284.364 121.578 284.952C121.905 285.531 122.068 286.198 122.068 286.954ZM120.038 286.394C120.029 285.89 119.847 285.489 119.492 285.19C119.138 284.882 118.704 284.728 118.19 284.728C117.705 284.728 117.294 284.877 116.958 285.176C116.632 285.465 116.431 285.871 116.356 286.394H120.038ZM131.133 283.132C132.057 283.132 132.804 283.426 133.373 284.014C133.942 284.593 134.227 285.405 134.227 286.45V291H132.267V286.716C132.267 286.1 132.113 285.629 131.805 285.302C131.497 284.966 131.077 284.798 130.545 284.798C130.004 284.798 129.574 284.966 129.257 285.302C128.949 285.629 128.795 286.1 128.795 286.716V291H126.835V283.244H128.795V284.21C129.056 283.874 129.388 283.613 129.789 283.426C130.2 283.23 130.648 283.132 131.133 283.132ZM143.301 286.954C143.301 287.234 143.282 287.486 143.245 287.71H137.575C137.621 288.27 137.817 288.709 138.163 289.026C138.508 289.343 138.933 289.502 139.437 289.502C140.165 289.502 140.683 289.189 140.991 288.564H143.105C142.881 289.311 142.451 289.927 141.817 290.412C141.182 290.888 140.403 291.126 139.479 291.126C138.732 291.126 138.06 290.963 137.463 290.636C136.875 290.3 136.413 289.829 136.077 289.222C135.75 288.615 135.587 287.915 135.587 287.122C135.587 286.319 135.75 285.615 136.077 285.008C136.403 284.401 136.861 283.935 137.449 283.608C138.037 283.281 138.713 283.118 139.479 283.118C140.216 283.118 140.874 283.277 141.453 283.594C142.041 283.911 142.493 284.364 142.811 284.952C143.137 285.531 143.301 286.198 143.301 286.954ZM141.271 286.394C141.261 285.89 141.079 285.489 140.725 285.19C140.37 284.882 139.936 284.728 139.423 284.728C138.937 284.728 138.527 284.877 138.191 285.176C137.864 285.465 137.663 285.871 137.589 286.394H141.271ZM147.769 283.118C148.348 283.118 148.857 283.235 149.295 283.468C149.734 283.692 150.079 283.986 150.331 284.35V283.244H152.305V291.056C152.305 291.775 152.161 292.414 151.871 292.974C151.582 293.543 151.148 293.991 150.569 294.318C149.991 294.654 149.291 294.822 148.469 294.822C147.368 294.822 146.463 294.565 145.753 294.052C145.053 293.539 144.657 292.839 144.563 291.952H146.509C146.612 292.307 146.831 292.587 147.167 292.792C147.513 293.007 147.928 293.114 148.413 293.114C148.983 293.114 149.445 292.941 149.799 292.596C150.154 292.26 150.331 291.747 150.331 291.056V289.852C150.079 290.216 149.729 290.519 149.281 290.762C148.843 291.005 148.339 291.126 147.769 291.126C147.116 291.126 146.519 290.958 145.977 290.622C145.436 290.286 145.007 289.815 144.689 289.208C144.381 288.592 144.227 287.887 144.227 287.094C144.227 286.31 144.381 285.615 144.689 285.008C145.007 284.401 145.431 283.935 145.963 283.608C146.505 283.281 147.107 283.118 147.769 283.118ZM150.331 287.122C150.331 286.646 150.238 286.24 150.051 285.904C149.865 285.559 149.613 285.297 149.295 285.12C148.978 284.933 148.637 284.84 148.273 284.84C147.909 284.84 147.573 284.929 147.265 285.106C146.957 285.283 146.705 285.545 146.509 285.89C146.323 286.226 146.229 286.627 146.229 287.094C146.229 287.561 146.323 287.971 146.509 288.326C146.705 288.671 146.957 288.937 147.265 289.124C147.583 289.311 147.919 289.404 148.273 289.404C148.637 289.404 148.978 289.315 149.295 289.138C149.613 288.951 149.865 288.69 150.051 288.354C150.238 288.009 150.331 287.598 150.331 287.122ZM157.664 291.126C156.917 291.126 156.245 290.963 155.648 290.636C155.05 290.3 154.579 289.829 154.234 289.222C153.898 288.615 153.73 287.915 153.73 287.122C153.73 286.329 153.902 285.629 154.248 285.022C154.602 284.415 155.083 283.949 155.69 283.622C156.296 283.286 156.973 283.118 157.72 283.118C158.466 283.118 159.143 283.286 159.75 283.622C160.356 283.949 160.832 284.415 161.178 285.022C161.532 285.629 161.71 286.329 161.71 287.122C161.71 287.915 161.528 288.615 161.164 289.222C160.809 289.829 160.324 290.3 159.708 290.636C159.101 290.963 158.42 291.126 157.664 291.126ZM157.664 289.418C158.018 289.418 158.35 289.334 158.658 289.166C158.975 288.989 159.227 288.727 159.414 288.382C159.6 288.037 159.694 287.617 159.694 287.122C159.694 286.385 159.498 285.82 159.106 285.428C158.723 285.027 158.252 284.826 157.692 284.826C157.132 284.826 156.66 285.027 156.278 285.428C155.904 285.82 155.718 286.385 155.718 287.122C155.718 287.859 155.9 288.429 156.264 288.83C156.637 289.222 157.104 289.418 157.664 289.418ZM164.939 289.39H168.397V291H162.713V289.418L166.101 284.854H162.727V283.244H168.355V284.826L164.939 289.39ZM170.909 282.32C170.564 282.32 170.274 282.213 170.041 281.998C169.817 281.774 169.705 281.499 169.705 281.172C169.705 280.845 169.817 280.575 170.041 280.36C170.274 280.136 170.564 280.024 170.909 280.024C171.254 280.024 171.539 280.136 171.763 280.36C171.996 280.575 172.113 280.845 172.113 281.172C172.113 281.499 171.996 281.774 171.763 281.998C171.539 282.213 171.254 282.32 170.909 282.32ZM171.875 283.244V291H169.915V283.244H171.875ZM177.255 291.126C176.509 291.126 175.837 290.963 175.239 290.636C174.642 290.3 174.171 289.829 173.825 289.222C173.489 288.615 173.321 287.915 173.321 287.122C173.321 286.329 173.494 285.629 173.839 285.022C174.194 284.415 174.675 283.949 175.281 283.622C175.888 283.286 176.565 283.118 177.311 283.118C178.058 283.118 178.735 283.286 179.341 283.622C179.948 283.949 180.424 284.415 180.769 285.022C181.124 285.629 181.301 286.329 181.301 287.122C181.301 287.915 181.119 288.615 180.755 289.222C180.401 289.829 179.915 290.3 179.299 290.636C178.693 290.963 178.011 291.126 177.255 291.126ZM177.255 289.418C177.61 289.418 177.941 289.334 178.249 289.166C178.567 288.989 178.819 288.727 179.005 288.382C179.192 288.037 179.285 287.617 179.285 287.122C179.285 286.385 179.089 285.82 178.697 285.428C178.315 285.027 177.843 284.826 177.283 284.826C176.723 284.826 176.252 285.027 175.869 285.428C175.496 285.82 175.309 286.385 175.309 287.122C175.309 287.859 175.491 288.429 175.855 288.83C176.229 289.222 176.695 289.418 177.255 289.418Z" fill="#807A7A"/>
<defs>
<clipPath id="clip0_1673_1726">
<rect width="76.0392" height="76.0392" fill="white" transform="translate(141 141)"/>
</clipPath>
<clipPath id="clip1_1673_1726">
<rect width="13.6849" height="13.6849" fill="white" transform="translate(273.754 24.5735)"/>
</clipPath>
<clipPath id="clip2_1673_1726">
<rect width="16" height="16" fill="white" transform="translate(209.385 278)"/>
</clipPath>
<clipPath id="clip3_1673_1726">
<rect width="24" height="24" fill="white" transform="translate(49.9998 274)"/>
</clipPath>
</defs>
</svg>
