<svg width="358" height="318" viewBox="0 0 358 318" fill="none" xmlns="http://www.w3.org/2000/svg">
<rect width="358" height="318" rx="3.04157" fill="#FAF9F8"/>
<g clip-path="url(#clip0_1673_1276)">
<path d="M188.525 147.336C191.351 147.335 194.097 148.28 196.325 150.02C198.553 151.759 200.135 154.193 200.821 156.936L200.872 157.164L201.125 157.224C203.209 157.749 205.125 158.794 206.693 160.263C208.262 161.732 209.431 163.575 210.091 165.62L210.272 166.232C210.92 168.648 210.839 171.202 210.038 173.572C209.237 175.942 207.753 178.022 205.772 179.55C203.791 181.078 201.402 181.986 198.906 182.158C196.41 182.331 193.919 181.761 191.747 180.521L191.598 180.429L180.43 191.597L180.563 191.819C181.562 193.597 182.118 195.59 182.183 197.628C182.247 199.667 181.819 201.691 180.933 203.529L180.61 204.153C179.283 206.558 177.21 208.468 174.704 209.593C172.198 210.718 169.394 210.998 166.714 210.391C164.445 209.876 162.362 208.744 160.695 207.121C159.028 205.497 157.842 203.445 157.266 201.191L157.193 200.89L156.756 200.785C154.629 200.218 152.687 199.106 151.12 197.56C149.554 196.014 148.417 194.087 147.822 191.968L147.663 191.337C147.122 188.945 147.286 186.446 148.136 184.146C148.987 181.845 150.486 179.84 152.454 178.375C154.421 176.91 156.771 176.047 159.219 175.891C161.668 175.736 164.108 176.294 166.245 177.498L166.461 177.625L177.626 166.46L177.512 166.266C176.621 164.693 176.078 162.948 175.918 161.147C175.758 159.346 175.985 157.532 176.583 155.827L176.834 155.177C177.792 152.861 179.416 150.882 181.5 149.489C183.584 148.096 186.034 147.352 188.541 147.352L188.1 147.364L188.164 147.355L188.525 147.336Z" fill="#CBCBCB"/>
</g>
<path d="M17.0354 24.1688C17.2417 23.8261 17.7385 23.8261 17.9447 24.1688L20.1687 27.8644C20.2428 27.9875 20.3637 28.0753 20.5037 28.1077L24.7056 29.0809C25.0953 29.1711 25.2488 29.6437 24.9866 29.9457L22.1592 33.2029C22.065 33.3114 22.0188 33.4534 22.0313 33.5966L22.4042 37.8936C22.4388 38.2921 22.0368 38.5841 21.6685 38.4281L17.6971 36.7456C17.5648 36.6895 17.4154 36.6895 17.2831 36.7456L13.3116 38.4281C12.9433 38.5841 12.5414 38.2921 12.576 37.8936L12.9489 33.5966C12.9613 33.4534 12.9152 33.3114 12.821 33.2029L9.99353 29.9457C9.73134 29.6437 9.88487 29.1711 10.2745 29.0809L14.4765 28.1077C14.6165 28.0753 14.7373 27.9875 14.8114 27.8644L17.0354 24.1688Z" fill="#FF7C00"/>
<path d="M40.1217 24.1688C40.328 23.8261 40.8248 23.8261 41.031 24.1688L43.2551 27.8644C43.3291 27.9875 43.45 28.0753 43.59 28.1077L47.7919 29.0809C48.1816 29.1711 48.3351 29.6437 48.0729 29.9457L45.2455 33.2029C45.1513 33.3114 45.1051 33.4534 45.1176 33.5966L45.4905 37.8936C45.5251 38.2921 45.1231 38.5841 44.7548 38.4281L40.7834 36.7456C40.6511 36.6895 40.5017 36.6895 40.3694 36.7456L36.3979 38.4281C36.0296 38.5841 35.6277 38.2921 35.6623 37.8936L36.0352 33.5966C36.0476 33.4534 36.0015 33.3114 35.9073 33.2029L33.0798 29.9457C32.8176 29.6437 32.9712 29.1711 33.3608 29.0809L37.5628 28.1077C37.7028 28.0753 37.8236 27.9875 37.8977 27.8644L40.1217 24.1688Z" fill="#FF7C00"/>
<path d="M63.2077 24.1688C63.4139 23.8261 63.9107 23.8261 64.117 24.1688L66.341 27.8644C66.4151 27.9875 66.5359 28.0753 66.6759 28.1077L70.8779 29.0809C71.2675 29.1711 71.421 29.6437 71.1589 29.9457L68.3314 33.2029C68.2372 33.3114 68.1911 33.4534 68.2035 33.5966L68.5764 37.8936C68.611 38.2921 68.2091 38.5841 67.8408 38.4281L63.8693 36.7456C63.737 36.6895 63.5876 36.6895 63.4553 36.7456L59.4838 38.4281C59.1156 38.5841 58.7136 38.2921 58.7482 37.8936L59.1211 33.5966C59.1336 33.4534 59.0874 33.3114 58.9932 33.2029L56.1658 29.9457C55.9036 29.6437 56.0571 29.1711 56.4468 29.0809L60.6487 28.1077C60.7887 28.0753 60.9096 27.9875 60.9836 27.8644L63.2077 24.1688Z" fill="#FF7C00"/>
<path d="M86.2932 24.1688C86.4995 23.8261 86.9963 23.8261 87.2025 24.1688L89.4266 27.8644C89.5006 27.9875 89.6215 28.0753 89.7615 28.1077L93.9634 29.0809C94.3531 29.1711 94.5066 29.6437 94.2444 29.9457L91.417 33.2029C91.3228 33.3114 91.2766 33.4534 91.2891 33.5966L91.662 37.8936C91.6966 38.2921 91.2946 38.5841 90.9264 38.4281L86.9549 36.7456C86.8226 36.6895 86.6732 36.6895 86.5409 36.7456L82.5694 38.4281C82.2011 38.5841 81.7992 38.2921 81.8338 37.8936L82.2067 33.5966C82.2191 33.4534 82.173 33.3114 82.0788 33.2029L79.2513 29.9457C78.9892 29.6437 79.1427 29.1711 79.5323 29.0809L83.7343 28.1077C83.8743 28.0753 83.9951 27.9875 84.0692 27.8644L86.2932 24.1688Z" fill="#E0E0E0"/>
<path d="M109.379 24.1688C109.585 23.8261 110.082 23.8261 110.288 24.1688L112.512 27.8644C112.587 27.9875 112.707 28.0753 112.847 28.1077L117.049 29.0809C117.439 29.1711 117.593 29.6437 117.33 29.9457L114.503 33.2029C114.409 33.3114 114.363 33.4534 114.375 33.5966L114.748 37.8936C114.783 38.2921 114.381 38.5841 114.012 38.4281L110.041 36.7456C109.909 36.6895 109.759 36.6895 109.627 36.7456L105.655 38.4281C105.287 38.5841 104.885 38.2921 104.92 37.8936L105.293 33.5966C105.305 33.4534 105.259 33.3114 105.165 33.2029L102.337 29.9457C102.075 29.6437 102.229 29.1711 102.618 29.0809L106.82 28.1077C106.96 28.0753 107.081 27.9875 107.155 27.8644L109.379 24.1688Z" fill="#E0E0E0"/>
<path d="M261.046 16.7525H343.156C345.855 16.7525 348.043 18.9407 348.043 21.64V47.0548H265.934C263.234 47.0548 261.046 44.8666 261.046 42.1673V16.7525Z" fill="#F87537"/>
<g clip-path="url(#clip1_1673_1276)">
<path d="M282.877 34.8369C283.179 34.8369 283.469 34.9571 283.683 35.171C283.897 35.3848 284.017 35.6749 284.017 35.9774C284.017 35.6749 284.137 35.3848 284.351 35.171C284.565 34.9571 284.855 34.8369 285.158 34.8369C284.855 34.8369 284.565 34.7168 284.351 34.5029C284.137 34.2891 284.017 33.999 284.017 33.6965C284.017 33.999 283.897 34.2891 283.683 34.5029C283.469 34.7168 283.179 34.8369 282.877 34.8369ZM282.877 27.9945C283.179 27.9945 283.469 28.1146 283.683 28.3285C283.897 28.5424 284.017 28.8324 284.017 29.1349C284.017 28.8324 284.137 28.5424 284.351 28.3285C284.565 28.1146 284.855 27.9945 285.158 27.9945C284.855 27.9945 284.565 27.8743 284.351 27.6605C284.137 27.4466 284.017 27.1565 284.017 26.8541C284.017 27.1565 283.897 27.4466 283.683 27.6605C283.469 27.8743 283.179 27.9945 282.877 27.9945ZM278.885 34.8369C278.885 33.9296 279.246 33.0594 279.888 32.4178C280.529 31.7762 281.399 31.4157 282.307 31.4157C281.399 31.4157 280.529 31.0553 279.888 30.4137C279.246 29.7721 278.885 28.9019 278.885 27.9945C278.885 28.9019 278.525 29.7721 277.883 30.4137C277.242 31.0553 276.372 31.4157 275.464 31.4157C276.372 31.4157 277.242 31.7762 277.883 32.4178C278.525 33.0594 278.885 33.9296 278.885 34.8369Z" stroke="#FAF9F8" stroke-width="1.14041" stroke-linecap="round" stroke-linejoin="round"/>
</g>
<path d="M298.169 36.6406H296.608L291.915 29.5381V36.6406H290.354V27.1159H291.915L296.608 34.2047V27.1159H298.169V36.6406ZM307.046 29.1002V36.6406H305.486V35.7511C305.24 36.0613 304.916 36.3076 304.514 36.4901C304.122 36.6634 303.702 36.7501 303.255 36.7501C302.662 36.7501 302.129 36.6269 301.654 36.3806C301.189 36.1343 300.819 35.7693 300.546 35.2858C300.281 34.8023 300.149 34.2184 300.149 33.5341V29.1002H301.695V33.3015C301.695 33.9766 301.864 34.4966 302.202 34.8616C302.539 35.2174 303 35.3953 303.584 35.3953C304.168 35.3953 304.628 35.2174 304.966 34.8616C305.313 34.4966 305.486 33.9766 305.486 33.3015V29.1002H307.046ZM312.375 36.7638C311.663 36.7638 311.02 36.6041 310.446 36.2848C309.871 35.9563 309.419 35.5002 309.091 34.9163C308.762 34.3233 308.598 33.639 308.598 32.8636C308.598 32.0972 308.767 31.4175 309.104 30.8245C309.442 30.2315 309.903 29.7753 310.487 29.456C311.07 29.1367 311.723 28.977 312.444 28.977C313.164 28.977 313.817 29.1367 314.4 29.456C314.984 29.7753 315.445 30.2315 315.783 30.8245C316.12 31.4175 316.289 32.0972 316.289 32.8636C316.289 33.6299 316.116 34.3096 315.769 34.9026C315.422 35.4956 314.948 35.9563 314.346 36.2848C313.753 36.6041 313.096 36.7638 312.375 36.7638ZM312.375 35.409C312.777 35.409 313.151 35.3132 313.497 35.1216C313.853 34.93 314.14 34.6426 314.359 34.2594C314.578 33.8762 314.688 33.411 314.688 32.8636C314.688 32.3162 314.583 31.8554 314.373 31.4814C314.163 31.0982 313.885 30.8108 313.538 30.6192C313.192 30.4276 312.818 30.3319 312.416 30.3319C312.015 30.3319 311.641 30.4276 311.294 30.6192C310.956 30.8108 310.687 31.0982 310.487 31.4814C310.286 31.8554 310.186 32.3162 310.186 32.8636C310.186 33.6755 310.391 34.305 310.801 34.7521C311.221 35.19 311.746 35.409 312.375 35.409ZM320.746 35.2447L322.881 29.1002H324.537L321.663 36.6406H319.802L316.942 29.1002H318.611L320.746 35.2447ZM328.987 36.7638C328.275 36.7638 327.632 36.6041 327.057 36.2848C326.482 35.9563 326.031 35.5002 325.702 34.9163C325.374 34.3233 325.21 33.639 325.21 32.8636C325.21 32.0972 325.379 31.4175 325.716 30.8245C326.054 30.2315 326.514 29.7753 327.098 29.456C327.682 29.1367 328.334 28.977 329.055 28.977C329.776 28.977 330.428 29.1367 331.012 29.456C331.596 29.7753 332.057 30.2315 332.394 30.8245C332.732 31.4175 332.901 32.0972 332.901 32.8636C332.901 33.6299 332.727 34.3096 332.381 34.9026C332.034 35.4956 331.56 35.9563 330.957 36.2848C330.364 36.6041 329.708 36.7638 328.987 36.7638ZM328.987 35.409C329.388 35.409 329.762 35.3132 330.109 35.1216C330.465 34.93 330.752 34.6426 330.971 34.2594C331.19 33.8762 331.3 33.411 331.3 32.8636C331.3 32.3162 331.195 31.8554 330.985 31.4814C330.775 31.0982 330.497 30.8108 330.15 30.6192C329.803 30.4276 329.429 30.3319 329.028 30.3319C328.626 30.3319 328.252 30.4276 327.906 30.6192C327.568 30.8108 327.299 31.0982 327.098 31.4814C326.898 31.8554 326.797 32.3162 326.797 32.8636C326.797 33.6755 327.002 34.305 327.413 34.7521C327.833 35.19 328.357 35.409 328.987 35.409Z" fill="#FAF9F8"/>
<rect x="125" y="278" width="30" height="20.25" rx="10.125" fill="#F87537"/>
<path d="M137.249 284.312C137.249 285.042 137.539 285.741 138.054 286.257C138.57 286.773 139.27 287.062 139.999 287.062C140.728 287.062 141.428 286.773 141.944 286.257C142.459 285.741 142.749 285.042 142.749 284.312C142.749 283.583 142.459 282.884 141.944 282.368C141.428 281.852 140.728 281.562 139.999 281.562C139.27 281.562 138.57 281.852 138.054 282.368C137.539 282.884 137.249 283.583 137.249 284.312Z" stroke="white" stroke-width="1.375" stroke-linecap="round" stroke-linejoin="round"/>
<path d="M135.875 293.938V292.562C135.875 291.833 136.165 291.134 136.68 290.618C137.196 290.102 137.896 289.812 138.625 289.812H141.375C142.104 289.812 142.804 290.102 143.32 290.618C143.835 291.134 144.125 291.833 144.125 292.562V293.938" stroke="white" stroke-width="1.375" stroke-linecap="round" stroke-linejoin="round"/>
<path d="M170.958 291.263H167.066L166.422 293.125H164.364L167.878 283.339H170.16L173.674 293.125H171.602L170.958 291.263ZM170.426 289.695L169.012 285.607L167.598 289.695H170.426ZM179.285 285.257C180.209 285.257 180.956 285.551 181.525 286.139C182.095 286.718 182.379 287.53 182.379 288.575V293.125H180.419V288.841C180.419 288.225 180.265 287.754 179.957 287.427C179.649 287.091 179.229 286.923 178.697 286.923C178.156 286.923 177.727 287.091 177.409 287.427C177.101 287.754 176.947 288.225 176.947 288.841V293.125H174.987V285.369H176.947V286.335C177.209 285.999 177.54 285.738 177.941 285.551C178.352 285.355 178.8 285.257 179.285 285.257ZM188.541 285.257C189.465 285.257 190.212 285.551 190.781 286.139C191.351 286.718 191.635 287.53 191.635 288.575V293.125H189.675V288.841C189.675 288.225 189.521 287.754 189.213 287.427C188.905 287.091 188.485 286.923 187.953 286.923C187.412 286.923 186.983 287.091 186.665 287.427C186.357 287.754 186.203 288.225 186.203 288.841V293.125H184.243V285.369H186.203V286.335C186.465 285.999 186.796 285.738 187.197 285.551C187.608 285.355 188.056 285.257 188.541 285.257ZM200.821 285.369V293.125H198.847V292.145C198.595 292.481 198.264 292.747 197.853 292.943C197.452 293.13 197.013 293.223 196.537 293.223C195.931 293.223 195.394 293.097 194.927 292.845C194.461 292.584 194.092 292.206 193.821 291.711C193.56 291.207 193.429 290.61 193.429 289.919V285.369H195.389V289.639C195.389 290.255 195.543 290.731 195.851 291.067C196.159 291.394 196.579 291.557 197.111 291.557C197.653 291.557 198.077 291.394 198.385 291.067C198.693 290.731 198.847 290.255 198.847 289.639V285.369H200.821ZM207.053 285.257C207.977 285.257 208.724 285.551 209.293 286.139C209.862 286.718 210.147 287.53 210.147 288.575V293.125H208.187V288.841C208.187 288.225 208.033 287.754 207.725 287.427C207.417 287.091 206.997 286.923 206.465 286.923C205.924 286.923 205.494 287.091 205.177 287.427C204.869 287.754 204.715 288.225 204.715 288.841V293.125H202.755V285.369H204.715V286.335C204.976 285.999 205.308 285.738 205.709 285.551C206.12 285.355 206.568 285.257 207.053 285.257ZM211.507 289.247C211.507 288.444 211.67 287.744 211.997 287.147C212.324 286.54 212.776 286.074 213.355 285.747C213.934 285.411 214.596 285.243 215.343 285.243C216.304 285.243 217.098 285.486 217.723 285.971C218.358 286.447 218.782 287.119 218.997 287.987H216.883C216.771 287.651 216.58 287.39 216.309 287.203C216.048 287.007 215.721 286.909 215.329 286.909C214.769 286.909 214.326 287.114 213.999 287.525C213.672 287.926 213.509 288.5 213.509 289.247C213.509 289.984 213.672 290.558 213.999 290.969C214.326 291.37 214.769 291.571 215.329 291.571C216.122 291.571 216.64 291.216 216.883 290.507H218.997C218.782 291.347 218.358 292.014 217.723 292.509C217.088 293.004 216.295 293.251 215.343 293.251C214.596 293.251 213.934 293.088 213.355 292.761C212.776 292.425 212.324 291.958 211.997 291.361C211.67 290.754 211.507 290.05 211.507 289.247ZM221.427 284.445C221.081 284.445 220.792 284.338 220.559 284.123C220.335 283.899 220.223 283.624 220.223 283.297C220.223 282.97 220.335 282.7 220.559 282.485C220.792 282.261 221.081 282.149 221.427 282.149C221.772 282.149 222.057 282.261 222.281 282.485C222.514 282.7 222.631 282.97 222.631 283.297C222.631 283.624 222.514 283.899 222.281 284.123C222.057 284.338 221.772 284.445 221.427 284.445ZM222.393 285.369V293.125H220.433V285.369H222.393ZM227.773 293.251C227.027 293.251 226.355 293.088 225.757 292.761C225.16 292.425 224.689 291.954 224.343 291.347C224.007 290.74 223.839 290.04 223.839 289.247C223.839 288.454 224.012 287.754 224.357 287.147C224.712 286.54 225.193 286.074 225.799 285.747C226.406 285.411 227.083 285.243 227.829 285.243C228.576 285.243 229.253 285.411 229.859 285.747C230.466 286.074 230.942 286.54 231.287 287.147C231.642 287.754 231.819 288.454 231.819 289.247C231.819 290.04 231.637 290.74 231.273 291.347C230.919 291.954 230.433 292.425 229.817 292.761C229.211 293.088 228.529 293.251 227.773 293.251ZM227.773 291.543C228.128 291.543 228.459 291.459 228.767 291.291C229.085 291.114 229.337 290.852 229.523 290.507C229.71 290.162 229.803 289.742 229.803 289.247C229.803 288.51 229.607 287.945 229.215 287.553C228.833 287.152 228.361 286.951 227.801 286.951C227.241 286.951 226.77 287.152 226.387 287.553C226.014 287.945 225.827 288.51 225.827 289.247C225.827 289.984 226.009 290.554 226.373 290.955C226.747 291.347 227.213 291.543 227.773 291.543Z" fill="#807A7A"/>
<defs>
<clipPath id="clip0_1673_1276">
<rect width="76.0392" height="76.0392" fill="white" transform="translate(141 141)"/>
</clipPath>
<clipPath id="clip1_1673_1276">
<rect width="13.6849" height="13.6849" fill="white" transform="translate(273.754 24.5735)"/>
</clipPath>
</defs>
</svg>
