<svg width="81" height="82" viewBox="0 0 81 82" fill="none" xmlns="http://www.w3.org/2000/svg">
<path d="M29.8117 47.6873C29.1356 44.1155 24.3203 42.3027 19.1132 43.9228C15.1469 45.1573 9.92474 49.6057 10.8625 53.093C11.3755 54.9998 16.3292 58.3507 21.561 56.8575C26.7933 55.3647 30.4878 51.259 29.8117 47.6873Z" fill="white"/>
<path d="M42.5621 58.8148C41.1288 56.3021 37.0076 56.5095 33.0604 58.7123C30.4708 60.157 27.2772 65.2213 28.7476 67.7084C29.7609 69.4227 34.4344 70.2665 38.2484 67.8101C42.0633 65.3546 43.9945 61.3267 42.5621 58.8148Z" fill="white"/>
<path d="M39.4953 51.8384C42.0582 52.667 44.1729 54.3765 45.4332 56.7452C46.7805 59.2774 47.9898 62.0252 52.9705 62.2524C59.1171 62.5323 64.5757 56.9774 65.0695 50.7039C65.2085 48.9364 64.9418 47.2706 64.3492 45.7916C63.7065 44.1897 63.444 42.4504 63.5712 40.7072C63.7186 38.9638 64.2561 37.2106 65.1524 35.583C65.9805 34.08 66.5111 32.4005 66.6501 30.633C67.1438 24.3595 62.5465 18.9753 56.3398 19.4643C51.3105 19.8602 49.6637 22.6566 47.9135 25.2418C46.2763 27.6589 43.8865 29.4448 41.1849 30.3629C36.4025 31.9885 33.0955 36.3946 32.7148 41.2303C32.3354 46.0655 34.9559 50.3702 39.4953 51.8384Z" fill="white"/>
<path d="M19.5008 38.931C24.4737 40.3575 29.5825 38.3555 30.8086 34.7475C32.0348 31.1394 28.9604 27.1633 23.9418 25.8659C18.9232 24.5685 13.4408 28.1175 12.6339 30.0494C11.1588 33.5824 15.7129 37.8447 19.5008 38.931Z" fill="white"/>
<path d="M35.7476 23.5648C39.3686 25.6239 43.4702 25.6749 45.2917 23.1005C47.1151 20.5269 45.7965 16.5606 42.3483 14.2426C38.8991 11.9247 34.0833 12.9491 32.8041 14.7069C30.9466 17.2581 33.3729 22.2144 35.7476 23.5648Z" fill="white"/>
</svg>
