<svg width="23" height="23" viewBox="0 0 23 23" fill="none" xmlns="http://www.w3.org/2000/svg">
<path d="M16.9573 11.191C17.4018 10.6302 18.0751 10.0777 18.8076 9.99627C19.1616 9.95688 19.5253 10.0144 19.8087 10.2423C20.204 10.5602 20.3862 11.1165 20.4343 11.6051C20.4956 12.2292 20.3036 13.0492 20.0065 13.6078C19.9825 13.6213 19.9882 13.6139 19.976 13.6328C19.9729 13.6377 19.9704 13.6431 19.967 13.6478C19.9516 13.6685 19.9413 13.6785 19.9331 13.7037C19.9306 13.7112 19.9283 13.7189 19.926 13.7265C19.9115 13.6349 20.0202 13.3918 20.0508 13.2965C20.2074 12.8084 20.2589 12.4008 20.1901 11.8908C20.1684 11.7301 20.1386 11.5616 20.0782 11.4103C19.9292 11.0368 19.654 10.6863 19.2781 10.5242C18.6362 10.2475 17.9097 10.5597 17.3733 10.9265C17.2742 10.9943 17.0942 11.1638 16.9978 11.1979C16.9759 11.2056 16.9768 11.2006 16.9573 11.191Z" fill="#F87537"/>
<path d="M3.14479 8.13863C3.24336 7.50006 3.48991 6.83164 3.8904 6.32016C4.1927 5.93406 4.57781 5.57559 5.0864 5.51661C5.42286 5.47757 5.74156 5.58751 6.00471 5.79558C6.58063 6.25087 6.86062 7.03242 6.94605 7.74283C6.90887 7.72567 6.90182 7.71773 6.88668 7.67968C6.83962 7.56153 6.81282 7.43526 6.76471 7.31649C6.57856 6.857 6.25987 6.44456 5.80737 6.22402C5.47822 6.06359 5.11795 6.03856 4.77164 6.1591C4.12376 6.38458 3.68459 7.009 3.40224 7.60556C3.35309 7.70939 3.22655 8.10312 3.14479 8.13863Z" fill="#F87537"/>
<path d="M14.4876 4.34117C14.5842 4.22865 14.6959 4.13028 14.8081 4.0337C15.1716 3.72076 15.5595 3.49358 16.048 3.45739C16.5018 3.42377 16.9081 3.60377 17.2453 3.89825C17.9967 4.55449 18.3844 5.64113 18.4453 6.61704C18.4879 7.30123 18.4097 7.84546 18.1777 8.49312C18.1734 8.48801 18.1673 8.48403 18.1648 8.47784C18.161 8.46877 18.1881 8.35321 18.1907 8.33505C18.2195 8.13235 18.2506 7.92879 18.2642 7.72439C18.2671 7.67731 18.2692 7.63018 18.2706 7.58301C18.2719 7.53585 18.2725 7.48868 18.2723 7.44149C18.2721 7.39432 18.2711 7.34715 18.2693 7.29999C18.2675 7.25285 18.2649 7.20574 18.2616 7.15867C18.2583 7.11162 18.2541 7.06463 18.2493 7.0177C18.2443 6.97078 18.2387 6.92395 18.2322 6.87722C18.2258 6.83047 18.2186 6.78384 18.2106 6.73734C18.2026 6.69085 18.1938 6.6445 18.1843 6.59829C18.1748 6.55208 18.1645 6.50605 18.1534 6.46019C18.1424 6.41431 18.1305 6.36863 18.118 6.32315C18.1054 6.27768 18.0921 6.23242 18.078 6.18738C18.0639 6.14236 18.0491 6.09757 18.0336 6.05302C18.018 6.00847 18.0018 5.9642 17.9847 5.92019C17.9677 5.87619 17.95 5.83247 17.9315 5.78906C17.913 5.74565 17.8939 5.70255 17.874 5.65977C17.8541 5.61699 17.8335 5.57455 17.8122 5.53245C17.4681 4.86665 16.9429 4.24252 16.2068 4.01164C15.7579 3.87086 15.2739 3.90587 14.8579 4.12727C14.7338 4.19329 14.6252 4.28754 14.5031 4.3513L14.4876 4.34117Z" fill="#F87537"/>
<path d="M3.1445 8.13858C3.22626 8.10308 3.3528 7.70934 3.40194 7.60552C3.6843 7.00895 4.12346 6.38453 4.77134 6.15905C5.11766 6.03851 5.47792 6.06354 5.80708 6.22398C6.25958 6.44452 6.57827 6.85695 6.76441 7.31644C6.81252 7.43521 6.83932 7.56149 6.88638 7.67963C6.90152 7.71768 6.90858 7.72562 6.94575 7.74278C6.98773 7.86747 6.97944 8.03509 6.97771 8.16566C6.96765 8.92083 6.75655 9.68905 6.42042 10.363C6.1686 10.8678 5.73104 11.4123 5.17663 11.5964C4.86543 11.6998 4.54305 11.6664 4.25311 11.5167C3.76716 11.2658 3.4501 10.6996 3.29233 10.1962C3.11544 9.63183 3.05033 9.06446 3.1021 8.4752C3.11147 8.36832 3.11651 8.24164 3.1445 8.13858Z" fill="#F87537"/>
<path d="M16.9575 11.1911C16.9769 11.2006 16.976 11.2056 16.9979 11.1979C17.0944 11.1638 17.2743 10.9943 17.3735 10.9265C17.9099 10.5597 18.6364 10.2476 19.2782 10.5243C19.6541 10.6864 19.9294 11.0369 20.0784 11.4104C20.1387 11.5617 20.1686 11.7302 20.1902 11.8908C20.259 12.4008 20.2076 12.8085 20.0509 13.2966C20.0204 13.3918 19.9117 13.6349 19.9261 13.7265C19.9285 13.7189 19.9308 13.7113 19.9333 13.7037C19.9415 13.6785 19.9518 13.6686 19.9671 13.6478C19.9706 13.6431 19.9731 13.6377 19.9762 13.6328C19.9884 13.6139 19.9826 13.6213 20.0067 13.6078C19.893 13.8603 19.7201 14.1237 19.548 14.3395C19.0623 14.9487 18.3403 15.5471 17.5404 15.6305C17.1885 15.6673 16.8506 15.5855 16.5759 15.3578C16.2156 15.0593 16.0299 14.5429 15.9868 14.0893C15.8892 13.0639 16.308 11.9781 16.9575 11.1911Z" fill="#F87537"/>
<path d="M14.4871 4.34115L14.5025 4.35128C14.6247 4.28751 14.7333 4.19326 14.8573 4.12724C15.2734 3.90585 15.7574 3.87084 16.2063 4.01162C16.9424 4.2425 17.4676 4.86663 17.8116 5.53242C17.8329 5.57452 17.8535 5.61696 17.8734 5.65975C17.8933 5.70253 17.9125 5.74562 17.931 5.78903C17.9495 5.83245 17.9672 5.87616 17.9842 5.92016C18.0012 5.96417 18.0175 6.00845 18.0331 6.05299C18.0486 6.09755 18.0634 6.14233 18.0775 6.18735C18.0916 6.23239 18.1049 6.27765 18.1174 6.32313C18.13 6.3686 18.1418 6.41428 18.1529 6.46016C18.1639 6.50602 18.1742 6.55206 18.1838 6.59827C18.1933 6.64447 18.2021 6.69082 18.21 6.73732C18.218 6.78382 18.2253 6.83044 18.2317 6.87719C18.2381 6.92393 18.2438 6.97075 18.2487 7.01767C18.2536 7.06461 18.2577 7.1116 18.2611 7.15865C18.2644 7.20571 18.267 7.25282 18.2688 7.29997C18.2705 7.34713 18.2715 7.39429 18.2717 7.44146C18.272 7.48865 18.2714 7.53583 18.27 7.58299C18.2687 7.63015 18.2666 7.67728 18.2637 7.72437C18.2501 7.92876 18.2189 8.13232 18.1902 8.33503C18.1876 8.35319 18.1605 8.46874 18.1642 8.47781C18.1667 8.484 18.1729 8.48799 18.1772 8.4931C18.1541 8.58572 18.1063 8.67919 18.0656 8.76579C17.8654 9.19244 17.5984 9.60339 17.2526 9.92616C16.842 10.3093 16.3442 10.6055 15.767 10.5813C15.1632 10.5559 14.6446 10.2572 14.2444 9.81704C13.587 9.09417 13.3697 8.01429 13.4175 7.06268C13.4593 6.23071 13.6988 5.42029 14.1738 4.73243C14.2655 4.59965 14.3675 4.4496 14.4871 4.34115Z" fill="#F87537"/>
<path d="M11.5724 1.89751C11.598 1.90078 11.6218 1.90825 11.6466 1.91521C12.0829 2.03788 12.4348 2.29118 12.6566 2.69162C13.0918 3.4771 13.1079 4.56193 12.8581 5.40902C12.5291 6.52494 11.7469 7.64137 10.7077 8.19793C10.1542 8.49439 9.50376 8.6512 8.88888 8.46379C8.494 8.33658 8.18591 8.13282 7.95322 7.78363C7.47482 7.06567 7.34317 6.11321 7.51055 5.275C7.73198 4.16609 8.46624 3.10177 9.40226 2.47404C10.0456 2.04262 10.7847 1.74259 11.5724 1.89751Z" fill="#F87537"/>
<path d="M11.7827 9.65626C11.7858 9.65704 11.789 9.65775 11.7921 9.6586C13.102 10.0149 14.0659 11.0557 14.7102 12.2047C15.5843 13.7634 16.1663 16.3088 15.6677 18.0597C15.4601 18.7887 14.9273 19.3926 14.2723 19.7587C13.0732 20.4288 11.5724 20.5368 10.2352 20.3357C9.76319 20.2647 9.29973 20.1483 8.84084 20.0189C7.65348 19.6606 6.55966 19.1166 5.61477 18.308C5.19724 17.9507 4.80648 17.5363 4.5142 17.0691C4.03413 16.3017 3.78863 15.4602 3.99852 14.5591C4.08924 14.1696 4.2379 13.7853 4.44787 13.4445C4.61255 13.1772 4.8179 12.9092 5.03213 12.6798C5.14435 12.5596 5.26529 12.4476 5.37822 12.328C5.55135 12.1447 5.71691 11.9544 5.89406 11.7748C6.35265 11.3097 6.87707 10.8662 7.43332 10.5222C8.42913 9.90634 9.64956 9.43148 10.8394 9.49768C11.159 9.51544 11.4722 9.58243 11.7827 9.65626Z" fill="#F87537"/>
<path d="M10.8727 12.9672C10.9639 12.9085 11.0569 12.8512 11.1528 12.8005C11.597 12.5659 12.127 12.4947 12.6106 12.6464C13.0753 12.7922 13.4759 13.1494 13.6979 13.5809C13.9386 14.0486 13.9616 14.5889 13.8003 15.0835C13.3986 16.3158 11.892 17.1743 10.8001 17.7301C10.2607 18.0107 9.69382 18.2071 9.11801 18.3952L8.86253 18.0165C8.04903 16.7872 6.91449 14.7196 7.23192 13.1934C7.33815 12.6826 7.62489 12.2058 8.06794 11.9205C8.51878 11.6303 9.03 11.5527 9.5498 11.6667C9.66964 11.687 9.79605 11.7423 9.90425 11.796C10.3885 12.0366 10.7043 12.4614 10.8727 12.9672Z" fill="#FAEDDE"/>
</svg>
