<?xml version="1.0" encoding="UTF-8" standalone="no"?>
<!-- Generator: Adobe Illustrator 18.0.0, SVG Export Plug-In . SVG Version: 6.00 Build 0)  -->

<svg
   version="1.1"
   id="Livello_1"
   x="0px"
   y="0px"
   viewBox="0 0 1681 961"
   enable-background="new 0 0 41 31"
   xml:space="preserve"
   width="1681"
   height="961"
   xmlns="http://www.w3.org/2000/svg"
   xmlns:svg="http://www.w3.org/2000/svg"><defs
   id="defs11" />
<g
   id="g11"
   style="fill:#ffffff">
	<g
   id="g5"
   style="fill:#ffffff">
		<path
   fill="#29ABE2"
   d="M 11.2,19 C 10.9,17.3 8.5,16.4 6,17.2 4.1,17.8 1.5,20 2,21.7 c 0.3,0.9 2.7,2.6 5.2,1.8 2.6,-0.8 4.4,-2.8 4,-4.5 z"
   id="path1"
   style="fill:#ffffff" />
		<path
   fill="#29ABE2"
   d="m 17.5,24.4 c -0.7,-1.2 -2.7,-1.1 -4.6,-0.1 -1.3,0.7 -2.8,3.2 -2.1,4.4 0.5,0.8 2.8,1.2 4.6,0 1.8,-1.1 2.8,-3.1 2.1,-4.3 z"
   id="path2"
   style="fill:#ffffff" />
		<path
   fill="#29ABE2"
   d="m 16,21 c 1.2,0.4 2.3,1.2 2.9,2.4 0.7,1.2 1.2,2.6 3.7,2.7 3,0.1 5.7,-2.6 5.9,-5.6 0.1,-0.9 -0.1,-1.7 -0.4,-2.4 -0.3,-0.8 -0.4,-1.6 -0.4,-2.5 0.1,-0.9 0.3,-1.7 0.8,-2.5 0.4,-0.7 0.7,-1.6 0.7,-2.4 0.2,-3.1 -2,-5.7 -5,-5.4 -2.5,0.2 -3.3,1.6 -4.1,2.8 -0.8,1.2 -2,2 -3.3,2.5 -2.3,0.8 -3.9,2.9 -4.1,5.3 -0.2,2.3 1,4.4 3.3,5.1 z"
   id="path3"
   style="fill:#ffffff" />
		<path
   fill="#29ABE2"
   d="m 6.2,14.7 c 2.4,0.7 4.9,-0.3 5.5,-2 C 12.3,10.9 10.8,9 8.4,8.4 6,7.8 3.3,9.5 2.9,10.4 c -0.8,1.7 1.5,3.8 3.3,4.3 z"
   id="path4"
   style="fill:#ffffff" />
		<path
   fill="#29ABE2"
   d="m 14.1,7.2 c 1.8,1 3.8,1 4.7,-0.2 C 19.7,5.7 19,3.8 17.4,2.7 15.7,1.6 13.4,2.1 12.7,2.9 11.8,4.1 13,6.5 14.1,7.2 Z"
   id="path5"
   style="fill:#ffffff" />
	</g>
	<g
   id="g10"
   style="fill:#ffffff">
		<path
   fill="#29ABE2"
   d="m 34.8,26.9 c 0.5,0.2 0.6,0.9 0.2,1.6 -0.3,0.5 -1.1,1.1 -1.5,0.9 -0.3,-0.1 -0.6,-0.9 -0.2,-1.6 0.3,-0.7 1,-1.1 1.5,-0.9 z"
   id="path6"
   style="fill:#ffffff" />
		<path
   fill="#29ABE2"
   d="m 33.6,24.8 c 0.3,0.3 0.2,0.9 -0.3,1.3 -0.3,0.3 -1.1,0.6 -1.4,0.3 -0.2,-0.2 -0.2,-0.9 0.3,-1.3 0.5,-0.5 1.1,-0.6 1.4,-0.3 z"
   id="path7"
   style="fill:#ffffff" />
		<path
   fill="#29ABE2"
   d="m 34.5,25.4 c 0,-0.4 -0.2,-0.7 -0.5,-1 -0.3,-0.3 -0.7,-0.5 -0.5,-1.2 0.2,-0.9 1.1,-1.5 2,-1.4 0.3,0 0.5,0.1 0.7,0.3 0.2,0.1 0.4,0.2 0.7,0.3 0.3,0 0.5,0 0.8,-0.1 0.2,-0.1 0.5,-0.1 0.7,-0.1 0.9,0.1 1.5,0.9 1.3,1.8 -0.2,0.7 -0.7,0.8 -1.1,1 -0.4,0.2 -0.7,0.4 -0.9,0.8 -0.4,0.6 -1.1,1 -1.8,0.9 -0.8,-0.1 -1.3,-0.6 -1.4,-1.3 z"
   id="path8"
   style="fill:#ffffff" />
		<path
   fill="#29ABE2"
   d="m 35.7,28.6 c 0,-0.7 0.4,-1.4 0.9,-1.5 0.5,-0.1 1,0.5 1,1.2 0,0.7 -0.6,1.4 -0.9,1.5 -0.5,0.2 -0.9,-0.6 -1,-1.2 z"
   id="path9"
   style="fill:#ffffff" />
		<path
   fill="#29ABE2"
   d="m 38.4,26.8 c -0.2,-0.6 -0.1,-1.2 0.4,-1.3 0.4,-0.2 0.9,0.1 1.2,0.7 0.2,0.6 -0.1,1.2 -0.4,1.3 -0.5,0.2 -1.1,-0.3 -1.2,-0.7 z"
   id="path10"
   style="fill:#ffffff" />
	</g>
</g>
</svg>
