<svg width="118" height="59" viewBox="0 0 118 59" fill="none" xmlns="http://www.w3.org/2000/svg">
<path d="M83.9131 18.7831C80.5902 19.9673 76.4265 17.4902 74.8798 13.1581C73.7019 9.85802 74.4816 4.20933 77.8798 3.24429C79.7379 2.71675 85.2479 4.57879 86.9131 8.86935C88.5789 13.16 87.236 17.5989 83.9131 18.7831Z" fill="#F87537" fill-opacity="0.1"/>
<path d="M100.162 22.417C97.2942 22.5909 95.1826 19.6586 94.8147 15.9245C94.573 13.4749 96.9846 8.93805 99.8522 8.8015C101.829 8.70721 105.114 11.5342 105.199 15.2937C105.285 19.0535 103.029 22.2428 100.162 22.417Z" fill="#F87537" fill-opacity="0.1"/>
<path d="M92.702 23.5305C94.8056 24.9119 97.3881 25.5779 100.041 25.3514C102.878 25.1093 105.816 24.6726 108.763 27.9959C112.398 32.0971 110.836 38.4196 105.931 41.6567C104.549 42.5686 103.026 43.1544 101.477 43.4295C99.7984 43.727 98.2172 44.3496 96.8487 45.2421C95.4912 46.1487 94.3416 47.3284 93.4945 48.6969C92.7124 49.961 91.6199 51.1018 90.2379 52.0138C85.3326 55.2508 78.3415 54.5731 75.3074 50.0753C72.8485 46.431 74.2448 44.0061 75.4094 41.6075C76.4979 39.3644 76.6485 36.8948 75.91 34.6113C74.603 30.5689 76.4085 26.258 80.1895 23.7627C83.9707 21.2686 88.9757 21.0842 92.702 23.5305Z" fill="#F87537" fill-opacity="0.1"/>
<path d="M70.9728 15.7298C74.9049 18.4937 76.082 22.9346 73.7827 25.4448C71.4834 27.955 66.4983 27.6752 62.6475 24.8201C58.7968 21.9651 58.6898 16.5527 59.8376 15.1051C61.9371 12.4583 67.9781 13.6243 70.9728 15.7298Z" fill="#F87537" fill-opacity="0.1"/>
<path d="M67.2852 34.0097C70.9906 35.551 73.3045 38.3506 72.1883 40.7932C71.0737 43.2367 67.0692 44.1609 63.2458 42.858C59.4219 41.5545 57.6001 37.7668 58.3426 36.0746C59.4198 33.6178 64.8551 32.9989 67.2852 34.0097Z" fill="#F87537" fill-opacity="0.1"/>
<path d="M14.181 26.5179C12.5282 27.5663 9.79129 26.6725 8.20086 24.439C6.98957 22.7375 6.47427 19.4984 8.20582 18.5634C9.15265 18.0522 12.5364 18.4458 14.1859 20.6423C15.8357 22.8388 15.8337 25.4695 14.181 26.5179Z" fill="#F87537" fill-opacity="0.1"/>
<path d="M23.8476 26.6437C22.2785 27.0758 20.6087 25.6885 19.7758 23.6505C19.2292 22.3136 19.8103 19.5033 21.3855 19.092C22.4711 18.8084 24.7772 19.9999 25.4566 22.0852C26.1367 24.1704 25.4161 26.2115 23.8476 26.6437Z" fill="#F87537" fill-opacity="0.1"/>
<path d="M19.8773 28.1363C21.2819 28.6602 22.8332 28.7295 24.2738 28.2931C25.814 27.8266 27.3779 27.2398 29.5787 28.7475C32.2944 30.6081 32.487 34.3142 30.2976 36.6916C29.6807 37.3614 28.9305 37.8659 28.1134 38.2003C27.2281 38.5623 26.4516 39.094 25.839 39.7514C25.2349 40.4154 24.7926 41.2072 24.5506 42.0689C24.3273 42.8648 23.9103 43.6283 23.2934 44.298C21.104 46.6754 17.0939 47.1149 14.6467 44.963C12.6636 43.2194 13.034 41.7048 13.2797 40.2319C13.5092 38.8546 13.1779 37.4607 12.3823 36.2745C10.9743 34.1744 11.2556 31.5609 12.9432 29.7283C14.6311 27.8963 17.3894 27.2085 19.8773 28.1363Z" fill="#F87537" fill-opacity="0.1"/>
<path d="M6.45616 26.3289C9.11226 27.4096 10.5149 29.7469 9.65563 31.4146C8.79631 33.0823 5.97104 33.5091 3.34495 32.3681C0.718863 31.2271 -0.250799 28.2233 0.145485 27.2824C0.870452 25.5619 4.43316 25.5056 6.45616 26.3289Z" fill="#F87537" fill-opacity="0.1"/>
<path d="M7.47457 36.9474C9.79876 37.3732 11.559 38.6629 11.3477 40.1546C11.1374 41.6467 9.06105 42.6298 6.71119 42.3507C4.36097 42.0712 2.70878 40.1733 2.83808 39.1434C3.0253 37.6483 5.95029 36.6681 7.47457 36.9474Z" fill="#F87537" fill-opacity="0.1"/>
</svg>
