<svg width="67" height="65" viewBox="0 0 67 65" fill="none" xmlns="http://www.w3.org/2000/svg">
<path d="M21.8212 27.5301C24.464 25.0341 23.3929 20.0015 19.2197 16.491C16.0406 13.8172 9.47792 11.8197 7.04743 14.4906C5.71859 15.9511 5.56933 21.9298 9.64892 25.5297C13.7284 29.1301 19.1784 30.0261 21.8212 27.5301Z" fill="white"/>
<path d="M19.33 44.2683C20.6725 41.706 18.2748 38.3477 14.2907 36.2124C11.6772 34.8113 5.69025 34.8541 4.38925 37.4338C3.49237 39.2118 5.30296 43.6021 9.42873 45.4886C13.5543 47.3762 17.9876 46.8294 19.33 44.2683Z" fill="white"/>
<path d="M23.5501 37.9228C24.235 40.5278 23.9363 43.2306 22.6216 45.5696C21.2162 48.0701 19.5549 50.5706 22.0505 54.8871C25.1305 60.2136 32.7524 61.8134 38.3012 58.8449C39.8645 58.0084 41.1233 56.8853 42.0489 55.5885C43.0511 54.1832 44.374 53.0239 45.9104 52.1906C47.4579 51.3743 49.2242 50.8811 51.0781 50.7578C52.7904 50.6443 54.4908 50.1851 56.054 49.3486C61.6028 46.3802 63.6564 39.6046 59.8965 34.6423C56.8501 30.6211 53.6071 30.743 50.4862 30.6638C47.5677 30.5891 44.7748 29.5403 42.5444 27.7607C38.5957 24.6108 33.1018 24.2031 28.8246 26.4911C24.5487 28.7799 22.3376 33.3086 23.5501 37.9228Z" fill="white"/>
<path d="M23.6324 14.1244C25.1139 19.0812 29.5555 22.303 33.255 21.3891C36.9545 20.4752 38.6439 15.7416 37.0292 10.8159C35.4144 5.89025 29.4685 3.18847 27.4066 3.55119C23.6361 4.21502 22.5037 10.3489 23.6324 14.1244Z" fill="white"/>
<path d="M45.3351 19.5152C45.5546 23.6749 47.7243 27.156 50.8746 27.3011C54.0252 27.4481 56.6536 24.1981 56.7453 20.0442C56.8364 15.8896 53.376 12.3871 51.2059 12.2583C48.0556 12.0705 45.1912 16.7871 45.3351 19.5152Z" fill="white"/>
</svg>
