<svg width="109" height="110" viewBox="0 0 109 110" fill="none" xmlns="http://www.w3.org/2000/svg">
<path d="M48.1723 38.6825C53.1109 38.7465 56.8248 32.824 56.0733 25.4529C55.5003 19.8383 50.9867 11.6836 46.0899 11.9909C43.4125 12.1591 37.6131 17.8507 38.189 25.2204C38.7642 32.5906 43.2338 38.6184 48.1723 38.6825Z" fill="white"/>
<path d="M29.9097 52.6517C33.6424 51.4216 34.479 45.8779 32.6114 40.0273C31.3867 36.189 25.5055 30.5693 21.7968 31.8558C19.2405 32.7422 16.8552 38.7374 19.0963 44.4792C21.3361 50.2221 26.1783 53.8809 29.9097 52.6517Z" fill="white"/>
<path d="M40.0294 50.4563C38.2341 53.6453 35.3869 55.9996 31.8925 57.0383C28.1569 58.1487 24.1716 59.0172 22.5244 65.5881C20.4923 73.697 26.4153 82.4653 34.6356 84.8164C36.9516 85.4787 39.2418 85.5733 41.3711 85.1835C43.6777 84.7602 46.0646 84.8802 48.3514 85.5202C50.6331 86.1872 52.8226 87.3763 54.7478 89.0091C56.5257 90.5175 58.6187 91.6775 60.9348 92.3397C69.1551 94.6909 77.5657 90.0227 78.5901 81.6261C79.4208 74.8223 76.1417 71.8746 73.1719 68.8461C70.3954 66.0135 68.6625 62.3492 68.1694 58.504C67.2958 51.697 62.3216 46.104 55.9853 44.2914C49.6494 42.4809 43.2098 44.8081 40.0294 50.4563Z" fill="white"/>
<path d="M62.614 27.3162C59.3719 33.5529 60.6585 40.8961 65.1318 43.5029C69.6052 46.1096 75.7296 43.0893 78.8121 36.7569C81.8946 30.4246 78.6489 22.1662 76.2944 20.5702C71.9882 17.6523 65.083 22.5656 62.614 27.3162Z" fill="white"/>
<path d="M78.6926 53.0985C74.9732 57.3642 73.798 62.812 76.7342 65.9325C79.6689 69.0553 85.3063 68.3702 89.3238 64.4044C93.3415 60.4374 93.2776 53.7482 91.2823 51.5704C88.3866 48.4082 81.132 50.3009 78.6926 53.0985Z" fill="white"/>
</svg>
