<svg width="86" height="86" viewBox="0 0 86 86" fill="none" xmlns="http://www.w3.org/2000/svg">
<rect width="86" height="86" rx="43" fill="#FAEEE7"/>
<g clip-path="url(#clip0_126_202)">
<g clip-path="url(#clip1_126_202)">
<path d="M48.85 46.25C46.4667 41.9167 45.7278 40.8333 43 40.8333C40.2722 40.8333 39.2387 42.4692 36.8553 46.7852C34.8143 50.475 30.689 50.7827 29.6598 53.9157C29.4497 54.4898 29.3457 55.3825 29.35 56C29.35 58.548 31.0552 60.3333 33.25 60.3333C35.9778 60.3333 39.75 58.1667 43 58.1667C46.25 58.1667 50.0222 60.3333 52.75 60.3333C54.9448 60.3333 56.65 58.5502 56.65 56C56.65 55.3825 56.5438 54.4898 56.3337 53.9157C55.3045 50.7718 50.891 49.9398 48.85 46.25Z" stroke="#862B00" stroke-width="3" stroke-linecap="round" stroke-linejoin="round"/>
<path d="M60.7406 34.511C60.4623 34.3934 60.1631 34.3329 59.861 34.3333H59.8285C58.236 34.3593 56.4485 35.9583 55.5103 38.3763C54.3858 41.2688 54.9036 44.2263 56.676 44.989C56.9555 45.1082 57.2545 45.1667 57.5556 45.1667C59.1568 45.1667 60.9681 43.559 61.9128 41.1237C63.0308 38.2312 62.5021 35.2737 60.7406 34.511Z" stroke="#862B00" stroke-width="3" stroke-linecap="round" stroke-linejoin="round"/>
<path d="M37.527 36.5C37.6462 36.5 37.7632 36.5 37.8802 36.4762C39.9255 36.1988 41.2017 33.5598 40.7402 30.5785C40.3004 27.7683 38.4717 25.6667 36.5542 25.6667C36.435 25.6667 36.318 25.6667 36.201 25.6905C34.1557 25.9678 32.8795 28.6068 33.341 31.5882C33.783 34.3897 35.6117 36.5 37.5292 36.5H37.527Z" stroke="#862B00" stroke-width="3" stroke-linecap="round" stroke-linejoin="round"/>
<path d="M52.6547 31.5882C53.1184 28.6068 51.8422 25.9678 49.7947 25.6905C49.6784 25.6744 49.5611 25.6664 49.4437 25.6667C47.5262 25.6667 45.6997 27.7683 45.262 30.5785C44.7984 33.5598 46.0745 36.1988 48.122 36.4762C48.239 36.4913 48.356 36.5 48.473 36.5C50.3905 36.5 52.2214 34.3897 52.6547 31.5882Z" stroke="#862B00" stroke-width="3" stroke-linecap="round" stroke-linejoin="round"/>
<path d="M29.3283 44.989C31.0963 44.2263 31.612 41.2645 30.4897 38.3763C29.545 35.941 27.7358 34.3333 26.1368 34.3333C25.8335 34.3333 25.5367 34.3918 25.255 34.511C23.487 35.2737 22.9713 38.2355 24.0937 41.1237C25.0383 43.559 26.8475 45.1667 28.4465 45.1667C28.7498 45.1667 29.0467 45.1082 29.3283 44.989Z" stroke="#862B00" stroke-width="3" stroke-linecap="round" stroke-linejoin="round"/>
</g>
</g>
<defs>
<clipPath id="clip0_126_202">
<rect width="52" height="52" fill="white" transform="translate(17 17)"/>
</clipPath>
<clipPath id="clip1_126_202">
<rect width="52" height="52" fill="white" transform="translate(17 17)"/>
</clipPath>
</defs>
</svg>
