<?xml version="1.0" encoding="utf-8"?>
<!-- Generator: Adobe Illustrator 18.0.0, SVG Export Plug-In . SVG Version: 6.00 Build 0)  -->
<!DOCTYPE svg PUBLIC "-//W3C//DTD SVG 1.1//EN" "http://www.w3.org/Graphics/SVG/1.1/DTD/svg11.dtd">
<svg version="1.1" id="Livello_1" xmlns="http://www.w3.org/2000/svg" xmlns:xlink="http://www.w3.org/1999/xlink" x="0px" y="0px"
	 viewBox="0 0 1440 512" enable-background="new 0 0 1440 512" xml:space="preserve">
<path display="none" fill="#FAF9F8" d="M943.5,0H0v512h770.5C771.7,500.9,886.3,166,943.5,0z"/>
<g id="orme_giu">
	<path fill="#F87537" fill-opacity="0.1" d="M591.6,469.3c1.9,0.8,4.3-1,5.1-4c0.6-2.3,0.1-6.2-1.9-6.8c-1.1-0.3-4.2,1-5.1,4
		C588.8,465.5,589.7,468.5,591.6,469.3z"/>
	<path fill="#F87537" fill-opacity="0.1" d="M582.4,472c1.7,0.1,2.8-2,2.9-4.6c0.1-1.7-1.4-4.8-3-4.8c-1.1,0-3,2-2.9,4.6
		C579.4,469.8,580.7,471.9,582.4,472z"/>
	<path fill="#F87537" fill-opacity="0.1" d="M586.7,472.7c-1.2,1-2.7,1.5-4.2,1.4c-1.6-0.1-3.3-0.4-5,2c-2,2.9-1,7.2,1.9,9.4
		c0.8,0.6,1.7,1,2.6,1.2c1,0.2,1.9,0.6,2.7,1.2c0.8,0.6,1.5,1.4,2,2.3c0.5,0.9,1.1,1.6,1.9,2.2c2.9,2.2,6.9,1.6,8.5-1.6
		c1.3-2.5,0.5-4.2-0.2-5.8c-0.7-1.5-0.8-3.2-0.4-4.8c0.7-2.8-0.4-5.7-2.7-7.4C591.6,471,588.8,470.9,586.7,472.7z"/>
	<path fill="#F87537" fill-opacity="0.1" d="M599,466.9c-2.2,2-2.8,5-1.4,6.7c1.4,1.7,4.2,1.4,6.4-0.6c2.2-2,2.1-5.8,1.4-6.7
		C604.1,464.5,600.7,465.4,599,466.9z"/>
	<path fill="#F87537" fill-opacity="0.1" d="M601.5,479.5c-2.1,1.1-3.4,3.1-2.7,4.8c0.7,1.7,3,2.2,5.2,1.3c2.2-1,3.1-3.6,2.7-4.8
		C606,479.1,602.8,478.7,601.5,479.5z"/>
	<path fill="#F87537" fill-opacity="0.1" d="M539.5,503.7c2.7,1.1,6-1.4,7.1-5.6c0.9-3.2,0.1-8.6-2.7-9.5c-1.5-0.5-5.9,1.4-7.1,5.6
		C535.6,498.4,536.8,502.6,539.5,503.7z"/>
	<path fill="#F87537" fill-opacity="0.1" d="M526.5,507.5c2.3,0.1,3.9-2.8,4.1-6.4c0.1-2.4-1.9-6.7-4.2-6.8
		c-1.6-0.1-4.2,2.7-4.1,6.4C522.3,504.4,524.2,507.4,526.5,507.5z"/>
	<path fill="#F87537" fill-opacity="0.1" d="M532.5,508.5c-1.7,1.4-3.7,2.1-5.9,1.9c-2.3-0.2-4.7-0.5-6.9,2.7
		c-2.8,4-1.4,10.1,2.6,13.1c1.1,0.9,2.4,1.4,3.6,1.6c1.4,0.3,2.6,0.8,3.8,1.7c1.1,0.8,2.1,2,2.8,3.3c0.7,1.2,1.6,2.3,2.7,3.1
		c4,3,9.6,2.2,12-2.2c1.9-3.6,0.7-5.9-0.3-8.2c-0.9-2.1-1.1-4.5-0.6-6.7c1-3.9-0.6-8-3.7-10.4C539.5,506.1,535.4,506,532.5,508.5z"
		/>
	<path fill="#F87537" fill-opacity="0.1" d="M549.8,500.5c-3.1,2.7-3.9,7.1-2,9.4c1.9,2.4,5.9,2,8.9-0.8s3-8.1,2-9.4
		C557,497.2,552.2,498.4,549.8,500.5z"/>
</g>
<g id="orme_su">
	<path fill="#F87537" fill-opacity="0.1" d="M644.9,50.5c3.3,1.4,7.5-1.6,9-6.7c1.2-4,0.4-10.7-3-11.9c-1.9-0.6-7.4,1.6-9,6.7
		C640.3,43.8,641.6,49.1,644.9,50.5z"/>
	<path fill="#F87537" fill-opacity="0.1" d="M628.7,54.9c2.9,0.2,5-3.3,5.3-7.8c0.2-2.9-2.2-8.4-5-8.5c-2-0.1-5.3,3.3-5.3,7.8
		C623.6,50.9,625.8,54.7,628.7,54.9z"/>
	<path fill="#F87537" fill-opacity="0.1" d="M636.1,56.2c-2.1,1.7-4.7,2.5-7.3,2.2c-2.8-0.3-5.8-0.8-8.7,3.2
		c-3.6,4.9-2.1,12.5,2.8,16.4c1.4,1.1,2.9,1.8,4.5,2.1c1.7,0.4,3.3,1.1,4.6,2.2c1.4,1.1,2.5,2.5,3.4,4.1c0.8,1.5,1.9,2.9,3.3,4
		c4.9,3.9,11.9,3.1,14.9-2.3c2.5-4.4,1.1-7.3-0.1-10.2c-1.1-2.7-1.2-5.7-0.5-8.4c1.3-4.8-0.5-10-4.3-13
		C644.9,53.5,639.9,53.3,636.1,56.2z"/>
	<path fill="#F87537" fill-opacity="0.1" d="M657.9,46.9c-3.9,3.3-5.1,8.6-2.8,11.7c2.3,3,7.3,2.7,11.1-0.7c3.9-3.4,4-9.9,2.8-11.7
		C666.9,42.9,660.9,44.3,657.9,46.9z"/>
	<path fill="#F87537" fill-opacity="0.1" d="M661.6,68.8c-3.7,1.8-6,5.2-4.9,8.1c1.1,2.9,5.1,4,8.9,2.5c3.8-1.6,5.6-6.1,4.9-8.1
		C669.4,68.3,664,67.6,661.6,68.8z"/>
	<path fill="#F87537" fill-opacity="0.1" d="M714.7,59.8c1.7,1.3,4.4,0.2,6-2.5c1.2-2,1.7-5.9,0-7c-0.9-0.6-4.3-0.1-6,2.5
		C713,55.4,713,58.5,714.7,59.8z"/>
	<path fill="#F87537" fill-opacity="0.1" d="M705,60c1.6,0.5,3.2-1.1,4.1-3.6c0.5-1.6,0-5-1.6-5.5c-1.1-0.3-3.4,1.1-4.1,3.6
		C702.7,57,703.4,59.4,705,60z"/>
	<path fill="#F87537" fill-opacity="0.1" d="M709,61.7c-1.4,0.6-3,0.7-4.4,0.2c-1.5-0.6-3.1-1.3-5.3,0.5c-2.7,2.2-2.9,6.7-0.7,9.5
		c0.6,0.8,1.4,1.4,2.2,1.8c0.9,0.4,1.7,1.1,2.3,1.9c0.6,0.8,1,1.7,1.3,2.8c0.2,1,0.6,1.9,1.3,2.7c2.2,2.9,6.2,3.4,8.6,0.8
		c2-2.1,1.6-3.9,1.4-5.7c-0.2-1.7,0.1-3.3,0.9-4.7c1.4-2.5,1.1-5.7-0.6-7.9C714.2,61.5,711.5,60.6,709,61.7z"/>
	<path fill="#F87537" fill-opacity="0.1" d="M722.4,59.6c-2.7,1.3-4.1,4.1-3.2,6.1c0.9,2,3.7,2.5,6.3,1.1c2.6-1.4,3.6-5,3.2-6.1
		C728,58.7,724.4,58.6,722.4,59.6z"/>
	<path fill="#F87537" fill-opacity="0.1" d="M721.4,72.3c-2.3,0.5-4.1,2.1-3.9,3.8c0.2,1.8,2.3,3,4.6,2.6c2.3-0.3,4-2.6,3.9-3.8
		C725.8,73.2,722.9,72,721.4,72.3z"/>
</g>
</svg>
