<svg width="18" height="18" viewBox="0 0 18 18" fill="none" xmlns="http://www.w3.org/2000/svg">
<path d="M5.93716 11.6402C5.41121 11.6192 4.7802 11.7299 4.38355 12.0995C4.19186 12.2781 4.04956 12.5085 4.04081 12.776C4.02863 13.1488 4.25158 13.5172 4.50109 13.7783C4.81988 14.1117 5.36934 14.3978 5.82336 14.4999C5.84244 14.4929 5.83556 14.4926 5.85195 14.4949C5.8562 14.4955 5.86038 14.4967 5.86466 14.497C5.8836 14.4984 5.89409 14.4974 5.91206 14.5049C5.91748 14.5071 5.92285 14.5095 5.92824 14.5118C5.88407 14.4599 5.69634 14.404 5.62854 14.3753C5.28113 14.2287 5.02905 14.0619 4.77755 13.779C4.69832 13.6899 4.61862 13.5925 4.56316 13.4863C4.42625 13.2241 4.36269 12.9025 4.4525 12.6151C4.60587 12.1244 5.12832 11.8688 5.59014 11.7454C5.67549 11.7226 5.85632 11.7035 5.92159 11.666C5.93641 11.6575 5.93316 11.6556 5.93716 11.6402Z" fill="#F87537"/>
<path d="M10.857 2.47192C10.4535 2.22074 9.96243 2.0378 9.48509 2.01598C9.12477 1.99949 8.74015 2.04246 8.4634 2.2979C8.28031 2.46687 8.18884 2.69736 8.17874 2.94392C8.1566 3.48349 8.45834 4.0144 8.81368 4.40267C8.82193 4.3737 8.82088 4.36596 8.80691 4.33927C8.76357 4.25637 8.70598 4.18088 8.66279 4.09709C8.49571 3.77295 8.41843 3.39742 8.51236 3.03926C8.58068 2.77872 8.73945 2.56575 8.97273 2.43035C9.40914 2.17704 9.96803 2.23143 10.4362 2.35995C10.5177 2.38231 10.798 2.5005 10.857 2.47192Z" fill="#F87537"/>
<path d="M3.30041 6.97829C3.19132 6.97824 3.08291 6.99337 2.97524 7.00964C2.62637 7.0624 2.31368 7.16984 2.05925 7.42503C1.82295 7.66202 1.72854 7.975 1.73115 8.3043C1.73696 9.03811 2.15724 9.77539 2.67248 10.2772C3.0337 10.6291 3.3748 10.8464 3.84731 11.0275C3.84654 11.0226 3.84727 11.0173 3.84502 11.0129C3.84174 11.0065 3.7643 10.9662 3.75292 10.9589C3.62605 10.8778 3.49757 10.7976 3.37703 10.7072C3.34937 10.6862 3.32206 10.6648 3.29511 10.6429C3.26815 10.6211 3.24156 10.5988 3.21534 10.576C3.18913 10.5533 3.1633 10.5301 3.13784 10.5065C3.1124 10.4829 3.08735 10.4589 3.06269 10.4345C3.03805 10.41 3.01381 10.3852 2.98997 10.36C2.96615 10.3347 2.94275 10.3091 2.91976 10.2831C2.89678 10.2571 2.87423 10.2307 2.85212 10.204C2.83002 10.1772 2.80836 10.1501 2.78715 10.1227C2.76594 10.0952 2.7452 10.0674 2.72492 10.0392C2.70462 10.0111 2.6848 9.98256 2.66546 9.95375C2.64612 9.92493 2.62726 9.8958 2.60888 9.86635C2.59051 9.83692 2.57263 9.80719 2.55522 9.77716C2.53783 9.74712 2.52094 9.71681 2.50455 9.68621C2.48816 9.65563 2.47229 9.62477 2.45693 9.59365C2.44156 9.56254 2.42671 9.53117 2.41239 9.49956C2.39806 9.46795 2.38426 9.43612 2.37099 9.40405C2.16454 8.8929 2.06816 8.30069 2.29229 7.77936C2.42899 7.46144 2.68059 7.20822 3.00357 7.08228C3.09987 7.04473 3.20452 7.02933 3.29866 6.99176L3.30041 6.97829Z" fill="#F87537"/>
<path d="M10.8568 2.47175C10.7978 2.50034 10.5175 2.38215 10.436 2.35979C9.96785 2.23127 9.40896 2.17688 8.97255 2.43019C8.73926 2.56559 8.5805 2.77856 8.51218 3.0391C8.41825 3.39726 8.49553 3.77279 8.66261 4.09693C8.7058 4.18071 8.76339 4.25621 8.80673 4.3391C8.8207 4.36579 8.82175 4.37354 8.8135 4.4025C8.86292 4.4857 8.9604 4.56144 9.03407 4.62308C9.46017 4.97954 9.98993 5.2301 10.527 5.36571C10.9294 5.46728 11.4429 5.48422 11.8115 5.26326C12.0183 5.13922 12.1543 4.94335 12.2098 4.70984C12.3028 4.31848 12.139 3.87013 11.9338 3.54077C11.7038 3.17149 11.4185 2.86314 11.0649 2.60949C11.0008 2.56348 10.9277 2.50555 10.8568 2.47175Z" fill="#F87537"/>
<path d="M5.93709 11.6407C5.93309 11.6562 5.93634 11.6581 5.92152 11.6666C5.85626 11.704 5.67543 11.7231 5.59008 11.7459C5.12826 11.8693 4.60581 12.1249 4.45244 12.6157C4.36263 12.9031 4.42619 13.2247 4.56309 13.4869C4.61856 13.5931 4.69826 13.6905 4.77748 13.7796C5.02899 14.0625 5.28107 14.2293 5.62848 14.3759C5.69628 14.4045 5.88401 14.4604 5.92817 14.5124C5.92279 14.5101 5.91742 14.5077 5.912 14.5055C5.89403 14.498 5.88354 14.4989 5.8646 14.4976C5.86032 14.4972 5.85613 14.496 5.85189 14.4954C5.8355 14.4931 5.84238 14.4935 5.8233 14.5004C6.01869 14.5581 6.24849 14.5879 6.45142 14.5954C7.02411 14.6165 7.70408 14.5006 8.13417 14.0944C8.32339 13.9157 8.43975 13.688 8.44447 13.4256C8.45063 13.0815 8.25162 12.7303 8.01925 12.4888C7.494 11.9427 6.68753 11.6558 5.93709 11.6407Z" fill="#F87537"/>
<path d="M3.29999 6.97807L3.29824 6.99153C3.2041 7.0291 3.09945 7.0445 3.00315 7.08205C2.68017 7.20799 2.42857 7.46122 2.29187 7.77913C2.06775 8.30046 2.16412 8.89267 2.37056 9.40382C2.38384 9.43589 2.39764 9.46772 2.41197 9.49933C2.42629 9.53095 2.44114 9.56231 2.4565 9.59342C2.47186 9.62454 2.48774 9.6554 2.50413 9.68598C2.52052 9.71658 2.53741 9.74689 2.5548 9.77693C2.5722 9.80696 2.59009 9.83669 2.60846 9.86612C2.62684 9.89557 2.6457 9.9247 2.66504 9.95352C2.68438 9.98233 2.7042 10.0108 2.72449 10.039C2.74477 10.0671 2.76552 10.095 2.78673 10.1224C2.80793 10.1499 2.82959 10.177 2.8517 10.2038C2.87381 10.2305 2.89635 10.2569 2.91934 10.2829C2.94233 10.3089 2.96573 10.3345 2.98955 10.3598C3.01339 10.385 3.03763 10.4098 3.06227 10.4342C3.08693 10.4587 3.11197 10.4827 3.13742 10.5063C3.16288 10.5299 3.18871 10.553 3.21492 10.5758C3.24114 10.5985 3.26773 10.6208 3.29469 10.6427C3.32164 10.6646 3.34895 10.686 3.37661 10.7069C3.49715 10.7973 3.62563 10.8776 3.7525 10.9587C3.76388 10.966 3.84132 11.0063 3.8446 11.0127C3.84684 11.0171 3.84612 11.0224 3.84689 11.0273C3.90965 11.0588 3.98471 11.0769 4.05251 11.0958C4.3865 11.1886 4.74378 11.2367 5.08966 11.1985C5.5002 11.1532 5.90412 11.0175 6.16736 10.6839C6.44272 10.3349 6.5247 9.90244 6.47108 9.4681C6.383 8.7548 5.88476 8.11586 5.33099 7.68626C4.84686 7.31067 4.27992 7.05574 3.66848 6.99089C3.55045 6.97837 3.41782 6.96337 3.29999 6.97807Z" fill="#F87537"/>
<path d="M3.33414 4.18081C3.32371 4.19663 3.31645 4.21352 3.30845 4.23067C3.16767 4.53291 3.14026 4.85065 3.25729 5.16638C3.48685 5.78571 4.08428 6.31484 4.67658 6.58165C5.45684 6.93314 6.45468 7.03205 7.26341 6.71918C7.69416 6.55255 8.09348 6.2649 8.28374 5.83204C8.4021 5.55077 8.43615 5.28121 8.35292 4.98398C8.18178 4.37288 7.71358 3.84278 7.16573 3.53426C6.44096 3.12611 5.49519 3.02543 4.69623 3.24662C4.14713 3.39865 3.62539 3.66711 3.33414 4.18081Z" fill="#F87537"/>
<path d="M7.56196 8.01699C7.5609 8.01911 7.55977 8.02122 7.55875 8.02337C7.12948 8.9249 7.24798 9.96163 7.57999 10.8719C8.03043 12.1069 9.17136 13.652 10.3871 14.2133C10.8933 14.447 11.4857 14.4393 12.0039 14.2495C12.9527 13.9018 13.7325 13.1164 14.2614 12.274C14.4481 11.9767 14.6054 11.6623 14.7532 11.3443C15.1226 10.5101 15.3436 9.63911 15.3455 8.72435C15.3464 8.32013 15.3026 7.90342 15.1821 7.51638C14.9842 6.88067 14.6324 6.34023 14.0292 6.02529C13.7684 5.88915 13.4827 5.78785 13.1919 5.74157C12.9639 5.70527 12.7159 5.69133 12.4852 5.70086C12.3644 5.70585 12.2439 5.7196 12.1231 5.72526C11.9378 5.73396 11.7522 5.73505 11.5671 5.74775C11.0878 5.78062 10.5889 5.86049 10.1303 6.00586C9.30935 6.26611 8.45931 6.71925 7.92575 7.41476C7.78243 7.60156 7.66965 7.80837 7.56196 8.01699Z" fill="#F87537"/>
<path d="M9.84548 9.09822C9.76899 9.12096 9.69243 9.14534 9.61815 9.17459C9.27431 9.30991 8.9805 9.57142 8.83328 9.91395C8.69182 10.2431 8.69899 10.6378 8.83325 10.9685C8.97877 11.327 9.26913 11.5989 9.62238 11.7461C10.5024 12.1128 11.7037 11.684 12.5372 11.3414C12.9524 11.175 13.3338 10.9529 13.7148 10.7219L13.626 10.3978C13.3302 9.35458 12.7208 7.73037 11.7172 7.17571C11.3814 6.99007 10.9779 6.92139 10.6063 7.0318C10.2283 7.14415 9.93987 7.39211 9.75424 7.73673C9.7081 7.81332 9.67833 7.91033 9.65643 7.99645C9.55849 8.38194 9.64403 8.7618 9.84548 9.09822Z" fill="#FAEDDE"/>
</svg>
