<svg width="31" height="31" viewBox="0 0 31 31" fill="none" xmlns="http://www.w3.org/2000/svg">
<path d="M22.6073 15.0685C23.2055 14.3139 24.1114 13.5704 25.0972 13.4608C25.5736 13.4077 26.063 13.4851 26.4445 13.7919C26.9763 14.2196 27.2216 14.9683 27.2862 15.6257C27.3688 16.4657 27.1104 17.5691 26.7107 18.3208C26.6783 18.3389 26.686 18.329 26.6696 18.3544C26.6654 18.361 26.6621 18.3683 26.6574 18.3746C26.6367 18.4025 26.6229 18.4159 26.6118 18.4498C26.6085 18.46 26.6054 18.4703 26.6022 18.4805C26.5828 18.3573 26.729 18.0301 26.7702 17.902C26.981 17.2451 27.0502 16.6965 26.9576 16.0102C26.9285 15.794 26.8883 15.5673 26.8071 15.3637C26.6066 14.8611 26.2362 14.3894 25.7304 14.1713C24.8666 13.7989 23.889 14.2189 23.1671 14.7125C23.0337 14.8038 22.7915 15.0319 22.6617 15.0778C22.6322 15.0882 22.6335 15.0814 22.6073 15.0685Z" fill="#F87537"/>
<path d="M4.01915 10.9609C4.1518 10.1016 4.48359 9.2021 5.02252 8.5138C5.42932 7.99422 5.94757 7.51183 6.63199 7.43246C7.08476 7.37992 7.51363 7.52787 7.86775 7.80787C8.64277 8.42056 9.01956 9.47229 9.13453 10.4283C9.0845 10.4052 9.07501 10.3945 9.05463 10.3433C8.9913 10.1843 8.95524 10.0144 8.89049 9.85457C8.64 9.23623 8.21113 8.68121 7.6022 8.38443C7.15925 8.16853 6.67444 8.13485 6.2084 8.29706C5.33656 8.60049 4.74556 9.44077 4.3656 10.2436C4.29946 10.3833 4.12918 10.9131 4.01915 10.9609Z" fill="#F87537"/>
<path d="M19.2831 5.85066C19.4131 5.69924 19.5634 5.56687 19.7143 5.4369C20.2036 5.01577 20.7255 4.71005 21.3829 4.66135C21.9935 4.61611 22.5404 4.85834 22.9941 5.25462C24.0053 6.13772 24.5271 7.60002 24.6089 8.91331C24.6664 9.83403 24.5611 10.5664 24.2489 11.438C24.2431 11.4311 24.2348 11.4257 24.2314 11.4174C24.2264 11.4052 24.2629 11.2497 24.2663 11.2252C24.3051 10.9525 24.347 10.6785 24.3653 10.4035C24.3692 10.3401 24.372 10.2767 24.3738 10.2132C24.3757 10.1498 24.3764 10.0863 24.3761 10.0228C24.3758 9.9593 24.3745 9.89583 24.3721 9.83237C24.3697 9.76892 24.3662 9.70552 24.3618 9.64219C24.3573 9.57887 24.3517 9.51563 24.3451 9.45248C24.3385 9.38934 24.3309 9.32633 24.3222 9.26344C24.3136 9.20052 24.3038 9.13777 24.2931 9.0752C24.2823 9.01263 24.2705 8.95026 24.2577 8.88808C24.2449 8.8259 24.2311 8.76395 24.2162 8.70223C24.2013 8.64049 24.1854 8.57902 24.1685 8.51782C24.1516 8.45663 24.1336 8.39572 24.1147 8.33511C24.0958 8.27453 24.0758 8.21426 24.0549 8.1543C24.034 8.09436 24.0121 8.03478 23.9892 7.97555C23.9663 7.91634 23.9424 7.85752 23.9175 7.79909C23.8927 7.74067 23.8669 7.68268 23.8401 7.62511C23.8133 7.56754 23.7856 7.51043 23.757 7.45377C23.294 6.55781 22.5872 5.71791 21.5967 5.40721C20.9926 5.21776 20.3412 5.26488 19.7813 5.56281C19.6144 5.65166 19.4682 5.77849 19.3039 5.86429L19.2831 5.85066Z" fill="#F87537"/>
<path d="M4.01885 10.9609C4.12888 10.9131 4.29917 10.3832 4.3653 10.2435C4.74526 9.4407 5.33625 8.60042 6.2081 8.29699C6.67415 8.13478 7.15895 8.16846 7.6019 8.38436C8.21083 8.68114 8.6397 9.23616 8.89019 9.8545C8.95493 10.0143 8.991 10.1843 9.05433 10.3432C9.0747 10.3944 9.0842 10.4051 9.13423 10.4282C9.19071 10.596 9.17956 10.8216 9.17723 10.9973C9.16369 12.0135 8.87961 13.0473 8.42728 13.9542C8.08841 14.6336 7.49957 15.3663 6.75351 15.6141C6.33473 15.7532 5.90089 15.7082 5.51072 15.5068C4.85678 15.1692 4.4301 14.4073 4.2178 13.7298C3.97975 12.9703 3.89213 12.2068 3.9618 11.4138C3.97441 11.27 3.98119 11.0995 4.01885 10.9609Z" fill="#F87537"/>
<path d="M22.6074 15.0686C22.6336 15.0814 22.6323 15.0882 22.6618 15.0778C22.7916 15.0319 23.0338 14.8038 23.1672 14.7126C23.8891 14.219 24.8667 13.7989 25.7304 14.1713C26.2363 14.3894 26.6067 14.8611 26.8072 15.3637C26.8884 15.5673 26.9286 15.7941 26.9577 16.0102C27.0503 16.6965 26.9811 17.2451 26.7703 17.902C26.7291 18.0302 26.5828 18.3573 26.6023 18.4806C26.6055 18.4703 26.6086 18.4601 26.6119 18.4499C26.6229 18.416 26.6368 18.4026 26.6575 18.3747C26.6622 18.3684 26.6655 18.3611 26.6697 18.3545C26.6861 18.329 26.6783 18.339 26.7107 18.3208C26.5577 18.6606 26.3251 19.015 26.0935 19.3055C25.4398 20.1252 24.4683 20.9305 23.3918 21.0428C22.9182 21.0922 22.4635 20.9822 22.0938 20.6758C21.6091 20.2741 21.3592 19.5792 21.3011 18.9687C21.1699 17.5888 21.7334 16.1277 22.6074 15.0686Z" fill="#F87537"/>
<path d="M19.2832 5.85062L19.304 5.86425C19.4684 5.77844 19.6145 5.65161 19.7815 5.56277C20.3413 5.26484 20.9927 5.21772 21.5968 5.40717C22.5874 5.71787 23.2941 6.55776 23.7571 7.45372C23.7857 7.51038 23.8135 7.56749 23.8402 7.62506C23.867 7.68264 23.8928 7.74063 23.9177 7.79905C23.9425 7.85747 23.9664 7.91629 23.9893 7.97551C24.0122 8.03473 24.0341 8.09431 24.0551 8.15425C24.076 8.21421 24.0959 8.27448 24.1148 8.33507C24.1338 8.39568 24.1517 8.45658 24.1686 8.51778C24.1855 8.57898 24.2014 8.64045 24.2163 8.70219C24.2312 8.7639 24.245 8.82585 24.2579 8.88803C24.2707 8.95021 24.2825 9.01259 24.2932 9.07516C24.304 9.13773 24.3137 9.20048 24.3224 9.26339C24.331 9.32628 24.3387 9.38929 24.3453 9.45243C24.3518 9.51559 24.3574 9.57883 24.3619 9.64214C24.3664 9.70548 24.3698 9.76887 24.3722 9.83232C24.3746 9.89578 24.376 9.95925 24.3762 10.0227C24.3765 10.0862 24.3758 10.1497 24.374 10.2132C24.3722 10.2767 24.3693 10.3401 24.3654 10.4034C24.3471 10.6785 24.3052 10.9524 24.2665 11.2252C24.263 11.2496 24.2266 11.4051 24.2315 11.4173C24.2349 11.4257 24.2432 11.431 24.249 11.4379C24.2179 11.5626 24.1536 11.6883 24.0989 11.8049C23.8295 12.379 23.4701 12.932 23.0047 13.3664C22.4523 13.882 21.7823 14.2806 21.0056 14.248C20.193 14.2139 19.4952 13.8119 18.9566 13.2196C18.072 12.2468 17.7796 10.7936 17.8439 9.513C17.9001 8.39342 18.2224 7.30283 18.8616 6.37717C18.985 6.19848 19.1223 5.99657 19.2832 5.85062Z" fill="#F87537"/>
<path d="M15.3613 2.56222C15.3956 2.56661 15.4277 2.57668 15.4611 2.58604C16.0483 2.75111 16.5218 3.09198 16.8203 3.63085C17.4059 4.68788 17.4276 6.14774 17.0915 7.28768C16.6487 8.78937 15.596 10.2918 14.1976 11.0407C13.4527 11.4397 12.5775 11.6507 11.75 11.3985C11.2186 11.2273 10.804 10.9531 10.4909 10.4832C9.84712 9.51704 9.66995 8.23531 9.89519 7.10732C10.1932 5.61505 11.1813 4.18279 12.4409 3.33805C13.3066 2.75749 14.3012 2.35375 15.3613 2.56222Z" fill="#F87537"/>
<path d="M15.6424 13.0032C15.6466 13.0042 15.6509 13.0052 15.6551 13.0063C17.4178 13.4858 18.7149 14.8865 19.582 16.4326C20.7583 18.5303 21.5414 21.9556 20.8705 24.3118C20.5912 25.2928 19.8741 26.1055 18.9927 26.5981C17.379 27.4999 15.3594 27.6452 13.5599 27.3746C12.9248 27.2791 12.3011 27.1224 11.6835 26.9482C10.0857 26.466 8.61374 25.734 7.3422 24.6459C6.78034 24.1651 6.25448 23.6073 5.86116 22.9786C5.21512 21.946 4.88476 20.8135 5.1672 19.601C5.28929 19.0768 5.48934 18.5597 5.7719 18.1011C5.99351 17.7413 6.26984 17.3807 6.55813 17.072C6.70916 16.9103 6.87191 16.7595 7.02388 16.5986C7.25686 16.3519 7.47965 16.0958 7.71804 15.8541C8.33517 15.2283 9.04088 14.6314 9.78944 14.1684C11.1295 13.3397 12.7718 12.7007 14.3731 12.7898C14.8031 12.8137 15.2246 12.9038 15.6424 13.0032Z" fill="#F87537"/>
<path d="M14.4187 17.4587C14.5415 17.3797 14.6666 17.3026 14.7958 17.2344C15.3935 16.9187 16.1067 16.8229 16.7575 17.0271C17.3828 17.2233 17.9219 17.7039 18.2207 18.2846C18.5446 18.914 18.5756 19.641 18.3585 20.3067C17.8179 21.9649 15.7905 23.1203 14.3212 23.8683C13.5953 24.2459 12.8324 24.5101 12.0575 24.7633L11.7137 24.2536C10.619 22.5993 9.09222 19.817 9.5194 17.7632C9.66235 17.0758 10.0482 16.4341 10.6444 16.0503C11.2511 15.6597 11.9391 15.5552 12.6386 15.7086C12.7999 15.7359 12.97 15.8103 13.1156 15.8826C13.7672 16.2064 14.1922 16.7781 14.4187 17.4587Z" fill="#FAEDDE"/>
</svg>
