<?xml version="1.0" encoding="utf-8"?>
<!-- Generator: Adobe Illustrator 18.0.0, SVG Export Plug-In . SVG Version: 6.00 Build 0)  -->
<!DOCTYPE svg PUBLIC "-//W3C//DTD SVG 1.1//EN" "http://www.w3.org/Graphics/SVG/1.1/DTD/svg11.dtd">
<svg version="1.1" id="Livello_1" xmlns="http://www.w3.org/2000/svg" xmlns:xlink="http://www.w3.org/1999/xlink" x="0px" y="0px"
	 viewBox="0 0 418 638" enable-background="new 0 0 418 638" xml:space="preserve">
<g>
	<path fill="#F87537" fill-opacity="0.1" d="M324,28.1c1.7,3.2,6.8,3.5,11.3,0.4c3.4-2.4,7-8.1,5.1-11.2c-1.1-1.7-6.8-3.3-11.3-0.4
		C324.5,19.9,322.3,24.9,324,28.1z"/>
	<path fill="#F87537" fill-opacity="0.1" d="M308.6,21.4c2.1,2,6,0.5,9-2.8c2-2.1,3.5-7.9,1.4-9.8c-1.5-1.3-6.2-0.7-9,2.8
		C307.1,15,306.4,19.4,308.6,21.4z"/>
	<path fill="#F87537" fill-opacity="0.1" d="M313.6,27.1c-2.7,0-5.2-1-7.1-2.9c-2-2-4-4.2-8.8-3c-5.9,1.6-9.4,8.5-8,14.6
		c0.4,1.7,1.2,3.2,2.2,4.4c1.1,1.3,1.9,2.9,2.3,4.6c0.4,1.7,0.4,3.5,0,5.3c-0.3,1.7-0.3,3.4,0.1,5.1c1.4,6.1,7.4,9.8,13.1,7.5
		c4.6-1.9,5.4-5,6.2-8c0.8-2.8,2.6-5.2,4.8-6.9c4-3,5.9-8.1,4.8-12.8C322.1,30.4,318.3,27.1,313.6,27.1z"/>
	<path fill="#F87537" fill-opacity="0.1" d="M336.4,33.3c-5.1,0.1-9.4,3.6-9.5,7.4s4,6.6,9.2,6.4c5.1-0.3,9.3-5.3,9.5-7.4
		C345.9,35.9,340.3,33.2,336.4,33.3z"/>
	<path fill="#F87537" fill-opacity="0.1" d="M325.6,52.8c-4-0.9-8,0.3-8.9,3.3c-1,3,1.5,6.3,5.5,7.5c4,1.2,8.2-1.3,8.9-3.3
		C332,57.3,328.3,53.3,325.6,52.8z"/>
</g>
<g>
	<path fill="#F87537" fill-opacity="0.1" d="M403.7,77.8c1.7,1.3,4.4,0.2,6-2.5c1.2-2,1.7-5.9,0-7c-0.9-0.6-4.3-0.1-6,2.5
		C402,73.4,402,76.5,403.7,77.8z"/>
	<path fill="#F87537" fill-opacity="0.1" d="M394,78c1.6,0.5,3.2-1.1,4.1-3.6c0.5-1.6,0-5-1.6-5.5c-1.1-0.3-3.4,1.1-4.1,3.6
		C391.7,75,392.4,77.4,394,78z"/>
	<path fill="#F87537" fill-opacity="0.1" d="M398,79.7c-1.4,0.6-3,0.7-4.4,0.2c-1.5-0.6-3.1-1.3-5.3,0.5c-2.7,2.2-2.9,6.7-0.7,9.5
		c0.6,0.8,1.4,1.4,2.2,1.8c0.9,0.4,1.7,1.1,2.3,1.9c0.6,0.8,1,1.7,1.3,2.8c0.2,1,0.6,1.9,1.3,2.7c2.2,2.9,6.2,3.4,8.6,0.8
		c2-2.1,1.6-3.9,1.4-5.7c-0.2-1.7,0.1-3.3,0.9-4.7c1.4-2.5,1.1-5.7-0.6-7.9C403.2,79.5,400.5,78.6,398,79.7z"/>
	<path fill="#F87537" fill-opacity="0.1" d="M411.4,77.6c-2.7,1.3-4.1,4.1-3.2,6.1c0.9,2,3.7,2.5,6.3,1.1c2.6-1.4,3.6-5,3.2-6.1
		C417,76.7,413.4,76.6,411.4,77.6z"/>
	<path fill="#F87537" fill-opacity="0.1" d="M410.4,90.3c-2.3,0.5-4.1,2.1-3.9,3.8c0.2,1.8,2.3,3,4.6,2.6c2.4-0.3,4-2.6,3.9-3.8
		C414.8,91.2,411.9,90,410.4,90.3z"/>
</g>
<g>
	<path fill="#F87537" fill-opacity="0.1" d="M281.7,103.7c2.3,1.8,6.1,0.3,8.4-3.5c1.7-2.9,2.4-8.3,0-9.9c-1.3-0.9-6.1-0.2-8.4,3.5
		C279.4,97.5,279.4,101.9,281.7,103.7z"/>
	<path fill="#F87537" fill-opacity="0.1" d="M268.2,103.8c2.2,0.7,4.5-1.6,5.7-5c0.8-2.2,0-7-2.2-7.7c-1.5-0.5-4.8,1.5-5.7,5
		C265,99.7,266,103.1,268.2,103.8z"/>
	<path fill="#F87537" fill-opacity="0.1" d="M273.7,106.4c-2,0.9-4.1,1-6.2,0.2c-2.2-0.8-4.3-1.8-7.4,0.7c-3.8,3.1-4.1,9.3-1,13.3
		c0.9,1.1,1.9,2,3.1,2.5c1.2,0.6,2.3,1.5,3.2,2.6c0.8,1.1,1.5,2.4,1.8,3.9c0.3,1.3,0.9,2.6,1.8,3.7c3.1,4,8.7,4.8,12.1,1.1
		c2.8-2.9,2.3-5.5,1.9-7.9c-0.3-2.3,0.2-4.7,1.3-6.6c2-3.5,1.6-7.9-0.8-11C281,106,277.2,104.8,273.7,106.4z"/>
	<path fill="#F87537" fill-opacity="0.1" d="M292.5,103.4c-3.7,1.8-5.7,5.7-4.5,8.5c1.2,2.8,5.1,3.5,8.8,1.6
		c3.7-1.9,5.1-6.9,4.5-8.5C300.3,102.1,295.3,102,292.5,103.4z"/>
	<path fill="#F87537" fill-opacity="0.1" d="M291,121.2c-3.3,0.7-5.7,2.9-5.4,5.4c0.3,2.5,3.2,4.2,6.5,3.7c3.3-0.5,5.6-3.6,5.4-5.4
		C297.3,122.4,293.2,120.7,291,121.2z"/>
</g>
<g>
	<path fill="#F87537" fill-opacity="0.1" d="M33.9,589.5c3.3,1.4,7.5-1.6,9-6.7c1.2-4,0.4-10.7-3-11.9c-1.9-0.6-7.4,1.6-9,6.7
		C29.3,582.8,30.6,588.1,33.9,589.5z"/>
	<path fill="#F87537" fill-opacity="0.1" d="M17.7,593.9c2.9,0.2,5-3.3,5.3-7.8c0.2-2.9-2.2-8.4-5-8.5c-2-0.1-5.3,3.3-5.3,7.8
		C12.6,589.9,14.8,593.7,17.7,593.9z"/>
	<path fill="#F87537" fill-opacity="0.1" d="M25.1,595.2c-2.1,1.7-4.7,2.5-7.3,2.2c-2.8-0.3-5.8-0.8-8.7,3.2
		c-3.6,4.9-2.1,12.5,2.8,16.4c1.4,1.1,2.9,1.8,4.5,2.1c1.7,0.4,3.3,1.1,4.6,2.2c1.4,1.1,2.5,2.5,3.4,4.1c0.8,1.5,1.9,2.9,3.3,4
		c4.9,3.9,11.9,3.1,14.9-2.3c2.5-4.4,1.1-7.3-0.1-10.2c-1.1-2.7-1.2-5.7-0.5-8.4c1.3-4.8-0.5-10-4.3-13
		C33.9,592.5,28.9,592.3,25.1,595.2z"/>
	<path fill="#F87537" fill-opacity="0.1" d="M46.9,585.9c-3.9,3.3-5.1,8.6-2.8,11.7c2.3,3,7.3,2.7,11.1-0.7s4-9.9,2.8-11.7
		C55.9,581.9,49.9,583.3,46.9,585.9z"/>
	<path fill="#F87537" fill-opacity="0.1" d="M50.6,607.8c-3.7,1.8-6,5.2-4.9,8.1c1.1,2.9,5.1,4,8.9,2.5c3.8-1.6,5.6-6.1,4.9-8.1
		C58.4,607.3,53,606.6,50.6,607.8z"/>
</g>
<g>
	<path fill="#F87537" fill-opacity="0.1" d="M103.7,598.8c1.7,1.3,4.4,0.2,6-2.5c1.2-2,1.7-5.9,0-7c-0.9-0.6-4.3-0.1-6,2.5
		C102,594.4,102,597.5,103.7,598.8z"/>
	<path fill="#F87537" fill-opacity="0.1" d="M94,599c1.6,0.5,3.2-1.1,4.1-3.6c0.5-1.6,0-5-1.6-5.5c-1.1-0.3-3.4,1.1-4.1,3.6
		C91.7,596,92.4,598.4,94,599z"/>
	<path fill="#F87537" fill-opacity="0.1" d="M98,600.7c-1.4,0.6-3,0.7-4.4,0.2c-1.5-0.6-3.1-1.3-5.3,0.5c-2.7,2.2-2.9,6.7-0.7,9.5
		c0.6,0.8,1.4,1.4,2.2,1.8c0.9,0.4,1.7,1.1,2.3,1.9c0.6,0.8,1,1.7,1.3,2.8c0.2,1,0.6,1.9,1.3,2.7c2.2,2.9,6.2,3.4,8.6,0.8
		c2-2.1,1.6-3.9,1.4-5.7c-0.2-1.7,0.1-3.3,0.9-4.7c1.4-2.5,1.1-5.7-0.6-7.9C103.2,600.5,100.5,599.6,98,600.7z"/>
	<path fill="#F87537" fill-opacity="0.1" d="M111.4,598.6c-2.7,1.3-4.1,4.1-3.2,6.1c0.9,2,3.7,2.5,6.3,1.1c2.6-1.4,3.6-5,3.2-6.1
		C117,597.7,113.4,597.6,111.4,598.6z"/>
	<path fill="#F87537" fill-opacity="0.1" d="M110.4,611.3c-2.3,0.5-4.1,2.1-3.9,3.8c0.2,1.8,2.3,3,4.6,2.6c2.3-0.3,4-2.6,3.9-3.8
		C114.8,612.2,111.9,611,110.4,611.3z"/>
</g>
</svg>
