<svg width="163" height="182" viewBox="0 0 163 182" fill="none" xmlns="http://www.w3.org/2000/svg">
<path d="M39.1138 97.2735C42.5409 96.1271 43.6787 91.1404 41.3825 86.2295C39.6331 82.4889 34.5491 77.9437 31.2404 79.3365C29.4313 80.0982 26.7972 85.4282 28.9717 90.3804C31.1458 95.3332 35.6867 98.4198 39.1138 97.2735Z" fill="#F87537" fill-opacity="0.1"/>
<path d="M29.8653 111.327C32.1474 109.577 31.3888 105.546 28.6882 101.954C26.9168 99.5981 21.4991 97.1337 19.2472 98.9165C17.695 100.145 17.4926 104.862 20.425 108.288C23.3568 111.715 27.5839 113.076 29.8653 111.327Z" fill="#F87537" fill-opacity="0.1"/>
<path d="M36.3279 107.368C35.8565 110.004 34.4572 112.317 32.2936 113.877C29.9806 115.545 27.4369 117.105 27.8831 122.042C28.4342 128.133 34.6398 132.763 40.8853 132.405C42.645 132.304 44.2498 131.818 45.6269 131.035C47.1182 130.186 48.7961 129.694 50.5301 129.585C52.2671 129.495 54.0663 129.789 55.79 130.453C57.3818 131.066 59.1074 131.363 60.867 131.262C67.1125 130.905 71.7973 125.652 70.4807 119.605C69.4143 114.704 66.4384 113.458 63.6567 112.082C61.0558 110.795 58.9752 108.681 57.7076 106.144C55.4631 101.652 50.6785 98.9873 45.8643 99.2628C41.0508 99.5395 37.1633 102.7 36.3279 107.368Z" fill="#F87537" fill-opacity="0.1"/>
<path d="M46.351 85.9389C45.6148 91.0289 48.2739 95.7916 51.9926 96.5139C55.7114 97.2363 59.2141 93.6733 59.8169 88.5557C60.4197 83.438 56.1866 78.5155 54.1753 77.9806C50.497 77.003 46.9114 82.0619 46.351 85.9389Z" fill="#F87537" fill-opacity="0.1"/>
<path d="M63.6726 99.8743C62.1315 103.718 62.633 107.765 65.4137 109.212C68.1939 110.662 71.9231 108.83 73.7424 105.122C75.5615 101.413 73.9047 96.807 72.0013 95.7835C69.2385 94.2971 64.6833 97.3536 63.6726 99.8743Z" fill="#F87537" fill-opacity="0.1"/>
<path d="M101.661 27.2328C103.182 25.8185 102.592 22.939 100.224 20.9153C98.4194 19.3739 94.6791 18.2041 93.279 19.7192C92.5135 20.5477 92.402 23.9624 94.7167 26.0367C97.0314 28.1114 100.141 28.6471 101.661 27.2328Z" fill="#F87537" fill-opacity="0.1"/>
<path d="M100.162 36.7837C100.941 35.3259 99.5856 33.3969 97.319 32.1597C95.8322 31.3478 92.4119 31.346 91.6574 32.814C91.1372 33.8258 92.1523 36.3417 94.5009 37.4374C96.8494 38.5338 99.3844 38.2409 100.162 36.7837Z" fill="#F87537" fill-opacity="0.1"/>
<path d="M102.604 33.1764C102.984 34.6676 102.801 36.2103 102.04 37.5407C101.226 38.9629 100.266 40.3841 101.673 42.8608C103.409 45.9171 107.756 46.8644 110.939 45.193C111.835 44.722 112.559 44.0859 113.094 43.3491C113.673 42.5508 114.433 41.8943 115.315 41.425C116.202 40.9655 117.213 40.6915 118.273 40.6292C119.252 40.5718 120.225 40.3169 121.122 39.846C124.304 38.1745 125.507 34.3129 123.381 31.4617C121.659 29.1512 119.805 29.2066 118.023 29.1477C116.356 29.0923 114.765 28.4809 113.499 27.4545C111.257 25.6378 108.12 25.3808 105.667 26.6691C103.214 27.9579 101.931 30.5352 102.604 33.1764Z" fill="#F87537" fill-opacity="0.1"/>
<path d="M102.754 19.5822C103.578 22.4203 106.101 24.2802 108.219 23.7743C110.336 23.2685 111.322 20.5718 110.421 17.7509C109.52 14.93 106.136 13.3605 104.956 13.5587C102.799 13.9214 102.125 17.4205 102.754 19.5822Z" fill="#F87537" fill-opacity="0.1"/>
<path d="M115.129 22.7563C115.236 25.1336 116.46 27.1317 118.259 27.2284C120.058 27.3261 121.574 25.4811 121.645 23.1086C121.715 20.7356 119.754 18.7196 118.514 18.6365C116.716 18.5154 115.059 21.1973 115.129 22.7563Z" fill="#F87537" fill-opacity="0.1"/>
<path d="M106.362 151.832C108.496 149.858 107.681 145.825 104.373 142.983C101.853 140.818 96.6216 139.167 94.6559 141.283C93.5812 142.439 93.4124 147.219 96.645 150.132C99.8774 153.044 104.228 153.806 106.362 151.832Z" fill="#F87537" fill-opacity="0.1"/>
<path d="M104.229 165.196C105.324 163.158 103.434 160.453 100.266 158.713C98.1877 157.571 93.3998 157.555 92.3381 159.608C91.6062 161.022 93.0178 164.548 96.3014 166.09C99.5849 167.634 103.135 167.233 104.229 165.196Z" fill="#F87537" fill-opacity="0.1"/>
<path d="M107.66 160.156C108.186 162.245 107.925 164.404 106.854 166.263C105.709 168.251 104.36 170.237 106.32 173.709C108.739 177.994 114.821 179.336 119.283 177.008C120.54 176.353 121.555 175.465 122.306 174.435C123.119 173.32 124.187 172.404 125.422 171.75C126.667 171.11 128.083 170.73 129.567 170.647C130.937 170.571 132.3 170.217 133.557 169.561C138.019 167.234 139.717 161.832 136.752 157.833C134.349 154.592 131.754 154.663 129.259 154.574C126.926 154.49 124.702 153.628 122.933 152.187C119.801 149.635 115.411 149.264 111.972 151.058C108.534 152.853 106.728 156.456 107.66 160.156Z" fill="#F87537" fill-opacity="0.1"/>
<path d="M107.921 141.126C109.065 145.102 112.59 147.715 115.556 147.015C118.522 146.315 119.912 142.544 118.661 138.591C117.411 134.639 112.678 132.43 111.026 132.703C108.006 133.202 107.05 138.098 107.921 141.126Z" fill="#F87537" fill-opacity="0.1"/>
<path d="M125.233 145.616C125.375 148.944 127.081 151.746 129.599 151.888C132.117 152.031 134.246 149.454 134.353 146.133C134.461 142.812 131.722 139.982 129.988 139.861C127.47 139.685 125.141 143.433 125.233 145.616Z" fill="#F87537" fill-opacity="0.1"/>
</svg>
