<?xml version="1.0" encoding="UTF-8" standalone="no"?>
<svg
   width="193.69556"
   height="443.62585"
   viewBox="0 0 193.69556 443.62585"
   fill="none"
   version="1.1"
   id="svg51"
   sodipodi:docname="Frame 407.svg"
   xmlns:inkscape="http://www.inkscape.org/namespaces/inkscape"
   xmlns:sodipodi="http://sodipodi.sourceforge.net/DTD/sodipodi-0.dtd"
   xmlns="http://www.w3.org/2000/svg"
   xmlns:svg="http://www.w3.org/2000/svg">
  <sodipodi:namedview
     id="namedview53"
     pagecolor="#ffffff"
     bordercolor="#111111"
     borderopacity="1"
     inkscape:showpageshadow="0"
     inkscape:pageopacity="0"
     inkscape:pagecheckerboard="1"
     inkscape:deskcolor="#d1d1d1"
     showgrid="false" />
  <g
     clip-path="url(#clip0_89_1937)"
     id="g40"
     transform="translate(-1210.0812,-27.786306)">
    <g
       id="g218"
       style="display:inline"
       inkscape:label="impronta1">
      <path
         d="m 1389.66,445.805 c 1.65,1.257 4.39,0.185 5.98,-2.494 1.21,-2.04 1.73,-5.925 -0.01,-7.047 -0.94,-0.613 -4.33,-0.141 -5.98,2.494 -1.65,2.634 -1.64,5.789 0.01,7.047 z"
         fill="#f87537"
         fill-opacity="0.1"
         id="path4"
         style="display:inline" />
      <path
         d="m 1379.99,445.955 c 1.57,0.519 3.24,-1.145 4.07,-3.59 0.55,-1.603 -0.03,-4.974 -1.61,-5.467 -1.08,-0.34 -3.39,1.089 -4.07,3.59 -0.68,2.501 0.04,4.949 1.61,5.467 z"
         fill="#f87537"
         fill-opacity="0.1"
         id="path6"
         style="display:inline" />
      <path
         d="m 1383.96,447.745 c -1.4,0.629 -2.95,0.712 -4.39,0.189 -1.54,-0.56 -3.11,-1.264 -5.31,0.545 -2.71,2.231 -2.91,6.676 -0.72,9.527 0.62,0.804 1.37,1.409 2.19,1.81 0.88,0.434 1.66,1.072 2.27,1.86 0.61,0.796 1.05,1.746 1.29,2.78 0.22,0.954 0.64,1.87 1.26,2.673 2.19,2.852 6.2,3.379 8.64,0.798 1.99,-2.091 1.62,-3.908 1.37,-5.675 -0.23,-1.651 0.1,-3.323 0.9,-4.746 1.41,-2.519 1.12,-5.653 -0.56,-7.851 -1.69,-2.197 -4.45,-3.022 -6.94,-1.91 z"
         fill="#f87537"
         fill-opacity="0.1"
         id="path8"
         style="display:inline" />
      <path
         d="m 1397.38,445.578 c -2.65,1.296 -4.05,4.099 -3.2,6.099 0.86,2.001 3.69,2.512 6.32,1.144 2.62,-1.368 3.59,-4.971 3.19,-6.1 -0.72,-2.063 -4.28,-2.131 -6.31,-1.143 z"
         fill="#f87537"
         fill-opacity="0.1"
         id="path10" />
      <path
         d="m 1396.37,458.313 c -2.33,0.511 -4.09,2.058 -3.88,3.847 0.21,1.789 2.29,2.968 4.64,2.634 2.35,-0.336 4,-2.612 3.87,-3.847 -0.19,-1.793 -3.11,-2.969 -4.63,-2.634 z"
         fill="#f87537"
         fill-opacity="0.1"
         id="path12" />
    </g>
    <g
       id="g236"
       inkscape:label="impronta4"
       style="display:inline">
      <path
         d="m 1328.68,470.672 c 2.31,1.767 6.15,0.276 8.38,-3.468 1.71,-2.852 2.44,-8.288 0.02,-9.865 -1.32,-0.861 -6.06,-0.213 -8.38,3.469 -2.32,3.681 -2.33,8.098 -0.02,9.864 z"
         fill="#f87537"
         fill-opacity="0.1"
         id="path14" />
      <path
         d="m 1315.15,470.847 c 2.2,0.732 4.54,-1.591 5.71,-5.01 0.78,-2.242 -0.03,-6.963 -2.23,-7.659 -1.52,-0.48 -4.75,1.511 -5.71,5.01 -0.96,3.498 0.04,6.928 2.23,7.659 z"
         fill="#f87537"
         fill-opacity="0.1"
         id="path16" />
    </g>
    <g
       id="g225"
       inkscape:label="impronta2"
       style="display:inline">
      <path
         d="m 1236.93,46.5276 c 3.32,1.4203 7.48,-1.5506 9.03,-6.7464 1.18,-3.9579 0.4,-10.7327 -3,-11.8902 -1.86,-0.6327 -7.37,1.6006 -9.03,6.7465 -1.67,5.1461 -0.33,10.4699 3,11.8901 z"
         fill="#f87537"
         fill-opacity="0.1"
         id="path18" />
      <path
         d="m 1220.68,50.8861 c 2.87,0.2086 4.98,-3.3083 5.35,-7.7868 0.24,-2.9379 -2.17,-8.3792 -5.04,-8.543 -1.98,-0.1131 -5.26,3.2774 -5.35,7.7865 -0.08,4.5093 2.17,8.3344 5.04,8.5433 z"
         fill="#f87537"
         fill-opacity="0.1"
         id="path20" />
      <path
         d="m 1228.14,52.2215 c -2.11,1.6567 -4.69,2.4556 -7.34,2.1839 -2.84,-0.2904 -5.78,-0.8141 -8.72,3.1717 -3.64,4.9189 -2.08,12.5017 2.83,16.3842 1.38,1.0937 2.9,1.7962 4.45,2.1262 1.68,0.3568 3.26,1.1035 4.63,2.174 1.36,1.0873 2.51,2.5022 3.36,4.1436 0.78,1.516 1.87,2.8843 3.25,3.978 4.91,3.8824 11.9,3.0696 14.93,-2.3248 2.46,-4.371 1.07,-7.2793 -0.1,-10.156 -1.09,-2.6903 -1.24,-5.6523 -0.5,-8.3909 1.31,-4.8483 -0.5,-10.0187 -4.28,-13.0115 -3.78,-2.9913 -8.79,-3.2125 -12.51,-0.2784 z"
         fill="#f87537"
         fill-opacity="0.1"
         id="path22" />
      <path
         d="m 1249.87,42.8656 c -3.94,3.3149 -5.11,8.6411 -2.81,11.6517 2.3,3.0107 7.28,2.6751 11.13,-0.7491 3.85,-3.4242 3.96,-9.9157 2.81,-11.6518 -2.1,-3.1745 -8.14,-1.7761 -11.13,0.7492 z"
         fill="#f87537"
         fill-opacity="0.1"
         id="path24" />
      <path
         d="m 1253.55,64.7898 c -3.7,1.8486 -6.01,5.2062 -4.9,8.1358 1.12,2.9307 5.12,4.039 8.94,2.4764 3.83,-1.5633 5.65,-6.1062 4.91,-8.1357 -1.08,-2.9466 -6.52,-3.6889 -8.95,-2.4765 z"
         fill="#f87537"
         fill-opacity="0.1"
         id="path26" />
    </g>
    <g
       id="g232"
       inkscape:label="impronta3"
       style="display:inline">
      <path
         d="m 1306.66,55.8046 c 1.65,1.2573 4.39,0.1854 5.98,-2.4934 1.21,-2.0406 1.73,-5.9255 -0.01,-7.047 -0.94,-0.6131 -4.33,-0.141 -5.98,2.4934 -1.65,2.6344 -1.64,5.7896 0.01,7.047 z"
         fill="#f87537"
         fill-opacity="0.1"
         id="path28" />
      <path
         d="m 1296.99,55.9553 c 1.57,0.5183 3.24,-1.1456 4.07,-3.5899 0.55,-1.6034 -0.03,-4.974 -1.61,-5.4672 -1.08,-0.3401 -3.39,1.0889 -4.07,3.5898 -0.68,2.501 0.04,4.949 1.61,5.4673 z"
         fill="#f87537"
         fill-opacity="0.1"
         id="path30" />
      <path
         d="m 1300.96,57.7455 c -1.4,0.6283 -2.95,0.7115 -4.39,0.1881 -1.54,-0.5595 -3.11,-1.2633 -5.31,0.5449 -2.71,2.2316 -2.91,6.6765 -0.72,9.5279 0.62,0.8033 1.37,1.4083 2.19,1.8094 0.88,0.4341 1.66,1.072 2.27,1.8604 0.61,0.7963 1.05,1.746 1.29,2.7795 0.22,0.9545 0.64,1.8702 1.26,2.6735 2.19,2.8514 6.2,3.3785 8.64,0.7975 1.99,-2.0912 1.62,-3.9077 1.37,-5.6742 -0.23,-1.6519 0.1,-3.3237 0.9,-4.7464 1.41,-2.5188 1.12,-5.6533 -0.56,-7.8513 -1.69,-2.1971 -4.45,-3.0221 -6.94,-1.9093 z"
         fill="#f87537"
         fill-opacity="0.1"
         id="path32" />
      <path
         d="m 1314.38,55.5778 c -2.65,1.2962 -4.05,4.0994 -3.2,6.0996 0.86,2.0002 3.69,2.512 6.32,1.1436 2.62,-1.3685 3.59,-4.9712 3.19,-6.0996 -0.72,-2.0635 -4.28,-2.1311 -6.31,-1.1436 z"
         fill="#f87537"
         fill-opacity="0.1"
         id="path34" />
      <path
         d="m 1313.37,68.3131 c -2.33,0.5107 -4.09,2.0576 -3.88,3.8467 0.21,1.7895 2.29,2.9686 4.64,2.6338 2.35,-0.3351 4,-2.6115 3.87,-3.8466 -0.19,-1.7931 -3.11,-2.9688 -4.63,-2.6339 z"
         fill="#f87537"
         fill-opacity="0.1"
         id="path36" />
    </g>
  </g>
  <defs
     id="defs49">
    <clipPath
       id="clip0_89_1937">
      <rect
         width="1440"
         height="469"
         fill="#ffffff"
         id="rect45"
         x="0"
         y="0" />
    </clipPath>
  </defs>
</svg>
