<svg width="40" height="52" viewBox="0 0 40 52" fill="none" xmlns="http://www.w3.org/2000/svg">
<path d="M15.8439 19.3676C14.8488 21.4957 12.0698 21.5505 9.71767 19.3211C7.92611 17.6228 6.08211 13.5821 7.1949 11.5681C7.80343 10.4669 10.9333 9.46065 13.3211 11.6145C15.7093 13.7682 16.839 17.2395 15.8439 19.3676Z" fill="#F87537"/>
<path d="M24.3553 15.1754C23.1683 16.4529 21.1106 15.3756 19.5054 13.0627C18.4522 11.5455 17.7519 7.57628 18.9531 6.32364C19.7809 5.46015 22.3111 5.99223 23.8024 8.43672C25.2943 10.8809 25.5416 13.8983 24.3553 15.1754Z" fill="#F87537"/>
<path d="M21.5243 18.9341C22.9786 18.9921 24.3656 18.3842 25.4383 17.159C26.5852 15.8493 27.7012 14.3702 30.2751 15.3668C33.4514 16.597 35.2138 21.3991 34.3208 25.5223C34.0692 26.6839 33.6298 27.6876 33.0588 28.4971C32.4399 29.3737 31.9892 30.4253 31.736 31.5687C31.493 32.7168 31.4466 33.9607 31.6055 35.2066C31.7524 36.3571 31.7159 37.5523 31.4643 38.7139C30.5712 42.8371 27.2518 45.2247 24.1852 43.4892C21.7002 42.0832 21.3729 39.9182 20.9544 37.8645C20.5627 35.9441 19.6733 34.2547 18.4671 33.0485C16.3319 30.913 15.454 27.3385 16.1422 24.1603C16.8311 20.9827 18.9485 18.8319 21.5243 18.9341Z" fill="#F87537"/>
<path d="M9.00411 22.6005C11.7928 22.8287 14.0253 25.2796 13.9907 27.867C13.9562 30.4543 11.6679 32.291 8.87956 31.9698C6.09122 31.6485 3.95088 28.1231 3.89292 26.7033C3.78722 24.1069 6.88005 22.4264 9.00411 22.6005Z" fill="#F87537"/>
<path d="M14.4629 36.1485C16.6796 35.6625 18.7743 36.5702 19.231 38.6334C19.6888 40.6964 18.295 42.9294 16.119 43.6205C13.9426 44.3114 11.6807 42.5525 11.3509 41.1357C10.8717 39.0791 13.0092 36.4673 14.4629 36.1485Z" fill="#F87537"/>
</svg>
