<svg width="20" height="20" viewBox="0 0 20 20" fill="none" xmlns="http://www.w3.org/2000/svg">
<path d="M8.76159 6.50772C9.01412 6.04588 9.19549 5.43146 9.04075 4.91186C8.966 4.66076 8.82281 4.43085 8.58716 4.30414C8.25857 4.12748 7.82945 4.16342 7.48472 4.2709C7.04429 4.40821 6.5438 4.77324 6.25054 5.13457C6.24829 5.15475 6.25165 5.14874 6.24232 5.16241C6.2399 5.16595 6.23695 5.16915 6.23476 5.17285C6.22512 5.1892 6.22133 5.19903 6.20662 5.2118C6.20219 5.21565 6.19768 5.2194 6.1932 5.22319C6.25939 5.20674 6.39293 5.06342 6.4487 5.01542C6.73449 4.7694 6.99592 4.61773 7.36113 4.51819C7.47617 4.48683 7.59887 4.45876 7.71866 4.45628C8.01438 4.45019 8.33071 4.53622 8.54824 4.74442C8.91964 5.09995 8.91637 5.68157 8.8216 6.1501C8.80408 6.23668 8.74083 6.40717 8.74536 6.48228C8.74639 6.49934 8.74955 6.49728 8.76159 6.50772Z" fill="white"/>
<path d="M14.787 14.9904C15.1914 14.7406 15.5735 14.382 15.8053 13.9641C15.9802 13.6487 16.1127 13.2851 16.0069 12.9236C15.9369 12.6845 15.7711 12.5001 15.5547 12.3814C15.0813 12.1218 14.4716 12.156 13.9658 12.3017C13.9881 12.322 13.9955 12.3245 14.0256 12.3239C14.1191 12.3219 14.2124 12.3039 14.3066 12.3024C14.6712 12.2969 15.042 12.3946 15.321 12.6379C15.5241 12.8149 15.6443 13.0518 15.6618 13.321C15.6947 13.8245 15.3976 14.3009 15.0744 14.6632C15.0181 14.7262 14.7876 14.9248 14.787 14.9904Z" fill="white"/>
<path d="M14.1097 6.21796C14.1583 6.12026 14.1929 6.01643 14.2262 5.91275C14.334 5.57678 14.3768 5.24894 14.2613 4.90759C14.154 4.59056 13.9157 4.36687 13.6195 4.22282C12.9596 3.90183 12.1124 3.95057 11.4338 4.18901C10.958 4.35618 10.6118 4.56514 10.2395 4.90789C10.2442 4.90935 10.2487 4.91238 10.2536 4.91231C10.2608 4.91223 10.3313 4.86078 10.3429 4.85382C10.4719 4.77623 10.6009 4.69681 10.7355 4.62902C10.7666 4.61356 10.7979 4.59862 10.8294 4.58419C10.861 4.56976 10.8928 4.55586 10.9248 4.54249C10.9569 4.52911 10.9891 4.51627 11.0215 4.50396C11.054 4.49166 11.0866 4.47989 11.1195 4.46867C11.1523 4.45745 11.1853 4.44677 11.2185 4.43663C11.2517 4.42651 11.2851 4.41694 11.3186 4.40791C11.3521 4.39888 11.3858 4.39041 11.4195 4.3825C11.4533 4.37459 11.4872 4.36724 11.5213 4.36045C11.5553 4.35366 11.5894 4.34744 11.6237 4.3418C11.6579 4.33614 11.6923 4.33105 11.7267 4.32653C11.7611 4.32201 11.7956 4.31807 11.8301 4.3147C11.8646 4.31132 11.8992 4.30852 11.9339 4.30628C11.9685 4.30405 12.0032 4.3024 12.0378 4.30132C12.0725 4.30023 12.1072 4.29973 12.1419 4.2998C12.1766 4.29987 12.2113 4.30051 12.246 4.30173C12.2807 4.30295 12.3154 4.30474 12.35 4.3071C12.8996 4.3494 13.4729 4.52632 13.8403 4.95883C14.0643 5.2226 14.1793 5.56053 14.1485 5.90583C14.1394 6.00879 14.1066 6.10938 14.0984 6.2104L14.1097 6.21796Z" fill="white"/>
<path d="M14.7879 14.9904C14.7885 14.9249 15.019 14.7263 15.0752 14.6633C15.3985 14.301 15.6956 13.8246 15.6627 13.321C15.6451 13.0519 15.5249 12.815 15.3219 12.638C15.0428 12.3946 14.6721 12.2969 14.3075 12.3025C14.2132 12.3039 14.12 12.322 14.0265 12.324C13.9964 12.3246 13.989 12.3221 13.9667 12.3018C13.8702 12.3091 13.759 12.3628 13.671 12.4014C13.1623 12.6246 12.7024 12.9878 12.3422 13.4086C12.0723 13.7239 11.8289 14.1763 11.863 14.6047C11.8821 14.8451 11.9972 15.0539 12.1817 15.2075C12.4909 15.4648 12.9653 15.5173 13.3516 15.4799C13.7846 15.438 14.1876 15.3196 14.572 15.1156C14.6417 15.0787 14.7261 15.0389 14.7879 14.9904Z" fill="white"/>
<path d="M8.76073 6.50742C8.74868 6.49698 8.74553 6.49904 8.74449 6.48199C8.73996 6.40688 8.80321 6.2364 8.82073 6.14981C8.9155 5.68128 8.91878 5.09966 8.54737 4.74414C8.32984 4.53594 8.01351 4.4499 7.71779 4.45599C7.598 4.45847 7.4753 4.48655 7.36026 4.5179C6.99505 4.61744 6.73362 4.76912 6.44783 5.01513C6.39206 5.06314 6.25852 5.20645 6.19233 5.22291C6.19681 5.21911 6.20132 5.21536 6.20575 5.21151C6.22046 5.19875 6.22425 5.18891 6.23389 5.17256C6.23608 5.16886 6.23903 5.16566 6.24145 5.16212C6.25078 5.14845 6.24741 5.15447 6.24967 5.13428C6.1112 5.2837 5.98232 5.47628 5.88541 5.65473C5.61195 6.15835 5.41344 6.81894 5.58613 7.38477C5.6621 7.63371 5.81434 7.83915 6.0473 7.96003C6.35278 8.1185 6.75582 8.09635 7.07549 7.99558C7.79811 7.7678 8.41366 7.17296 8.76073 6.50742Z" fill="white"/>
<path d="M14.1096 6.21805L14.0983 6.2105C14.1065 6.10948 14.1392 6.00889 14.1484 5.90593C14.1791 5.56063 14.0641 5.22269 13.8401 4.95893C13.4728 4.52642 12.8995 4.34949 12.3498 4.3072C12.3152 4.30484 12.2805 4.30305 12.2458 4.30183C12.2112 4.30061 12.1765 4.29997 12.1418 4.2999C12.1071 4.29982 12.0724 4.30033 12.0377 4.30142C12.003 4.3025 11.9683 4.30415 11.9337 4.30638C11.8991 4.30862 11.8645 4.31142 11.8299 4.3148C11.7954 4.31817 11.7609 4.32211 11.7265 4.32663C11.6921 4.33114 11.6578 4.33624 11.6235 4.34189C11.5893 4.34754 11.5551 4.35376 11.5211 4.36055C11.4871 4.36733 11.4532 4.37468 11.4194 4.3826C11.3856 4.3905 11.3519 4.39897 11.3184 4.408C11.2849 4.41704 11.2516 4.42661 11.2184 4.43673C11.1852 4.44687 11.1522 4.45755 11.1193 4.46877C11.0865 4.47999 11.0538 4.49175 11.0214 4.50405C10.9889 4.51637 10.9567 4.52921 10.9247 4.54258C10.8926 4.55596 10.8608 4.56986 10.8293 4.58429C10.7977 4.59872 10.7664 4.61366 10.7353 4.62912C10.6008 4.69691 10.4718 4.77633 10.3427 4.85391C10.3311 4.86088 10.2606 4.91233 10.2534 4.91241C10.2485 4.91248 10.244 4.90946 10.2393 4.90799C10.1832 4.9502 10.1336 5.00937 10.0866 5.06172C9.8549 5.31962 9.65302 5.61829 9.53347 5.94508C9.39156 6.33298 9.33357 6.75512 9.51539 7.13921C9.7056 7.54102 10.0565 7.80669 10.4695 7.95173C11.1475 8.18991 11.9414 8.02763 12.5724 7.72255C13.124 7.45583 13.6044 7.06132 13.9343 6.54244C13.998 6.44228 14.0704 6.33014 14.1096 6.21805Z" fill="white"/>
<path d="M16.6003 7.49214C16.5907 7.47576 16.5788 7.46175 16.567 7.44696C16.3589 7.1865 16.0864 7.02071 15.7516 6.98519C15.0947 6.91551 14.3552 7.21546 13.8529 7.62742C13.1912 8.1701 12.659 9.01997 12.5798 9.88349C12.5376 10.3434 12.6177 10.829 12.9209 11.1918C13.1203 11.4229 13.3466 11.5732 13.6498 11.6308C14.2733 11.7491 14.9563 11.5654 15.4762 11.2118C16.164 10.744 16.6746 9.94153 16.8316 9.12753C16.9395 8.56808 16.9309 7.98138 16.6003 7.49214Z" fill="white"/>
<path d="M11.2848 9.57423C11.2833 9.57233 11.2819 9.57038 11.2805 9.56852C10.6637 8.78324 9.68238 8.42853 8.71936 8.32128C7.41287 8.17579 5.52173 8.51099 4.47844 9.35049C4.04405 9.70004 3.78765 10.2341 3.72736 10.7827C3.61699 11.7871 3.97395 12.8347 4.49337 13.683C4.67671 13.9824 4.88842 14.263 5.1076 14.5368C5.69061 15.2385 6.3726 15.8237 7.19113 16.2321C7.55283 16.4125 7.9456 16.5585 8.34586 16.6226C9.00326 16.7279 9.64374 16.6531 10.194 16.2527C10.4319 16.0796 10.6496 15.8688 10.8203 15.6289C10.9542 15.4407 11.077 15.2248 11.1709 15.0139C11.2202 14.9034 11.2614 14.7894 11.3101 14.6786C11.3847 14.5088 11.4662 14.3421 11.5371 14.1706C11.7207 13.7267 11.8709 13.2443 11.9446 12.7689C12.0764 11.9178 12.0483 10.9549 11.6625 10.1678C11.5589 9.95638 11.4238 9.76343 11.2848 9.57423Z" fill="white"/>
<path d="M9.30143 11.1386C9.31505 11.0599 9.32725 10.9805 9.33406 10.901C9.3657 10.5328 9.26205 10.1534 9.02067 9.86928C8.78875 9.59626 8.43199 9.42723 8.07606 9.40047C7.69021 9.37145 7.3176 9.51069 7.02872 9.76169C6.30905 10.387 6.15915 11.6537 6.09553 12.5526C6.06001 12.9985 6.08942 13.4388 6.12701 13.8828L6.45678 13.9473C7.52272 14.1462 9.24853 14.3223 10.1915 13.6698C10.5071 13.4515 10.748 13.1206 10.8142 12.7387C10.8816 12.3501 10.7877 11.9815 10.5616 11.6621C10.5135 11.5867 10.4398 11.5169 10.3724 11.459C10.0706 11.1999 9.69233 11.1077 9.30143 11.1386Z" fill="#F87537"/>
</svg>
