<svg width="24" height="23" viewBox="0 0 24 23" fill="none" xmlns="http://www.w3.org/2000/svg">
<path d="M9.15966 14.1107C10.1508 14.5328 10.3705 16.0417 9.57144 17.4465C8.9627 18.5165 7.34395 19.7464 6.39382 19.2539C5.87433 18.9845 5.2182 17.3381 5.98204 15.9181C6.74578 14.498 8.16849 13.6887 9.15966 14.1107Z" fill="white"/>
<path d="M6.74388 9.71689C7.38046 10.2911 7.05926 11.471 6.17141 12.4741C5.58904 13.1322 3.92056 13.7358 3.29374 13.1525C2.86167 12.7505 2.91358 11.3441 3.86639 10.3956C4.81903 9.44683 6.10749 9.14304 6.74388 9.71689Z" fill="white"/>
<path d="M8.5704 11.0459C8.49295 10.2514 8.13208 9.53088 7.52621 9.01592C6.87851 8.46539 6.15969 7.94117 6.40958 6.48487C6.71807 4.68773 8.67212 3.4595 10.5196 3.71414C11.0401 3.78592 11.5054 3.96869 11.896 4.23398C12.319 4.52154 12.8059 4.70777 13.3186 4.78143C13.8327 4.84923 14.3743 4.80473 14.9023 4.64841C15.3899 4.50394 15.9097 4.45676 16.4302 4.52854C18.2776 4.78319 19.545 6.45533 19.0101 8.22113C18.5767 9.65201 17.6628 9.95152 16.8035 10.2944C16 10.6152 15.3315 11.1938 14.8946 11.9177C14.1208 13.1992 12.6357 13.8773 11.2117 13.6811C9.78789 13.4845 8.70774 12.4531 8.5704 11.0459Z" fill="white"/>
<path d="M11.0411 17.6512C10.9433 16.1212 11.8466 14.7691 12.9688 14.6428C14.091 14.5165 15.0473 15.6585 15.1048 17.1936C15.1624 18.7287 13.7875 20.0909 13.1771 20.202C12.0608 20.4052 11.1155 18.8167 11.0411 17.6512Z" fill="white"/>
<path d="M16.5179 13.9252C16.1512 12.7464 16.3964 11.5558 17.2571 11.1916C18.1177 10.8269 19.1824 11.46 19.6349 12.6051C20.0874 13.7505 19.4856 15.0798 18.8957 15.3387C18.0394 15.7147 16.7583 14.6982 16.5179 13.9252Z" fill="white"/>
</svg>
