<svg width="23" height="24" viewBox="0 0 23 24" fill="none" xmlns="http://www.w3.org/2000/svg">
<path d="M11.6568 7.89283C10.5765 8.36311 9.21262 7.40361 8.69703 5.71304C8.30442 4.42525 8.54384 2.21484 9.64919 1.8301C10.2536 1.61978 12.0548 2.33586 12.6089 4.00989C13.1632 5.68398 12.737 7.42256 11.6568 7.89283Z" fill="white"/>
<path d="M16.9641 9.27871C16.0295 9.35295 15.3334 8.21099 15.2037 6.75172C15.1185 5.79442 15.8929 4.01519 16.8274 3.95555C17.4715 3.91438 18.5499 5.01261 18.5874 6.48245C18.6252 7.95238 17.8983 9.20436 16.9641 9.27871Z" fill="white"/>
<path d="M14.5353 9.73006C15.2247 10.2656 16.0684 10.5204 16.9329 10.4261C17.857 10.3252 18.8138 10.1481 19.783 11.4411C20.979 13.0368 20.4862 15.5124 18.8955 16.7888C18.4473 17.1484 17.9524 17.3807 17.448 17.4917C16.9016 17.6117 16.3878 17.8586 15.9439 18.2105C15.5037 18.568 15.132 19.0318 14.8594 19.5687C14.6077 20.0647 14.2546 20.5131 13.8064 20.8727C12.2156 22.1492 9.93461 21.8994 8.9337 20.1473C8.12253 18.7277 8.57142 17.7765 8.94483 16.8361C9.29383 15.9566 9.33648 14.9906 9.08974 14.0994C8.6531 12.5216 9.23045 10.832 10.4566 9.84808C11.6828 8.86463 13.3141 8.78161 14.5353 9.73006Z" fill="white"/>
<path d="M7.42963 6.72816C8.71878 7.80034 9.11413 9.53421 8.37108 10.5207C7.62802 11.5073 6.00205 11.4087 4.73917 10.3007C3.47629 9.19278 3.42729 7.07668 3.79772 6.50817C4.47526 5.46864 6.44778 5.91141 7.42963 6.72816Z" fill="white"/>
<path d="M6.27532 13.8838C7.48738 14.4784 8.24907 15.568 7.89155 16.5256C7.53456 17.4834 6.23142 17.8535 4.98151 17.3524C3.73146 16.8511 3.12761 15.374 3.36528 14.7107C3.71004 13.7477 5.48041 13.4939 6.27532 13.8838Z" fill="white"/>
</svg>
