<svg width="17" height="17" viewBox="0 0 17 17" fill="none" xmlns="http://www.w3.org/2000/svg">
<path d="M4.16987 8.14677C3.84714 7.73095 3.3561 7.3195 2.81791 7.25408C2.55784 7.22245 2.28989 7.26202 2.07968 7.42754C1.78659 7.65836 1.64834 8.06619 1.60935 8.42518C1.55954 8.88382 1.69458 9.48839 1.9089 9.90145C1.9265 9.91157 1.92233 9.90609 1.93114 9.92009C1.93342 9.92373 1.93519 9.92771 1.9377 9.9312C1.94885 9.94656 1.95635 9.95396 1.96219 9.97254C1.96395 9.97814 1.96559 9.98377 1.96728 9.98939C1.9786 9.92213 1.90047 9.7425 1.8787 9.67221C1.76714 9.31199 1.73236 9.01176 1.7868 8.63716C1.80395 8.51916 1.82715 8.39545 1.87267 8.28462C1.98508 8.01103 2.19017 7.75529 2.46788 7.63889C2.94206 7.44018 3.47408 7.67523 3.86589 7.94906C3.9383 7.99967 4.06939 8.12569 4.14007 8.1515C4.15612 8.15736 4.15549 8.15365 4.16987 8.14677Z" fill="white"/>
<path d="M14.3522 6.00593C14.2845 5.5355 14.1082 5.042 13.8174 4.66278C13.598 4.37652 13.3174 4.10996 12.9438 4.06275C12.6966 4.03151 12.4614 4.10998 12.2662 4.26104C11.8392 4.59161 11.6274 5.16436 11.5592 5.68625C11.5867 5.6739 11.5919 5.66812 11.6034 5.64024C11.6389 5.55369 11.6595 5.46102 11.6958 5.37402C11.8362 5.03745 12.0737 4.73648 12.4082 4.57767C12.6515 4.46213 12.9167 4.44643 13.1705 4.53769C13.6453 4.70841 13.9637 5.17099 14.1668 5.61191C14.2022 5.68864 14.2923 5.9792 14.3522 6.00593Z" fill="white"/>
<path d="M6.03828 3.12721C5.96807 3.04372 5.88668 2.97053 5.80488 2.89865C5.53984 2.66573 5.25627 2.49572 4.89719 2.46543C4.5637 2.43729 4.26347 2.56664 4.01324 2.7807C3.45561 3.25774 3.16227 4.05409 3.11018 4.77146C3.07366 5.27438 3.12711 5.67527 3.29287 6.15339C3.29608 6.14966 3.30064 6.14678 3.30254 6.14224C3.30534 6.1356 3.2863 6.0504 3.28453 6.03702C3.26489 5.88771 3.24352 5.73775 3.23505 5.58731C3.23326 5.55266 3.23206 5.51798 3.23143 5.48328C3.23078 5.44858 3.23072 5.41387 3.23124 5.37917C3.23175 5.34447 3.23284 5.30979 3.2345 5.27511C3.23617 5.24045 3.23841 5.20582 3.24122 5.17122C3.24403 5.13664 3.24741 5.10211 3.25136 5.06763C3.25532 5.03315 3.25984 4.99875 3.26493 4.96443C3.27002 4.93009 3.27569 4.89584 3.28192 4.8617C3.28814 4.82757 3.29493 4.79354 3.30229 4.75962C3.30964 4.72571 3.31756 4.69193 3.32604 4.65827C3.33452 4.62461 3.34355 4.5911 3.35313 4.55775C3.36272 4.52439 3.37286 4.4912 3.38355 4.45818C3.39423 4.42517 3.40546 4.39234 3.41723 4.35969C3.429 4.32704 3.44131 4.2946 3.45417 4.26236C3.46701 4.23012 3.48039 4.1981 3.49431 4.1663C3.50821 4.13451 3.52264 4.10296 3.5376 4.07164C3.55256 4.04032 3.56802 4.00926 3.584 3.97845C3.84208 3.49133 4.23305 3.0362 4.77621 2.87191C5.10745 2.77173 5.46321 2.80112 5.76756 2.96709C5.85831 3.01659 5.93749 3.08673 6.02685 3.13454L6.03828 3.12721Z" fill="white"/>
<path d="M14.3522 6.00585C14.2923 5.97912 14.2022 5.68856 14.1669 5.61183C13.9637 5.17091 13.6453 4.70833 13.1705 4.53761C12.9167 4.44635 12.6515 4.46205 12.4082 4.57758C12.0737 4.7364 11.8362 5.03737 11.6958 5.37394C11.6595 5.46094 11.6389 5.55362 11.6034 5.64016C11.5919 5.66803 11.5867 5.67382 11.5592 5.68617C11.5274 5.77756 11.5322 5.90091 11.5325 5.99696C11.5343 6.5525 11.6838 7.11913 11.9259 7.61736C12.1074 7.99058 12.4251 8.39432 12.8315 8.53396C13.0596 8.61233 13.297 8.59017 13.5114 8.48225C13.8707 8.30139 14.1082 7.8873 14.228 7.51821C14.3624 7.10441 14.4145 6.68758 14.3809 6.25377C14.3748 6.17508 14.372 6.08186 14.3522 6.00585Z" fill="white"/>
<path d="M4.16958 8.14716C4.1552 8.15404 4.15583 8.15776 4.13978 8.1519C4.06911 8.12609 3.93801 8.00007 3.8656 7.94946C3.47379 7.67563 2.94178 7.44058 2.46759 7.63929C2.18989 7.75569 1.98479 8.01143 1.87239 8.28502C1.82687 8.39585 1.80366 8.51956 1.78652 8.63756C1.73208 9.01216 1.76686 9.3124 1.87841 9.67261C1.90018 9.74291 1.97832 9.92253 1.967 9.98979C1.96531 9.98417 1.96367 9.97854 1.96191 9.97294C1.95607 9.95436 1.94856 9.94696 1.93741 9.9316C1.9349 9.92811 1.93314 9.92413 1.93086 9.92049C1.92205 9.90649 1.92622 9.91198 1.90862 9.90185C1.99037 10.0884 2.11554 10.2835 2.24051 10.4435C2.59321 10.8952 3.11974 11.3408 3.70749 11.4082C3.96606 11.4378 4.21518 11.3802 4.41897 11.2148C4.68616 10.9979 4.82666 10.6195 4.86179 10.2862C4.94124 9.53271 4.64138 8.73094 4.16958 8.14716Z" fill="white"/>
<path d="M6.03814 3.12706L6.02672 3.13439C5.93736 3.08657 5.85818 3.01643 5.76743 2.96694C5.46307 2.80097 5.10732 2.77158 4.77608 2.87176C4.23292 3.03605 3.84195 3.49117 3.58387 3.9783C3.56789 4.00911 3.55243 4.04017 3.53747 4.07149C3.52251 4.10281 3.50808 4.13436 3.49417 4.16615C3.48025 4.19795 3.46688 4.22996 3.45404 4.2622C3.44119 4.29444 3.42887 4.32689 3.4171 4.35953C3.40533 4.39219 3.3941 4.42502 3.38342 4.45803C3.37273 4.49105 3.36259 4.52424 3.353 4.5576C3.34341 4.59095 3.33439 4.62446 3.32591 4.65812C3.31743 4.69177 3.30951 4.72556 3.30215 4.75947C3.2948 4.79339 3.28801 4.82741 3.28179 4.86155C3.27555 4.89569 3.26989 4.92993 3.2648 4.96427C3.25971 4.9986 3.25519 5.033 3.25122 5.06747C3.24728 5.10196 3.2439 5.13649 3.24108 5.17107C3.23827 5.20566 3.23603 5.24029 3.23436 5.27496C3.23271 5.30964 3.23162 5.34432 3.23111 5.37901C3.23059 5.41372 3.23065 5.44842 3.23129 5.48312C3.23193 5.51782 3.23313 5.5525 3.23491 5.58716C3.24338 5.7376 3.26475 5.88756 3.28439 6.03687C3.28617 6.05025 3.30521 6.13545 3.30241 6.14209C3.30051 6.14663 3.29596 6.14951 3.29273 6.15324C3.30905 6.22154 3.3435 6.29065 3.37275 6.35465C3.51681 6.66997 3.71013 6.97425 3.96209 7.21425C4.26116 7.49913 4.62511 7.72074 5.04985 7.70726C5.49417 7.69316 5.87781 7.47735 6.17555 7.1566C6.66449 6.62983 6.8324 5.83718 6.80441 5.13688C6.77993 4.52462 6.60984 3.92673 6.26566 3.41721C6.19923 3.31886 6.12528 3.20773 6.03814 3.12706Z" fill="white"/>
<path d="M8.20014 1.35167C8.18132 1.35387 8.16372 1.35919 8.14545 1.36413C7.82357 1.45107 7.56284 1.63474 7.39669 1.92761C7.07073 2.50209 7.05072 3.2999 7.22806 3.92484C7.46168 4.74811 8.02866 5.57517 8.78885 5.99235C9.19374 6.21456 9.67096 6.33478 10.1246 6.20156C10.416 6.11096 10.6442 5.9634 10.818 5.70831C11.1752 5.18382 11.2792 4.48424 11.1624 3.86645C11.0079 3.04914 10.4758 2.26078 9.79203 1.79202C9.32208 1.46987 8.78069 1.24364 8.20014 1.35167Z" fill="white"/>
<path d="M7.98809 7.05673C7.98578 7.05728 7.98344 7.05778 7.98115 7.05838C7.01501 7.3106 6.29822 8.06893 5.81566 8.9092C5.16098 10.0491 4.71383 11.917 5.06738 13.2086C5.21458 13.7464 5.60196 14.1945 6.081 14.4687C6.95794 14.9706 8.06102 15.0613 9.04608 14.9235C9.3938 14.8748 9.73557 14.7926 10.0741 14.7009C10.9501 14.4463 11.7587 14.0544 12.4598 13.4667C12.7696 13.2071 13.0601 12.9052 13.2786 12.5637C13.6375 12.0029 13.8244 11.3858 13.6768 10.7214C13.613 10.4342 13.5065 10.1505 13.3547 9.89823C13.2355 9.70037 13.0865 9.50171 12.9307 9.33139C12.849 9.24215 12.7609 9.15883 12.6787 9.07003C12.5528 8.9339 12.4324 8.79265 12.3035 8.6592C11.9697 8.31372 11.5873 7.98351 11.1807 7.72631C10.4529 7.26587 9.55878 6.90742 8.68309 6.94718C8.44788 6.95784 8.21704 7.00476 7.98809 7.05673Z" fill="white"/>
<path d="M8.63131 9.49955C8.56465 9.45569 8.49669 9.41283 8.42648 9.37484C8.10152 9.19895 7.71223 9.1426 7.35539 9.25058C7.01252 9.35431 6.71518 9.61401 6.54864 9.92971C6.36808 10.2719 6.3471 10.6692 6.462 11.0342C6.74823 11.9436 7.84993 12.5864 8.64887 13.0034C9.04352 13.2139 9.45902 13.3626 9.88113 13.5052L10.0719 13.2286C10.6795 12.3305 11.5295 10.8183 11.3075 9.69331C11.2332 9.31681 11.0259 8.96389 10.7021 8.75078C10.3727 8.53393 9.99728 8.47298 9.61409 8.55292C9.52579 8.56695 9.4324 8.60666 9.35241 8.64537C8.99444 8.81871 8.75894 9.12879 8.63131 9.49955Z" fill="#F87537"/>
</svg>
