<svg width="297" height="264" viewBox="0 0 297 264" fill="none" xmlns="http://www.w3.org/2000/svg">
<path d="M253.497 58.7605C256.341 63.3278 263.955 63.2542 270.274 58.2335C275.088 54.4086 279.915 45.4769 276.756 41.166C275.028 38.8091 266.4 36.8343 259.979 41.6931C253.557 46.5515 250.654 54.1931 253.497 58.7605Z" fill="#F87537"/>
<path d="M229.952 50.2186C233.273 52.9195 238.85 50.4292 243.119 45.2783C245.919 41.8996 247.618 33.2029 244.259 30.5572C241.944 28.7334 235.043 30.0685 231.093 35.4981C227.142 40.9271 226.632 47.5184 229.952 50.2186Z" fill="#F87537"/>
<path d="M237.914 58.2102C233.934 58.4375 230.102 57.2095 227.096 54.6147C223.882 51.8408 220.744 48.6958 213.749 51.0461C205.117 53.9472 200.555 64.5323 203.229 73.4536C203.983 75.9671 205.242 78.1233 206.85 79.8473C208.594 81.7142 209.886 83.974 210.643 86.4476C211.372 88.9323 211.568 91.6392 211.202 94.3646C210.863 96.8816 211.029 99.483 211.782 101.996C214.456 110.918 223.68 115.889 231.984 111.895C238.712 108.659 239.489 103.919 240.522 99.4153C241.489 95.2041 243.831 91.4614 247.068 88.7496C252.798 83.9485 255.006 76.0995 252.945 69.2227C250.882 62.3474 244.964 57.8084 237.914 58.2102Z" fill="#F87537"/>
<path d="M272.409 65.3283C264.783 66.0193 258.804 71.5144 259.042 77.1492C259.279 82.784 265.649 86.6266 273.268 85.7329C280.887 84.8392 286.555 77.0095 286.635 73.912C286.781 68.2477 278.217 64.8013 272.409 65.3283Z" fill="#F87537"/>
<path d="M258.206 95.2255C252.108 94.3206 246.421 96.4439 245.284 100.971C244.144 105.497 248.085 110.266 254.083 111.62C260.083 112.974 266.181 108.985 267.006 105.875C268.204 101.361 262.205 95.819 258.206 95.2255Z" fill="#F87537"/>
<path d="M23.7693 59.2388C26.6481 56.5198 25.4813 51.0379 20.9355 47.2139C17.4725 44.3013 10.3237 42.1255 7.67618 45.0348C6.22868 46.6258 6.06609 53.1384 10.51 57.0597C14.9538 60.9817 20.8905 61.9577 23.7693 59.2388Z" fill="#F87537"/>
<path d="M21.0523 77.4718C22.5147 74.6807 19.9028 71.0225 15.563 68.6965C12.7161 67.1702 6.19447 67.2168 4.7773 70.027C3.80033 71.9637 5.7726 76.7461 10.2668 78.801C14.7608 80.8572 19.59 80.2616 21.0523 77.4718Z" fill="#F87537"/>
<path d="M25.6527 70.5597C26.3987 73.3973 26.0734 76.3415 24.6413 78.8893C23.1104 81.6131 21.3007 84.3369 24.0191 89.0388C27.3742 94.841 35.6768 96.5837 41.7211 93.3501C43.4239 92.439 44.7952 91.2155 45.8035 89.8029C46.8951 88.2721 48.3362 87.0093 50.0098 86.1016C51.6955 85.2124 53.6195 84.6752 55.639 84.5409C57.5042 84.4172 59.3564 83.917 61.0592 83.0058C67.1035 79.7723 69.3405 72.3916 65.2448 66.9862C61.9264 62.6059 58.3938 62.7387 54.9942 62.6524C51.8151 62.571 48.7728 61.4285 46.3432 59.4901C42.0419 56.0589 36.0574 55.6147 31.3982 58.107C26.7404 60.6003 24.3319 65.5334 25.6527 70.5597Z" fill="#F87537"/>
<path d="M25.7412 44.636C27.3549 50.0355 32.1932 53.545 36.223 52.5494C40.2529 51.5539 42.0932 46.3976 40.3342 41.032C38.5752 35.6665 32.0985 32.7235 29.8524 33.1186C25.7451 33.8417 24.5117 40.5234 25.7412 44.636Z" fill="#F87537"/>
<path d="M49.3838 50.5081C49.6228 55.0393 51.9863 58.8313 55.4179 58.9893C58.8499 59.1494 61.713 55.6093 61.8129 51.0844C61.9121 46.5588 58.1426 42.7435 55.7787 42.6032C52.3471 42.3986 49.227 47.5364 49.3838 50.5081Z" fill="#F87537"/>
<path d="M101.577 249.706C102.969 251.021 102.405 253.672 100.207 255.521C98.5324 256.93 95.0755 257.982 93.7952 256.575C93.0953 255.806 93.0167 252.656 95.1656 250.76C97.3144 248.864 100.185 248.392 101.577 249.706Z" fill="#F87537"/>
<path d="M100.265 240.89C100.972 242.239 99.7088 244.008 97.6102 245.133C96.2335 245.871 93.0799 245.849 92.3946 244.49C91.9221 243.553 92.8759 241.24 95.0491 240.247C97.2223 239.252 99.5575 239.541 100.265 240.89Z" fill="#F87537"/>
<path d="M102.49 244.232C102.85 242.86 102.693 241.436 102.001 240.204C101.26 238.887 100.385 237.57 101.7 235.296C103.322 232.49 107.337 231.648 110.26 233.211C111.083 233.652 111.746 234.244 112.234 234.927C112.762 235.667 113.459 236.278 114.268 236.717C115.083 237.147 116.013 237.406 116.99 237.471C117.892 237.531 118.788 237.773 119.611 238.214C122.534 239.777 123.616 243.346 121.635 245.96C120.03 248.078 118.322 248.014 116.678 248.056C115.141 248.095 113.67 248.648 112.495 249.585C110.415 251.244 107.521 251.459 105.268 250.254C103.016 249.048 101.851 246.663 102.49 244.232Z" fill="#F87537"/>
<path d="M102.535 256.768C103.315 254.157 105.654 252.46 107.603 252.941C109.552 253.423 110.442 255.916 109.591 258.511C108.741 261.105 105.609 262.528 104.523 262.337C102.536 261.988 101.94 258.757 102.535 256.768Z" fill="#F87537"/>
<path d="M113.965 253.928C114.08 251.737 115.223 249.903 116.882 249.827C118.542 249.75 119.927 251.462 119.975 253.65C120.023 255.838 118.2 257.683 117.057 257.751C115.398 257.85 113.889 255.365 113.965 253.928Z" fill="#F87537"/>
<path d="M142.899 246.015C144.182 245.984 145.164 247.512 144.99 249.429C144.858 250.89 143.709 253.022 142.436 252.956C141.74 252.92 140.216 251.459 140.344 249.542C140.472 247.625 141.616 246.046 142.899 246.015Z" fill="#F87537"/>
<path d="M138.113 242.439C139.086 242.747 139.32 244.185 138.852 245.711C138.545 246.712 137.033 248.189 136.065 247.866C135.399 247.643 134.761 246.092 135.327 244.594C135.892 243.095 137.139 242.13 138.113 242.439Z" fill="#F87537"/>
<path d="M140.75 242.98C140.274 242.156 139.527 241.553 138.616 241.293C137.642 241.016 136.604 240.802 136.157 239.099C135.606 236.998 137.119 234.703 139.248 234.068C139.848 233.889 140.442 233.858 140.997 233.953C141.597 234.056 142.217 234.018 142.81 233.845C143.401 233.665 143.966 233.349 144.461 232.919C144.919 232.522 145.459 232.215 146.059 232.036C148.188 231.401 150.387 232.589 150.678 234.768C150.914 236.533 150.07 237.309 149.307 238.105C148.594 238.849 148.155 239.806 148.038 240.806C147.831 242.578 146.555 244.045 144.914 244.535C143.273 245.024 141.593 244.438 140.75 242.98Z" fill="#F87537"/>
<path d="M146.684 248.926C145.823 247.315 146.136 245.403 147.291 244.713C148.446 244.022 150.046 244.789 150.865 246.426C151.685 248.062 150.865 250.217 150.258 250.639C149.148 251.41 147.339 250.153 146.684 248.926Z" fill="#F87537"/>
<path d="M150.788 242.18C149.809 241.082 149.487 239.67 150.241 238.851C150.995 238.031 152.461 238.192 153.517 239.211C154.572 240.23 154.575 241.968 154.063 242.54C153.32 243.37 151.43 242.899 150.788 242.18Z" fill="#F87537"/>
<path d="M227.288 10.2013C226.222 9.48683 226.3 7.67202 227.548 6.20571C228.498 5.08887 230.666 4.0096 231.669 4.79736C232.217 5.22815 232.619 7.30102 231.409 8.79295C230.199 10.2851 228.354 10.9158 227.288 10.2013Z" fill="#F87537"/>
<path d="M229.136 15.8831C228.518 15.0695 229.157 13.76 230.419 12.7836C231.247 12.1429 233.334 11.8077 233.938 12.6298C234.354 13.1963 233.98 14.8308 232.654 15.7289C231.328 16.6274 229.753 16.6963 229.136 15.8831Z" fill="#F87537"/>
<path d="M227.295 13.9208C227.209 14.8678 227.471 15.7914 228.066 16.5288C228.701 17.3172 229.426 18.0907 228.809 19.7395C228.048 21.7741 225.488 22.7769 223.383 22.0678C222.79 21.8681 222.286 21.5506 221.888 21.1532C221.456 20.7226 220.928 20.3963 220.344 20.1961C219.758 20.0023 219.114 19.9339 218.461 19.9994C217.859 20.06 217.24 19.9996 216.647 19.7998C214.541 19.0908 213.43 16.8519 214.449 14.9043C215.274 13.326 216.41 13.1788 217.492 12.9687C218.504 12.772 219.415 12.2435 220.088 11.4935C221.278 10.1659 223.167 9.70262 224.79 10.2491C226.413 10.7959 227.447 12.2433 227.295 13.9208Z" fill="#F87537"/>
<path d="M225.872 5.63977C225.646 7.45223 224.288 8.8337 222.947 8.73186C221.605 8.63002 220.74 7.08074 221.014 5.27135C221.289 3.46196 223.201 2.17356 223.94 2.17925C225.291 2.18986 226.044 4.25927 225.872 5.63977Z" fill="#F87537"/>
<path d="M218.632 8.78604C218.799 10.2472 218.247 11.5861 217.159 11.8208C216.07 12.0562 214.965 11.0784 214.69 9.63754C214.416 8.19636 215.416 6.77455 216.164 6.60278C217.25 6.35315 218.523 7.82779 218.632 8.78604Z" fill="#F87537"/>
<path d="M33.4399 115.583C33.6352 116.74 32.3803 117.828 30.6223 117.921C29.2831 117.991 27.2039 117.229 27.0973 116.068C27.0391 115.434 28.1637 113.864 29.9149 113.731C31.6663 113.597 33.2446 114.426 33.4399 115.583Z" fill="#F87537"/>
<path d="M36.0504 110.785C35.8978 111.707 34.6268 112.105 33.185 111.88C32.2392 111.733 30.7051 110.557 30.8718 109.64C30.9866 109.007 32.3071 108.228 33.737 108.545C35.167 108.861 36.2027 109.864 36.0504 110.785Z" fill="#F87537"/>
<path d="M35.9059 113.242C36.5891 112.704 37.0379 111.949 37.1542 111.091C37.2786 110.173 37.337 109.206 38.8196 108.58C40.6492 107.806 42.924 108.877 43.776 110.721C44.016 111.241 44.1219 111.775 44.1081 112.289C44.0929 112.846 44.2082 113.402 44.4419 113.916C44.6817 114.427 45.0408 114.898 45.4945 115.29C45.9135 115.652 46.2622 116.101 46.5022 116.621C47.3543 118.465 46.5653 120.61 44.6313 121.157C43.0643 121.601 42.2525 120.938 41.4331 120.352C40.6667 119.803 39.7432 119.53 38.8224 119.555C37.1924 119.598 35.6977 118.634 35.0409 117.213C34.3846 115.791 34.6959 114.194 35.9059 113.242Z" fill="#F87537"/>
<path d="M31.2973 119.389C32.6432 118.4 34.4141 118.434 35.1894 119.389C35.9647 120.344 35.4791 121.893 34.1049 122.847C32.7308 123.802 30.6734 123.342 30.2128 122.847C29.3705 121.943 30.272 120.142 31.2973 119.389Z" fill="#F87537"/>
<path d="M37.9382 122.223C38.8039 121.194 40.04 120.719 40.8798 121.294C41.7201 121.869 41.765 123.218 40.9806 124.306C40.1958 125.394 38.623 125.623 38.0389 125.234C37.1908 124.67 37.3704 122.897 37.9382 122.223Z" fill="#F87537"/>
</svg>
