<svg width="117" height="34" viewBox="0 0 117 34" fill="none" xmlns="http://www.w3.org/2000/svg">
<path d="M4.73237 16.8438C4.40964 16.428 3.9186 16.0165 3.38041 15.9511C3.12034 15.9195 2.85239 15.959 2.64218 16.1246C2.34909 16.3554 2.21084 16.7632 2.17185 17.1222C2.12204 17.5808 2.25708 18.1854 2.4714 18.5985C2.489 18.6086 2.48483 18.6031 2.49364 18.6171C2.49592 18.6207 2.49769 18.6247 2.5002 18.6282C2.51135 18.6436 2.51885 18.651 2.52469 18.6696C2.52645 18.6752 2.52809 18.6808 2.52978 18.6864C2.5411 18.6192 2.46297 18.4395 2.4412 18.3692C2.32964 18.009 2.29486 17.7088 2.3493 17.3342C2.36645 17.2162 2.38965 17.0925 2.43517 16.9816C2.54758 16.708 2.75267 16.4523 3.03038 16.3359C3.50456 16.1372 4.03658 16.3722 4.42839 16.6461C4.5008 16.6967 4.63189 16.8227 4.70257 16.8485C4.71862 16.8544 4.71799 16.8507 4.73237 16.8438Z" fill="white"/>
<path d="M14.9167 14.7029C14.849 14.2325 14.6726 13.739 14.3819 13.3597C14.1625 13.0735 13.8819 12.8069 13.5082 12.7597C13.2611 12.7285 13.0258 12.8069 12.8307 12.958C12.4037 13.2886 12.1918 13.8613 12.1237 14.3832C12.1511 14.3709 12.1564 14.3651 12.1678 14.3372C12.2033 14.2507 12.224 14.158 12.2603 14.071C12.4006 13.7344 12.6381 13.4334 12.9726 13.2746C13.2159 13.1591 13.4811 13.1434 13.7349 13.2347C14.2098 13.4054 14.5281 13.868 14.7313 14.3089C14.7667 14.3856 14.8568 14.6762 14.9167 14.7029Z" fill="white"/>
<path d="M6.60078 11.8242C6.53057 11.7407 6.44918 11.6675 6.36738 11.5956C6.10234 11.3627 5.81877 11.1927 5.45969 11.1624C5.1262 11.1343 4.82597 11.2636 4.57574 11.4777C4.01811 11.9547 3.72477 12.7511 3.67268 13.4684C3.63616 13.9713 3.68961 14.3722 3.85537 14.8504C3.85858 14.8466 3.86314 14.8437 3.86504 14.8392C3.86784 14.8326 3.8488 14.7474 3.84703 14.734C3.82739 14.5847 3.80602 14.4347 3.79755 14.2843C3.79576 14.2496 3.79456 14.2149 3.79393 14.1802C3.79328 14.1455 3.79322 14.1108 3.79374 14.0761C3.79425 14.0414 3.79534 14.0067 3.797 13.9721C3.79867 13.9374 3.80091 13.9028 3.80372 13.8682C3.80653 13.8336 3.80991 13.7991 3.81386 13.7646C3.81782 13.7301 3.82234 13.6957 3.82743 13.6614C3.83252 13.627 3.83819 13.5928 3.84442 13.5587C3.85064 13.5245 3.85743 13.4905 3.86479 13.4566C3.87214 13.4227 3.88006 13.3889 3.88854 13.3552C3.89702 13.3216 3.90605 13.2881 3.91563 13.2547C3.92522 13.2214 3.93536 13.1882 3.94605 13.1551C3.95673 13.1221 3.96796 13.0893 3.97973 13.0566C3.9915 13.024 4.00381 12.9916 4.01667 12.9593C4.02951 12.9271 4.04289 12.8951 4.05681 12.8633C4.07071 12.8315 4.08514 12.7999 4.1001 12.7686C4.11506 12.7373 4.13052 12.7062 4.1465 12.6754C4.40458 12.1883 4.79555 11.7332 5.33871 11.5689C5.66995 11.4687 6.02571 11.4981 6.33006 11.6641C6.42081 11.7135 6.49999 11.7837 6.58935 11.8315L6.60078 11.8242Z" fill="white"/>
<path d="M14.9157 14.7028C14.8558 14.6761 14.7657 14.3855 14.7303 14.3088C14.5271 13.8679 14.2088 13.4053 13.734 13.2346C13.4801 13.1433 13.215 13.159 12.9716 13.2745C12.6372 13.4334 12.3997 13.7343 12.2593 14.0709C12.223 14.1579 12.2023 14.2506 12.1668 14.3371C12.1554 14.365 12.1502 14.3708 12.1227 14.3831C12.0909 14.4745 12.0957 14.5979 12.096 14.6939C12.0977 15.2495 12.2472 15.8161 12.4894 16.3143C12.6708 16.6875 12.9886 17.0913 13.395 17.2309C13.6231 17.3093 13.8605 17.2871 14.0749 17.1792C14.4342 16.9983 14.6717 16.5843 14.7915 16.2152C14.9258 15.8014 14.978 15.3845 14.9443 14.9507C14.9383 14.872 14.9355 14.7788 14.9157 14.7028Z" fill="white"/>
<path d="M4.73208 16.8441C4.7177 16.851 4.71833 16.8547 4.70228 16.8489C4.63161 16.8231 4.50051 16.697 4.4281 16.6464C4.03629 16.3726 3.50428 16.1375 3.03009 16.3363C2.75239 16.4527 2.54729 16.7084 2.43489 16.982C2.38937 17.0928 2.36616 17.2165 2.34902 17.3345C2.29458 17.7091 2.32936 18.0094 2.44091 18.3696C2.46268 18.4399 2.54082 18.6195 2.5295 18.6868C2.52781 18.6811 2.52617 18.6755 2.52441 18.6699C2.51857 18.6513 2.51106 18.6439 2.49991 18.6286C2.4974 18.6251 2.49564 18.6211 2.49336 18.6175C2.48455 18.6034 2.48872 18.6089 2.47112 18.5988C2.55287 18.7854 2.67804 18.9804 2.80301 19.1405C3.15571 19.5922 3.68224 20.0377 4.26999 20.1051C4.52856 20.1348 4.77768 20.0772 4.98147 19.9118C5.24866 19.6949 5.38916 19.3165 5.42429 18.9832C5.50374 18.2297 5.20388 17.4279 4.73208 16.8441Z" fill="white"/>
<path d="M6.60064 11.824L6.58922 11.8314C6.49986 11.7835 6.42068 11.7134 6.32993 11.6639C6.02557 11.4979 5.66982 11.4685 5.33858 11.5687C4.79542 11.733 4.40445 12.1881 4.14637 12.6753C4.13039 12.7061 4.11493 12.7371 4.09997 12.7684C4.08501 12.7998 4.07058 12.8313 4.05667 12.8631C4.04275 12.8949 4.02938 12.9269 4.01654 12.9592C4.00369 12.9914 3.99137 13.0238 3.9796 13.0565C3.96783 13.0892 3.9566 13.122 3.94592 13.155C3.93523 13.188 3.92509 13.2212 3.9155 13.2546C3.90591 13.2879 3.89689 13.3214 3.88841 13.3551C3.87993 13.3887 3.87201 13.4225 3.86465 13.4564C3.8573 13.4903 3.85051 13.5244 3.84429 13.5585C3.83805 13.5927 3.83239 13.6269 3.8273 13.6612C3.82221 13.6956 3.81769 13.73 3.81372 13.7644C3.80978 13.7989 3.8064 13.8335 3.80358 13.868C3.80077 13.9026 3.79853 13.9373 3.79686 13.9719C3.79521 14.0066 3.79412 14.0413 3.79361 14.076C3.79309 14.1107 3.79315 14.1454 3.79379 14.1801C3.79443 14.2148 3.79563 14.2495 3.79741 14.2841C3.80588 14.4346 3.82725 14.5845 3.84689 14.7338C3.84867 14.7472 3.86771 14.8324 3.86491 14.8391C3.86301 14.8436 3.85846 14.8465 3.85523 14.8502C3.87155 14.9185 3.906 14.9876 3.93525 15.0516C4.07931 15.3669 4.27263 15.6712 4.52459 15.9112C4.82366 16.1961 5.18761 16.4177 5.61235 16.4042C6.05667 16.3901 6.44031 16.1743 6.73805 15.8536C7.22699 15.3268 7.3949 14.5341 7.36691 13.8338C7.34243 13.2216 7.17234 12.6237 6.82816 12.1142C6.76173 12.0158 6.68778 11.9047 6.60064 11.824Z" fill="white"/>
<path d="M8.76166 10.0487C8.74284 10.0509 8.72525 10.0562 8.70697 10.0611C8.38509 10.1481 8.12437 10.3317 7.95821 10.6246C7.63226 11.1991 7.61224 11.9969 7.78958 12.6218C8.0232 13.4451 8.59018 14.2722 9.35037 14.6893C9.75526 14.9115 10.2325 15.0318 10.6862 14.8986C10.9776 14.8079 11.2057 14.6604 11.3795 14.4053C11.7368 13.8808 11.8407 13.1812 11.7239 12.5634C11.5694 11.7461 11.0373 10.9578 10.3535 10.489C9.88361 10.1669 9.34222 9.94063 8.76166 10.0487Z" fill="white"/>
<path d="M8.55059 15.7537C8.54828 15.7543 8.54594 15.7548 8.54365 15.7554C7.57751 16.0076 6.86072 16.766 6.37816 17.6062C5.72348 18.7462 5.27633 20.614 5.62988 21.9056C5.77708 22.4434 6.16446 22.8916 6.6435 23.1657C7.52044 23.6677 8.62352 23.7583 9.60858 23.6205C9.9563 23.5718 10.2981 23.4897 10.6366 23.3979C11.5126 23.1433 12.3212 22.7514 13.0223 22.1638C13.3321 21.9041 13.6226 21.6022 13.8411 21.2607C14.2 20.7 14.3869 20.0828 14.2393 19.4185C14.1755 19.1313 14.069 18.8475 13.9172 18.5953C13.798 18.3974 13.649 18.1987 13.4932 18.0284C13.4115 17.9392 13.3234 17.8558 13.2412 17.7671C13.1153 17.6309 12.9949 17.4897 12.866 17.3562C12.5322 17.0107 12.1498 16.6805 11.7432 16.4233C11.0154 15.9629 10.1213 15.6044 9.24559 15.6442C9.01038 15.6549 8.77954 15.7018 8.55059 15.7537Z" fill="white"/>
<path d="M9.19577 18.1965C9.1291 18.1526 9.06115 18.1098 8.99093 18.0718C8.66597 17.8959 8.27669 17.8396 7.91985 17.9475C7.57697 18.0513 7.27963 18.311 7.1131 18.6267C6.93254 18.9689 6.91155 19.3661 7.02646 19.7312C7.31268 20.6405 8.41439 21.2834 9.21332 21.7004C9.60797 21.9108 10.0235 22.0595 10.4456 22.2022L10.6363 21.9256C11.2439 21.0275 12.094 19.5152 11.872 18.3903C11.7977 18.0138 11.5903 17.6609 11.2666 17.4477C10.9372 17.2309 10.5617 17.1699 10.1785 17.2499C10.0902 17.2639 9.99685 17.3036 9.91686 17.3423C9.55889 17.5157 9.32339 17.8257 9.19577 18.1965Z" fill="#F87537"/>
<path d="M30.8856 13.2047C31.1381 12.7428 31.3195 12.1284 31.1648 11.6088C31.09 11.3577 30.9468 11.1278 30.7112 11.0011C30.3826 10.8244 29.9535 10.8604 29.6087 10.9679C29.1683 11.1052 28.6678 11.4702 28.3746 11.8315C28.3723 11.8517 28.3757 11.8457 28.3663 11.8594C28.3639 11.8629 28.361 11.8661 28.3588 11.8698C28.3491 11.8862 28.3454 11.896 28.3306 11.9088C28.3262 11.9126 28.3217 11.9164 28.3172 11.9202C28.3834 11.9037 28.517 11.7604 28.5727 11.7124C28.8585 11.4664 29.1199 11.3147 29.4852 11.2152C29.6002 11.1838 29.7229 11.1557 29.8427 11.1532C30.1384 11.1472 30.4547 11.2332 30.6723 11.4414C31.0437 11.7969 31.0404 12.3785 30.9456 12.8471C30.9281 12.9336 30.8649 13.1041 30.8694 13.1792C30.8704 13.1963 30.8736 13.1942 30.8856 13.2047Z" fill="white"/>
<path d="M36.91 21.6873C37.3144 21.4375 37.6966 21.079 37.9283 20.6611C38.1032 20.3456 38.2357 19.982 38.1299 19.6206C38.06 19.3814 37.8942 19.197 37.6778 19.0784C37.2043 18.8187 36.5946 18.853 36.0889 18.9987C36.1111 19.019 36.1185 19.0215 36.1487 19.0208C36.2422 19.0189 36.3354 19.0008 36.4296 18.9994C36.7943 18.9938 37.165 19.0915 37.4441 19.3349C37.6471 19.5119 37.7673 19.7488 37.7849 20.0179C37.8178 20.5214 37.5206 20.9979 37.1974 21.3601C37.1412 21.4232 36.9107 21.6218 36.91 21.6873Z" fill="white"/>
<path d="M36.2347 12.9149C36.2833 12.8172 36.3179 12.7134 36.3512 12.6097C36.459 12.2737 36.5018 11.9459 36.3863 11.6045C36.279 11.2875 36.0407 11.0638 35.7445 10.9198C35.0846 10.5988 34.2374 10.6475 33.5588 10.886C33.083 11.0531 32.7368 11.2621 32.3645 11.6049C32.3692 11.6063 32.3737 11.6093 32.3786 11.6093C32.3858 11.6092 32.4563 11.5577 32.4679 11.5508C32.5969 11.4732 32.7259 11.3938 32.8605 11.326C32.8916 11.3105 32.9229 11.2956 32.9544 11.2812C32.986 11.2667 33.0178 11.2528 33.0498 11.2394C33.0819 11.2261 33.1141 11.2132 33.1465 11.2009C33.179 11.1886 33.2116 11.1769 33.2445 11.1656C33.2773 11.1544 33.3103 11.1437 33.3435 11.1336C33.3767 11.1235 33.4101 11.1139 33.4436 11.1049C33.4771 11.0958 33.5108 11.0874 33.5445 11.0795C33.5783 11.0715 33.6122 11.0642 33.6463 11.0574C33.6803 11.0506 33.7144 11.0444 33.7487 11.0388C33.7829 11.0331 33.8173 11.028 33.8517 11.0235C33.8861 11.019 33.9206 11.015 33.9551 11.0117C33.9896 11.0083 34.0242 11.0055 34.0589 11.0032C34.0935 11.001 34.1282 10.9994 34.1628 10.9983C34.1975 10.9972 34.2322 10.9967 34.2669 10.9968C34.3016 10.9968 34.3363 10.9975 34.371 10.9987C34.4057 10.9999 34.4404 11.0017 34.475 11.0041C35.0246 11.0464 35.5979 11.2233 35.9653 11.6558C36.1893 11.9196 36.3043 12.2575 36.2735 12.6028C36.2644 12.7058 36.2316 12.8063 36.2234 12.9074L36.2347 12.9149Z" fill="white"/>
<path d="M36.9109 21.6874C36.9115 21.6218 37.142 21.4233 37.1983 21.3602C37.5215 20.998 37.8187 20.5215 37.7858 20.018C37.7682 19.7488 37.648 19.512 37.445 19.3349C37.1659 19.0916 36.7952 18.9939 36.4305 18.9995C36.3363 19.0009 36.243 19.0189 36.1495 19.0209C36.1194 19.0216 36.112 19.0191 36.0897 18.9988C35.9932 19.0061 35.8821 19.0597 35.7941 19.0983C35.2854 19.3216 34.8254 19.6847 34.4652 20.1056C34.1954 20.4208 33.9519 20.8733 33.986 21.3016C34.0052 21.5421 34.1202 21.7509 34.3047 21.9044C34.6139 22.1618 35.0884 22.2143 35.4746 22.1769C35.9076 22.135 36.3107 22.0165 36.695 21.8126C36.7648 21.7756 36.8491 21.7359 36.9109 21.6874Z" fill="white"/>
<path d="M30.8838 13.2044C30.8717 13.1939 30.8686 13.196 30.8675 13.179C30.863 13.1038 30.9263 12.9334 30.9438 12.8468C31.0385 12.3782 31.0418 11.7966 30.6704 11.4411C30.4529 11.2329 30.1366 11.1469 29.8408 11.153C29.721 11.1554 29.5984 11.1835 29.4833 11.2149C29.1181 11.3144 28.8567 11.4661 28.5709 11.7121C28.5151 11.7601 28.3816 11.9034 28.3154 11.9199C28.3199 11.9161 28.3244 11.9123 28.3288 11.9085C28.3435 11.8957 28.3473 11.8859 28.3569 11.8695C28.3591 11.8658 28.3621 11.8626 28.3645 11.8591C28.3738 11.8454 28.3705 11.8514 28.3727 11.8312C28.2343 11.9807 28.1054 12.1732 28.0085 12.3517C27.735 12.8553 27.5365 13.5159 27.7092 14.0817C27.7852 14.3307 27.9374 14.5361 28.1703 14.657C28.4758 14.8155 28.8789 14.7933 29.1985 14.6925C29.9212 14.4648 30.5367 13.8699 30.8838 13.2044Z" fill="white"/>
<path d="M36.2316 12.915L36.2204 12.9075C36.2285 12.8064 36.2613 12.7059 36.2704 12.6029C36.3012 12.2576 36.1862 11.9197 35.9622 11.6559C35.5948 11.2234 35.0215 11.0465 34.4719 11.0042C34.4373 11.0018 34.4026 11 34.3679 10.9988C34.3332 10.9976 34.2985 10.9969 34.2638 10.9969C34.2291 10.9968 34.1944 10.9973 34.1598 10.9984C34.1251 10.9995 34.0904 11.0011 34.0558 11.0033C34.0211 11.0056 33.9865 11.0084 33.952 11.0118C33.9175 11.0151 33.883 11.0191 33.8486 11.0236C33.8142 11.0281 33.7798 11.0332 33.7456 11.0389C33.7113 11.0445 33.6772 11.0507 33.6432 11.0575C33.6091 11.0643 33.5752 11.0716 33.5414 11.0796C33.5077 11.0875 33.474 11.0959 33.4405 11.105C33.407 11.114 33.3736 11.1236 33.3404 11.1337C33.3072 11.1438 33.2742 11.1545 33.2414 11.1657C33.2085 11.177 33.1759 11.1887 33.1434 11.201C33.111 11.2133 33.0788 11.2262 33.0467 11.2395C33.0147 11.2529 32.9829 11.2668 32.9513 11.2813C32.9198 11.2957 32.8885 11.3106 32.8574 11.3261C32.7228 11.3939 32.5938 11.4733 32.4648 11.5509C32.4532 11.5578 32.3827 11.6093 32.3755 11.6094C32.3706 11.6094 32.3661 11.6064 32.3614 11.605C32.3053 11.6472 32.2556 11.7063 32.2086 11.7587C31.977 12.0166 31.7751 12.3153 31.6555 12.642C31.5136 13.0299 31.4556 13.4521 31.6375 13.8362C31.8277 14.238 32.1786 14.5037 32.5915 14.6487C33.2696 14.8869 34.0634 14.7246 34.6944 14.4195C35.2461 14.1528 35.7265 13.7583 36.0563 13.2394C36.12 13.1392 36.1924 13.0271 36.2316 12.915Z" fill="white"/>
<path d="M38.7233 14.1891C38.7138 14.1727 38.7019 14.1587 38.6901 14.1439C38.4819 13.8835 38.2095 13.7177 37.8746 13.6822C37.2178 13.6125 36.4783 13.9124 35.976 14.3244C35.3143 14.8671 34.7821 15.7169 34.7029 16.5804C34.6606 17.0404 34.7408 17.5259 35.044 17.8888C35.2433 18.1198 35.4696 18.2702 35.7729 18.3277C36.3964 18.4461 37.0793 18.2623 37.5992 17.9087C38.287 17.4409 38.7976 16.6385 38.9546 15.8245C39.0625 15.265 39.054 14.6783 38.7233 14.1891Z" fill="white"/>
<path d="M33.4088 16.2712C33.4074 16.2693 33.406 16.2673 33.4045 16.2655C32.7878 15.4802 31.8064 15.1255 30.8434 15.0182C29.5369 14.8727 27.6458 15.208 26.6025 16.0475C26.1681 16.397 25.9117 16.931 25.8514 17.4797C25.741 18.4841 26.098 19.5317 26.6174 20.38C26.8007 20.6794 27.0124 20.96 27.2316 21.2338C27.8146 21.9355 28.4966 22.5206 29.3152 22.929C29.6769 23.1095 30.0696 23.2555 30.4699 23.3196C31.1273 23.4249 31.7678 23.35 32.318 22.9496C32.5559 22.7766 32.7736 22.5657 32.9444 22.3258C33.0783 22.1376 33.201 21.9217 33.295 21.7109C33.3442 21.6004 33.3855 21.4864 33.4341 21.3756C33.5087 21.2058 33.5902 21.0391 33.6611 20.8676C33.8447 20.4236 33.9949 19.9413 34.0686 19.4658C34.2004 18.6147 34.1724 17.6519 33.7865 16.8648C33.6829 16.6533 33.5478 16.4604 33.4088 16.2712Z" fill="white"/>
<path d="M31.4235 17.8355C31.4371 17.7569 31.4493 17.6775 31.4561 17.598C31.4878 17.2298 31.3841 16.8504 31.1427 16.5662C30.9108 16.2932 30.5541 16.1242 30.1981 16.0974C29.8123 16.0684 29.4397 16.2077 29.1508 16.4587C28.4311 17.0839 28.2812 18.3506 28.2176 19.2496C28.1821 19.6954 28.2115 20.1358 28.2491 20.5798L28.5789 20.6443C29.6448 20.8431 31.3706 21.0192 32.3136 20.3668C32.6292 20.1485 32.8701 19.8176 32.9363 19.4357C33.0037 19.0471 32.9098 18.6785 32.6836 18.359C32.6355 18.2837 32.5619 18.2139 32.4945 18.156C32.1927 17.8969 31.8144 17.8046 31.4235 17.8355Z" fill="#F87537"/>
<path d="M58.8464 11.5622C58.961 10.606 58.8509 9.43921 58.2346 8.6621C57.9368 8.28656 57.5372 7.99354 57.0508 7.93871C56.3726 7.86229 55.6683 8.21531 55.156 8.6324C54.5015 9.16527 53.8999 10.1257 53.6478 10.9389C53.6577 10.9747 53.6593 10.9622 53.6527 10.9917C53.651 10.9994 53.6482 11.0068 53.647 11.0146C53.6418 11.0489 53.642 11.0682 53.6257 11.0999C53.6208 11.1095 53.6157 11.1189 53.6107 11.1284C53.7119 11.0554 53.8411 10.7212 53.9032 10.6017C54.2211 9.98945 54.5619 9.55398 55.1144 9.13644C55.2884 9.00492 55.4777 8.87374 55.6794 8.78803C56.1775 8.57647 56.7732 8.50732 57.2843 8.71288C58.1569 9.06393 58.5471 10.0539 58.705 10.914C58.7341 11.073 58.7427 11.4055 58.8015 11.53C58.8149 11.5583 58.8188 11.5526 58.8464 11.5622Z" fill="#F87537"/>
<path d="M74.853 21.8675C75.3697 21.1682 75.7748 20.2992 75.884 19.4319C75.9664 18.7772 75.944 18.0695 75.5184 17.5277C75.2368 17.1692 74.8298 16.9689 74.3816 16.9146C73.4008 16.7958 72.3888 17.2689 71.629 17.8605C71.6807 17.8797 71.6949 17.8789 71.7456 17.8573C71.9031 17.7903 72.0492 17.6963 72.2082 17.6297C72.8237 17.3721 73.5197 17.2858 74.1592 17.5092C74.6245 17.6716 74.9898 17.9921 75.2028 18.4373C75.6013 19.27 75.4208 20.2813 75.1184 21.1164C75.0658 21.2617 74.8095 21.7558 74.853 21.8675Z" fill="#F87537"/>
<path d="M67.7295 7.43117C67.7455 7.23223 67.7337 7.03232 67.7196 6.83361C67.6741 6.1897 67.5237 5.60385 67.0953 5.10275C66.6974 4.63736 66.1404 4.41968 65.5395 4.37655C64.2004 4.28047 62.7947 4.93974 61.8046 5.8064C61.1104 6.41399 60.6646 7.00447 60.2656 7.83985C60.2746 7.83913 60.2842 7.84124 60.2925 7.83778C60.3047 7.83274 60.3895 7.69737 60.4043 7.67768C60.5708 7.4581 60.7358 7.23546 60.9182 7.02877C60.9604 6.98137 61.0034 6.93469 61.0472 6.88871C61.091 6.84273 61.1355 6.79748 61.1808 6.75298C61.2261 6.70848 61.2721 6.66474 61.3188 6.62174C61.3656 6.57877 61.413 6.53658 61.4612 6.49517C61.5093 6.45378 61.5581 6.41318 61.6076 6.37338C61.657 6.3336 61.7072 6.29465 61.7579 6.25652C61.8087 6.21837 61.8601 6.18109 61.9121 6.14467C61.9641 6.10824 62.0167 6.07268 62.0698 6.038C62.123 6.00332 62.1768 5.96953 62.2311 5.93664C62.2854 5.90373 62.3402 5.87172 62.3956 5.84064C62.4509 5.80955 62.5068 5.77939 62.5632 5.75016C62.6195 5.72094 62.6763 5.69264 62.7336 5.66527C62.7909 5.63792 62.8487 5.61153 62.9069 5.58609C62.965 5.56064 63.0236 5.53618 63.0826 5.51269C63.1416 5.48919 63.2009 5.46668 63.2607 5.44515C63.3204 5.42362 63.3804 5.40308 63.4409 5.38353C64.403 5.08135 65.4971 4.99169 66.4152 5.47623C66.9751 5.77173 67.4003 6.26738 67.583 6.87471C67.6375 7.0558 67.6504 7.24888 67.7052 7.42602L67.7295 7.43117Z" fill="#F87537"/>
<path d="M74.8533 21.8676C74.8097 21.7558 75.066 21.2618 75.1187 21.1165C75.4211 20.2814 75.6015 19.27 75.203 18.4373C74.99 17.9922 74.6247 17.6717 74.1595 17.5092C73.52 17.2859 72.8239 17.3722 72.2085 17.6298C72.0494 17.6964 71.9034 17.7904 71.7459 17.8574C71.6952 17.879 71.6809 17.8798 71.6293 17.8605C71.4704 17.9386 71.3181 18.1053 71.195 18.2307C70.483 18.956 69.949 19.8856 69.6236 20.8454C69.3799 21.5644 69.2743 22.4984 69.6237 23.2027C69.8198 23.598 70.1573 23.8744 70.575 24.0095C71.2752 24.2361 72.1167 24.0025 72.7472 23.6762C73.4541 23.3104 74.0579 22.835 74.5718 22.2271C74.6651 22.1169 74.7813 21.992 74.8533 21.8676Z" fill="white"/>
<path d="M58.8473 11.5621C58.8197 11.5526 58.8158 11.5582 58.8024 11.53C58.7436 11.4055 58.735 11.0729 58.7058 10.914C58.548 10.0538 58.1578 9.06389 57.2851 8.71284C56.7741 8.50728 56.1783 8.57643 55.6803 8.78799C55.4785 8.8737 55.2893 9.00487 55.1152 9.1364C54.5628 9.55393 54.222 9.9894 53.9041 10.6017C53.842 10.7211 53.7127 11.0554 53.6115 11.1283C53.6166 11.1189 53.6217 11.1094 53.6266 11.0999C53.6429 11.0682 53.6426 11.0489 53.6479 11.0146C53.6491 11.0068 53.6519 10.9994 53.6536 10.9917C53.6602 10.9621 53.6585 10.9746 53.6486 10.9388C53.5151 11.2868 53.4273 11.7015 53.3842 12.0705C53.2625 13.1119 53.3748 14.3687 54.0531 15.2121C54.3515 15.5832 54.7498 15.8285 55.2277 15.8753C55.8543 15.9365 56.5237 15.6247 56.998 15.236C58.0701 14.3575 58.7107 12.9285 58.8473 11.5621Z" fill="white"/>
<path d="M67.73 7.43122L67.7057 7.42608C67.6508 7.24895 67.638 7.05586 67.5835 6.87476C67.4008 6.26744 66.9755 5.77179 66.4156 5.47629C65.4975 4.99176 64.4035 5.08141 63.4413 5.38359C63.3809 5.40314 63.3208 5.42368 63.2611 5.44521C63.2014 5.46673 63.142 5.48925 63.083 5.51275C63.024 5.53623 62.9655 5.5607 62.9073 5.58615C62.8491 5.61159 62.7914 5.63798 62.7341 5.66533C62.6768 5.6927 62.62 5.72099 62.5636 5.75022C62.5072 5.77945 62.4514 5.80961 62.396 5.84069C62.3407 5.87178 62.2858 5.90379 62.2315 5.93669C62.1772 5.96959 62.1235 6.00338 62.0703 6.03806C62.0171 6.07274 61.9645 6.1083 61.9125 6.14473C61.8605 6.18115 61.8091 6.21843 61.7583 6.25657C61.7076 6.29471 61.6575 6.33366 61.608 6.37344C61.5585 6.41324 61.5097 6.45384 61.4616 6.49523C61.4135 6.53664 61.366 6.57883 61.3193 6.6218C61.2725 6.66479 61.2265 6.70854 61.1813 6.75303C61.136 6.79754 61.0914 6.84279 61.0476 6.88877C61.0039 6.93475 60.9608 6.98143 60.9186 7.02883C60.7362 7.23551 60.5712 7.45815 60.4048 7.67774C60.3899 7.69743 60.3051 7.83279 60.293 7.83784C60.2846 7.8413 60.275 7.8392 60.266 7.83991C60.1995 7.94978 60.1554 8.08402 60.1112 8.20492C59.8933 8.80052 59.7537 9.44509 59.773 10.0814C59.796 10.8367 59.9847 11.593 60.5548 12.1216C61.1513 12.6745 61.928 12.8869 62.7279 12.8523C64.0415 12.7953 65.2792 11.9796 66.1432 11.0322C66.8985 10.2039 67.4458 9.20701 67.653 8.10137C67.693 7.88795 67.7396 7.64825 67.73 7.43122Z" fill="white"/>
<path d="M72.8283 7.90022C72.8009 7.8789 72.7712 7.8632 72.7411 7.84612C72.2104 7.54544 71.6349 7.44925 71.0421 7.61679C69.8792 7.94538 68.8274 8.95798 68.2547 9.99934C67.5003 11.3712 67.1748 13.1765 67.6278 14.6969C67.8691 15.5067 68.3356 16.2767 69.0974 16.6866C69.5931 16.9434 70.0797 17.0447 70.6339 16.9361C71.7732 16.7128 72.808 15.936 73.4503 14.9818C74.3 13.7194 74.6211 12.0093 74.3339 10.5201C74.1365 9.49657 73.7227 8.50605 72.8283 7.90022Z" fill="white"/>
<path d="M65.2156 15.0531C65.2119 15.0508 65.2082 15.0485 65.2045 15.0463C63.6228 14.1324 61.7149 14.1977 60.0065 14.6709C57.6888 15.3128 54.7053 17.1688 53.5048 19.3044C53.005 20.1936 52.9329 21.2749 53.2038 22.2477C53.6998 24.0284 55.0189 25.5647 56.4782 26.6518C56.9933 27.0355 57.5437 27.368 58.1022 27.6838C59.5698 28.4788 61.1261 29.0084 62.794 29.145C63.5311 29.2053 64.2974 29.1859 65.0207 29.0225C66.2088 28.754 67.2456 28.1911 67.9076 27.1367C68.1938 26.6809 68.4201 26.1747 68.5467 25.6511C68.6461 25.2405 68.7076 24.7903 68.7237 24.3683C68.7322 24.1472 68.7246 23.9254 68.7319 23.7042C68.743 23.3651 68.768 23.0265 68.7717 22.6871C68.7814 21.8082 68.7083 20.8868 68.5099 20.0293C68.1546 18.4943 67.4518 16.8782 66.261 15.8041C65.9412 15.5155 65.5804 15.2798 65.2156 15.0531Z" fill="white"/>
<path d="M62.9139 19.0592C62.8835 18.9164 62.8502 18.7732 62.8076 18.6335C62.6109 17.9868 62.1767 17.413 61.5734 17.0947C60.9938 16.7889 60.2729 16.7446 59.6503 16.9413C58.9753 17.1546 58.4372 17.6446 58.1174 18.2674C57.3208 19.8189 57.9281 22.0721 58.4317 23.642C58.6748 24.4233 59.0244 25.1511 59.3903 25.8795L59.9942 25.7647C61.9397 25.377 64.9903 24.5018 66.1478 22.7522C66.5352 22.1667 66.7191 21.4408 66.5717 20.7472C66.4218 20.0414 66.0115 19.4794 65.41 19.0908C65.2771 18.9955 65.1045 18.9271 64.9506 18.8746C64.2619 18.64 63.5567 18.7407 62.9139 19.0592Z" fill="#F87537"/>
<path d="M94.3808 13.0487C94.6893 12.6223 94.9464 12.0355 94.8581 11.5006C94.8155 11.2421 94.7023 10.996 94.4844 10.8407C94.1806 10.6242 93.7503 10.6059 93.3948 10.6693C92.9407 10.7502 92.3983 11.0495 92.062 11.3711C92.0572 11.3909 92.0613 11.3853 92.0503 11.3977C92.0475 11.4009 92.0442 11.4038 92.0415 11.4071C92.0299 11.4222 92.0249 11.4314 92.0087 11.4423C92.0038 11.4455 91.9989 11.4487 91.994 11.4519C92.0617 11.4439 92.2122 11.3184 92.2735 11.2778C92.588 11.0696 92.8664 10.952 93.2412 10.8991C93.3593 10.8824 93.4845 10.87 93.6037 10.8826C93.8978 10.9137 94.2008 11.0387 94.3905 11.2726C94.7143 11.6719 94.638 12.2486 94.4852 12.7015C94.4569 12.7852 94.3728 12.9464 94.3678 13.0214C94.3667 13.0385 94.3701 13.0369 94.3808 13.0487Z" fill="white"/>
<path d="M99.295 22.2208C99.7275 22.0238 100.152 21.716 100.434 21.3306C100.647 21.0396 100.824 20.6955 100.765 20.3236C100.725 20.0776 100.584 19.8738 100.384 19.729C99.9471 19.4119 99.3379 19.3693 98.8179 19.4504C98.8374 19.4733 98.8445 19.4767 98.8744 19.4798C98.9675 19.4896 99.0622 19.4834 99.1559 19.4938C99.5183 19.5341 99.8739 19.6776 100.12 19.954C100.299 20.1551 100.389 20.4053 100.373 20.6745C100.342 21.1782 99.9873 21.6135 99.6211 21.9323C99.5574 21.9878 99.3038 22.1559 99.295 22.2208Z" fill="white"/>
<path d="M99.7223 13.4328C99.7827 13.3419 99.8301 13.2433 99.8762 13.1446C100.025 12.8248 100.109 12.5049 100.037 12.1518C99.9706 11.8238 99.7622 11.572 99.4865 11.3919C98.8721 10.9906 98.0254 10.9325 97.3223 11.0839C96.8293 11.19 96.4596 11.3538 96.0472 11.6471C96.0517 11.6491 96.0557 11.6527 96.0606 11.6533C96.0678 11.6541 96.1442 11.6119 96.1565 11.6064C96.2943 11.5457 96.4323 11.4831 96.5743 11.4327C96.607 11.4213 96.64 11.4104 96.6731 11.4C96.7062 11.3897 96.7395 11.3799 96.773 11.3706C96.8064 11.3614 96.84 11.3527 96.8738 11.3446C96.9075 11.3364 96.9414 11.3289 96.9754 11.3219C97.0094 11.3149 97.0435 11.3084 97.0777 11.3025C97.1119 11.2966 97.1461 11.2913 97.1805 11.2866C97.2149 11.2818 97.2494 11.2777 97.2839 11.274C97.3184 11.2704 97.353 11.2674 97.3876 11.2649C97.4222 11.2625 97.4568 11.2606 97.4915 11.2593C97.5262 11.258 97.5609 11.2572 97.5956 11.2571C97.6303 11.2569 97.665 11.2573 97.6997 11.2583C97.7344 11.2593 97.7691 11.2609 97.8037 11.263C97.8383 11.2651 97.8729 11.2679 97.9075 11.2711C97.942 11.2744 97.9765 11.2783 98.0109 11.2827C98.0454 11.2871 98.0797 11.2921 98.1139 11.2977C98.1482 11.3033 98.1824 11.3094 98.2164 11.3161C98.7564 11.427 99.303 11.6746 99.6131 12.1498C99.8022 12.4396 99.8739 12.7893 99.8 13.128C99.778 13.229 99.7329 13.3247 99.7121 13.4239L99.7223 13.4328Z" fill="white"/>
<path d="M99.2947 22.2209C99.3036 22.156 99.5572 21.9879 99.6209 21.9324C99.987 21.6137 100.342 21.1783 100.372 20.6746C100.389 20.4054 100.299 20.1553 100.12 19.9542C99.8736 19.6777 99.5181 19.5342 99.1556 19.494C99.062 19.4836 98.9672 19.4897 98.8742 19.48C98.8442 19.4768 98.8372 19.4734 98.8176 19.4505C98.721 19.4456 98.6039 19.4849 98.5118 19.5121C97.9791 19.6697 97.4772 19.9722 97.067 20.3445C96.7597 20.6234 96.4614 21.0417 96.4414 21.471C96.4302 21.7119 96.5181 21.9335 96.6819 22.109C96.9563 22.4031 97.4204 22.5148 97.8083 22.5262C98.2432 22.539 98.6579 22.4721 99.0648 22.318C99.1386 22.2901 99.2273 22.2613 99.2947 22.2209Z" fill="white"/>
<path d="M94.379 13.0484C94.3684 13.0365 94.365 13.0381 94.3661 13.0211C94.3711 12.946 94.4552 12.7848 94.4835 12.7011C94.6363 12.2482 94.7126 11.6716 94.3888 11.2723C94.1991 11.0384 93.8961 10.9133 93.6019 10.8822C93.4828 10.8696 93.3575 10.8821 93.2395 10.8988C92.8647 10.9516 92.5862 11.0693 92.2718 11.2775C92.2105 11.3181 92.06 11.4435 91.9923 11.4515C91.9972 11.4483 92.0021 11.4452 92.007 11.4419C92.0232 11.4311 92.0282 11.4218 92.0398 11.4068C92.0424 11.4034 92.0458 11.4006 92.0486 11.3974C92.0596 11.385 92.0555 11.3905 92.0603 11.3708C91.9041 11.5016 91.7521 11.6765 91.6335 11.8414C91.299 12.3067 91.0191 12.9371 91.1194 13.5202C91.1635 13.7767 91.2888 13.9996 91.5047 14.1488C91.7879 14.3444 92.1905 14.373 92.5203 14.3131C93.2658 14.1779 93.9511 13.6651 94.379 13.0484Z" fill="white"/>
<path d="M99.7232 13.433L99.713 13.4241C99.7338 13.3249 99.7789 13.2292 99.8009 13.1282C99.8748 12.7895 99.8031 12.4398 99.614 12.15C99.3039 11.6748 98.7573 11.4273 98.2173 11.3163C98.1833 11.3096 98.1491 11.3035 98.1149 11.2979C98.0806 11.2923 98.0463 11.2874 98.0119 11.2829C97.9774 11.2785 97.943 11.2746 97.9084 11.2714C97.8739 11.2681 97.8393 11.2654 97.8046 11.2632C97.77 11.2611 97.7353 11.2595 97.7006 11.2586C97.6659 11.2576 97.6312 11.2571 97.5965 11.2573C97.5618 11.2575 97.5271 11.2582 97.4924 11.2595C97.4578 11.2608 97.4231 11.2627 97.3885 11.2652C97.3539 11.2676 97.3193 11.2707 97.2848 11.2743C97.2503 11.2779 97.2158 11.282 97.1814 11.2868C97.1471 11.2915 97.1128 11.2969 97.0786 11.3027C97.0444 11.3086 97.0103 11.3151 96.9763 11.3221C96.9423 11.3291 96.9084 11.3367 96.8747 11.3448C96.841 11.3529 96.8074 11.3616 96.7739 11.3709C96.7405 11.3801 96.7072 11.3899 96.674 11.4003C96.6409 11.4106 96.608 11.4215 96.5752 11.4329C96.4332 11.4833 96.2953 11.5459 96.1575 11.6067C96.1451 11.6121 96.0687 11.6543 96.0615 11.6535C96.0566 11.6529 96.0526 11.6494 96.0481 11.6473C95.9871 11.6822 95.9305 11.7346 95.8773 11.7807C95.615 12.0074 95.3773 12.2784 95.2176 12.5876C95.0281 12.9546 94.9176 13.3661 95.0498 13.77C95.188 14.1925 95.5028 14.5001 95.8942 14.6959C96.5371 15.0173 97.345 14.956 98.0093 14.7326C98.59 14.5372 99.1162 14.2061 99.5086 13.7328C99.5844 13.6414 99.6703 13.5393 99.7232 13.433Z" fill="white"/>
<path d="M102.036 15.0097C102.029 14.9922 102.019 14.9768 102.009 14.9607C101.835 14.6761 101.585 14.4775 101.258 14.4002C100.615 14.2486 99.8434 14.4533 99.2934 14.7989C98.5688 15.2542 97.9341 16.0305 97.7471 16.8773C97.6474 17.3283 97.666 17.82 97.9212 18.2181C98.0899 18.4723 98.2956 18.6499 98.5892 18.7451C99.1929 18.9408 99.8935 18.8442 100.454 18.5587C101.195 18.181 101.802 17.449 102.06 16.6612C102.237 16.1197 102.303 15.5366 102.036 15.0097Z" fill="white"/>
<path d="M96.4943 16.4078C96.4932 16.4057 96.492 16.4036 96.4908 16.4016C95.9776 15.5451 95.0485 15.07 94.1066 14.8426C92.8287 14.5342 90.9104 14.6293 89.77 15.3312C89.2951 15.6234 88.9737 16.121 88.845 16.6578C88.6094 17.6403 88.832 18.7245 89.2408 19.6313C89.3851 19.9514 89.5599 20.2563 89.7429 20.5555C90.2332 21.3248 90.8364 21.991 91.5971 22.4989C91.9333 22.7234 92.3046 22.9175 92.6937 23.0314C93.3327 23.2184 93.9775 23.2246 94.5737 22.8964C94.8314 22.7546 95.0739 22.5728 95.2734 22.3562C95.4298 22.1863 95.5787 21.9875 95.6984 21.7901C95.7611 21.6867 95.8164 21.5788 95.8785 21.475C95.9738 21.3159 96.0756 21.1607 96.1675 20.9995C96.4054 20.5821 96.615 20.1224 96.7478 19.66C96.9854 18.8322 97.0785 17.8734 96.7946 17.0441C96.7183 16.8213 96.6085 16.6129 96.4943 16.4078Z" fill="white"/>
<path d="M94.3358 17.7107C94.3592 17.6344 94.3813 17.5572 94.398 17.4791C94.4756 17.1178 94.4205 16.7284 94.2167 16.4162C94.0209 16.1162 93.6881 15.9037 93.3384 15.8325C92.9592 15.7552 92.5721 15.8466 92.254 16.0593C91.4615 16.5893 91.1537 17.8272 90.9777 18.711C90.8865 19.1489 90.8604 19.5894 90.842 20.0346L91.161 20.14C92.1935 20.4711 93.8836 20.8625 94.901 20.3337C95.2415 20.1567 95.5221 19.8587 95.6357 19.4881C95.7514 19.1111 95.7045 18.7336 95.5202 18.3883C95.482 18.3075 95.4177 18.229 95.3581 18.1631C95.0912 17.8681 94.7275 17.7291 94.3358 17.7107Z" fill="#F87537"/>
</svg>
