<svg width="111" height="137" viewBox="0 0 111 137" fill="none" xmlns="http://www.w3.org/2000/svg">
<path d="M66.9837 28.1083C68.6973 31.2899 73.805 31.5613 78.2527 28.4617C81.6404 26.1004 85.2527 20.3162 83.3164 17.2932C82.2575 15.6404 76.5566 13.9532 72.0474 16.9399C67.5376 19.9263 65.27 24.9267 66.9837 28.1083Z" fill="#F87537" fill-opacity="0.1"/>
<path d="M51.559 21.3904C53.6721 23.3409 57.5151 21.9064 60.5939 18.6332C62.6138 16.4861 64.1188 10.7277 61.9782 8.81262C60.503 7.49249 55.8209 8.09685 52.9445 11.5703C50.0671 15.0433 49.4471 19.4404 51.559 21.3904Z" fill="#F87537" fill-opacity="0.1"/>
<path d="M56.5601 27.0841C53.8825 27.0688 51.365 26.0841 49.4592 24.2181C47.4217 22.2232 45.4503 19.9826 40.6622 21.2636C34.7535 22.8448 31.2494 29.7486 32.6662 35.8418C33.0654 37.5585 33.8185 39.057 34.8244 40.2804C35.9146 41.6054 36.6859 43.1748 37.0891 44.8648C37.4731 46.5612 37.4904 48.3841 37.13 50.1957C36.7968 51.8687 36.7985 53.6196 37.1978 55.3363C38.6145 61.4296 44.5886 65.1507 50.3232 62.8227C54.9702 60.9368 55.6906 57.7921 56.5726 54.8165C57.398 52.0342 59.1261 49.6239 61.4103 47.9424C65.4539 44.9652 67.2641 39.7965 66.1722 35.0996C65.0792 30.4038 61.3028 27.1117 56.5601 27.0841Z" fill="#F87537" fill-opacity="0.1"/>
<path d="M79.385 33.3086C74.244 33.4506 70.0041 36.8825 69.9261 40.6699C69.8481 44.4573 73.956 47.3016 79.1014 47.0234C84.2469 46.7453 88.376 41.7352 88.5603 39.6621C88.8968 35.8711 83.3008 33.2 79.385 33.3086Z" fill="#F87537" fill-opacity="0.1"/>
<path d="M68.6054 52.7528C64.5555 51.8893 60.6534 53.0732 59.7007 56.0599C58.746 59.0465 61.187 62.4089 65.151 63.5696C69.1158 64.73 73.3717 62.3125 74.0558 60.2625C75.0496 57.2869 71.2615 53.3191 68.6054 52.7528Z" fill="#F87537" fill-opacity="0.1"/>
<path d="M24.683 103.672C26.9919 105.439 30.8272 103.948 33.0636 100.204C34.7669 97.3522 35.5027 91.9158 33.083 90.3395C31.7598 89.4777 27.0212 90.1259 24.7024 93.8075C22.383 97.4891 22.374 101.906 24.683 103.672Z" fill="#F87537" fill-opacity="0.1"/>
<path d="M11.1504 103.847C13.345 104.579 15.6887 102.256 16.8638 98.8373C17.635 96.5947 16.834 91.8742 14.6309 91.1778C13.1125 90.6976 9.87888 92.6894 8.91844 96.1879C7.957 99.6864 8.9567 103.116 11.1504 103.847Z" fill="#F87537" fill-opacity="0.1"/>
<path d="M16.7025 106.368C14.7339 107.243 12.5621 107.353 10.5473 106.615C8.39339 105.826 6.20667 104.835 3.11915 107.358C-0.69082 110.472 -0.977008 116.694 2.07723 120.693C2.9378 121.82 3.98568 122.67 5.12798 123.234C6.36567 123.845 7.45034 124.741 8.30494 125.847C9.14763 126.964 9.76324 128.295 10.0981 129.743C10.4072 131.08 10.9875 132.363 11.8481 133.49C14.9023 137.49 20.5139 138.243 23.9493 134.639C26.7332 131.719 26.2214 129.175 25.8841 126.701C25.569 124.387 26.0391 122.048 27.158 120.06C29.1385 116.539 28.7564 112.15 26.4023 109.067C24.0476 105.985 20.1895 104.82 16.7025 106.368Z" fill="#F87537" fill-opacity="0.1"/>
<path d="M35.4984 103.384C31.7754 105.188 29.8013 109.107 30.9968 111.91C32.1923 114.714 36.1453 115.441 39.8266 113.535C43.5079 111.629 44.8788 106.589 44.3282 105.008C43.3211 102.117 38.334 102.009 35.4984 103.384Z" fill="#F87537" fill-opacity="0.1"/>
<path d="M34.0256 121.208C30.7702 121.914 28.3003 124.073 28.5894 126.578C28.8771 129.084 31.7793 130.742 35.0701 130.282C38.3613 129.822 40.6826 126.642 40.5063 124.912C40.2509 122.401 36.1607 120.745 34.0256 121.208Z" fill="#F87537" fill-opacity="0.1"/>
</svg>
