<svg width="143" height="182" viewBox="0 0 143 182" fill="none" xmlns="http://www.w3.org/2000/svg">
<path d="M60.7057 27.2325C59.1851 25.8182 59.7749 22.9386 62.1435 20.9149C63.9478 19.3736 67.6881 18.2037 69.0882 19.7188C69.8537 20.5473 69.9652 23.9621 67.6505 26.0364C65.3358 28.111 62.2264 28.6467 60.7057 27.2325Z" fill="#F87537" fill-opacity="0.1"/>
<path d="M62.2048 36.7835C61.4266 35.3257 62.7816 33.3967 65.0482 32.1594C66.535 31.3476 69.9553 31.3458 70.7098 32.8138C71.23 33.8255 70.2149 36.3415 67.8663 37.4372C65.5178 38.5336 62.9828 38.2407 62.2048 36.7835Z" fill="#F87537" fill-opacity="0.1"/>
<path d="M59.7635 33.1762C59.3837 34.6673 59.5661 36.21 60.3274 37.5404C61.1412 38.9627 62.1012 40.3838 60.6945 42.8606C58.9584 45.9169 54.6113 46.8642 51.4285 45.1927C50.5318 44.7217 49.8078 44.0857 49.2733 43.3489C48.6947 42.5505 47.9338 41.894 47.0525 41.4248C46.1649 40.9652 45.1538 40.6912 44.0942 40.6289C43.1155 40.5715 42.1422 40.3167 41.2455 39.8457C38.0627 38.1743 36.8599 34.3127 38.986 31.4615C40.7086 29.151 42.5618 29.2064 44.3443 29.1475C46.0111 29.092 47.602 28.4806 48.8683 27.4543C51.1102 25.6376 54.2469 25.3806 56.7003 26.6688C59.153 27.9576 60.4359 30.535 59.7635 33.1762Z" fill="#F87537" fill-opacity="0.1"/>
<path d="M59.6135 19.582C58.7889 22.4202 56.2657 24.2801 54.1484 23.7742C52.031 23.2683 51.0451 20.5716 51.946 17.7508C52.8469 14.9299 56.2316 13.3604 57.4111 13.5586C59.568 13.9213 60.2417 17.4203 59.6135 19.582Z" fill="#F87537" fill-opacity="0.1"/>
<path d="M47.2382 22.7561C47.1311 25.1333 45.9069 27.1315 44.1079 27.2281C42.3087 27.3259 40.793 25.4809 40.7224 23.1083C40.6522 20.7354 42.6136 18.7194 43.8527 18.6363C45.6515 18.5152 47.3085 21.197 47.2382 22.7561Z" fill="#F87537" fill-opacity="0.1"/>
<path d="M56.005 151.832C53.871 149.858 54.686 145.824 57.9941 142.983C60.5141 140.818 65.7456 139.167 67.7113 141.282C68.786 142.439 68.9548 147.219 65.7222 150.131C62.4898 153.044 58.139 153.806 56.005 151.832Z" fill="#F87537" fill-opacity="0.1"/>
<path d="M58.138 165.196C57.0432 163.158 58.9328 160.453 62.1011 158.712C64.1794 157.57 68.9674 157.555 70.0291 159.607C70.761 161.022 69.3494 164.547 66.0658 166.09C62.7823 167.634 59.2326 167.233 58.138 165.196Z" fill="#F87537" fill-opacity="0.1"/>
<path d="M54.7076 160.156C54.1815 162.245 54.4427 164.403 55.5133 166.263C56.6578 168.251 58.007 170.237 56.0471 173.709C53.6281 177.994 47.5464 179.336 43.0846 177.008C41.8277 176.352 40.8117 175.465 40.0608 174.435C39.2478 173.32 38.1803 172.404 36.9448 171.75C35.7006 171.11 34.2841 170.73 32.8005 170.647C31.4304 170.57 30.0668 170.217 28.8098 169.561C24.3481 167.233 22.6499 161.832 25.6156 157.833C28.0184 154.592 30.6127 154.663 33.1078 154.574C35.4409 154.49 37.6656 153.628 39.4345 152.187C42.5661 149.635 46.956 149.263 50.3952 151.058C53.8335 152.853 55.6391 156.456 54.7076 160.156Z" fill="#F87537" fill-opacity="0.1"/>
<path d="M54.4463 141.126C53.3026 145.102 49.7774 147.715 46.8115 147.015C43.8456 146.315 42.4554 142.543 43.706 138.591C44.9566 134.639 49.6889 132.429 51.3408 132.702C54.3614 133.202 55.3176 138.098 54.4463 141.126Z" fill="#F87537" fill-opacity="0.1"/>
<path d="M37.1337 145.616C36.9926 148.944 35.2864 151.745 32.7684 151.887C30.2501 152.031 28.1214 149.454 28.0138 146.133C27.9066 142.811 30.6448 139.982 32.3791 139.861C34.8967 139.685 37.2263 143.433 37.1337 145.616Z" fill="#F87537" fill-opacity="0.1"/>
</svg>
