<svg width="118" height="59" viewBox="0 0 118 59" fill="none" xmlns="http://www.w3.org/2000/svg">
<path d="M33.9267 18.7831C37.2497 19.9673 41.4133 17.4902 42.9601 13.1581C44.1379 9.85802 43.3583 4.20933 39.9601 3.24429C38.1019 2.71675 32.592 4.57879 30.9267 8.86935C29.2609 13.16 30.6038 17.5989 33.9267 18.7831Z" fill="#F87537" fill-opacity="0.1"/>
<path d="M17.6776 22.417C20.5457 22.5909 22.6572 19.6586 23.0251 15.9245C23.2668 13.4749 20.8552 8.93805 17.9877 8.8015C16.0113 8.70721 12.7262 11.5342 12.6413 15.2937C12.5553 19.0535 14.8107 22.2428 17.6776 22.417Z" fill="#F87537" fill-opacity="0.1"/>
<path d="M25.1379 23.5305C23.0343 24.9119 20.4518 25.5779 17.7983 25.3514C14.9617 25.1093 12.0236 24.6726 9.07733 27.9959C5.44175 32.0971 7.00375 38.4196 11.909 41.6566C13.2911 42.5686 14.8139 43.1544 16.3631 43.4295C18.0414 43.727 19.6226 44.3495 20.9911 45.2421C22.3487 46.1487 23.4982 47.3284 24.3453 48.6969C25.1274 49.961 26.2199 51.1018 27.602 52.0138C32.5073 55.2508 39.4983 54.5731 42.5324 50.0753C44.9913 46.4309 43.595 44.006 42.4304 41.6075C41.3419 39.3644 41.1913 36.8947 41.9299 34.6113C43.2368 30.5689 41.4314 26.258 37.6504 23.7627C33.8691 21.2686 28.8641 21.0841 25.1379 23.5305Z" fill="#F87537" fill-opacity="0.1"/>
<path d="M46.867 15.7297C42.9349 18.4937 41.7578 22.9346 44.0571 25.4448C46.3564 27.9549 51.3416 27.6751 55.1923 24.8201C59.0431 21.9651 59.15 16.5526 58.0022 15.1051C55.9028 12.4583 49.8618 13.6243 46.867 15.7297Z" fill="#F87537" fill-opacity="0.1"/>
<path d="M50.5547 34.0097C46.8492 35.551 44.5353 38.3505 45.6515 40.7932C46.7661 43.2367 50.7706 44.1608 54.5941 42.858C58.4179 41.5545 60.2398 37.7667 59.4972 36.0746C58.42 33.6178 52.9848 32.9989 50.5547 34.0097Z" fill="#F87537" fill-opacity="0.1"/>
<path d="M103.659 26.5179C105.312 27.5663 108.049 26.6725 109.639 24.439C110.85 22.7375 111.366 19.4984 109.634 18.5634C108.687 18.0522 105.303 18.4458 103.654 20.6423C102.004 22.8388 102.006 25.4695 103.659 26.5179Z" fill="#F87537" fill-opacity="0.1"/>
<path d="M93.9922 26.6437C95.5614 27.0758 97.2312 25.6885 98.0641 23.6505C98.6106 22.3136 98.0295 19.5033 96.4544 19.092C95.3688 18.8084 93.0627 19.9999 92.3832 22.0852C91.7031 24.1704 92.4238 26.2115 93.9922 26.6437Z" fill="#F87537" fill-opacity="0.1"/>
<path d="M97.9625 28.1363C96.5579 28.6602 95.0067 28.7295 93.566 28.2931C92.0259 27.8266 90.4619 27.2398 88.2611 28.7475C85.5454 30.6082 85.3528 34.3142 87.5423 36.6917C88.1592 37.3614 88.9093 37.8659 89.7264 38.2003C90.6117 38.5623 91.3883 39.0941 92.0009 39.7515C92.605 40.4154 93.0472 41.2072 93.2892 42.0689C93.5126 42.8648 93.9296 43.6283 94.5465 44.298C96.7359 46.6755 100.746 47.115 103.193 44.963C105.176 43.2194 104.806 41.7048 104.56 40.232C104.331 38.8546 104.662 37.4607 105.458 36.2745C106.866 34.1744 106.584 31.5609 104.897 29.7283C103.209 27.8963 100.45 27.2085 97.9625 28.1363Z" fill="#F87537" fill-opacity="0.1"/>
<path d="M111.384 26.3288C108.728 27.4096 107.325 29.7469 108.184 31.4146C109.044 33.0823 111.869 33.5091 114.495 32.3681C117.121 31.2271 118.091 28.2232 117.694 27.2823C116.969 25.5618 113.407 25.5055 111.384 26.3288Z" fill="#F87537" fill-opacity="0.1"/>
<path d="M110.365 36.9473C108.041 37.3732 106.281 38.6629 106.492 40.1546C106.702 41.6467 108.779 42.6298 111.129 42.3507C113.479 42.0712 115.131 40.1732 115.002 39.1434C114.815 37.6483 111.89 36.6681 110.365 36.9473Z" fill="#F87537" fill-opacity="0.1"/>
</svg>
