<?xml version="1.0" encoding="utf-8"?>
<!-- Generator: Adobe Illustrator 18.0.0, SVG Export Plug-In . SVG Version: 6.00 Build 0)  -->
<!DOCTYPE svg PUBLIC "-//W3C//DTD SVG 1.1//EN" "http://www.w3.org/Graphics/SVG/1.1/DTD/svg11.dtd">
<svg version="1.1" id="Livello_1" xmlns="http://www.w3.org/2000/svg" xmlns:xlink="http://www.w3.org/1999/xlink" x="0px" y="0px"
	 viewBox="0 0 449 459" enable-background="new 0 0 449 459" xml:space="preserve">
<g>
	<path fill="#F87537" d="M180.4,428.6c2.1,2,1.3,6.1-2.1,8.9c-2.6,2.2-7.9,3.8-9.8,1.6c-1.1-1.2-1.2-6,2.1-8.9
		C173.9,427.3,178.3,426.6,180.4,428.6z"/>
	<path fill="#F87537" d="M178.4,415.1c1.1,2.1-0.9,4.8-4.1,6.5c-2.1,1.1-6.9,1.1-8-1c-0.7-1.4,0.7-5,4.1-6.5
		C173.8,412.6,177.3,413.1,178.4,415.1z"/>
	<path fill="#F87537" d="M181.8,420.3c0.6-2.1,0.3-4.3-0.7-6.2c-1.1-2-2.5-4-0.5-7.5c2.5-4.3,8.6-5.6,13.1-3.2
		c1.3,0.7,2.3,1.6,3,2.6c0.8,1.1,1.9,2.1,3.1,2.7c1.2,0.7,2.7,1.1,4.2,1.2c1.4,0.1,2.8,0.5,4,1.1c4.5,2.4,6.1,7.9,3.1,11.9
		c-2.5,3.2-5.1,3.1-7.6,3.2c-2.4,0.1-4.6,0.9-6.4,2.3c-3.2,2.5-7.6,2.9-11.1,1C182.6,427.6,180.8,424,181.8,420.3z"/>
	<path fill="#F87537" d="M181.9,439.4c1.2-4,4.8-6.6,7.8-5.9c3,0.7,4.3,4.6,3,8.5c-1.3,4-6.1,6.1-7.8,5.9
		C181.9,447.4,181,442.5,181.9,439.4z"/>
	<path fill="#F87537" d="M199.4,435.1c0.2-3.4,1.9-6.2,4.5-6.3c2.5-0.1,4.7,2.5,4.7,5.8c0.1,3.3-2.7,6.2-4.5,6.3
		C201.6,441.1,199.3,437.3,199.4,435.1z"/>
	<path fill="#F87537" d="M243.6,423c2,0,3.5,2.3,3.2,5.2c-0.2,2.2-2,5.5-3.9,5.4c-1.1-0.1-3.4-2.3-3.2-5.2
		C239.9,425.5,241.7,423,243.6,423z"/>
	<path fill="#F87537" d="M236.3,417.5c1.5,0.5,1.8,2.7,1.1,5c-0.5,1.5-2.8,3.8-4.3,3.3c-1-0.3-2-2.7-1.1-5S234.8,417,236.3,417.5z"
		/>
	<path fill="#F87537" d="M240.4,418.3c-0.7-1.3-1.9-2.2-3.3-2.6c-1.5-0.4-3.1-0.8-3.8-3.4c-0.8-3.2,1.5-6.7,4.7-7.7
		c0.9-0.3,1.8-0.3,2.7-0.2c0.9,0.2,1.9,0.1,2.8-0.2c0.9-0.3,1.8-0.8,2.5-1.4c0.7-0.6,1.5-1.1,2.4-1.4c3.3-1,6.6,0.8,7.1,4.2
		c0.4,2.7-0.9,3.9-2.1,5.1c-1.1,1.1-1.8,2.6-1.9,4.1c-0.3,2.7-2.3,5-4.8,5.7C244.2,421.5,241.6,420.6,240.4,418.3z"/>
	<path fill="#F87537" d="M249.4,427.4c-1.3-2.5-0.8-5.4,0.9-6.4c1.8-1.1,4.2,0.1,5.5,2.6c1.3,2.5,0,5.8-0.9,6.4
		C253.2,431.2,250.4,429.3,249.4,427.4z"/>
	<path fill="#F87537" d="M255.7,417.1c-1.5-1.7-2-3.8-0.8-5.1c1.2-1.3,3.4-1,5,0.6c1.6,1.6,1.6,4.2,0.8,5.1
		C259.6,418.9,256.7,418.2,255.7,417.1z"/>
</g>
<g>
	<path fill="#F87537" d="M357.7,157.9c4.4,7,16,6.9,25.7-0.8c7.4-5.9,14.8-19.5,9.9-26.1c-2.6-3.6-15.8-6.6-25.7,0.8
		C357.8,139.2,353.3,150.9,357.7,157.9z"/>
	<path fill="#F87537" d="M321.7,144.8c5.1,4.1,13.6,0.3,20.1-7.6c4.3-5.2,6.9-18.5,1.7-22.5c-3.5-2.8-14.1-0.7-20.1,7.6
		C317.4,130.6,316.6,140.7,321.7,144.8z"/>
	<path fill="#F87537" d="M333.8,157.1c-6.1,0.3-12-1.5-16.6-5.5c-4.9-4.2-9.7-9.1-20.4-5.5c-13.2,4.4-20.2,20.6-16.1,34.3
		c1.2,3.8,3.1,7.1,5.5,9.8c2.7,2.9,4.6,6.3,5.8,10.1c1.1,3.8,1.4,7.9,0.9,12.1c-0.5,3.9-0.3,7.8,0.9,11.7
		c4.1,13.6,18.2,21.3,30.9,15.1c10.3-5,11.5-12.2,13.1-19.1c1.5-6.4,5.1-12.2,10-16.3c8.8-7.3,12.1-19.4,9-29.9
		C353.7,163.4,344.6,156.4,333.8,157.1z"/>
	<path fill="#F87537" d="M386.6,168c-11.7,1.1-20.8,9.5-20.5,18.1c0.4,8.6,10.1,14.5,21.8,13.1c11.7-1.4,20.3-13.3,20.5-18.1
		C408.6,172.4,395.5,167.1,386.6,168z"/>
	<path fill="#F87537" d="M364.9,213.7c-9.3-1.4-18,1.9-19.8,8.8c-1.7,6.9,4.3,14.2,13.5,16.3c9.2,2.1,18.5-4,19.8-8.8
		C380.2,223.1,371,214.6,364.9,213.7z"/>
	<path fill="#F87537" d="M317.6,83.6c-1.6-1.1-1.5-3.9,0.4-6.1c1.5-1.7,4.8-3.4,6.3-2.2c0.8,0.7,1.5,3.8-0.4,6.1
		C322,83.7,319.2,84.7,317.6,83.6z"/>
	<path fill="#F87537" d="M320.4,92.3c-0.9-1.2,0-3.2,2-4.7c1.3-1,4.5-1.5,5.4-0.2c0.6,0.9,0.1,3.4-2,4.7
		C323.8,93.4,321.4,93.5,320.4,92.3z"/>
	<path fill="#F87537" d="M317.6,89.3c-0.1,1.4,0.3,2.9,1.2,4c1,1.2,2.1,2.4,1.1,4.9c-1.2,3.1-5.1,4.6-8.3,3.6
		c-0.9-0.3-1.7-0.8-2.3-1.4c-0.7-0.7-1.5-1.2-2.4-1.5c-0.9-0.3-1.9-0.4-2.9-0.3c-0.9,0.1-1.9,0-2.8-0.3c-3.2-1.1-4.9-4.5-3.4-7.5
		c1.3-2.4,3-2.6,4.7-3c1.5-0.3,2.9-1.1,4-2.3c1.8-2,4.7-2.7,7.2-1.9C316.2,84.5,317.8,86.7,317.6,89.3z"/>
	<path fill="#F87537" d="M315.4,76.6c-0.3,2.8-2.4,4.9-4.5,4.7c-2.1-0.2-3.4-2.5-3-5.3c0.4-2.8,3.3-4.7,4.5-4.7
		C314.5,71.4,315.7,74.5,315.4,76.6z"/>
	<path fill="#F87537" d="M304.3,81.4c0.3,2.2-0.6,4.3-2.3,4.6c-1.7,0.4-3.4-1.1-3.8-3.3c-0.4-2.2,1.1-4.4,2.3-4.6
		C302.2,77.7,304.2,80,304.3,81.4z"/>
</g>
<g>
	<path fill="#F87537" d="M61.4,137.2c4.4-4.2,2.6-12.5-4.3-18.4c-5.3-4.5-16.2-7.8-20.3-3.3c-2.2,2.4-2.5,12.4,4.3,18.4
		C47.9,139.9,57,141.4,61.4,137.2z"/>
	<path fill="#F87537" d="M57.2,165.1c2.2-4.3-1.8-9.9-8.4-13.4c-4.4-2.3-14.3-2.3-16.5,2c-1.5,3,1.5,10.3,8.4,13.4
		C47.6,170.3,55,169.4,57.2,165.1z"/>
	<path fill="#F87537" d="M64.3,154.5c1.1,4.3,0.6,8.8-1.5,12.7c-2.3,4.2-5.1,8.3-1,15.5c5.1,8.9,17.8,11.5,27.1,6.6
		c2.6-1.4,4.7-3.3,6.2-5.4c1.7-2.3,3.9-4.3,6.4-5.7c2.6-1.4,5.5-2.2,8.6-2.4c2.9-0.2,5.7-1,8.3-2.3c9.2-4.9,12.7-16.2,6.4-24.5
		c-5.1-6.7-10.5-6.5-15.7-6.6c-4.9-0.1-9.5-1.9-13.2-4.8c-6.6-5.3-15.7-5.9-22.9-2.1C65.9,139.3,62.2,146.8,64.3,154.5z"/>
	<path fill="#F87537" d="M64.4,114.9c2.5,8.3,9.9,13.6,16,12.1c6.2-1.5,9-9.4,6.3-17.6c-2.7-8.2-12.6-12.7-16-12.1
		C64.4,98.4,62.5,108.6,64.4,114.9z"/>
	<path fill="#F87537" d="M100.6,123.9c0.4,6.9,4,12.7,9.2,13c5.3,0.2,9.6-5.2,9.8-12.1c0.2-6.9-5.6-12.8-9.2-13
		C105.1,111.5,100.3,119.3,100.6,123.9z"/>
	<path fill="#F87537" d="M76.2,223.4c0.3,1.8-1.6,3.4-4.3,3.6c-2,0.1-5.2-1.1-5.4-2.8c-0.1-1,1.6-3.4,4.3-3.6
		C73.5,220.4,75.9,221.7,76.2,223.4z"/>
	<path fill="#F87537" d="M80.2,216.1c-0.2,1.4-2.2,2-4.4,1.7c-1.4-0.2-3.8-2-3.5-3.4c0.2-1,2.2-2.2,4.4-1.7
		C78.8,213.1,80.4,214.7,80.2,216.1z"/>
	<path fill="#F87537" d="M79.9,219.8c1-0.8,1.7-2,1.9-3.3c0.2-1.4,0.3-2.9,2.5-3.8c2.8-1.2,6.3,0.5,7.6,3.3c0.4,0.8,0.5,1.6,0.5,2.4
		c0,0.9,0.2,1.7,0.5,2.5c0.4,0.8,0.9,1.5,1.6,2.1c0.6,0.6,1.2,1.2,1.5,2c1.3,2.8,0.1,6.1-2.9,6.9c-2.4,0.7-3.6-0.3-4.9-1.2
		c-1.2-0.8-2.6-1.3-4-1.2c-2.5,0.1-4.8-1.4-5.8-3.6C77.6,223.7,78.1,221.3,79.9,219.8z"/>
	<path fill="#F87537" d="M72.9,229.2c2.1-1.5,4.8-1.5,6,0c1.2,1.5,0.4,3.8-1.7,5.3c-2.1,1.5-5.3,0.8-6,0
		C69.9,233.2,71.3,230.4,72.9,229.2z"/>
	<path fill="#F87537" d="M83,233.6c1.3-1.6,3.2-2.3,4.5-1.4c1.3,0.9,1.4,2.9,0.2,4.6c-1.2,1.7-3.6,2-4.5,1.4
		C81.9,237.3,82.2,234.6,83,233.6z"/>
</g>
<rect x="48" y="71.4" display="none" fill="none" width="305.5" height="327.4"/>
</svg>
