<svg width="42" height="53" viewBox="0 0 42 53" fill="none" xmlns="http://www.w3.org/2000/svg">
<path d="M25.3417 32.9797C26.2396 30.7843 29.0117 30.5322 31.4603 32.5909C33.3253 34.1593 35.3479 38.0625 34.3274 40.1524C33.7694 41.2951 30.6898 42.522 28.2089 40.5412C25.7278 38.5605 24.4439 35.175 25.3417 32.9797Z" fill="#F87537"/>
<path d="M17.0321 37.7697C18.1598 36.4099 20.2626 37.3394 21.9692 39.5346C23.089 40.9745 23.9665 44.8876 22.8235 46.2236C22.0358 47.1445 19.4858 46.793 17.887 44.4583C16.2876 42.1241 15.9051 39.1291 17.0321 37.7697Z" fill="#F87537"/>
<path d="M19.6898 33.8159C18.2353 33.8614 16.8778 34.5668 15.8619 35.8662C14.7757 37.2553 13.728 38.8113 11.1134 37.9991C7.88688 36.9965 5.91139 32.3273 6.61767 28.1472C6.81672 26.9695 7.21028 25.9363 7.74403 25.0875C8.32252 24.1684 8.72522 23.0864 8.92665 21.9269C9.11764 20.7633 9.10807 19.5181 8.89343 18.2855C8.69503 17.1473 8.67773 15.9514 8.87677 14.7738C9.58306 10.5937 12.7899 7.97416 15.9296 9.48909C18.4738 10.7164 18.8979 12.8547 19.4081 14.8753C19.8854 16.7648 20.8493 18.3883 22.1078 19.5069C24.3356 21.4874 25.3728 24.9938 24.8284 28.2159C24.2835 31.4373 22.2661 33.7351 19.6898 33.8159Z" fill="#F87537"/>
<path d="M32.025 29.266C29.2305 29.2363 26.8914 26.9479 26.8096 24.3622C26.7278 21.7765 28.9299 19.7802 31.7282 19.9029C34.5266 20.0256 36.8219 23.3933 36.9436 24.8068C37.1658 27.3915 34.1535 29.289 32.025 29.266Z" fill="#F87537"/>
<path d="M25.9663 16.1274C23.775 16.7701 21.6428 16.0126 21.0941 13.9852C20.5444 11.958 21.8356 9.6296 23.977 8.78502C26.1189 7.94068 28.4562 9.53606 28.8492 10.9272C29.42 12.9465 27.4033 15.7059 25.9663 16.1274Z" fill="#F87537"/>
</svg>
