<svg width="58" height="75" viewBox="0 0 58 75" fill="none" xmlns="http://www.w3.org/2000/svg">
<path d="M28.0401 50.1607C30.8259 49.0203 33.9737 52.4138 34.848 57.8286C35.5136 61.9533 34.3953 68.76 31.5677 69.6268C30.0216 70.1006 25.7334 67.3338 24.7599 61.959C23.7859 56.5839 25.2543 51.3012 28.0401 50.1607Z" fill="#F87537"/>
<path d="M15.233 44.2631C17.564 44.3115 19.0154 48.0731 18.9895 52.6528C18.9727 55.6572 16.6328 60.9622 14.3054 60.8685C12.7013 60.804 10.2931 57.0642 10.5499 52.4792C10.8057 47.8938 12.9029 44.2152 15.233 44.2631Z" fill="#F87537"/>
<path d="M21.3527 43.5832C19.7735 41.7107 17.7458 40.6656 15.5835 40.7007C13.2719 40.7383 10.8616 41.0034 8.76997 36.6901C6.18903 31.367 7.99736 23.8109 12.2385 20.3145C13.4334 19.3296 14.7138 18.7545 15.9885 18.56C17.3696 18.35 18.7003 17.7354 19.8826 16.7728C21.0572 15.792 22.0876 14.46 22.89 12.8706C23.6309 11.4025 24.6118 10.1126 25.8068 9.1276C30.0479 5.63121 35.6346 7.09035 37.6955 12.8416C39.3659 17.5018 38.0285 20.3275 36.8806 23.1422C35.8076 25.7746 35.4723 28.7677 35.8711 31.6148C36.5767 36.6551 34.7458 41.74 31.4768 44.4353C28.2076 47.129 24.15 46.8997 21.3527 43.5832Z" fill="#F87537"/>
<path d="M38.2246 55.0516C35.2886 51.3298 34.7223 45.8162 36.7962 42.9685C38.87 40.1208 42.8714 40.9135 45.7339 44.7388C48.5964 48.5641 48.2145 55.1636 47.1624 56.8219C45.2381 59.8541 40.4608 57.8867 38.2246 55.0516Z" fill="#F87537"/>
<path d="M42.7832 33.1293C39.9244 30.9167 38.2981 27.2983 39.4108 24.4256C40.5222 21.5516 43.8359 20.7896 46.8106 22.7226C49.7856 24.6564 50.9291 29.4333 50.1831 31.4262C49.1007 34.3197 44.6581 34.5804 42.7832 33.1293Z" fill="#F87537"/>
</svg>
