<svg width="25" height="24" viewBox="0 0 25 24" fill="none" xmlns="http://www.w3.org/2000/svg">
<path d="M15.5507 9.36502C14.572 8.70912 14.6442 7.04309 15.7895 5.69699C16.6621 4.67171 18.6525 3.68092 19.5727 4.4041C20.0758 4.79957 20.4445 6.70251 19.3339 8.07213C18.2233 9.44194 16.5294 10.0209 15.5507 9.36502Z" fill="white"/>
<path d="M17.2469 14.581C16.6802 13.8341 17.2663 12.632 18.4251 11.7356C19.1852 11.1474 21.1011 10.8397 21.6554 11.5944C22.0375 12.1145 21.6945 13.615 20.4771 14.4394C19.2598 15.2642 17.8135 15.3275 17.2469 14.581Z" fill="white"/>
<path d="M15.5568 12.7796C15.4777 13.649 15.7183 14.4968 16.2641 15.1738C16.8475 15.8976 17.5128 16.6076 16.9469 18.1212C16.2484 19.9891 13.8981 20.9096 11.9652 20.2587C11.4207 20.0753 10.958 19.7839 10.5926 19.4191C10.1968 19.0238 9.7117 18.7242 9.1759 18.5404C8.63745 18.3626 8.04644 18.2998 7.44725 18.3599C6.89387 18.4155 6.32574 18.3601 5.78117 18.1766C3.84828 17.5258 2.82813 15.4704 3.76347 13.6824C4.52126 12.2336 5.56435 12.0984 6.55763 11.9056C7.48642 11.725 8.3228 11.2398 8.94014 10.5513C10.0331 9.3325 11.7672 8.90722 13.2572 9.40888C14.7467 9.91088 15.6966 11.2396 15.5568 12.7796Z" fill="white"/>
<path d="M14.2509 5.17742C14.0435 6.84129 12.7968 8.10951 11.5653 8.01602C10.3338 7.92253 9.53965 6.50026 9.79132 4.8392C10.043 3.17815 11.7984 1.99537 12.4769 2.0006C13.7177 2.01034 14.4089 3.91009 14.2509 5.17742Z" fill="white"/>
<path d="M7.60356 8.06574C7.75673 9.40708 7.25015 10.6362 6.25103 10.8517C5.25189 11.0678 4.23731 10.1702 3.98499 8.84744C3.73282 7.52441 4.65082 6.21915 5.33752 6.06147C6.33434 5.8323 7.50309 7.18606 7.60356 8.06574Z" fill="white"/>
</svg>
