<svg width="60" height="78" viewBox="0 0 60 78" fill="none" xmlns="http://www.w3.org/2000/svg">
<path d="M31.3947 26.1017C28.5622 27.0425 25.5718 23.4308 24.9424 17.9626C24.4632 13.7972 25.8856 7.08079 28.7476 6.41622C30.3126 6.053 34.4696 9.11992 35.2 14.5554C35.9308 19.991 34.2273 25.161 31.3947 26.1017Z" fill="#F87537"/>
<path d="M43.9162 32.8996C41.591 32.6858 40.311 28.8271 40.5427 24.2565C40.6945 21.2581 43.2691 16.1277 45.5886 16.3867C47.1872 16.565 49.4235 20.4699 48.9611 25.0293C48.4996 29.5892 46.2404 33.113 43.9162 32.8996Z" fill="#F87537"/>
<path d="M37.7759 33.1437C39.2684 35.1255 41.2459 36.3129 43.4063 36.4314C45.7159 36.5581 48.1343 36.4646 50.0287 40.9196C52.3663 46.4175 50.2213 53.8331 45.8298 57.0226C44.5925 57.9212 43.2883 58.4044 42.0068 58.508C40.6186 58.6196 39.2624 59.1387 38.0387 60.0158C36.8218 60.9115 35.7333 62.1682 34.8607 63.6981C34.055 65.1112 33.0177 66.3294 31.7804 67.228C27.3889 70.4175 21.8766 68.5639 20.0775 62.6754C18.6193 57.9041 20.0815 55.1778 21.3541 52.4492C22.5437 49.8972 23.013 46.9327 22.7428 44.0618C22.2648 38.9795 24.3213 34.0327 27.7063 31.5739C31.0913 29.1167 35.1321 29.6339 37.7759 33.1437Z" fill="#F87537"/>
<path d="M21.4463 20.4953C24.2104 24.4197 24.528 29.9647 22.3295 32.6606C20.1309 35.3564 16.1716 34.2807 13.4856 30.2583C10.7995 26.2358 11.4774 19.6739 12.6024 18.093C14.6599 15.2023 19.3412 17.506 21.4463 20.4953Z" fill="#F87537"/>
<path d="M15.9098 42.0588C18.6646 44.471 20.1257 48.199 18.8857 50.9881C17.6468 53.7786 14.3042 54.304 11.4211 52.1629C8.53773 50.0208 7.61081 45.1703 8.44522 43.2336C9.65592 40.4216 14.1031 40.4769 15.9098 42.0588Z" fill="#F87537"/>
</svg>
