<svg width="100" height="102" viewBox="0 0 100 102" fill="none" xmlns="http://www.w3.org/2000/svg">
<path d="M59.609 36.9432C62.2192 41.1362 69.2095 41.0685 75.0107 36.4594C79.4293 32.9481 83.8608 24.7486 80.9605 20.7912C79.3745 18.6275 71.4537 16.8146 65.5589 21.275C59.6633 25.7351 56.9989 32.7503 59.609 36.9432Z" fill="white"/>
<path d="M37.9951 29.1016C41.0446 31.581 46.1637 29.2949 50.0826 24.5663C52.6539 21.4646 54.2132 13.4809 51.1293 11.0521C49.0039 9.37779 42.6691 10.6035 39.0433 15.5879C35.416 20.5718 34.9472 26.6227 37.9951 29.1016Z" fill="white"/>
<path d="M45.3026 36.4381C41.649 36.6468 38.1306 35.5194 35.371 33.1374C32.4209 30.5909 29.5398 27.7037 23.1184 29.8614C15.1942 32.5246 11.0063 42.2419 13.461 50.4319C14.1528 52.7393 15.3085 54.7187 16.7854 56.3014C18.386 58.0152 19.5726 60.0898 20.2674 62.3605C20.9366 64.6415 21.1164 67.1266 20.7801 69.6285C20.4691 71.9392 20.6214 74.3273 21.3132 76.6347C23.7679 84.8247 32.2356 89.3885 39.8584 85.7215C46.0354 82.7507 46.7486 78.3995 47.6966 74.2652C48.5839 70.3992 50.7345 66.9634 53.7063 64.4739C58.9667 60.0663 60.9928 52.8608 59.1009 46.5478C57.2075 40.2361 51.7742 36.0692 45.3026 36.4381Z" fill="white"/>
<path d="M76.9703 42.9726C69.9699 43.607 64.4808 48.6516 64.699 53.8244C64.9172 58.9973 70.7642 62.5249 77.759 61.7045C84.7538 60.884 89.9567 53.6962 90.0303 50.8526C90.1644 45.6526 82.3023 42.4889 76.9703 42.9726Z" fill="white"/>
<path d="M63.9354 70.4188C58.3371 69.5881 53.116 71.5374 52.0724 75.693C51.0261 79.8487 54.644 84.226 60.1505 85.4695C65.6581 86.7124 71.2561 83.0502 72.0134 80.1953C73.114 76.0512 67.6069 70.9637 63.9354 70.4188Z" fill="white"/>
</svg>
