<svg width="83" height="84" viewBox="0 0 83 84" fill="none" xmlns="http://www.w3.org/2000/svg">
<path d="M38.7585 21.8756C39.3978 22.5957 40.3439 23.2875 41.3342 23.3419C41.8128 23.3683 42.2972 23.2637 42.6609 22.9362C43.1681 22.4794 43.3712 21.7183 43.3991 21.0583C43.4346 20.215 43.1151 19.1277 42.674 18.3995C42.6407 18.3832 42.649 18.3927 42.6312 18.3682C42.6266 18.3618 42.6229 18.3547 42.6179 18.3487C42.5957 18.322 42.5811 18.3094 42.5682 18.2762C42.5643 18.2662 42.5606 18.2561 42.5568 18.246C42.5443 18.3702 42.7086 18.6886 42.7568 18.8143C43.004 19.4584 43.1037 20.0023 43.0495 20.6927C43.0325 20.9102 43.0051 21.1388 42.9353 21.3466C42.7632 21.8596 42.4197 22.3512 41.9268 22.5972C41.0851 23.0172 40.0856 22.6524 39.3373 22.1998C39.199 22.1161 38.9445 21.9019 38.8123 21.8633C38.7823 21.8546 38.7839 21.8613 38.7585 21.8756Z" fill="#F87537"/>
<path d="M20.4282 27.0138C20.6085 27.8643 20.99 28.7439 21.5665 29.4011C22.0016 29.8972 22.546 30.3499 23.2338 30.391C23.6888 30.4182 24.1087 30.2465 24.4467 29.9472C25.1863 29.2922 25.5038 28.2211 25.5653 27.2602C25.5166 27.286 25.5077 27.2972 25.4903 27.3495C25.4359 27.5118 25.4094 27.6834 25.3536 27.8466C25.138 28.478 24.7408 29.0561 24.1494 29.3864C23.7191 29.6266 23.237 29.6873 22.7626 29.5513C21.8752 29.297 21.2382 28.491 20.8141 27.7107C20.7403 27.5749 20.5407 27.0553 20.4282 27.0138Z" fill="#F87537"/>
<path d="M35.9535 31.2645C36.0918 31.4084 36.2492 31.5322 36.4072 31.6536C36.9192 32.0468 37.4573 32.3229 38.1165 32.3348C38.7286 32.3459 39.2611 32.0736 39.692 31.6526C40.6524 30.7145 41.0918 29.2253 41.1002 27.9095C41.1062 26.987 40.9602 26.2617 40.5999 25.4089C40.5945 25.4161 40.5865 25.4219 40.5836 25.4304C40.5793 25.4429 40.6244 25.5961 40.6292 25.6203C40.6831 25.8905 40.7402 26.1617 40.7738 26.4353C40.7813 26.4983 40.7876 26.5615 40.793 26.6247C40.7983 26.688 40.8026 26.7513 40.8059 26.8148C40.8091 26.8782 40.8114 26.9416 40.8125 27.0051C40.8136 27.0686 40.8137 27.1321 40.8128 27.1956C40.8118 27.259 40.8098 27.3225 40.8068 27.3859C40.8037 27.4493 40.7996 27.5127 40.7945 27.5759C40.7893 27.6392 40.7831 27.7024 40.7758 27.7655C40.7686 27.8286 40.7603 27.8915 40.751 27.9543C40.7416 28.0171 40.7313 28.0797 40.7199 28.1422C40.7084 28.2047 40.696 28.2669 40.6825 28.329C40.6691 28.391 40.6546 28.4528 40.639 28.5144C40.6235 28.5759 40.607 28.6372 40.5894 28.6983C40.5719 28.7593 40.5533 28.82 40.5338 28.8804C40.5142 28.9408 40.4936 29.0009 40.4721 29.0606C40.4505 29.1203 40.428 29.1796 40.4045 29.2386C40.381 29.2976 40.3565 29.3561 40.331 29.4143C39.9187 30.3347 39.2599 31.2127 38.2882 31.5782C37.6957 31.8011 37.0427 31.7903 36.4671 31.5241C36.2954 31.4447 36.1424 31.3262 35.9735 31.2497L35.9535 31.2645Z" fill="#F87537"/>
<path d="M20.4276 27.0138C20.5402 27.0554 20.7397 27.5749 20.8136 27.7107C21.2377 28.4911 21.8747 29.2971 22.7621 29.5514C23.2365 29.6874 23.7186 29.6267 24.1488 29.3864C24.7403 29.0561 25.1375 28.478 25.3531 27.8467C25.4088 27.6835 25.4354 27.5118 25.4897 27.3496C25.5072 27.2973 25.5161 27.2861 25.5648 27.2602C25.6118 27.0896 25.5881 26.865 25.5759 26.6897C25.5057 25.6758 25.1644 24.6594 24.6622 23.7792C24.286 23.1198 23.6572 22.4211 22.8984 22.2152C22.4725 22.0997 22.0419 22.1688 21.6636 22.3917C21.0295 22.7652 20.646 23.5498 20.4718 24.238C20.2765 25.0096 20.2316 25.7769 20.3454 26.5647C20.366 26.7076 20.3823 26.8774 20.4276 27.0138Z" fill="#F87537"/>
<path d="M38.7582 21.8755C38.7836 21.8612 38.782 21.8545 38.812 21.8632C38.9442 21.9018 39.1987 22.116 39.337 22.1997C40.0853 22.6523 41.0848 23.0171 41.9264 22.5971C42.4193 22.3511 42.7629 21.8595 42.935 21.3465C43.0047 21.1387 43.0322 20.9101 43.0492 20.6926C43.1034 20.0022 43.0037 19.4583 42.7565 18.8142C42.7083 18.6886 42.544 18.3701 42.5565 18.2459C42.5603 18.256 42.564 18.2661 42.5679 18.2761C42.5808 18.3093 42.5954 18.3219 42.6176 18.3486C42.6226 18.3547 42.6263 18.3617 42.6309 18.3681C42.6486 18.3926 42.6404 18.3831 42.6737 18.3994C42.502 18.0687 42.2499 17.7278 42.0025 17.4507C41.3041 16.6687 40.2892 15.9189 39.2081 15.8668C38.7325 15.8439 38.2847 15.9791 37.9326 16.3056C37.4711 16.7338 37.2603 17.4416 37.2364 18.0543C37.1823 19.4394 37.8265 20.8668 38.7582 21.8755Z" fill="#F87537"/>
<path d="M35.9531 31.2645L35.9731 31.2498C36.142 31.3263 36.295 31.4448 36.4667 31.5241C37.0423 31.7904 37.6953 31.8011 38.2878 31.5782C39.2595 31.2128 39.9183 30.3347 40.3306 29.4144C40.3561 29.3562 40.3805 29.2976 40.4041 29.2386C40.4276 29.1797 40.4501 29.1203 40.4717 29.0606C40.4932 29.0009 40.5138 28.9408 40.5333 28.8804C40.5529 28.82 40.5715 28.7593 40.589 28.6983C40.6066 28.6373 40.6231 28.576 40.6386 28.5144C40.6541 28.4529 40.6687 28.391 40.6821 28.329C40.6956 28.267 40.708 28.2047 40.7194 28.1422C40.7309 28.0798 40.7412 28.0171 40.7506 27.9543C40.7599 27.8915 40.7682 27.8286 40.7754 27.7655C40.7827 27.7025 40.7889 27.6393 40.794 27.576C40.7992 27.5127 40.8033 27.4494 40.8064 27.3859C40.8094 27.3225 40.8114 27.2591 40.8124 27.1956C40.8133 27.1321 40.8132 27.0686 40.8121 27.0051C40.8109 26.9416 40.8087 26.8782 40.8055 26.8148C40.8022 26.7514 40.7979 26.688 40.7926 26.6248C40.7872 26.5615 40.7808 26.4983 40.7734 26.4353C40.7398 26.1617 40.6827 25.8905 40.6288 25.6203C40.6239 25.5961 40.5789 25.4429 40.5832 25.4304C40.5861 25.4219 40.5941 25.4161 40.5995 25.4089C40.5615 25.2862 40.4903 25.1642 40.4291 25.0509C40.1281 24.4927 39.7385 23.9606 39.2496 23.5529C38.6692 23.0689 37.9781 22.7083 37.2044 22.7842C36.395 22.8636 35.7207 23.3038 35.2159 23.9253C34.3869 24.9459 34.1761 26.4132 34.3117 27.6882C34.4303 28.8029 34.813 29.8738 35.5028 30.7623C35.6359 30.9339 35.7843 31.1278 35.9531 31.2645Z" fill="#F87537"/>
<path d="M32.2209 34.7666C32.255 34.7603 32.2865 34.7485 32.3193 34.7372C32.8963 34.5397 33.3501 34.1729 33.6181 33.6182C34.1438 32.5302 34.084 31.0714 33.6848 29.952C33.159 28.4773 32.0241 27.036 30.5861 26.3662C29.8201 26.0094 28.9345 25.8476 28.1224 26.1455C27.6014 26.3461 27.2027 26.643 26.9163 27.1297C26.3274 28.1302 26.222 29.4198 26.5098 30.5335C26.8906 32.0068 27.957 33.3817 29.2618 34.1549C30.1586 34.6862 31.1742 35.0339 32.2209 34.7666Z" fill="#F87537"/>
<path d="M31.9193 24.3262C31.9234 24.3249 31.9276 24.3237 31.9317 24.3224C33.665 23.7453 34.8819 22.2745 35.6614 20.6823C36.7189 18.5224 37.3096 15.0587 36.5084 12.7436C36.1747 11.7796 35.4135 11.0083 34.5059 10.5656C32.8445 9.75519 30.8199 9.72283 29.0383 10.0934C28.4094 10.2242 27.7955 10.4154 27.1886 10.6238C25.6202 11.1943 24.1913 12.0074 22.9825 13.1647C22.4483 13.6761 21.9544 14.2623 21.5967 14.912C21.0093 15.979 20.7427 17.1282 21.0923 18.3231C21.2434 18.8396 21.472 19.3448 21.7797 19.7869C22.0211 20.1337 22.3171 20.4784 22.6221 20.7705C22.782 20.9236 22.9529 21.065 23.1136 21.2172C23.36 21.4505 23.5967 21.6938 23.8482 21.9219C24.4993 22.5122 25.2372 23.0689 26.0104 23.4893C27.3946 24.242 29.07 24.7884 30.6638 24.6101C31.0919 24.5622 31.5076 24.4487 31.9193 24.3262Z" fill="#F87537"/>
<path d="M30.4493 19.9459C30.5763 20.0179 30.7055 20.0879 30.8382 20.1488C31.4527 20.4307 32.1701 20.4865 32.8085 20.2464C33.4219 20.0156 33.9333 19.5056 34.1992 18.9092C34.4875 18.2627 34.4779 17.5351 34.224 16.8826C33.5918 15.2571 31.503 14.2166 29.9943 13.5518C29.2484 13.2152 28.472 12.9939 27.6842 12.7845L27.3694 13.3125C26.3686 15.0253 24.9995 17.8884 25.5406 19.9152C25.7216 20.5936 26.1427 21.2128 26.7594 21.5627C27.3869 21.9188 28.0797 21.9848 28.7695 21.7926C28.929 21.7563 29.0947 21.6725 29.236 21.5922C29.8686 21.2326 30.261 20.6381 30.4493 19.9459Z" fill="#FAEDDE"/>
<path d="M17.3639 48.5596C17.4783 49.0734 17.7468 49.655 18.2055 49.9439C18.4272 50.0835 18.6864 50.1621 18.9472 50.1021C19.3108 50.0185 19.6098 49.7087 19.7983 49.4007C20.0391 49.0071 20.175 48.4028 20.1575 47.9377C20.1459 47.9211 20.1473 47.9278 20.1453 47.9114C20.1448 47.9071 20.1449 47.9028 20.1442 47.8986C20.1406 47.8799 20.137 47.87 20.1397 47.8507C20.1404 47.8449 20.1414 47.8391 20.1422 47.8333C20.1033 47.8893 20.0973 48.0851 20.087 48.1579C20.0341 48.5313 19.9374 48.8177 19.7283 49.1332C19.6625 49.2326 19.5887 49.3346 19.5002 49.4154C19.2818 49.6148 18.9871 49.7586 18.6863 49.7453C18.1727 49.7226 17.7919 49.283 17.5544 48.8681C17.5105 48.7915 17.4458 48.6215 17.3929 48.568C17.3809 48.5559 17.3798 48.5595 17.3639 48.5596Z" fill="#F87537"/>
<path d="M7.24249 46.1498C7.10294 46.6042 7.05176 47.1257 7.15283 47.5927C7.22911 47.9453 7.36907 48.3061 7.68683 48.5083C7.89703 48.642 8.14326 48.6715 8.38419 48.6181C8.91146 48.5014 9.34747 48.0739 9.63187 47.631C9.60175 47.6304 9.59454 47.6334 9.57231 47.6538C9.50327 47.7169 9.44503 47.7919 9.37508 47.8551C9.10449 48.0995 8.76125 48.2703 8.39098 48.2712C8.12163 48.2718 7.87512 48.1729 7.68453 47.982C7.32797 47.6249 7.23752 47.0707 7.24194 46.5853C7.24271 46.5008 7.28522 46.1996 7.24249 46.1498Z" fill="#F87537"/>
<path d="M13.5325 52.3017C13.5604 52.4072 13.6028 52.5081 13.6461 52.6081C13.7863 52.9318 13.9702 53.2066 14.282 53.3872C14.5716 53.555 14.8983 53.5662 15.216 53.4794C15.9239 53.286 16.529 52.691 16.8823 52.0645C17.13 51.6253 17.2528 51.2399 17.3069 50.7368C17.3024 50.7388 17.2971 50.7394 17.2934 50.7427C17.2881 50.7475 17.2689 50.8327 17.2648 50.8456C17.2188 50.989 17.1742 51.1337 17.1176 51.2734C17.1044 51.3055 17.0907 51.3374 17.0765 51.369C17.0623 51.4007 17.0475 51.4321 17.0322 51.4632C17.0169 51.4944 17.0012 51.5253 16.9849 51.556C16.9686 51.5866 16.9517 51.617 16.9344 51.647C16.9171 51.6771 16.8993 51.7069 16.8811 51.7364C16.8628 51.7659 16.844 51.7951 16.8247 51.8239C16.8055 51.8528 16.7857 51.8814 16.7655 51.9096C16.7453 51.9378 16.7247 51.9657 16.7035 51.9932C16.6824 52.0207 16.6608 52.0479 16.6388 52.0747C16.6168 52.1015 16.5943 52.128 16.5714 52.1541C16.5485 52.1801 16.5252 52.2058 16.5014 52.2311C16.4776 52.2564 16.4535 52.2813 16.4289 52.3058C16.4043 52.3303 16.3793 52.3544 16.354 52.3781C16.3286 52.4018 16.3028 52.425 16.2767 52.4478C16.2505 52.4706 16.224 52.493 16.1971 52.5149C16.1702 52.5369 16.143 52.5584 16.1154 52.5794C15.6741 52.9098 15.1262 53.1545 14.5649 53.0713C14.2226 53.0205 13.9134 52.8421 13.709 52.5621C13.6481 52.4786 13.6064 52.3814 13.546 52.3L13.5325 52.3017Z" fill="#F87537"/>
<path d="M7.2419 46.1498C7.28463 46.1995 7.24212 46.5007 7.24135 46.5852C7.23693 47.0707 7.32738 47.6249 7.68394 47.9819C7.87453 48.1728 8.12104 48.2718 8.39039 48.2712C8.76066 48.2703 9.1039 48.0995 9.37449 47.855C9.44443 47.7918 9.50268 47.7168 9.57172 47.6537C9.59394 47.6334 9.60116 47.6304 9.63128 47.631C9.69905 47.5619 9.74733 47.4483 9.78806 47.3613C10.0236 46.8581 10.1302 46.2819 10.1239 45.728C10.1191 45.313 10.0041 44.8123 9.69613 44.5125C9.52328 44.3443 9.29915 44.263 9.05921 44.2691C8.65708 44.2793 8.26559 44.5525 7.9997 44.8351C7.70159 45.152 7.47651 45.5067 7.32179 45.9134C7.29372 45.9871 7.25642 46.0726 7.2419 46.1498Z" fill="#F87537"/>
<path d="M17.365 48.5595C17.3809 48.5594 17.3819 48.5558 17.394 48.5679C17.4469 48.6214 17.5116 48.7913 17.5555 48.868C17.793 49.2829 18.1738 49.7225 18.6874 49.7452C18.9882 49.7584 19.2829 49.6147 19.5013 49.4152C19.5898 49.3344 19.6635 49.2325 19.7294 49.1331C19.9385 48.8175 20.0352 48.5312 20.0881 48.1578C20.0984 48.085 20.1044 47.8892 20.1433 47.8332C20.1425 47.839 20.1415 47.8448 20.1407 47.8506C20.1381 47.8699 20.1417 47.8798 20.1452 47.8984C20.146 47.9026 20.1459 47.907 20.1464 47.9113C20.1484 47.9277 20.147 47.9209 20.1586 47.9376C20.1643 47.734 20.1343 47.5042 20.0896 47.3061C19.9634 46.7471 19.6775 46.1194 19.1747 45.8076C18.9535 45.6704 18.7036 45.6162 18.4487 45.6788C18.1145 45.7609 17.826 46.0432 17.6519 46.3296C17.2585 46.9771 17.1875 47.8302 17.365 48.5595Z" fill="#F87537"/>
<path d="M13.5318 52.3018L13.5452 52.3C13.6056 52.3814 13.6473 52.4786 13.7082 52.5621C13.9126 52.8421 14.2218 53.0205 14.5641 53.0713C15.1255 53.1545 15.6733 52.9098 16.1146 52.5794C16.1422 52.5584 16.1694 52.5369 16.1963 52.515C16.2232 52.493 16.2497 52.4707 16.2759 52.4478C16.302 52.425 16.3278 52.4018 16.3532 52.3781C16.3785 52.3544 16.4035 52.3304 16.4281 52.3059C16.4527 52.2813 16.4769 52.2564 16.5006 52.2312C16.5244 52.2059 16.5477 52.1802 16.5706 52.1541C16.5935 52.128 16.616 52.1016 16.638 52.0747C16.66 52.0479 16.6816 52.0208 16.7028 51.9932C16.7239 51.9657 16.7445 51.9378 16.7647 51.9096C16.785 51.8814 16.8047 51.8528 16.8239 51.824C16.8432 51.7951 16.862 51.7659 16.8803 51.7364C16.8986 51.7069 16.9164 51.6771 16.9337 51.6471C16.951 51.617 16.9678 51.5866 16.9841 51.556C17.0004 51.5253 17.0162 51.4944 17.0314 51.4633C17.0467 51.4321 17.0615 51.4007 17.0757 51.369C17.0899 51.3374 17.1036 51.3055 17.1168 51.2734C17.1734 51.1338 17.2181 50.989 17.264 50.8456C17.2681 50.8327 17.2873 50.7476 17.2926 50.7428C17.2963 50.7395 17.3016 50.7388 17.3061 50.7368C17.3205 50.6681 17.3189 50.5909 17.3197 50.5205C17.324 50.1739 17.2791 49.8162 17.1537 49.4916C17.0048 49.1063 16.7702 48.7506 16.3804 48.5815C15.9725 48.4046 15.5335 48.436 15.1273 48.599C14.4603 48.8667 13.9702 49.5119 13.6966 50.1572C13.4574 50.7213 13.3561 51.3346 13.4498 51.9423C13.4679 52.0596 13.4874 52.1916 13.5318 52.3018Z" fill="#F87537"/>
<path d="M10.819 52.9846C10.837 52.9906 10.8552 52.9933 10.8738 52.9967C11.202 53.0554 11.5162 53.0006 11.7914 52.8066C12.3314 52.4262 12.69 51.7133 12.7964 51.0724C12.9365 50.2282 12.7767 49.2383 12.2673 48.5365C11.996 48.1628 11.6157 47.8504 11.1486 47.7772C10.8464 47.7348 10.5771 47.7709 10.311 47.9274C9.76409 48.2492 9.37146 48.8375 9.21343 49.446C9.00435 50.2511 9.14906 51.1912 9.56735 51.9069C9.85484 52.3988 10.2479 52.8345 10.819 52.9846Z" fill="#F87537"/>
<path d="M13.446 47.9156C13.4483 47.9161 13.4506 47.9166 13.4529 47.9171C14.4343 48.1013 15.4062 47.7215 16.2012 47.1675C17.2798 46.4161 18.4814 44.9177 18.7129 43.5988C18.8093 43.0496 18.6503 42.479 18.3341 42.0266C17.7553 41.1984 16.7964 40.6456 15.8467 40.3498C15.5115 40.2454 15.1674 40.1738 14.8221 40.1123C13.9212 39.9687 13.0226 39.978 12.1378 40.2102C11.7468 40.3128 11.3552 40.4618 11.0119 40.6774C10.448 41.0313 10.0156 41.5097 9.86552 42.1735C9.80065 42.4604 9.77582 42.7625 9.8055 43.0554C9.82878 43.2852 9.87876 43.5285 9.947 43.749C9.98275 43.8646 10.0269 43.9775 10.0633 44.0929C10.1191 44.2698 10.1676 44.4489 10.2273 44.6246C10.3817 45.0795 10.5866 45.5413 10.8445 45.9475C11.3062 46.6745 11.9618 47.3803 12.7707 47.7181C12.9879 47.8088 13.2167 47.8649 13.446 47.9156Z" fill="#F87537"/>
<path d="M13.9066 45.432C13.9482 45.5001 13.9913 45.5679 14.0386 45.6322C14.2574 45.9299 14.5854 46.147 14.9542 46.2017C15.3085 46.2542 15.6883 46.1463 15.9736 45.9319C16.283 45.6994 16.4715 45.3492 16.5234 44.97C16.6527 44.0254 15.9307 42.9739 15.3862 42.2558C15.1191 41.897 14.8068 41.5852 14.486 41.276L14.1954 41.4448C13.2626 41.9976 11.8484 43.0024 11.5691 44.1145C11.4756 44.4867 11.5124 44.8944 11.7143 45.2253C11.9196 45.562 12.2331 45.7774 12.6138 45.8686C12.6996 45.8936 12.801 45.8976 12.8899 45.8967C13.2876 45.8927 13.6329 45.7128 13.9066 45.432Z" fill="#FAEDDE"/>
</svg>
