<svg width="15" height="15" viewBox="0 0 15 15" fill="none" xmlns="http://www.w3.org/2000/svg">
<path d="M11.0348 9.38076C11.1492 9.89454 11.4176 10.4762 11.8764 10.7651C12.0981 10.9047 12.3573 10.9833 12.6181 10.9233C12.9816 10.8396 13.2807 10.5298 13.4692 10.2218C13.71 9.82831 13.8459 9.22394 13.8284 8.75891C13.8168 8.74225 13.8182 8.74899 13.8162 8.73256C13.8157 8.7283 13.8158 8.72395 13.8151 8.71972C13.8115 8.70107 13.8079 8.69117 13.8105 8.67188C13.8113 8.66607 13.8123 8.66027 13.8131 8.65447C13.7742 8.71046 13.7682 8.90625 13.7579 8.97911C13.705 9.35249 13.6083 9.63884 13.3992 9.95438C13.3333 10.0538 13.2596 10.1557 13.1711 10.2365C12.9527 10.436 12.658 10.5797 12.3572 10.5665C11.8436 10.5438 11.4628 10.1042 11.2253 9.68929C11.1814 9.61262 11.1167 9.44271 11.0638 9.3892C11.0518 9.37705 11.0507 9.38067 11.0348 9.38076Z" fill="#F87537"/>
<path d="M0.913386 6.971C0.773834 7.42533 0.722662 7.94688 0.823728 8.41391C0.900007 8.76645 1.03997 9.12726 1.35773 9.32943C1.56793 9.46318 1.81416 9.49262 2.05509 9.43928C2.58236 9.3226 3.01836 8.89504 3.30276 8.45217C3.27265 8.45161 3.26544 8.4546 3.24321 8.47493C3.17416 8.53805 3.11593 8.61304 3.04598 8.67623C2.77539 8.9207 2.43215 9.09151 2.06187 9.09237C1.79253 9.09301 1.54602 8.99403 1.35542 8.80316C0.998867 8.44611 0.908416 7.89191 0.912842 7.40645C0.913603 7.32196 0.956119 7.02073 0.913386 6.971Z" fill="#F87537"/>
<path d="M7.20343 13.1229C7.2313 13.2284 7.27367 13.3293 7.31696 13.4292C7.45724 13.753 7.64112 14.0277 7.95292 14.2084C8.2425 14.3762 8.56922 14.3873 8.88688 14.3006C9.59477 14.1071 10.1999 13.5122 10.5532 12.8857C10.8009 12.4464 10.9237 12.0611 10.9778 11.5579C10.9733 11.5599 10.968 11.5606 10.9643 11.5639C10.959 11.5687 10.9398 11.6539 10.9357 11.6667C10.8897 11.8102 10.8451 11.9549 10.7885 12.0946C10.7753 12.1267 10.7616 12.1585 10.7474 12.1902C10.7331 12.2218 10.7184 12.2532 10.7031 12.2844C10.6878 12.3156 10.6721 12.3465 10.6558 12.3771C10.6395 12.4078 10.6226 12.4381 10.6053 12.4682C10.588 12.4983 10.5702 12.5281 10.552 12.5576C10.5337 12.5871 10.5149 12.6162 10.4956 12.6451C10.4764 12.674 10.4566 12.7025 10.4364 12.7307C10.4162 12.759 10.3956 12.7868 10.3744 12.8144C10.3533 12.8419 10.3317 12.8691 10.3097 12.8959C10.2877 12.9227 10.2652 12.9492 10.2423 12.9752C10.2194 13.0013 10.1961 13.027 10.1723 13.0523C10.1485 13.0776 10.1244 13.1025 10.0998 13.127C10.0752 13.1515 10.0502 13.1756 10.0248 13.1992C9.99948 13.2229 9.97371 13.2462 9.94756 13.269C9.92141 13.2918 9.89489 13.3142 9.868 13.3361C9.84111 13.3581 9.81386 13.3795 9.78626 13.4006C9.34497 13.731 8.79714 13.9757 8.23582 13.8924C7.89351 13.8417 7.58433 13.6632 7.37992 13.3832C7.31898 13.2998 7.27731 13.2025 7.2169 13.1211L7.20343 13.1229Z" fill="#F87537"/>
<path d="M0.912797 6.97095C0.955533 7.02068 0.913017 7.32191 0.912252 7.4064C0.907827 7.89186 0.998277 8.44606 1.35483 8.80311C1.54543 8.99398 1.79194 9.09295 2.06128 9.09232C2.43156 9.09146 2.7748 8.92065 3.04539 8.67618C3.11533 8.61299 3.17357 8.538 3.24262 8.47488C3.26484 8.45455 3.27206 8.45155 3.30217 8.45212C3.36995 8.38304 3.41823 8.26943 3.45895 8.18244C3.6945 7.67931 3.80114 7.10307 3.79478 6.54914C3.79 6.13419 3.67496 5.63345 3.36703 5.33371C3.19418 5.16547 2.97005 5.0842 2.73011 5.0903C2.32797 5.1005 1.93648 5.37363 1.6706 5.65627C1.37248 5.97315 1.14741 6.32785 0.992692 6.73452C0.964614 6.80828 0.927322 6.89376 0.912797 6.97095Z" fill="#F87537"/>
<path d="M11.0359 9.38063C11.0518 9.38055 11.0528 9.37692 11.0649 9.38906C11.1178 9.44257 11.1825 9.61249 11.2264 9.68916C11.4639 10.104 11.8447 10.5437 12.3583 10.5663C12.6591 10.5796 12.9538 10.4359 13.1722 10.2364C13.2606 10.1556 13.3344 10.0536 13.4003 9.95424C13.6094 9.63871 13.7061 9.35235 13.759 8.97898C13.7693 8.90612 13.7753 8.71033 13.8142 8.65433C13.8134 8.66014 13.8124 8.66593 13.8116 8.67175C13.809 8.69104 13.8126 8.70093 13.8161 8.71959C13.8169 8.72381 13.8168 8.72817 13.8173 8.73242C13.8193 8.74885 13.8179 8.74211 13.8295 8.75878C13.8352 8.55515 13.8052 8.32536 13.7605 8.12727C13.6343 7.56826 13.3484 6.94058 12.8456 6.62877C12.6244 6.49159 12.3745 6.43738 12.1196 6.49997C11.7854 6.58206 11.4969 6.86432 11.3228 7.15077C10.9294 7.79827 10.8584 8.65133 11.0359 9.38063Z" fill="#F87537"/>
<path d="M7.20266 13.1229L7.21612 13.1212C7.27652 13.2026 7.31819 13.2998 7.37914 13.3833C7.58354 13.6633 7.89273 13.8417 8.23504 13.8925C8.79636 13.9757 9.34418 13.731 9.78548 13.4006C9.81308 13.3796 9.84032 13.3581 9.86722 13.3361C9.89411 13.3142 9.92063 13.2918 9.94677 13.269C9.97293 13.2462 9.99869 13.223 10.0241 13.1993C10.0494 13.1756 10.0744 13.1515 10.099 13.127C10.1236 13.1025 10.1478 13.0776 10.1715 13.0523C10.1953 13.027 10.2186 13.0013 10.2415 12.9753C10.2644 12.9492 10.2869 12.9227 10.3089 12.8959C10.3309 12.8691 10.3525 12.8419 10.3737 12.8144C10.3948 12.7869 10.4154 12.759 10.4356 12.7308C10.4559 12.7026 10.4756 12.674 10.4948 12.6451C10.5141 12.6163 10.5329 12.5871 10.5512 12.5576C10.5695 12.5281 10.5873 12.4983 10.6046 12.4682C10.6219 12.4382 10.6387 12.4078 10.655 12.3772C10.6713 12.3465 10.6871 12.3156 10.7023 12.2844C10.7176 12.2533 10.7324 12.2219 10.7466 12.1902C10.7608 12.1586 10.7745 12.1267 10.7877 12.0946C10.8443 11.9549 10.889 11.8102 10.9349 11.6668C10.939 11.6539 10.9582 11.5687 10.9635 11.5639C10.9672 11.5606 10.9725 11.56 10.977 11.558C10.9914 11.4892 10.9898 11.412 10.9906 11.3417C10.9949 10.995 10.95 10.6374 10.8246 10.3128C10.6757 9.92749 10.4411 9.57175 10.0513 9.40266C9.64342 9.22577 9.20438 9.2572 8.79822 9.4202C8.13122 9.68789 7.64107 10.3331 7.36749 10.9783C7.12831 11.5425 7.02695 12.1558 7.12074 12.7634C7.13885 12.8807 7.15829 13.0128 7.20266 13.1229Z" fill="#F87537"/>
<path d="M4.48991 13.8057C4.50788 13.8118 4.52606 13.8145 4.54469 13.8178C4.87289 13.8766 5.18707 13.8217 5.46233 13.6278C6.00229 13.2474 6.3609 12.5344 6.46725 11.8936C6.60735 11.0494 6.4476 10.0594 5.93818 9.35771C5.66686 8.98395 5.2866 8.67154 4.81946 8.59839C4.51727 8.55596 4.24797 8.59202 3.98194 8.74855C3.43499 9.07038 3.04236 9.65866 2.88433 10.2672C2.67525 11.0723 2.81996 12.0123 3.23825 12.7281C3.52574 13.22 3.91879 13.6557 4.48991 13.8057Z" fill="#F87537"/>
<path d="M7.11685 8.73678C7.11918 8.73726 7.12151 8.73781 7.12384 8.73825C8.10521 8.92251 9.07709 8.54264 9.87212 7.98871C10.9507 7.23722 12.1523 5.73889 12.3838 4.41995C12.4802 3.87078 12.3212 3.30015 12.005 2.84774C11.4262 2.01954 10.4673 1.46674 9.51762 1.17098C9.1824 1.06657 8.83826 0.995011 8.49297 0.933501C7.59206 0.789885 6.6935 0.799181 5.8087 1.03137C5.41771 1.13397 5.02611 1.28301 4.68279 1.49853C4.11889 1.85251 3.68647 2.33087 3.53642 2.99466C3.47155 3.2816 3.44671 3.58364 3.4764 3.87661C3.49968 4.10638 3.54965 4.34965 3.6179 4.57019C3.65365 4.68574 3.69778 4.7987 3.73418 4.91407C3.79 5.09094 3.83854 5.27004 3.8982 5.44576C4.05263 5.90067 4.25751 6.36251 4.51541 6.76862C4.9771 7.49566 5.63268 8.20142 6.44158 8.53922C6.65884 8.62997 6.88762 8.68606 7.11685 8.73678Z" fill="#F87537"/>
<path d="M7.57748 6.25314C7.61905 6.32126 7.66221 6.38903 7.70949 6.45335C7.9283 6.75111 8.2563 6.96821 8.62509 7.02287C8.97944 7.07539 9.35917 6.96745 9.64452 6.75303C9.95388 6.52059 10.1424 6.17033 10.1943 5.79117C10.3236 4.84661 9.6016 3.79506 9.05707 3.07695C8.78999 2.71819 8.47771 2.40637 8.15686 2.09719L7.86628 2.26594C6.93349 2.81881 5.51934 3.8236 5.23998 4.93571C5.14648 5.30791 5.18335 5.71555 5.38516 6.04645C5.59052 6.38316 5.90404 6.59852 6.28469 6.68977C6.37053 6.71477 6.47194 6.71872 6.56079 6.71785C6.9585 6.71388 7.30382 6.53397 7.57748 6.25314Z" fill="#FAEDDE"/>
</svg>
