<svg width="24" height="24" viewBox="0 0 24 24" fill="none" xmlns="http://www.w3.org/2000/svg">
<path d="M8.70415 11.2553C8.88343 12.3175 7.73139 13.3165 6.11752 13.4015C4.88818 13.4661 2.97937 12.7665 2.88152 11.7008C2.82807 11.1181 3.86047 9.67745 5.46815 9.55463C7.07593 9.43164 8.52487 10.193 8.70415 11.2553Z" fill="white"/>
<path d="M11.1005 6.85074C10.9604 7.69648 9.79362 8.06253 8.47004 7.85606C7.60174 7.72071 6.19345 6.64142 6.34646 5.79897C6.45186 5.2183 7.6641 4.50332 8.97673 4.79397C10.2895 5.08428 11.2404 6.00532 11.1005 6.85074Z" fill="white"/>
<path d="M10.9673 9.10574C11.5944 8.61195 12.0065 7.91939 12.1132 7.13144C12.2274 6.28909 12.281 5.40104 13.6421 4.82585C15.3217 4.11616 17.41 5.09895 18.1922 6.7919C18.4125 7.26889 18.5097 7.75932 18.497 8.23132C18.4831 8.74264 18.5889 9.25307 18.8035 9.72451C19.0237 10.1939 19.3533 10.626 19.7698 10.9862C20.1544 11.3189 20.4746 11.7311 20.6949 12.2081C21.4771 13.9011 20.7528 15.8702 18.9774 16.3724C17.5388 16.7794 16.7936 16.1714 16.0413 15.6328C15.3378 15.1293 14.49 14.8786 13.6447 14.9011C12.1483 14.9409 10.7761 14.0562 10.1732 12.7513C9.57066 11.4464 9.85646 9.98047 10.9673 9.10574Z" fill="white"/>
<path d="M6.7378 14.7491C7.97337 13.8413 9.59917 13.8726 10.3109 14.7494C11.0226 15.6262 10.5768 17.0474 9.31531 17.9239C8.05378 18.8005 6.1651 18.3777 5.74222 17.9237C4.96903 17.0933 5.79663 15.4404 6.7378 14.7491Z" fill="white"/>
<path d="M12.8298 17.3505C13.6246 16.4059 14.7594 15.97 15.5303 16.4983C16.3017 17.0262 16.3429 18.2642 15.6228 19.263C14.9024 20.2618 13.4585 20.4722 12.9223 20.1151C12.1437 19.597 12.3086 17.9699 12.8298 17.3505Z" fill="white"/>
</svg>
