<?xml version="1.0" encoding="UTF-8" standalone="no"?>
<svg
   width="28.416052"
   height="28.415995"
   viewBox="0 0 28.416052 28.415995"
   fill="none"
   version="1.1"
   id="svg3"
   xmlns="http://www.w3.org/2000/svg"
   xmlns:svg="http://www.w3.org/2000/svg">
  <g
     clip-path="url(#clip0_2729_1023)"
     id="g3"
     transform="translate(-1.292315,-1.7916451)">
    <path
       d="m 16.5361,3.29594 7.201,3.08579 c 0.62,0.26608 1.1147,0.76079 1.3821,1.38208 l 3.0845,7.19979 c 0.2842,0.6613 0.2842,1.4105 0,2.0718 l -3.0858,7.201 c -0.2661,0.62 -0.7608,1.1147 -1.3821,1.3821 l -7.1997,3.0845 c -0.6614,0.2842 -1.4105,0.2842 -2.0719,0 L 7.26319,25.6172 C 6.64205,25.3512 6.14714,24.8563 5.88111,24.2351 L 2.79661,17.0354 C 2.65632,16.708 2.58398,16.3556 2.58398,15.9995 c 0,-0.3562 0.07234,-0.7086 0.21263,-1.0359 L 5.8824,7.76252 c 0.26608,-0.62 0.76079,-1.11471 1.38208,-1.38208 l 7.19972,-3.0845 c 0.3274,-0.14029 0.6798,-0.21263 1.036,-0.21263 0.3561,0 0.7085,0.07234 1.0359,0.21263 z"
       stroke="#1a1a1a"
       stroke-width="2.58333"
       stroke-linecap="round"
       stroke-linejoin="round"
       id="path1" />
    <path
       d="m 15.5,21.1667 v 0.0129"
       stroke="#1a1a1a"
       stroke-width="2.58333"
       stroke-linecap="round"
       stroke-linejoin="round"
       id="path2" />
    <path
       d="m 15.5,17.2914 c 0.5809,0.0017 1.1455,-0.1924 1.6025,-0.551 0.457,-0.3586 0.7798,-0.8608 0.9163,-1.4255 0.1365,-0.5647 0.0786,-1.1589 -0.1642,-1.6866 -0.2428,-0.5278 -0.6564,-0.9583 -1.174,-1.222 -0.5139,-0.2632 -1.1017,-0.3449 -1.6678,-0.2316 -0.5661,0.1133 -1.0773,0.4148 -1.4503,0.8555"
       stroke="#1a1a1a"
       stroke-width="2.58333"
       stroke-linecap="round"
       stroke-linejoin="round"
       id="path3" />
  </g>
  <defs
     id="defs3">
    <clipPath
       id="clip0_2729_1023">
      <rect
         width="31"
         height="31"
         fill="#ffffff"
         transform="translate(0,0.5)"
         id="rect3"
         x="0"
         y="0" />
    </clipPath>
  </defs>
</svg>
