<svg width="33" height="32" viewBox="0 0 33 32" fill="none" xmlns="http://www.w3.org/2000/svg">
<path opacity="0.1" fill-rule="evenodd" clip-rule="evenodd" d="M0.5 15.9922C0.5 7.15563 7.66344 -0.0078125 16.5 -0.0078125C25.3366 -0.0078125 32.5 7.15563 32.5 15.9922C32.5 24.8287 25.3366 31.9922 16.5 31.9922C7.66344 31.9922 0.5 24.8287 0.5 15.9922Z" fill="#565656"/>
<path fill-rule="evenodd" clip-rule="evenodd" d="M16.5008 7.45898C14.1833 7.45898 13.8924 7.46912 12.9822 7.51054C12.0737 7.55214 11.4536 7.69596 10.9111 7.90699C10.3498 8.12495 9.87372 8.41651 9.3994 8.891C8.92473 9.36532 8.63317 9.84141 8.4145 10.4025C8.20294 10.9452 8.05894 11.5655 8.01805 12.4736C7.97734 13.3838 7.96667 13.6749 7.96667 15.9924C7.96667 18.3099 7.97699 18.5999 8.01823 19.5101C8.06001 20.4186 8.20383 21.0387 8.41468 21.5813C8.63282 22.1425 8.92437 22.6186 9.39887 23.0929C9.87301 23.5676 10.3491 23.8599 10.91 24.0778C11.4529 24.2888 12.0732 24.4327 12.9815 24.4743C13.8917 24.5157 14.1824 24.5258 16.4997 24.5258C18.8175 24.5258 19.1074 24.5157 20.0176 24.4743C20.9261 24.4327 21.5469 24.2888 22.0898 24.0778C22.6509 23.8599 23.1263 23.5676 23.6004 23.0929C24.0751 22.6186 24.3667 22.1425 24.5853 21.5814C24.7951 21.0387 24.9391 20.4184 24.9818 19.5103C25.0227 18.6001 25.0333 18.3099 25.0333 15.9924C25.0333 13.6749 25.0227 13.384 24.9818 12.4738C24.9391 11.5653 24.7951 10.9452 24.5853 10.4027C24.3667 9.84141 24.0751 9.36532 23.6004 8.891C23.1258 8.41633 22.6511 8.12477 22.0893 7.90699C21.5453 7.69596 20.9249 7.55214 20.0164 7.51054C19.1062 7.46912 18.8164 7.45898 16.4981 7.45898H16.5008ZM15.7353 8.99675C15.9625 8.9964 16.216 8.99675 16.5008 8.99675C18.7792 8.99675 19.0492 9.00493 19.949 9.04582C20.781 9.08387 21.2326 9.22289 21.5334 9.33969C21.9316 9.49436 22.2155 9.67925 22.514 9.97792C22.8127 10.2766 22.9976 10.561 23.1526 10.9593C23.2694 11.2597 23.4086 11.7113 23.4464 12.5433C23.4873 13.4428 23.4962 13.7131 23.4962 15.9904C23.4962 18.2678 23.4873 18.538 23.4464 19.4376C23.4084 20.2696 23.2694 20.7211 23.1526 21.0216C22.9979 21.4198 22.8127 21.7034 22.514 22.0019C22.2153 22.3005 21.9318 22.4854 21.5334 22.6401C21.2329 22.7574 20.781 22.8961 19.949 22.9341C19.0494 22.975 18.7792 22.9839 16.5008 22.9839C14.2222 22.9839 13.9521 22.975 13.0526 22.9341C12.2205 22.8957 11.769 22.7567 11.468 22.6399C11.0698 22.4853 10.7853 22.3004 10.4867 22.0017C10.188 21.703 10.0031 21.4193 9.84808 21.0209C9.73128 20.7204 9.59208 20.2689 9.55421 19.4369C9.51332 18.5373 9.50514 18.2671 9.50514 15.9883C9.50514 13.7095 9.51332 13.4407 9.55421 12.5411C9.59226 11.7091 9.73128 11.2576 9.84808 10.9568C10.0027 10.5585 10.188 10.2741 10.4867 9.97543C10.7853 9.67676 11.0698 9.49187 11.468 9.33685C11.7688 9.21951 12.2205 9.08084 13.0526 9.04262C13.8398 9.00707 14.1448 8.9964 15.7353 8.99462V8.99675ZM21.0558 10.4137C20.4905 10.4137 20.0318 10.8718 20.0318 11.4373C20.0318 12.0027 20.4905 12.4613 21.0558 12.4613C21.6212 12.4613 22.0799 12.0027 22.0799 11.4373C22.0799 10.872 21.6212 10.4137 21.0558 10.4137ZM16.5008 11.6101C14.0807 11.6101 12.1186 13.5723 12.1186 15.9924C12.1186 18.4125 14.0807 20.3738 16.5008 20.3738C18.9209 20.3738 20.8824 18.4125 20.8824 15.9924C20.8824 13.5723 18.9209 11.6101 16.5008 11.6101ZM16.5008 13.1479C18.0717 13.1479 19.3453 14.4213 19.3453 15.9924C19.3453 17.5632 18.0717 18.8369 16.5008 18.8369C14.9298 18.8369 13.6563 17.5632 13.6563 15.9924C13.6563 14.4213 14.9298 13.1479 16.5008 13.1479Z" fill="#565656"/>
</svg>
