<?xml version="1.0" encoding="utf-8"?>
<!-- Generator: Adobe Illustrator 18.0.0, SVG Export Plug-In . SVG Version: 6.00 Build 0)  -->
<!DOCTYPE svg PUBLIC "-//W3C//DTD SVG 1.1//EN" "http://www.w3.org/Graphics/SVG/1.1/DTD/svg11.dtd">
<svg version="1.1" id="Livello_1" xmlns="http://www.w3.org/2000/svg" xmlns:xlink="http://www.w3.org/1999/xlink" x="0px" y="0px"
	 viewBox="0 0 35 35" enable-background="new 0 0 35 35" xml:space="preserve">
<path opacity="0.1" fill="#565656" enable-background="new    " d="M1,18C1,9.2,8.2,2,17,2s16,7.2,16,16s-7.2,16-16,16S1,26.8,1,18z
	"/>
<path fill="#565656" d="M23.7,12.5c0.7,0.2,1.3,0.8,1.5,1.5c0.4,1.4,0.4,4.2,0.4,4.2s0,2.9-0.4,4.2c-0.2,0.8-0.8,1.3-1.5,1.6
	c-1.3,0.4-6.7,0.4-6.7,0.4s-5.3,0-6.7-0.4c-0.7-0.2-1.3-0.8-1.5-1.6c-0.4-1.4-0.4-4.2-0.4-4.2s0-2.9,0.4-4.2
	c0.2-0.8,0.8-1.3,1.5-1.5c1.3-0.4,6.7-0.4,6.7-0.4S22.3,12.1,23.7,12.5z M15.4,15.9v5.3l4.3-2.7L15.4,15.9z"/>
</svg>
