<svg width="33" height="32" viewBox="0 0 33 32" fill="none" xmlns="http://www.w3.org/2000/svg">
<path opacity="0.1" fill-rule="evenodd" clip-rule="evenodd" d="M0.5 15.9922C0.5 7.15563 7.66344 -0.0078125 16.5 -0.0078125C25.3366 -0.0078125 32.5 7.15563 32.5 15.9922C32.5 24.8287 25.3366 31.9922 16.5 31.9922C7.66344 31.9922 0.5 24.8287 0.5 15.9922Z" fill="#565656"/>
<path fill-rule="evenodd" clip-rule="evenodd" d="M25.0333 15.9805C25.0333 16.5576 24.9746 17.1339 24.8592 17.6956C24.7467 18.244 24.58 18.7824 24.3617 19.2971C24.1483 19.8027 23.8837 20.2899 23.5745 20.7443C23.27 21.1958 22.9191 21.6193 22.5337 22.0054C22.1474 22.3899 21.7224 22.7398 21.2711 23.0457C20.8152 23.3527 20.3273 23.6169 19.8214 23.8312C19.306 24.0484 18.7664 24.2149 18.2184 24.3272C17.6559 24.4429 17.0775 24.502 16.4996 24.502C15.9213 24.502 15.3429 24.4429 14.7812 24.3272C14.2324 24.2149 13.6928 24.0484 13.1778 23.8312C12.6719 23.6169 12.1836 23.3527 11.7277 23.0457C11.2764 22.7398 10.8514 22.3899 10.466 22.0054C10.0801 21.6193 9.72927 21.1958 9.42426 20.7443C9.11674 20.2899 8.85171 19.8027 8.63755 19.2971C8.41917 18.7824 8.25211 18.244 8.13918 17.6956C8.02502 17.1339 7.96667 16.5576 7.96667 15.9805C7.96667 15.403 8.02498 14.8254 8.13921 14.2649C8.25214 13.7165 8.41921 13.1773 8.63758 12.6634C8.85174 12.1575 9.11677 11.6698 9.42429 11.2154C9.7293 10.7636 10.0802 10.3408 10.466 9.95426C10.8515 9.56977 11.2765 9.22071 11.7277 8.91531C12.1836 8.60696 12.672 8.34278 13.1778 8.12806C13.6929 7.91041 14.2324 7.74358 14.7812 7.63208C15.3429 7.51725 15.9213 7.45898 16.4997 7.45898C17.0776 7.45898 17.6559 7.51725 18.2185 7.63208C18.7664 7.74361 19.306 7.91044 19.8215 8.12806C20.3273 8.34275 20.8153 8.60696 21.2711 8.91531C21.7224 9.22071 22.1474 9.56977 22.5337 9.95426C22.9191 10.3408 23.27 10.7636 23.5746 11.2154C23.8837 11.6698 24.1483 12.1575 24.3617 12.6634C24.58 13.1773 24.7467 13.7165 24.8592 14.2649C24.9746 14.8254 25.0333 15.403 25.0333 15.9805ZM13.3903 9.39836C11.358 10.3566 9.8413 12.2265 9.36835 14.4801C9.56047 14.4817 12.5973 14.52 16.0962 13.5917C14.8349 11.354 13.4873 9.5278 13.3903 9.39836ZM16.7 14.7123C12.9477 15.834 9.34711 15.7533 9.21795 15.7483C9.21584 15.8265 9.2121 15.9022 9.2121 15.9805C9.2121 17.8499 9.91839 19.5542 11.0793 20.8429C11.0768 20.8391 13.0711 17.3061 17.0038 16.0362C17.0988 16.0046 17.1954 15.9763 17.2913 15.9489C17.1084 15.5353 16.9087 15.1209 16.7 14.7123ZM21.3123 10.5189C20.0293 9.3892 18.3447 8.70395 16.4996 8.70395C15.9075 8.70395 15.3329 8.77552 14.7824 8.90783C14.8916 9.05431 16.2604 10.8676 17.5067 13.1527C20.2565 12.1233 21.2944 10.5455 21.3123 10.5189ZM17.788 17.1547C17.7718 17.16 17.7556 17.1647 17.7397 17.1705C13.44 18.6673 12.0358 21.6837 12.0206 21.7167C13.2578 22.6774 14.8096 23.257 16.4996 23.257C17.5088 23.257 18.4701 23.0518 19.3447 22.6803C19.2368 22.0445 18.8135 19.816 17.788 17.1547ZM20.5719 22.0154C22.2082 20.9128 23.3703 19.1619 23.6945 17.1338C23.5445 17.0856 21.5057 16.441 19.1534 16.8176C20.1093 19.4407 20.4977 21.5769 20.5719 22.0154ZM18.0676 14.2371C18.2368 14.5841 18.4006 14.9373 18.5518 15.2923C18.6056 15.4196 18.6581 15.5444 18.7093 15.6692C21.2128 15.3547 23.6792 15.8839 23.7846 15.9055C23.7679 14.1805 23.15 12.5972 22.1274 11.3577C22.1137 11.3773 20.9449 13.0637 18.0676 14.2371Z" fill="#565656"/>
</svg>
