<?xml version="1.0" standalone="no"?>
<!DOCTYPE svg PUBLIC "-//W3C//DTD SVG 20010904//EN"
 "http://www.w3.org/TR/2001/REC-SVG-20010904/DTD/svg10.dtd">
<svg version="1.0" xmlns="http://www.w3.org/2000/svg"
 width="218.000000pt" height="105.000000pt" viewBox="0 0 218.000000 105.000000"
 preserveAspectRatio="xMidYMid meet">

<g transform="translate(0.000000,105.000000) scale(0.100000,-0.100000)"
fill="#000000" stroke="none">
<path d="M1323 1044 c-7 -3 -13 -20 -13 -38 0 -25 -6 -35 -25 -44 -22 -10 -25
-9 -31 13 -11 44 -34 26 -59 -44 -11 -31 -12 -48 -4 -62 7 -13 6 -31 -2 -59
-23 -75 26 -160 91 -160 36 0 44 -10 20 -27 -11 -8 -20 -23 -20 -34 0 -11 -15
-33 -32 -50 l-32 -29 -523 0 c-488 0 -522 -1 -527 -17 -37 -122 -136 -469
-136 -475 0 -4 446 -7 992 -6 l991 3 72 245 71 245 -52 3 c-50 3 -53 4 -59 35
-14 68 -15 70 -47 63 -29 -6 -30 -5 -23 22 4 15 9 73 11 128 5 116 -1 127 -62
122 -44 -4 -65 -28 -47 -57 10 -16 6 -20 -48 -35 -32 -9 -61 -16 -64 -16 -2 0
-16 22 -29 49 -24 46 -109 131 -132 131 -6 0 -19 9 -29 20 -21 24 -38 25 -58
6 -25 -26 -87 -20 -87 8 0 31 -75 73 -107 60z m61 -35 c14 -11 26 -26 26 -33
0 -7 16 -20 35 -29 28 -13 35 -22 35 -45 0 -42 -20 -146 -31 -157 -5 -5 -9
-16 -9 -25 0 -9 5 -5 13 9 15 30 131 111 158 111 28 0 96 -66 110 -107 6 -19
9 -55 6 -80 -4 -38 -2 -43 12 -38 9 4 33 9 53 12 34 5 36 4 31 -16 -4 -16 -24
-27 -83 -45 -43 -14 -97 -26 -119 -28 -25 -1 -48 -9 -58 -20 -10 -11 -30 -18
-52 -18 -58 0 -81 10 -81 34 0 11 -4 28 -10 36 -6 9 -5 17 1 21 6 3 1 9 -10
12 -20 5 -20 4 -6 -24 17 -31 20 -105 6 -114 -6 -3 -15 3 -21 12 -10 16 -10
16 -5 -3 4 -16 0 -23 -15 -27 -11 -3 -23 -1 -26 4 -3 5 -10 7 -15 3 -5 -3 -16
10 -25 28 -14 32 -14 12 1 -24 6 -15 2 -18 -20 -18 -21 0 -26 4 -21 16 5 14 4
15 -9 4 -12 -10 -16 -8 -24 11 -8 20 -5 28 16 47 20 19 28 21 34 10 6 -8 9 0
9 24 0 40 21 68 49 68 10 0 31 10 46 21 21 18 26 28 21 50 -3 16 -1 31 4 34 6
4 17 20 26 36 14 28 13 32 -6 56 -11 14 -20 20 -20 13 0 -7 7 -18 16 -25 15
-11 15 -14 0 -44 -10 -19 -32 -38 -54 -47 -20 -9 -52 -23 -70 -32 -25 -12 -37
-13 -57 -4 -45 21 -43 42 11 91 27 24 44 42 38 38 -18 -11 -37 47 -30 89 5 25
16 40 37 52 21 12 29 24 28 42 0 14 -1 28 0 33 2 13 28 7 55 -14z m181 -49 c4
-6 -5 -10 -20 -10 -15 0 -24 4 -20 10 3 6 12 10 20 10 8 0 17 -4 20 -10z m-5
-54 c0 -20 -19 -31 -32 -18 -6 6 -7 15 -4 21 10 16 36 13 36 -3z m-302 -90
c-1 -14 -6 -22 -10 -20 -12 7 -10 44 2 44 5 0 9 -11 8 -24z m277 14 c-3 -5
-10 -10 -16 -10 -5 0 -9 5 -9 10 0 6 7 10 16 10 8 0 12 -4 9 -10z m-135 -150
c0 -24 -34 -43 -60 -35 -11 4 -20 15 -20 27 0 12 5 18 13 15 7 -3 21 1 31 9
23 16 36 10 36 -16z m628 -156 c6 -37 18 -75 28 -85 9 -10 14 -25 10 -34 -8
-21 -79 -51 -84 -36 -2 6 -8 8 -14 5 -29 -18 -39 96 -12 135 16 22 16 23 -4
12 -20 -11 -20 -10 -6 19 15 29 39 49 60 50 6 0 16 -30 22 -66z m-203 9 l6
-23 -123 1 -123 0 85 19 c47 10 96 22 110 28 28 11 35 7 45 -25z m-603 -78
c14 -15 35 -27 53 -28 l30 -2 5 -147 c5 -143 6 -148 32 -174 45 -45 171 -43
210 3 9 11 15 62 18 167 l5 151 43 -89 c40 -84 42 -94 42 -177 l0 -89 43 0 42
0 -3 82 c-3 80 -2 86 42 181 25 54 46 100 46 103 0 2 -20 4 -45 4 -42 0 -47
-3 -62 -35 -9 -19 -19 -35 -23 -35 -3 0 -12 16 -19 35 l-12 35 -90 0 -89 0 0
-134 c0 -147 -5 -160 -57 -154 l-28 3 -3 141 c-2 137 -2 141 22 163 25 24 48
25 476 21 24 0 25 -3 22 -46 -5 -58 16 -84 67 -84 43 0 101 33 101 57 0 10 -7
27 -15 37 -22 30 -18 41 15 41 20 0 30 -5 29 -15 0 -8 -28 -109 -62 -225 l-62
-210 -968 -3 c-532 -1 -967 2 -967 6 0 7 110 394 124 437 2 7 179 9 510 8
l506 -2 22 -26z"/>
<path d="M1345 1001 c-3 -5 0 -13 6 -17 8 -5 9 -3 4 6 -5 8 -3 11 6 8 8 -3 13
-11 12 -17 -2 -6 2 -11 7 -11 14 0 13 13 -2 28 -14 14 -25 15 -33 3z"/>
<path d="M1310 926 c0 -9 7 -12 20 -9 11 3 17 9 14 14 -8 14 -34 10 -34 -5z"/>
<path d="M1356 872 c1 -15 -4 -34 -10 -42 -6 -9 -2 -8 11 3 13 11 19 25 16 38
-8 30 -19 31 -17 1z"/>
<path d="M1389 883 c-13 -16 -12 -17 4 -4 16 13 21 21 13 21 -2 0 -10 -8 -17
-17z"/>
<path d="M1331 854 c0 -11 3 -14 6 -6 3 7 2 16 -1 19 -3 4 -6 -2 -5 -13z"/>
<path d="M1410 860 c-9 -6 -10 -10 -3 -10 6 0 15 5 18 10 8 12 4 12 -15 0z"/>
<path d="M1339 791 c11 -7 7 -14 -20 -30 -19 -12 -43 -21 -54 -21 -18 0 -18 2
5 21 19 16 20 18 4 10 -11 -5 -27 -17 -34 -27 -12 -14 -12 -18 5 -30 39 -29
87 -12 104 37 11 33 8 49 -12 49 -8 0 -7 -4 2 -9z"/>
<path d="M1441 670 c-1 -23 19 -89 29 -95 8 -5 2 20 -23 95 -5 13 -6 13 -6 0z"/>
<path d="M1400 626 c0 -2 7 -7 16 -10 8 -3 12 -2 9 4 -6 10 -25 14 -25 6z"/>
<path d="M340 256 l0 -186 40 0 40 0 0 55 c0 54 1 55 29 55 47 0 91 21 106 51
8 15 15 55 15 88 0 49 -4 65 -24 88 -23 26 -30 28 -115 31 l-91 4 0 -186z
m138 60 c3 -40 -8 -56 -40 -56 -15 0 -18 9 -18 51 0 49 1 50 28 47 24 -3 27
-8 30 -42z"/>
<path d="M613 416 l-28 -24 -3 -161 -3 -161 115 0 116 0 0 40 0 40 -70 0 -70
0 0 35 0 35 58 0 57 0 0 40 0 40 -57 0 c-57 0 -58 0 -58 29 0 35 16 41 123 41
l77 0 0 -150 0 -150 45 0 45 0 0 145 0 145 35 0 c34 0 35 1 35 40 l0 40 -194
0 c-192 0 -195 0 -223 -24z"/>
<path d="M1073 416 l-28 -24 -5 -161 -5 -161 85 0 c96 0 146 18 168 60 18 35
10 115 -15 143 -15 16 -19 28 -13 43 35 91 -108 168 -187 100z m104 -90 c-9
-24 -57 -21 -57 4 0 27 31 43 49 25 7 -7 11 -21 8 -29z m27 -118 c17 -27 -5
-52 -48 -56 l-36 -3 0 41 0 41 36 -3 c22 -2 42 -10 48 -20z"/>
</g>
</svg>
