<svg width="33" height="32" viewBox="0 0 33 32" fill="none" xmlns="http://www.w3.org/2000/svg">
<path opacity="0.1" fill-rule="evenodd" clip-rule="evenodd" d="M0.5 15.9922C0.5 7.15563 7.66344 -0.0078125 16.5 -0.0078125C25.3366 -0.0078125 32.5 7.15563 32.5 15.9922C32.5 24.8287 25.3366 31.9922 16.5 31.9922C7.66344 31.9922 0.5 24.8287 0.5 15.9922Z" fill="#565656"/>
<path fill-rule="evenodd" clip-rule="evenodd" d="M23.1677 10.4917C23.9021 10.6932 24.4804 11.287 24.6767 12.041C25.0333 13.4075 25.0333 16.2588 25.0333 16.2588C25.0333 16.2588 25.0333 19.11 24.6767 20.4767C24.4804 21.2307 23.9021 21.8244 23.1677 22.026C21.8369 22.3922 16.5 22.3922 16.5 22.3922C16.5 22.3922 11.1631 22.3922 9.83218 22.026C9.09783 21.8244 8.5195 21.2307 8.32323 20.4767C7.96667 19.11 7.96667 16.2588 7.96667 16.2588C7.96667 16.2588 7.96667 13.4075 8.32323 12.041C8.5195 11.287 9.09783 10.6932 9.83218 10.4917C11.1631 10.1255 16.5 10.1255 16.5 10.1255C16.5 10.1255 21.8369 10.1255 23.1677 10.4917ZM14.9 13.8588V19.1921L19.1667 16.5255L14.9 13.8588Z" fill="#565656"/>
</svg>
