<svg width="33" height="32" viewBox="0 0 33 32" fill="none" xmlns="http://www.w3.org/2000/svg">
<path opacity="0.1" fill-rule="evenodd" clip-rule="evenodd" d="M0.5 15.9922C0.5 7.15563 7.66344 -0.0078125 16.5 -0.0078125C25.3366 -0.0078125 32.5 7.15563 32.5 15.9922C32.5 24.8287 25.3366 31.9922 16.5 31.9922C7.66344 31.9922 0.5 24.8287 0.5 15.9922Z" fill="#565656"/>
<path fill-rule="evenodd" clip-rule="evenodd" d="M16.0208 12.9973L16.0544 13.5509L15.4948 13.4831C13.4579 13.2233 11.6784 12.342 10.1676 10.8618L9.42891 10.1274L9.23865 10.6698C8.83575 11.8787 9.09316 13.1555 9.93253 14.0142C10.3802 14.4887 10.2795 14.5565 9.50725 14.274C9.23865 14.1836 9.00363 14.1159 8.98124 14.1498C8.9029 14.2288 9.1715 15.257 9.38414 15.6638C9.67513 16.2287 10.2683 16.7823 10.9174 17.11L11.4658 17.3699L10.8167 17.3812C10.1899 17.3812 10.1676 17.3925 10.2347 17.6298C10.4585 18.3642 11.3427 19.1438 12.3276 19.4827L13.0214 19.72L12.4171 20.0816C11.5218 20.6013 10.4697 20.8951 9.41772 20.9177C8.91409 20.929 8.5 20.9742 8.5 21.0081C8.5 21.121 9.86538 21.7538 10.66 22.0023C13.0438 22.7368 15.8753 22.4204 18.0017 21.1662C19.5126 20.2736 21.0235 18.4998 21.7286 16.7823C22.1091 15.8672 22.4896 14.1949 22.4896 13.3927C22.4896 12.873 22.5232 12.8052 23.1499 12.1838C23.5192 11.8222 23.8662 11.4268 23.9333 11.3138C24.0452 11.0991 24.034 11.0991 23.4633 11.2912C22.512 11.6301 22.3777 11.5849 22.8477 11.0765C23.1947 10.7149 23.6088 10.0596 23.6088 9.86755C23.6088 9.83365 23.4409 9.89014 23.2506 9.99183C23.0492 10.1048 22.6015 10.2743 22.2658 10.376L21.6614 10.5681L21.113 10.1952C20.8108 9.99183 20.3856 9.76586 20.1617 9.69807C19.5909 9.53988 18.718 9.56248 18.2032 9.74326C16.8042 10.2517 15.9201 11.5624 16.0208 12.9973Z" fill="#565656"/>
</svg>
