<?xml version="1.0" encoding="utf-8"?>
<!-- Generator: Adobe Illustrator 18.0.0, SVG Export Plug-In . SVG Version: 6.00 Build 0)  -->
<!DOCTYPE svg PUBLIC "-//W3C//DTD SVG 1.1//EN" "http://www.w3.org/Graphics/SVG/1.1/DTD/svg11.dtd">
<svg version="1.1" id="Livello_1" xmlns="http://www.w3.org/2000/svg" xmlns:xlink="http://www.w3.org/1999/xlink" x="0px" y="0px"
	 viewBox="0 0 35 35" enable-background="new 0 0 35 35" xml:space="preserve">
<path opacity="0.1" fill="#565656" enable-background="new    " d="M1.5,17.1c0-8.8,7.2-16,16-16c8.8,0,16,7.2,16,16s-7.2,16-16,16
	C8.7,33.1,1.5,25.9,1.5,17.1z"/>
<path fill="#565656" d="M26,17.1c0,0.6-0.1,1.2-0.2,1.7c-0.1,0.5-0.3,1.1-0.5,1.6c-0.2,0.5-0.5,1-0.8,1.4c-0.3,0.5-0.7,0.9-1,1.3
	c-0.4,0.4-0.8,0.7-1.3,1c-0.5,0.3-0.9,0.6-1.4,0.8c-0.5,0.2-1.1,0.4-1.6,0.5c-0.6,0.1-1.1,0.2-1.7,0.2c-0.6,0-1.2-0.1-1.7-0.2
	c-0.5-0.1-1.1-0.3-1.6-0.5c-0.5-0.2-1-0.5-1.5-0.8c-0.5-0.3-0.9-0.7-1.3-1c-0.4-0.4-0.7-0.8-1-1.3c-0.3-0.5-0.6-0.9-0.8-1.4
	c-0.2-0.5-0.4-1.1-0.5-1.6C9,18.2,9,17.7,9,17.1c0-0.6,0.1-1.2,0.2-1.7c0.1-0.5,0.3-1.1,0.5-1.6c0.2-0.5,0.5-1,0.8-1.4
	c0.3-0.5,0.7-0.9,1-1.3c0.4-0.4,0.8-0.7,1.3-1c0.5-0.3,0.9-0.6,1.5-0.8c0.5-0.2,1.1-0.4,1.6-0.5c0.6-0.1,1.1-0.2,1.7-0.2
	c0.6,0,1.2,0.1,1.7,0.2c0.5,0.1,1.1,0.3,1.6,0.5c0.5,0.2,1,0.5,1.4,0.8c0.5,0.3,0.9,0.7,1.3,1c0.4,0.4,0.7,0.8,1,1.3
	c0.3,0.5,0.6,0.9,0.8,1.4c0.2,0.5,0.4,1.1,0.5,1.6C26,15.9,26,16.5,26,17.1z M14.4,10.5c-2,1-3.5,2.8-4,5.1c0.2,0,3.2,0,6.7-0.9
	C15.8,12.4,14.5,10.6,14.4,10.5z M17.7,15.8c-3.8,1.1-7.4,1-7.5,1c0,0.1,0,0.2,0,0.2c0,1.9,0.7,3.6,1.9,4.9c0,0,2-3.5,5.9-4.8
	c0.1,0,0.2-0.1,0.3-0.1C18.1,16.6,17.9,16.2,17.7,15.8z M22.3,11.6c-1.3-1.1-3-1.8-4.8-1.8c-0.6,0-1.2,0.1-1.7,0.2
	c0.1,0.1,1.5,2,2.7,4.2C21.3,13.2,22.3,11.6,22.3,11.6z M18.8,18.2C18.8,18.3,18.8,18.3,18.8,18.2c-4.3,1.5-5.8,4.5-5.8,4.6
	c1.2,1,2.8,1.5,4.5,1.5c1,0,2-0.2,2.8-0.6C20.2,23.1,19.8,20.9,18.8,18.2z M21.6,23.1c1.6-1.1,2.8-2.9,3.1-4.9
	c-0.1,0-2.2-0.7-4.5-0.3C21.1,20.5,21.5,22.7,21.6,23.1z M19.1,15.3c0.2,0.3,0.3,0.7,0.5,1.1c0.1,0.1,0.1,0.3,0.2,0.4
	c2.5-0.3,5,0.2,5.1,0.2c0-1.7-0.6-3.3-1.7-4.5C23.1,12.5,21.9,14.2,19.1,15.3z"/>
</svg>
