<?xml version="1.0" encoding="utf-8"?>
<!-- Generator: Adobe Illustrator 18.0.0, SVG Export Plug-In . SVG Version: 6.00 Build 0)  -->
<!DOCTYPE svg PUBLIC "-//W3C//DTD SVG 1.1//EN" "http://www.w3.org/Graphics/SVG/1.1/DTD/svg11.dtd">
<svg version="1.1" id="Livello_1" xmlns="http://www.w3.org/2000/svg" xmlns:xlink="http://www.w3.org/1999/xlink" x="0px" y="0px"
	 viewBox="0 0 35 35" enable-background="new 0 0 35 35" xml:space="preserve">
<path opacity="0.1" fill="#565656" enable-background="new    " d="M2,17C2,8.2,9.2,1,18,1s16,7.2,16,16s-7.2,16-16,16S2,25.8,2,17z
	"/>
<path fill="#565656" d="M17.5,14l0,0.6L17,14.5c-2-0.3-3.8-1.1-5.3-2.6l-0.7-0.7l-0.2,0.5c-0.4,1.2-0.1,2.5,0.7,3.3
	c0.4,0.5,0.3,0.5-0.4,0.3c-0.3-0.1-0.5-0.2-0.5-0.1c-0.1,0.1,0.2,1.1,0.4,1.5c0.3,0.6,0.9,1.1,1.5,1.4l0.5,0.3l-0.6,0
	c-0.6,0-0.6,0-0.6,0.2c0.2,0.7,1.1,1.5,2.1,1.9l0.7,0.2l-0.6,0.4c-0.9,0.5-1.9,0.8-3,0.8C10.4,21.9,10,22,10,22c0,0.1,1.4,0.7,2.2,1
	c2.4,0.7,5.2,0.4,7.3-0.8c1.5-0.9,3-2.7,3.7-4.4c0.4-0.9,0.8-2.6,0.8-3.4c0-0.5,0-0.6,0.7-1.2c0.4-0.4,0.7-0.8,0.8-0.9
	c0.1-0.2,0.1-0.2-0.5,0c-1,0.3-1.1,0.3-0.6-0.2c0.3-0.4,0.8-1,0.8-1.2c0,0-0.2,0-0.4,0.1c-0.2,0.1-0.6,0.3-1,0.4l-0.6,0.2l-0.5-0.4
	c-0.3-0.2-0.7-0.4-1-0.5c-0.6-0.2-1.4-0.1-2,0C18.3,11.3,17.4,12.6,17.5,14z"/>
</svg>
