<svg width="287" height="287" viewBox="0 0 287 287" fill="none" xmlns="http://www.w3.org/2000/svg">
<g clip-path="url(#clip0_403_168)">
<rect x="0.100586" width="286.651" height="286.651" rx="5" fill="#FAF9F8"/>
<path d="M198.201 0H282.201C284.963 0 287.201 2.23858 287.201 5V31H203.201C200.44 31 198.201 28.7614 198.201 26V0Z" fill="#F87537"/>
<g clip-path="url(#clip1_403_168)">
<path d="M220.535 18.4997C220.844 18.4997 221.141 18.6226 221.359 18.8414C221.578 19.0602 221.701 19.3569 221.701 19.6663C221.701 19.3569 221.824 19.0602 222.043 18.8414C222.262 18.6226 222.558 18.4997 222.868 18.4997C222.558 18.4997 222.262 18.3768 222.043 18.158C221.824 17.9392 221.701 17.6424 221.701 17.333C221.701 17.6424 221.578 17.9392 221.359 18.158C221.141 18.3768 220.844 18.4997 220.535 18.4997ZM220.535 11.4997C220.844 11.4997 221.141 11.6226 221.359 11.8414C221.578 12.0602 221.701 12.3569 221.701 12.6663C221.701 12.3569 221.824 12.0602 222.043 11.8414C222.262 11.6226 222.558 11.4997 222.868 11.4997C222.558 11.4997 222.262 11.3768 222.043 11.158C221.824 10.9392 221.701 10.6424 221.701 10.333C221.701 10.6424 221.578 10.9392 221.359 11.158C221.141 11.3768 220.844 11.4997 220.535 11.4997ZM216.451 18.4997C216.451 17.5714 216.82 16.6812 217.476 16.0248C218.133 15.3684 219.023 14.9997 219.951 14.9997C219.023 14.9997 218.133 14.6309 217.476 13.9745C216.82 13.3182 216.451 12.4279 216.451 11.4997C216.451 12.4279 216.082 13.3182 215.426 13.9745C214.77 14.6309 213.879 14.9997 212.951 14.9997C213.879 14.9997 214.77 15.3684 215.426 16.0248C216.082 16.6812 216.451 17.5714 216.451 18.4997Z" stroke="#FAF9F8" stroke-width="1.16667" stroke-linecap="round" stroke-linejoin="round"/>
</g>
<path d="M236.142 20H234.546L229.744 12.734V20H228.148V10.256H229.744L234.546 17.508V10.256H236.142V20ZM245.224 12.286V20H243.628V19.09C243.376 19.4073 243.044 19.6593 242.634 19.846C242.232 20.0233 241.803 20.112 241.346 20.112C240.739 20.112 240.193 19.986 239.708 19.734C239.232 19.482 238.854 19.1087 238.574 18.614C238.303 18.1193 238.168 17.522 238.168 16.822V12.286H239.75V16.584C239.75 17.2747 239.922 17.8067 240.268 18.18C240.613 18.544 241.084 18.726 241.682 18.726C242.279 18.726 242.75 18.544 243.096 18.18C243.45 17.8067 243.628 17.2747 243.628 16.584V12.286H245.224ZM250.675 20.126C249.947 20.126 249.289 19.9627 248.701 19.636C248.113 19.3 247.651 18.8333 247.315 18.236C246.979 17.6293 246.811 16.9293 246.811 16.136C246.811 15.352 246.984 14.6567 247.329 14.05C247.675 13.4433 248.146 12.9767 248.743 12.65C249.341 12.3233 250.008 12.16 250.745 12.16C251.483 12.16 252.15 12.3233 252.747 12.65C253.345 12.9767 253.816 13.4433 254.161 14.05C254.507 14.6567 254.679 15.352 254.679 16.136C254.679 16.92 254.502 17.6153 254.147 18.222C253.793 18.8287 253.307 19.3 252.691 19.636C252.085 19.9627 251.413 20.126 250.675 20.126ZM250.675 18.74C251.086 18.74 251.469 18.642 251.823 18.446C252.187 18.25 252.481 17.956 252.705 17.564C252.929 17.172 253.041 16.696 253.041 16.136C253.041 15.576 252.934 15.1047 252.719 14.722C252.505 14.33 252.22 14.036 251.865 13.84C251.511 13.644 251.128 13.546 250.717 13.546C250.307 13.546 249.924 13.644 249.569 13.84C249.224 14.036 248.949 14.33 248.743 14.722C248.538 15.1047 248.435 15.576 248.435 16.136C248.435 16.9667 248.645 17.6107 249.065 18.068C249.495 18.516 250.031 18.74 250.675 18.74ZM259.239 18.572L261.423 12.286H263.117L260.177 20H258.273L255.347 12.286H257.055L259.239 18.572ZM267.669 20.126C266.941 20.126 266.283 19.9627 265.695 19.636C265.107 19.3 264.645 18.8333 264.309 18.236C263.973 17.6293 263.805 16.9293 263.805 16.136C263.805 15.352 263.978 14.6567 264.323 14.05C264.669 13.4433 265.14 12.9767 265.737 12.65C266.335 12.3233 267.002 12.16 267.739 12.16C268.477 12.16 269.144 12.3233 269.741 12.65C270.339 12.9767 270.81 13.4433 271.155 14.05C271.501 14.6567 271.673 15.352 271.673 16.136C271.673 16.92 271.496 17.6153 271.141 18.222C270.787 18.8287 270.301 19.3 269.685 19.636C269.079 19.9627 268.407 20.126 267.669 20.126ZM267.669 18.74C268.08 18.74 268.463 18.642 268.817 18.446C269.181 18.25 269.475 17.956 269.699 17.564C269.923 17.172 270.035 16.696 270.035 16.136C270.035 15.576 269.928 15.1047 269.713 14.722C269.499 14.33 269.214 14.036 268.859 13.84C268.505 13.644 268.122 13.546 267.711 13.546C267.301 13.546 266.918 13.644 266.563 13.84C266.218 14.036 265.943 14.33 265.737 14.722C265.532 15.1047 265.429 15.576 265.429 16.136C265.429 16.9667 265.639 17.6107 266.059 18.068C266.489 18.516 267.025 18.74 267.669 18.74Z" fill="#FAF9F8"/>
<g clip-path="url(#clip2_403_168)">
<path d="M158.326 90.9166C162.973 90.9161 167.486 92.4691 171.149 95.3286C174.811 98.188 177.413 102.19 178.54 106.698L178.623 107.073L179.04 107.172C182.465 108.034 185.615 109.753 188.194 112.168C190.772 114.582 192.694 117.612 193.779 120.974L194.076 121.979C195.142 125.951 195.008 130.15 193.692 134.046C192.375 137.942 189.935 141.362 186.679 143.874C183.422 146.385 179.495 147.877 175.392 148.161C171.289 148.445 167.194 147.508 163.623 145.469L163.378 145.318L145.019 163.677L145.238 164.042C146.881 166.964 147.794 170.241 147.9 173.592C148.006 176.943 147.302 180.271 145.847 183.292L145.316 184.318C143.134 188.272 139.727 191.41 135.607 193.26C131.486 195.11 126.877 195.57 122.472 194.573C118.742 193.725 115.318 191.865 112.578 189.196C109.837 186.527 107.887 183.154 106.941 179.448L106.821 178.953L106.102 178.781C102.606 177.849 99.4132 176.022 96.8378 173.48C94.2624 170.938 92.3934 167.77 91.4148 164.286L91.1543 163.25C90.264 159.317 90.5341 155.21 91.932 151.428C93.3299 147.645 95.7955 144.35 99.0296 141.941C102.264 139.533 106.127 138.114 110.152 137.859C114.176 137.603 118.188 138.52 121.701 140.5L122.055 140.708L140.41 122.354L140.222 122.036C138.758 119.45 137.865 116.581 137.602 113.621C137.339 110.661 137.712 107.679 138.696 104.875L139.107 103.807C140.684 100 143.353 96.7459 146.779 94.456C150.204 92.1661 154.232 90.9435 158.352 90.9426L157.628 90.9634L157.732 90.9478L158.326 90.9166Z" fill="#CBCBCB"/>
</g>
<path d="M27.2329 16.868C27.4698 16.4743 28.0407 16.4743 28.2777 16.868L30.8331 21.1143C30.9182 21.2558 31.0571 21.3567 31.2179 21.3939L36.0461 22.5121C36.4938 22.6158 36.6702 23.1587 36.3689 23.5058L33.1201 27.2483C33.0119 27.373 32.9589 27.5362 32.9732 27.7007L33.4016 32.6381C33.4414 33.0959 32.9795 33.4315 32.5564 33.2522L27.9931 31.319C27.8411 31.2546 27.6694 31.2546 27.5174 31.319L22.9541 33.2522C22.531 33.4315 22.0691 33.0959 22.1089 32.6381L22.5374 27.7007C22.5516 27.5362 22.4986 27.373 22.3904 27.2483L19.1416 23.5058C18.8403 23.1587 19.0167 22.6158 19.4644 22.5121L24.2926 21.3939C24.4534 21.3567 24.5923 21.2558 24.6774 21.1143L27.2329 16.868Z" fill="#FF7C00"/>
<path d="M53.7592 16.868C53.9962 16.4743 54.567 16.4743 54.804 16.868L57.3595 21.1143C57.4446 21.2558 57.5835 21.3567 57.7443 21.3939L62.5724 22.5121C63.0201 22.6158 63.1965 23.1587 62.8953 23.5058L59.6465 27.2483C59.5383 27.373 59.4852 27.5362 59.4995 27.7007L59.928 32.6381C59.9678 33.0959 59.5059 33.4315 59.0828 33.2522L54.5195 31.319C54.3674 31.2546 54.1958 31.2546 54.0438 31.319L49.4805 33.2522C49.0573 33.4315 48.5955 33.0959 48.6352 32.6381L49.0637 27.7007C49.078 27.5362 49.025 27.373 48.9167 27.2483L45.668 23.5058C45.3667 23.1587 45.5431 22.6158 45.9908 22.5121L50.8189 21.3939C50.9798 21.3567 51.1186 21.2558 51.2038 21.1143L53.7592 16.868Z" fill="#FF7C00"/>
<path d="M80.2856 16.868C80.5226 16.4743 81.0934 16.4743 81.3304 16.868L83.8858 21.1143C83.971 21.2558 84.1098 21.3567 84.2707 21.3939L89.0988 22.5121C89.5465 22.6158 89.7229 23.1587 89.4216 23.5058L86.1729 27.2483C86.0646 27.373 86.0116 27.5362 86.0259 27.7007L86.4544 32.6381C86.4941 33.0959 86.0323 33.4315 85.6091 33.2522L81.0458 31.319C80.8938 31.2546 80.7222 31.2546 80.5701 31.319L76.0068 33.2522C75.5837 33.4315 75.1219 33.0959 75.1616 32.6381L75.5901 27.7007C75.6044 27.5362 75.5513 27.373 75.4431 27.2483L72.1943 23.5058C71.8931 23.1587 72.0695 22.6158 72.5172 22.5121L77.3453 21.3939C77.5061 21.3567 77.645 21.2558 77.7301 21.1143L80.2856 16.868Z" fill="#FF7C00"/>
<path d="M106.811 16.868C107.048 16.4743 107.619 16.4743 107.856 16.868L110.411 21.1143C110.496 21.2558 110.635 21.3567 110.796 21.3939L115.624 22.5121C116.072 22.6158 116.248 23.1587 115.947 23.5058L112.698 27.2483C112.59 27.373 112.537 27.5362 112.551 27.7007L112.98 32.6381C113.02 33.0959 112.558 33.4315 112.135 33.2522L107.571 31.319C107.419 31.2546 107.248 31.2546 107.096 31.319L102.532 33.2522C102.109 33.4315 101.647 33.0959 101.687 32.6381L102.115 27.7007C102.13 27.5362 102.077 27.373 101.968 27.2483L98.7197 23.5058C98.4185 23.1587 98.5949 22.6158 99.0426 22.5121L103.871 21.3939C104.032 21.3567 104.17 21.2558 104.256 21.1143L106.811 16.868Z" fill="#E0E0E0"/>
<path d="M133.337 16.868C133.574 16.4743 134.145 16.4743 134.382 16.868L136.938 21.1143C137.023 21.2558 137.162 21.3567 137.322 21.3939L142.151 22.5121C142.598 22.6158 142.775 23.1587 142.473 23.5058L139.225 27.2483C139.116 27.373 139.063 27.5362 139.078 27.7007L139.506 32.6381C139.546 33.0959 139.084 33.4315 138.661 33.2522L134.098 31.319C133.946 31.2546 133.774 31.2546 133.622 31.319L129.059 33.2522C128.635 33.4315 128.174 33.0959 128.213 32.6381L128.642 27.7007C128.656 27.5362 128.603 27.373 128.495 27.2483L125.246 23.5058C124.945 23.1587 125.121 22.6158 125.569 22.5121L130.397 21.3939C130.558 21.3567 130.697 21.2558 130.782 21.1143L133.337 16.868Z" fill="#E0E0E0"/>
</g>
<defs>
<clipPath id="clip0_403_168">
<rect x="0.100586" width="286.651" height="286.651" rx="5" fill="white"/>
</clipPath>
<clipPath id="clip1_403_168">
<rect width="14" height="14" fill="white" transform="translate(211.201 8)"/>
</clipPath>
<clipPath id="clip2_403_168">
<rect width="125" height="125" fill="white" transform="translate(80.2012 80.5)"/>
</clipPath>
</defs>
</svg>
