<svg width="593" height="471" viewBox="0 0 593 471" fill="none" xmlns="http://www.w3.org/2000/svg">
<rect width="593" height="471" rx="5" fill="#FAF9F8"/>
<g clip-path="url(#clip0_840_536)">
<path d="M312.126 183.417C316.773 183.416 321.286 184.969 324.949 187.829C328.611 190.688 331.213 194.69 332.34 199.198L332.423 199.573L332.84 199.672C336.265 200.534 339.415 202.253 341.993 204.668C344.572 207.082 346.494 210.112 347.579 213.474L347.876 214.479C348.942 218.451 348.808 222.65 347.491 226.546C346.175 230.442 343.735 233.862 340.478 236.374C337.222 238.885 333.295 240.377 329.192 240.661C325.089 240.945 320.994 240.008 317.423 237.969L317.178 237.818L298.819 256.177L299.037 256.542C300.681 259.464 301.594 262.741 301.7 266.092C301.806 269.443 301.102 272.771 299.647 275.792L299.116 276.818C296.934 280.772 293.527 283.91 289.406 285.76C285.286 287.61 280.677 288.07 276.272 287.073C272.542 286.225 269.118 284.365 266.378 281.696C263.637 279.027 261.687 275.654 260.741 271.948L260.621 271.453L259.902 271.281C256.406 270.349 253.213 268.522 250.638 265.98C248.062 263.438 246.193 260.27 245.215 256.786L244.954 255.75C244.064 251.817 244.334 247.71 245.732 243.928C247.13 240.145 249.595 236.85 252.829 234.441C256.064 232.033 259.927 230.614 263.951 230.359C267.976 230.103 271.988 231.02 275.501 233L275.855 233.208L294.209 214.854L294.022 214.536C292.558 211.95 291.665 209.081 291.402 206.121C291.138 203.161 291.512 200.179 292.496 197.375L292.907 196.307C294.483 192.5 297.153 189.246 300.578 186.956C304.004 184.666 308.032 183.443 312.152 183.443L311.428 183.463L311.532 183.448L312.126 183.417Z" fill="#CBCBCB"/>
</g>
<path d="M39.2329 25.1128C39.4698 24.719 40.0407 24.719 40.2777 25.1128L42.8331 29.3591C42.9182 29.5005 43.0571 29.6014 43.2179 29.6387L48.0461 30.7569C48.4938 30.8606 48.6702 31.4035 48.3689 31.7505L45.1201 35.4931C45.0119 35.6178 44.9589 35.781 44.9732 35.9455L45.4016 40.8828C45.4414 41.3407 44.9795 41.6762 44.5564 41.497L39.9931 39.5637C39.8411 39.4993 39.6694 39.4993 39.5174 39.5637L34.9541 41.497C34.531 41.6762 34.0691 41.3407 34.1089 40.8828L34.5374 35.9455C34.5516 35.781 34.4986 35.6178 34.3904 35.4931L31.1416 31.7505C30.8403 31.4035 31.0167 30.8606 31.4644 30.7569L36.2926 29.6387C36.4534 29.6014 36.5923 29.5005 36.6774 29.3591L39.2329 25.1128Z" fill="#FF7C00"/>
<path d="M65.7592 25.1128C65.9962 24.719 66.567 24.719 66.804 25.1128L69.3595 29.3591C69.4446 29.5005 69.5835 29.6014 69.7443 29.6387L74.5724 30.7569C75.0201 30.8606 75.1965 31.4035 74.8953 31.7505L71.6465 35.4931C71.5383 35.6178 71.4852 35.781 71.4995 35.9455L71.928 40.8828C71.9678 41.3407 71.5059 41.6762 71.0828 41.497L66.5195 39.5637C66.3674 39.4993 66.1958 39.4993 66.0438 39.5637L61.4805 41.497C61.0573 41.6762 60.5955 41.3407 60.6352 40.8828L61.0637 35.9455C61.078 35.781 61.025 35.6178 60.9167 35.4931L57.668 31.7505C57.3667 31.4035 57.5431 30.8606 57.9908 30.7569L62.8189 29.6387C62.9798 29.6014 63.1186 29.5005 63.2038 29.3591L65.7592 25.1128Z" fill="#FF7C00"/>
<path d="M92.2856 25.1128C92.5226 24.719 93.0934 24.719 93.3304 25.1128L95.8858 29.3591C95.971 29.5005 96.1098 29.6014 96.2707 29.6387L101.099 30.7569C101.547 30.8606 101.723 31.4035 101.422 31.7505L98.1729 35.4931C98.0646 35.6178 98.0116 35.781 98.0259 35.9455L98.4544 40.8828C98.4941 41.3407 98.0323 41.6762 97.6091 41.497L93.0458 39.5637C92.8938 39.4993 92.7222 39.4993 92.5701 39.5637L88.0068 41.497C87.5837 41.6762 87.1219 41.3407 87.1616 40.8828L87.5901 35.9455C87.6044 35.781 87.5513 35.6178 87.4431 35.4931L84.1943 31.7505C83.8931 31.4035 84.0695 30.8606 84.5172 30.7569L89.3453 29.6387C89.5061 29.6014 89.645 29.5005 89.7301 29.3591L92.2856 25.1128Z" fill="#FF7C00"/>
<path d="M118.811 25.1128C119.048 24.719 119.619 24.719 119.856 25.1128L122.411 29.3591C122.496 29.5005 122.635 29.6014 122.796 29.6387L127.624 30.7569C128.072 30.8606 128.248 31.4035 127.947 31.7505L124.698 35.4931C124.59 35.6178 124.537 35.781 124.551 35.9455L124.98 40.8828C125.02 41.3407 124.558 41.6762 124.135 41.497L119.571 39.5637C119.419 39.4993 119.248 39.4993 119.096 39.5637L114.532 41.497C114.109 41.6762 113.647 41.3407 113.687 40.8828L114.115 35.9455C114.13 35.781 114.077 35.6178 113.968 35.4931L110.72 31.7505C110.418 31.4035 110.595 30.8606 111.043 30.7569L115.871 29.6387C116.032 29.6014 116.17 29.5005 116.256 29.3591L118.811 25.1128Z" fill="#E0E0E0"/>
<path d="M145.337 25.1128C145.574 24.719 146.145 24.719 146.382 25.1128L148.938 29.3591C149.023 29.5005 149.162 29.6014 149.322 29.6387L154.151 30.7569C154.598 30.8606 154.775 31.4035 154.473 31.7505L151.225 35.4931C151.116 35.6178 151.063 35.781 151.078 35.9455L151.506 40.8828C151.546 41.3407 151.084 41.6762 150.661 41.497L146.098 39.5637C145.946 39.4993 145.774 39.4993 145.622 39.5637L141.059 41.497C140.635 41.6762 140.174 41.3407 140.213 40.8828L140.642 35.9455C140.656 35.781 140.603 35.6178 140.495 35.4931L137.246 31.7505C136.945 31.4035 137.121 30.8606 137.569 30.7569L142.397 29.6387C142.558 29.6014 142.697 29.5005 142.782 29.3591L145.337 25.1128Z" fill="#E0E0E0"/>
<path d="M167.385 31.482C167.432 30.5487 167.759 29.83 168.365 29.326C168.981 28.8127 169.789 28.556 170.787 28.556C171.469 28.556 172.052 28.6773 172.537 28.92C173.023 29.1533 173.387 29.4753 173.629 29.886C173.881 30.2873 174.007 30.7447 174.007 31.258C174.007 31.846 173.853 32.3453 173.545 32.756C173.247 33.1573 172.887 33.428 172.467 33.568V33.624C173.009 33.792 173.429 34.0907 173.727 34.52C174.035 34.9493 174.189 35.5 174.189 36.172C174.189 36.732 174.059 37.2313 173.797 37.67C173.545 38.1087 173.167 38.454 172.663 38.706C172.169 38.9487 171.571 39.07 170.871 39.07C169.817 39.07 168.958 38.804 168.295 38.272C167.633 37.74 167.283 36.956 167.245 35.92H169.149C169.168 36.3773 169.322 36.746 169.611 37.026C169.91 37.2967 170.316 37.432 170.829 37.432C171.305 37.432 171.669 37.3013 171.921 37.04C172.183 36.7693 172.313 36.424 172.313 36.004C172.313 35.444 172.136 35.0427 171.781 34.8C171.427 34.5573 170.876 34.436 170.129 34.436H169.723V32.826H170.129C171.455 32.826 172.117 32.3827 172.117 31.496C172.117 31.0947 171.996 30.782 171.753 30.558C171.52 30.334 171.179 30.222 170.731 30.222C170.293 30.222 169.952 30.3433 169.709 30.586C169.476 30.8193 169.341 31.118 169.303 31.482H167.385ZM178.104 36.942L176.466 40.876H175.206L176.116 36.942H178.104ZM185.789 30.278L182.065 39H180.077L183.829 30.502H179.041V28.822H185.789V30.278ZM192.437 25.742L188.657 41.534H186.739L190.519 25.742H192.437ZM200.631 30.488H196.095V32.882C196.291 32.6393 196.571 32.4433 196.935 32.294C197.299 32.1353 197.687 32.056 198.097 32.056C198.844 32.056 199.455 32.2193 199.931 32.546C200.407 32.8727 200.753 33.2927 200.967 33.806C201.182 34.31 201.289 34.8513 201.289 35.43C201.289 36.5033 200.981 37.3667 200.365 38.02C199.759 38.6733 198.891 39 197.761 39C196.697 39 195.848 38.734 195.213 38.202C194.579 37.67 194.219 36.9747 194.135 36.116H196.039C196.123 36.4893 196.31 36.788 196.599 37.012C196.898 37.236 197.276 37.348 197.733 37.348C198.284 37.348 198.699 37.1753 198.979 36.83C199.259 36.4847 199.399 36.0273 199.399 35.458C199.399 34.8793 199.255 34.4407 198.965 34.142C198.685 33.834 198.27 33.68 197.719 33.68C197.327 33.68 197.001 33.778 196.739 33.974C196.478 34.17 196.291 34.4313 196.179 34.758H194.303V28.766H200.631V30.488Z" fill="#807A7A"/>
<rect x="456.615" y="24" width="30" height="20.25" rx="10.125" fill="#F87537"/>
<g clip-path="url(#clip1_840_536)">
<path d="M468.221 31.3333H475.781C475.973 31.3333 476.163 31.3749 476.337 31.4551C476.512 31.5354 476.667 31.6525 476.793 31.7984C476.918 31.9443 477.01 32.1155 477.063 32.3004C477.116 32.4852 477.128 32.6793 477.099 32.8693L476.262 38.304C476.189 38.7763 475.95 39.207 475.587 39.5181C475.224 39.8292 474.762 40.0001 474.285 40H469.717C469.239 40 468.777 39.8289 468.414 39.5179C468.052 39.2068 467.812 38.7762 467.74 38.304L466.903 32.8693C466.874 32.6793 466.886 32.4852 466.939 32.3004C466.992 32.1155 467.084 31.9443 467.209 31.7984C467.334 31.6525 467.49 31.5354 467.664 31.4551C467.839 31.3749 468.029 31.3333 468.221 31.3333Z" stroke="white" stroke-width="1.33333" stroke-linecap="round" stroke-linejoin="round"/>
<path d="M470 33.3333V30C470 29.4696 470.211 28.9609 470.586 28.5858C470.961 28.2107 471.47 28 472 28C472.53 28 473.039 28.2107 473.414 28.5858C473.789 28.9609 474 29.4696 474 30V33.3333" stroke="white" stroke-width="1.33333" stroke-linecap="round" stroke-linejoin="round"/>
</g>
<path d="M503.707 32.377C503.707 32.8997 503.581 33.3897 503.329 33.847C503.087 34.3043 502.699 34.673 502.167 34.953C501.645 35.233 500.982 35.373 500.179 35.373H498.541V39.125H496.581V29.353H500.179C500.935 29.353 501.579 29.4837 502.111 29.745C502.643 30.0063 503.04 30.3657 503.301 30.823C503.572 31.2803 503.707 31.7983 503.707 32.377ZM500.095 33.791C500.637 33.791 501.038 33.6697 501.299 33.427C501.561 33.175 501.691 32.825 501.691 32.377C501.691 31.425 501.159 30.949 500.095 30.949H498.541V33.791H500.095ZM507.059 32.573C507.311 32.1623 507.637 31.8403 508.039 31.607C508.449 31.3737 508.916 31.257 509.439 31.257V33.315H508.921C508.305 33.315 507.838 33.4597 507.521 33.749C507.213 34.0383 507.059 34.5423 507.059 35.261V39.125H505.099V31.369H507.059V32.573ZM514.203 39.251C513.456 39.251 512.784 39.0877 512.187 38.761C511.59 38.425 511.118 37.9537 510.773 37.347C510.437 36.7403 510.269 36.0403 510.269 35.247C510.269 34.4537 510.442 33.7537 510.787 33.147C511.142 32.5403 511.622 32.0737 512.229 31.747C512.836 31.411 513.512 31.243 514.259 31.243C515.006 31.243 515.682 31.411 516.289 31.747C516.896 32.0737 517.372 32.5403 517.717 33.147C518.072 33.7537 518.249 34.4537 518.249 35.247C518.249 36.0403 518.067 36.7403 517.703 37.347C517.348 37.9537 516.863 38.425 516.247 38.761C515.64 39.0877 514.959 39.251 514.203 39.251ZM514.203 37.543C514.558 37.543 514.889 37.459 515.197 37.291C515.514 37.1137 515.766 36.8523 515.953 36.507C516.14 36.1617 516.233 35.7417 516.233 35.247C516.233 34.5097 516.037 33.945 515.645 33.553C515.262 33.1517 514.791 32.951 514.231 32.951C513.671 32.951 513.2 33.1517 512.817 33.553C512.444 33.945 512.257 34.5097 512.257 35.247C512.257 35.9843 512.439 36.5537 512.803 36.955C513.176 37.347 513.643 37.543 514.203 37.543ZM519.183 35.219C519.183 34.435 519.337 33.7397 519.645 33.133C519.962 32.5263 520.391 32.0597 520.933 31.733C521.474 31.4063 522.076 31.243 522.739 31.243C523.243 31.243 523.723 31.355 524.181 31.579C524.638 31.7937 525.002 32.083 525.273 32.447V28.765H527.261V39.125H525.273V37.977C525.03 38.3597 524.689 38.6677 524.251 38.901C523.812 39.1343 523.303 39.251 522.725 39.251C522.071 39.251 521.474 39.083 520.933 38.747C520.391 38.411 519.962 37.9397 519.645 37.333C519.337 36.717 519.183 36.0123 519.183 35.219ZM525.287 35.247C525.287 34.771 525.193 34.365 525.007 34.029C524.82 33.6837 524.568 33.4223 524.251 33.245C523.933 33.0583 523.593 32.965 523.229 32.965C522.865 32.965 522.529 33.0537 522.221 33.231C521.913 33.4083 521.661 33.6697 521.465 34.015C521.278 34.351 521.185 34.7523 521.185 35.219C521.185 35.6857 521.278 36.0963 521.465 36.451C521.661 36.7963 521.913 37.0623 522.221 37.249C522.538 37.4357 522.874 37.529 523.229 37.529C523.593 37.529 523.933 37.4403 524.251 37.263C524.568 37.0763 524.82 36.815 525.007 36.479C525.193 36.1337 525.287 35.723 525.287 35.247ZM532.619 39.251C531.872 39.251 531.2 39.0877 530.603 38.761C530.006 38.425 529.534 37.9537 529.189 37.347C528.853 36.7403 528.685 36.0403 528.685 35.247C528.685 34.4537 528.858 33.7537 529.203 33.147C529.558 32.5403 530.038 32.0737 530.645 31.747C531.252 31.411 531.928 31.243 532.675 31.243C533.422 31.243 534.098 31.411 534.705 31.747C535.312 32.0737 535.788 32.5403 536.133 33.147C536.488 33.7537 536.665 34.4537 536.665 35.247C536.665 36.0403 536.483 36.7403 536.119 37.347C535.764 37.9537 535.279 38.425 534.663 38.761C534.056 39.0877 533.375 39.251 532.619 39.251ZM532.619 37.543C532.974 37.543 533.305 37.459 533.613 37.291C533.93 37.1137 534.182 36.8523 534.369 36.507C534.556 36.1617 534.649 35.7417 534.649 35.247C534.649 34.5097 534.453 33.945 534.061 33.553C533.678 33.1517 533.207 32.951 532.647 32.951C532.087 32.951 531.616 33.1517 531.233 33.553C530.86 33.945 530.673 34.5097 530.673 35.247C530.673 35.9843 530.855 36.5537 531.219 36.955C531.592 37.347 532.059 37.543 532.619 37.543ZM540.385 32.979V36.731C540.385 36.9923 540.445 37.1837 540.567 37.305C540.697 37.417 540.912 37.473 541.211 37.473H542.121V39.125H540.889C539.237 39.125 538.411 38.3223 538.411 36.717V32.979H537.487V31.369H538.411V29.451H540.385V31.369H542.121V32.979H540.385ZM545.812 32.979V36.731C545.812 36.9923 545.873 37.1837 545.994 37.305C546.125 37.417 546.34 37.473 546.638 37.473H547.548V39.125H546.316C544.664 39.125 543.838 38.3223 543.838 36.717V32.979H542.914V31.369H543.838V29.451H545.812V31.369H547.548V32.979H545.812ZM552.402 39.251C551.656 39.251 550.984 39.0877 550.386 38.761C549.789 38.425 549.318 37.9537 548.972 37.347C548.636 36.7403 548.468 36.0403 548.468 35.247C548.468 34.4537 548.641 33.7537 548.986 33.147C549.341 32.5403 549.822 32.0737 550.428 31.747C551.035 31.411 551.712 31.243 552.458 31.243C553.205 31.243 553.882 31.411 554.488 31.747C555.095 32.0737 555.571 32.5403 555.916 33.147C556.271 33.7537 556.448 34.4537 556.448 35.247C556.448 36.0403 556.266 36.7403 555.902 37.347C555.548 37.9537 555.062 38.425 554.446 38.761C553.84 39.0877 553.158 39.251 552.402 39.251ZM552.402 37.543C552.757 37.543 553.088 37.459 553.396 37.291C553.714 37.1137 553.966 36.8523 554.152 36.507C554.339 36.1617 554.432 35.7417 554.432 35.247C554.432 34.5097 554.236 33.945 553.844 33.553C553.462 33.1517 552.99 32.951 552.43 32.951C551.87 32.951 551.399 33.1517 551.016 33.553C550.643 33.945 550.456 34.5097 550.456 35.247C550.456 35.9843 550.638 36.5537 551.002 36.955C551.376 37.347 551.842 37.543 552.402 37.543Z" fill="#807A7A"/>
<g clip-path="url(#clip2_840_536)">
<path d="M321.615 25.34C323.124 26.2109 324.378 27.4605 325.255 28.9653C326.132 30.4701 326.601 32.1778 326.615 33.9193C326.629 35.6609 326.188 37.376 325.335 38.8947C324.483 40.4134 323.248 41.6832 321.754 42.5783C320.26 43.4734 318.559 43.9628 316.817 43.9981C315.076 44.0333 313.356 43.6132 311.827 42.7792C310.298 41.9453 309.013 40.7265 308.1 39.2435C307.187 37.7605 306.677 36.0647 306.62 34.324L306.615 34L306.62 33.676C306.676 31.949 307.179 30.266 308.079 28.791C308.979 27.316 310.246 26.0995 311.756 25.2599C313.266 24.4203 314.968 23.9864 316.696 24.0004C318.424 24.0145 320.119 24.476 321.615 25.34ZM320.322 31.293C320.15 31.1208 319.921 31.0174 319.678 31.0021C319.435 30.9868 319.195 31.0607 319.002 31.21L318.908 31.293L315.615 34.585L314.322 33.293L314.228 33.21C314.036 33.0609 313.796 32.987 313.553 33.0024C313.31 33.0177 313.081 33.1211 312.908 33.2933C312.736 33.4654 312.633 33.6944 312.618 33.9374C312.602 34.1804 312.676 34.4206 312.825 34.613L312.908 34.707L314.908 36.707L315.002 36.79C315.178 36.9261 315.393 36.9999 315.615 36.9999C315.837 36.9999 316.053 36.9261 316.228 36.79L316.322 36.707L320.322 32.707L320.405 32.613C320.554 32.4206 320.628 32.1803 320.613 31.9373C320.598 31.6943 320.494 31.4652 320.322 31.293Z" fill="#F87537"/>
</g>
<path d="M343.939 39H341.979L337.541 32.294V39H335.581V29.214H337.541L341.979 35.934V29.214H343.939V39ZM349.32 39.126C348.573 39.126 347.901 38.9627 347.304 38.636C346.707 38.3 346.235 37.8287 345.89 37.222C345.554 36.6153 345.386 35.9153 345.386 35.122C345.386 34.3287 345.559 33.6287 345.904 33.022C346.259 32.4153 346.739 31.9487 347.346 31.622C347.953 31.286 348.629 31.118 349.376 31.118C350.123 31.118 350.799 31.286 351.406 31.622C352.013 31.9487 352.489 32.4153 352.834 33.022C353.189 33.6287 353.366 34.3287 353.366 35.122C353.366 35.9153 353.184 36.6153 352.82 37.222C352.465 37.8287 351.98 38.3 351.364 38.636C350.757 38.9627 350.076 39.126 349.32 39.126ZM349.32 37.418C349.675 37.418 350.006 37.334 350.314 37.166C350.631 36.9887 350.883 36.7273 351.07 36.382C351.257 36.0367 351.35 35.6167 351.35 35.122C351.35 34.3847 351.154 33.82 350.762 33.428C350.379 33.0267 349.908 32.826 349.348 32.826C348.788 32.826 348.317 33.0267 347.934 33.428C347.561 33.82 347.374 34.3847 347.374 35.122C347.374 35.8593 347.556 36.4287 347.92 36.83C348.293 37.222 348.76 37.418 349.32 37.418ZM364.436 31.132C365.388 31.132 366.153 31.426 366.732 32.014C367.32 32.5927 367.614 33.4047 367.614 34.45V39H365.654V34.716C365.654 34.1093 365.5 33.6473 365.192 33.33C364.884 33.0033 364.464 32.84 363.932 32.84C363.4 32.84 362.975 33.0033 362.658 33.33C362.35 33.6473 362.196 34.1093 362.196 34.716V39H360.236V34.716C360.236 34.1093 360.082 33.6473 359.774 33.33C359.466 33.0033 359.046 32.84 358.514 32.84C357.973 32.84 357.543 33.0033 357.226 33.33C356.918 33.6473 356.764 34.1093 356.764 34.716V39H354.804V31.244H356.764V32.182C357.016 31.8553 357.338 31.5987 357.73 31.412C358.131 31.2253 358.57 31.132 359.046 31.132C359.653 31.132 360.194 31.2627 360.67 31.524C361.146 31.776 361.515 32.14 361.776 32.616C362.028 32.168 362.392 31.8087 362.868 31.538C363.353 31.2673 363.876 31.132 364.436 31.132ZM376.684 34.954C376.684 35.234 376.665 35.486 376.628 35.71H370.958C371.004 36.27 371.2 36.7087 371.546 37.026C371.891 37.3433 372.316 37.502 372.82 37.502C373.548 37.502 374.066 37.1893 374.374 36.564H376.488C376.264 37.3107 375.834 37.9267 375.2 38.412C374.565 38.888 373.786 39.126 372.862 39.126C372.115 39.126 371.443 38.9627 370.846 38.636C370.258 38.3 369.796 37.8287 369.46 37.222C369.133 36.6153 368.97 35.9153 368.97 35.122C368.97 34.3193 369.133 33.6147 369.46 33.008C369.786 32.4013 370.244 31.9347 370.832 31.608C371.42 31.2813 372.096 31.118 372.862 31.118C373.599 31.118 374.257 31.2767 374.836 31.594C375.424 31.9113 375.876 32.364 376.194 32.952C376.52 33.5307 376.684 34.198 376.684 34.954ZM374.654 34.394C374.644 33.89 374.462 33.4887 374.108 33.19C373.753 32.882 373.319 32.728 372.806 32.728C372.32 32.728 371.91 32.8773 371.574 33.176C371.247 33.4653 371.046 33.8713 370.972 34.394H374.654ZM385.748 31.132C386.672 31.132 387.419 31.426 387.988 32.014C388.558 32.5927 388.842 33.4047 388.842 34.45V39H386.882V34.716C386.882 34.1 386.728 33.6287 386.42 33.302C386.112 32.966 385.692 32.798 385.16 32.798C384.619 32.798 384.19 32.966 383.872 33.302C383.564 33.6287 383.41 34.1 383.41 34.716V39H381.45V31.244H383.41V32.21C383.672 31.874 384.003 31.6127 384.404 31.426C384.815 31.23 385.263 31.132 385.748 31.132ZM397.916 34.954C397.916 35.234 397.898 35.486 397.86 35.71H392.19C392.237 36.27 392.433 36.7087 392.778 37.026C393.124 37.3433 393.548 37.502 394.052 37.502C394.78 37.502 395.298 37.1893 395.606 36.564H397.72C397.496 37.3107 397.067 37.9267 396.432 38.412C395.798 38.888 395.018 39.126 394.094 39.126C393.348 39.126 392.676 38.9627 392.078 38.636C391.49 38.3 391.028 37.8287 390.692 37.222C390.366 36.6153 390.202 35.9153 390.202 35.122C390.202 34.3193 390.366 33.6147 390.692 33.008C391.019 32.4013 391.476 31.9347 392.064 31.608C392.652 31.2813 393.329 31.118 394.094 31.118C394.832 31.118 395.49 31.2767 396.068 31.594C396.656 31.9113 397.109 32.364 397.426 32.952C397.753 33.5307 397.916 34.198 397.916 34.954ZM395.886 34.394C395.877 33.89 395.695 33.4887 395.34 33.19C394.986 32.882 394.552 32.728 394.038 32.728C393.553 32.728 393.142 32.8773 392.806 33.176C392.48 33.4653 392.279 33.8713 392.204 34.394H395.886ZM402.385 31.118C402.964 31.118 403.472 31.2347 403.911 31.468C404.35 31.692 404.695 31.986 404.947 32.35V31.244H406.921V39.056C406.921 39.7747 406.776 40.414 406.487 40.974C406.198 41.5433 405.764 41.9913 405.185 42.318C404.606 42.654 403.906 42.822 403.085 42.822C401.984 42.822 401.078 42.5653 400.369 42.052C399.669 41.5387 399.272 40.8387 399.179 39.952H401.125C401.228 40.3067 401.447 40.5867 401.783 40.792C402.128 41.0067 402.544 41.114 403.029 41.114C403.598 41.114 404.06 40.9413 404.415 40.596C404.77 40.26 404.947 39.7467 404.947 39.056V37.852C404.695 38.216 404.345 38.5193 403.897 38.762C403.458 39.0047 402.954 39.126 402.385 39.126C401.732 39.126 401.134 38.958 400.593 38.622C400.052 38.286 399.622 37.8147 399.305 37.208C398.997 36.592 398.843 35.8873 398.843 35.094C398.843 34.31 398.997 33.6147 399.305 33.008C399.622 32.4013 400.047 31.9347 400.579 31.608C401.12 31.2813 401.722 31.118 402.385 31.118ZM404.947 35.122C404.947 34.646 404.854 34.24 404.667 33.904C404.48 33.5587 404.228 33.2973 403.911 33.12C403.594 32.9333 403.253 32.84 402.889 32.84C402.525 32.84 402.189 32.9287 401.881 33.106C401.573 33.2833 401.321 33.5447 401.125 33.89C400.938 34.226 400.845 34.6273 400.845 35.094C400.845 35.5607 400.938 35.9713 401.125 36.326C401.321 36.6713 401.573 36.9373 401.881 37.124C402.198 37.3107 402.534 37.404 402.889 37.404C403.253 37.404 403.594 37.3153 403.911 37.138C404.228 36.9513 404.48 36.69 404.667 36.354C404.854 36.0087 404.947 35.598 404.947 35.122ZM412.279 39.126C411.532 39.126 410.86 38.9627 410.263 38.636C409.666 38.3 409.194 37.8287 408.849 37.222C408.513 36.6153 408.345 35.9153 408.345 35.122C408.345 34.3287 408.518 33.6287 408.863 33.022C409.218 32.4153 409.698 31.9487 410.305 31.622C410.912 31.286 411.588 31.118 412.335 31.118C413.082 31.118 413.758 31.286 414.365 31.622C414.972 31.9487 415.448 32.4153 415.793 33.022C416.148 33.6287 416.325 34.3287 416.325 35.122C416.325 35.9153 416.143 36.6153 415.779 37.222C415.424 37.8287 414.939 38.3 414.323 38.636C413.716 38.9627 413.035 39.126 412.279 39.126ZM412.279 37.418C412.634 37.418 412.965 37.334 413.273 37.166C413.59 36.9887 413.842 36.7273 414.029 36.382C414.216 36.0367 414.309 35.6167 414.309 35.122C414.309 34.3847 414.113 33.82 413.721 33.428C413.338 33.0267 412.867 32.826 412.307 32.826C411.747 32.826 411.276 33.0267 410.893 33.428C410.52 33.82 410.333 34.3847 410.333 35.122C410.333 35.8593 410.515 36.4287 410.879 36.83C411.252 37.222 411.719 37.418 412.279 37.418ZM419.555 37.39H423.013V39H417.329V37.418L420.717 32.854H417.343V31.244H422.971V32.826L419.555 37.39ZM425.524 30.32C425.179 30.32 424.89 30.2127 424.656 29.998C424.432 29.774 424.32 29.4987 424.32 29.172C424.32 28.8453 424.432 28.5747 424.656 28.36C424.89 28.136 425.179 28.024 425.524 28.024C425.87 28.024 426.154 28.136 426.378 28.36C426.612 28.5747 426.728 28.8453 426.728 29.172C426.728 29.4987 426.612 29.774 426.378 29.998C426.154 30.2127 425.87 30.32 425.524 30.32ZM426.49 31.244V39H424.53V31.244H426.49ZM431.871 39.126C431.124 39.126 430.452 38.9627 429.855 38.636C429.258 38.3 428.786 37.8287 428.441 37.222C428.105 36.6153 427.937 35.9153 427.937 35.122C427.937 34.3287 428.11 33.6287 428.455 33.022C428.81 32.4153 429.29 31.9487 429.897 31.622C430.504 31.286 431.18 31.118 431.927 31.118C432.674 31.118 433.35 31.286 433.957 31.622C434.564 31.9487 435.04 32.4153 435.385 33.022C435.74 33.6287 435.917 34.3287 435.917 35.122C435.917 35.9153 435.735 36.6153 435.371 37.222C435.016 37.8287 434.531 38.3 433.915 38.636C433.308 38.9627 432.627 39.126 431.871 39.126ZM431.871 37.418C432.226 37.418 432.557 37.334 432.865 37.166C433.182 36.9887 433.434 36.7273 433.621 36.382C433.808 36.0367 433.901 35.6167 433.901 35.122C433.901 34.3847 433.705 33.82 433.313 33.428C432.93 33.0267 432.459 32.826 431.899 32.826C431.339 32.826 430.868 33.0267 430.485 33.428C430.112 33.82 429.925 34.3847 429.925 35.122C429.925 35.8593 430.107 36.4287 430.471 36.83C430.844 37.222 431.311 37.418 431.871 37.418Z" fill="#807A7A"/>
<defs>
<clipPath id="clip0_840_536">
<rect width="125" height="125" fill="white" transform="translate(234.001 173)"/>
</clipPath>
<clipPath id="clip1_840_536">
<rect width="16" height="16" fill="white" transform="translate(464 26)"/>
</clipPath>
<clipPath id="clip2_840_536">
<rect width="24" height="24" fill="white" transform="translate(304.615 22)"/>
</clipPath>
</defs>
</svg>
