<svg width="288" height="287" viewBox="0 0 288 287" fill="none" xmlns="http://www.w3.org/2000/svg">
<rect x="0.751953" width="286.651" height="286.651" rx="5" fill="#FAF9F8"/>
<g clip-path="url(#clip0_403_185)">
<path d="M158.528 90.9166C163.175 90.9161 167.688 92.4691 171.351 95.3286C175.013 98.188 177.615 102.19 178.742 106.698L178.825 107.073L179.242 107.172C182.667 108.034 185.817 109.753 188.395 112.168C190.974 114.582 192.896 117.612 193.981 120.974L194.278 121.979C195.344 125.951 195.21 130.15 193.894 134.046C192.577 137.942 190.137 141.362 186.88 143.874C183.624 146.385 179.697 147.877 175.594 148.161C171.491 148.445 167.396 147.508 163.825 145.469L163.58 145.318L145.221 163.677L145.44 164.042C147.083 166.964 147.996 170.241 148.102 173.592C148.208 176.943 147.504 180.271 146.049 183.292L145.518 184.318C143.336 188.272 139.929 191.41 135.808 193.26C131.688 195.11 127.079 195.57 122.674 194.573C118.944 193.725 115.52 191.865 112.78 189.196C110.039 186.527 108.089 183.154 107.143 179.448L107.023 178.953L106.304 178.781C102.808 177.849 99.6151 176.022 97.0397 173.48C94.4643 170.938 92.5953 167.77 91.6167 164.286L91.3562 163.25C90.4659 159.317 90.736 155.21 92.1339 151.428C93.5318 147.645 95.9974 144.35 99.2315 141.941C102.466 139.533 106.329 138.114 110.354 137.859C114.378 137.603 118.39 138.52 121.903 140.5L122.257 140.708L140.611 122.354L140.424 122.036C138.96 119.45 138.067 116.581 137.804 113.621C137.541 110.661 137.914 107.679 138.898 104.875L139.309 103.807C140.885 100 143.555 96.7459 146.981 94.456C150.406 92.1661 154.434 90.9435 158.554 90.9426L157.83 90.9634L157.934 90.9478L158.528 90.9166Z" fill="#CBCBCB"/>
</g>
<path d="M27.2329 16.868C27.4698 16.4743 28.0407 16.4743 28.2777 16.868L30.8331 21.1143C30.9182 21.2558 31.0571 21.3567 31.2179 21.3939L36.0461 22.5121C36.4938 22.6158 36.6702 23.1587 36.3689 23.5058L33.1201 27.2483C33.0119 27.373 32.9589 27.5362 32.9732 27.7007L33.4016 32.6381C33.4414 33.0959 32.9795 33.4315 32.5564 33.2522L27.9931 31.319C27.8411 31.2546 27.6694 31.2546 27.5174 31.319L22.9541 33.2522C22.531 33.4315 22.0691 33.0959 22.1089 32.6381L22.5374 27.7007C22.5516 27.5362 22.4986 27.373 22.3904 27.2483L19.1416 23.5058C18.8403 23.1587 19.0167 22.6158 19.4644 22.5121L24.2926 21.3939C24.4534 21.3567 24.5923 21.2558 24.6774 21.1143L27.2329 16.868Z" fill="#FF7C00"/>
<path d="M53.7592 16.868C53.9962 16.4743 54.567 16.4743 54.804 16.868L57.3595 21.1143C57.4446 21.2558 57.5835 21.3567 57.7443 21.3939L62.5724 22.5121C63.0201 22.6158 63.1965 23.1587 62.8953 23.5058L59.6465 27.2483C59.5383 27.373 59.4852 27.5362 59.4995 27.7007L59.928 32.6381C59.9678 33.0959 59.5059 33.4315 59.0828 33.2522L54.5195 31.319C54.3674 31.2546 54.1958 31.2546 54.0438 31.319L49.4805 33.2522C49.0573 33.4315 48.5955 33.0959 48.6352 32.6381L49.0637 27.7007C49.078 27.5362 49.025 27.373 48.9167 27.2483L45.668 23.5058C45.3667 23.1587 45.5431 22.6158 45.9908 22.5121L50.8189 21.3939C50.9798 21.3567 51.1186 21.2558 51.2038 21.1143L53.7592 16.868Z" fill="#FF7C00"/>
<path d="M80.2856 16.868C80.5226 16.4743 81.0934 16.4743 81.3304 16.868L83.8858 21.1143C83.971 21.2558 84.1098 21.3567 84.2707 21.3939L89.0988 22.5121C89.5465 22.6158 89.7229 23.1587 89.4216 23.5058L86.1729 27.2483C86.0646 27.373 86.0116 27.5362 86.0259 27.7007L86.4544 32.6381C86.4941 33.0959 86.0323 33.4315 85.6091 33.2522L81.0458 31.319C80.8938 31.2546 80.7222 31.2546 80.5701 31.319L76.0068 33.2522C75.5837 33.4315 75.1219 33.0959 75.1616 32.6381L75.5901 27.7007C75.6044 27.5362 75.5513 27.373 75.4431 27.2483L72.1943 23.5058C71.8931 23.1587 72.0695 22.6158 72.5172 22.5121L77.3453 21.3939C77.5061 21.3567 77.645 21.2558 77.7301 21.1143L80.2856 16.868Z" fill="#FF7C00"/>
<path d="M106.811 16.868C107.048 16.4743 107.619 16.4743 107.856 16.868L110.411 21.1143C110.496 21.2558 110.635 21.3567 110.796 21.3939L115.624 22.5121C116.072 22.6158 116.248 23.1587 115.947 23.5058L112.698 27.2483C112.59 27.373 112.537 27.5362 112.551 27.7007L112.98 32.6381C113.02 33.0959 112.558 33.4315 112.135 33.2522L107.571 31.319C107.419 31.2546 107.248 31.2546 107.096 31.319L102.532 33.2522C102.109 33.4315 101.647 33.0959 101.687 32.6381L102.115 27.7007C102.13 27.5362 102.077 27.373 101.968 27.2483L98.7197 23.5058C98.4185 23.1587 98.5949 22.6158 99.0426 22.5121L103.871 21.3939C104.032 21.3567 104.17 21.2558 104.256 21.1143L106.811 16.868Z" fill="#E0E0E0"/>
<path d="M133.337 16.868C133.574 16.4743 134.145 16.4743 134.382 16.868L136.938 21.1143C137.023 21.2558 137.162 21.3567 137.322 21.3939L142.151 22.5121C142.598 22.6158 142.775 23.1587 142.473 23.5058L139.225 27.2483C139.116 27.373 139.063 27.5362 139.078 27.7007L139.506 32.6381C139.546 33.0959 139.084 33.4315 138.661 33.2522L134.098 31.319C133.946 31.2546 133.774 31.2546 133.622 31.319L129.059 33.2522C128.635 33.4315 128.174 33.0959 128.213 32.6381L128.642 27.7007C128.656 27.5362 128.603 27.373 128.495 27.2483L125.246 23.5058C124.945 23.1587 125.121 22.6158 125.569 22.5121L130.397 21.3939C130.558 21.3567 130.697 21.2558 130.782 21.1143L133.337 16.868Z" fill="#E0E0E0"/>
<defs>
<clipPath id="clip0_403_185">
<rect width="125" height="125" fill="white" transform="translate(80.4031 80.5)"/>
</clipPath>
</defs>
</svg>
