<svg width="229" height="50" viewBox="0 0 229 50" fill="none" xmlns="http://www.w3.org/2000/svg">
<g clip-path="url(#clip0_2729_628)">
<rect x="0.5" y="0.5" width="228" height="49" rx="4.5" fill="#F87537" fill-opacity="0.1" stroke="#F87537"/>
<g clip-path="url(#clip1_2729_628)">
<path d="M26 31C26.5304 31 27.0391 31.2107 27.4142 31.5858C27.7893 31.9609 28 32.4696 28 33C28 32.4696 28.2107 31.9609 28.5858 31.5858C28.9609 31.2107 29.4696 31 30 31C29.4696 31 28.9609 30.7893 28.5858 30.4142C28.2107 30.0391 28 29.5304 28 29C28 29.5304 27.7893 30.0391 27.4142 30.4142C27.0391 30.7893 26.5304 31 26 31ZM26 19C26.5304 19 27.0391 19.2107 27.4142 19.5858C27.7893 19.9609 28 20.4696 28 21C28 20.4696 28.2107 19.9609 28.5858 19.5858C28.9609 19.2107 29.4696 19 30 19C29.4696 19 28.9609 18.7893 28.5858 18.4142C28.2107 18.0391 28 17.5304 28 17C28 17.5304 27.7893 18.0391 27.4142 18.4142C27.0391 18.7893 26.5304 19 26 19ZM19 31C19 29.4087 19.6321 27.8826 20.7574 26.7574C21.8826 25.6321 23.4087 25 25 25C23.4087 25 21.8826 24.3679 20.7574 23.2426C19.6321 22.1174 19 20.5913 19 19C19 20.5913 18.3679 22.1174 17.2426 23.2426C16.1174 24.3679 14.5913 25 13 25C14.5913 25 16.1174 25.6321 17.2426 26.7574C18.3679 27.8826 19 29.4087 19 31Z" stroke="#F87537" stroke-width="2" stroke-linecap="round" stroke-linejoin="round"/>
</g>
<path d="M47.976 23.192C47.976 23.7573 47.8427 24.2907 47.576 24.792C47.3093 25.2933 46.8827 25.704 46.296 26.024C45.7093 26.3333 44.9573 26.488 44.04 26.488H42.024V31H40.2V19.88H44.04C44.8933 19.88 45.6133 20.0293 46.2 20.328C46.7973 20.616 47.24 21.0107 47.528 21.512C47.8267 22.0133 47.976 22.5733 47.976 23.192ZM44.04 25C44.7333 25 45.2507 24.8453 45.592 24.536C45.9333 24.216 46.104 23.768 46.104 23.192C46.104 21.976 45.416 21.368 44.04 21.368H42.024V25H44.04ZM48.7876 26.552C48.7876 25.6667 48.969 24.8827 49.3316 24.2C49.705 23.5173 50.2063 22.9893 50.8356 22.616C51.4756 22.232 52.1796 22.04 52.9476 22.04C53.641 22.04 54.2436 22.1787 54.7556 22.456C55.2783 22.7227 55.6943 23.0587 56.0036 23.464V22.184H57.8436V31H56.0036V29.688C55.6943 30.104 55.273 30.4507 54.7396 30.728C54.2063 31.0053 53.5983 31.144 52.9156 31.144C52.1583 31.144 51.465 30.952 50.8356 30.568C50.2063 30.1733 49.705 29.6293 49.3316 28.936C48.969 28.232 48.7876 27.4373 48.7876 26.552ZM56.0036 26.584C56.0036 25.976 55.8756 25.448 55.6196 25C55.3743 24.552 55.049 24.2107 54.6436 23.976C54.2383 23.7413 53.801 23.624 53.3316 23.624C52.8623 23.624 52.425 23.7413 52.0196 23.976C51.6143 24.2 51.2836 24.536 51.0276 24.984C50.7823 25.4213 50.6596 25.944 50.6596 26.552C50.6596 27.16 50.7823 27.6933 51.0276 28.152C51.2836 28.6107 51.6143 28.9627 52.0196 29.208C52.4356 29.4427 52.873 29.56 53.3316 29.56C53.801 29.56 54.2383 29.4427 54.6436 29.208C55.049 28.9733 55.3743 28.632 55.6196 28.184C55.8756 27.7253 56.0036 27.192 56.0036 26.584ZM63.1194 31.144C62.426 31.144 61.802 31.0213 61.2474 30.776C60.7034 30.52 60.2714 30.1787 59.9514 29.752C59.6314 29.3147 59.4607 28.8293 59.4394 28.296H61.3274C61.3594 28.6693 61.5354 28.984 61.8554 29.24C62.186 29.4853 62.5967 29.608 63.0874 29.608C63.5994 29.608 63.994 29.512 64.2714 29.32C64.5594 29.1173 64.7034 28.8613 64.7034 28.552C64.7034 28.2213 64.5434 27.976 64.2234 27.816C63.914 27.656 63.418 27.48 62.7354 27.288C62.074 27.1067 61.5354 26.9307 61.1194 26.76C60.7034 26.5893 60.3407 26.328 60.0314 25.976C59.7327 25.624 59.5834 25.16 59.5834 24.584C59.5834 24.1147 59.722 23.688 59.9994 23.304C60.2767 22.9093 60.6714 22.6 61.1834 22.376C61.706 22.152 62.3034 22.04 62.9754 22.04C63.978 22.04 64.7834 22.296 65.3914 22.808C66.01 23.3093 66.3407 23.9973 66.3834 24.872H64.5594C64.5274 24.4773 64.3674 24.1627 64.0794 23.928C63.7914 23.6933 63.402 23.576 62.9114 23.576C62.4314 23.576 62.0634 23.6667 61.8074 23.848C61.5514 24.0293 61.4234 24.2693 61.4234 24.568C61.4234 24.8027 61.5087 25 61.6794 25.16C61.85 25.32 62.058 25.448 62.3034 25.544C62.5487 25.6293 62.9114 25.7413 63.3914 25.88C64.0314 26.0507 64.554 26.2267 64.9594 26.408C65.3754 26.5787 65.7327 26.8347 66.0314 27.176C66.33 27.5173 66.4847 27.9707 66.4954 28.536C66.4954 29.0373 66.3567 29.4853 66.0794 29.88C65.802 30.2747 65.4074 30.584 64.8954 30.808C64.394 31.032 63.802 31.144 63.1194 31.144ZM71.3463 31.144C70.6529 31.144 70.0289 31.0213 69.4743 30.776C68.9303 30.52 68.4983 30.1787 68.1783 29.752C67.8583 29.3147 67.6876 28.8293 67.6663 28.296H69.5543C69.5863 28.6693 69.7623 28.984 70.0823 29.24C70.4129 29.4853 70.8236 29.608 71.3143 29.608C71.8263 29.608 72.2209 29.512 72.4983 29.32C72.7863 29.1173 72.9303 28.8613 72.9303 28.552C72.9303 28.2213 72.7703 27.976 72.4503 27.816C72.1409 27.656 71.6449 27.48 70.9623 27.288C70.3009 27.1067 69.7623 26.9307 69.3463 26.76C68.9303 26.5893 68.5676 26.328 68.2583 25.976C67.9596 25.624 67.8103 25.16 67.8103 24.584C67.8103 24.1147 67.9489 23.688 68.2263 23.304C68.5036 22.9093 68.8983 22.6 69.4103 22.376C69.9329 22.152 70.5303 22.04 71.2023 22.04C72.2049 22.04 73.0103 22.296 73.6183 22.808C74.2369 23.3093 74.5676 23.9973 74.6103 24.872H72.7863C72.7543 24.4773 72.5943 24.1627 72.3063 23.928C72.0183 23.6933 71.6289 23.576 71.1383 23.576C70.6583 23.576 70.2903 23.6667 70.0343 23.848C69.7783 24.0293 69.6503 24.2693 69.6503 24.568C69.6503 24.8027 69.7356 25 69.9063 25.16C70.0769 25.32 70.2849 25.448 70.5303 25.544C70.7756 25.6293 71.1383 25.7413 71.6183 25.88C72.2583 26.0507 72.7809 26.2267 73.1863 26.408C73.6023 26.5787 73.9596 26.8347 74.2583 27.176C74.5569 27.5173 74.7116 27.9707 74.7223 28.536C74.7223 29.0373 74.5836 29.4853 74.3063 29.88C74.0289 30.2747 73.6343 30.584 73.1223 30.808C72.6209 31.032 72.0289 31.144 71.3463 31.144ZM75.7651 26.552C75.7651 25.6667 75.9465 24.8827 76.3091 24.2C76.6825 23.5173 77.1838 22.9893 77.8131 22.616C78.4531 22.232 79.1571 22.04 79.9251 22.04C80.6185 22.04 81.2211 22.1787 81.7331 22.456C82.2558 22.7227 82.6718 23.0587 82.9811 23.464V22.184H84.8211V31H82.9811V29.688C82.6718 30.104 82.2505 30.4507 81.7171 30.728C81.1838 31.0053 80.5758 31.144 79.8931 31.144C79.1358 31.144 78.4425 30.952 77.8131 30.568C77.1838 30.1733 76.6825 29.6293 76.3091 28.936C75.9465 28.232 75.7651 27.4373 75.7651 26.552ZM82.9811 26.584C82.9811 25.976 82.8531 25.448 82.5971 25C82.3518 24.552 82.0265 24.2107 81.6211 23.976C81.2158 23.7413 80.7785 23.624 80.3091 23.624C79.8398 23.624 79.4025 23.7413 78.9971 23.976C78.5918 24.2 78.2611 24.536 78.0051 24.984C77.7598 25.4213 77.6371 25.944 77.6371 26.552C77.6371 27.16 77.7598 27.6933 78.0051 28.152C78.2611 28.6107 78.5918 28.9627 78.9971 29.208C79.4131 29.4427 79.8505 29.56 80.3091 29.56C80.7785 29.56 81.2158 29.4427 81.6211 29.208C82.0265 28.9733 82.3518 28.632 82.5971 28.184C82.8531 27.7253 82.9811 27.192 82.9811 26.584ZM90.1251 26.552C90.1251 25.6667 90.3065 24.8827 90.6691 24.2C91.0425 23.5173 91.5438 22.9893 92.1731 22.616C92.8131 22.232 93.5171 22.04 94.2851 22.04C94.9785 22.04 95.5811 22.1787 96.0931 22.456C96.6158 22.7227 97.0318 23.0587 97.3411 23.464V22.184H99.1811V31H97.3411V29.688C97.0318 30.104 96.6105 30.4507 96.0771 30.728C95.5438 31.0053 94.9358 31.144 94.2531 31.144C93.4958 31.144 92.8025 30.952 92.1731 30.568C91.5438 30.1733 91.0425 29.6293 90.6691 28.936C90.3065 28.232 90.1251 27.4373 90.1251 26.552ZM97.3411 26.584C97.3411 25.976 97.2131 25.448 96.9571 25C96.7118 24.552 96.3865 24.2107 95.9811 23.976C95.5758 23.7413 95.1385 23.624 94.6691 23.624C94.1998 23.624 93.7625 23.7413 93.3571 23.976C92.9518 24.2 92.6211 24.536 92.3651 24.984C92.1198 25.4213 91.9971 25.944 91.9971 26.552C91.9971 27.16 92.1198 27.6933 92.3651 28.152C92.6211 28.6107 92.9518 28.9627 93.3571 29.208C93.7731 29.4427 94.2105 29.56 94.6691 29.56C95.1385 29.56 95.5758 29.4427 95.9811 29.208C96.3865 28.9733 96.7118 28.632 96.9571 28.184C97.2131 27.7253 97.3411 27.192 97.3411 26.584ZM103.081 19.16V31H101.257V19.16H103.081ZM106.98 19.16V31H105.156V19.16H106.98ZM108.446 26.552C108.446 25.6667 108.628 24.8827 108.99 24.2C109.364 23.5173 109.865 22.9893 110.494 22.616C111.134 22.232 111.838 22.04 112.606 22.04C113.3 22.04 113.902 22.1787 114.414 22.456C114.937 22.7227 115.353 23.0587 115.662 23.464V22.184H117.502V31H115.662V29.688C115.353 30.104 114.932 30.4507 114.398 30.728C113.865 31.0053 113.257 31.144 112.574 31.144C111.817 31.144 111.124 30.952 110.494 30.568C109.865 30.1733 109.364 29.6293 108.99 28.936C108.628 28.232 108.446 27.4373 108.446 26.552ZM115.662 26.584C115.662 25.976 115.534 25.448 115.278 25C115.033 24.552 114.708 24.2107 114.302 23.976C113.897 23.7413 113.46 23.624 112.99 23.624C112.521 23.624 112.084 23.7413 111.678 23.976C111.273 24.2 110.942 24.536 110.686 24.984C110.441 25.4213 110.318 25.944 110.318 26.552C110.318 27.16 110.441 27.6933 110.686 28.152C110.942 28.6107 111.273 28.9627 111.678 29.208C112.094 29.4427 112.532 29.56 112.99 29.56C113.46 29.56 113.897 29.4427 114.302 29.208C114.708 28.9733 115.033 28.632 115.278 28.184C115.534 27.7253 115.662 27.192 115.662 26.584ZM126.822 29.368L129.318 22.184H131.254L127.894 31H125.718L122.374 22.184H124.326L126.822 29.368ZM140.393 26.376C140.393 26.7067 140.372 27.0053 140.329 27.272H133.593C133.646 27.976 133.908 28.5413 134.377 28.968C134.846 29.3947 135.422 29.608 136.105 29.608C137.086 29.608 137.78 29.1973 138.185 28.376H140.153C139.886 29.1867 139.401 29.8533 138.697 30.376C138.004 30.888 137.14 31.144 136.105 31.144C135.262 31.144 134.505 30.9573 133.833 30.584C133.172 30.2 132.649 29.6667 132.265 28.984C131.892 28.2907 131.705 27.4907 131.705 26.584C131.705 25.6773 131.886 24.8827 132.249 24.2C132.622 23.5067 133.14 22.9733 133.801 22.6C134.473 22.2267 135.241 22.04 136.105 22.04C136.937 22.04 137.678 22.2213 138.329 22.584C138.98 22.9467 139.486 23.4587 139.849 24.12C140.212 24.7707 140.393 25.5227 140.393 26.376ZM138.489 25.8C138.478 25.128 138.238 24.5893 137.769 24.184C137.3 23.7787 136.718 23.576 136.025 23.576C135.396 23.576 134.857 23.7787 134.409 24.184C133.961 24.5787 133.694 25.1173 133.609 25.8H138.489ZM143.692 23.464C143.959 23.016 144.311 22.6693 144.748 22.424C145.196 22.168 145.724 22.04 146.332 22.04V23.928H145.868C145.153 23.928 144.609 24.1093 144.236 24.472C143.873 24.8347 143.692 25.464 143.692 26.36V31H141.868V22.184H143.692V23.464ZM150.889 31.144C150.195 31.144 149.571 31.0213 149.017 30.776C148.473 30.52 148.041 30.1787 147.721 29.752C147.401 29.3147 147.23 28.8293 147.209 28.296H149.097C149.129 28.6693 149.305 28.984 149.625 29.24C149.955 29.4853 150.366 29.608 150.857 29.608C151.369 29.608 151.763 29.512 152.041 29.32C152.329 29.1173 152.473 28.8613 152.473 28.552C152.473 28.2213 152.313 27.976 151.993 27.816C151.683 27.656 151.187 27.48 150.505 27.288C149.843 27.1067 149.305 26.9307 148.889 26.76C148.473 26.5893 148.11 26.328 147.801 25.976C147.502 25.624 147.353 25.16 147.353 24.584C147.353 24.1147 147.491 23.688 147.769 23.304C148.046 22.9093 148.441 22.6 148.953 22.376C149.475 22.152 150.073 22.04 150.745 22.04C151.747 22.04 152.553 22.296 153.161 22.808C153.779 23.3093 154.11 23.9973 154.153 24.872H152.329C152.297 24.4773 152.137 24.1627 151.849 23.928C151.561 23.6933 151.171 23.576 150.681 23.576C150.201 23.576 149.833 23.6667 149.577 23.848C149.321 24.0293 149.193 24.2693 149.193 24.568C149.193 24.8027 149.278 25 149.449 25.16C149.619 25.32 149.827 25.448 150.073 25.544C150.318 25.6293 150.681 25.7413 151.161 25.88C151.801 26.0507 152.323 26.2267 152.729 26.408C153.145 26.5787 153.502 26.8347 153.801 27.176C154.099 27.5173 154.254 27.9707 154.265 28.536C154.265 29.0373 154.126 29.4853 153.849 29.88C153.571 30.2747 153.177 30.584 152.665 30.808C152.163 31.032 151.571 31.144 150.889 31.144ZM156.844 21.016C156.513 21.016 156.236 20.904 156.012 20.68C155.788 20.456 155.676 20.1787 155.676 19.848C155.676 19.5173 155.788 19.24 156.012 19.016C156.236 18.792 156.513 18.68 156.844 18.68C157.164 18.68 157.436 18.792 157.66 19.016C157.884 19.24 157.996 19.5173 157.996 19.848C157.996 20.1787 157.884 20.456 157.66 20.68C157.436 20.904 157.164 21.016 156.844 21.016ZM157.74 22.184V31H155.916V22.184H157.74ZM163.638 31.144C162.806 31.144 162.054 30.9573 161.382 30.584C160.71 30.2 160.182 29.6667 159.798 28.984C159.414 28.2907 159.222 27.4907 159.222 26.584C159.222 25.688 159.42 24.8933 159.814 24.2C160.209 23.5067 160.748 22.9733 161.43 22.6C162.113 22.2267 162.876 22.04 163.718 22.04C164.561 22.04 165.324 22.2267 166.006 22.6C166.689 22.9733 167.228 23.5067 167.622 24.2C168.017 24.8933 168.214 25.688 168.214 26.584C168.214 27.48 168.012 28.2747 167.606 28.968C167.201 29.6613 166.646 30.2 165.942 30.584C165.249 30.9573 164.481 31.144 163.638 31.144ZM163.638 29.56C164.108 29.56 164.545 29.448 164.95 29.224C165.366 29 165.702 28.664 165.958 28.216C166.214 27.768 166.342 27.224 166.342 26.584C166.342 25.944 166.22 25.4053 165.974 24.968C165.729 24.52 165.404 24.184 164.998 23.96C164.593 23.736 164.156 23.624 163.686 23.624C163.217 23.624 162.78 23.736 162.374 23.96C161.98 24.184 161.665 24.52 161.43 24.968C161.196 25.4053 161.078 25.944 161.078 26.584C161.078 27.5333 161.318 28.2693 161.798 28.792C162.289 29.304 162.902 29.56 163.638 29.56ZM174.145 22.04C174.839 22.04 175.457 22.184 176.001 22.472C176.556 22.76 176.988 23.1867 177.297 23.752C177.607 24.3173 177.761 25 177.761 25.8V31H175.953V26.072C175.953 25.2827 175.756 24.68 175.361 24.264C174.967 23.8373 174.428 23.624 173.745 23.624C173.063 23.624 172.519 23.8373 172.113 24.264C171.719 24.68 171.521 25.2827 171.521 26.072V31H169.697V22.184H171.521V23.192C171.82 22.8293 172.199 22.5467 172.657 22.344C173.127 22.1413 173.623 22.04 174.145 22.04ZM187.848 26.376C187.848 26.7067 187.827 27.0053 187.784 27.272H181.048C181.101 27.976 181.363 28.5413 181.832 28.968C182.301 29.3947 182.877 29.608 183.56 29.608C184.541 29.608 185.235 29.1973 185.64 28.376H187.608C187.341 29.1867 186.856 29.8533 186.152 30.376C185.459 30.888 184.595 31.144 183.56 31.144C182.717 31.144 181.96 30.9573 181.288 30.584C180.627 30.2 180.104 29.6667 179.72 28.984C179.347 28.2907 179.16 27.4907 179.16 26.584C179.16 25.6773 179.341 24.8827 179.704 24.2C180.077 23.5067 180.595 22.9733 181.256 22.6C181.928 22.2267 182.696 22.04 183.56 22.04C184.392 22.04 185.133 22.2213 185.784 22.584C186.435 22.9467 186.941 23.4587 187.304 24.12C187.667 24.7707 187.848 25.5227 187.848 26.376ZM185.944 25.8C185.933 25.128 185.693 24.5893 185.224 24.184C184.755 23.7787 184.173 23.576 183.48 23.576C182.851 23.576 182.312 23.7787 181.864 24.184C181.416 24.5787 181.149 25.1173 181.064 25.8H185.944ZM194.983 23.48C195.293 23.0747 195.714 22.7333 196.247 22.456C196.781 22.1787 197.383 22.04 198.055 22.04C198.823 22.04 199.522 22.232 200.151 22.616C200.791 22.9893 201.293 23.5173 201.655 24.2C202.018 24.8827 202.199 25.6667 202.199 26.552C202.199 27.4373 202.018 28.232 201.655 28.936C201.293 29.6293 200.791 30.1733 200.151 30.568C199.522 30.952 198.823 31.144 198.055 31.144C197.383 31.144 196.786 31.0107 196.263 30.744C195.741 30.4667 195.314 30.1253 194.983 29.72V35.192H193.159V22.184H194.983V23.48ZM200.343 26.552C200.343 25.944 200.215 25.4213 199.959 24.984C199.714 24.536 199.383 24.2 198.967 23.976C198.562 23.7413 198.125 23.624 197.655 23.624C197.197 23.624 196.759 23.7413 196.343 23.976C195.938 24.2107 195.607 24.552 195.351 25C195.106 25.448 194.983 25.976 194.983 26.584C194.983 27.192 195.106 27.7253 195.351 28.184C195.607 28.632 195.938 28.9733 196.343 29.208C196.759 29.4427 197.197 29.56 197.655 29.56C198.125 29.56 198.562 29.4427 198.967 29.208C199.383 28.9627 199.714 28.6107 199.959 28.152C200.215 27.6933 200.343 27.16 200.343 26.552ZM205.507 23.464C205.774 23.016 206.126 22.6693 206.563 22.424C207.011 22.168 207.539 22.04 208.147 22.04V23.928H207.683C206.968 23.928 206.424 24.1093 206.051 24.472C205.688 24.8347 205.507 25.464 205.507 26.36V31H203.683V22.184H205.507V23.464ZM213.328 31.144C212.496 31.144 211.744 30.9573 211.072 30.584C210.4 30.2 209.872 29.6667 209.488 28.984C209.104 28.2907 208.912 27.4907 208.912 26.584C208.912 25.688 209.109 24.8933 209.504 24.2C209.898 23.5067 210.437 22.9733 211.12 22.6C211.802 22.2267 212.565 22.04 213.408 22.04C214.25 22.04 215.013 22.2267 215.696 22.6C216.378 22.9733 216.917 23.5067 217.312 24.2C217.706 24.8933 217.904 25.688 217.904 26.584C217.904 27.48 217.701 28.2747 217.296 28.968C216.89 29.6613 216.336 30.2 215.632 30.584C214.938 30.9573 214.17 31.144 213.328 31.144ZM213.328 29.56C213.797 29.56 214.234 29.448 214.64 29.224C215.056 29 215.392 28.664 215.648 28.216C215.904 27.768 216.032 27.224 216.032 26.584C216.032 25.944 215.909 25.4053 215.664 24.968C215.418 24.52 215.093 24.184 214.688 23.96C214.282 23.736 213.845 23.624 213.376 23.624C212.906 23.624 212.469 23.736 212.064 23.96C211.669 24.184 211.354 24.52 211.12 24.968C210.885 25.4053 210.768 25.944 210.768 26.584C210.768 27.5333 211.008 28.2693 211.488 28.792C211.978 29.304 212.592 29.56 213.328 29.56Z" fill="#F87537"/>
<path d="M68.852 18.1021C66.8212 18.9701 64.2765 17.1545 63.3312 13.979C62.6114 11.5601 63.0879 7.41971 65.1647 6.71234C66.3003 6.32566 69.6677 7.69051 70.6854 10.8354C71.7035 13.9805 70.8828 17.2341 68.852 18.1021Z" fill="#F87537" fill-opacity="0.1"/>
<path d="M78.7812 20.7657C77.0284 20.8932 75.7379 18.7439 75.5131 16.0068C75.3653 14.2113 76.8392 10.8858 78.5917 10.7857C79.7996 10.7166 81.8073 12.7888 81.8591 15.5445C81.9117 18.3003 80.5333 20.6381 78.7812 20.7657Z" fill="#F87537" fill-opacity="0.1"/>
<path d="M74.2233 21.5819C75.5089 22.5944 77.0872 23.0826 78.7088 22.9166C80.4425 22.7391 82.2381 22.4191 84.0387 24.855C86.2606 27.8612 85.306 32.4954 82.3081 34.8682C81.4634 35.5366 80.5328 35.966 79.586 36.1677C78.5603 36.3857 77.5939 36.842 76.7576 37.4963C75.9279 38.1608 75.2254 39.0255 74.7077 40.0286C74.2297 40.9552 73.562 41.7914 72.7173 42.4598C69.7195 44.8326 65.4469 44.3358 63.5926 41.039C62.0898 38.3677 62.9432 36.5903 63.6549 34.8321C64.3202 33.188 64.4122 31.3778 63.9609 29.704C63.1621 26.741 64.2655 23.5811 66.5763 21.7521C68.8872 19.9239 71.946 19.7888 74.2233 21.5819Z" fill="#F87537" fill-opacity="0.1"/>
<path d="M60.9448 15.8641C63.3479 17.89 64.0673 21.1451 62.6621 22.9851C61.2569 24.825 58.2102 24.6199 55.8568 22.5272C53.5034 20.4345 53.4381 16.4672 54.1395 15.4062C55.4226 13.4661 59.1146 14.3208 60.9448 15.8641Z" fill="#F87537" fill-opacity="0.1"/>
<path d="M58.6907 29.2631C60.9552 30.3928 62.3694 32.4448 61.6872 34.2352C61.0061 36.0263 58.5587 36.7037 56.222 35.7487C53.885 34.7933 52.7716 32.0169 53.2254 30.7766C53.8838 28.9758 57.2055 28.5221 58.6907 29.2631Z" fill="#F87537" fill-opacity="0.1"/>
<path d="M30.0332 29.3202C28.6306 30.3873 26.308 29.4776 24.9584 27.2043C23.9305 25.4726 23.4932 22.1758 24.9626 21.2242C25.7661 20.7039 28.6376 21.1045 30.0374 23.3401C31.4374 25.5756 31.4357 28.2532 30.0332 29.3202Z" fill="#F87537" fill-opacity="0.1"/>
<path d="M38.2387 29.4483C36.9071 29.8881 35.4901 28.4761 34.7832 26.4018C34.3194 25.0411 34.8126 22.1808 36.1492 21.7622C37.0705 21.4736 39.0275 22.6863 39.6041 24.8086C40.1812 26.931 39.5697 29.0084 38.2387 29.4483Z" fill="#F87537" fill-opacity="0.1"/>
<path d="M34.8679 30.9674C36.0598 31.5007 37.3762 31.5712 38.5988 31.1271C39.9058 30.6523 41.233 30.055 43.1006 31.5895C45.4052 33.4833 45.5686 37.2553 43.7106 39.675C43.1871 40.3567 42.5505 40.8702 41.8571 41.2105C41.1058 41.5789 40.4469 42.1202 39.927 42.7893C39.4144 43.465 39.039 44.2709 38.8337 45.148C38.6442 45.958 38.2903 46.7351 37.7668 47.4168C35.9088 49.8365 32.5058 50.2838 30.4291 48.0936C28.7462 46.3189 29.0605 44.7774 29.269 43.2783C29.4637 41.8765 29.1826 40.4578 28.5075 39.2504C27.3126 37.113 27.5513 34.453 28.9834 32.5877C30.4158 30.7232 32.7565 30.0231 34.8679 30.9674Z" fill="#F87537" fill-opacity="0.1"/>
<path d="M23.4785 29.1278C25.7325 30.2278 26.9228 32.6067 26.1936 34.304C25.4643 36.0014 23.0668 36.4358 20.8382 35.2745C18.6097 34.1132 17.7868 31.0559 18.1231 30.0983C18.7383 28.3472 21.7617 28.2898 23.4785 29.1278Z" fill="#F87537" fill-opacity="0.1"/>
<path d="M24.3428 39.9353C26.3151 40.3687 27.8089 41.6813 27.6296 43.1996C27.4511 44.7182 25.6891 45.7189 23.695 45.4347C21.7005 45.1503 20.2985 43.2186 20.4082 42.1704C20.5671 40.6487 23.0493 39.651 24.3428 39.9353Z" fill="#F87537" fill-opacity="0.1"/>
<path d="M192.489 27.9925C191.166 27.1589 191.2 24.9463 192.669 23.1182C193.789 21.7259 196.392 20.3377 197.639 21.2628C198.321 21.7687 198.881 24.2791 197.459 26.1371C196.037 27.9953 193.811 28.8262 192.489 27.9925Z" fill="#F87537" fill-opacity="0.1"/>
<path d="M194.932 34.848C194.153 33.8783 194.886 32.262 196.389 31.03C197.376 30.2216 199.906 29.7422 200.669 30.7227C201.195 31.3984 200.796 33.4014 199.212 34.5402C197.628 35.6795 195.711 35.8172 194.932 34.848Z" fill="#F87537" fill-opacity="0.1"/>
<path d="M192.623 32.5216C192.55 33.6778 192.901 34.7935 193.65 35.6712C194.451 36.6095 195.359 37.5266 194.665 39.5554C193.808 42.0589 190.725 43.3672 188.137 42.5757C187.407 42.3526 186.783 41.9833 186.285 41.5129C185.745 41.0032 185.09 40.624 184.373 40.4C183.652 40.1841 182.866 40.1228 182.073 40.2248C181.341 40.3191 180.586 40.2666 179.856 40.0436C177.268 39.252 175.839 36.5636 177.013 34.1572C177.965 32.2073 179.343 31.9893 180.653 31.6966C181.879 31.4226 182.97 30.748 183.763 29.8117C185.168 28.1545 187.452 27.526 189.447 28.1361C191.442 28.7466 192.751 30.4738 192.623 32.5216Z" fill="#F87537" fill-opacity="0.1"/>
<path d="M190.611 22.4867C190.397 24.7014 188.791 26.4299 187.154 26.3516C185.517 26.2734 184.411 24.4163 184.683 22.2037C184.955 19.9911 187.239 18.357 188.14 18.3387C189.786 18.3056 190.773 20.7998 190.611 22.4867Z" fill="#F87537" fill-opacity="0.1"/>
<path d="M181.9 26.5642C182.153 28.3377 181.527 29.9869 180.21 30.3098C178.893 30.6336 177.513 29.4806 177.13 27.7354C176.746 25.9899 177.915 24.2245 178.82 23.9898C180.134 23.6488 181.734 25.4011 181.9 26.5642Z" fill="#F87537" fill-opacity="0.1"/>
<path d="M174.938 10.4376C174.084 10.1584 173.792 8.92061 174.355 7.69585C174.783 6.76296 176.04 5.62438 176.865 5.96503C177.316 6.15133 177.98 7.47192 177.447 8.70677C176.915 9.94175 175.792 10.7168 174.938 10.4376Z" fill="#F87537" fill-opacity="0.1"/>
<path d="M177.261 13.9167C176.69 13.4855 176.872 12.482 177.538 11.5846C177.974 10.9958 179.317 10.374 179.879 10.8134C180.267 11.1162 180.326 12.2884 179.603 13.1452C178.88 14.0022 177.831 14.3475 177.261 13.9167Z" fill="#F87537" fill-opacity="0.1"/>
<path d="M175.648 12.9428C175.77 13.5973 176.122 14.1699 176.662 14.5541C177.24 14.9648 177.875 15.3485 177.772 16.5764C177.646 18.0918 176.111 19.2532 174.558 19.1749C174.12 19.1528 173.72 19.0345 173.376 18.8423C173.004 18.6339 172.586 18.5143 172.155 18.49C171.723 18.4708 171.276 18.5468 170.849 18.7148C170.454 18.87 170.026 18.9467 169.588 18.9246C168.035 18.8463 166.861 17.5484 167.178 16.0427C167.435 14.8227 168.173 14.5079 168.862 14.1611C169.506 13.8366 170.02 13.3076 170.331 12.6746C170.881 11.5542 172.066 10.8836 173.264 10.9439C174.461 11.0046 175.433 11.7836 175.648 12.9428Z" fill="#F87537" fill-opacity="0.1"/>
<path d="M173.119 7.63238C173.311 8.89655 172.658 10.0851 171.735 10.271C170.811 10.4568 169.934 9.57698 169.776 8.30573C169.617 7.03448 170.661 5.80354 171.161 5.66716C172.073 5.41788 172.973 6.66948 173.119 7.63238Z" fill="#F87537" fill-opacity="0.1"/>
<path d="M168.836 11.1261C169.225 12.079 169.107 13.0859 168.419 13.4505C167.73 13.8157 166.8 13.3665 166.341 12.4477C165.883 11.5287 166.287 10.3809 166.758 10.1232C167.442 9.74901 168.58 10.5012 168.836 11.1261Z" fill="#F87537" fill-opacity="0.1"/>
<path d="M216.27 13.1864C215.788 12.7438 215.967 11.8349 216.71 11.192C217.275 10.7023 218.451 10.3256 218.896 10.8001C219.139 11.0596 219.182 12.1357 218.456 12.7945C217.731 13.4534 216.752 13.6289 216.27 13.1864Z" fill="#F87537" fill-opacity="0.1"/>
<path d="M216.763 16.1942C216.514 15.7364 216.937 15.1255 217.649 14.7306C218.116 14.4715 219.194 14.4637 219.435 14.9248C219.601 15.2425 219.286 16.0377 218.549 16.3881C217.811 16.7387 217.011 16.6518 216.763 16.1942Z" fill="#F87537" fill-opacity="0.1"/>
<path d="M215.985 15.062C215.869 15.5328 215.93 16.0187 216.173 16.4364C216.432 16.8829 216.738 17.3288 216.3 18.1125C215.759 19.0795 214.391 19.3874 213.384 18.8674C213.1 18.7209 212.871 18.5219 212.701 18.2908C212.517 18.0404 212.275 17.8351 211.997 17.6891C211.716 17.5462 211.397 17.462 211.062 17.4446C210.754 17.4286 210.447 17.3504 210.163 17.2038C209.156 16.6838 208.769 15.4692 209.433 14.566C209.971 13.834 210.555 13.8475 211.117 13.8251C211.642 13.8041 212.142 13.608 212.539 13.2817C213.242 12.7043 214.23 12.6166 215.006 13.0174C215.782 13.4184 216.192 14.228 215.985 15.062Z" fill="#F87537" fill-opacity="0.1"/>
<path d="M215.909 10.7775C215.655 11.6738 214.864 12.2655 214.195 12.1105C213.527 11.9556 213.21 11.1077 213.488 10.2167C213.766 9.32558 214.83 8.82365 215.202 8.88359C215.883 8.99329 216.102 10.0948 215.909 10.7775Z" fill="#F87537" fill-opacity="0.1"/>
<path d="M212.014 11.8044C211.986 12.554 211.604 13.1864 211.037 13.2207C210.47 13.2554 209.989 12.6771 209.961 11.9294C209.934 11.1816 210.548 10.542 210.938 10.5131C211.505 10.4711 212.033 11.3129 212.014 11.8044Z" fill="#F87537" fill-opacity="0.1"/>
</g>
<defs>
<clipPath id="clip0_2729_628">
<rect width="229" height="50" fill="white"/>
</clipPath>
<clipPath id="clip1_2729_628">
<rect width="24" height="24" fill="white" transform="translate(10 13)"/>
</clipPath>
</defs>
</svg>
