<?xml version="1.0" encoding="utf-8"?>
<!-- Generator: Adobe Illustrator 18.0.0, SVG Export Plug-In . SVG Version: 6.00 Build 0)  -->
<!DOCTYPE svg PUBLIC "-//W3C//DTD SVG 1.1//EN" "http://www.w3.org/Graphics/SVG/1.1/DTD/svg11.dtd">
<svg version="1.1" id="Livello_1" xmlns="http://www.w3.org/2000/svg" xmlns:xlink="http://www.w3.org/1999/xlink" x="0px" y="0px"
	 viewBox="0 0 363 308" enable-background="new 0 0 363 308" xml:space="preserve">
<g>
	<path fill="#FAF9F8" d="M5,0h353c2.8,0,5,2.2,5,5v297c0,2.8-2.2,5-5,5H5c-2.8,0-5-2.2-5-5V5C0,2.2,2.2,0,5,0z"/>
	<g>
		<defs>
			<rect id="SVGID_1_" x="122.5" y="94.5" width="118" height="118"/>
		</defs>
		<clipPath id="SVGID_2_">
			<use xlink:href="#SVGID_1_"  overflow="visible"/>
		</clipPath>
		<g clip-path="url(#SVGID_2_)">
			<path fill="#CBCBCB" d="M181.5,143.7c-6.5,0-9.7,2.1-14.4,9.5l-1.2,2l-1.9,3.4c-0.2,0.4-0.5,0.8-0.7,1.2
				c-1.2,2.1-2.8,3.7-5.6,5.6l-2.7,1.8c-4.6,3.1-7,5.5-8.4,9.6c-0.6,1.7-1,4.2-0.9,6.3c0,8.3,5.9,14.7,13.8,14.7l1.2,0
				c0.6,0,1.2-0.1,1.7-0.2l1.2-0.2l0.6-0.1l1.4-0.4l0.8-0.2l2.8-0.8l3.8-1.2l2.2-0.7c2.6-0.7,4.6-1.1,6.3-1.1c1.7,0,3.7,0.4,6.3,1.1
				l2.2,0.7l3.8,1.2l2.8,0.8l1.5,0.4c0.5,0.1,0.9,0.2,1.3,0.3l1.2,0.2c0.6,0.1,1.2,0.1,1.7,0.2l1.2,0c7.9,0,13.8-6.4,13.8-14.7
				c0-2.1-0.4-4.6-1-6.4c-1.2-3.6-3.3-6-7.3-9l-1.3-0.9l-2.6-1.9c-3.2-2.3-4.9-4.1-6.2-6.3l-1.3-2.4l-1.2-2.1
				C191.5,145.6,188.6,143.7,181.5,143.7z"/>
			<path fill="#CBCBCB" d="M219.8,128.9h-0.1c-6,0.1-11.6,5.2-14.3,12.3c-3.4,8.7-1.7,18.3,5.3,21.3c1.3,0.5,2.6,0.8,3.9,0.8
				c6.1,0,11.7-5.2,14.5-12.3c3.4-8.7,1.7-18.3-5.3-21.3C222.5,129.2,221.1,128.9,219.8,128.9z"/>
			<path fill="#CBCBCB" d="M166.9,109.3c-0.6,0-0.9,0-1.3,0.1l-0.5,0.1c-7.5,1-11.8,9.8-10.4,19c1.3,8.5,7.2,15.3,14.4,15.3l0.9,0
				c0.1,0,0.3,0,0.4,0l0.5-0.1c7.5-1,11.8-9.8,10.4-19C179.9,116.1,174.1,109.3,166.9,109.3z"/>
			<path fill="#CBCBCB" d="M196.1,109.3c-7.2,0-13,6.8-14.3,15.3c-1.4,9.2,2.8,17.9,10.7,19c0.5,0.1,1,0.1,1.5,0.1
				c6.8,0,12.5-6.2,14.1-14.2l0.2-1.1c1.4-9.2-2.8-17.9-10.7-19C197.1,109.3,196.6,109.2,196.1,109.3z"/>
			<path fill="#CBCBCB" d="M143.2,128.9c-1.3,0-2.7,0.3-3.9,0.8c-7,3-8.7,12.6-5.3,21.3c2.8,7.1,8.4,12.3,14.5,12.3
				c1.3,0,2.7-0.3,3.9-0.8c7-3,8.7-12.6,5.3-21.3C154.9,134.1,149.3,128.9,143.2,128.9z"/>
		</g>
	</g>
</g>
<g>
	<path fill="#F87537" fill-opacity="0.1" d="M291,11.2h55c3.3,0,6,2.7,6,6v16c0,3.3-2.7,6-6,6h-55c-3.3,0-6-2.7-6-6v-16
		C285,13.9,287.7,11.2,291,11.2z"/>
	<path fill="#862B00" d="M296.1,29.7v-9.2h6.7v1.3h-5.2v2.7h4.1v1.3h-4.1v2.7h5.4v1.3H296.1z M309,22.7h1.6l-2.8,7h-1.6l-2.8-7h1.6
		l2,5.7L309,22.7z M314.9,29.9c-0.7,0-1.3-0.1-1.8-0.4c-0.5-0.3-0.9-0.7-1.2-1.2c-0.3-0.6-0.4-1.2-0.4-2c0-0.8,0.1-1.4,0.4-1.9
		c0.3-0.6,0.7-1,1.2-1.3c0.5-0.3,1.1-0.4,1.8-0.4c0.7,0,1.3,0.1,1.7,0.4c0.5,0.3,0.8,0.7,1.1,1.1c0.3,0.5,0.4,1,0.4,1.7
		c0,0.2,0,0.3,0,0.5c0,0.1,0,0.3,0,0.4h-5.6v-1.1h5l-0.7,0.2c0-0.6-0.2-1.1-0.5-1.5c-0.3-0.3-0.8-0.5-1.3-0.5
		c-0.4,0-0.8,0.1-1.1,0.3c-0.3,0.2-0.5,0.5-0.7,0.8c-0.2,0.4-0.2,0.8-0.2,1.3c0,0.5,0.1,1,0.3,1.3s0.4,0.6,0.7,0.8
		c0.3,0.2,0.7,0.3,1.1,0.3c0.5,0,0.8-0.1,1.1-0.3c0.3-0.2,0.5-0.4,0.7-0.7l1.2,0.6c-0.2,0.3-0.4,0.6-0.7,0.9c-0.3,0.2-0.6,0.4-1,0.6
		C315.8,29.8,315.4,29.9,314.9,29.9z M319.9,29.7v-7h1.3l0.1,1.8l-0.2-0.2c0.1-0.4,0.3-0.7,0.6-1c0.3-0.3,0.5-0.5,0.9-0.6
		c0.3-0.1,0.7-0.2,1.1-0.2c0.5,0,0.9,0.1,1.3,0.3c0.4,0.2,0.7,0.5,1,0.9c0.2,0.4,0.3,0.9,0.3,1.5v4.5h-1.5v-4.1
		c0-0.7-0.1-1.2-0.4-1.4c-0.3-0.3-0.6-0.4-1.1-0.4c-0.3,0-0.6,0.1-0.9,0.2c-0.3,0.1-0.5,0.4-0.7,0.7c-0.2,0.3-0.3,0.7-0.3,1.3v3.7
		H319.9z M330.5,20.7v7c0,0.3,0.1,0.6,0.3,0.8c0.2,0.2,0.4,0.2,0.7,0.2c0.3,0,0.5,0,0.7-0.1c0.2-0.1,0.4-0.2,0.5-0.3l0.3,1.1
		c-0.2,0.2-0.5,0.3-0.8,0.4c-0.3,0.1-0.7,0.2-1,0.2c-0.4,0-0.8-0.1-1.1-0.2c-0.3-0.1-0.6-0.3-0.8-0.6c-0.2-0.3-0.3-0.7-0.3-1.2v-6.8
		L330.5,20.7z M332.9,22.7v1.2h-5.3v-1.2H332.9z M337.5,22.6c0.7,0,1.3,0.1,1.8,0.4c0.5,0.3,0.9,0.7,1.2,1.3
		c0.3,0.5,0.4,1.2,0.4,1.9c0,0.8-0.1,1.4-0.4,2c-0.3,0.5-0.7,1-1.2,1.2c-0.5,0.3-1.1,0.4-1.8,0.4s-1.3-0.1-1.8-0.4
		c-0.5-0.3-0.9-0.7-1.2-1.2c-0.3-0.6-0.4-1.2-0.4-2c0-0.8,0.1-1.4,0.4-1.9c0.3-0.6,0.7-1,1.2-1.3C336.2,22.7,336.8,22.6,337.5,22.6z
		 M337.5,23.8c-0.4,0-0.8,0.1-1.1,0.3c-0.3,0.2-0.5,0.5-0.7,0.8s-0.2,0.8-0.2,1.3c0,0.5,0.1,1,0.2,1.3c0.2,0.4,0.4,0.6,0.7,0.8
		c0.3,0.2,0.7,0.3,1.1,0.3s0.8-0.1,1.1-0.3c0.3-0.2,0.5-0.5,0.7-0.8c0.2-0.4,0.2-0.8,0.2-1.3c0-0.5-0.1-1-0.2-1.3s-0.4-0.6-0.7-0.8
		C338.2,23.9,337.9,23.8,337.5,23.8z"/>
</g>
</svg>
