<svg width="345" height="50" viewBox="0 0 345 50" fill="none" xmlns="http://www.w3.org/2000/svg">
<rect x="0.5" y="0.5" width="344" height="49" rx="4.5" fill="#F87537" fill-opacity="0.1" stroke="#F87537"/>
<g clip-path="url(#clip0_2729_1396)">
<path d="M26 31C26.5304 31 27.0391 31.2107 27.4142 31.5858C27.7893 31.9609 28 32.4696 28 33C28 32.4696 28.2107 31.9609 28.5858 31.5858C28.9609 31.2107 29.4696 31 30 31C29.4696 31 28.9609 30.7893 28.5858 30.4142C28.2107 30.0391 28 29.5304 28 29C28 29.5304 27.7893 30.0391 27.4142 30.4142C27.0391 30.7893 26.5304 31 26 31ZM26 19C26.5304 19 27.0391 19.2107 27.4142 19.5858C27.7893 19.9609 28 20.4696 28 21C28 20.4696 28.2107 19.9609 28.5858 19.5858C28.9609 19.2107 29.4696 19 30 19C29.4696 19 28.9609 18.7893 28.5858 18.4142C28.2107 18.0391 28 17.5304 28 17C28 17.5304 27.7893 18.0391 27.4142 18.4142C27.0391 18.7893 26.5304 19 26 19ZM19 31C19 29.4087 19.6321 27.8826 20.7574 26.7574C21.8826 25.6321 23.4087 25 25 25C23.4087 25 21.8826 24.3679 20.7574 23.2426C19.6321 22.1174 19 20.5913 19 19C19 20.5913 18.3679 22.1174 17.2426 23.2426C16.1174 24.3679 14.5913 25 13 25C14.5913 25 16.1174 25.6321 17.2426 26.7574C18.3679 27.8826 19 29.4087 19 31Z" stroke="#F87537" stroke-width="2" stroke-linecap="round" stroke-linejoin="round"/>
</g>
<path d="M43.864 31.112C43.1173 31.112 42.4453 30.984 41.848 30.728C41.2507 30.4613 40.7813 30.088 40.44 29.608C40.0987 29.128 39.928 28.568 39.928 27.928H41.88C41.9227 28.408 42.1093 28.8027 42.44 29.112C42.7813 29.4213 43.256 29.576 43.864 29.576C44.4933 29.576 44.984 29.4267 45.336 29.128C45.688 28.8187 45.864 28.424 45.864 27.944C45.864 27.5707 45.752 27.2667 45.528 27.032C45.3147 26.7973 45.0427 26.616 44.712 26.488C44.392 26.36 43.944 26.2213 43.368 26.072C42.6427 25.88 42.0507 25.688 41.592 25.496C41.144 25.2933 40.76 24.984 40.44 24.568C40.12 24.152 39.96 23.5973 39.96 22.904C39.96 22.264 40.12 21.704 40.44 21.224C40.76 20.744 41.208 20.376 41.784 20.12C42.36 19.864 43.0267 19.736 43.784 19.736C44.8613 19.736 45.7413 20.008 46.424 20.552C47.1173 21.0853 47.5013 21.8213 47.576 22.76H45.56C45.528 22.3547 45.336 22.008 44.984 21.72C44.632 21.432 44.168 21.288 43.592 21.288C43.0693 21.288 42.6427 21.4213 42.312 21.688C41.9813 21.9547 41.816 22.3387 41.816 22.84C41.816 23.1813 41.9173 23.464 42.12 23.688C42.3333 23.9013 42.6 24.072 42.92 24.2C43.24 24.328 43.6773 24.4667 44.232 24.616C44.968 24.8187 45.5653 25.0213 46.024 25.224C46.4933 25.4267 46.888 25.7413 47.208 26.168C47.5387 26.584 47.704 27.144 47.704 27.848C47.704 28.4133 47.5493 28.9467 47.24 29.448C46.9413 29.9493 46.4987 30.3547 45.912 30.664C45.336 30.9627 44.6533 31.112 43.864 31.112ZM48.9283 26.584C48.9283 25.6773 49.1096 24.8827 49.4723 24.2C49.8456 23.5067 50.3576 22.9733 51.0083 22.6C51.6589 22.2267 52.4056 22.04 53.2483 22.04C54.3149 22.04 55.1949 22.296 55.8883 22.808C56.5923 23.3093 57.0669 24.0293 57.3123 24.968H55.3443C55.1843 24.5307 54.9283 24.1893 54.5763 23.944C54.2243 23.6987 53.7816 23.576 53.2483 23.576C52.5016 23.576 51.9043 23.8427 51.4563 24.376C51.0189 24.8987 50.8003 25.6347 50.8003 26.584C50.8003 27.5333 51.0189 28.2747 51.4563 28.808C51.9043 29.3413 52.5016 29.608 53.2483 29.608C54.3043 29.608 55.0029 29.144 55.3443 28.216H57.3123C57.0563 29.112 56.5763 29.8267 55.8723 30.36C55.1683 30.8827 54.2936 31.144 53.2483 31.144C52.4056 31.144 51.6589 30.9573 51.0083 30.584C50.3576 30.2 49.8456 29.6667 49.4723 28.984C49.1096 28.2907 48.9283 27.4907 48.9283 26.584ZM62.634 31.144C61.802 31.144 61.05 30.9573 60.378 30.584C59.706 30.2 59.178 29.6667 58.794 28.984C58.41 28.2907 58.218 27.4907 58.218 26.584C58.218 25.688 58.4153 24.8933 58.81 24.2C59.2047 23.5067 59.7433 22.9733 60.426 22.6C61.1087 22.2267 61.8713 22.04 62.714 22.04C63.5567 22.04 64.3193 22.2267 65.002 22.6C65.6847 22.9733 66.2233 23.5067 66.618 24.2C67.0127 24.8933 67.21 25.688 67.21 26.584C67.21 27.48 67.0073 28.2747 66.602 28.968C66.1967 29.6613 65.642 30.2 64.938 30.584C64.2447 30.9573 63.4767 31.144 62.634 31.144ZM62.634 29.56C63.1033 29.56 63.5407 29.448 63.946 29.224C64.362 29 64.698 28.664 64.954 28.216C65.21 27.768 65.338 27.224 65.338 26.584C65.338 25.944 65.2153 25.4053 64.97 24.968C64.7247 24.52 64.3993 24.184 63.994 23.96C63.5887 23.736 63.1513 23.624 62.682 23.624C62.2127 23.624 61.7753 23.736 61.37 23.96C60.9753 24.184 60.6607 24.52 60.426 24.968C60.1913 25.4053 60.074 25.944 60.074 26.584C60.074 27.5333 60.314 28.2693 60.794 28.792C61.2847 29.304 61.898 29.56 62.634 29.56ZM70.5171 23.48C70.8265 23.0747 71.2478 22.7333 71.7811 22.456C72.3145 22.1787 72.9171 22.04 73.5891 22.04C74.3571 22.04 75.0558 22.232 75.6851 22.616C76.3251 22.9893 76.8265 23.5173 77.1891 24.2C77.5518 24.8827 77.7331 25.6667 77.7331 26.552C77.7331 27.4373 77.5518 28.232 77.1891 28.936C76.8265 29.6293 76.3251 30.1733 75.6851 30.568C75.0558 30.952 74.3571 31.144 73.5891 31.144C72.9171 31.144 72.3198 31.0107 71.7971 30.744C71.2745 30.4667 70.8478 30.1253 70.5171 29.72V35.192H68.6931V22.184H70.5171V23.48ZM75.8771 26.552C75.8771 25.944 75.7491 25.4213 75.4931 24.984C75.2478 24.536 74.9171 24.2 74.5011 23.976C74.0958 23.7413 73.6585 23.624 73.1891 23.624C72.7305 23.624 72.2931 23.7413 71.8771 23.976C71.4718 24.2107 71.1411 24.552 70.8851 25C70.6398 25.448 70.5171 25.976 70.5171 26.584C70.5171 27.192 70.6398 27.7253 70.8851 28.184C71.1411 28.632 71.4718 28.9733 71.8771 29.208C72.2931 29.4427 72.7305 29.56 73.1891 29.56C73.6585 29.56 74.0958 29.4427 74.5011 29.208C74.9171 28.9627 75.2478 28.6107 75.4931 28.152C75.7491 27.6933 75.8771 27.16 75.8771 26.552ZM81.0409 23.464C81.3075 23.016 81.6595 22.6693 82.0969 22.424C82.5449 22.168 83.0729 22.04 83.6809 22.04V23.928H83.2169C82.5022 23.928 81.9582 24.1093 81.5849 24.472C81.2222 24.8347 81.0409 25.464 81.0409 26.36V31H79.2169V22.184H81.0409V23.464ZM85.9655 21.016C85.6348 21.016 85.3575 20.904 85.1335 20.68C84.9095 20.456 84.7975 20.1787 84.7975 19.848C84.7975 19.5173 84.9095 19.24 85.1335 19.016C85.3575 18.792 85.6348 18.68 85.9655 18.68C86.2855 18.68 86.5575 18.792 86.7815 19.016C87.0055 19.24 87.1175 19.5173 87.1175 19.848C87.1175 20.1787 87.0055 20.456 86.7815 20.68C86.5575 20.904 86.2855 21.016 85.9655 21.016ZM86.8615 22.184V31H85.0375V22.184H86.8615ZM95.9725 31.144C95.2792 31.144 94.6552 31.0213 94.1005 30.776C93.5565 30.52 93.1245 30.1787 92.8045 29.752C92.4845 29.3147 92.3138 28.8293 92.2925 28.296H94.1805C94.2125 28.6693 94.3885 28.984 94.7085 29.24C95.0392 29.4853 95.4498 29.608 95.9405 29.608C96.4525 29.608 96.8472 29.512 97.1245 29.32C97.4125 29.1173 97.5565 28.8613 97.5565 28.552C97.5565 28.2213 97.3965 27.976 97.0765 27.816C96.7672 27.656 96.2712 27.48 95.5885 27.288C94.9272 27.1067 94.3885 26.9307 93.9725 26.76C93.5565 26.5893 93.1938 26.328 92.8845 25.976C92.5858 25.624 92.4365 25.16 92.4365 24.584C92.4365 24.1147 92.5752 23.688 92.8525 23.304C93.1298 22.9093 93.5245 22.6 94.0365 22.376C94.5592 22.152 95.1565 22.04 95.8285 22.04C96.8312 22.04 97.6365 22.296 98.2445 22.808C98.8632 23.3093 99.1938 23.9973 99.2365 24.872H97.4125C97.3805 24.4773 97.2205 24.1627 96.9325 23.928C96.6445 23.6933 96.2552 23.576 95.7645 23.576C95.2845 23.576 94.9165 23.6667 94.6605 23.848C94.4045 24.0293 94.2765 24.2693 94.2765 24.568C94.2765 24.8027 94.3618 25 94.5325 25.16C94.7032 25.32 94.9112 25.448 95.1565 25.544C95.4018 25.6293 95.7645 25.7413 96.2445 25.88C96.8845 26.0507 97.4072 26.2267 97.8125 26.408C98.2285 26.5787 98.5858 26.8347 98.8845 27.176C99.1832 27.5173 99.3378 27.9707 99.3485 28.536C99.3485 29.0373 99.2098 29.4853 98.9325 29.88C98.6552 30.2747 98.2605 30.584 97.7485 30.808C97.2472 31.032 96.6552 31.144 95.9725 31.144ZM109.079 26.376C109.079 26.7067 109.058 27.0053 109.015 27.272H102.279C102.333 27.976 102.594 28.5413 103.063 28.968C103.533 29.3947 104.109 29.608 104.791 29.608C105.773 29.608 106.466 29.1973 106.871 28.376H108.839C108.573 29.1867 108.087 29.8533 107.383 30.376C106.69 30.888 105.826 31.144 104.791 31.144C103.949 31.144 103.191 30.9573 102.519 30.584C101.858 30.2 101.335 29.6667 100.951 28.984C100.578 28.2907 100.391 27.4907 100.391 26.584C100.391 25.6773 100.573 24.8827 100.935 24.2C101.309 23.5067 101.826 22.9733 102.487 22.6C103.159 22.2267 103.927 22.04 104.791 22.04C105.623 22.04 106.365 22.2213 107.015 22.584C107.666 22.9467 108.173 23.4587 108.535 24.12C108.898 24.7707 109.079 25.5227 109.079 26.376ZM107.175 25.8C107.165 25.128 106.925 24.5893 106.455 24.184C105.986 23.7787 105.405 23.576 104.711 23.576C104.082 23.576 103.543 23.7787 103.095 24.184C102.647 24.5787 102.381 25.1173 102.295 25.8H107.175ZM115.319 21.016C114.988 21.016 114.711 20.904 114.487 20.68C114.263 20.456 114.151 20.1787 114.151 19.848C114.151 19.5173 114.263 19.24 114.487 19.016C114.711 18.792 114.988 18.68 115.319 18.68C115.639 18.68 115.911 18.792 116.135 19.016C116.359 19.24 116.471 19.5173 116.471 19.848C116.471 20.1787 116.359 20.456 116.135 20.68C115.911 20.904 115.639 21.016 115.319 21.016ZM116.215 22.184V31H114.391V22.184H116.215ZM120.113 19.16V31H118.289V19.16H120.113ZM128.152 23.672V28.552C128.152 28.8827 128.227 29.1227 128.376 29.272C128.536 29.4107 128.803 29.48 129.176 29.48H130.296V31H128.856C128.035 31 127.406 30.808 126.968 30.424C126.531 30.04 126.312 29.416 126.312 28.552V23.672H125.272V22.184H126.312V19.992H128.152V22.184H130.296V23.672H128.152ZM139.641 22.184V31H137.817V29.96C137.529 30.3227 137.151 30.6107 136.681 30.824C136.223 31.0267 135.732 31.128 135.209 31.128C134.516 31.128 133.892 30.984 133.337 30.696C132.793 30.408 132.361 29.9813 132.041 29.416C131.732 28.8507 131.577 28.168 131.577 27.368V22.184H133.385V27.096C133.385 27.8853 133.583 28.4933 133.977 28.92C134.372 29.336 134.911 29.544 135.593 29.544C136.276 29.544 136.815 29.336 137.209 28.92C137.615 28.4933 137.817 27.8853 137.817 27.096V22.184H139.641ZM145.552 31.144C144.72 31.144 143.968 30.9573 143.296 30.584C142.624 30.2 142.096 29.6667 141.712 28.984C141.328 28.2907 141.136 27.4907 141.136 26.584C141.136 25.688 141.333 24.8933 141.728 24.2C142.123 23.5067 142.661 22.9733 143.344 22.6C144.027 22.2267 144.789 22.04 145.632 22.04C146.475 22.04 147.237 22.2267 147.92 22.6C148.603 22.9733 149.141 23.5067 149.536 24.2C149.931 24.8933 150.128 25.688 150.128 26.584C150.128 27.48 149.925 28.2747 149.52 28.968C149.115 29.6613 148.56 30.2 147.856 30.584C147.163 30.9573 146.395 31.144 145.552 31.144ZM145.552 29.56C146.021 29.56 146.459 29.448 146.864 29.224C147.28 29 147.616 28.664 147.872 28.216C148.128 27.768 148.256 27.224 148.256 26.584C148.256 25.944 148.133 25.4053 147.888 24.968C147.643 24.52 147.317 24.184 146.912 23.96C146.507 23.736 146.069 23.624 145.6 23.624C145.131 23.624 144.693 23.736 144.288 23.96C143.893 24.184 143.579 24.52 143.344 24.968C143.109 25.4053 142.992 25.944 142.992 26.584C142.992 27.5333 143.232 28.2693 143.712 28.792C144.203 29.304 144.816 29.56 145.552 29.56ZM157.271 23.48C157.581 23.0747 158.002 22.7333 158.535 22.456C159.069 22.1787 159.671 22.04 160.343 22.04C161.111 22.04 161.81 22.232 162.439 22.616C163.079 22.9893 163.581 23.5173 163.943 24.2C164.306 24.8827 164.487 25.6667 164.487 26.552C164.487 27.4373 164.306 28.232 163.943 28.936C163.581 29.6293 163.079 30.1733 162.439 30.568C161.81 30.952 161.111 31.144 160.343 31.144C159.671 31.144 159.074 31.0107 158.551 30.744C158.029 30.4667 157.602 30.1253 157.271 29.72V35.192H155.447V22.184H157.271V23.48ZM162.631 26.552C162.631 25.944 162.503 25.4213 162.247 24.984C162.002 24.536 161.671 24.2 161.255 23.976C160.85 23.7413 160.413 23.624 159.943 23.624C159.485 23.624 159.047 23.7413 158.631 23.976C158.226 24.2107 157.895 24.552 157.639 25C157.394 25.448 157.271 25.976 157.271 26.584C157.271 27.192 157.394 27.7253 157.639 28.184C157.895 28.632 158.226 28.9733 158.631 29.208C159.047 29.4427 159.485 29.56 159.943 29.56C160.413 29.56 160.85 29.4427 161.255 29.208C161.671 28.9627 162.002 28.6107 162.247 28.152C162.503 27.6933 162.631 27.16 162.631 26.552ZM169.795 31.144C168.963 31.144 168.211 30.9573 167.539 30.584C166.867 30.2 166.339 29.6667 165.955 28.984C165.571 28.2907 165.379 27.4907 165.379 26.584C165.379 25.688 165.577 24.8933 165.971 24.2C166.366 23.5067 166.905 22.9733 167.587 22.6C168.27 22.2267 169.033 22.04 169.875 22.04C170.718 22.04 171.481 22.2267 172.163 22.6C172.846 22.9733 173.385 23.5067 173.779 24.2C174.174 24.8933 174.371 25.688 174.371 26.584C174.371 27.48 174.169 28.2747 173.763 28.968C173.358 29.6613 172.803 30.2 172.099 30.584C171.406 30.9573 170.638 31.144 169.795 31.144ZM169.795 29.56C170.265 29.56 170.702 29.448 171.107 29.224C171.523 29 171.859 28.664 172.115 28.216C172.371 27.768 172.499 27.224 172.499 26.584C172.499 25.944 172.377 25.4053 172.131 24.968C171.886 24.52 171.561 24.184 171.155 23.96C170.75 23.736 170.313 23.624 169.843 23.624C169.374 23.624 168.937 23.736 168.531 23.96C168.137 24.184 167.822 24.52 167.587 24.968C167.353 25.4053 167.235 25.944 167.235 26.584C167.235 27.5333 167.475 28.2693 167.955 28.792C168.446 29.304 169.059 29.56 169.795 29.56ZM179.054 31.144C178.361 31.144 177.737 31.0213 177.182 30.776C176.638 30.52 176.206 30.1787 175.886 29.752C175.566 29.3147 175.396 28.8293 175.374 28.296H177.262C177.294 28.6693 177.47 28.984 177.79 29.24C178.121 29.4853 178.532 29.608 179.022 29.608C179.534 29.608 179.929 29.512 180.206 29.32C180.494 29.1173 180.638 28.8613 180.638 28.552C180.638 28.2213 180.478 27.976 180.158 27.816C179.849 27.656 179.353 27.48 178.67 27.288C178.009 27.1067 177.47 26.9307 177.054 26.76C176.638 26.5893 176.276 26.328 175.966 25.976C175.668 25.624 175.518 25.16 175.518 24.584C175.518 24.1147 175.657 23.688 175.934 23.304C176.212 22.9093 176.606 22.6 177.118 22.376C177.641 22.152 178.238 22.04 178.91 22.04C179.913 22.04 180.718 22.296 181.326 22.808C181.945 23.3093 182.276 23.9973 182.318 24.872H180.494C180.462 24.4773 180.302 24.1627 180.014 23.928C179.726 23.6933 179.337 23.576 178.846 23.576C178.366 23.576 177.998 23.6667 177.742 23.848C177.486 24.0293 177.358 24.2693 177.358 24.568C177.358 24.8027 177.444 25 177.614 25.16C177.785 25.32 177.993 25.448 178.238 25.544C178.484 25.6293 178.846 25.7413 179.326 25.88C179.966 26.0507 180.489 26.2267 180.894 26.408C181.31 26.5787 181.668 26.8347 181.966 27.176C182.265 27.5173 182.42 27.9707 182.43 28.536C182.43 29.0373 182.292 29.4853 182.014 29.88C181.737 30.2747 181.342 30.584 180.83 30.808C180.329 31.032 179.737 31.144 179.054 31.144ZM186.209 23.672V28.552C186.209 28.8827 186.284 29.1227 186.433 29.272C186.593 29.4107 186.86 29.48 187.233 29.48H188.353V31H186.913C186.092 31 185.463 30.808 185.025 30.424C184.588 30.04 184.369 29.416 184.369 28.552V23.672H183.329V22.184H184.369V19.992H186.209V22.184H188.353V23.672H186.209ZM201.631 26.376C201.631 26.7067 201.609 27.0053 201.567 27.272H194.831C194.884 27.976 195.145 28.5413 195.615 28.968C196.084 29.3947 196.66 29.608 197.343 29.608C198.324 29.608 199.017 29.1973 199.423 28.376H201.391C201.124 29.1867 200.639 29.8533 199.935 30.376C199.241 30.888 198.377 31.144 197.343 31.144C196.5 31.144 195.743 30.9573 195.071 30.584C194.409 30.2 193.887 29.6667 193.503 28.984C193.129 28.2907 192.943 27.4907 192.943 26.584C192.943 25.6773 193.124 24.8827 193.487 24.2C193.86 23.5067 194.377 22.9733 195.039 22.6C195.711 22.2267 196.479 22.04 197.343 22.04C198.175 22.04 198.916 22.2213 199.567 22.584C200.217 22.9467 200.724 23.4587 201.087 24.12C201.449 24.7707 201.631 25.5227 201.631 26.376ZM199.727 25.8C199.716 25.128 199.476 24.5893 199.007 24.184C198.537 23.7787 197.956 23.576 197.263 23.576C196.633 23.576 196.095 23.7787 195.647 24.184C195.199 24.5787 194.932 25.1173 194.847 25.8H199.727ZM198.943 20.216V21.56L195.407 19.816V18.264L198.943 20.216ZM210.766 31.144C209.934 31.144 209.182 30.9573 208.51 30.584C207.838 30.2 207.31 29.6667 206.926 28.984C206.542 28.2907 206.35 27.4907 206.35 26.584C206.35 25.688 206.547 24.8933 206.942 24.2C207.337 23.5067 207.875 22.9733 208.558 22.6C209.241 22.2267 210.003 22.04 210.846 22.04C211.689 22.04 212.451 22.2267 213.134 22.6C213.817 22.9733 214.355 23.5067 214.75 24.2C215.145 24.8933 215.342 25.688 215.342 26.584C215.342 27.48 215.139 28.2747 214.734 28.968C214.329 29.6613 213.774 30.2 213.07 30.584C212.377 30.9573 211.609 31.144 210.766 31.144ZM210.766 29.56C211.235 29.56 211.673 29.448 212.078 29.224C212.494 29 212.83 28.664 213.086 28.216C213.342 27.768 213.47 27.224 213.47 26.584C213.47 25.944 213.347 25.4053 213.102 24.968C212.857 24.52 212.531 24.184 212.126 23.96C211.721 23.736 211.283 23.624 210.814 23.624C210.345 23.624 209.907 23.736 209.502 23.96C209.107 24.184 208.793 24.52 208.558 24.968C208.323 25.4053 208.206 25.944 208.206 26.584C208.206 27.5333 208.446 28.2693 208.926 28.792C209.417 29.304 210.03 29.56 210.766 29.56ZM218.953 23.672V28.552C218.953 28.8827 219.028 29.1227 219.177 29.272C219.337 29.4107 219.604 29.48 219.977 29.48H221.097V31H219.657C218.836 31 218.206 30.808 217.769 30.424C217.332 30.04 217.113 29.416 217.113 28.552V23.672H216.073V22.184H217.113V19.992H218.953V22.184H221.097V23.672H218.953ZM224.586 23.672V28.552C224.586 28.8827 224.661 29.1227 224.81 29.272C224.97 29.4107 225.237 29.48 225.61 29.48H226.73V31H225.29C224.469 31 223.839 30.808 223.402 30.424C222.965 30.04 222.746 29.416 222.746 28.552V23.672H221.706V22.184H222.746V19.992H224.586V22.184H226.73V23.672H224.586ZM229.019 21.016C228.689 21.016 228.411 20.904 228.187 20.68C227.963 20.456 227.851 20.1787 227.851 19.848C227.851 19.5173 227.963 19.24 228.187 19.016C228.411 18.792 228.689 18.68 229.019 18.68C229.339 18.68 229.611 18.792 229.835 19.016C230.059 19.24 230.171 19.5173 230.171 19.848C230.171 20.1787 230.059 20.456 229.835 20.68C229.611 20.904 229.339 21.016 229.019 21.016ZM229.915 22.184V31H228.091V22.184H229.915ZM242.662 22.04C243.355 22.04 243.974 22.184 244.518 22.472C245.073 22.76 245.505 23.1867 245.814 23.752C246.134 24.3173 246.294 25 246.294 25.8V31H244.486V26.072C244.486 25.2827 244.289 24.68 243.894 24.264C243.499 23.8373 242.961 23.624 242.278 23.624C241.595 23.624 241.051 23.8373 240.646 24.264C240.251 24.68 240.054 25.2827 240.054 26.072V31H238.246V26.072C238.246 25.2827 238.049 24.68 237.654 24.264C237.259 23.8373 236.721 23.624 236.038 23.624C235.355 23.624 234.811 23.8373 234.406 24.264C234.011 24.68 233.814 25.2827 233.814 26.072V31H231.99V22.184H233.814V23.192C234.113 22.8293 234.491 22.5467 234.95 22.344C235.409 22.1413 235.899 22.04 236.422 22.04C237.126 22.04 237.755 22.1893 238.31 22.488C238.865 22.7867 239.291 23.2187 239.59 23.784C239.857 23.2507 240.273 22.8293 240.838 22.52C241.403 22.2 242.011 22.04 242.662 22.04ZM249.223 21.016C248.892 21.016 248.615 20.904 248.391 20.68C248.167 20.456 248.055 20.1787 248.055 19.848C248.055 19.5173 248.167 19.24 248.391 19.016C248.615 18.792 248.892 18.68 249.223 18.68C249.543 18.68 249.815 18.792 250.039 19.016C250.263 19.24 250.375 19.5173 250.375 19.848C250.375 20.1787 250.263 20.456 250.039 20.68C249.815 20.904 249.543 21.016 249.223 21.016ZM250.119 22.184V31H248.295V22.184H250.119ZM253.81 29.512H257.81V31H251.698V29.512L255.714 23.672H251.698V22.184H257.81V23.672L253.81 29.512ZM261.021 29.512H265.021V31H258.909V29.512L262.925 23.672H258.909V22.184H265.021V23.672L261.021 29.512ZM266.008 26.552C266.008 25.6667 266.19 24.8827 266.552 24.2C266.926 23.5173 267.427 22.9893 268.056 22.616C268.696 22.232 269.4 22.04 270.168 22.04C270.862 22.04 271.464 22.1787 271.976 22.456C272.499 22.7227 272.915 23.0587 273.224 23.464V22.184H275.064V31H273.224V29.688C272.915 30.104 272.494 30.4507 271.96 30.728C271.427 31.0053 270.819 31.144 270.136 31.144C269.379 31.144 268.686 30.952 268.056 30.568C267.427 30.1733 266.926 29.6293 266.552 28.936C266.19 28.232 266.008 27.4373 266.008 26.552ZM273.224 26.584C273.224 25.976 273.096 25.448 272.84 25C272.595 24.552 272.27 24.2107 271.864 23.976C271.459 23.7413 271.022 23.624 270.552 23.624C270.083 23.624 269.646 23.7413 269.24 23.976C268.835 24.2 268.504 24.536 268.248 24.984C268.003 25.4213 267.88 25.944 267.88 26.552C267.88 27.16 268.003 27.6933 268.248 28.152C268.504 28.6107 268.835 28.9627 269.24 29.208C269.656 29.4427 270.094 29.56 270.552 29.56C271.022 29.56 271.459 29.4427 271.864 29.208C272.27 28.9733 272.595 28.632 272.84 28.184C273.096 27.7253 273.224 27.192 273.224 26.584ZM279.268 23.672V28.552C279.268 28.8827 279.343 29.1227 279.492 29.272C279.652 29.4107 279.919 29.48 280.292 29.48H281.412V31H279.972C279.151 31 278.521 30.808 278.084 30.424C277.647 30.04 277.428 29.416 277.428 28.552V23.672H276.388V22.184H277.428V19.992H279.268V22.184H281.412V23.672H279.268ZM286.597 31.144C285.765 31.144 285.013 30.9573 284.341 30.584C283.669 30.2 283.141 29.6667 282.757 28.984C282.373 28.2907 282.181 27.4907 282.181 26.584C282.181 25.688 282.378 24.8933 282.773 24.2C283.168 23.5067 283.706 22.9733 284.389 22.6C285.072 22.2267 285.834 22.04 286.677 22.04C287.52 22.04 288.282 22.2267 288.965 22.6C289.648 22.9733 290.186 23.5067 290.581 24.2C290.976 24.8933 291.173 25.688 291.173 26.584C291.173 27.48 290.97 28.2747 290.565 28.968C290.16 29.6613 289.605 30.2 288.901 30.584C288.208 30.9573 287.44 31.144 286.597 31.144ZM286.597 29.56C287.066 29.56 287.504 29.448 287.909 29.224C288.325 29 288.661 28.664 288.917 28.216C289.173 27.768 289.301 27.224 289.301 26.584C289.301 25.944 289.178 25.4053 288.933 24.968C288.688 24.52 288.362 24.184 287.957 23.96C287.552 23.736 287.114 23.624 286.645 23.624C286.176 23.624 285.738 23.736 285.333 23.96C284.938 24.184 284.624 24.52 284.389 24.968C284.154 25.4053 284.037 25.944 284.037 26.584C284.037 27.5333 284.277 28.2693 284.757 28.792C285.248 29.304 285.861 29.56 286.597 29.56ZM300.157 31.112C299.41 31.112 298.738 30.984 298.141 30.728C297.543 30.4613 297.074 30.088 296.733 29.608C296.391 29.128 296.221 28.568 296.221 27.928H298.173C298.215 28.408 298.402 28.8027 298.733 29.112C299.074 29.4213 299.549 29.576 300.157 29.576C300.786 29.576 301.277 29.4267 301.629 29.128C301.981 28.8187 302.157 28.424 302.157 27.944C302.157 27.5707 302.045 27.2667 301.821 27.032C301.607 26.7973 301.335 26.616 301.005 26.488C300.685 26.36 300.237 26.2213 299.661 26.072C298.935 25.88 298.343 25.688 297.885 25.496C297.437 25.2933 297.053 24.984 296.733 24.568C296.413 24.152 296.253 23.5973 296.253 22.904C296.253 22.264 296.413 21.704 296.733 21.224C297.053 20.744 297.501 20.376 298.077 20.12C298.653 19.864 299.319 19.736 300.077 19.736C301.154 19.736 302.034 20.008 302.717 20.552C303.41 21.0853 303.794 21.8213 303.869 22.76H301.853C301.821 22.3547 301.629 22.008 301.277 21.72C300.925 21.432 300.461 21.288 299.885 21.288C299.362 21.288 298.935 21.4213 298.605 21.688C298.274 21.9547 298.109 22.3387 298.109 22.84C298.109 23.1813 298.21 23.464 298.413 23.688C298.626 23.9013 298.893 24.072 299.213 24.2C299.533 24.328 299.97 24.4667 300.525 24.616C301.261 24.8187 301.858 25.0213 302.317 25.224C302.786 25.4267 303.181 25.7413 303.501 26.168C303.831 26.584 303.997 27.144 303.997 27.848C303.997 28.4133 303.842 28.9467 303.533 29.448C303.234 29.9493 302.791 30.3547 302.205 30.664C301.629 30.9627 300.946 31.112 300.157 31.112ZM307.653 21.352V24.616H311.493V26.104H307.653V29.512H311.973V31H305.829V19.864H311.973V21.352H307.653ZM318.971 31.112C317.937 31.112 316.982 30.872 316.107 30.392C315.243 29.9013 314.555 29.224 314.043 28.36C313.542 27.4853 313.291 26.504 313.291 25.416C313.291 24.328 313.542 23.352 314.043 22.488C314.555 21.624 315.243 20.952 316.107 20.472C316.982 19.9813 317.937 19.736 318.971 19.736C320.017 19.736 320.971 19.9813 321.835 20.472C322.71 20.952 323.398 21.624 323.899 22.488C324.401 23.352 324.651 24.328 324.651 25.416C324.651 26.504 324.401 27.4853 323.899 28.36C323.398 29.224 322.71 29.9013 321.835 30.392C320.971 30.872 320.017 31.112 318.971 31.112ZM318.971 29.528C319.707 29.528 320.363 29.3627 320.939 29.032C321.515 28.6907 321.963 28.2107 322.283 27.592C322.614 26.9627 322.779 26.2373 322.779 25.416C322.779 24.5947 322.614 23.8747 322.283 23.256C321.963 22.6373 321.515 22.1627 320.939 21.832C320.363 21.5013 319.707 21.336 318.971 21.336C318.235 21.336 317.579 21.5013 317.003 21.832C316.427 22.1627 315.974 22.6373 315.643 23.256C315.323 23.8747 315.163 24.5947 315.163 25.416C315.163 26.2373 315.323 26.9627 315.643 27.592C315.974 28.2107 316.427 28.6907 317.003 29.032C317.579 29.3627 318.235 29.528 318.971 29.528Z" fill="#F87537"/>
<path d="M68.852 18.1022C66.8212 18.9702 64.2765 17.1545 63.3312 13.9791C62.6114 11.5602 63.0879 7.41974 65.1647 6.71237C66.3003 6.32569 69.6677 7.69054 70.6854 10.8355C71.7035 13.9805 70.8828 17.2342 68.852 18.1022Z" fill="#F87537" fill-opacity="0.1"/>
<path d="M78.7812 20.7658C77.0284 20.8932 75.7379 18.7439 75.5131 16.0069C75.3653 14.2113 76.8392 10.8859 78.5917 10.7858C79.7996 10.7167 81.8073 12.7888 81.8591 15.5445C81.9117 18.3004 80.5333 20.6381 78.7812 20.7658Z" fill="#F87537" fill-opacity="0.1"/>
<path d="M74.2233 21.582C75.5089 22.5945 77.0872 23.0827 78.7088 22.9166C80.4425 22.7392 82.2381 22.4191 84.0387 24.855C86.2606 27.8612 85.306 32.4955 82.3081 34.8682C81.4634 35.5367 80.5328 35.966 79.586 36.1677C78.5603 36.3857 77.5939 36.8421 76.7576 37.4963C75.9279 38.1608 75.2254 39.0255 74.7077 40.0287C74.2297 40.9552 73.562 41.7914 72.7173 42.4599C69.7195 44.8326 65.4469 44.3358 63.5926 41.039C62.0898 38.3677 62.9432 36.5903 63.6549 34.8322C64.3202 33.188 64.4122 31.3778 63.9609 29.7041C63.1621 26.741 64.2655 23.5812 66.5763 21.7521C68.8872 19.924 71.946 19.7888 74.2233 21.582Z" fill="#F87537" fill-opacity="0.1"/>
<path d="M60.9448 15.8641C63.3479 17.89 64.0673 21.1451 62.6621 22.9851C61.2569 24.825 58.2102 24.6199 55.8568 22.5272C53.5034 20.4345 53.4381 16.4673 54.1395 15.4062C55.4226 13.4661 59.1146 14.3208 60.9448 15.8641Z" fill="#F87537" fill-opacity="0.1"/>
<path d="M58.6907 29.2631C60.9552 30.3928 62.3694 32.4449 61.6872 34.2353C61.0061 36.0264 58.5587 36.7037 56.222 35.7488C53.885 34.7933 52.7716 32.0169 53.2254 30.7766C53.8838 28.9758 57.2055 28.5222 58.6907 29.2631Z" fill="#F87537" fill-opacity="0.1"/>
<path d="M30.0332 29.3206C28.6306 30.3876 26.308 29.478 24.9584 27.2047C23.9305 25.473 23.4932 22.1762 24.9626 21.2245C25.7661 20.7042 28.6376 21.1049 30.0374 23.3404C31.4374 25.576 31.4357 28.2536 30.0332 29.3206Z" fill="#F87537" fill-opacity="0.1"/>
<path d="M38.2387 29.4486C36.9071 29.8885 35.4901 28.4765 34.7832 26.4022C34.3194 25.0415 34.8126 22.1812 36.1492 21.7626C37.0705 21.474 39.0275 22.6866 39.6041 24.809C40.1812 26.9314 39.5697 29.0088 38.2387 29.4486Z" fill="#F87537" fill-opacity="0.1"/>
<path d="M34.8679 30.9678C36.0598 31.5011 37.3762 31.5716 38.5988 31.1274C39.9058 30.6526 41.233 30.0554 43.1006 31.5899C45.4052 33.4836 45.5686 37.2557 43.7106 39.6754C43.1871 40.3571 42.5505 40.8705 41.8571 41.2109C41.1058 41.5793 40.4469 42.1205 39.927 42.7896C39.4144 43.4654 39.039 44.2713 38.8337 45.1483C38.6442 45.9584 38.2903 46.7354 37.7668 47.4171C35.9088 49.8368 32.5058 50.2842 30.4291 48.0939C28.7462 46.3193 29.0605 44.7777 29.269 43.2787C29.4637 41.8768 29.1826 40.4581 28.5075 39.2508C27.3126 37.1134 27.5513 34.4533 28.9834 32.5881C30.4158 30.7236 32.7565 30.0235 34.8679 30.9678Z" fill="#F87537" fill-opacity="0.1"/>
<path d="M23.4785 29.1282C25.7325 30.2281 26.9228 32.607 26.1936 34.3044C25.4643 36.0018 23.0668 36.4362 20.8382 35.2749C18.6097 34.1136 17.7868 31.0563 18.1231 30.0987C18.7383 28.3475 21.7617 28.2902 23.4785 29.1282Z" fill="#F87537" fill-opacity="0.1"/>
<path d="M24.3428 39.9356C26.3151 40.369 27.8089 41.6817 27.6296 43.2C27.4511 44.7186 25.6891 45.7192 23.695 45.4351C21.7005 45.1506 20.2985 43.2189 20.4082 42.1707C20.5671 40.6491 23.0493 39.6514 24.3428 39.9356Z" fill="#F87537" fill-opacity="0.1"/>
<path d="M307.487 27.9926C306.164 27.159 306.198 24.9464 307.667 23.1184C308.787 21.726 311.39 20.3378 312.637 21.2629C313.32 21.7688 313.879 24.2792 312.457 26.1372C311.035 27.9954 308.809 28.8263 307.487 27.9926Z" fill="#F87537" fill-opacity="0.1"/>
<path d="M309.93 34.8481C309.151 33.8784 309.884 32.2621 311.387 31.0301C312.374 30.2217 314.904 29.7423 315.667 30.7228C316.193 31.3985 315.794 33.4015 314.21 34.5403C312.626 35.6796 310.709 35.8173 309.93 34.8481Z" fill="#F87537" fill-opacity="0.1"/>
<path d="M307.621 32.5218C307.548 33.6779 307.899 34.7936 308.648 35.6713C309.449 36.6097 310.357 37.5268 309.663 39.5555C308.806 42.059 305.723 43.3674 303.135 42.5758C302.406 42.3527 301.781 41.9834 301.283 41.5131C300.743 41.0034 300.088 40.6241 299.371 40.4001C298.65 40.1842 297.864 40.1229 297.071 40.2249C296.339 40.3192 295.584 40.2668 294.855 40.0437C292.267 39.2521 290.837 36.5637 292.011 34.1574C292.963 32.2074 294.341 31.9894 295.652 31.6967C296.877 31.4227 297.968 30.7481 298.761 29.8119C300.166 28.1546 302.45 27.5261 304.445 28.1362C306.44 28.7467 307.749 30.474 307.621 32.5218Z" fill="#F87537" fill-opacity="0.1"/>
<path d="M305.609 22.4868C305.396 24.7015 303.789 26.43 302.152 26.3518C300.515 26.2735 299.409 24.4164 299.681 22.2038C299.953 19.9912 302.238 18.3571 303.138 18.3388C304.784 18.3057 305.771 20.7999 305.609 22.4868Z" fill="#F87537" fill-opacity="0.1"/>
<path d="M296.898 26.5643C297.151 28.3378 296.525 29.987 295.208 30.3099C293.891 30.6337 292.511 29.4808 292.128 27.7356C291.744 25.99 292.913 24.2246 293.818 23.9899C295.132 23.6489 296.733 25.4012 296.898 26.5643Z" fill="#F87537" fill-opacity="0.1"/>
<path d="M289.936 10.4373C289.082 10.1581 288.79 8.92034 289.353 7.69558C289.782 6.76269 291.038 5.6241 291.863 5.96475C292.314 6.15105 292.978 7.47165 292.445 8.7065C291.913 9.94147 290.79 10.7165 289.936 10.4373Z" fill="#F87537" fill-opacity="0.1"/>
<path d="M292.259 13.9164C291.689 13.4853 291.87 12.4818 292.536 11.5843C292.972 10.9955 294.315 10.3737 294.878 10.8131C295.266 11.1159 295.324 12.2882 294.601 13.1449C293.878 14.0019 292.829 14.3473 292.259 13.9164Z" fill="#F87537" fill-opacity="0.1"/>
<path d="M290.646 12.9426C290.768 13.5971 291.12 14.1697 291.66 14.5538C292.238 14.9645 292.873 15.3482 292.77 16.5762C292.644 18.0915 291.109 19.2529 289.556 19.1746C289.118 19.1525 288.718 19.0342 288.374 18.842C288.002 18.6336 287.584 18.514 287.153 18.4898C286.721 18.4705 286.274 18.5466 285.847 18.7145C285.452 18.8697 285.024 18.9464 284.586 18.9243C283.033 18.846 281.859 17.5481 282.176 16.0425C282.433 14.8224 283.171 14.5076 283.86 14.1608C284.504 13.8363 285.018 13.3073 285.329 12.6744C285.879 11.5539 287.064 10.8833 288.262 10.9437C289.459 11.0043 290.431 11.7833 290.646 12.9426Z" fill="#F87537" fill-opacity="0.1"/>
<path d="M288.117 7.63211C288.309 8.89627 287.656 10.0848 286.733 10.2707C285.809 10.4566 284.933 9.57671 284.774 8.30546C284.615 7.03421 285.66 5.80327 286.159 5.66688C287.071 5.41761 287.971 6.66921 288.117 7.63211Z" fill="#F87537" fill-opacity="0.1"/>
<path d="M283.834 11.1258C284.223 12.0787 284.106 13.0856 283.417 13.4503C282.728 13.8154 281.798 13.3662 281.339 12.4474C280.881 11.5284 281.285 10.3806 281.756 10.1229C282.441 9.74873 283.578 10.5009 283.834 11.1258Z" fill="#F87537" fill-opacity="0.1"/>
<path d="M331.268 13.186C330.786 12.7435 330.965 11.8346 331.708 11.1916C332.273 10.7019 333.45 10.3252 333.894 10.7998C334.137 11.0593 334.18 12.1354 333.454 12.7941C332.729 13.453 331.75 13.6285 331.268 13.186Z" fill="#F87537" fill-opacity="0.1"/>
<path d="M331.761 16.1938C331.512 15.736 331.935 15.1251 332.647 14.7302C333.114 14.4712 334.192 14.4633 334.433 14.9244C334.599 15.2422 334.285 16.0374 333.547 16.3878C332.809 16.7384 332.009 16.6515 331.761 16.1938Z" fill="#F87537" fill-opacity="0.1"/>
<path d="M330.983 15.0616C330.867 15.5324 330.928 16.0183 331.171 16.436C331.43 16.8826 331.736 17.3284 331.298 18.1121C330.757 19.0792 329.389 19.3871 328.382 18.867C328.098 18.7205 327.869 18.5216 327.699 18.2905C327.515 18.0401 327.273 17.8348 326.995 17.6888C326.714 17.5458 326.395 17.4616 326.06 17.4442C325.752 17.4282 325.445 17.35 325.161 17.2035C324.154 16.6834 323.767 15.4688 324.431 14.5656C324.969 13.8336 325.553 13.8471 326.115 13.8247C326.64 13.8037 327.14 13.6076 327.537 13.2814C328.24 12.7039 329.228 12.6162 330.004 13.017C330.78 13.418 331.19 14.2277 330.983 15.0616Z" fill="#F87537" fill-opacity="0.1"/>
<path d="M330.907 10.7771C330.653 11.6734 329.862 12.2651 329.193 12.1102C328.525 11.9552 328.208 11.1074 328.486 10.2163C328.764 9.32522 329.828 8.82328 330.2 8.88322C330.881 8.99292 331.1 10.0944 330.907 10.7771Z" fill="#F87537" fill-opacity="0.1"/>
<path d="M327.012 11.8041C326.984 12.5536 326.602 13.186 326.035 13.2204C325.468 13.255 324.987 12.6767 324.959 11.929C324.932 11.1812 325.546 10.5416 325.937 10.5128C326.503 10.4707 327.031 11.3125 327.012 11.8041Z" fill="#F87537" fill-opacity="0.1"/>
<defs>
<clipPath id="clip0_2729_1396">
<rect width="24" height="24" fill="white" transform="translate(10 13)"/>
</clipPath>
</defs>
</svg>
