<svg width="153" height="122" viewBox="0 0 153 122" fill="none" xmlns="http://www.w3.org/2000/svg">
<rect width="152.777" height="121.346" rx="1.28817" fill="#FAF9F8"/>
<g clip-path="url(#clip0_1673_1301)">
<path d="M80.4143 47.2543C81.6114 47.2542 82.7743 47.6543 83.7179 48.391C84.6615 49.1277 85.3317 50.1587 85.622 51.3201L85.6435 51.4167L85.7508 51.4422C86.6333 51.6644 87.4449 52.1073 88.1092 52.7293C88.7734 53.3514 89.2686 54.1321 89.5483 54.9981L89.6247 55.2571C89.8993 56.2805 89.8648 57.3622 89.5257 58.366C89.1865 59.3698 88.5578 60.2508 87.7189 60.8979C86.8799 61.545 85.8681 61.9294 84.8111 62.0025C83.7541 62.0756 82.6991 61.8343 81.779 61.3088L81.7159 61.2699L76.9859 65.9999L77.0423 66.0938C77.4656 66.8468 77.7009 67.6909 77.7283 68.5543C77.7556 69.4178 77.5741 70.275 77.1993 71.0533L77.0624 71.3176C76.5003 72.3364 75.6224 73.145 74.561 73.6215C73.4995 74.0981 72.3119 74.2168 71.1771 73.9597C70.2161 73.7414 69.334 73.262 68.628 72.5745C67.922 71.8869 67.4194 71.0179 67.1757 70.063L67.1448 69.9355L66.9596 69.8913C66.0589 69.651 65.2363 69.1803 64.5728 68.5255C63.9093 67.8707 63.4278 67.0544 63.1756 66.1569L63.1085 65.8899C62.8792 64.8766 62.9488 63.8186 63.3089 62.8441C63.6691 61.8696 64.3043 61.0206 65.1375 60.4C65.9707 59.7795 66.9661 59.4141 68.0029 59.3482C69.0397 59.2823 70.0734 59.5187 70.9785 60.0287L71.0697 60.0824L75.7984 55.3537L75.7501 55.2719C75.373 54.6056 75.1428 53.8663 75.075 53.1037C75.0072 52.3411 75.1033 51.5729 75.3569 50.8505L75.4629 50.5754C75.869 49.5946 76.5567 48.7562 77.4393 48.1662C78.3218 47.5763 79.3595 47.2613 80.421 47.261L80.2345 47.2664L80.2613 47.2624L80.4143 47.2543Z" fill="#CBCBCB"/>
</g>
<defs>
<clipPath id="clip0_1673_1301">
<rect width="32.2043" height="32.2043" fill="white" transform="translate(60.2864 44.5707)"/>
</clipPath>
</defs>
</svg>
