<svg width="288" height="287" viewBox="0 0 288 287" fill="none" xmlns="http://www.w3.org/2000/svg">
<g clip-path="url(#clip0_2729_720)">
<rect x="0.449219" width="286.651" height="286.651" rx="5" fill="#FAF9F8"/>
<g clip-path="url(#clip1_2729_720)">
<path d="M158.126 90.9166C162.772 90.9161 167.286 92.4691 170.948 95.3286C174.611 98.188 177.212 102.19 178.339 106.698L178.422 107.073L178.839 107.172C182.265 108.034 185.414 109.753 187.993 112.168C190.571 114.582 192.493 117.612 193.579 120.974L193.876 121.979C194.941 125.951 194.807 130.15 193.491 134.046C192.175 137.942 189.734 141.362 186.478 143.874C183.221 146.385 179.294 147.877 175.192 148.161C171.089 148.445 166.994 147.508 163.422 145.469L163.178 145.318L144.818 163.677L145.037 164.042C146.68 166.964 147.594 170.241 147.7 173.592C147.806 176.943 147.101 180.271 145.646 183.292L145.115 184.318C142.934 188.272 139.526 191.41 135.406 193.26C131.286 195.11 126.676 195.57 122.271 194.573C118.541 193.725 115.118 191.865 112.377 189.196C109.637 186.527 107.686 183.154 106.74 179.448L106.62 178.953L105.902 178.781C102.405 177.849 99.2125 176.022 96.6371 173.48C94.0617 170.938 92.1927 167.77 91.2141 164.286L90.9537 163.25C90.0633 159.317 90.3334 155.21 91.7313 151.428C93.1292 147.645 95.5948 144.35 98.8289 141.941C102.063 139.533 105.927 138.114 109.951 137.859C113.975 137.603 117.987 138.52 121.501 140.5L121.855 140.708L140.209 122.354L140.021 122.036C138.558 119.45 137.664 116.581 137.401 113.621C137.138 110.661 137.511 107.679 138.495 104.875L138.907 103.807C140.483 100 143.152 96.7459 146.578 94.456C150.004 92.1661 154.031 90.9435 158.152 90.9426L157.428 90.9634L157.532 90.9478L158.126 90.9166Z" fill="#CBCBCB"/>
</g>
<path d="M41 0H5C2.23857 0 0 2.23858 0 5V31H36C38.7614 31 41 28.7614 41 26V0Z" fill="#F87537"/>
<g clip-path="url(#clip2_2729_720)">
<path d="M13 24H17L27.5 13.5C27.7626 13.2374 27.971 12.9255 28.1131 12.5824C28.2553 12.2392 28.3284 11.8714 28.3284 11.5C28.3284 11.1286 28.2553 10.7608 28.1131 10.4176C27.971 10.0744 27.7626 9.76264 27.5 9.5C27.2374 9.23735 26.9256 9.02901 26.5824 8.88687C26.2392 8.74473 25.8714 8.67157 25.5 8.67157C25.1286 8.67157 24.7608 8.74473 24.4176 8.88687C24.0744 9.02901 23.7626 9.23735 23.5 9.5L13 20V24Z" stroke="white" stroke-width="2" stroke-linecap="round" stroke-linejoin="round"/>
<path d="M22.5 10.5L26.5 14.5" stroke="white" stroke-width="2" stroke-linecap="round" stroke-linejoin="round"/>
</g>
</g>
<defs>
<clipPath id="clip0_2729_720">
<rect x="0.449219" width="286.651" height="286.651" rx="5" fill="white"/>
</clipPath>
<clipPath id="clip1_2729_720">
<rect width="125" height="125" fill="white" transform="translate(80 80.5)"/>
</clipPath>
<clipPath id="clip2_2729_720">
<rect width="24" height="24" fill="white" transform="translate(9 4)"/>
</clipPath>
</defs>
</svg>
