<svg width="111" height="179" viewBox="0 0 111 179" fill="none" xmlns="http://www.w3.org/2000/svg">
<rect width="225.365" height="179" rx="1.90021" fill="#FAF9F8"/>
<g clip-path="url(#clip0_840_173)">
<path d="M118.621 69.7061C120.387 69.7059 122.102 70.2961 123.494 71.3828C124.886 72.4695 125.875 73.9904 126.303 75.7036L126.335 75.8461L126.493 75.8837C127.795 76.2115 128.992 76.8648 129.972 77.7824C130.952 78.6999 131.683 79.8516 132.095 81.1291L132.208 81.5111C132.613 83.0207 132.562 84.6164 132.062 86.0971C131.561 87.5779 130.634 88.8774 129.396 89.832C128.159 90.7866 126.666 91.3536 125.107 91.4614C123.548 91.5693 121.992 91.2133 120.634 90.4382L120.541 90.3808L113.564 97.3581L113.647 97.4967C114.272 98.6075 114.619 99.8526 114.659 101.126C114.699 102.4 114.432 103.664 113.879 104.812L113.677 105.202C112.848 106.705 111.553 107.898 109.987 108.601C108.421 109.304 106.669 109.479 104.995 109.1C103.578 108.778 102.276 108.071 101.235 107.056C100.194 106.042 99.4522 104.76 99.0926 103.352L99.0471 103.164L98.774 103.098C97.4453 102.744 96.2318 102.05 95.2531 101.084C94.2743 100.118 93.564 98.9136 93.1921 97.5897L93.0931 97.1958C92.7547 95.7011 92.8574 94.1403 93.3887 92.7029C93.9199 91.2654 94.857 90.013 96.0861 89.0976C97.3152 88.1822 98.7835 87.6432 100.313 87.546C101.842 87.4488 103.367 87.7975 104.702 88.5498L104.837 88.629L111.812 81.6536L111.741 81.5329C111.185 80.55 110.845 79.4595 110.745 78.3346C110.645 77.2097 110.787 76.0764 111.161 75.0108L111.317 74.605C111.916 73.1582 112.931 71.9214 114.233 71.0512C115.535 70.1809 117.065 69.7163 118.631 69.716L118.356 69.7239L118.396 69.7179L118.621 69.7061Z" fill="#CBCBCB"/>
</g>
<defs>
<clipPath id="clip0_840_173">
<rect width="47.5053" height="47.5053" fill="white" transform="translate(88.9299 65.7473)"/>
</clipPath>
</defs>
</svg>
