<svg width="287" height="288" viewBox="0 0 287 288" fill="none" xmlns="http://www.w3.org/2000/svg">
<g clip-path="url(#clip0_126_423)">
<rect y="0.926514" width="286.651" height="286.651" rx="5" fill="#FAF9F8"/>
<path d="M198 0.926514H282C284.761 0.926514 287 3.16509 287 5.92651V31.9265H203C200.239 31.9265 198 29.6879 198 26.9265V0.926514Z" fill="#F87537"/>
<g clip-path="url(#clip1_126_423)">
<path d="M220.333 19.4262C220.643 19.4262 220.939 19.5491 221.158 19.7679C221.377 19.9867 221.5 20.2834 221.5 20.5929C221.5 20.2834 221.623 19.9867 221.842 19.7679C222.061 19.5491 222.357 19.4262 222.667 19.4262C222.357 19.4262 222.061 19.3033 221.842 19.0845C221.623 18.8657 221.5 18.5689 221.5 18.2595C221.5 18.5689 221.377 18.8657 221.158 19.0845C220.939 19.3033 220.643 19.4262 220.333 19.4262ZM220.333 12.4262C220.643 12.4262 220.939 12.5491 221.158 12.7679C221.377 12.9867 221.5 13.2834 221.5 13.5929C221.5 13.2834 221.623 12.9867 221.842 12.7679C222.061 12.5491 222.357 12.4262 222.667 12.4262C222.357 12.4262 222.061 12.3033 221.842 12.0845C221.623 11.8657 221.5 11.5689 221.5 11.2595C221.5 11.5689 221.377 11.8657 221.158 12.0845C220.939 12.3033 220.643 12.4262 220.333 12.4262ZM216.25 19.4262C216.25 18.4979 216.619 17.6077 217.275 16.9513C217.932 16.2949 218.822 15.9262 219.75 15.9262C218.822 15.9262 217.932 15.5574 217.275 14.9011C216.619 14.2447 216.25 13.3544 216.25 12.4262C216.25 13.3544 215.881 14.2447 215.225 14.9011C214.568 15.5574 213.678 15.9262 212.75 15.9262C213.678 15.9262 214.568 16.2949 215.225 16.9513C215.881 17.6077 216.25 18.4979 216.25 19.4262Z" stroke="#FAF9F8" stroke-width="1.16667" stroke-linecap="round" stroke-linejoin="round"/>
</g>
<path d="M235.94 20.9265H234.344L229.542 13.6605V20.9265H227.946V11.1825H229.542L234.344 18.4345V11.1825H235.94V20.9265ZM245.022 13.2125V20.9265H243.426V20.0165C243.174 20.3338 242.843 20.5858 242.432 20.7725C242.031 20.9498 241.602 21.0385 241.144 21.0385C240.538 21.0385 239.992 20.9125 239.506 20.6605C239.03 20.4085 238.652 20.0352 238.372 19.5405C238.102 19.0458 237.966 18.4485 237.966 17.7485V13.2125H239.548V17.5105C239.548 18.2012 239.721 18.7332 240.066 19.1065C240.412 19.4705 240.883 19.6525 241.48 19.6525C242.078 19.6525 242.549 19.4705 242.894 19.1065C243.249 18.7332 243.426 18.2012 243.426 17.5105V13.2125H245.022ZM250.474 21.0525C249.746 21.0525 249.088 20.8892 248.5 20.5625C247.912 20.2265 247.45 19.7598 247.114 19.1625C246.778 18.5558 246.61 17.8558 246.61 17.0625C246.61 16.2785 246.783 15.5832 247.128 14.9765C247.473 14.3698 247.945 13.9032 248.542 13.5765C249.139 13.2498 249.807 13.0865 250.544 13.0865C251.281 13.0865 251.949 13.2498 252.546 13.5765C253.143 13.9032 253.615 14.3698 253.96 14.9765C254.305 15.5832 254.478 16.2785 254.478 17.0625C254.478 17.8465 254.301 18.5418 253.946 19.1485C253.591 19.7552 253.106 20.2265 252.49 20.5625C251.883 20.8892 251.211 21.0525 250.474 21.0525ZM250.474 19.6665C250.885 19.6665 251.267 19.5685 251.622 19.3725C251.986 19.1765 252.28 18.8825 252.504 18.4905C252.728 18.0985 252.84 17.6225 252.84 17.0625C252.84 16.5025 252.733 16.0312 252.518 15.6485C252.303 15.2565 252.019 14.9625 251.664 14.7665C251.309 14.5705 250.927 14.4725 250.516 14.4725C250.105 14.4725 249.723 14.5705 249.368 14.7665C249.023 14.9625 248.747 15.2565 248.542 15.6485C248.337 16.0312 248.234 16.5025 248.234 17.0625C248.234 17.8932 248.444 18.5372 248.864 18.9945C249.293 19.4425 249.83 19.6665 250.474 19.6665ZM259.038 19.4985L261.222 13.2125H262.916L259.976 20.9265H258.072L255.146 13.2125H256.854L259.038 19.4985ZM267.468 21.0525C266.74 21.0525 266.082 20.8892 265.494 20.5625C264.906 20.2265 264.444 19.7598 264.108 19.1625C263.772 18.5558 263.604 17.8558 263.604 17.0625C263.604 16.2785 263.777 15.5832 264.122 14.9765C264.468 14.3698 264.939 13.9032 265.536 13.5765C266.134 13.2498 266.801 13.0865 267.538 13.0865C268.276 13.0865 268.943 13.2498 269.54 13.5765C270.138 13.9032 270.609 14.3698 270.954 14.9765C271.3 15.5832 271.472 16.2785 271.472 17.0625C271.472 17.8465 271.295 18.5418 270.94 19.1485C270.586 19.7552 270.1 20.2265 269.484 20.5625C268.878 20.8892 268.206 21.0525 267.468 21.0525ZM267.468 19.6665C267.879 19.6665 268.262 19.5685 268.616 19.3725C268.98 19.1765 269.274 18.8825 269.498 18.4905C269.722 18.0985 269.834 17.6225 269.834 17.0625C269.834 16.5025 269.727 16.0312 269.512 15.6485C269.298 15.2565 269.013 14.9625 268.658 14.7665C268.304 14.5705 267.921 14.4725 267.51 14.4725C267.1 14.4725 266.717 14.5705 266.362 14.7665C266.017 14.9625 265.742 15.2565 265.536 15.6485C265.331 16.0312 265.228 16.5025 265.228 17.0625C265.228 17.8932 265.438 18.5372 265.858 18.9945C266.288 19.4425 266.824 19.6665 267.468 19.6665Z" fill="#FAF9F8"/>
<g clip-path="url(#clip2_126_423)">
<path d="M158.125 91.8431C162.772 91.8426 167.285 93.3956 170.948 96.2551C174.61 99.1145 177.212 103.116 178.339 107.624L178.422 107.999L178.839 108.098C182.264 108.961 185.414 110.68 187.992 113.094C190.571 115.509 192.493 118.539 193.578 121.9L193.875 122.906C194.941 126.878 194.807 131.076 193.49 134.973C192.174 138.869 189.734 142.288 186.477 144.8C183.221 147.312 179.294 148.804 175.191 149.088C171.088 149.371 166.993 148.435 163.422 146.395L163.177 146.244L144.818 164.604L145.036 164.968C146.68 167.891 147.593 171.167 147.699 174.518C147.805 177.87 147.101 181.197 145.646 184.218L145.115 185.244C142.933 189.199 139.526 192.337 135.405 194.187C131.285 196.036 126.676 196.497 122.271 195.499C118.541 194.652 115.117 192.791 112.377 190.123C109.636 187.454 107.686 184.081 106.74 180.374L106.62 179.88L105.901 179.708C102.405 178.775 99.212 176.948 96.6366 174.406C94.0613 171.865 92.1922 168.696 91.2136 165.213L90.9532 164.176C90.0628 160.243 90.3329 156.137 91.7309 152.354C93.1288 148.572 95.5943 145.276 98.8284 142.868C102.063 140.459 105.926 139.041 109.95 138.785C113.975 138.529 117.987 139.447 121.5 141.426L121.854 141.635L140.208 123.281L140.021 122.963C138.557 120.377 137.664 117.507 137.401 114.547C137.137 111.587 137.511 108.605 138.495 105.801L138.906 104.734C140.482 100.927 143.152 97.6724 146.577 95.3825C150.003 93.0926 154.031 91.87 158.151 91.8691L157.427 91.89L157.531 91.8743L158.125 91.8431Z" fill="#CBCBCB"/>
</g>
</g>
<defs>
<clipPath id="clip0_126_423">
<rect y="0.926514" width="286.651" height="286.651" rx="5" fill="white"/>
</clipPath>
<clipPath id="clip1_126_423">
<rect width="14" height="14" fill="white" transform="translate(211 8.92651)"/>
</clipPath>
<clipPath id="clip2_126_423">
<rect width="125" height="125" fill="white" transform="translate(80 81.4265)"/>
</clipPath>
</defs>
</svg>
