<svg width="83" height="84" viewBox="0 0 83 84" fill="none" xmlns="http://www.w3.org/2000/svg">
<rect y="0.500031" width="83" height="83" fill="#FAF9F8"/>
<g clip-path="url(#clip0_1014_818)">
<path d="M47.7677 19.3767C49.6317 19.3765 51.4424 19.9995 52.9117 21.1467C54.381 22.2938 55.4246 23.8992 55.8767 25.7076L55.9101 25.8581L56.0772 25.8978C57.4514 26.2437 58.7151 26.9334 59.7494 27.902C60.7838 28.8705 61.5549 30.0862 61.9903 31.4347L62.1094 31.838C62.5369 33.4315 62.4832 35.1158 61.9551 36.6789C61.427 38.2419 60.4481 39.6137 59.1417 40.6214C57.8353 41.629 56.2599 42.2275 54.614 42.3413C52.9681 42.4552 51.3253 42.0794 49.8926 41.2612L49.7944 41.2006L42.4292 48.5658L42.517 48.712C43.1762 49.8846 43.5426 51.1989 43.5851 52.5433C43.6277 53.8878 43.3451 55.2226 42.7614 56.4345L42.5483 56.8461C41.6731 58.4325 40.3062 59.6915 38.6533 60.4336C37.0004 61.1756 35.1512 61.3604 33.3842 60.9602C31.8878 60.6202 30.5143 59.8738 29.4149 58.8032C28.3156 57.7326 27.5331 56.3794 27.1535 54.8925L27.1055 54.694L26.8171 54.6251C25.4146 54.251 24.1337 53.518 23.1006 52.4984C22.0674 51.4788 21.3176 50.2077 20.925 48.8102L20.8205 48.3945C20.4633 46.8167 20.5717 45.1692 21.1325 43.6518C21.6933 42.1344 22.6824 40.8124 23.9798 39.8461C25.2772 38.8799 26.8272 38.3109 28.4416 38.2083C30.0561 38.1056 31.6656 38.4737 33.0749 39.2679L33.217 39.3515L40.5801 31.9884L40.5049 31.8609C39.9177 30.8234 39.5593 29.6723 39.4537 28.4849C39.3481 27.2975 39.4978 26.1012 39.8927 24.9763L40.0577 24.548C40.69 23.0207 41.7609 21.7152 43.1352 20.7966C44.5094 19.878 46.1251 19.3875 47.7781 19.3872L47.4877 19.3955L47.5295 19.3893L47.7677 19.3767Z" fill="#CBCBCB"/>
</g>
<defs>
<clipPath id="clip0_1014_818">
<rect width="50.1458" height="50.1458" fill="white" transform="translate(16.4272 15.198)"/>
</clipPath>
</defs>
</svg>
