<svg width="593" height="471" viewBox="0 0 593 471" fill="none" xmlns="http://www.w3.org/2000/svg">
<rect width="593" height="471" rx="5" fill="#FAF9F8"/>
<g clip-path="url(#clip0_840_139)">
<path d="M312.126 183.417C316.772 183.416 321.286 184.969 324.948 187.829C328.611 190.688 331.213 194.69 332.339 199.198L332.423 199.573L332.839 199.672C336.265 200.534 339.415 202.253 341.993 204.668C344.571 207.082 346.494 210.112 347.579 213.474L347.876 214.479C348.941 218.451 348.808 222.65 347.491 226.546C346.175 230.442 343.735 233.862 340.478 236.374C337.222 238.885 333.295 240.377 329.192 240.661C325.089 240.945 320.994 240.008 317.423 237.969L317.178 237.818L298.818 256.177L299.037 256.542C300.68 259.464 301.594 262.741 301.7 266.092C301.806 269.443 301.102 272.771 299.647 275.792L299.115 276.818C296.934 280.772 293.526 283.91 289.406 285.76C285.286 287.61 280.676 288.07 276.272 287.073C272.542 286.225 269.118 284.365 266.377 281.696C263.637 279.027 261.686 275.654 260.74 271.948L260.621 271.453L259.902 271.281C256.406 270.349 253.213 268.522 250.637 265.98C248.062 263.438 246.193 260.27 245.214 256.786L244.954 255.75C244.064 251.817 244.334 247.71 245.732 243.928C247.129 240.145 249.595 236.85 252.829 234.441C256.063 232.033 259.927 230.614 263.951 230.359C267.976 230.103 271.988 231.02 275.501 233L275.855 233.208L294.209 214.854L294.022 214.536C292.558 211.95 291.665 209.081 291.401 206.121C291.138 203.161 291.511 200.179 292.496 197.375L292.907 196.307C294.483 192.5 297.153 189.246 300.578 186.956C304.004 184.666 308.031 183.443 312.152 183.443L311.428 183.463L311.532 183.448L312.126 183.417Z" fill="#CBCBCB"/>
</g>
<path d="M39.2329 25.1128C39.4698 24.719 40.0407 24.719 40.2777 25.1128L42.8331 29.3591C42.9182 29.5005 43.0571 29.6014 43.2179 29.6387L48.0461 30.7569C48.4938 30.8606 48.6702 31.4035 48.3689 31.7505L45.1201 35.4931C45.0119 35.6178 44.9589 35.781 44.9732 35.9455L45.4016 40.8828C45.4414 41.3407 44.9795 41.6762 44.5564 41.497L39.9931 39.5637C39.8411 39.4993 39.6694 39.4993 39.5174 39.5637L34.9541 41.497C34.531 41.6762 34.0691 41.3407 34.1089 40.8828L34.5374 35.9455C34.5516 35.781 34.4986 35.6178 34.3904 35.4931L31.1416 31.7505C30.8403 31.4035 31.0167 30.8606 31.4644 30.7569L36.2926 29.6387C36.4534 29.6014 36.5923 29.5005 36.6774 29.3591L39.2329 25.1128Z" fill="#FF7C00"/>
<path d="M65.7592 25.1128C65.9962 24.719 66.567 24.719 66.804 25.1128L69.3595 29.3591C69.4446 29.5005 69.5835 29.6014 69.7443 29.6387L74.5724 30.7569C75.0201 30.8606 75.1965 31.4035 74.8953 31.7505L71.6465 35.4931C71.5383 35.6178 71.4852 35.781 71.4995 35.9455L71.928 40.8828C71.9678 41.3407 71.5059 41.6762 71.0828 41.497L66.5195 39.5637C66.3674 39.4993 66.1958 39.4993 66.0438 39.5637L61.4805 41.497C61.0573 41.6762 60.5955 41.3407 60.6352 40.8828L61.0637 35.9455C61.078 35.781 61.025 35.6178 60.9167 35.4931L57.668 31.7505C57.3667 31.4035 57.5431 30.8606 57.9908 30.7569L62.8189 29.6387C62.9798 29.6014 63.1186 29.5005 63.2038 29.3591L65.7592 25.1128Z" fill="#FF7C00"/>
<path d="M92.2856 25.1128C92.5226 24.719 93.0934 24.719 93.3304 25.1128L95.8858 29.3591C95.971 29.5005 96.1098 29.6014 96.2707 29.6387L101.099 30.7569C101.547 30.8606 101.723 31.4035 101.422 31.7505L98.1729 35.4931C98.0646 35.6178 98.0116 35.781 98.0259 35.9455L98.4544 40.8828C98.4941 41.3407 98.0323 41.6762 97.6091 41.497L93.0458 39.5637C92.8938 39.4993 92.7222 39.4993 92.5701 39.5637L88.0068 41.497C87.5837 41.6762 87.1219 41.3407 87.1616 40.8828L87.5901 35.9455C87.6044 35.781 87.5513 35.6178 87.4431 35.4931L84.1943 31.7505C83.8931 31.4035 84.0695 30.8606 84.5172 30.7569L89.3453 29.6387C89.5061 29.6014 89.645 29.5005 89.7301 29.3591L92.2856 25.1128Z" fill="#FF7C00"/>
<path d="M118.811 25.1128C119.048 24.719 119.619 24.719 119.856 25.1128L122.411 29.3591C122.496 29.5005 122.635 29.6014 122.796 29.6387L127.624 30.7569C128.072 30.8606 128.248 31.4035 127.947 31.7505L124.698 35.4931C124.59 35.6178 124.537 35.781 124.551 35.9455L124.98 40.8828C125.02 41.3407 124.558 41.6762 124.135 41.497L119.571 39.5637C119.419 39.4993 119.248 39.4993 119.096 39.5637L114.532 41.497C114.109 41.6762 113.647 41.3407 113.687 40.8828L114.115 35.9455C114.13 35.781 114.077 35.6178 113.968 35.4931L110.72 31.7505C110.418 31.4035 110.595 30.8606 111.043 30.7569L115.871 29.6387C116.032 29.6014 116.17 29.5005 116.256 29.3591L118.811 25.1128Z" fill="#E0E0E0"/>
<path d="M145.337 25.1128C145.574 24.719 146.145 24.719 146.382 25.1128L148.938 29.3591C149.023 29.5005 149.162 29.6014 149.322 29.6387L154.151 30.7569C154.598 30.8606 154.775 31.4035 154.473 31.7505L151.225 35.4931C151.116 35.6178 151.063 35.781 151.078 35.9455L151.506 40.8828C151.546 41.3407 151.084 41.6762 150.661 41.497L146.098 39.5637C145.946 39.4993 145.774 39.4993 145.622 39.5637L141.059 41.497C140.635 41.6762 140.174 41.3407 140.213 40.8828L140.642 35.9455C140.656 35.781 140.603 35.6178 140.495 35.4931L137.246 31.7505C136.945 31.4035 137.121 30.8606 137.569 30.7569L142.397 29.6387C142.558 29.6014 142.697 29.5005 142.782 29.3591L145.337 25.1128Z" fill="#E0E0E0"/>
<path d="M167.385 31.482C167.432 30.5487 167.758 29.83 168.365 29.326C168.981 28.8127 169.788 28.556 170.787 28.556C171.468 28.556 172.052 28.6773 172.537 28.92C173.022 29.1533 173.386 29.4753 173.629 29.886C173.881 30.2873 174.007 30.7447 174.007 31.258C174.007 31.846 173.853 32.3453 173.545 32.756C173.246 33.1573 172.887 33.428 172.467 33.568V33.624C173.008 33.792 173.428 34.0907 173.727 34.52C174.035 34.9493 174.189 35.5 174.189 36.172C174.189 36.732 174.058 37.2313 173.797 37.67C173.545 38.1087 173.167 38.454 172.663 38.706C172.168 38.9487 171.571 39.07 170.871 39.07C169.816 39.07 168.958 38.804 168.295 38.272C167.632 37.74 167.282 36.956 167.245 35.92H169.149C169.168 36.3773 169.322 36.746 169.611 37.026C169.91 37.2967 170.316 37.432 170.829 37.432C171.305 37.432 171.669 37.3013 171.921 37.04C172.182 36.7693 172.313 36.424 172.313 36.004C172.313 35.444 172.136 35.0427 171.781 34.8C171.426 34.5573 170.876 34.436 170.129 34.436H169.723V32.826H170.129C171.454 32.826 172.117 32.3827 172.117 31.496C172.117 31.0947 171.996 30.782 171.753 30.558C171.52 30.334 171.179 30.222 170.731 30.222C170.292 30.222 169.952 30.3433 169.709 30.586C169.476 30.8193 169.34 31.118 169.303 31.482H167.385ZM178.104 36.942L176.466 40.876H175.206L176.116 36.942H178.104ZM185.789 30.278L182.065 39H180.077L183.829 30.502H179.041V28.822H185.789V30.278ZM192.436 25.742L188.656 41.534H186.738L190.518 25.742H192.436ZM200.631 30.488H196.095V32.882C196.291 32.6393 196.571 32.4433 196.935 32.294C197.299 32.1353 197.686 32.056 198.097 32.056C198.844 32.056 199.455 32.2193 199.931 32.546C200.407 32.8727 200.752 33.2927 200.967 33.806C201.182 34.31 201.289 34.8513 201.289 35.43C201.289 36.5033 200.981 37.3667 200.365 38.02C199.758 38.6733 198.89 39 197.761 39C196.697 39 195.848 38.734 195.213 38.202C194.578 37.67 194.219 36.9747 194.135 36.116H196.039C196.123 36.4893 196.31 36.788 196.599 37.012C196.898 37.236 197.276 37.348 197.733 37.348C198.284 37.348 198.699 37.1753 198.979 36.83C199.259 36.4847 199.399 36.0273 199.399 35.458C199.399 34.8793 199.254 34.4407 198.965 34.142C198.685 33.834 198.27 33.68 197.719 33.68C197.327 33.68 197 33.778 196.739 33.974C196.478 34.17 196.291 34.4313 196.179 34.758H194.303V28.766H200.631V30.488Z" fill="#807A7A"/>
<rect x="456.615" y="24" width="30" height="20.25" rx="10.125" fill="#F87537"/>
<path d="M468.864 30.3125C468.864 31.0418 469.154 31.7413 469.669 32.257C470.185 32.7728 470.885 33.0625 471.614 33.0625C472.343 33.0625 473.043 32.7728 473.559 32.257C474.074 31.7413 474.364 31.0418 474.364 30.3125C474.364 29.5832 474.074 28.8837 473.559 28.368C473.043 27.8522 472.343 27.5625 471.614 27.5625C470.885 27.5625 470.185 27.8522 469.669 28.368C469.154 28.8837 468.864 29.5832 468.864 30.3125Z" stroke="white" stroke-width="1.375" stroke-linecap="round" stroke-linejoin="round"/>
<path d="M467.49 39.9375V38.5625C467.49 37.8332 467.78 37.1337 468.295 36.618C468.811 36.1022 469.511 35.8125 470.24 35.8125H472.99C473.719 35.8125 474.419 36.1022 474.935 36.618C475.45 37.1337 475.74 37.8332 475.74 38.5625V39.9375" stroke="white" stroke-width="1.375" stroke-linecap="round" stroke-linejoin="round"/>
<path d="M502.573 37.263H498.681L498.037 39.125H495.979L499.493 29.339H501.775L505.289 39.125H503.217L502.573 37.263ZM502.041 35.695L500.627 31.607L499.213 35.695H502.041ZM510.9 31.257C511.824 31.257 512.571 31.551 513.14 32.139C513.71 32.7177 513.994 33.5297 513.994 34.575V39.125H512.034V34.841C512.034 34.225 511.88 33.7537 511.572 33.427C511.264 33.091 510.844 32.923 510.312 32.923C509.771 32.923 509.342 33.091 509.024 33.427C508.716 33.7537 508.562 34.225 508.562 34.841V39.125H506.602V31.369H508.562V32.335C508.824 31.999 509.155 31.7377 509.556 31.551C509.967 31.355 510.415 31.257 510.9 31.257ZM520.156 31.257C521.08 31.257 521.827 31.551 522.396 32.139C522.966 32.7177 523.25 33.5297 523.25 34.575V39.125H521.29V34.841C521.29 34.225 521.136 33.7537 520.828 33.427C520.52 33.091 520.1 32.923 519.568 32.923C519.027 32.923 518.598 33.091 518.28 33.427C517.972 33.7537 517.818 34.225 517.818 34.841V39.125H515.858V31.369H517.818V32.335C518.08 31.999 518.411 31.7377 518.812 31.551C519.223 31.355 519.671 31.257 520.156 31.257ZM532.436 31.369V39.125H530.462V38.145C530.21 38.481 529.879 38.747 529.468 38.943C529.067 39.1297 528.628 39.223 528.152 39.223C527.546 39.223 527.009 39.097 526.542 38.845C526.076 38.5837 525.707 38.2057 525.436 37.711C525.175 37.207 525.044 36.6097 525.044 35.919V31.369H527.004V35.639C527.004 36.255 527.158 36.731 527.466 37.067C527.774 37.3937 528.194 37.557 528.726 37.557C529.268 37.557 529.692 37.3937 530 37.067C530.308 36.731 530.462 36.255 530.462 35.639V31.369H532.436ZM538.668 31.257C539.592 31.257 540.339 31.551 540.908 32.139C541.477 32.7177 541.762 33.5297 541.762 34.575V39.125H539.802V34.841C539.802 34.225 539.648 33.7537 539.34 33.427C539.032 33.091 538.612 32.923 538.08 32.923C537.539 32.923 537.109 33.091 536.792 33.427C536.484 33.7537 536.33 34.225 536.33 34.841V39.125H534.37V31.369H536.33V32.335C536.591 31.999 536.923 31.7377 537.324 31.551C537.735 31.355 538.183 31.257 538.668 31.257ZM543.122 35.247C543.122 34.4443 543.285 33.7443 543.612 33.147C543.939 32.5403 544.391 32.0737 544.97 31.747C545.549 31.411 546.211 31.243 546.958 31.243C547.919 31.243 548.713 31.4857 549.338 31.971C549.973 32.447 550.397 33.119 550.612 33.987H548.498C548.386 33.651 548.195 33.3897 547.924 33.203C547.663 33.007 547.336 32.909 546.944 32.909C546.384 32.909 545.941 33.1143 545.614 33.525C545.287 33.9263 545.124 34.5003 545.124 35.247C545.124 35.9843 545.287 36.5583 545.614 36.969C545.941 37.3703 546.384 37.571 546.944 37.571C547.737 37.571 548.255 37.2163 548.498 36.507H550.612C550.397 37.347 549.973 38.0143 549.338 38.509C548.703 39.0037 547.91 39.251 546.958 39.251C546.211 39.251 545.549 39.0877 544.97 38.761C544.391 38.425 543.939 37.9583 543.612 37.361C543.285 36.7543 543.122 36.0497 543.122 35.247ZM553.042 30.445C552.696 30.445 552.407 30.3377 552.174 30.123C551.95 29.899 551.838 29.6237 551.838 29.297C551.838 28.9703 551.95 28.6997 552.174 28.485C552.407 28.261 552.696 28.149 553.042 28.149C553.387 28.149 553.672 28.261 553.896 28.485C554.129 28.6997 554.246 28.9703 554.246 29.297C554.246 29.6237 554.129 29.899 553.896 30.123C553.672 30.3377 553.387 30.445 553.042 30.445ZM554.008 31.369V39.125H552.048V31.369H554.008ZM559.388 39.251C558.642 39.251 557.97 39.0877 557.372 38.761C556.775 38.425 556.304 37.9537 555.958 37.347C555.622 36.7403 555.454 36.0403 555.454 35.247C555.454 34.4537 555.627 33.7537 555.972 33.147C556.327 32.5403 556.808 32.0737 557.414 31.747C558.021 31.411 558.698 31.243 559.444 31.243C560.191 31.243 560.868 31.411 561.474 31.747C562.081 32.0737 562.557 32.5403 562.902 33.147C563.257 33.7537 563.434 34.4537 563.434 35.247C563.434 36.0403 563.252 36.7403 562.888 37.347C562.534 37.9537 562.048 38.425 561.432 38.761C560.826 39.0877 560.144 39.251 559.388 39.251ZM559.388 37.543C559.743 37.543 560.074 37.459 560.382 37.291C560.7 37.1137 560.952 36.8523 561.138 36.507C561.325 36.1617 561.418 35.7417 561.418 35.247C561.418 34.5097 561.222 33.945 560.83 33.553C560.448 33.1517 559.976 32.951 559.416 32.951C558.856 32.951 558.385 33.1517 558.002 33.553C557.629 33.945 557.442 34.5097 557.442 35.247C557.442 35.9843 557.624 36.5537 557.988 36.955C558.362 37.347 558.828 37.543 559.388 37.543Z" fill="#807A7A"/>
<defs>
<clipPath id="clip0_840_139">
<rect width="125" height="125" fill="white" transform="translate(234.001 173)"/>
</clipPath>
</defs>
</svg>
