<svg width="103" height="103" viewBox="0 0 103 103" fill="none" xmlns="http://www.w3.org/2000/svg">
<rect y="10" width="93" height="93" fill="#FAF9F8"/>
<rect x="84.3333" y="1.33333" width="17.3333" height="17.3333" rx="8.66667" fill="#F87537"/>
<rect x="84.3333" y="1.33333" width="17.3333" height="17.3333" rx="8.66667" stroke="white" stroke-width="1.33333"/>
<path d="M94.3139 5.30303V15H93.1397V6.53409H93.0829L90.7154 8.10606V6.91288L93.1397 5.30303H94.3139Z" fill="white"/>
<g clip-path="url(#clip0_1216_2704)">
<path d="M53.5216 31.151C55.6102 31.1508 57.639 31.8488 59.2853 33.1342C60.9317 34.4195 62.1011 36.2183 62.6076 38.2446L62.645 38.4132L62.8323 38.4577C64.372 38.8453 65.7879 39.6181 66.9469 40.7033C68.1059 41.7886 68.9699 43.1507 69.4577 44.6617L69.5912 45.1136C70.0702 46.8991 70.0101 48.7864 69.4183 50.5377C68.8266 52.2891 67.7297 53.8261 66.266 54.9552C64.8022 56.0843 63.037 56.7548 61.1928 56.8824C59.3485 57.01 57.5078 56.5889 55.9025 55.6721L55.7925 55.6042L47.5399 63.8568L47.6383 64.0207C48.3769 65.3345 48.7875 66.8071 48.8351 68.3135C48.8828 69.82 48.5662 71.3157 47.9122 72.6735L47.6734 73.1347C46.6928 74.9123 45.1611 76.323 43.3091 77.1544C41.4571 77.9858 39.385 78.1929 37.4051 77.7445C35.7285 77.3635 34.1895 76.5272 32.9577 75.3276C31.7259 74.128 30.8491 72.6117 30.4238 70.9458L30.37 70.7234L30.0469 70.6461C28.4754 70.2269 27.0402 69.4057 25.8825 68.2632C24.7249 67.1208 23.8848 65.6965 23.4449 64.1307L23.3278 63.6648C22.9276 61.8969 23.049 60.0509 23.6774 58.3507C24.3057 56.6505 25.414 55.1692 26.8677 54.0866C28.3215 53.0039 30.0582 52.3664 31.8671 52.2514C33.6761 52.1364 35.4795 52.5488 37.0586 53.4387L37.2178 53.5323L45.468 45.2821L45.3837 45.1393C44.7259 43.9768 44.3243 42.687 44.206 41.3565C44.0877 40.026 44.2554 38.6856 44.6978 37.4252L44.8827 36.9453C45.5912 35.234 46.7912 33.7712 48.3309 32.7419C49.8707 31.7126 51.6811 31.1631 53.5333 31.1627L53.2079 31.172L53.2547 31.165L53.5216 31.151Z" fill="#CBCBCB"/>
</g>
<defs>
<clipPath id="clip0_1216_2704">
<rect width="56.1875" height="56.1875" fill="white" transform="translate(18.4062 26.4687)"/>
</clipPath>
</defs>
</svg>
