<svg width="171" height="171" viewBox="0 0 171 171" fill="none" xmlns="http://www.w3.org/2000/svg">
<rect width="170.984" height="170.984" fill="#FAF9F8"/>
<g clip-path="url(#clip0_1014_940)">
<path d="M98.3998 38.887C102.24 38.8866 105.97 40.17 108.997 42.5331C112.024 44.8963 114.174 48.2035 115.105 51.929L115.174 52.2389L115.518 52.3207C118.349 53.0333 120.952 54.4541 123.083 56.4494C125.214 58.4447 126.802 60.949 127.699 63.727L127.945 64.5578C128.825 67.8405 128.715 71.3104 127.627 74.5303C126.539 77.7503 124.522 80.5762 121.831 82.652C119.14 84.7278 115.894 85.9607 112.504 86.1953C109.113 86.4298 105.729 85.6556 102.777 83.9701L102.575 83.8453L87.4024 99.018L87.5831 99.3193C88.9411 101.735 89.696 104.442 89.7836 107.212C89.8713 109.982 89.2892 112.731 88.0867 115.228L87.6477 116.076C85.8448 119.344 83.0287 121.938 79.6237 123.466C76.2188 124.995 72.4092 125.376 68.7691 124.551C65.6865 123.851 62.857 122.313 60.5923 120.108C58.3276 117.902 56.7155 115.114 55.9337 112.051L55.8347 111.642L55.2407 111.5C52.3514 110.73 49.7127 109.22 47.5843 107.119C45.456 105.019 43.9113 102.4 43.1026 99.5216L42.8873 98.665C42.1515 95.4147 42.3748 92.0207 43.53 88.8949C44.6853 85.769 46.7229 83.0455 49.3957 81.055C52.0684 79.0645 55.2614 77.8924 58.5872 77.6809C61.913 77.4695 65.2287 78.2278 68.132 79.8638L68.4247 80.036L83.5931 64.8677L83.4381 64.6051C82.2285 62.4678 81.4902 60.0965 81.2727 57.6503C81.0552 55.2041 81.3635 52.7397 82.1769 50.4225L82.517 49.5401C83.8195 46.3938 86.0257 43.7044 88.8566 41.812C91.6876 39.9196 95.0161 38.9092 98.4213 38.9085L97.8231 38.9257L97.9091 38.9128L98.3998 38.887Z" fill="#CBCBCB"/>
</g>
<defs>
<clipPath id="clip0_1014_940">
<rect width="103.303" height="103.303" fill="white" transform="translate(33.8379 30.2785)"/>
</clipPath>
</defs>
</svg>
