<svg width="199" height="47" viewBox="0 0 199 47" fill="none" xmlns="http://www.w3.org/2000/svg">
<rect y="0.926514" width="199" height="46" rx="5" fill="#F87537" fill-opacity="0.1"/>
<path d="M40.63 24.1265C40.63 22.8905 40.906 21.7865 41.458 20.8145C42.022 19.8305 42.784 19.0685 43.744 18.5285C44.716 17.9765 45.802 17.7005 47.002 17.7005C48.406 17.7005 49.636 18.0605 50.692 18.7805C51.748 19.5005 52.486 20.4965 52.906 21.7685H50.008C49.72 21.1685 49.312 20.7185 48.784 20.4185C48.268 20.1185 47.668 19.9685 46.984 19.9685C46.252 19.9685 45.598 20.1425 45.022 20.4905C44.458 20.8265 44.014 21.3065 43.69 21.9305C43.378 22.5545 43.222 23.2865 43.222 24.1265C43.222 24.9545 43.378 25.6865 43.69 26.3225C44.014 26.9465 44.458 27.4325 45.022 27.7805C45.598 28.1165 46.252 28.2845 46.984 28.2845C47.668 28.2845 48.268 28.1345 48.784 27.8345C49.312 27.5225 49.72 27.0665 50.008 26.4665H52.906C52.486 27.7505 51.748 28.7525 50.692 29.4725C49.648 30.1805 48.418 30.5345 47.002 30.5345C45.802 30.5345 44.716 30.2645 43.744 29.7245C42.784 29.1725 42.022 28.4105 41.458 27.4385C40.906 26.4665 40.63 25.3625 40.63 24.1265ZM54.4104 25.4045C54.4104 24.3965 54.6084 23.5025 55.0044 22.7225C55.4124 21.9425 55.9584 21.3425 56.6424 20.9225C57.3384 20.5025 58.1124 20.2925 58.9644 20.2925C59.7084 20.2925 60.3564 20.4425 60.9084 20.7425C61.4724 21.0425 61.9224 21.4205 62.2584 21.8765V20.4545H64.7964V30.4265H62.2584V28.9685C61.9344 29.4365 61.4844 29.8265 60.9084 30.1385C60.3444 30.4385 59.6904 30.5885 58.9464 30.5885C58.1064 30.5885 57.3384 30.3725 56.6424 29.9405C55.9584 29.5085 55.4124 28.9025 55.0044 28.1225C54.6084 27.3305 54.4104 26.4245 54.4104 25.4045ZM62.2584 25.4405C62.2584 24.8285 62.1384 24.3065 61.8984 23.8745C61.6584 23.4305 61.3344 23.0945 60.9264 22.8665C60.5184 22.6265 60.0804 22.5065 59.6124 22.5065C59.1444 22.5065 58.7124 22.6205 58.3164 22.8485C57.9204 23.0765 57.5964 23.4125 57.3444 23.8565C57.1044 24.2885 56.9844 24.8045 56.9844 25.4045C56.9844 26.0045 57.1044 26.5325 57.3444 26.9885C57.5964 27.4325 57.9204 27.7745 58.3164 28.0145C58.7244 28.2545 59.1564 28.3745 59.6124 28.3745C60.0804 28.3745 60.5184 28.2605 60.9264 28.0325C61.3344 27.7925 61.6584 27.4565 61.8984 27.0245C62.1384 26.5805 62.2584 26.0525 62.2584 25.4405ZM70.1916 22.5245V27.3485C70.1916 27.6845 70.2696 27.9305 70.4256 28.0865C70.5936 28.2305 70.8696 28.3025 71.2536 28.3025H72.4236V30.4265H70.8396C68.7156 30.4265 67.6536 29.3945 67.6536 27.3305V22.5245H66.4656V20.4545H67.6536V17.9885H70.1916V20.4545H72.4236V22.5245H70.1916ZM83.5061 25.2245C83.5061 25.5845 83.4821 25.9085 83.4341 26.1965H76.1441C76.2041 26.9165 76.4561 27.4805 76.9001 27.8885C77.3441 28.2965 77.8901 28.5005 78.5381 28.5005C79.4741 28.5005 80.1401 28.0985 80.5361 27.2945H83.2541C82.9661 28.2545 82.4141 29.0465 81.5981 29.6705C80.7821 30.2825 79.7801 30.5885 78.5921 30.5885C77.6321 30.5885 76.7681 30.3785 76.0001 29.9585C75.2441 29.5265 74.6501 28.9205 74.2181 28.1405C73.7981 27.3605 73.5881 26.4605 73.5881 25.4405C73.5881 24.4085 73.7981 23.5025 74.2181 22.7225C74.6381 21.9425 75.2261 21.3425 75.9821 20.9225C76.7381 20.5025 77.6081 20.2925 78.5921 20.2925C79.5401 20.2925 80.3861 20.4965 81.1301 20.9045C81.8861 21.3125 82.4681 21.8945 82.8761 22.6505C83.2961 23.3945 83.5061 24.2525 83.5061 25.2245ZM80.8961 24.5045C80.8841 23.8565 80.6501 23.3405 80.1941 22.9565C79.7381 22.5605 79.1801 22.3625 78.5201 22.3625C77.8961 22.3625 77.3681 22.5545 76.9361 22.9385C76.5161 23.3105 76.2581 23.8325 76.1621 24.5045H80.8961ZM89.2515 20.2925C89.9955 20.2925 90.6495 20.4425 91.2135 20.7425C91.7775 21.0305 92.2215 21.4085 92.5455 21.8765V20.4545H95.0835V30.4985C95.0835 31.4225 94.8975 32.2445 94.5255 32.9645C94.1535 33.6965 93.5955 34.2725 92.8515 34.6925C92.1075 35.1245 91.2075 35.3405 90.1515 35.3405C88.7355 35.3405 87.5715 35.0105 86.6595 34.3505C85.7595 33.6905 85.2495 32.7905 85.1295 31.6505H87.6315C87.7635 32.1065 88.0455 32.4665 88.4775 32.7305C88.9215 33.0065 89.4555 33.1445 90.0795 33.1445C90.8115 33.1445 91.4055 32.9225 91.8615 32.4785C92.3175 32.0465 92.5455 31.3865 92.5455 30.4985V28.9505C92.2215 29.4185 91.7715 29.8085 91.1955 30.1205C90.6315 30.4325 89.9835 30.5885 89.2515 30.5885C88.4115 30.5885 87.6435 30.3725 86.9475 29.9405C86.2515 29.5085 85.6995 28.9025 85.2915 28.1225C84.8955 27.3305 84.6975 26.4245 84.6975 25.4045C84.6975 24.3965 84.8955 23.5025 85.2915 22.7225C85.6995 21.9425 86.2455 21.3425 86.9295 20.9225C87.6255 20.5025 88.3995 20.2925 89.2515 20.2925ZM92.5455 25.4405C92.5455 24.8285 92.4255 24.3065 92.1855 23.8745C91.9455 23.4305 91.6215 23.0945 91.2135 22.8665C90.8055 22.6265 90.3675 22.5065 89.8995 22.5065C89.4315 22.5065 88.9995 22.6205 88.6035 22.8485C88.2075 23.0765 87.8835 23.4125 87.6315 23.8565C87.3915 24.2885 87.2715 24.8045 87.2715 25.4045C87.2715 26.0045 87.3915 26.5325 87.6315 26.9885C87.8835 27.4325 88.2075 27.7745 88.6035 28.0145C89.0115 28.2545 89.4435 28.3745 89.8995 28.3745C90.3675 28.3745 90.8055 28.2605 91.2135 28.0325C91.6215 27.7925 91.9455 27.4565 92.1855 27.0245C92.4255 26.5805 92.5455 26.0525 92.5455 25.4405ZM101.973 30.5885C101.013 30.5885 100.149 30.3785 99.3807 29.9585C98.6127 29.5265 98.0067 28.9205 97.5627 28.1405C97.1307 27.3605 96.9147 26.4605 96.9147 25.4405C96.9147 24.4205 97.1367 23.5205 97.5807 22.7405C98.0367 21.9605 98.6547 21.3605 99.4347 20.9405C100.215 20.5085 101.085 20.2925 102.045 20.2925C103.005 20.2925 103.875 20.5085 104.655 20.9405C105.435 21.3605 106.047 21.9605 106.491 22.7405C106.947 23.5205 107.175 24.4205 107.175 25.4405C107.175 26.4605 106.941 27.3605 106.473 28.1405C106.017 28.9205 105.393 29.5265 104.601 29.9585C103.821 30.3785 102.945 30.5885 101.973 30.5885ZM101.973 28.3925C102.429 28.3925 102.855 28.2845 103.251 28.0685C103.659 27.8405 103.983 27.5045 104.223 27.0605C104.463 26.6165 104.583 26.0765 104.583 25.4405C104.583 24.4925 104.331 23.7665 103.827 23.2625C103.335 22.7465 102.729 22.4885 102.009 22.4885C101.289 22.4885 100.683 22.7465 100.191 23.2625C99.7107 23.7665 99.4707 24.4925 99.4707 25.4405C99.4707 26.3885 99.7047 27.1205 100.173 27.6365C100.653 28.1405 101.253 28.3925 101.973 28.3925ZM111.543 22.0025C111.867 21.4745 112.287 21.0605 112.803 20.7605C113.331 20.4605 113.931 20.3105 114.603 20.3105V22.9565H113.937C113.145 22.9565 112.545 23.1425 112.137 23.5145C111.741 23.8865 111.543 24.5345 111.543 25.4585V30.4265H109.023V20.4545H111.543V22.0025ZM117.579 19.2665C117.135 19.2665 116.763 19.1285 116.463 18.8525C116.175 18.5645 116.031 18.2105 116.031 17.7905C116.031 17.3705 116.175 17.0225 116.463 16.7465C116.763 16.4585 117.135 16.3145 117.579 16.3145C118.023 16.3145 118.389 16.4585 118.677 16.7465C118.977 17.0225 119.127 17.3705 119.127 17.7905C119.127 18.2105 118.977 18.5645 118.677 18.8525C118.389 19.1285 118.023 19.2665 117.579 19.2665ZM118.821 20.4545V30.4265H116.301V20.4545H118.821ZM130.58 25.2245C130.58 25.5845 130.556 25.9085 130.508 26.1965H123.218C123.278 26.9165 123.53 27.4805 123.974 27.8885C124.418 28.2965 124.964 28.5005 125.612 28.5005C126.548 28.5005 127.214 28.0985 127.61 27.2945H130.328C130.04 28.2545 129.488 29.0465 128.672 29.6705C127.856 30.2825 126.854 30.5885 125.666 30.5885C124.706 30.5885 123.842 30.3785 123.074 29.9585C122.318 29.5265 121.724 28.9205 121.292 28.1405C120.872 27.3605 120.662 26.4605 120.662 25.4405C120.662 24.4085 120.872 23.5025 121.292 22.7225C121.712 21.9425 122.3 21.3425 123.056 20.9225C123.812 20.5025 124.682 20.2925 125.666 20.2925C126.614 20.2925 127.46 20.4965 128.204 20.9045C128.96 21.3125 129.542 21.8945 129.95 22.6505C130.37 23.3945 130.58 24.2525 130.58 25.2245ZM127.97 24.5045C127.958 23.8565 127.724 23.3405 127.268 22.9565C126.812 22.5605 126.254 22.3625 125.594 22.3625C124.97 22.3625 124.442 22.5545 124.01 22.9385C123.59 23.3105 123.332 23.8325 123.236 24.5045H127.97Z" fill="#862B00"/>
<path d="M164 23.9265L142 23.9265" stroke="#862B00" stroke-linecap="round" stroke-linejoin="round"/>
<path d="M164 23.9265L160 27.9265" stroke="#862B00" stroke-linecap="round" stroke-linejoin="round"/>
<path d="M164 23.9265L160 19.9265" stroke="#862B00" stroke-linecap="round" stroke-linejoin="round"/>
</svg>
