<svg width="310" height="46" viewBox="0 0 310 46" fill="none" xmlns="http://www.w3.org/2000/svg">
<rect width="310" height="46" rx="5" fill="#F87537" fill-opacity="0.1"/>
<path d="M47.722 29.5L44.95 24.604H43.762V29.5H41.242V16.936H45.958C46.93 16.936 47.758 17.11 48.442 17.458C49.126 17.794 49.636 18.256 49.972 18.844C50.32 19.42 50.494 20.068 50.494 20.788C50.494 21.616 50.254 22.366 49.774 23.038C49.294 23.698 48.58 24.154 47.632 24.406L50.638 29.5H47.722ZM43.762 22.714H45.868C46.552 22.714 47.062 22.552 47.398 22.228C47.734 21.892 47.902 21.43 47.902 20.842C47.902 20.266 47.734 19.822 47.398 19.51C47.062 19.186 46.552 19.024 45.868 19.024H43.762V22.714ZM62.0433 24.298C62.0433 24.658 62.0193 24.982 61.9713 25.27H54.6813C54.7413 25.99 54.9933 26.554 55.4373 26.962C55.8813 27.37 56.4273 27.574 57.0753 27.574C58.0113 27.574 58.6773 27.172 59.0733 26.368H61.7913C61.5033 27.328 60.9513 28.12 60.1353 28.744C59.3193 29.356 58.3173 29.662 57.1293 29.662C56.1693 29.662 55.3053 29.452 54.5373 29.032C53.7813 28.6 53.1873 27.994 52.7553 27.214C52.3353 26.434 52.1252 25.534 52.1252 24.514C52.1252 23.482 52.3353 22.576 52.7553 21.796C53.1753 21.016 53.7633 20.416 54.5193 19.996C55.2753 19.576 56.1453 19.366 57.1293 19.366C58.0773 19.366 58.9233 19.57 59.6673 19.978C60.4233 20.386 61.0053 20.968 61.4133 21.724C61.8333 22.468 62.0433 23.326 62.0433 24.298ZM59.4333 23.578C59.4213 22.93 59.1873 22.414 58.7313 22.03C58.2753 21.634 57.7173 21.436 57.0573 21.436C56.4333 21.436 55.9053 21.628 55.4733 22.012C55.0533 22.384 54.7953 22.906 54.6993 23.578H59.4333ZM67.7886 19.366C68.5326 19.366 69.1866 19.516 69.7506 19.816C70.3146 20.104 70.7586 20.482 71.0826 20.95V19.528H73.6206V29.572C73.6206 30.496 73.4346 31.318 73.0626 32.038C72.6906 32.77 72.1326 33.346 71.3886 33.766C70.6446 34.198 69.7446 34.414 68.6886 34.414C67.2726 34.414 66.1086 34.084 65.1966 33.424C64.2966 32.764 63.7866 31.864 63.6666 30.724H66.1686C66.3006 31.18 66.5826 31.54 67.0146 31.804C67.4586 32.08 67.9926 32.218 68.6166 32.218C69.3486 32.218 69.9426 31.996 70.3986 31.552C70.8546 31.12 71.0826 30.46 71.0826 29.572V28.024C70.7586 28.492 70.3086 28.882 69.7326 29.194C69.1686 29.506 68.5206 29.662 67.7886 29.662C66.9486 29.662 66.1806 29.446 65.4846 29.014C64.7886 28.582 64.2366 27.976 63.8286 27.196C63.4326 26.404 63.2346 25.498 63.2346 24.478C63.2346 23.47 63.4326 22.576 63.8286 21.796C64.2366 21.016 64.7826 20.416 65.4666 19.996C66.1626 19.576 66.9366 19.366 67.7886 19.366ZM71.0826 24.514C71.0826 23.902 70.9626 23.38 70.7226 22.948C70.4826 22.504 70.1586 22.168 69.7506 21.94C69.3426 21.7 68.9046 21.58 68.4366 21.58C67.9686 21.58 67.5366 21.694 67.1406 21.922C66.7446 22.15 66.4206 22.486 66.1686 22.93C65.9286 23.362 65.8086 23.878 65.8086 24.478C65.8086 25.078 65.9286 25.606 66.1686 26.062C66.4206 26.506 66.7446 26.848 67.1406 27.088C67.5486 27.328 67.9806 27.448 68.4366 27.448C68.9046 27.448 69.3426 27.334 69.7506 27.106C70.1586 26.866 70.4826 26.53 70.7226 26.098C70.9626 25.654 71.0826 25.126 71.0826 24.514ZM77.3598 18.34C76.9158 18.34 76.5438 18.202 76.2438 17.926C75.9558 17.638 75.8118 17.284 75.8118 16.864C75.8118 16.444 75.9558 16.096 76.2438 15.82C76.5438 15.532 76.9158 15.388 77.3598 15.388C77.8038 15.388 78.1698 15.532 78.4578 15.82C78.7578 16.096 78.9078 16.444 78.9078 16.864C78.9078 17.284 78.7578 17.638 78.4578 17.926C78.1698 18.202 77.8038 18.34 77.3598 18.34ZM78.6018 19.528V29.5H76.0818V19.528H78.6018ZM84.9076 29.662C84.0916 29.662 83.3596 29.518 82.7116 29.23C82.0636 28.93 81.5476 28.528 81.1636 28.024C80.7916 27.52 80.5876 26.962 80.5516 26.35H83.0896C83.1376 26.734 83.3236 27.052 83.6476 27.304C83.9836 27.556 84.3976 27.682 84.8896 27.682C85.3696 27.682 85.7416 27.586 86.0056 27.394C86.2816 27.202 86.4196 26.956 86.4196 26.656C86.4196 26.332 86.2516 26.092 85.9156 25.936C85.5916 25.768 85.0696 25.588 84.3496 25.396C83.6056 25.216 82.9936 25.03 82.5136 24.838C82.0456 24.646 81.6376 24.352 81.2896 23.956C80.9536 23.56 80.7856 23.026 80.7856 22.354C80.7856 21.802 80.9416 21.298 81.2536 20.842C81.5776 20.386 82.0336 20.026 82.6216 19.762C83.2216 19.498 83.9236 19.366 84.7276 19.366C85.9156 19.366 86.8636 19.666 87.5716 20.266C88.2796 20.854 88.6696 21.652 88.7416 22.66H86.3296C86.2936 22.264 86.1256 21.952 85.8256 21.724C85.5376 21.484 85.1476 21.364 84.6556 21.364C84.1996 21.364 83.8456 21.448 83.5936 21.616C83.3536 21.784 83.2336 22.018 83.2336 22.318C83.2336 22.654 83.4016 22.912 83.7376 23.092C84.0736 23.26 84.5956 23.434 85.3036 23.614C86.0236 23.794 86.6176 23.98 87.0856 24.172C87.5536 24.364 87.9556 24.664 88.2916 25.072C88.6396 25.468 88.8196 25.996 88.8316 26.656C88.8316 27.232 88.6696 27.748 88.3456 28.204C88.0336 28.66 87.5776 29.02 86.9776 29.284C86.3896 29.536 85.6996 29.662 84.9076 29.662ZM93.8342 21.598V26.422C93.8342 26.758 93.9122 27.004 94.0682 27.16C94.2362 27.304 94.5122 27.376 94.8962 27.376H96.0662V29.5H94.4822C92.3582 29.5 91.2962 28.468 91.2962 26.404V21.598H90.1082V19.528H91.2962V17.062H93.8342V19.528H96.0662V21.598H93.8342ZM100.399 21.076C100.723 20.548 101.143 20.134 101.659 19.834C102.187 19.534 102.787 19.384 103.459 19.384V22.03H102.793C102.001 22.03 101.401 22.216 100.993 22.588C100.597 22.96 100.399 23.608 100.399 24.532V29.5H97.8787V19.528H100.399V21.076ZM104.508 24.478C104.508 23.47 104.706 22.576 105.102 21.796C105.51 21.016 106.056 20.416 106.74 19.996C107.436 19.576 108.21 19.366 109.062 19.366C109.806 19.366 110.454 19.516 111.006 19.816C111.57 20.116 112.02 20.494 112.356 20.95V19.528H114.894V29.5H112.356V28.042C112.032 28.51 111.582 28.9 111.006 29.212C110.442 29.512 109.788 29.662 109.044 29.662C108.204 29.662 107.436 29.446 106.74 29.014C106.056 28.582 105.51 27.976 105.102 27.196C104.706 26.404 104.508 25.498 104.508 24.478ZM112.356 24.514C112.356 23.902 112.236 23.38 111.996 22.948C111.756 22.504 111.432 22.168 111.024 21.94C110.616 21.7 110.178 21.58 109.71 21.58C109.242 21.58 108.81 21.694 108.414 21.922C108.018 22.15 107.694 22.486 107.442 22.93C107.202 23.362 107.082 23.878 107.082 24.478C107.082 25.078 107.202 25.606 107.442 26.062C107.694 26.506 108.018 26.848 108.414 27.088C108.822 27.328 109.254 27.448 109.71 27.448C110.178 27.448 110.616 27.334 111.024 27.106C111.432 26.866 111.756 26.53 111.996 26.098C112.236 25.654 112.356 25.126 112.356 24.514ZM122.922 18.34C122.478 18.34 122.106 18.202 121.806 17.926C121.518 17.638 121.374 17.284 121.374 16.864C121.374 16.444 121.518 16.096 121.806 15.82C122.106 15.532 122.478 15.388 122.922 15.388C123.366 15.388 123.732 15.532 124.02 15.82C124.32 16.096 124.47 16.444 124.47 16.864C124.47 17.284 124.32 17.638 124.02 17.926C123.732 18.202 123.366 18.34 122.922 18.34ZM124.164 19.528V29.5H121.644V19.528H124.164ZM133.877 21.598V26.422C133.877 26.758 133.955 27.004 134.111 27.16C134.279 27.304 134.555 27.376 134.939 27.376H136.109V29.5H134.525C132.401 29.5 131.339 28.468 131.339 26.404V21.598H130.151V19.528H131.339V17.062H133.877V19.528H136.109V21.598H133.877ZM147.336 19.528V29.5H144.798V28.24C144.474 28.672 144.048 29.014 143.52 29.266C143.004 29.506 142.44 29.626 141.828 29.626C141.048 29.626 140.358 29.464 139.758 29.14C139.158 28.804 138.684 28.318 138.336 27.682C138 27.034 137.832 26.266 137.832 25.378V19.528H140.352V25.018C140.352 25.81 140.55 26.422 140.946 26.854C141.342 27.274 141.882 27.484 142.566 27.484C143.262 27.484 143.808 27.274 144.204 26.854C144.6 26.422 144.798 25.81 144.798 25.018V19.528H147.336ZM154.25 29.662C153.29 29.662 152.426 29.452 151.658 29.032C150.89 28.6 150.284 27.994 149.84 27.214C149.408 26.434 149.192 25.534 149.192 24.514C149.192 23.494 149.414 22.594 149.858 21.814C150.314 21.034 150.932 20.434 151.712 20.014C152.492 19.582 153.362 19.366 154.322 19.366C155.282 19.366 156.152 19.582 156.932 20.014C157.712 20.434 158.324 21.034 158.768 21.814C159.224 22.594 159.452 23.494 159.452 24.514C159.452 25.534 159.218 26.434 158.75 27.214C158.294 27.994 157.67 28.6 156.878 29.032C156.098 29.452 155.222 29.662 154.25 29.662ZM154.25 27.466C154.706 27.466 155.132 27.358 155.528 27.142C155.936 26.914 156.26 26.578 156.5 26.134C156.74 25.69 156.86 25.15 156.86 24.514C156.86 23.566 156.608 22.84 156.104 22.336C155.612 21.82 155.006 21.562 154.286 21.562C153.566 21.562 152.96 21.82 152.468 22.336C151.988 22.84 151.748 23.566 151.748 24.514C151.748 25.462 151.982 26.194 152.45 26.71C152.93 27.214 153.53 27.466 154.25 27.466ZM162.579 18.34C162.135 18.34 161.763 18.202 161.463 17.926C161.175 17.638 161.031 17.284 161.031 16.864C161.031 16.444 161.175 16.096 161.463 15.82C161.763 15.532 162.135 15.388 162.579 15.388C163.023 15.388 163.389 15.532 163.677 15.82C163.977 16.096 164.127 16.444 164.127 16.864C164.127 17.284 163.977 17.638 163.677 17.926C163.389 18.202 163.023 18.34 162.579 18.34ZM163.821 19.528V29.5H161.301V19.528H163.821ZM173.119 20.968C173.443 20.512 173.887 20.134 174.451 19.834C175.027 19.522 175.681 19.366 176.413 19.366C177.265 19.366 178.033 19.576 178.717 19.996C179.413 20.416 179.959 21.016 180.355 21.796C180.763 22.564 180.967 23.458 180.967 24.478C180.967 25.498 180.763 26.404 180.355 27.196C179.959 27.976 179.413 28.582 178.717 29.014C178.033 29.446 177.265 29.662 176.413 29.662C175.681 29.662 175.033 29.512 174.469 29.212C173.917 28.912 173.467 28.534 173.119 28.078V34.252H170.599V19.528H173.119V20.968ZM178.393 24.478C178.393 23.878 178.267 23.362 178.015 22.93C177.775 22.486 177.451 22.15 177.043 21.922C176.647 21.694 176.215 21.58 175.747 21.58C175.291 21.58 174.859 21.7 174.451 21.94C174.055 22.168 173.731 22.504 173.479 22.948C173.239 23.392 173.119 23.914 173.119 24.514C173.119 25.114 173.239 25.636 173.479 26.08C173.731 26.524 174.055 26.866 174.451 27.106C174.859 27.334 175.291 27.448 175.747 27.448C176.215 27.448 176.647 27.328 177.043 27.088C177.451 26.848 177.775 26.506 178.015 26.062C178.267 25.618 178.393 25.09 178.393 24.478ZM185.319 21.076C185.643 20.548 186.063 20.134 186.579 19.834C187.107 19.534 187.707 19.384 188.379 19.384V22.03H187.713C186.921 22.03 186.321 22.216 185.913 22.588C185.517 22.96 185.319 23.608 185.319 24.532V29.5H182.799V19.528H185.319V21.076ZM194.504 29.662C193.544 29.662 192.68 29.452 191.912 29.032C191.144 28.6 190.538 27.994 190.094 27.214C189.662 26.434 189.446 25.534 189.446 24.514C189.446 23.494 189.668 22.594 190.112 21.814C190.568 21.034 191.186 20.434 191.966 20.014C192.746 19.582 193.616 19.366 194.576 19.366C195.536 19.366 196.406 19.582 197.186 20.014C197.966 20.434 198.578 21.034 199.022 21.814C199.478 22.594 199.706 23.494 199.706 24.514C199.706 25.534 199.472 26.434 199.004 27.214C198.548 27.994 197.924 28.6 197.132 29.032C196.352 29.452 195.476 29.662 194.504 29.662ZM194.504 27.466C194.96 27.466 195.386 27.358 195.782 27.142C196.19 26.914 196.514 26.578 196.754 26.134C196.994 25.69 197.114 25.15 197.114 24.514C197.114 23.566 196.862 22.84 196.358 22.336C195.866 21.82 195.26 21.562 194.54 21.562C193.82 21.562 193.214 21.82 192.722 22.336C192.242 22.84 192.002 23.566 192.002 24.514C192.002 25.462 192.236 26.194 192.704 26.71C193.184 27.214 193.784 27.466 194.504 27.466ZM200.906 24.478C200.906 23.47 201.104 22.576 201.5 21.796C201.909 21.016 202.461 20.416 203.157 19.996C203.853 19.576 204.627 19.366 205.479 19.366C206.127 19.366 206.745 19.51 207.333 19.798C207.921 20.074 208.389 20.446 208.737 20.914V16.18H211.293V29.5H208.737V28.024C208.425 28.516 207.987 28.912 207.423 29.212C206.859 29.512 206.205 29.662 205.461 29.662C204.621 29.662 203.853 29.446 203.157 29.014C202.461 28.582 201.909 27.976 201.5 27.196C201.104 26.404 200.906 25.498 200.906 24.478ZM208.755 24.514C208.755 23.902 208.635 23.38 208.395 22.948C208.155 22.504 207.831 22.168 207.423 21.94C207.015 21.7 206.577 21.58 206.109 21.58C205.641 21.58 205.209 21.694 204.812 21.922C204.417 22.15 204.093 22.486 203.841 22.93C203.601 23.362 203.481 23.878 203.481 24.478C203.481 25.078 203.601 25.606 203.841 26.062C204.093 26.506 204.417 26.848 204.812 27.088C205.221 27.328 205.653 27.448 206.109 27.448C206.577 27.448 207.015 27.334 207.423 27.106C207.831 26.866 208.155 26.53 208.395 26.098C208.635 25.654 208.755 25.126 208.755 24.514ZM218.182 29.662C217.222 29.662 216.358 29.452 215.59 29.032C214.822 28.6 214.216 27.994 213.772 27.214C213.34 26.434 213.124 25.534 213.124 24.514C213.124 23.494 213.346 22.594 213.79 21.814C214.246 21.034 214.864 20.434 215.644 20.014C216.424 19.582 217.294 19.366 218.254 19.366C219.214 19.366 220.084 19.582 220.864 20.014C221.644 20.434 222.256 21.034 222.7 21.814C223.156 22.594 223.384 23.494 223.384 24.514C223.384 25.534 223.15 26.434 222.682 27.214C222.226 27.994 221.602 28.6 220.81 29.032C220.03 29.452 219.154 29.662 218.182 29.662ZM218.182 27.466C218.638 27.466 219.064 27.358 219.46 27.142C219.868 26.914 220.192 26.578 220.432 26.134C220.672 25.69 220.792 25.15 220.792 24.514C220.792 23.566 220.54 22.84 220.036 22.336C219.544 21.82 218.938 21.562 218.218 21.562C217.498 21.562 216.892 21.82 216.4 22.336C215.92 22.84 215.68 23.566 215.68 24.514C215.68 25.462 215.914 26.194 216.382 26.71C216.862 27.214 217.462 27.466 218.182 27.466ZM228.166 21.598V26.422C228.166 26.758 228.244 27.004 228.4 27.16C228.568 27.304 228.844 27.376 229.228 27.376H230.398V29.5H228.814C226.69 29.5 225.628 28.468 225.628 26.404V21.598H224.44V19.528H225.628V17.062H228.166V19.528H230.398V21.598H228.166ZM235.145 21.598V26.422C235.145 26.758 235.223 27.004 235.379 27.16C235.547 27.304 235.823 27.376 236.207 27.376H237.377V29.5H235.793C233.669 29.5 232.607 28.468 232.607 26.404V21.598H231.419V19.528H232.607V17.062H235.145V19.528H237.377V21.598H235.145ZM240.467 18.34C240.023 18.34 239.651 18.202 239.351 17.926C239.063 17.638 238.919 17.284 238.919 16.864C238.919 16.444 239.063 16.096 239.351 15.82C239.651 15.532 240.023 15.388 240.467 15.388C240.911 15.388 241.277 15.532 241.565 15.82C241.865 16.096 242.015 16.444 242.015 16.864C242.015 17.284 241.865 17.638 241.565 17.926C241.277 18.202 240.911 18.34 240.467 18.34ZM241.709 19.528V29.5H239.189V19.528H241.709Z" fill="#862B00"/>
<path d="M275 23L253 23" stroke="#862B00" stroke-linecap="round" stroke-linejoin="round"/>
<path d="M275 23L271 27" stroke="#862B00" stroke-linecap="round" stroke-linejoin="round"/>
<path d="M275 23L271 19" stroke="#862B00" stroke-linecap="round" stroke-linejoin="round"/>
</svg>
