<?xml version="1.0" encoding="utf-8"?>
<!-- Generator: Adobe Illustrator 18.0.0, SVG Export Plug-In . SVG Version: 6.00 Build 0)  -->
<!DOCTYPE svg PUBLIC "-//W3C//DTD SVG 1.1//EN" "http://www.w3.org/Graphics/SVG/1.1/DTD/svg11.dtd">
<svg version="1.1" width="117" height="102" id="Livello_1" xmlns="http://www.w3.org/2000/svg" xmlns:xlink="http://www.w3.org/1999/xlink" x="0px" y="0px"
	 viewBox="0 0 117 102" enable-background="new 0 0 117 102" xml:space="preserve">
<rect fill="#FAF9F8" width="117" height="102"/>
<g>
	<g>
		<defs>
			<rect id="SVGID_1_" x="33.4" y="25.9" width="50.1" height="50.1"/>
		</defs>
		<clipPath id="SVGID_2_">
			<use xlink:href="#SVGID_1_"  overflow="visible"/>
		</clipPath>
		<g clip-path="url(#SVGID_2_)">
			<path fill="#CBCBCB" d="M64.8,30.1c1.9,0,3.7,0.6,5.1,1.8c1.5,1.1,2.5,2.8,3,4.6l0,0.2l0.2,0c1.4,0.3,2.6,1,3.7,2
				c1,1,1.8,2.2,2.2,3.5l0.1,0.4c0.4,1.6,0.4,3.3-0.2,4.8c-0.5,1.6-1.5,2.9-2.8,3.9c-1.3,1-2.9,1.6-4.5,1.7
				c-1.6,0.1-3.3-0.3-4.7-1.1l-0.1-0.1l-7.4,7.4l0.1,0.1c0.7,1.2,1,2.5,1.1,3.8c0,1.3-0.2,2.7-0.8,3.9l-0.2,0.4
				c-0.9,1.6-2.2,2.8-3.9,3.6c-1.7,0.7-3.5,0.9-5.3,0.5c-1.5-0.3-2.9-1.1-4-2.2c-1.1-1.1-1.9-2.4-2.3-3.9l0-0.2l-0.3-0.1
				c-1.4-0.4-2.7-1.1-3.7-2.1s-1.8-2.3-2.2-3.7l-0.1-0.4c-0.4-1.6-0.2-3.2,0.3-4.7c0.6-1.5,1.5-2.8,2.8-3.8c1.3-1,2.8-1.5,4.5-1.6
				c1.6-0.1,3.2,0.3,4.6,1.1l0.1,0.1l7.4-7.4l-0.1-0.1c-0.6-1-0.9-2.2-1.1-3.4c-0.1-1.2,0-2.4,0.4-3.5l0.2-0.4
				c0.6-1.5,1.7-2.8,3.1-3.8C61.5,30.6,63.1,30.1,64.8,30.1l-0.3,0l0,0L64.8,30.1z"/>
		</g>
	</g>
</g>
</svg>
