<?xml version="1.0" encoding="utf-8"?>
<!-- Generator: Adobe Illustrator 18.0.0, SVG Export Plug-In . SVG Version: 6.00 Build 0)  -->
<!DOCTYPE svg PUBLIC "-//W3C//DTD SVG 1.1//EN" "http://www.w3.org/Graphics/SVG/1.1/DTD/svg11.dtd">
<svg version="1.1" id="Livello_1" xmlns="http://www.w3.org/2000/svg" xmlns:xlink="http://www.w3.org/1999/xlink" x="0px" y="0px"
	 viewBox="0 0 944 512" enable-background="new 0 0 944 512" xml:space="preserve">
<g id="Livello_2" display="none">
	
		<rect x="-136.4" y="-82.4" display="inline" fill="#BF6411" stroke="#000000" stroke-miterlimit="10" width="1609.4" height="831"/>
</g>
<path display="none" fill="#010102" d="M943.5,0H0v512h770.5C771.7,500.9,886.3,166,943.5,0z"/>
<path id="sfondo" fill="#FAF9F8" d="M944.2-0.6H0.7v512h770.5C772.4,500.3,887,165.4,944.2-0.6z"/>
<g id="impronta1">
	<path fill="#F87537" fill-opacity="0.1" d="M540.1,503.1c2.7,1.1,6-1.4,7.1-5.6c0.9-3.2,0.1-8.6-2.7-9.5c-1.5-0.5-5.9,1.4-7.1,5.6
		C536.2,497.8,537.4,502,540.1,503.1z"/>
	<path fill="#F87537" fill-opacity="0.1" d="M527.1,506.9c2.3,0.1,3.9-2.8,4.1-6.4c0.1-2.4-1.9-6.7-4.2-6.8
		c-1.6-0.1-4.2,2.7-4.1,6.4C522.9,503.8,524.8,506.8,527.1,506.9z"/>
	<path fill="#F87537" fill-opacity="0.1" d="M533.2,507.8c-1.7,1.4-3.7,2.1-5.9,1.9c-2.3-0.2-4.7-0.5-6.9,2.7
		c-2.8,4-1.4,10.1,2.6,13.1c1.1,0.9,2.4,1.4,3.6,1.6c1.4,0.3,2.6,0.8,3.8,1.7c1.1,0.8,2.1,2,2.8,3.3c0.7,1.2,1.6,2.3,2.7,3.1
		c4,3,9.6,2.2,12-2.2c1.9-3.6,0.7-5.9-0.3-8.2c-0.9-2.1-1.1-4.5-0.6-6.7c1-3.9-0.6-8-3.7-10.4C540.1,505.5,536.1,505.4,533.2,507.8z
		"/>
	<path fill="#F87537" fill-opacity="0.1" d="M550.5,499.9c-3.1,2.7-3.9,7.1-2,9.4c1.9,2.4,5.9,2,8.9-0.8s3-8.1,2-9.4
		C557.7,496.5,552.8,497.8,550.5,499.9z"/>
</g>
<g id="impronta2">
	<path fill="#F87537" fill-opacity="0.1" d="M592.3,468.6c1.9,0.8,4.3-1,5.1-4c0.6-2.3,0.1-6.2-1.9-6.8c-1.1-0.3-4.2,1-5.1,4
		C589.5,464.8,590.4,467.9,592.3,468.6z"/>
	<path fill="#F87537" fill-opacity="0.1" d="M583,471.4c1.7,0.1,2.8-2,2.9-4.6c0.1-1.7-1.4-4.8-3-4.8c-1.1,0-3,2-2.9,4.6
		C580,469.2,581.4,471.3,583,471.4z"/>
	<path fill="#F87537" fill-opacity="0.1" d="M587.3,472.1c-1.2,1-2.7,1.5-4.2,1.4c-1.6-0.1-3.3-0.4-5,2c-2,2.9-1,7.2,1.9,9.4
		c0.8,0.6,1.7,1,2.6,1.2c1,0.2,1.9,0.6,2.7,1.2c0.8,0.6,1.5,1.4,2,2.3c0.5,0.9,1.1,1.6,1.9,2.2c2.9,2.2,6.9,1.6,8.5-1.6
		c1.3-2.5,0.5-4.2-0.2-5.8c-0.7-1.5-0.8-3.2-0.4-4.8c0.7-2.8-0.4-5.7-2.7-7.4C592.3,470.4,589.4,470.3,587.3,472.1z"/>
	<path fill="#F87537" fill-opacity="0.1" d="M599.7,466.3c-2.2,2-2.8,5-1.4,6.7c1.4,1.7,4.2,1.4,6.4-0.6c2.2-2,2.1-5.8,1.4-6.7
		C604.8,463.9,601.4,464.8,599.7,466.3z"/>
	<path fill="#F87537" fill-opacity="0.1" d="M602.1,478.9c-2.1,1.1-3.4,3.1-2.7,4.8c0.7,1.7,3,2.2,5.2,1.3c2.2-1,3.1-3.6,2.7-4.8
		C606.7,478.5,603.5,478.1,602.1,478.9z"/>
</g>
<g id="impronta3">
	<path fill="#F87537" fill-opacity="0.1" d="M645.6,49.9c3.3,1.4,7.5-1.6,9-6.7c1.2-4,0.4-10.7-3-11.9c-1.9-0.6-7.4,1.6-9,6.7
		C640.9,43.2,642.3,48.5,645.6,49.9z"/>
	<path fill="#F87537" fill-opacity="0.1" d="M629.3,54.3c2.9,0.2,5-3.3,5.3-7.8c0.2-2.9-2.2-8.4-5-8.5c-2-0.1-5.3,3.3-5.3,7.8
		C624.2,50.2,626.5,54.1,629.3,54.3z"/>
	<path fill="#F87537" fill-opacity="0.1" d="M636.8,55.6c-2.1,1.7-4.7,2.5-7.3,2.2c-2.8-0.3-5.8-0.8-8.7,3.2
		c-3.6,4.9-2.1,12.5,2.8,16.4c1.4,1.1,2.9,1.8,4.5,2.1c1.7,0.4,3.3,1.1,4.6,2.2c1.4,1.1,2.5,2.5,3.4,4.1c0.8,1.5,1.9,2.9,3.3,4
		c4.9,3.9,11.9,3.1,14.9-2.3c2.5-4.4,1.1-7.3-0.1-10.2c-1.1-2.7-1.2-5.7-0.5-8.4c1.3-4.8-0.5-10-4.3-13
		C645.5,52.9,640.5,52.7,636.8,55.6z"/>
	<path fill="#F87537" fill-opacity="0.1" d="M658.5,46.3c-3.9,3.3-5.1,8.6-2.8,11.7c2.3,3,7.3,2.7,11.1-0.7c3.9-3.4,4-9.9,2.8-11.7
		C667.6,42.3,661.5,43.7,658.5,46.3z"/>
	<path fill="#F87537" fill-opacity="0.1" d="M662.2,68.2c-3.7,1.8-6,5.2-4.9,8.1c1.1,2.9,5.1,4,8.9,2.5c3.8-1.6,5.6-6.1,4.9-8.1
		C670.1,67.7,664.7,67,662.2,68.2z"/>
</g>
<g id="impronta4">
	<path fill="#F87537" fill-opacity="0.1" d="M715.3,59.2c1.7,1.3,4.4,0.2,6-2.5c1.2-2,1.7-5.9,0-7c-0.9-0.6-4.3-0.1-6,2.5
		C713.7,54.8,713.7,57.9,715.3,59.2z"/>
	<path fill="#F87537" fill-opacity="0.1" d="M705.7,59.3c1.6,0.5,3.2-1.1,4.1-3.6c0.5-1.6,0-5-1.6-5.5c-1.1-0.3-3.4,1.1-4.1,3.6
		C703.4,56.4,704.1,58.8,705.7,59.3z"/>
	<path fill="#F87537" fill-opacity="0.1" d="M709.6,61.1c-1.4,0.6-3,0.7-4.4,0.2c-1.5-0.6-3.1-1.3-5.3,0.5c-2.7,2.2-2.9,6.7-0.7,9.5
		c0.6,0.8,1.4,1.4,2.2,1.8c0.9,0.4,1.7,1.1,2.3,1.9c0.6,0.8,1,1.7,1.3,2.8c0.2,1,0.6,1.9,1.3,2.7c2.2,2.9,6.2,3.4,8.6,0.8
		c2-2.1,1.6-3.9,1.4-5.7c-0.2-1.7,0.1-3.3,0.9-4.7c1.4-2.5,1.1-5.7-0.6-7.9C714.9,60.8,712.1,60,709.6,61.1z"/>
	<path fill="#F87537" fill-opacity="0.1" d="M723.1,59c-2.7,1.3-4.1,4.1-3.2,6.1c0.9,2,3.7,2.5,6.3,1.1c2.6-1.4,3.6-5,3.2-6.1
		C728.6,58,725.1,58,723.1,59z"/>
	<path fill="#F87537" fill-opacity="0.1" d="M722,71.7c-2.3,0.5-4.1,2.1-3.9,3.8c0.2,1.8,2.3,3,4.6,2.6c2.3-0.3,4-2.6,3.9-3.8
		C726.5,72.5,723.6,71.4,722,71.7z"/>
</g>
</svg>
