<svg width="242" height="162" viewBox="0 0 242 162" fill="none" xmlns="http://www.w3.org/2000/svg">
<path d="M242 2.59606C242 2.59606 241.911 6.54892 241.74 13.1774C240.86 47.6398 237.913 154.477 235.026 155.486C231.588 156.683 163.547 160.235 163.547 160.235L158.53 159.996L122.588 158.272C122.588 158.272 103.522 17.287 107.451 14.9196C111.034 12.7392 143.039 3.48675 149.6 1.46134C150.217 1.27251 150.601 1.14425 150.728 1.09615C150.881 1.03737 152.002 1.00529 153.886 0.987481C157.093 0.969667 162.522 1.03382 169.16 1.12111C181.487 1.30459 197.991 1.63236 212.174 1.93519C212.214 1.93519 212.251 1.94587 212.29 1.94587C228.714 2.28433 242 2.59606 242 2.59606Z" fill="#FDBFC4"/>
<path opacity="0.69" d="M158.53 159.995L122.587 158.27C122.587 158.27 103.521 17.2855 107.451 14.9181C111.033 12.7377 143.039 3.48526 149.6 1.45984C149.265 58.3069 155.429 128.539 158.53 159.995Z" fill="url(#paint0_linear_126_97)"/>
<path opacity="0.5" d="M222.052 57.8757C223.026 60.3714 223.572 63.0826 223.598 65.9061C223.655 72.1462 221.195 77.8145 217.141 81.9277L214.367 106.108L202.861 100.249L188.267 107.791L188.056 84.9115C182.078 80.8695 178.12 74.0719 178.049 66.3247C178.017 62.8011 178.775 59.4628 180.201 56.4559C178.446 51.0797 176.249 42.547 176.415 41.0381C176.599 39.4866 185.122 43.1651 190.728 45.7463C193.712 44.2963 197.061 43.459 200.615 43.427C204.976 43.386 209.08 44.5581 212.563 46.6495C217.241 43.8901 225.658 39.8429 227.298 40.803C228.885 41.724 225.009 51.566 222.052 57.8757Z" fill="url(#paint1_linear_126_97)"/>
<path d="M217.549 61.0895C218.333 63.0686 218.764 65.2187 218.785 67.4632C218.878 77.4086 210.856 85.5423 200.875 85.6349C190.894 85.7276 182.732 77.7435 182.639 67.7981C182.613 65.0049 183.225 62.3507 184.349 59.9743C182.965 55.7026 181.216 48.9387 181.353 47.7345C181.49 46.5161 188.261 49.4286 192.708 51.4807C195.072 50.3175 197.729 49.6531 200.542 49.6281C204.01 49.5961 207.256 50.5402 210.019 52.1969C213.731 50.0093 220.406 46.7904 221.719 47.5546C222.977 48.2796 219.897 56.0909 217.549 61.0895Z" fill="#A4C7FF"/>
<path d="M160.966 94.6291C207.536 143.2 237.205 97.4259 237.205 97.4259L233.262 151.421L165.198 152.34L160.966 94.6291Z" fill="#F4A067"/>
<path d="M175.779 123.076L175.001 145.541C175.001 145.541 222.615 146.852 222.36 145.979C222.106 145.106 222.351 118.271 222.351 118.271L175.779 123.076Z" fill="#FFF0D1"/>
<path opacity="0.5" d="M113.348 66.193C122.83 167.216 148.067 158.039 154.294 155.648C160.522 153.257 146.463 55.3872 146.463 55.3872C146.463 55.3872 139.133 80.7325 128.894 75.7714C118.653 70.8103 113.348 66.193 113.348 66.193Z" fill="url(#paint2_linear_126_97)"/>
<path d="M153.884 0.986078C157.091 0.968264 162.52 1.03239 169.158 1.11968C164.617 2.11012 154.027 5.0298 149.999 11.4071L149.598 1.4617L153.884 0.986078Z" fill="#FFEEF0"/>
<path d="M242 2.59643C242 2.59643 241.911 6.5493 241.74 13.1778C240.523 11.1559 239.054 8.86152 237.44 6.71675C235.582 4.2549 224.701 2.8013 212.289 1.94446C228.715 2.2847 242 2.59643 242 2.59643Z" fill="#FFEEF0"/>
<path d="M191.024 98.9151L190.39 90.6122L201.925 95.3827L214.35 88.0416L212.354 101.429L201.941 97.189L191.071 103.793L191.024 98.9151Z" fill="#A4C7FF"/>
<path d="M135.084 4.30455C135.084 4.30455 134.995 8.25742 134.824 14.8859C133.944 49.3483 130.997 156.184 128.11 157.194C124.672 158.391 56.6289 161.943 56.6289 161.943L51.6126 161.705L15.6699 159.98C15.6699 159.98 -3.39614 18.9955 0.53356 16.6281C4.11589 14.4477 36.1218 5.19525 42.6826 3.16983C43.2989 2.98101 43.6837 2.85275 43.8102 2.80465C43.9634 2.74586 45.0839 2.71379 46.9685 2.69598C50.175 2.67816 55.6046 2.74231 62.242 2.8296C74.5709 3.01308 91.0735 3.34086 105.257 3.64369C105.296 3.64369 105.333 3.65437 105.372 3.65437C121.798 3.99283 135.084 4.30455 135.084 4.30455Z" fill="#FCAA52"/>
<path opacity="0.69" d="M51.6144 161.703L15.6717 159.979C15.6717 159.979 -3.39434 18.9939 0.53536 16.6265C4.11769 14.4461 36.1236 5.19369 42.6844 3.16827C42.3495 60.0153 48.513 130.248 51.6144 161.703Z" fill="url(#paint3_linear_126_97)"/>
<path d="M54.0493 96.3374C100.62 144.908 130.288 99.1342 130.288 99.1342L126.346 153.129L58.2817 154.048L54.0493 96.3374Z" fill="#FFF0D1"/>
<path d="M68.8633 124.784L68.0831 147.249C68.0831 147.249 115.697 148.56 115.443 147.687C115.188 146.814 115.434 119.98 115.434 119.98L68.8633 124.784Z" fill="#FF775B"/>
<path opacity="0.69" d="M6.43198 67.9031C15.9142 168.926 41.1508 159.749 47.3785 157.358C53.6062 154.968 39.5476 57.0973 39.5476 57.0973C39.5476 57.0973 32.2173 82.4426 21.978 77.4815C11.7369 72.5204 6.43198 67.9031 6.43198 67.9031Z" fill="url(#paint4_linear_126_97)"/>
<path d="M46.9684 2.69604C50.1749 2.67822 55.6045 2.74238 62.2419 2.82966C57.7011 3.8201 47.1109 6.73976 43.0832 13.1171L42.6824 3.17169L46.9684 2.69604Z" fill="#EA8457"/>
<path d="M135.084 4.3046C135.084 4.3046 134.995 8.25746 134.824 14.8859C133.607 12.8641 132.138 10.5697 130.524 8.42491C128.666 5.96306 117.785 4.50948 105.373 3.65442C121.799 3.99288 135.084 4.3046 135.084 4.3046Z" fill="#EA8457"/>
<path opacity="0.5" d="M64.2497 46.5801C56.5382 56.2494 55.5762 65.541 56.4616 66.1057C57.3451 66.6704 65.0816 71.334 68.1331 68.5836C71.1846 65.8332 72.1786 66.3979 75.2479 65.7958C78.319 65.1954 68.2115 89.9992 69.3445 93.7134C70.4774 97.4275 82.1792 98.0706 84.5805 96.3302C86.9818 94.5898 89.5844 79.0937 93.7635 79.4856C97.9426 79.8775 101.488 79.1738 103.866 86.8889C106.244 94.6023 108.668 95.4395 112.183 95.2632C115.698 95.0868 127.788 93.1754 126.179 85.5975C124.57 78.0195 118.108 68.0527 119.502 64.4579C120.897 60.8631 127.234 51.7319 126.865 47.437C126.496 43.1439 115.719 54.5624 113.416 55.0131C111.112 55.4638 93.7724 50.2266 91.111 47.5296C88.4497 44.8326 85.0864 37.5575 83.1964 35.1402C81.3064 32.7229 77.6011 24.0191 72.9571 20.9106C68.3148 17.8021 71.8865 35.7352 71.5623 36.3105C71.2381 36.8859 65.4219 37.6573 64.1357 41.106C62.8496 44.5547 64.2497 46.5801 64.2497 46.5801Z" fill="url(#paint5_linear_126_97)"/>
<path d="M67.264 49.3609C60.6266 57.1722 59.9212 62.73 60.6818 63.186C61.4425 63.6421 70.1604 66.2215 72.7862 64.0001C75.4119 61.7788 76.267 62.233 78.9088 61.7467C81.5505 61.2604 71.8545 85.87 72.8272 88.868C73.7998 91.8661 80.7026 92.2651 82.769 90.8578C84.8354 89.4506 87.0835 76.9382 90.6765 77.2518C94.2713 77.5653 105.423 77.5777 107.464 83.8054C109.506 90.0331 111.592 90.7082 114.615 90.5639C117.638 90.4196 123.101 88.4031 121.72 82.2859C120.34 76.1687 114.786 68.1222 115.986 65.2204C117.189 62.3168 124.115 54.9668 123.798 51.5003C123.482 48.0337 117.233 56.9976 115.25 57.3627C113.27 57.7279 93.858 53.743 91.5707 51.5662C89.2817 49.3893 86.3923 43.5162 84.7677 41.5656C83.1431 39.615 79.9598 32.5875 75.9659 30.0793C71.9739 27.5711 73.7856 39.5847 73.5059 40.0496C73.2262 40.5146 68.2241 41.1398 67.1143 43.9259C66.0117 46.7119 67.264 49.3609 67.264 49.3609Z" fill="#FF775B"/>
<defs>
<linearGradient id="paint0_linear_126_97" x1="189.764" y1="-28.8172" x2="129.51" y2="94.5143" gradientUnits="userSpaceOnUse">
<stop stop-color="white"/>
<stop offset="1" stop-color="#EA5456"/>
</linearGradient>
<linearGradient id="paint1_linear_126_97" x1="220.15" y1="-3.06001" x2="192.527" y2="82.4229" gradientUnits="userSpaceOnUse">
<stop stop-color="white"/>
<stop offset="1" stop-color="#CC0056"/>
</linearGradient>
<linearGradient id="paint2_linear_126_97" x1="149.375" y1="51.1505" x2="126.912" y2="139.03" gradientUnits="userSpaceOnUse">
<stop stop-color="white"/>
<stop offset="1" stop-color="#CC0056"/>
</linearGradient>
<linearGradient id="paint3_linear_126_97" x1="66.1158" y1="0.264468" x2="18.4601" y2="105.975" gradientUnits="userSpaceOnUse">
<stop stop-color="white"/>
<stop offset="1" stop-color="#BF004A"/>
</linearGradient>
<linearGradient id="paint4_linear_126_97" x1="26.6283" y1="60.011" x2="28.4499" y2="140.199" gradientUnits="userSpaceOnUse">
<stop stop-color="white"/>
<stop offset="1" stop-color="#BF004A"/>
</linearGradient>
<linearGradient id="paint5_linear_126_97" x1="130.066" y1="-36.9839" x2="89.6" y2="79.9195" gradientUnits="userSpaceOnUse">
<stop stop-color="white"/>
<stop offset="1" stop-color="#CC0056"/>
</linearGradient>
</defs>
</svg>
