<?xml version="1.0" encoding="utf-8"?>
<!-- Generator: Adobe Illustrator 18.0.0, SVG Export Plug-In . SVG Version: 6.00 Build 0)  -->
<!DOCTYPE svg PUBLIC "-//W3C//DTD SVG 1.1//EN" "http://www.w3.org/Graphics/SVG/1.1/DTD/svg11.dtd">
<svg version="1.1" id="Livello_1" xmlns="http://www.w3.org/2000/svg" xmlns:xlink="http://www.w3.org/1999/xlink" x="0px" y="0px"
	 viewBox="0 0 40 27" enable-background="new 0 0 40 27" xml:space="preserve">
<path fill="#F87537" d="M13.5,0h13C34,0,40,6,40,13.5l0,0C40,21,34,27,26.5,27h-13C6,27,0,21,0,13.5l0,0C0,6,6,0,13.5,0z"/>
<path display="none" fill="none" stroke="#FFFFFF" stroke-width="1.8333" stroke-linecap="round" stroke-linejoin="round" d="
	M16.3,8.4c0,1,0.4,1.9,1.1,2.6c0.7,0.7,1.6,1.1,2.6,1.1c1,0,1.9-0.4,2.6-1.1c0.7-0.7,1.1-1.6,1.1-2.6s-0.4-1.9-1.1-2.6
	C21.9,5.1,21,4.8,20,4.8c-1,0-1.9,0.4-2.6,1.1C16.7,6.5,16.3,7.4,16.3,8.4z"/>
<path display="none" fill="none" stroke="#FFFFFF" stroke-width="1.8333" stroke-linecap="round" stroke-linejoin="round" d="
	M14.5,21.3v-1.8c0-1,0.4-1.9,1.1-2.6c0.7-0.7,1.6-1.1,2.6-1.1h3.7c1,0,1.9,0.4,2.6,1.1c0.7,0.7,1.1,1.6,1.1,2.6v1.8"/>
</svg>
