<?xml version="1.0" encoding="utf-8"?>
<!-- Generator: Adobe Illustrator 18.0.0, SVG Export Plug-In . SVG Version: 6.00 Build 0)  -->
<!DOCTYPE svg PUBLIC "-//W3C//DTD SVG 1.1//EN" "http://www.w3.org/Graphics/SVG/1.1/DTD/svg11.dtd">
<svg version="1.1" id="Livello_1" xmlns="http://www.w3.org/2000/svg" xmlns:xlink="http://www.w3.org/1999/xlink" x="0px" y="0px"
	 viewBox="0 0 365 312" enable-background="new 0 0 365 312" xml:space="preserve">
<g id="Livello_2" display="none">
	<rect x="-293" y="-117" display="inline" fill="#150AEF" width="756" height="520"/>
</g>
<g>
	<g>
		<defs>
			<path id="SVGID_1_" d="M5,0h355c2.8,0,5,2.2,5,5v302c0,2.8-2.2,5-5,5H5c-2.8,0-5-2.2-5-5V5C0,2.2,2.2,0,5,0z"/>
		</defs>
		<clipPath id="SVGID_2_">
			<use xlink:href="#SVGID_1_"  overflow="visible"/>
		</clipPath>
		<g clip-path="url(#SVGID_2_)">
			<g>
				<defs>
					<polygon id="SVGID_3_" points="-3,-3 -2,-3 -3,-2 					"/>
				</defs>
				<defs>
					<polygon id="SVGID_4_" points="-5,-5 -6,-5 -5,-6 					"/>
				</defs>
				<clipPath id="SVGID_5_">
					<use xlink:href="#SVGID_3_"  overflow="visible"/>
				</clipPath>
				<clipPath id="SVGID_6_" clip-path="url(#SVGID_5_)">
					<use xlink:href="#SVGID_4_"  overflow="visible"/>
				</clipPath>
			</g>
		</g>
		<path clip-path="url(#SVGID_2_)" fill="#FAEDE5" fill-opacity="0.2" d="M5,0h355c2.8,0,5,2.2,5,5v302c0,2.8-2.2,5-5,5H5
			c-2.8,0-5-2.2-5-5V5C0,2.2,2.2,0,5,0z"/>
	</g>
</g>
<g>
	<g>
		<path fill="#F87537" fill-opacity="0.1" d="M268.7,66.4c3.3-1.4,4-6.5,1.4-11.2c-2.1-3.6-7.5-7.7-10.7-6
			c-1.7,0.9-3.9,6.4-1.4,11.2C260.6,65.2,265.4,67.9,268.7,66.4z"/>
		<path fill="#F87537" fill-opacity="0.1" d="M260.7,81.2c2.1-1.9,1-5.9-1.9-9.2c-2-2.2-7.6-4.2-9.7-2.3c-1.4,1.4-1.3,6.1,1.9,9.2
			C254.2,82.1,258.5,83.1,260.7,81.2z"/>
		<path fill="#F87537" fill-opacity="0.1" d="M266.8,76.7c-0.3,2.7-1.5,5.1-3.5,6.8c-2.2,1.9-4.6,3.6-3.7,8.5c1,6,7.6,10.1,13.8,9.3
			c1.7-0.2,3.3-0.9,4.6-1.8c1.4-1,3-1.6,4.8-1.8c1.7-0.2,3.5-0.1,5.3,0.4c1.6,0.5,3.4,0.6,5.1,0.4c6.2-0.9,10.4-6.5,8.6-12.4
			c-1.5-4.8-4.5-5.8-7.4-6.9c-2.7-1.1-4.9-3-6.4-5.4c-2.6-4.3-7.6-6.6-12.4-5.9C270.9,68.5,267.2,72,266.8,76.7z"/>
		<path fill="#F87537" fill-opacity="0.1" d="M275,54.6c-0.3,5.1,2.7,9.7,6.5,10.1c3.8,0.4,7-3.4,7.1-8.6c0.2-5.1-4.4-9.7-6.5-10.1
			C278.4,45.3,275.3,50.6,275,54.6z"/>
		<path fill="#F87537" fill-opacity="0.1" d="M293.4,67c-1.2,4-0.4,7.9,2.5,9.2c2.9,1.2,6.5-0.9,8-4.8c1.5-3.8-0.5-8.3-2.5-9.2
			C298.5,61,294.2,64.4,293.4,67z"/>
	</g>
	<g>
		<path fill="#F87537" fill-opacity="0.1" d="M321.4,30.1c2.1-0.3,3.2-3,2.3-6c-0.6-2.3-3.1-5.3-5.1-4.9c-1.1,0.3-3.1,3-2.3,6
			C317.1,28.3,319.3,30.5,321.4,30.1z"/>
		<path fill="#F87537" fill-opacity="0.1" d="M314.8,37.2c1.5-0.8,1.4-3.1,0.2-5.4c-0.8-1.5-3.6-3.4-5.1-2.6c-1,0.6-1.6,3.2-0.2,5.4
			C311.1,36.9,313.4,38,314.8,37.2z"/>
		<path fill="#F87537" fill-opacity="0.1" d="M318.9,35.6c-0.5,1.4-1.5,2.6-2.9,3.3c-1.5,0.7-3.1,1.4-3.3,4.2
			c-0.3,3.5,2.8,6.7,6.4,7.1c1,0.1,2,0,2.8-0.3c0.9-0.3,1.9-0.5,2.9-0.4c1,0.1,2,0.4,2.9,1c0.8,0.5,1.8,0.8,2.8,0.9
			c3.6,0.4,6.7-2.2,6.5-5.7c-0.1-2.9-1.7-3.9-3.2-4.9c-1.4-1-2.3-2.4-2.8-3.9c-0.9-2.8-3.3-4.7-6.1-5
			C322.3,31.6,319.8,33,318.9,35.6z"/>
		<path fill="#F87537" fill-opacity="0.1" d="M326.6,24.4c-0.9,2.8,0.2,5.8,2.2,6.5c2,0.8,4.4-0.9,5.2-3.8c0.8-2.8-1.1-6-2.2-6.5
			C329.8,19.7,327.2,22.3,326.6,24.4z"/>
		<path fill="#F87537" fill-opacity="0.1" d="M335.1,33.9c-1.2,2-1.3,4.4,0.1,5.5c1.4,1.1,3.7,0.4,5.1-1.5c1.4-1.9,0.9-4.7-0.1-5.5
			C338.8,31.3,335.9,32.6,335.1,33.9z"/>
	</g>
	<g>
		<path fill="#F87537" fill-opacity="0.1" d="M85.8,52.2c2.7,1,6-1.5,7.1-5.8c0.8-3.3-0.1-8.7-2.9-9.5c-1.5-0.4-5.9,1.6-7.1,5.8
			C81.7,47,83,51.2,85.8,52.2z"/>
		<path fill="#F87537" fill-opacity="0.1" d="M72.8,56.4c2.3,0.1,3.9-2.9,4-6.5c0.1-2.4-2.1-6.7-4.4-6.7c-1.6,0-4.1,2.9-4,6.5
			C68.5,53.3,70.4,56.3,72.8,56.4z"/>
		<path fill="#F87537" fill-opacity="0.1" d="M78.9,57.2c-1.6,1.4-3.7,2.2-5.9,2.1c-2.3-0.1-4.7-0.4-6.9,2.9
			c-2.8,4.1-1.2,10.2,2.9,13.2c1.2,0.8,2.4,1.3,3.7,1.5c1.4,0.2,2.7,0.8,3.8,1.6c1.1,0.8,2.1,1.9,2.9,3.2c0.7,1.2,1.6,2.3,2.8,3.1
			c4.1,3,9.8,2,12-2.5c1.8-3.6,0.6-5.9-0.5-8.2c-1-2.1-1.2-4.5-0.7-6.8c0.9-4-0.8-8.1-4-10.4C85.8,54.7,81.8,54.7,78.9,57.2z"/>
		<path fill="#F87537" fill-opacity="0.1" d="M96.1,48.8c-3.1,2.8-3.8,7.2-1.8,9.6c2,2.4,6,1.9,9-1c3-2.9,2.8-8.2,1.8-9.6
			C103.3,45.2,98.4,46.6,96.1,48.8z"/>
		<path fill="#F87537" fill-opacity="0.1" d="M100,66.4c-2.9,1.6-4.7,4.5-3.7,6.8c1,2.3,4.3,3.1,7.3,1.7c3-1.4,4.3-5.2,3.7-6.8
			C106.3,65.7,101.9,65.3,100,66.4z"/>
	</g>
	<g>
		<path fill="#F87537" fill-opacity="0.1" d="M35.7,77.6c1.5,0.6,3.4-0.9,4-3.3c0.4-1.8-0.1-4.9-1.6-5.3c-0.9-0.2-3.3,0.9-4,3.3
			C33.4,74.7,34.2,77,35.7,77.6z"/>
		<path fill="#F87537" fill-opacity="0.1" d="M28.4,80c1.3,0,2.2-1.6,2.3-3.7c0-1.3-1.2-3.8-2.5-3.8c-0.9,0-2.3,1.6-2.3,3.7
			C26,78.2,27.1,79.9,28.4,80z"/>
		<path fill="#F87537" fill-opacity="0.1" d="M31.8,80.4c-0.9,0.8-2.1,1.2-3.3,1.2c-1.3-0.1-2.6-0.2-3.9,1.6
			c-1.5,2.3-0.7,5.7,1.6,7.4c0.7,0.5,1.4,0.8,2.1,0.9c0.8,0.1,1.5,0.4,2.2,0.9c0.6,0.5,1.2,1.1,1.6,1.8c0.4,0.7,0.9,1.3,1.6,1.7
			c2.3,1.7,5.5,1.1,6.7-1.4c1-2,0.3-3.3-0.3-4.6c-0.6-1.2-0.7-2.5-0.4-3.8c0.5-2.2-0.4-4.6-2.2-5.8C35.8,79,33.5,79,31.8,80.4z"/>
		<path fill="#F87537" fill-opacity="0.1" d="M41.5,75.7c-1.7,1.6-2.1,4-1,5.4c1.1,1.3,3.4,1.1,5.1-0.6c1.7-1.6,1.6-4.6,1-5.4
			C45.6,73.7,42.8,74.5,41.5,75.7z"/>
		<path fill="#F87537" fill-opacity="0.1" d="M43.7,85.6c-1.6,0.9-2.6,2.5-2.1,3.8c0.6,1.3,2.4,1.7,4.1,0.9c1.7-0.8,2.4-2.9,2.1-3.8
			C47.3,85.2,44.8,85,43.7,85.6z"/>
	</g>
</g>
</svg>
