<svg width="483" height="458" viewBox="0 0 483 458" fill="none" xmlns="http://www.w3.org/2000/svg">
<path d="M129.906 465.432C88.5844 441.746 63.6051 390.658 40.2276 337.85C17.482 284.899 -3.02982 230.084 0.911423 171.707C4.07383 112.831 32.1742 49.6066 79.3915 20.554C127.388 -8.0005 194.647 -1.74042 258.659 10.6718C322.039 23.2285 382.024 41.2947 421.038 81.0603C460.199 121.469 478.873 182.789 481.648 244.364C484.569 306.582 472.222 368.91 436.937 409.434C401.504 449.316 342.987 466.752 285.528 477.185C227.922 486.974 170.743 489.905 129.906 465.432Z" fill="url(#paint0_linear_89_2365)"/>
<defs>
<linearGradient id="paint0_linear_89_2365" x1="417.019" y1="-63" x2="36.5854" y2="502.9" gradientUnits="userSpaceOnUse">
<stop stop-color="#F87537"/>
<stop offset="1" stop-color="#FBA81F"/>
</linearGradient>
</defs>
</svg>
