<svg width="24" height="23" viewBox="0 0 24 23" fill="none" xmlns="http://www.w3.org/2000/svg">
<path d="M9.24919 21.1667C9.75545 21.1667 10.1659 20.7563 10.1659 20.25C10.1659 19.7438 9.75545 19.3334 9.24919 19.3334C8.74293 19.3334 8.33252 19.7438 8.33252 20.25C8.33252 20.7563 8.74293 21.1667 9.24919 21.1667Z" stroke="#F87537" stroke-width="2.3" stroke-linecap="round" stroke-linejoin="round"/>
<path d="M19.3341 21.1667C19.8404 21.1667 20.2508 20.7563 20.2508 20.25C20.2508 19.7438 19.8404 19.3334 19.3341 19.3334C18.8279 19.3334 18.4175 19.7438 18.4175 20.25C18.4175 20.7563 18.8279 21.1667 19.3341 21.1667Z" stroke="#F87537" stroke-width="2.3" stroke-linecap="round" stroke-linejoin="round"/>
<path d="M1.91748 1.91663H5.58415L8.04081 14.1908C8.12464 14.6128 8.35423 14.9919 8.6894 15.2617C9.02457 15.5315 9.44395 15.6749 9.87415 15.6666H18.7841C19.2143 15.6749 19.6337 15.5315 19.9689 15.2617C20.3041 14.9919 20.5337 14.6128 20.6175 14.1908L22.0841 6.49996H6.50081" stroke="#F87537" stroke-width="2.3" stroke-linecap="round" stroke-linejoin="round"/>
</svg>
