<svg width="19" height="18" viewBox="0 0 19 18" fill="none" xmlns="http://www.w3.org/2000/svg">
<path d="M9.03388 1.27589C9.27085 0.882126 9.84171 0.882126 10.0787 1.27588L12.6341 5.52216C12.7193 5.66362 12.8581 5.76451 13.019 5.80176L17.8471 6.91996C18.2948 7.02365 18.4712 7.56657 18.1699 7.91362L14.9212 11.6562C14.8129 11.7808 14.7599 11.9441 14.7742 12.1086L15.2027 17.0459C15.2424 17.5038 14.7806 17.8393 14.3574 17.66L9.79412 15.7268C9.6421 15.6624 9.47046 15.6624 9.31844 15.7268L4.75514 17.66C4.33198 17.8393 3.87015 17.5038 3.90988 17.0459L4.33838 12.1086C4.35265 11.9441 4.29961 11.7808 4.19139 11.6562L0.942614 7.91362C0.641354 7.56658 0.81776 7.02365 1.26547 6.91996L6.0936 5.80176C6.25444 5.76451 6.3933 5.66362 6.47843 5.52216L9.03388 1.27589Z" fill="#E0E0E0"/>
</svg>
