<svg width="19" height="18" viewBox="0 0 19 18" fill="none" xmlns="http://www.w3.org/2000/svg">
<path d="M8.92939 1.27589C9.16635 0.882126 9.73722 0.882126 9.97418 1.27588L12.5296 5.52216C12.6148 5.66362 12.7536 5.76451 12.9145 5.80176L17.7426 6.91996C18.1903 7.02365 18.3667 7.56657 18.0654 7.91362L14.8167 11.6562C14.7084 11.7808 14.6554 11.9441 14.6697 12.1086L15.0982 17.0459C15.1379 17.5038 14.6761 17.8393 14.2529 17.66L9.68962 15.7268C9.5376 15.6624 9.36597 15.6624 9.21395 15.7268L4.65065 17.66C4.22749 17.8393 3.76565 17.5038 3.80539 17.0459L4.23389 12.1086C4.24816 11.9441 4.19512 11.7808 4.08689 11.6562L0.838122 7.91362C0.536862 7.56658 0.713268 7.02365 1.16098 6.91996L5.98911 5.80176C6.14995 5.76451 6.28881 5.66362 6.37394 5.52216L8.92939 1.27589Z" fill="#FF7C00"/>
</svg>
