<svg width="130" height="27" viewBox="0 0 130 27" fill="none" xmlns="http://www.w3.org/2000/svg">
<path d="M12.9294 3.27589C13.1664 2.88213 13.7372 2.88213 13.9742 3.27588L16.5296 7.52216C16.6148 7.66362 16.7536 7.76451 16.9145 7.80176L21.7426 8.91996C22.1903 9.02365 22.3667 9.56657 22.0654 9.91362L18.8167 13.6562C18.7084 13.7808 18.6554 13.9441 18.6697 14.1086L19.0982 19.0459C19.1379 19.5038 18.6761 19.8393 18.2529 19.66L13.6896 17.7268C13.5376 17.6624 13.366 17.6624 13.2139 17.7268L8.65065 19.66C8.22749 19.8393 7.76565 19.5038 7.80539 19.0459L8.23389 14.1086C8.24816 13.9441 8.19512 13.7808 8.08689 13.6562L4.83812 9.91362C4.53686 9.56658 4.71327 9.02365 5.16098 8.91996L9.98911 7.80176C10.1499 7.76451 10.2888 7.66362 10.3739 7.52216L12.9294 3.27589Z" fill="#FF7C00"/>
<path d="M39.4558 3.27589C39.6927 2.88213 40.2636 2.88213 40.5006 3.27588L43.056 7.52216C43.1411 7.66362 43.28 7.76451 43.4408 7.80176L48.269 8.91996C48.7167 9.02365 48.8931 9.56657 48.5918 9.91362L45.343 13.6562C45.2348 13.7808 45.1818 13.9441 45.1961 14.1086L45.6245 19.0459C45.6643 19.5038 45.2024 19.8393 44.7793 19.66L40.216 17.7268C40.064 17.6624 39.8923 17.6624 39.7403 17.7268L35.177 19.66C34.7539 19.8393 34.292 19.5038 34.3318 19.0459L34.7603 14.1086C34.7745 13.9441 34.7215 13.7808 34.6133 13.6562L31.3645 9.91362C31.0632 9.56658 31.2396 9.02365 31.6873 8.91996L36.5155 7.80176C36.6763 7.76451 36.8152 7.66362 36.9003 7.52216L39.4558 3.27589Z" fill="#FF7C00"/>
<path d="M65.9821 3.27589C66.2191 2.88213 66.79 2.88213 67.0269 3.27588L69.5824 7.52216C69.6675 7.66362 69.8064 7.76451 69.9672 7.80176L74.7953 8.91996C75.243 9.02365 75.4194 9.56657 75.1182 9.91362L71.8694 13.6562C71.7612 13.7808 71.7081 13.9441 71.7224 14.1086L72.1509 19.0459C72.1907 19.5038 71.7288 19.8393 71.3057 19.66L66.7424 17.7268C66.5903 17.6624 66.4187 17.6624 66.2667 17.7268L61.7034 19.66C61.2802 19.8393 60.8184 19.5038 60.8581 19.0459L61.2866 14.1086C61.3009 13.9441 61.2479 13.7808 61.1396 13.6562L57.8909 9.91362C57.5896 9.56658 57.766 9.02365 58.2137 8.91996L63.0418 7.80176C63.2027 7.76451 63.3415 7.66362 63.4267 7.52216L65.9821 3.27589Z" fill="#FF7C00"/>
<path d="M73.5891 1.44211L73.7832 3.37844L75.3093 4.58598L73.5278 5.36902L72.8509 7.19356L71.5557 5.74118L69.6113 5.66128L70.5923 3.98061L70.0675 2.10669L71.969 2.52036L73.5891 1.44211Z" fill="#FF7C00"/>
<path d="M77.8339 13.4658L77.0416 15.2433L77.7674 17.0489L75.8321 16.8447L74.339 18.0929L73.9352 16.1892L72.2868 15.155L73.9725 14.1827L74.4467 12.2953L75.8924 13.5981L77.8339 13.4658Z" fill="#FF7C00"/>
<path d="M64.5388 19.5879L66.3808 20.2157L68.1132 19.3292L68.0853 21.275L69.4638 22.6487L67.6045 23.2235L66.7241 24.9589L65.6029 23.3683L63.6803 23.0673L64.8465 21.5094L64.5388 19.5879Z" fill="#FF7C00"/>
<path d="M59.6177 13.1644L59.056 15.0276L60.0038 16.7273L58.0582 16.7689L56.7346 18.1955L56.0938 16.358L54.328 15.54L55.8776 14.3628L56.1099 12.4306L57.7084 13.5406L59.6177 13.1644Z" fill="#FF7C00"/>
<path d="M57.818 2.59001L59.7639 2.61688L61.1369 1.23772L61.7126 3.09664L63.4485 3.97622L61.8585 5.09823L61.5584 7.02099L60 5.85551L58.0786 6.16427L58.7054 4.32195L57.818 2.59001Z" fill="#FF7C00"/>
<path d="M92.5075 3.27589C92.7445 2.88213 93.3153 2.88213 93.5523 3.27588L96.1078 7.52216C96.1929 7.66362 96.3317 7.76451 96.4926 7.80176L101.321 8.91996C101.768 9.02365 101.945 9.56657 101.644 9.91362L98.3948 13.6562C98.2866 13.7808 98.2335 13.9441 98.2478 14.1086L98.6763 19.0459C98.716 19.5038 98.2542 19.8393 97.831 19.66L93.2677 17.7268C93.1157 17.6624 92.9441 17.6624 92.7921 17.7268L88.2288 19.66C87.8056 19.8393 87.3438 19.5038 87.3835 19.0459L87.812 14.1086C87.8263 13.9441 87.7732 13.7808 87.665 13.6562L84.4162 9.91362C84.115 9.56658 84.2914 9.02365 84.7391 8.91996L89.5672 7.80176C89.7281 7.76451 89.8669 7.66362 89.9521 7.52216L92.5075 3.27589Z" fill="#E0E0E0"/>
<path d="M93.0302 9.11462L94.0337 10.782L95.9295 11.2211L94.6538 12.6907L94.8221 14.6294L93.0302 13.8703L91.2383 14.6294L91.4066 12.6907L90.1309 11.2211L92.0268 10.782L93.0302 9.11462Z" fill="#E0E0E0"/>
<path d="M93.0302 9.11462L94.0337 10.782L95.9295 11.2211L94.6538 12.6907L94.8221 14.6294L93.0302 13.8703L91.2383 14.6294L91.4066 12.6907L90.1309 11.2211L92.0268 10.782L93.0302 9.11462Z" fill="#E0E0E0"/>
<path d="M93.0302 9.11462L94.0337 10.782L95.9295 11.2211L94.6538 12.6907L94.8221 14.6294L93.0302 13.8703L91.2383 14.6294L91.4066 12.6907L90.1309 11.2211L92.0268 10.782L93.0302 9.11462Z" fill="#E0E0E0"/>
<path d="M93.0302 9.11462L94.0337 10.782L95.9295 11.2211L94.6538 12.6907L94.8221 14.6294L93.0302 13.8703L91.2383 14.6294L91.4066 12.6907L90.1309 11.2211L92.0268 10.782L93.0302 9.11462Z" fill="#E0E0E0"/>
<path d="M93.0302 9.1145L94.0337 10.7819L95.9295 11.221L94.6538 12.6906L94.8221 14.6293L93.0302 13.8702L91.2383 14.6293L91.4066 12.6906L90.1309 11.221L92.0268 10.7819L93.0302 9.1145Z" fill="#E0E0E0"/>
<path d="M119.034 3.27589C119.271 2.88213 119.842 2.88213 120.079 3.27588L122.634 7.52216C122.719 7.66362 122.858 7.76451 123.019 7.80176L127.847 8.91996C128.295 9.02365 128.471 9.56657 128.17 9.91362L124.921 13.6562C124.813 13.7808 124.76 13.9441 124.774 14.1086L125.203 19.0459C125.242 19.5038 124.781 19.8393 124.357 19.66L119.794 17.7268C119.642 17.6624 119.47 17.6624 119.318 17.7268L114.755 19.66C114.332 19.8393 113.87 19.5038 113.91 19.0459L114.338 14.1086C114.353 13.9441 114.3 13.7808 114.191 13.6562L110.943 9.91362C110.641 9.56658 110.818 9.02365 111.265 8.91996L116.094 7.80176C116.254 7.76451 116.393 7.66362 116.478 7.52216L119.034 3.27589Z" fill="#E0E0E0"/>
<path d="M119.557 9.11462L120.56 10.782L122.456 11.2211L121.18 12.6907L121.348 14.6294L119.557 13.8703L117.765 14.6294L117.933 12.6907L116.657 11.2211L118.553 10.782L119.557 9.11462Z" fill="#E0E0E0"/>
<path d="M119.557 9.11462L120.56 10.782L122.456 11.2211L121.18 12.6907L121.348 14.6294L119.557 13.8703L117.765 14.6294L117.933 12.6907L116.657 11.2211L118.553 10.782L119.557 9.11462Z" fill="#E0E0E0"/>
<path d="M119.557 9.11462L120.56 10.782L122.456 11.2211L121.18 12.6907L121.348 14.6294L119.557 13.8703L117.765 14.6294L117.933 12.6907L116.657 11.2211L118.553 10.782L119.557 9.11462Z" fill="#E0E0E0"/>
<path d="M119.557 9.11462L120.56 10.782L122.456 11.2211L121.18 12.6907L121.348 14.6294L119.557 13.8703L117.765 14.6294L117.933 12.6907L116.657 11.2211L118.553 10.782L119.557 9.11462Z" fill="#E0E0E0"/>
<path d="M119.557 9.1145L120.56 10.7819L122.456 11.221L121.18 12.6906L121.348 14.6293L119.557 13.8702L117.765 14.6293L117.933 12.6906L116.657 11.221L118.553 10.7819L119.557 9.1145Z" fill="#E0E0E0"/>
</svg>
