<svg width="126" height="20" viewBox="0 0 126 20" fill="none" xmlns="http://www.w3.org/2000/svg">
<path d="M9.23285 0.868048C9.46982 0.47429 10.0407 0.474289 10.2777 0.868048L12.8331 5.11432C12.9182 5.25578 13.0571 5.35667 13.2179 5.39392L18.0461 6.51212C18.4938 6.61582 18.6702 7.15874 18.3689 7.50579L15.1201 11.2483C15.0119 11.373 14.9589 11.5362 14.9732 11.7007L15.4016 16.6381C15.4414 17.0959 14.9795 17.4315 14.5564 17.2522L9.99309 15.319C9.84107 15.2546 9.66943 15.2546 9.51741 15.319L4.95411 17.2522C4.53096 17.4315 4.06912 17.0959 4.10885 16.6381L4.53735 11.7007C4.55163 11.5362 4.49859 11.373 4.39036 11.2483L1.14159 7.50579C0.840329 7.15874 1.01673 6.61582 1.46445 6.51212L6.29257 5.39392C6.45342 5.35667 6.59227 5.25578 6.67741 5.11432L9.23285 0.868048Z" fill="#FF7C00"/>
<path d="M35.7592 0.868048C35.9962 0.47429 36.567 0.474289 36.804 0.868048L39.3595 5.11432C39.4446 5.25578 39.5835 5.35667 39.7443 5.39392L44.5724 6.51212C45.0201 6.61582 45.1965 7.15874 44.8953 7.50579L41.6465 11.2483C41.5383 11.373 41.4852 11.5362 41.4995 11.7007L41.928 16.6381C41.9678 17.0959 41.5059 17.4315 41.0828 17.2522L36.5195 15.319C36.3674 15.2546 36.1958 15.2546 36.0438 15.319L31.4805 17.2522C31.0573 17.4315 30.5955 17.0959 30.6352 16.6381L31.0637 11.7007C31.078 11.5362 31.025 11.373 30.9167 11.2483L27.668 7.50579C27.3667 7.15874 27.5431 6.61582 27.9908 6.51212L32.8189 5.39392C32.9798 5.35667 33.1186 5.25578 33.2038 5.11432L35.7592 0.868048Z" fill="#FF7C00"/>
<path d="M62.2856 0.868048C62.5226 0.47429 63.0934 0.474289 63.3304 0.868048L65.8858 5.11432C65.971 5.25578 66.1098 5.35667 66.2707 5.39392L71.0988 6.51212C71.5465 6.61582 71.7229 7.15874 71.4216 7.50579L68.1729 11.2483C68.0646 11.373 68.0116 11.5362 68.0259 11.7007L68.4544 16.6381C68.4941 17.0959 68.0323 17.4315 67.6091 17.2522L63.0458 15.319C62.8938 15.2546 62.7222 15.2546 62.5701 15.319L58.0068 17.2522C57.5837 17.4315 57.1219 17.0959 57.1616 16.6381L57.5901 11.7007C57.6044 11.5362 57.5513 11.373 57.4431 11.2483L54.1943 7.50579C53.8931 7.15874 54.0695 6.61582 54.5172 6.51212L59.3453 5.39392C59.5061 5.35667 59.645 5.25578 59.7301 5.11432L62.2856 0.868048Z" fill="#FF7C00"/>
<path d="M88.811 0.868048C89.0479 0.47429 89.6188 0.474289 89.8558 0.868048L92.4112 5.11432C92.4964 5.25578 92.6352 5.35667 92.7961 5.39392L97.6242 6.51212C98.0719 6.61582 98.2483 7.15874 97.947 7.50579L94.6983 11.2483C94.59 11.373 94.537 11.5362 94.5513 11.7007L94.9798 16.6381C95.0195 17.0959 94.5577 17.4315 94.1345 17.2522L89.5712 15.319C89.4192 15.2546 89.2476 15.2546 89.0955 15.319L84.5322 17.2522C84.1091 17.4315 83.6472 17.0959 83.687 16.6381L84.1155 11.7007C84.1298 11.5362 84.0767 11.373 83.9685 11.2483L80.7197 7.50579C80.4185 7.15874 80.5949 6.61582 81.0426 6.51212L85.8707 5.39392C86.0315 5.35667 86.1704 5.25578 86.2555 5.11432L88.811 0.868048Z" fill="#E0E0E0"/>
<path d="M115.337 0.868048C115.574 0.47429 116.145 0.474289 116.382 0.868048L118.938 5.11432C119.023 5.25578 119.162 5.35667 119.322 5.39392L124.151 6.51212C124.598 6.61582 124.775 7.15874 124.473 7.50579L121.225 11.2483C121.116 11.373 121.063 11.5362 121.078 11.7007L121.506 16.6381C121.546 17.0959 121.084 17.4315 120.661 17.2522L116.098 15.319C115.946 15.2546 115.774 15.2546 115.622 15.319L111.059 17.2522C110.635 17.4315 110.174 17.0959 110.213 16.6381L110.642 11.7007C110.656 11.5362 110.603 11.373 110.495 11.2483L107.246 7.50579C106.945 7.15874 107.121 6.61582 107.569 6.51212L112.397 5.39392C112.558 5.35667 112.697 5.25578 112.782 5.11432L115.337 0.868048Z" fill="#E0E0E0"/>
</svg>
