<?xml version="1.0" encoding="UTF-8" standalone="no"?>
<svg
   width="89"
   height="31"
   viewBox="0 0 89 31"
   fill="none"
   version="1.1"
   id="svg430"
   xmlns="http://www.w3.org/2000/svg"
   xmlns:svg="http://www.w3.org/2000/svg">
  <defs
     id="defs434" />
  <path
     d="m 0,0 h 84 c 2.7614,0 5,2.2386 5,5 V 31 H 5 C 2.23858,31 0,28.7614 0,26 Z"
     fill="#f4f4f4"
     id="path426" />
  <path
     d="m 26.3493,20.098 c -0.9053,0 -1.7406,-0.21 -2.506,-0.63 -0.756,-0.4293 -1.358,-1.022 -1.806,-1.778 -0.4386,-0.7653 -0.658,-1.624 -0.658,-2.576 0,-0.952 0.2194,-1.806 0.658,-2.562 0.448,-0.756 1.05,-1.344 1.806,-1.764 0.7654,-0.4293 1.6007,-0.644 2.506,-0.644 0.9147,0 1.75,0.2147 2.506,0.644 0.7654,0.42 1.3674,1.008 1.806,1.764 0.4387,0.756 0.658,1.61 0.658,2.562 0,0.952 -0.2193,1.8107 -0.658,2.576 -0.4386,0.756 -1.0406,1.3487 -1.806,1.778 -0.756,0.42 -1.5913,0.63 -2.506,0.63 z m 0,-1.386 c 0.644,0 1.218,-0.1447 1.722,-0.434 0.504,-0.2987 0.896,-0.7187 1.176,-1.26 0.2894,-0.5507 0.434,-1.1853 0.434,-1.904 0,-0.7187 -0.1446,-1.3487 -0.434,-1.89 -0.28,-0.5413 -0.672,-0.9567 -1.176,-1.246 -0.504,-0.2893 -1.078,-0.434 -1.722,-0.434 -0.644,0 -1.218,0.1447 -1.722,0.434 -0.504,0.2893 -0.9006,0.7047 -1.19,1.246 -0.28,0.5413 -0.42,1.1713 -0.42,1.89 0,0.7187 0.14,1.3533 0.42,1.904 0.2894,0.5413 0.686,0.9613 1.19,1.26 0.504,0.2893 1.078,0.434 1.722,0.434 z m 9.7745,-5.124 h -1.428 V 20 h -1.61 v -6.412 h -0.91 v -1.302 h 0.91 V 11.74 c 0,-0.8867 0.2334,-1.5307 0.7,-1.932 0.476,-0.4107 1.218,-0.616 2.226,-0.616 v 1.33 c -0.4853,0 -0.826,0.0933 -1.022,0.28 -0.196,0.1773 -0.294,0.49 -0.294,0.938 v 0.546 h 1.428 z m 4.6485,0 h -1.428 V 20 h -1.61 v -6.412 h -0.91 v -1.302 h 0.91 V 11.74 c 0,-0.8867 0.2333,-1.5307 0.7,-1.932 0.476,-0.4107 1.218,-0.616 2.226,-0.616 v 1.33 c -0.4854,0 -0.826,0.0933 -1.022,0.28 -0.196,0.1773 -0.294,0.49 -0.294,0.938 v 0.546 h 1.428 z m 8.4844,2.366 c 0,0.2893 -0.0186,0.5507 -0.056,0.784 h -5.894 c 0.0467,0.616 0.2754,1.1107 0.686,1.484 0.4107,0.3733 0.9147,0.56 1.512,0.56 0.8587,0 1.4654,-0.3593 1.82,-1.078 h 1.722 c -0.2333,0.7093 -0.658,1.2927 -1.274,1.75 -0.6066,0.448 -1.3626,0.672 -2.268,0.672 -0.7373,0 -1.4,-0.1633 -1.988,-0.49 -0.5786,-0.336 -1.036,-0.8027 -1.372,-1.4 -0.3266,-0.6067 -0.49,-1.3067 -0.49,-2.1 0,-0.7933 0.1587,-1.4887 0.476,-2.086 0.3267,-0.6067 0.7794,-1.0733 1.358,-1.4 0.588,-0.3267 1.26,-0.49 2.016,-0.49 0.728,0 1.3767,0.1587 1.946,0.476 0.5694,0.3173 1.0127,0.7653 1.33,1.344 0.3174,0.5693 0.476,1.2273 0.476,1.974 z m -1.666,-0.504 c -0.0093,-0.588 -0.2193,-1.0593 -0.63,-1.414 -0.4106,-0.3547 -0.9193,-0.532 -1.526,-0.532 -0.5506,0 -1.022,0.1773 -1.414,0.532 -0.392,0.3453 -0.6253,0.8167 -0.7,1.414 z m 4.8326,-2.044 c 0.2334,-0.392 0.5414,-0.6953 0.924,-0.91 0.392,-0.224 0.854,-0.336 1.386,-0.336 v 1.652 h -0.406 c -0.6253,0 -1.1013,0.1587 -1.428,0.476 -0.3173,0.3173 -0.476,0.868 -0.476,1.652 V 20 h -1.596 v -7.714 h 1.596 z m 5.6391,0.182 v 4.27 c 0,0.2893 0.0653,0.4993 0.196,0.63 0.14,0.1213 0.3733,0.182 0.7,0.182 h 0.98 V 20 h -1.26 c -0.7187,0 -1.2693,-0.168 -1.652,-0.504 -0.3827,-0.336 -0.574,-0.882 -0.574,-1.638 v -4.27 h -0.91 v -1.302 h 0.91 v -1.918 h 1.61 v 1.918 h 1.876 v 1.302 z m 10.417,2.366 c 0,0.2893 -0.0187,0.5507 -0.056,0.784 h -5.894 c 0.0466,0.616 0.2753,1.1107 0.686,1.484 0.4106,0.3733 0.9146,0.56 1.512,0.56 0.8586,0 1.4653,-0.3593 1.82,-1.078 h 1.722 c -0.2334,0.7093 -0.658,1.2927 -1.274,1.75 -0.6067,0.448 -1.3627,0.672 -2.268,0.672 -0.7374,0 -1.4,-0.1633 -1.988,-0.49 -0.5787,-0.336 -1.036,-0.8027 -1.372,-1.4 -0.3267,-0.6067 -0.49,-1.3067 -0.49,-2.1 0,-0.7933 0.1586,-1.4887 0.476,-2.086 0.3266,-0.6067 0.7793,-1.0733 1.358,-1.4 0.588,-0.3267 1.26,-0.49 2.016,-0.49 0.728,0 1.3766,0.1587 1.946,0.476 0.5693,0.3173 1.0126,0.7653 1.33,1.344 0.3173,0.5693 0.476,1.2273 0.476,1.974 z m -1.666,-0.504 c -0.0094,-0.588 -0.2194,-1.0593 -0.63,-1.414 -0.4107,-0.3547 -0.9194,-0.532 -1.526,-0.532 -0.5507,0 -1.022,0.1773 -1.414,0.532 -0.392,0.3453 -0.6254,0.8167 -0.7,1.414 z"
     fill="#908b8b"
     id="path428" />
</svg>
