<svg width="95" height="31" viewBox="0 0 95 31" fill="none" xmlns="http://www.w3.org/2000/svg">
<path d="M0 0H90C92.7614 0 95 2.23858 95 5V31H5C2.23857 31 0 28.7614 0 26V0Z" fill="#F4F4F4"/>
<path d="M28.4673 13.168C28.4673 13.6627 28.3506 14.1293 28.1173 14.568C27.8839 15.0067 27.5106 15.366 26.9973 15.646C26.4839 15.9167 25.8259 16.052 25.0233 16.052H23.2593V20H21.6633V10.27H25.0233C25.7699 10.27 26.3999 10.4007 26.9133 10.662C27.4359 10.914 27.8233 11.2593 28.0753 11.698C28.3366 12.1367 28.4673 12.6267 28.4673 13.168ZM25.0233 14.75C25.6299 14.75 26.0826 14.6147 26.3813 14.344C26.6799 14.064 26.8293 13.672 26.8293 13.168C26.8293 12.104 26.2273 11.572 25.0233 11.572H23.2593V14.75H25.0233ZM37.0595 15.954C37.0595 16.2433 37.0408 16.5047 37.0035 16.738H31.1095C31.1561 17.354 31.3848 17.8487 31.7955 18.222C32.2061 18.5953 32.7101 18.782 33.3075 18.782C34.1661 18.782 34.7728 18.4227 35.1275 17.704H36.8495C36.6161 18.4133 36.1915 18.9967 35.5755 19.454C34.9688 19.902 34.2128 20.126 33.3075 20.126C32.5701 20.126 31.9075 19.9627 31.3195 19.636C30.7408 19.3 30.2835 18.8333 29.9475 18.236C29.6208 17.6293 29.4575 16.9293 29.4575 16.136C29.4575 15.3427 29.6161 14.6473 29.9335 14.05C30.2601 13.4433 30.7128 12.9767 31.2915 12.65C31.8795 12.3233 32.5515 12.16 33.3075 12.16C34.0355 12.16 34.6841 12.3187 35.2535 12.636C35.8228 12.9533 36.2661 13.4013 36.5835 13.98C36.9008 14.5493 37.0595 15.2073 37.0595 15.954ZM35.3935 15.45C35.3841 14.862 35.1741 14.3907 34.7635 14.036C34.3528 13.6813 33.8441 13.504 33.2375 13.504C32.6868 13.504 32.2155 13.6813 31.8235 14.036C31.4315 14.3813 31.1981 14.8527 31.1235 15.45H35.3935ZM40.2261 13.406C40.4594 13.014 40.7674 12.7107 41.1501 12.496C41.5421 12.272 42.0041 12.16 42.5361 12.16V13.812H42.1301C41.5047 13.812 41.0287 13.9707 40.7021 14.288C40.3847 14.6053 40.2261 15.156 40.2261 15.94V20H38.6301V12.286H40.2261V13.406ZM49.5018 13.588V17.858C49.5018 18.1473 49.5672 18.3573 49.6978 18.488C49.8378 18.6093 50.0712 18.67 50.3978 18.67H51.3778V20H50.1178C49.3992 20 48.8485 19.832 48.4658 19.496C48.0832 19.16 47.8918 18.614 47.8918 17.858V13.588H46.9818V12.286H47.8918V10.368H49.5018V12.286H51.3778V13.588H49.5018ZM59.8348 12.286V20H58.2388V19.09C57.9868 19.4073 57.6555 19.6593 57.2448 19.846C56.8435 20.0233 56.4142 20.112 55.9568 20.112C55.3502 20.112 54.8042 19.986 54.3188 19.734C53.8428 19.482 53.4648 19.1087 53.1848 18.614C52.9142 18.1193 52.7788 17.522 52.7788 16.822V12.286H54.3608V16.584C54.3608 17.2747 54.5335 17.8067 54.8788 18.18C55.2242 18.544 55.6955 18.726 56.2928 18.726C56.8902 18.726 57.3615 18.544 57.7068 18.18C58.0615 17.8067 58.2388 17.2747 58.2388 16.584V12.286H59.8348ZM63.8026 13.588V17.858C63.8026 18.1473 63.868 18.3573 63.9986 18.488C64.1386 18.6093 64.372 18.67 64.6986 18.67H65.6786V20H64.4186C63.7 20 63.1493 19.832 62.7666 19.496C62.384 19.16 62.1926 18.614 62.1926 17.858V13.588H61.2826V12.286H62.1926V10.368H63.8026V12.286H65.6786V13.588H63.8026ZM69.0116 13.588V17.858C69.0116 18.1473 69.0769 18.3573 69.2076 18.488C69.3476 18.6093 69.5809 18.67 69.9076 18.67H70.8876V20H69.6276C68.9089 20 68.3583 19.832 67.9756 19.496C67.5929 19.16 67.4016 18.614 67.4016 17.858V13.588H66.4916V12.286H67.4016V10.368H69.0116V12.286H70.8876V13.588H69.0116ZM73.1706 11.264C72.8813 11.264 72.6386 11.166 72.4426 10.97C72.2466 10.774 72.1486 10.5313 72.1486 10.242C72.1486 9.95267 72.2466 9.71 72.4426 9.514C72.6386 9.318 72.8813 9.22 73.1706 9.22C73.4506 9.22 73.6886 9.318 73.8846 9.514C74.0806 9.71 74.1786 9.95267 74.1786 10.242C74.1786 10.5313 74.0806 10.774 73.8846 10.97C73.6886 11.166 73.4506 11.264 73.1706 11.264ZM73.9546 12.286V20H72.3586V12.286H73.9546Z" fill="#908B8B"/>
</svg>
