<svg width="89" height="53" viewBox="0 0 89 53" fill="none" xmlns="http://www.w3.org/2000/svg">
<path d="M0 11H84C86.7614 11 89 13.2386 89 16V42H5C2.23858 42 0 39.7614 0 37V11Z" fill="#F87537"/>
<g clip-path="url(#clip0_403_495)">
<path d="M22.3333 29.4997C22.6428 29.4997 22.9395 29.6226 23.1583 29.8414C23.3771 30.0602 23.5 30.3569 23.5 30.6663C23.5 30.3569 23.6229 30.0602 23.8417 29.8414C24.0605 29.6226 24.3572 29.4997 24.6667 29.4997C24.3572 29.4997 24.0605 29.3768 23.8417 29.158C23.6229 28.9392 23.5 28.6424 23.5 28.333C23.5 28.6424 23.3771 28.9392 23.1583 29.158C22.9395 29.3768 22.6428 29.4997 22.3333 29.4997ZM22.3333 22.4997C22.6428 22.4997 22.9395 22.6226 23.1583 22.8414C23.3771 23.0602 23.5 23.3569 23.5 23.6663C23.5 23.3569 23.6229 23.0602 23.8417 22.8414C24.0605 22.6226 24.3572 22.4997 24.6667 22.4997C24.3572 22.4997 24.0605 22.3768 23.8417 22.158C23.6229 21.9392 23.5 21.6424 23.5 21.333C23.5 21.6424 23.3771 21.9392 23.1583 22.158C22.9395 22.3768 22.6428 22.4997 22.3333 22.4997ZM18.25 29.4997C18.25 28.5714 18.6187 27.6812 19.2751 27.0248C19.9315 26.3684 20.8217 25.9997 21.75 25.9997C20.8217 25.9997 19.9315 25.6309 19.2751 24.9745C18.6187 24.3182 18.25 23.4279 18.25 22.4997C18.25 23.4279 17.8813 24.3182 17.2249 24.9745C16.5685 25.6309 15.6783 25.9997 14.75 25.9997C15.6783 25.9997 16.5685 26.3684 17.2249 27.0248C17.8813 27.6812 18.25 28.5714 18.25 29.4997Z" stroke="#FAF9F8" stroke-width="1.16667" stroke-linecap="round" stroke-linejoin="round"/>
</g>
<path d="M37.9405 31H36.3445L31.5425 23.734V31H29.9465V21.256H31.5425L36.3445 28.508V21.256H37.9405V31ZM47.0223 23.286V31H45.4263V30.09C45.1743 30.4073 44.843 30.6593 44.4323 30.846C44.031 31.0233 43.6017 31.112 43.1443 31.112C42.5377 31.112 41.9917 30.986 41.5063 30.734C41.0303 30.482 40.6523 30.1087 40.3723 29.614C40.1017 29.1193 39.9663 28.522 39.9663 27.822V23.286H41.5483V27.584C41.5483 28.2747 41.721 28.8067 42.0663 29.18C42.4117 29.544 42.883 29.726 43.4803 29.726C44.0777 29.726 44.549 29.544 44.8943 29.18C45.249 28.8067 45.4263 28.2747 45.4263 27.584V23.286H47.0223ZM52.4741 31.126C51.7461 31.126 51.0881 30.9627 50.5001 30.636C49.9121 30.3 49.4501 29.8333 49.1141 29.236C48.7781 28.6293 48.6101 27.9293 48.6101 27.136C48.6101 26.352 48.7828 25.6567 49.1281 25.05C49.4735 24.4433 49.9448 23.9767 50.5421 23.65C51.1395 23.3233 51.8068 23.16 52.5441 23.16C53.2815 23.16 53.9488 23.3233 54.5461 23.65C55.1435 23.9767 55.6148 24.4433 55.9601 25.05C56.3055 25.6567 56.4781 26.352 56.4781 27.136C56.4781 27.92 56.3008 28.6153 55.9461 29.222C55.5915 29.8287 55.1061 30.3 54.4901 30.636C53.8835 30.9627 53.2115 31.126 52.4741 31.126ZM52.4741 29.74C52.8848 29.74 53.2675 29.642 53.6221 29.446C53.9861 29.25 54.2801 28.956 54.5041 28.564C54.7281 28.172 54.8401 27.696 54.8401 27.136C54.8401 26.576 54.7328 26.1047 54.5181 25.722C54.3035 25.33 54.0188 25.036 53.6641 24.84C53.3095 24.644 52.9268 24.546 52.5161 24.546C52.1055 24.546 51.7228 24.644 51.3681 24.84C51.0228 25.036 50.7475 25.33 50.5421 25.722C50.3368 26.1047 50.2341 26.576 50.2341 27.136C50.2341 27.9667 50.4441 28.6107 50.8641 29.068C51.2935 29.516 51.8301 29.74 52.4741 29.74ZM61.0379 29.572L63.2219 23.286H64.9159L61.9759 31H60.0719L57.1459 23.286H58.8539L61.0379 29.572ZM69.4683 31.126C68.7403 31.126 68.0823 30.9627 67.4943 30.636C66.9063 30.3 66.4443 29.8333 66.1083 29.236C65.7723 28.6293 65.6043 27.9293 65.6043 27.136C65.6043 26.352 65.7769 25.6567 66.1223 25.05C66.4676 24.4433 66.9389 23.9767 67.5363 23.65C68.1336 23.3233 68.8009 23.16 69.5383 23.16C70.2756 23.16 70.9429 23.3233 71.5403 23.65C72.1376 23.9767 72.6089 24.4433 72.9543 25.05C73.2996 25.6567 73.4723 26.352 73.4723 27.136C73.4723 27.92 73.2949 28.6153 72.9403 29.222C72.5856 29.8287 72.1003 30.3 71.4843 30.636C70.8776 30.9627 70.2056 31.126 69.4683 31.126ZM69.4683 29.74C69.8789 29.74 70.2616 29.642 70.6163 29.446C70.9803 29.25 71.2743 28.956 71.4983 28.564C71.7223 28.172 71.8343 27.696 71.8343 27.136C71.8343 26.576 71.7269 26.1047 71.5123 25.722C71.2976 25.33 71.0129 25.036 70.6583 24.84C70.3036 24.644 69.9209 24.546 69.5103 24.546C69.0996 24.546 68.7169 24.644 68.3623 24.84C68.0169 25.036 67.7416 25.33 67.5363 25.722C67.3309 26.1047 67.2283 26.576 67.2283 27.136C67.2283 27.9667 67.4383 28.6107 67.8583 29.068C68.2876 29.516 68.8243 29.74 69.4683 29.74Z" fill="#FAF9F8"/>
<defs>
<clipPath id="clip0_403_495">
<rect width="14" height="14" fill="white" transform="translate(13 19)"/>
</clipPath>
</defs>
</svg>
