<svg width="105" height="31" viewBox="0 0 105 31" fill="none" xmlns="http://www.w3.org/2000/svg">
<path d="M0 0H100C102.761 0 105 2.23858 105 5V31H5C2.23858 31 0 28.7614 0 26V0Z" fill="#F4F4F4"/>
<path d="M12.0024 15.114C12.0024 14.162 12.2217 13.308 12.6604 12.552C13.1084 11.796 13.7104 11.208 14.4664 10.788C15.2317 10.3587 16.067 10.144 16.9724 10.144C18.0084 10.144 18.9277 10.4007 19.7304 10.914C20.5424 11.418 21.1304 12.1367 21.4944 13.07H19.5764C19.3244 12.5567 18.9744 12.174 18.5264 11.922C18.0784 11.67 17.5604 11.544 16.9724 11.544C16.3284 11.544 15.7544 11.6887 15.2504 11.978C14.7464 12.2673 14.3497 12.6827 14.0604 13.224C13.7804 13.7653 13.6404 14.3953 13.6404 15.114C13.6404 15.8327 13.7804 16.4627 14.0604 17.004C14.3497 17.5453 14.7464 17.9653 15.2504 18.264C15.7544 18.5533 16.3284 18.698 16.9724 18.698C17.5604 18.698 18.0784 18.572 18.5264 18.32C18.9744 18.068 19.3244 17.6853 19.5764 17.172H21.4944C21.1304 18.1053 20.5424 18.824 19.7304 19.328C18.9277 19.832 18.0084 20.084 16.9724 20.084C16.0577 20.084 15.2224 19.874 14.4664 19.454C13.7104 19.0247 13.1084 18.432 12.6604 17.676C12.2217 16.92 12.0024 16.066 12.0024 15.114ZM22.8305 16.108C22.8305 15.3333 22.9892 14.6473 23.3065 14.05C23.6332 13.4527 24.0718 12.9907 24.6225 12.664C25.1825 12.328 25.7985 12.16 26.4705 12.16C27.0772 12.16 27.6045 12.2813 28.0525 12.524C28.5098 12.7573 28.8738 13.0513 29.1445 13.406V12.286H30.7545V20H29.1445V18.852C28.8738 19.216 28.5052 19.5193 28.0385 19.762C27.5718 20.0047 27.0398 20.126 26.4425 20.126C25.7798 20.126 25.1732 19.958 24.6225 19.622C24.0718 19.2767 23.6332 18.8007 23.3065 18.194C22.9892 17.578 22.8305 16.8827 22.8305 16.108ZM29.1445 16.136C29.1445 15.604 29.0325 15.142 28.8085 14.75C28.5938 14.358 28.3092 14.0593 27.9545 13.854C27.5998 13.6487 27.2172 13.546 26.8065 13.546C26.3958 13.546 26.0132 13.6487 25.6585 13.854C25.3038 14.05 25.0145 14.344 24.7905 14.736C24.5758 15.1187 24.4685 15.576 24.4685 16.108C24.4685 16.64 24.5758 17.1067 24.7905 17.508C25.0145 17.9093 25.3038 18.2173 25.6585 18.432C26.0225 18.6373 26.4052 18.74 26.8065 18.74C27.2172 18.74 27.5998 18.6373 27.9545 18.432C28.3092 18.2267 28.5938 17.928 28.8085 17.536C29.0325 17.1347 29.1445 16.668 29.1445 16.136ZM36.7428 12.16C37.3494 12.16 37.8908 12.286 38.3668 12.538C38.8521 12.79 39.2301 13.1633 39.5008 13.658C39.7714 14.1527 39.9068 14.75 39.9068 15.45V20H38.3248V15.688C38.3248 14.9973 38.1521 14.47 37.8068 14.106C37.4614 13.7327 36.9901 13.546 36.3928 13.546C35.7954 13.546 35.3194 13.7327 34.9648 14.106C34.6194 14.47 34.4468 14.9973 34.4468 15.688V20H32.8508V12.286H34.4468V13.168C34.7081 12.8507 35.0394 12.6033 35.4408 12.426C35.8514 12.2487 36.2854 12.16 36.7428 12.16ZM42.7546 11.264C42.4652 11.264 42.2226 11.166 42.0266 10.97C41.8306 10.774 41.7326 10.5313 41.7326 10.242C41.7326 9.95267 41.8306 9.71 42.0266 9.514C42.2226 9.318 42.4652 9.22 42.7546 9.22C43.0346 9.22 43.2726 9.318 43.4686 9.514C43.6646 9.71 43.7626 9.95267 43.7626 10.242C43.7626 10.5313 43.6646 10.774 43.4686 10.97C43.2726 11.166 43.0346 11.264 42.7546 11.264ZM43.5386 12.286V20H41.9426V12.286H43.5386ZM50.8667 13.42C51.1374 13.0653 51.506 12.7667 51.9727 12.524C52.4394 12.2813 52.9667 12.16 53.5547 12.16C54.2267 12.16 54.838 12.328 55.3887 12.664C55.9487 12.9907 56.3874 13.4527 56.7047 14.05C57.022 14.6473 57.1807 15.3333 57.1807 16.108C57.1807 16.8827 57.022 17.578 56.7047 18.194C56.3874 18.8007 55.9487 19.2767 55.3887 19.622C54.838 19.958 54.2267 20.126 53.5547 20.126C52.9667 20.126 52.444 20.0093 51.9867 19.776C51.5294 19.5333 51.156 19.2347 50.8667 18.88V23.668H49.2707V12.286H50.8667V13.42ZM55.5567 16.108C55.5567 15.576 55.4447 15.1187 55.2207 14.736C55.006 14.344 54.7167 14.05 54.3527 13.854C53.998 13.6487 53.6154 13.546 53.2047 13.546C52.8034 13.546 52.4207 13.6487 52.0567 13.854C51.702 14.0593 51.4127 14.358 51.1887 14.75C50.974 15.142 50.8667 15.604 50.8667 16.136C50.8667 16.668 50.974 17.1347 51.1887 17.536C51.4127 17.928 51.702 18.2267 52.0567 18.432C52.4207 18.6373 52.8034 18.74 53.2047 18.74C53.6154 18.74 53.998 18.6373 54.3527 18.432C54.7167 18.2173 55.006 17.9093 55.2207 17.508C55.4447 17.1067 55.5567 16.64 55.5567 16.108ZM59.571 11.264C59.2817 11.264 59.039 11.166 58.843 10.97C58.647 10.774 58.549 10.5313 58.549 10.242C58.549 9.95267 58.647 9.71 58.843 9.514C59.039 9.318 59.2817 9.22 59.571 9.22C59.851 9.22 60.089 9.318 60.285 9.514C60.481 9.71 60.579 9.95267 60.579 10.242C60.579 10.5313 60.481 10.774 60.285 10.97C60.089 11.166 59.851 11.264 59.571 11.264ZM60.355 12.286V20H58.759V12.286H60.355ZM61.9184 16.136C61.9184 15.3427 62.0771 14.6473 62.3944 14.05C62.7211 13.4433 63.1691 12.9767 63.7384 12.65C64.3077 12.3233 64.9611 12.16 65.6984 12.16C66.6317 12.16 67.4017 12.384 68.0084 12.832C68.6244 13.2707 69.0397 13.9007 69.2544 14.722H67.5324C67.3924 14.3393 67.1684 14.0407 66.8604 13.826C66.5524 13.6113 66.1651 13.504 65.6984 13.504C65.0451 13.504 64.5224 13.7373 64.1304 14.204C63.7477 14.6613 63.5564 15.3053 63.5564 16.136C63.5564 16.9667 63.7477 17.6153 64.1304 18.082C64.5224 18.5487 65.0451 18.782 65.6984 18.782C66.6224 18.782 67.2337 18.376 67.5324 17.564H69.2544C69.0304 18.348 68.6104 18.9733 67.9944 19.44C67.3784 19.8973 66.6131 20.126 65.6984 20.126C64.9611 20.126 64.3077 19.9627 63.7384 19.636C63.1691 19.3 62.7211 18.8333 62.3944 18.236C62.0771 17.6293 61.9184 16.9293 61.9184 16.136ZM70.3129 16.136C70.3129 15.3427 70.4716 14.6473 70.7889 14.05C71.1156 13.4433 71.5636 12.9767 72.1329 12.65C72.7023 12.3233 73.3556 12.16 74.0929 12.16C75.0263 12.16 75.7963 12.384 76.4029 12.832C77.0189 13.2707 77.4343 13.9007 77.6489 14.722H75.9269C75.7869 14.3393 75.5629 14.0407 75.2549 13.826C74.9469 13.6113 74.5596 13.504 74.0929 13.504C73.4396 13.504 72.9169 13.7373 72.5249 14.204C72.1423 14.6613 71.9509 15.3053 71.9509 16.136C71.9509 16.9667 72.1423 17.6153 72.5249 18.082C72.9169 18.5487 73.4396 18.782 74.0929 18.782C75.0169 18.782 75.6283 18.376 75.9269 17.564H77.6489C77.4249 18.348 77.0049 18.9733 76.3889 19.44C75.7729 19.8973 75.0076 20.126 74.0929 20.126C73.3556 20.126 72.7023 19.9627 72.1329 19.636C71.5636 19.3 71.1156 18.8333 70.7889 18.236C70.4716 17.6293 70.3129 16.9293 70.3129 16.136ZM82.5855 20.126C81.8575 20.126 81.1995 19.9627 80.6115 19.636C80.0235 19.3 79.5615 18.8333 79.2255 18.236C78.8895 17.6293 78.7215 16.9293 78.7215 16.136C78.7215 15.352 78.8941 14.6567 79.2395 14.05C79.5848 13.4433 80.0561 12.9767 80.6535 12.65C81.2508 12.3233 81.9181 12.16 82.6555 12.16C83.3928 12.16 84.0601 12.3233 84.6575 12.65C85.2548 12.9767 85.7261 13.4433 86.0715 14.05C86.4168 14.6567 86.5895 15.352 86.5895 16.136C86.5895 16.92 86.4121 17.6153 86.0575 18.222C85.7028 18.8287 85.2175 19.3 84.6015 19.636C83.9948 19.9627 83.3228 20.126 82.5855 20.126ZM82.5855 18.74C82.9961 18.74 83.3788 18.642 83.7335 18.446C84.0975 18.25 84.3915 17.956 84.6155 17.564C84.8395 17.172 84.9515 16.696 84.9515 16.136C84.9515 15.576 84.8441 15.1047 84.6295 14.722C84.4148 14.33 84.1301 14.036 83.7755 13.84C83.4208 13.644 83.0381 13.546 82.6275 13.546C82.2168 13.546 81.8341 13.644 81.4795 13.84C81.1341 14.036 80.8588 14.33 80.6535 14.722C80.4481 15.1047 80.3455 15.576 80.3455 16.136C80.3455 16.9667 80.5555 17.6107 80.9755 18.068C81.4048 18.516 81.9415 18.74 82.5855 18.74ZM89.7632 9.64V20H88.1672V9.64H89.7632ZM92.6706 11.264C92.3813 11.264 92.1386 11.166 91.9426 10.97C91.7466 10.774 91.6486 10.5313 91.6486 10.242C91.6486 9.95267 91.7466 9.71 91.9426 9.514C92.1386 9.318 92.3813 9.22 92.6706 9.22C92.9506 9.22 93.1886 9.318 93.3846 9.514C93.5806 9.71 93.6786 9.95267 93.6786 10.242C93.6786 10.5313 93.5806 10.774 93.3846 10.97C93.1886 11.166 92.9506 11.264 92.6706 11.264ZM93.4546 12.286V20H91.8586V12.286H93.4546Z" fill="#908B8B"/>
</svg>
