<?xml version="1.0" encoding="UTF-8" standalone="no"?>
<svg
   width="89"
   height="31"
   viewBox="0 0 89 31"
   fill="none"
   version="1.1"
   id="svg15"
   sodipodi:docname="tag-nuovo.svg"
   inkscape:version="1.4.2 (f4327f4, 2025-05-13)"
   xmlns:inkscape="http://www.inkscape.org/namespaces/inkscape"
   xmlns:sodipodi="http://sodipodi.sourceforge.net/DTD/sodipodi-0.dtd"
   xmlns="http://www.w3.org/2000/svg"
   xmlns:svg="http://www.w3.org/2000/svg">
  <sodipodi:namedview
     id="namedview1"
     pagecolor="#ffffff"
     bordercolor="#000000"
     borderopacity="0.25"
     inkscape:showpageshadow="2"
     inkscape:pageopacity="0.0"
     inkscape:pagecheckerboard="0"
     inkscape:deskcolor="#d1d1d1"
     inkscape:zoom="10.68"
     inkscape:cx="44.475655"
     inkscape:cy="15.496255"
     inkscape:window-width="1920"
     inkscape:window-height="1001"
     inkscape:window-x="-9"
     inkscape:window-y="-9"
     inkscape:window-maximized="1"
     inkscape:current-layer="svg15" />
  <path
     d="m 0,0 h 84 c 2.7614,0 5,2.2386 5,5 V 31 H 5 C 2.23858,31 0,28.7614 0,26 Z"
     fill="#f87537"
     id="path2"
     style="fill:#f4f4f4;fill-opacity:1" />
  <path
     d="m 30.7311,20 h -1.596 l -4.802,-7.266 V 20 h -1.596 v -9.744 h 1.596 l 4.802,7.252 v -7.252 h 1.596 z m 9.0818,-7.714 V 20 h -1.596 v -0.91 c -0.252,0.3173 -0.5833,0.5693 -0.994,0.756 -0.4013,0.1773 -0.8306,0.266 -1.288,0.266 -0.6066,0 -1.1526,-0.126 -1.638,-0.378 -0.476,-0.252 -0.854,-0.6253 -1.134,-1.12 -0.2706,-0.4947 -0.406,-1.092 -0.406,-1.792 v -4.536 h 1.582 v 4.298 c 0,0.6907 0.1727,1.2227 0.518,1.596 0.3454,0.364 0.8167,0.546 1.414,0.546 0.5974,0 1.0687,-0.182 1.414,-0.546 0.3547,-0.3733 0.532,-0.9053 0.532,-1.596 v -4.298 z m 5.4518,7.84 c -0.728,0 -1.386,-0.1633 -1.974,-0.49 -0.588,-0.336 -1.05,-0.8027 -1.386,-1.4 -0.336,-0.6067 -0.504,-1.3067 -0.504,-2.1 0,-0.784 0.1727,-1.4793 0.518,-2.086 0.3454,-0.6067 0.8167,-1.0733 1.414,-1.4 0.5974,-0.3267 1.2647,-0.49 2.002,-0.49 0.7374,0 1.4047,0.1633 2.002,0.49 0.5974,0.3267 1.0687,0.7933 1.414,1.4 0.3454,0.6067 0.518,1.302 0.518,2.086 0,0.784 -0.1773,1.4793 -0.532,2.086 -0.3546,0.6067 -0.84,1.078 -1.456,1.414 -0.6066,0.3267 -1.2786,0.49 -2.016,0.49 z m 0,-1.386 c 0.4107,0 0.7934,-0.098 1.148,-0.294 0.364,-0.196 0.658,-0.49 0.882,-0.882 0.224,-0.392 0.336,-0.868 0.336,-1.428 0,-0.56 -0.1073,-1.0313 -0.322,-1.414 -0.2146,-0.392 -0.4993,-0.686 -0.854,-0.882 -0.3546,-0.196 -0.7373,-0.294 -1.148,-0.294 -0.4106,0 -0.7933,0.098 -1.148,0.294 -0.3453,0.196 -0.6206,0.49 -0.826,0.882 -0.2053,0.3827 -0.308,0.854 -0.308,1.414 0,0.8307 0.21,1.4747 0.63,1.932 0.4294,0.448 0.966,0.672 1.61,0.672 z m 8.5638,-0.168 2.184,-6.286 h 1.694 L 54.7665,20 h -1.904 l -2.926,-7.714 h 1.708 z m 8.4304,1.554 c -0.728,0 -1.386,-0.1633 -1.974,-0.49 -0.588,-0.336 -1.05,-0.8027 -1.386,-1.4 -0.336,-0.6067 -0.504,-1.3067 -0.504,-2.1 0,-0.784 0.1726,-1.4793 0.518,-2.086 0.3453,-0.6067 0.8166,-1.0733 1.414,-1.4 0.5973,-0.3267 1.2646,-0.49 2.002,-0.49 0.7373,0 1.4046,0.1633 2.002,0.49 0.5973,0.3267 1.0686,0.7933 1.414,1.4 0.3453,0.6067 0.518,1.302 0.518,2.086 0,0.784 -0.1774,1.4793 -0.532,2.086 -0.3547,0.6067 -0.84,1.078 -1.456,1.414 -0.6067,0.3267 -1.2787,0.49 -2.016,0.49 z m 0,-1.386 c 0.4106,0 0.7933,-0.098 1.148,-0.294 0.364,-0.196 0.658,-0.49 0.882,-0.882 0.224,-0.392 0.336,-0.868 0.336,-1.428 0,-0.56 -0.1074,-1.0313 -0.322,-1.414 -0.2147,-0.392 -0.4994,-0.686 -0.854,-0.882 -0.3547,-0.196 -0.7374,-0.294 -1.148,-0.294 -0.4107,0 -0.7934,0.098 -1.148,0.294 -0.3454,0.196 -0.6207,0.49 -0.826,0.882 -0.2054,0.3827 -0.308,0.854 -0.308,1.414 0,0.8307 0.21,1.4747 0.63,1.932 0.4293,0.448 0.966,0.672 1.61,0.672 z"
     fill="#faf9f8"
     id="path8"
     style="fill:#908b8b;fill-opacity:1" />
  <defs
     id="defs13">
    <clipPath
       id="clip0_403_495">
      <rect
         width="14"
         height="14"
         fill="#ffffff"
         transform="translate(13,19)"
         id="rect10"
         x="0"
         y="0" />
    </clipPath>
  </defs>
</svg>
