<svg width="159" height="211" viewBox="0 0 159 211" fill="none" xmlns="http://www.w3.org/2000/svg">
<path fill-rule="evenodd" clip-rule="evenodd" d="M146.11 178.017C145.853 180.796 126.835 207.744 125.283 208.325C119.617 210.462 16.8112 211.804 5.95444 206.965C3.1268 205.703 -1.62084 192.577 0.553996 189.934C2.72011 187.289 60.5933 168.333 64.0598 168.017C67.5254 167.71 138.747 167.5 144.179 169.128C145.897 169.649 146.383 174.926 146.11 178.017Z" fill="url(#paint0_linear_126_119)"/>
<path opacity="0.5" fill-rule="evenodd" clip-rule="evenodd" d="M97.9609 182.572C97.1493 184.621 84.9311 189.792 63.1583 190.053C44.2079 190.281 22.84 185.695 37.7113 177.744C52.5826 169.794 101.232 174.317 97.9609 182.572Z" fill="#A41DCE"/>
<path opacity="0.81" fill-rule="evenodd" clip-rule="evenodd" d="M146.109 178.018C145.951 179.745 138.566 190.764 132.622 199.028C129.432 203.449 126.657 207.084 125.616 208.065C125.466 208.209 125.36 208.293 125.282 208.326C119.615 210.463 16.8094 211.805 5.9527 206.966C5.90993 206.948 5.86717 206.929 5.8244 206.894C2.98629 205.312 -1.58768 192.536 0.552252 189.935C0.552252 189.935 40.5232 194.67 70.5058 194.871C100.48 195.071 120.706 193.188 121.865 192.781C123.024 192.373 141.604 177.101 144.177 169.129C145.896 169.651 146.381 174.928 146.109 178.018Z" fill="url(#paint1_linear_126_119)"/>
<path fill-rule="evenodd" clip-rule="evenodd" d="M97.309 52.9888C97.309 53.0874 97.309 53.186 97.2994 53.2846C97.2994 53.6791 97.2898 54.064 97.2698 54.4584C97.2698 54.5963 97.2602 54.7447 97.2602 54.8826C97.1711 57.8507 97.0821 60.9079 96.9643 64.0445C96.836 67.8417 96.6885 71.7463 96.5105 75.7111C96.5105 75.8193 96.5009 75.918 96.5009 76.027C96.4808 76.4215 96.4616 76.8256 96.4511 77.2305C96.4415 77.3588 96.4311 77.4871 96.4311 77.6154C96.1649 83.6704 95.8594 89.8738 95.5339 96.0771C95.5339 96.0867 95.5339 96.0867 95.5243 96.0867C95.5243 96.1757 95.5147 96.2639 95.5147 96.3433C95.4946 96.6688 95.485 96.9943 95.465 97.3094C95.4554 97.4176 95.4554 97.5267 95.4449 97.6349C95.1394 103.256 94.8235 108.868 94.498 114.39C94.4884 114.459 94.4884 114.519 94.4884 114.588C94.4683 114.795 94.4587 115.002 94.4491 115.209C94.4395 115.308 94.4395 115.397 94.4299 115.495C94.1044 120.742 93.7789 125.889 93.4437 130.86C93.4341 130.919 93.4341 130.968 93.4341 131.027C93.4245 131.106 93.4245 131.195 93.4141 131.274C93.4141 131.353 93.4141 131.432 93.4044 131.511C93.0693 136.471 92.7342 141.264 92.4087 145.781V145.81C92.3991 145.84 92.3991 145.859 92.3991 145.889C92.3895 145.928 92.3895 145.978 92.3895 146.017C92.0543 150.662 91.7192 155.021 91.4033 159.015C91.4033 159.074 91.3937 159.133 91.3937 159.192C91.3841 159.231 91.3841 159.281 91.3841 159.32C91.3841 159.35 91.3841 159.37 91.3745 159.399C91.3352 159.961 91.2855 160.504 91.2462 161.046C90.9407 164.773 90.6545 168.137 90.3883 171.055C90.3883 171.105 90.3787 171.154 90.3787 171.202C90.3691 171.36 90.349 171.518 90.3394 171.675C90.3394 171.696 90.3394 171.715 90.3298 171.735C89.7975 177.593 89.3533 181.577 89.0775 183.017C89.0775 183.037 89.0679 183.056 89.0679 183.065C89.0085 183.312 88.9692 183.49 88.9396 183.559C87.3119 186.606 66.3359 187.937 65.6953 183.213C65.5574 182.197 65.4195 181.192 65.2808 180.176C65.2712 180.107 65.2616 180.028 65.2511 179.959V179.949C64.7091 175.876 64.196 171.823 63.7029 167.799C63.6933 167.691 63.6732 167.572 63.6636 167.464V167.454C63.5353 166.468 63.4166 165.482 63.3084 164.505C63.3084 164.475 63.2988 164.456 63.2988 164.427C62.8747 160.965 62.4802 157.523 62.1058 154.121C62.0857 153.953 62.0665 153.785 62.0464 153.618C61.9775 152.957 61.9086 152.287 61.8291 151.625C61.8195 151.566 61.8195 151.517 61.8091 151.458C61.3552 147.296 60.9311 143.164 60.5366 139.091C60.5166 138.844 60.4869 138.608 60.4677 138.362C60.4677 138.362 60.4677 138.352 60.4677 138.342C60.438 138.174 60.4284 138.006 60.4083 137.849C60.4083 137.849 60.4083 137.848 60.4083 137.839C60.3883 137.642 60.3691 137.454 60.349 137.257C59.876 132.464 59.4422 127.76 59.0469 123.115C59.0469 123.115 59.0469 123.115 59.0469 123.106C59.0373 122.918 59.0172 122.731 58.9971 122.543C58.9779 122.317 58.9579 122.09 58.9378 121.863C58.9282 121.755 58.9186 121.656 58.9081 121.547V121.537C58.4648 116.379 58.0598 111.331 57.695 106.389C57.6854 106.38 57.6854 106.38 57.695 106.37C57.6557 105.827 57.6165 105.295 57.5763 104.762C57.5667 104.684 57.5667 104.595 57.5667 104.516C57.5371 104.122 57.5074 103.718 57.4777 103.323V103.314C57.3294 101.44 57.1915 99.5863 57.0736 97.7519C56.8171 94.034 56.5806 90.4052 56.3632 86.8445C56.3632 86.8349 56.3632 86.8349 56.3632 86.8244C56.324 86.1839 56.2943 85.5625 56.255 84.9306V84.921C56.2254 84.4873 56.1957 84.0631 56.1765 83.6294V83.6198C55.7523 76.5882 55.4076 69.9118 55.1213 63.6299V63.5112C55.1013 63.1168 55.0821 62.7319 55.062 62.3374C55.0524 62.1105 55.0419 61.8941 55.0323 61.6672C54.6972 53.817 54.431 46.6274 54.2434 40.2277C54.2338 39.8533 54.2233 39.4781 54.2137 39.1133C54.1936 38.1367 54.1648 37.1706 54.1448 36.2333C54.1448 36.1146 54.1352 35.9967 54.1352 35.8876C53.9379 28.61 53.8393 22.5148 53.7896 17.8108C53.7302 13.0283 57.764 9.60543 63.3555 7.55452C63.4053 7.53445 63.4542 7.51526 63.503 7.49518C65.1202 6.90347 66.8761 6.42958 68.7001 6.08486C71.6194 5.50275 74.7158 5.21736 77.7337 5.23656C86.2149 5.28631 94.1044 7.66275 95.9485 12.406C95.9685 12.4558 95.9877 12.5046 96.0078 12.5535C96.7278 14.5747 97.1615 18.9244 97.3981 24.9401C97.3981 25.078 97.4077 25.2159 97.4077 25.3547C97.6538 32.5748 97.5944 42.1416 97.309 52.9888Z" fill="url(#paint2_linear_126_119)"/>
<path opacity="0.5" fill-rule="evenodd" clip-rule="evenodd" d="M97.309 52.9888C97.309 53.0874 97.309 53.186 97.2994 53.2846C97.2994 53.6791 97.2898 54.064 97.2698 54.4584C97.2698 54.5963 97.2602 54.7447 97.2602 54.8826C97.1711 57.8507 97.0821 60.9079 96.9643 64.0445C96.836 67.8417 96.6885 71.7463 96.5105 75.7111C96.5105 75.8193 96.5009 75.918 96.5009 76.027C96.4808 76.4215 96.4616 76.8256 96.4511 77.2305C96.4415 77.3588 96.4311 77.4871 96.4311 77.6154C96.1649 83.6704 95.8594 89.8738 95.5339 96.0771C95.5339 96.0867 95.5339 96.0867 95.5243 96.0867C95.5243 96.1757 95.5147 96.2639 95.5147 96.3433C95.4946 96.6688 95.485 96.9943 95.465 97.3094C95.4554 97.4176 95.4554 97.5267 95.4449 97.6349C95.1394 103.256 94.8235 108.868 94.498 114.39C94.4884 114.459 94.4884 114.519 94.4884 114.588C94.4683 114.795 94.4587 115.002 94.4491 115.209C94.4395 115.308 94.4395 115.397 94.4299 115.495C94.1044 120.742 93.7789 125.889 93.4437 130.86C93.4341 130.919 93.4341 130.968 93.4341 131.027C93.4245 131.106 93.4245 131.195 93.4141 131.274C93.4141 131.353 93.4141 131.432 93.4044 131.511C93.0693 136.471 92.7342 141.264 92.4087 145.781V145.81C92.3991 145.84 92.3991 145.859 92.3991 145.889C92.3895 145.928 92.3895 145.978 92.3895 146.017C92.0543 150.662 91.7192 155.021 91.4033 159.015C91.4033 159.074 91.3937 159.133 91.3937 159.192C91.3841 159.231 91.3841 159.281 91.3841 159.32C91.3841 159.35 91.3841 159.37 91.3745 159.399C91.3352 159.961 91.2855 160.504 91.2462 161.046C90.9407 164.773 90.6545 168.137 90.3883 171.055C90.3883 171.105 90.3787 171.154 90.3787 171.202C90.3691 171.36 90.349 171.518 90.3394 171.675C90.3394 171.696 90.3394 171.715 90.3298 171.735C89.7975 177.593 89.3533 181.577 89.0775 183.017C89.0775 183.037 89.0679 183.056 89.0679 183.065C89.0085 183.312 88.9692 183.49 88.9396 183.559C87.3119 186.606 66.3359 187.937 65.6953 183.213C65.5574 182.197 65.4195 181.192 65.2808 180.176C65.2712 180.107 65.2616 180.028 65.2511 179.959V179.949C64.7091 175.876 64.196 171.823 63.7029 167.799C63.6933 167.691 63.6732 167.572 63.6636 167.464V167.454C63.5353 166.468 63.4166 165.482 63.3084 164.505C63.3084 164.475 63.2988 164.456 63.2988 164.427C62.8747 160.965 62.4802 157.523 62.1058 154.121C62.0857 153.953 62.0665 153.785 62.0464 153.618C61.9775 152.957 61.9086 152.287 61.8291 151.625C61.8195 151.566 61.8195 151.517 61.8091 151.458C61.3552 147.296 60.9311 143.164 60.5366 139.091C60.5166 138.844 60.4869 138.608 60.4677 138.362C60.4677 138.362 60.4677 138.352 60.4677 138.342C60.438 138.174 60.4284 138.006 60.4083 137.849C60.4083 137.849 60.4083 137.848 60.4083 137.839C60.3883 137.642 60.3691 137.454 60.349 137.257C59.876 132.464 59.4422 127.76 59.0469 123.115C59.0469 123.115 59.0469 123.115 59.0469 123.106C59.0373 122.918 59.0172 122.731 58.9971 122.543C58.9779 122.317 58.9579 122.09 58.9378 121.863C58.9282 121.755 58.9186 121.656 58.9081 121.547V121.537C58.4648 116.379 58.0598 111.331 57.695 106.389C57.6854 106.38 57.6854 106.38 57.695 106.37C57.6557 105.827 57.6165 105.295 57.5763 104.762C57.5667 104.684 57.5667 104.595 57.5667 104.516C57.5371 104.122 57.5074 103.718 57.4777 103.323V103.314C57.3294 101.44 57.1915 99.5863 57.0736 97.7519C56.8171 94.034 56.5806 90.4052 56.3632 86.8445C56.3632 86.8349 56.3632 86.8349 56.3632 86.8244C56.324 86.1839 56.2943 85.5625 56.255 84.9306V84.921C56.2254 84.4873 56.1957 84.0631 56.1765 83.6294V83.6198C55.7523 76.5882 55.4076 69.9118 55.1213 63.6299V63.5112C55.1013 63.1168 55.0821 62.7319 55.062 62.3374C55.0524 62.1105 55.0419 61.8941 55.0323 61.6672C54.6972 53.817 54.431 46.6274 54.2434 40.2277C54.2338 39.8533 54.2233 39.4781 54.2137 39.1133C54.1936 38.1367 54.1648 37.1706 54.1448 36.2333C54.1448 36.1146 54.1352 35.9967 54.1352 35.8876C53.9379 28.61 53.8393 22.5148 53.7896 17.8108C53.7302 13.0283 57.764 9.60543 63.3555 7.55452C63.4053 7.53445 63.4542 7.51526 63.503 7.49518C65.1202 6.90347 66.8761 6.42958 68.7001 6.08486C71.6194 5.50275 74.7158 5.21736 77.7337 5.23656C86.2149 5.28631 94.1044 7.66275 95.9485 12.406C95.9685 12.4558 95.9877 12.5046 96.0078 12.5535C96.7278 14.5747 97.1615 18.9244 97.3981 24.9401C97.3981 25.078 97.4077 25.2159 97.4077 25.3547C97.6538 32.5748 97.5944 42.1416 97.309 52.9888Z" fill="#A41DCE"/>
<path opacity="0.5" fill-rule="evenodd" clip-rule="evenodd" d="M146.109 178.018C145.951 179.745 138.566 190.764 132.622 199.028C128.885 203.568 125.876 206.825 125.203 206.742C123.185 206.483 121.416 194.77 121.865 192.781C123.024 192.373 141.604 177.101 144.177 169.129C145.896 169.651 146.381 174.928 146.109 178.018Z" fill="#A41DCE"/>
<path opacity="0.2" fill-rule="evenodd" clip-rule="evenodd" d="M125.616 208.066C125.466 208.21 125.36 208.293 125.282 208.327C119.615 210.464 16.8095 211.806 5.95273 206.967C5.90997 206.948 5.8672 206.93 5.82444 206.895C12.1107 204.104 33.2395 197.588 65.0539 198.26C93.9813 198.87 116.065 204.075 125.616 208.066Z" fill="#A41DCE"/>
<path fill-rule="evenodd" clip-rule="evenodd" d="M8.98802 190.881C6.34103 191.788 27.9498 195.149 63.592 195.709C99.2334 196.269 117.906 193.756 115.315 193.605C114.624 193.565 88.6096 194.325 61.6196 193.578C36.1753 192.872 9.667 190.648 8.98802 190.881Z" fill="#FFA319"/>
<path opacity="0.2" fill-rule="evenodd" clip-rule="evenodd" d="M99.1723 169.576C97.8196 170.873 114.062 191.513 121.151 190.292C128.24 189.072 142.886 171.363 141.386 170.682C139.886 170.002 101.747 167.107 99.1723 169.576Z" fill="#FFB642"/>
<path fill-rule="evenodd" clip-rule="evenodd" d="M93.4228 181.114C92.9594 181.962 92.6932 182.662 89.0635 183.066C87.1505 183.284 84.2905 183.412 79.9609 183.431C72.0514 183.481 67.7227 181.873 65.2764 180.177C63.4524 178.904 62.6827 177.583 62.269 176.883C59.8035 172.732 61.2339 167.308 61.8152 165.542C61.9339 165.157 62.022 164.95 62.022 164.95C62.3475 164.714 62.7813 164.536 63.2944 164.428C68.797 163.175 84.0636 168.491 90.3848 171.055C90.7993 171.223 91.1737 171.381 91.4993 171.518C92.2681 171.844 92.811 172.101 93.0475 172.238C95.8298 173.915 93.6698 180.67 93.4228 181.114Z" fill="url(#paint3_linear_126_119)"/>
<path fill-rule="evenodd" clip-rule="evenodd" d="M93.9752 169.753C93.6008 170.473 93.3442 171.094 91.5002 171.519C91.165 171.597 90.7802 171.677 90.3263 171.736C88.354 172.022 85.1781 172.19 79.9217 172.18C70.6123 172.17 66.0462 169.892 63.6985 167.802C62.7717 166.964 62.1896 166.164 61.8152 165.543C61.6572 165.296 61.5289 165.069 61.4303 164.892C58.8366 160.335 60.3158 154.409 60.9171 152.476C61.0454 152.061 61.1344 151.825 61.1344 151.825C61.3221 151.676 61.549 151.558 61.8047 151.46C65.4929 150.001 75.4437 152.919 83.2738 155.779C86.5675 156.972 89.4868 158.165 91.3998 159.013C91.6066 159.102 91.8039 159.19 91.9819 159.27C92.7909 159.644 93.353 159.921 93.5991 160.079C94.4474 160.611 94.8514 161.607 94.9998 162.762C95.3559 165.601 94.1533 169.408 93.9752 169.753Z" fill="url(#paint4_linear_126_119)"/>
<path fill-rule="evenodd" clip-rule="evenodd" d="M94.5765 157.366C94.1724 158.146 93.9158 158.816 91.9827 159.27C91.7951 159.32 91.5979 159.359 91.371 159.398C90.7007 159.526 89.862 159.625 88.8165 159.704C86.7656 159.871 83.9056 159.94 79.8815 159.901C68.9445 159.802 64.2605 156.626 62.1005 154.122C61.5682 153.52 61.1929 152.948 60.9171 152.475C60.7495 152.199 60.6212 151.952 60.513 151.755C57.7718 146.735 59.2999 140.236 59.9213 138.106C60.0592 137.652 60.1482 137.396 60.1482 137.396C60.2076 137.347 60.2765 137.297 60.3455 137.258C62.0709 136.153 65.8192 136.528 70.2169 137.593C78.1561 139.545 88.2248 143.786 92.406 145.808C92.4357 145.828 92.475 145.838 92.5142 145.857C93.3529 146.271 93.9438 146.577 94.2003 146.754C97.2392 148.807 94.8435 156.844 94.5765 157.366Z" fill="url(#paint5_linear_126_119)"/>
<path fill-rule="evenodd" clip-rule="evenodd" d="M95.2372 143.787C94.8226 144.635 94.5373 145.374 92.5151 145.858C92.4759 145.867 92.4366 145.878 92.3965 145.887C90.3944 146.341 86.7656 146.568 79.8423 146.44C77.9589 146.41 76.2431 146.282 74.694 146.085C65.828 144.96 62.1896 141.498 60.5323 139.092C60.2853 138.737 60.0889 138.402 59.9205 138.106C59.7433 137.81 59.615 137.534 59.4963 137.317C56.6067 131.774 58.1654 124.635 58.8261 122.258V122.249C58.8654 122.1 58.9046 121.973 58.9343 121.864C59.0128 121.598 59.0626 121.449 59.0626 121.449C60.2661 120.473 62.6225 120.394 65.581 120.878C74.2393 122.278 88.0459 128.481 93.0955 131.104C93.2037 131.164 93.3128 131.212 93.4114 131.272C94.1314 131.646 94.6341 131.942 94.8706 132.11C98.0578 134.399 95.5138 143.215 95.2372 143.787Z" fill="url(#paint6_linear_126_119)"/>
<path fill-rule="evenodd" clip-rule="evenodd" d="M95.958 128.846C95.5434 129.734 95.2581 130.503 93.4332 131.026C93.325 131.055 93.2159 131.085 93.098 131.104C91.0271 131.617 87.201 131.844 79.7942 131.637C74.4295 131.488 70.4254 130.621 67.418 129.428C62.3099 127.416 60.0906 124.467 58.9962 122.544C58.9368 122.446 58.888 122.357 58.8286 122.258V122.249C58.6515 121.913 58.5031 121.607 58.3748 121.361C55.3674 115.276 56.8859 107.515 57.5763 104.763C57.5859 104.715 57.6059 104.674 57.6155 104.626C57.763 104.054 57.8616 103.738 57.8616 103.738C59.0355 102.742 61.2635 102.614 64.065 103.048C73.1475 104.458 88.3155 111.765 93.7491 114.803C94.0057 114.951 94.2422 115.079 94.449 115.207C95.0015 115.523 95.3959 115.779 95.6028 115.937C98.9453 118.501 96.253 128.215 95.958 128.846Z" fill="url(#paint7_linear_126_119)"/>
<path fill-rule="evenodd" clip-rule="evenodd" d="M96.7565 112.327C96.4013 113.126 96.1255 113.846 94.991 114.389C94.8435 114.458 94.6751 114.527 94.4883 114.586C94.271 114.665 94.0249 114.744 93.7482 114.803C91.569 115.345 87.5449 115.563 79.7348 115.257C72.6937 114.981 67.871 113.502 64.538 111.638C60.4056 109.33 58.5616 106.461 57.6147 104.626C57.5946 104.587 57.5754 104.548 57.5649 104.518C57.3877 104.173 57.249 103.877 57.1312 103.631C57.0814 103.532 57.0325 103.424 56.9933 103.325V103.316C56.5002 102.24 56.1354 101.116 55.8692 99.9722V99.9626C54.6954 95.0806 55.2775 89.9428 55.8491 86.8464C55.8491 86.8368 55.8491 86.8368 55.8491 86.8263C55.9975 86.0574 56.1354 85.4064 56.2532 84.9325V84.9229C56.4112 84.3015 56.5098 83.9568 56.5098 83.9568C57.3677 83.1975 58.7483 82.9016 60.5034 82.961C61.6571 83.0003 62.9784 83.1879 64.4088 83.5134C74.0926 85.6534 88.9648 93.3953 94.4578 96.6986C94.8426 96.9255 95.1778 97.1324 95.464 97.3104C95.6516 97.4291 95.8192 97.5373 95.9667 97.6359C96.1639 97.7738 96.3123 97.8829 96.4205 97.971C99.942 100.858 97.0716 111.627 96.7565 112.327Z" fill="url(#paint8_linear_126_119)"/>
<path fill-rule="evenodd" clip-rule="evenodd" d="M97.6441 93.9557C97.2994 94.7743 97.0227 95.5039 96.0566 96.0764C96.0566 96.086 96.0566 96.086 96.047 96.086C95.8891 96.175 95.7119 96.2632 95.5147 96.3426C95.2188 96.4709 94.8636 96.5896 94.4595 96.6978C92.152 97.2694 87.9115 97.4667 79.6764 97.053C72.4869 96.6882 67.4774 95.0806 63.9664 93.0585C62.6058 92.2792 61.4617 91.4309 60.5052 90.573C58.2169 88.5317 56.9846 86.431 56.255 84.9317V84.9221C56.0482 84.4979 55.8806 84.1235 55.7418 83.8172C55.7121 83.7579 55.6825 83.6889 55.6633 83.6296V83.62C52.4883 76.3519 53.7991 67.3279 54.5785 63.5219V63.5123C54.6273 63.2557 54.6867 63.0192 54.726 62.8124V62.8028C54.8935 62.0924 55.0017 61.6979 55.0017 61.6979C55.0113 61.6883 55.0218 61.6778 55.0314 61.6682C57.0823 59.7945 61.9251 60.5738 67.6345 62.5558C72.9991 64.4199 79.1432 67.3584 84.4493 70.1887C88.9954 72.6044 92.9305 74.932 95.2581 76.4409H95.2677C95.7311 76.7464 96.1256 77.0125 96.4511 77.2298C96.6579 77.3773 96.836 77.5056 96.9835 77.6147C97.1318 77.7334 97.2497 77.8215 97.3387 77.901C101.046 81.1746 97.9793 93.1859 97.6441 93.9557Z" fill="url(#paint9_linear_126_119)"/>
<path fill-rule="evenodd" clip-rule="evenodd" d="M98.6399 73.4134C98.2847 74.2913 98.0089 75.0899 97.062 75.7113C96.8944 75.8195 96.7068 75.9181 96.4999 76.0272C96.1648 76.1756 95.7599 76.323 95.2676 76.4417H95.258C92.8126 77.0727 88.3155 77.2403 79.6074 76.6887C74.351 76.3536 70.1898 75.3674 66.8856 74.0164C66.876 74.0164 66.876 74.0164 66.876 74.0164C66.4126 73.8288 65.9588 73.6315 65.5251 73.4247C59.381 70.5447 56.5604 66.4429 55.1213 63.6318C54.9834 63.3456 54.8455 63.0698 54.7268 62.8132V62.8036C54.6578 62.636 54.5889 62.4877 54.5199 62.3402C54.3917 62.0443 54.273 61.7782 54.1743 61.5416C50.4068 52.666 52.2413 41.4436 53.011 37.7354C53.169 36.9368 53.2868 36.483 53.2868 36.483C53.3758 36.394 53.4744 36.305 53.573 36.236C53.7406 36.0981 53.9282 35.9794 54.1351 35.8904C57.9122 33.8884 66.6989 37.1035 75.4663 41.482C83.8392 45.6536 92.1921 50.89 96.1665 53.6714C96.5811 53.9576 96.9555 54.2238 97.2714 54.4603C97.4782 54.6183 97.6755 54.7562 97.8334 54.8845C98.0604 55.0721 98.248 55.2196 98.3658 55.3383C99.6382 56.5418 100.141 58.7603 100.249 61.2458C100.474 66.4603 98.8764 72.8313 98.6399 73.4134Z" fill="url(#paint10_linear_126_119)"/>
<path fill-rule="evenodd" clip-rule="evenodd" d="M99.764 50.2869C99.3599 51.3324 99.044 52.2889 97.8806 52.9888C97.7034 53.0971 97.5158 53.1957 97.2985 53.2847C96.973 53.4331 96.5986 53.5605 96.1648 53.6696C93.5711 54.3503 88.7885 54.4978 79.528 53.7682C76.1951 53.502 73.2653 52.9792 70.7117 52.2688C61.0471 49.5861 56.5203 44.2511 54.2425 40.2278C54.0251 39.8429 53.8279 39.4685 53.6507 39.1133C53.4038 38.6202 53.1873 38.1568 53.0102 37.7327C52.7632 37.1802 52.5668 36.6871 52.4088 36.2831C47.4579 23.9558 51.324 7.67418 51.324 7.67418C51.3336 7.66458 51.3537 7.64449 51.3633 7.63489C53.0494 5.90863 56.3929 5.8397 60.5741 6.80668C61.4119 6.99432 62.2803 7.22123 63.1774 7.49701C63.2368 7.51708 63.2961 7.53628 63.3546 7.55635C72.3193 10.2583 83.8873 16.4809 91.5394 21.1456C93.9551 22.6249 95.9772 23.9366 97.3971 24.9428C97.604 25.0903 97.8012 25.2291 97.9792 25.3574C98.7088 25.9002 99.2316 26.3139 99.4978 26.5906C103.66 30.8791 100.149 49.3208 99.764 50.2869Z" fill="url(#paint11_linear_126_119)"/>
<path opacity="0.4" fill-rule="evenodd" clip-rule="evenodd" d="M91.5001 171.518C92.269 171.844 92.8119 172.101 93.0484 172.238C95.8297 173.915 93.6697 180.67 93.4228 181.114C92.9593 181.962 92.6932 182.662 89.0635 183.066C89.0041 183.313 88.9649 183.49 88.9352 183.559C87.3075 186.607 66.3315 187.938 65.6909 183.214C65.5531 182.198 65.4152 181.193 65.2764 180.177C63.4524 178.904 62.6826 177.583 62.269 176.883C59.8035 172.732 61.2339 167.307 61.8151 165.542C61.6572 165.295 61.5289 165.068 61.4303 164.891C58.8365 160.334 60.3158 154.408 60.9171 152.475C60.7496 152.199 60.6213 151.952 60.513 151.755C57.7718 146.735 59.2999 140.236 59.9213 138.106C59.7442 137.81 59.6159 137.534 59.4972 137.317C56.6076 131.774 58.1663 124.635 58.8269 122.258V122.249C58.6498 121.913 58.5014 121.607 58.3731 121.361C55.3657 115.276 56.8842 107.515 57.5746 104.763C57.565 104.685 57.565 104.596 57.565 104.517C57.3878 104.172 57.249 103.876 57.1312 103.63C57.0815 103.531 57.0326 103.423 56.9933 103.324V103.315C56.5002 102.239 56.1354 101.115 55.8693 99.9713V99.9617C54.6954 95.0796 55.2775 89.9419 55.8492 86.8454C55.8492 86.8358 55.8492 86.8358 55.8492 86.8254C55.9975 86.0565 56.1354 85.4054 56.2533 84.9315V84.922C56.0464 84.4978 55.8789 84.1234 55.7401 83.8171C55.7104 83.7577 55.6807 83.6888 55.6615 83.6294V83.6198C52.4866 76.3518 53.7974 67.3277 54.5767 63.5218V63.5122C54.6256 63.2556 54.685 63.0191 54.7242 62.8122V62.8026C54.6553 62.6351 54.5863 62.4867 54.5174 62.3392C54.3891 62.0434 54.2704 61.7772 54.1718 61.5407C50.4042 52.665 52.2387 41.4426 53.0085 37.7344C52.7615 37.182 52.5651 36.6889 52.4071 36.2848C47.4562 23.9575 51.3223 7.67589 51.3223 7.67589C51.3319 7.66629 51.352 7.64622 51.3616 7.63662C53.0477 5.91036 56.3911 5.84141 60.5724 6.8084C61.4102 6.99603 62.2786 7.22294 63.1757 7.49872C63.2351 7.5188 63.2944 7.53799 63.3529 7.55806C63.4026 7.53799 63.4515 7.5188 63.5004 7.49872C65.1176 6.90701 66.8735 6.43312 68.6975 6.0884C71.6168 5.50629 74.7132 5.2209 77.7311 5.2401C86.2123 5.28985 94.1017 7.66629 95.9458 12.4096L91.5377 21.1473L89.9598 24.283C89.1708 24.441 82.0502 29.1249 75.4629 41.4819C73.8064 44.5783 72.1788 48.1583 70.7091 52.2706C69.5755 55.3871 68.5395 58.809 67.6319 62.5565C66.8133 65.9095 66.1037 69.5288 65.5216 73.4238C65.0486 76.5996 64.6733 79.9622 64.4072 83.5125C64.1706 86.5496 64.0223 89.735 63.9638 93.0584C63.9045 96.2534 63.9341 99.5768 64.0624 103.049C64.1514 105.819 64.3094 108.679 64.5354 111.638C64.5651 112.101 64.6044 112.565 64.6437 113.039C64.8706 115.79 65.1865 118.394 65.581 120.878C66.0741 123.926 66.6859 126.766 67.4155 129.428C68.214 132.377 69.1513 135.089 70.216 137.594C71.5277 140.74 73.0367 143.56 74.6931 146.084C77.2476 149.99 80.1564 153.175 83.2729 155.779C85.0577 157.278 86.9122 158.579 88.8156 159.703C89.6142 160.187 90.4232 160.63 91.2418 161.045C92.4846 161.685 93.7369 162.258 94.9989 162.761C95.3541 165.6 94.1506 169.407 93.9734 169.753C93.6008 170.473 93.3442 171.094 91.5001 171.518Z" fill="url(#paint12_linear_126_119)"/>
<path opacity="0.6" fill-rule="evenodd" clip-rule="evenodd" d="M98.3641 55.3365C99.6366 56.54 100.139 58.7584 100.247 61.244C99.764 61.8749 99.222 62.4867 98.6207 63.0784C98.2856 63.4136 97.9208 63.7391 97.5263 64.0445C94.3208 66.6383 89.4099 68.6595 84.4493 70.1886C76.3426 72.6837 68.0988 73.847 66.8857 74.0146C66.8761 74.0146 66.8761 74.0146 66.8761 74.0146C66.7775 74.0242 66.7277 74.0338 66.7277 74.0338C66.7277 74.0338 61.2548 75.1282 60.7024 80.3846C60.6134 81.2626 60.5444 82.1205 60.5052 82.9583C60.2879 87.1204 60.5942 90.4629 60.5942 90.4629C60.5942 90.4629 60.5645 90.5022 60.5052 90.5711C60.0618 91.1236 58.0694 93.7068 56.5805 97.7502C56.3239 98.4405 56.0874 99.1797 55.8701 99.9591C54.6963 95.077 55.2784 89.9393 55.85 86.8428C55.85 86.8332 55.85 86.8332 55.85 86.8228C55.7907 85.7476 55.7217 84.6924 55.6624 83.6277C55.6624 83.6277 55.6528 83.6277 55.6624 83.6181C52.4874 76.35 53.7982 67.326 54.5776 63.52V63.5104C54.5575 63.116 54.5383 62.7311 54.5182 62.3366C54.39 62.0408 54.2713 61.7746 54.1727 61.5381C50.4051 52.6624 52.2396 41.44 53.0093 37.7318C52.7623 37.1793 52.566 36.6863 52.408 36.2822C47.457 23.9549 51.3232 7.67327 51.3232 7.67327C51.3328 7.66367 51.3529 7.6436 51.3625 7.634L60.5732 6.80578L68.5116 6.08578L77.7913 5.23749C86.5779 5.28723 94.7633 7.71254 96.5384 12.5553C97.2977 14.6263 97.7515 19.1235 97.9784 25.3556C98.708 25.8985 99.2307 26.3121 99.4969 26.5888C103.659 30.8782 100.148 49.3199 99.7631 50.2869C99.359 51.3324 99.0431 52.2889 97.8798 52.9888C97.8702 53.6198 97.8501 54.2508 97.83 54.8826C98.0578 55.0703 98.2454 55.2178 98.3641 55.3365Z" fill="url(#paint13_linear_126_119)"/>
<path fill-rule="evenodd" clip-rule="evenodd" d="M67.1153 73.8129C67.1153 73.8129 71.9362 77.5936 79.8807 78.3057C91.9357 79.3862 95.2678 76.4407 95.2678 76.4407C95.2678 76.4407 94.2711 77.207 80.9768 76.1693C69.7448 75.2922 67.1153 73.8129 67.1153 73.8129Z" fill="#FFA319"/>
<path fill-rule="evenodd" clip-rule="evenodd" d="M64.7589 93.5367C64.7589 93.5367 68.0325 97.5364 77.8393 98.5767C87.6462 99.617 93.7963 96.7143 93.7963 96.7143C93.7963 96.7143 86.3179 98.2206 76.5651 96.3582C66.8133 94.4958 64.7589 93.5367 64.7589 93.5367Z" fill="#FFA319"/>
<path fill-rule="evenodd" clip-rule="evenodd" d="M69.5397 113.698C69.6627 113.821 76.0319 116.328 81.867 116.698C87.702 117.068 92.674 114.973 92.674 114.973C92.674 114.973 90.3316 115.63 81.826 115.22C73.2819 114.806 69.5397 113.698 69.5397 113.698Z" fill="#FFA319"/>
<path fill-rule="evenodd" clip-rule="evenodd" d="M74.3197 131.176C74.3197 131.176 78.0183 132.271 83.3323 132.463C88.6464 132.655 91.6878 131.285 91.6878 131.285C91.6878 131.285 89.7425 131.915 83.6343 131.778C77.5252 131.642 74.3197 131.176 74.3197 131.176Z" fill="#FFA319"/>
<path fill-rule="evenodd" clip-rule="evenodd" d="M81.1679 146.448C81.1679 146.448 83.7363 147.187 86.6128 147.023C89.4894 146.859 91.4408 146.078 91.3177 146.078C91.1947 146.078 89.0574 146.407 86.4488 146.448C83.8393 146.489 81.1679 146.448 81.1679 146.448Z" fill="#FFA319"/>
<path opacity="0.1" fill-rule="evenodd" clip-rule="evenodd" d="M71.005 93.0985C70.2693 91.6864 93.6872 75.5663 95.3855 79.566C97.0839 83.5657 98.2891 93.2626 94.5634 94.9068C90.8377 96.551 72.3743 95.728 71.005 93.0985Z" fill="#FFB642"/>
<path opacity="0.1" fill-rule="evenodd" clip-rule="evenodd" d="M74.4016 112.657C76.6864 114.492 93.5222 115.123 94.8374 112.219C96.1526 109.315 96.9739 101.7 95.6595 101.152C94.3443 100.604 71.0599 109.973 74.4016 112.657Z" fill="#FFB642"/>
<path opacity="0.1" fill-rule="evenodd" clip-rule="evenodd" d="M81.2499 130.258C82.8086 131.698 92.632 130.875 93.7823 129.108C94.9326 127.341 95.8367 120.274 94.4805 119.862C93.1251 119.451 79.6476 128.779 81.2499 130.258Z" fill="#FFB642"/>
<path opacity="0.1" fill-rule="evenodd" clip-rule="evenodd" d="M84.3734 144.763C85.8614 145.579 93.3721 144.845 93.9883 143.407C94.6044 141.969 96.3717 138.229 94.9745 137.901C93.5772 137.572 83.0992 144.065 84.3734 144.763Z" fill="#FFB642"/>
<path opacity="0.2" fill-rule="evenodd" clip-rule="evenodd" d="M104.529 169.696C104.006 171.854 117.212 177.118 122.616 175.893C128.021 174.668 138.974 171.354 136.596 170.849C134.218 170.345 105.106 167.318 104.529 169.696Z" fill="#FFB642"/>
<path fill-rule="evenodd" clip-rule="evenodd" d="M140.089 121.42C140.089 121.42 138.778 125.858 137.959 125.7C137.771 125.661 135.711 124.694 132.486 122.919C129.409 121.242 125.278 118.826 120.682 115.779C108.916 107.978 94.163 96.0648 86.6785 81.8149C79.4104 67.9883 77.1125 54.6853 76.5007 45.2668C75.998 37.2098 76.7276 31.983 76.6482 31.6776L80.4254 30.6129C80.4254 30.6129 78.5019 46.4014 84.6459 68.0381C85.5727 71.2724 86.6671 74.6455 87.9893 78.1172C92.6933 90.4838 105.573 101.243 117.348 108.945C117.357 108.955 117.368 108.955 117.368 108.966C125.099 114.015 132.348 117.752 136.49 119.754C138.748 120.838 140.089 121.42 140.089 121.42Z" fill="#FFB642"/>
<path opacity="0.3" fill-rule="evenodd" clip-rule="evenodd" d="M136.489 119.753C135.326 120.68 133.659 122.001 132.485 122.919C129.408 121.242 125.276 118.826 120.681 115.779C121.914 115.532 122.899 115.049 122.584 114.112C122.279 113.234 119.99 111.133 117.367 108.964C125.099 114.014 132.347 117.751 136.489 119.753Z" fill="url(#paint14_linear_126_119)"/>
<path fill-rule="evenodd" clip-rule="evenodd" d="M158.999 125.964C159.017 127.512 158.841 129.024 158.452 130.45C158.07 131.852 157.415 133.148 156.51 134.301C154.795 136.486 152.188 138.164 148.828 139.09C148.707 139.124 148.582 139.158 148.461 139.187C146.518 139.691 144.657 139.906 142.897 139.879C137.485 139.795 133.005 137.412 129.961 133.967C127.312 130.974 125.745 127.18 125.587 123.392C125.551 122.554 125.585 121.72 125.69 120.891C125.891 119.309 126.361 117.764 127.117 116.31C129.764 111.227 134.893 107.272 142.053 107.019C143.109 106.98 144.211 107.023 145.355 107.156C146.199 107.253 147.021 107.454 147.816 107.746C153.01 109.649 157.038 115.4 158.452 121.513C158.649 122.363 158.794 123.216 158.885 124.068C158.957 124.704 158.993 125.339 158.999 125.964Z" fill="url(#paint15_radial_126_119)"/>
<path opacity="0.7" fill-rule="evenodd" clip-rule="evenodd" d="M156.51 134.302C154.795 136.487 152.188 138.165 148.828 139.091C148.707 139.124 148.582 139.159 148.461 139.188C146.643 139.656 144.772 139.874 142.897 139.88C137.485 139.796 133.005 137.413 129.961 133.968C133.412 135.916 137.246 137.395 140.836 137.843C147.065 138.624 152.486 137.097 156.51 134.302Z" fill="#FFB642"/>
<path opacity="0.6" fill-rule="evenodd" clip-rule="evenodd" d="M158.999 125.964C159.017 127.512 158.841 129.024 158.452 130.45C158.07 131.852 157.415 133.148 156.51 134.301C154.795 136.486 152.188 138.164 148.828 139.09C135.552 142.754 125.985 133.048 125.588 123.393C125.551 122.555 125.585 121.721 125.691 120.891C127.078 124.691 130.039 132.232 140.617 134.639C150.867 136.974 157.193 130.114 158.999 125.964Z" fill="url(#paint16_linear_126_119)"/>
<path opacity="0.5" fill-rule="evenodd" clip-rule="evenodd" d="M139.928 107.726C136.655 107.618 126.559 114.904 129.737 121.697C132.915 128.49 151.871 135.285 154.995 125.642C158.117 116 153.186 108.164 139.928 107.726Z" fill="#FFB642"/>
<path opacity="0.7" fill-rule="evenodd" clip-rule="evenodd" d="M138.723 109.59C136.392 110.342 132.422 119.068 141.407 120.438C150.393 121.807 154.721 117.15 152.638 114.685C150.557 112.219 143.983 107.891 138.723 109.59Z" fill="#FFB642"/>
<path opacity="0.3" fill-rule="evenodd" clip-rule="evenodd" d="M84.6458 68.0381C80.1093 58.3141 81.5886 47.3579 79.5473 44.6655C78.4328 43.1862 77.3681 43.9063 76.4997 45.2668C75.997 37.2098 76.7266 31.983 76.6472 31.6776L80.4244 30.6129C80.4244 30.6129 78.5018 46.4014 84.6458 68.0381Z" fill="url(#paint17_linear_126_119)"/>
<path opacity="0.7" fill-rule="evenodd" clip-rule="evenodd" d="M91.6049 88.6877C90.5358 88.5603 103.543 102.705 110.534 107.124C117.903 111.781 117.849 110.85 117.41 110.247C117.212 109.975 111.685 106.329 106.562 101.755C100.206 96.0771 92.8686 88.8378 91.6049 88.6877Z" fill="white"/>
<path fill-rule="evenodd" clip-rule="evenodd" d="M105.484 25.8295C104.34 27.595 100.612 32.0721 78.857 32.0224C57.092 31.9831 50.7412 29.1136 48.719 27.2494C46.4709 25.1784 46.3129 11.2733 46.895 9.3009C47.0722 8.69959 48.1273 7.76228 50.0116 6.71675C54.2914 4.32984 62.9105 1.40095 75.4455 0.740298C85.652 0.198334 93.4726 2.62365 98.6007 5.1982C102.525 7.16096 104.873 9.21187 105.514 10.0898C106.993 12.1215 106.638 24.0544 105.484 25.8295Z" fill="url(#paint18_linear_126_119)"/>
<path opacity="0.6" fill-rule="evenodd" clip-rule="evenodd" d="M106.165 23.0979C105.988 24.4096 105.761 25.4054 105.484 25.8296C104.34 27.5951 100.612 32.0722 78.857 32.0224C57.0921 31.9832 50.7412 29.1136 48.7191 27.2495C46.4709 25.1785 46.313 11.2733 46.8951 9.30097C47.0723 8.69966 48.1274 7.76235 50.0116 6.71682C49.2026 7.42722 47.9607 8.69877 48.651 9.16219C49.1048 9.46765 51.984 10.7794 57.0824 11.9925C62.9899 13.4028 71.9049 14.6848 83.4921 14.0931C105.08 12.9987 104.429 10.809 104.32 10.1484C104.251 9.78358 101.272 7.32772 98.5999 5.19739C102.525 7.16015 104.872 9.21107 105.513 10.089C106.638 11.639 106.707 18.9263 106.165 23.0979Z" fill="url(#paint19_linear_126_119)"/>
<path opacity="0.2" fill-rule="evenodd" clip-rule="evenodd" d="M81.7431 1.35654C72.562 0.629555 46.6516 6.20542 57.2526 9.65706C67.8545 13.1087 104.342 14.588 101.713 9.82113C99.0833 5.05429 90.0436 2.0137 81.7431 1.35654Z" fill="#FFB642"/>
<path opacity="0.3" fill-rule="evenodd" clip-rule="evenodd" d="M106.165 23.0978C105.988 24.4095 105.761 25.4053 105.484 25.8295C104.34 27.595 100.612 32.0721 78.857 32.0224C57.0921 31.9831 50.7412 29.1136 48.7191 27.2494C46.4709 25.1784 46.313 11.2732 46.8951 9.30088C47.0723 8.69957 48.1274 7.76226 50.0116 6.71674C49.2026 7.42714 47.9607 8.69869 48.651 9.16211C49.1048 9.46756 51.984 10.7793 57.0825 11.9924C58.5024 15.4143 63.7981 25.2273 78.5612 27.5741C92.6636 29.8144 102.112 26.717 106.165 23.0978Z" fill="url(#paint20_linear_126_119)"/>
<path opacity="0.1" fill-rule="evenodd" clip-rule="evenodd" d="M68.4846 18.2168C70.0581 22.151 81.9622 28.4076 94.6735 26.9283C107.384 25.4491 106.453 15.0941 104.645 14.6011C102.837 14.108 67.6084 16.0253 68.4846 18.2168Z" fill="#FFB642"/>
<path fill-rule="evenodd" clip-rule="evenodd" d="M60.7462 12.6967C60.7462 12.6967 70.649 15.8193 86.716 15.1211C102.783 14.423 104.015 10.9303 104.015 10.9303C104.015 10.9303 95.6064 13.8068 82.8533 13.8068C69.4578 13.8068 60.7462 12.6967 60.7462 12.6967Z" fill="#FFD22E"/>
<defs>
<linearGradient id="paint0_linear_126_119" x1="71.3222" y1="222.851" x2="74.8686" y2="145.764" gradientUnits="userSpaceOnUse">
<stop offset="0.004" stop-color="#FF7C00"/>
<stop offset="0.4022" stop-color="#FF911E"/>
<stop offset="0.7582" stop-color="#FF9F32"/>
<stop offset="1" stop-color="#FFA439"/>
</linearGradient>
<linearGradient id="paint1_linear_126_119" x1="154.331" y1="169.408" x2="2.79938" y2="218.68" gradientUnits="userSpaceOnUse">
<stop offset="0.0056" stop-color="#D477AF"/>
<stop offset="1" stop-color="#FBE3F4"/>
</linearGradient>
<linearGradient id="paint2_linear_126_119" x1="76.5926" y1="52.0665" x2="74.7157" y2="8.52169" gradientUnits="userSpaceOnUse">
<stop offset="0.004" stop-color="#FF7C00"/>
<stop offset="0.4022" stop-color="#FF911E"/>
<stop offset="0.7582" stop-color="#FF9F32"/>
<stop offset="1" stop-color="#FFA439"/>
</linearGradient>
<linearGradient id="paint3_linear_126_119" x1="77.6636" y1="183.432" x2="77.6636" y2="164.239" gradientUnits="userSpaceOnUse">
<stop offset="0.004" stop-color="#FF7C00"/>
<stop offset="0.1707" stop-color="#FF8006"/>
<stop offset="1" stop-color="#FF9321"/>
</linearGradient>
<linearGradient id="paint4_linear_126_119" x1="77.5087" y1="172.179" x2="77.5087" y2="151.071" gradientUnits="userSpaceOnUse">
<stop offset="0.004" stop-color="#FF7C00"/>
<stop offset="0.1707" stop-color="#FF8006"/>
<stop offset="1" stop-color="#FF9321"/>
</linearGradient>
<linearGradient id="paint5_linear_126_119" x1="77.3302" y1="159.912" x2="77.3302" y2="136.591" gradientUnits="userSpaceOnUse">
<stop offset="0.004" stop-color="#FF7C00"/>
<stop offset="0.1707" stop-color="#FF8006"/>
<stop offset="1" stop-color="#FF9321"/>
</linearGradient>
<linearGradient id="paint6_linear_126_119" x1="77.1365" y1="146.475" x2="77.1365" y2="120.589" gradientUnits="userSpaceOnUse">
<stop offset="0.004" stop-color="#FF7C00"/>
<stop offset="0.1707" stop-color="#FF8006"/>
<stop offset="1" stop-color="#FF9321"/>
</linearGradient>
<linearGradient id="paint7_linear_126_119" x1="76.9186" y1="131.713" x2="76.9186" y2="102.812" gradientUnits="userSpaceOnUse">
<stop offset="0.004" stop-color="#FF7C00"/>
<stop offset="0.1707" stop-color="#FF8006"/>
<stop offset="1" stop-color="#FF9321"/>
</linearGradient>
<linearGradient id="paint8_linear_126_119" x1="76.6731" y1="115.396" x2="76.6731" y2="82.9519" gradientUnits="userSpaceOnUse">
<stop offset="0.004" stop-color="#FF7C00"/>
<stop offset="0.1707" stop-color="#FF8006"/>
<stop offset="1" stop-color="#FF9321"/>
</linearGradient>
<linearGradient id="paint9_linear_126_119" x1="76.3943" y1="97.2725" x2="76.3943" y2="60.5997" gradientUnits="userSpaceOnUse">
<stop offset="0.004" stop-color="#FF7C00"/>
<stop offset="0.1707" stop-color="#FF8006"/>
<stop offset="1" stop-color="#FF9321"/>
</linearGradient>
<linearGradient id="paint10_linear_126_119" x1="76.0752" y1="77.0211" x2="76.0752" y2="35.2803" gradientUnits="userSpaceOnUse">
<stop offset="0.004" stop-color="#FF7C00"/>
<stop offset="0.1707" stop-color="#FF8006"/>
<stop offset="1" stop-color="#FF9321"/>
</linearGradient>
<linearGradient id="paint11_linear_126_119" x1="75.6999" y1="54.2519" x2="75.6999" y2="6.18259" gradientUnits="userSpaceOnUse">
<stop offset="0.004" stop-color="#FF7C00"/>
<stop offset="0.1707" stop-color="#FF8006"/>
<stop offset="1" stop-color="#FF9321"/>
</linearGradient>
<linearGradient id="paint12_linear_126_119" x1="77.53" y1="212.639" x2="72.2703" y2="-10.2378" gradientUnits="userSpaceOnUse">
<stop offset="0.0056" stop-color="#D477AF"/>
<stop offset="1" stop-color="#FBE3F4"/>
</linearGradient>
<linearGradient id="paint13_linear_126_119" x1="75.9307" y1="13.2597" x2="75.0542" y2="70.239" gradientUnits="userSpaceOnUse">
<stop offset="0.0056" stop-color="#B4007B"/>
<stop offset="1" stop-color="#EDC0CE"/>
</linearGradient>
<linearGradient id="paint14_linear_126_119" x1="139.944" y1="125.547" x2="103.949" y2="100.892" gradientUnits="userSpaceOnUse">
<stop offset="0.0056" stop-color="#B4007B"/>
<stop offset="1" stop-color="#EDC0CE"/>
</linearGradient>
<radialGradient id="paint15_radial_126_119" cx="0" cy="0" r="1" gradientUnits="userSpaceOnUse" gradientTransform="translate(147.658 115.068) scale(22.8195 22.8195)">
<stop offset="0.0208" stop-color="#FFA439"/>
<stop offset="0.3095" stop-color="#FFA236"/>
<stop offset="0.5505" stop-color="#FF9A2B"/>
<stop offset="0.7743" stop-color="#FF8E1A"/>
<stop offset="0.9867" stop-color="#FF7D02"/>
<stop offset="1" stop-color="#FF7C00"/>
</radialGradient>
<linearGradient id="paint16_linear_126_119" x1="157.965" y1="144.971" x2="142.384" y2="127.636" gradientUnits="userSpaceOnUse">
<stop offset="0.0056" stop-color="#B4007B"/>
<stop offset="1" stop-color="#EDC0CE"/>
</linearGradient>
<linearGradient id="paint17_linear_126_119" x1="76.5841" y1="22.5001" x2="81.8437" y2="65.7276" gradientUnits="userSpaceOnUse">
<stop offset="0.0056" stop-color="#B4007B"/>
<stop offset="1" stop-color="#EDC0CE"/>
</linearGradient>
<linearGradient id="paint18_linear_126_119" x1="57.33" y1="-19.3824" x2="106.42" y2="75.2908" gradientUnits="userSpaceOnUse">
<stop offset="0.4637" stop-color="#FFBE19"/>
<stop offset="0.5806" stop-color="#FFB716"/>
<stop offset="0.7529" stop-color="#FFA30F"/>
<stop offset="0.9583" stop-color="#FF8303"/>
<stop offset="0.996" stop-color="#FF7C00"/>
</linearGradient>
<linearGradient id="paint19_linear_126_119" x1="52.0868" y1="42.9968" x2="99.0947" y2="-6.64091" gradientUnits="userSpaceOnUse">
<stop offset="0.0056" stop-color="#D477AF"/>
<stop offset="1" stop-color="#FBE3F4"/>
</linearGradient>
<linearGradient id="paint20_linear_126_119" x1="58.3104" y1="65.7393" x2="77.4861" y2="14.1291" gradientUnits="userSpaceOnUse">
<stop offset="0.0056" stop-color="#B4007B"/>
<stop offset="1" stop-color="#EDC0CE"/>
</linearGradient>
</defs>
</svg>
