<svg width="161" height="137" viewBox="0 0 161 137" fill="none" xmlns="http://www.w3.org/2000/svg">
<path d="M66.9832 28.1083C68.6968 31.2899 73.8045 31.5613 78.2522 28.4617C81.6399 26.1004 85.2522 20.3162 83.3159 17.2932C82.2571 15.6404 76.5562 13.9532 72.0469 16.9399C67.5371 19.9263 65.2696 24.9267 66.9832 28.1083Z" fill="#F87537" fill-opacity="0.1"/>
<path d="M51.5592 21.3904C53.6723 23.3409 57.5153 21.9064 60.594 18.6332C62.614 16.4861 64.119 10.7277 61.9784 8.81262C60.5032 7.49249 55.8211 8.09685 52.9447 11.5703C50.0672 15.0433 49.4473 19.4404 51.5592 21.3904Z" fill="#F87537" fill-opacity="0.1"/>
<path d="M56.5614 27.0841C53.8838 27.0688 51.3663 26.0841 49.4605 24.2181C47.423 22.2232 45.4516 19.9826 40.6635 21.2636C34.7548 22.8448 31.2508 29.7486 32.6675 35.8418C33.0667 37.5585 33.8199 39.057 34.8257 40.2804C35.9159 41.6054 36.6872 43.1748 37.0904 44.8648C37.4744 46.5612 37.4917 48.3841 37.1313 50.1957C36.7982 51.8687 36.7998 53.6196 37.1991 55.3363C38.6158 61.4296 44.5899 65.1507 50.3245 62.8227C54.9715 60.9368 55.6919 57.7921 56.5739 54.8165C57.3993 52.0342 59.1274 49.6239 61.4117 47.9424C65.4552 44.9652 67.2654 39.7965 66.1735 35.0996C65.0805 30.4038 61.3041 27.1117 56.5614 27.0841Z" fill="#F87537" fill-opacity="0.1"/>
<path d="M79.3854 33.3086C74.2444 33.4506 70.0045 36.8825 69.9265 40.6699C69.8485 44.4573 73.9563 47.3016 79.1018 47.0234C84.2473 46.7453 88.3764 41.7352 88.5607 39.6621C88.8972 35.8711 83.3012 33.2 79.3854 33.3086Z" fill="#F87537" fill-opacity="0.1"/>
<path d="M68.6061 52.7528C64.5562 51.8893 60.6541 53.0732 59.7014 56.0599C58.7467 59.0465 61.1877 62.4089 65.1517 63.5696C69.1165 64.73 73.3724 62.3125 74.0565 60.2625C75.0503 57.2869 71.2622 53.3191 68.6061 52.7528Z" fill="#F87537" fill-opacity="0.1"/>
<path d="M146.659 77.8047C148.312 79.0621 151.049 77.9902 152.639 75.3114C153.85 73.2707 154.366 69.3858 152.634 68.2644C151.687 67.6513 148.303 68.1234 146.654 70.7578C145.004 73.3921 145.006 76.5474 146.659 77.8047Z" fill="#F87537" fill-opacity="0.1"/>
<path d="M136.992 77.9556C138.561 78.4739 140.231 76.81 141.064 74.3657C141.611 72.7623 141.029 69.3917 139.454 68.8984C138.369 68.5583 136.063 69.9873 135.383 72.4883C134.703 74.9893 135.424 77.4373 136.992 77.9556Z" fill="#F87537" fill-opacity="0.1"/>
<path d="M140.963 79.7458C139.558 80.3742 138.007 80.4573 136.566 79.9339C135.026 79.3744 133.462 78.6706 131.261 80.4788C128.546 82.7104 128.353 87.1553 130.542 90.0067C131.159 90.81 131.909 91.415 132.727 91.8161C133.612 92.2503 134.388 92.8881 135.001 93.6765C135.605 94.4728 136.047 95.4225 136.289 96.456C136.513 97.4105 136.93 98.3262 137.547 99.1295C139.736 101.981 143.746 102.508 146.193 99.927C148.176 97.8358 147.806 96.0193 147.56 94.2528C147.331 92.6009 147.662 90.9291 148.458 89.5064C149.866 86.9876 149.584 83.8531 147.897 81.6551C146.209 79.458 143.451 78.633 140.963 79.7458Z" fill="#F87537" fill-opacity="0.1"/>
<path d="M154.384 77.578C151.728 78.8742 150.325 81.6775 151.184 83.6776C152.044 85.6778 154.869 86.1897 157.495 84.8212C160.121 83.4528 161.091 79.8501 160.694 78.7216C159.97 76.6581 156.407 76.5905 154.384 77.578Z" fill="#F87537" fill-opacity="0.1"/>
<path d="M153.365 90.3134C151.041 90.8241 149.281 92.3709 149.492 94.16C149.702 95.9496 151.779 97.1287 154.129 96.7939C156.479 96.4587 158.131 94.1824 158.002 92.9472C157.814 91.1541 154.889 89.9784 153.365 90.3134Z" fill="#F87537" fill-opacity="0.1"/>
<path d="M24.6837 103.672C26.9926 105.439 30.828 103.948 33.0643 100.204C34.7676 97.3522 35.5035 91.9158 33.0837 90.3395C31.7606 89.4777 27.022 90.1259 24.7031 93.8075C22.3837 97.4891 22.3748 101.906 24.6837 103.672Z" fill="#F87537" fill-opacity="0.1"/>
<path d="M11.1511 103.847C13.3458 104.579 15.6895 102.256 16.8646 98.8373C17.6357 96.5947 16.8347 91.8742 14.6316 91.1778C13.1132 90.6976 9.87961 92.6894 8.91917 96.1879C7.95774 99.6864 8.95743 103.116 11.1511 103.847Z" fill="#F87537" fill-opacity="0.1"/>
<path d="M16.7025 106.368C14.7339 107.243 12.5621 107.353 10.5473 106.615C8.39339 105.826 6.20667 104.835 3.11915 107.358C-0.69082 110.472 -0.977008 116.694 2.07723 120.693C2.9378 121.82 3.98568 122.67 5.12798 123.234C6.36567 123.845 7.45034 124.741 8.30494 125.847C9.14763 126.964 9.76324 128.295 10.0981 129.743C10.4072 131.08 10.9875 132.363 11.8481 133.49C14.9023 137.49 20.5139 138.243 23.9493 134.639C26.7332 131.719 26.2214 129.175 25.8841 126.701C25.569 124.387 26.0391 122.048 27.158 120.06C29.1385 116.539 28.7564 112.15 26.4023 109.067C24.0476 105.985 20.1895 104.82 16.7025 106.368Z" fill="#F87537" fill-opacity="0.1"/>
<path d="M35.4984 103.384C31.7754 105.188 29.8013 109.107 30.9968 111.91C32.1923 114.714 36.1453 115.441 39.8266 113.535C43.5079 111.629 44.8788 106.589 44.3282 105.008C43.3211 102.117 38.334 102.009 35.4984 103.384Z" fill="#F87537" fill-opacity="0.1"/>
<path d="M34.0249 121.208C30.7694 121.914 28.2995 124.073 28.5887 126.578C28.8764 129.084 31.7786 130.742 35.0693 130.282C38.3606 129.822 40.6819 126.642 40.5055 124.912C40.2501 122.401 36.1599 120.745 34.0249 121.208Z" fill="#F87537" fill-opacity="0.1"/>
</svg>
