<svg width="63" height="56" viewBox="0 0 63 56" fill="none" xmlns="http://www.w3.org/2000/svg">
<path d="M43.1729 33.6223C43.0583 32.6662 43.1684 31.4994 43.7847 30.7223C44.0825 30.3467 44.4821 30.0537 44.9685 29.9989C45.6467 29.9224 46.351 30.2755 46.8633 30.6925C47.5178 31.2254 48.1194 32.1859 48.3715 32.999C48.3616 33.0348 48.36 33.0223 48.3665 33.0519C48.3683 33.0595 48.3711 33.067 48.3723 33.0748C48.3775 33.1091 48.3773 33.1284 48.3936 33.1601C48.3985 33.1696 48.4036 33.1791 48.4086 33.1885C48.3074 33.1156 48.1781 32.7813 48.1161 32.6618C47.7981 32.0496 47.4574 31.6141 46.9049 31.1966C46.7309 31.0651 46.5416 30.9339 46.3399 30.8482C45.8418 30.6366 45.2461 30.5675 44.735 30.773C43.8624 31.1241 43.4722 32.114 43.3143 32.9742C43.2851 33.1331 43.2766 33.4657 43.2178 33.5902C43.2044 33.6184 43.2004 33.6128 43.1729 33.6223Z" fill="#F87537"/>
<path d="M27.1668 43.9276C26.65 43.2283 26.245 42.3593 26.1358 41.492C26.0534 40.8373 26.0758 40.1296 26.5014 39.5878C26.7829 39.2293 27.19 39.029 27.6382 38.9747C28.6189 38.8559 29.631 39.329 30.3907 39.9206C30.3391 39.9398 30.3249 39.939 30.2741 39.9174C30.1167 39.8504 29.9706 39.7564 29.8115 39.6898C29.1961 39.4322 28.5 39.3459 27.8605 39.5693C27.3953 39.7317 27.03 40.0522 26.817 40.4974C26.4185 41.3301 26.5989 42.3414 26.9014 43.1765C26.954 43.3218 27.2103 43.8159 27.1668 43.9276Z" fill="#F87537"/>
<path d="M34.2873 29.4913C34.2714 29.2923 34.2832 29.0924 34.2972 28.8937C34.3427 28.2498 34.4932 27.664 34.9216 27.1629C35.3194 26.6975 35.8765 26.4798 36.4774 26.4367C37.8165 26.3406 39.2221 26.9998 40.2122 27.8665C40.9064 28.4741 41.3522 29.0646 41.7513 29.9C41.7423 29.8992 41.7326 29.9013 41.7243 29.8979C41.7122 29.8928 41.6274 29.7575 41.6125 29.7378C41.4461 29.5182 41.2811 29.2956 41.0987 29.0889C41.0565 29.0415 41.0134 28.9948 40.9696 28.9488C40.9259 28.9028 40.8813 28.8576 40.836 28.8131C40.7908 28.7686 40.7447 28.7248 40.698 28.6818C40.6513 28.6389 40.6038 28.5967 40.5557 28.5553C40.5076 28.5139 40.4588 28.4733 40.4093 28.4335C40.3598 28.3937 40.3097 28.3548 40.2589 28.3166C40.2082 28.2785 40.1568 28.2412 40.1048 28.2048C40.0528 28.1683 40.0002 28.1328 39.947 28.0981C39.8938 28.0634 39.8401 28.0296 39.7858 27.9967C39.7315 27.9638 39.6766 27.9318 39.6213 27.9007C39.5659 27.8697 39.51 27.8395 39.4537 27.8103C39.3973 27.781 39.3405 27.7527 39.2832 27.7254C39.2259 27.698 39.1682 27.6716 39.11 27.6462C39.0518 27.6207 38.9932 27.5963 38.9343 27.5728C38.8753 27.5493 38.8159 27.5268 38.7562 27.5053C38.6965 27.4837 38.6364 27.4632 38.576 27.4436C37.6138 27.1415 36.5198 27.0518 35.6016 27.5363C35.0417 27.8318 34.6165 28.3275 34.4338 28.9348C34.3793 29.1159 34.3665 29.309 34.3116 29.4861L34.2873 29.4913Z" fill="#F87537"/>
<path d="M27.1667 43.9277C27.2103 43.816 26.954 43.3219 26.9014 43.1766C26.5989 42.3415 26.4185 41.3302 26.817 40.4975C27.03 40.0524 27.3953 39.7319 27.8605 39.5694C28.5 39.346 29.1961 39.4324 29.8115 39.6899C29.9706 39.7565 30.1166 39.8506 30.2741 39.9175C30.3248 39.9391 30.3391 39.9399 30.3907 39.9207C30.5496 39.9987 30.7019 40.1655 30.825 40.2909C31.5371 41.0161 32.071 41.9458 32.3964 42.9056C32.6402 43.6246 32.7457 44.5586 32.3963 45.2628C32.2002 45.6581 31.8628 45.9345 31.445 46.0697C30.7448 46.2963 29.9033 46.0627 29.2728 45.7363C28.566 45.3705 27.9621 44.8951 27.4482 44.2872C27.3549 44.177 27.2387 44.0521 27.1667 43.9277Z" fill="#F87537"/>
<path d="M43.173 33.6223C43.2006 33.6127 43.2045 33.6184 43.2179 33.5901C43.2767 33.4656 43.2853 33.1331 43.3144 32.9741C43.4723 32.114 43.8625 31.124 44.7351 30.773C45.2462 30.5674 45.8419 30.6366 46.34 30.8481C46.5417 30.9338 46.731 31.065 46.905 31.1965C47.4575 31.6141 47.7983 32.0496 48.1162 32.6618C48.1782 32.7813 48.3075 33.1155 48.4087 33.1885C48.4037 33.179 48.3986 33.1696 48.3937 33.16C48.3774 33.1283 48.3776 33.1091 48.3724 33.0747C48.3712 33.067 48.3684 33.0595 48.3667 33.0518C48.3601 33.0223 48.3617 33.0348 48.3716 32.999C48.5051 33.3469 48.593 33.7617 48.6361 34.1307C48.7578 35.172 48.6454 36.4289 47.9672 37.2723C47.6688 37.6433 47.2704 37.8886 46.7926 37.9354C46.166 37.9967 45.4966 37.6848 45.0223 37.2962C43.9501 36.4177 43.3095 34.9886 43.173 33.6223Z" fill="#F87537"/>
<path d="M34.2871 29.4913L34.3114 29.4862C34.3663 29.3091 34.3791 29.116 34.4336 28.9349C34.6163 28.3275 35.0415 27.8319 35.6014 27.5364C36.5196 27.0519 37.6136 27.1415 38.5758 27.4437C38.6362 27.4632 38.6963 27.4838 38.756 27.5053C38.8157 27.5268 38.8751 27.5494 38.9341 27.5729C38.993 27.5963 39.0516 27.6208 39.1098 27.6463C39.168 27.6717 39.2257 27.6981 39.283 27.7254C39.3403 27.7528 39.3971 27.7811 39.4535 27.8103C39.5098 27.8396 39.5657 27.8697 39.6211 27.9008C39.6764 27.9319 39.7313 27.9639 39.7856 27.9968C39.8399 28.0297 39.8936 28.0635 39.9468 28.0982C40 28.1328 40.0526 28.1684 40.1046 28.2048C40.1566 28.2412 40.208 28.2785 40.2587 28.3167C40.3095 28.3548 40.3596 28.3938 40.4091 28.4335C40.4586 28.4733 40.5074 28.5139 40.5555 28.5553C40.6036 28.5967 40.6511 28.6389 40.6978 28.6819C40.7445 28.7249 40.7906 28.7686 40.8358 28.8131C40.8811 28.8576 40.9257 28.9029 40.9694 28.9489C41.0132 28.9949 41.0563 29.0415 41.0985 29.0889C41.2809 29.2956 41.4459 29.5183 41.6123 29.7378C41.6272 29.7575 41.712 29.8929 41.7241 29.8979C41.7324 29.9014 41.7421 29.8993 41.7511 29.9C41.8176 30.0099 41.8617 30.1441 41.9059 30.265C42.1238 30.8606 42.2634 31.5052 42.2441 32.1415C42.2211 32.8968 42.0324 33.6531 41.4622 34.1817C40.8658 34.7346 40.0891 34.947 39.2892 34.9124C37.9755 34.8554 36.7379 34.0397 35.8739 33.0923C35.1186 32.264 34.5712 31.2671 34.3641 30.1615C34.3241 29.9481 34.2774 29.7084 34.2871 29.4913Z" fill="#F87537"/>
<path d="M29.1905 29.9603C29.2179 29.939 29.2476 29.9233 29.2777 29.9062C29.8084 29.6056 30.3839 29.5094 30.9767 29.6769C32.1396 30.0055 33.1914 31.0181 33.7641 32.0595C34.5185 33.4313 34.844 35.2367 34.391 36.757C34.1497 37.5668 33.6832 38.3368 32.9214 38.7468C32.4257 39.0035 31.9391 39.1048 31.3849 38.9962C30.2456 38.7729 29.2108 37.9962 28.5685 37.0419C27.7188 35.7795 27.3977 34.0694 27.6849 32.5802C27.8823 31.5567 28.2961 30.5662 29.1905 29.9603Z" fill="#F87537"/>
<path d="M36.8017 37.1132C36.8054 37.1109 36.8091 37.1086 36.8129 37.1064C38.3946 36.1925 40.3024 36.2579 42.0108 36.731C44.3285 37.3729 47.312 39.229 48.5125 41.3645C49.0124 42.2537 49.0844 43.335 48.8135 44.3078C48.3175 46.0885 46.9984 47.6248 45.5392 48.7119C45.0241 49.0957 44.4736 49.4281 43.9151 49.7439C42.4476 50.5389 40.8913 51.0685 39.2233 51.2051C38.4863 51.2655 37.72 51.2461 36.9966 51.0826C35.8085 50.8142 34.7718 50.2512 34.1097 49.1968C33.8235 48.741 33.5973 48.2349 33.4706 47.7113C33.3712 47.3006 33.3098 46.8504 33.2936 46.4284C33.2851 46.2073 33.2927 45.9855 33.2855 45.7643C33.2744 45.4252 33.2494 45.0866 33.2456 44.7472C33.2359 43.8683 33.309 42.9469 33.5075 42.0895C33.8627 40.5544 34.5655 38.9383 35.7563 37.8642C36.0761 37.5757 36.4369 37.3399 36.8017 37.1132Z" fill="#F87537"/>
<path d="M39.1037 41.1193C39.1341 40.9765 39.1674 40.8334 39.2099 40.6936C39.4067 40.0469 39.8409 39.4731 40.4442 39.1548C41.0238 38.849 41.7447 38.8047 42.3673 39.0014C43.0423 39.2147 43.5803 39.7047 43.9001 40.3275C44.6968 41.879 44.0895 44.1322 43.5858 45.7021C43.3428 46.4834 42.9932 47.2112 42.6273 47.9396L42.0233 47.8248C40.0779 47.4371 37.0272 46.5619 35.8698 44.8123C35.4824 44.2268 35.2985 43.5009 35.4458 42.8073C35.5958 42.1015 36.006 41.5395 36.6075 41.1509C36.7405 41.0556 36.9131 40.9872 37.067 40.9347C37.7557 40.7001 38.4609 40.8009 39.1037 41.1193Z" fill="#FAEDDE"/>
<path d="M10.1651 41.1941C9.85662 40.7677 9.59954 40.1809 9.68781 39.646C9.73044 39.3875 9.84364 39.1414 10.0615 38.9861C10.3653 38.7696 10.7956 38.7514 11.151 38.8147C11.6052 38.8956 12.1476 39.1949 12.4839 39.5166C12.4887 39.5363 12.4846 39.5308 12.4956 39.5432C12.4984 39.5464 12.5017 39.5492 12.5044 39.5526C12.516 39.5676 12.521 39.5769 12.5372 39.5877C12.5421 39.5909 12.547 39.5941 12.5519 39.5973C12.4842 39.5893 12.3337 39.4639 12.2724 39.4232C11.9579 39.2151 11.6795 39.0974 11.3047 39.0445C11.1866 39.0279 11.0614 39.0154 10.9422 39.028C10.6481 39.0591 10.3451 39.1841 10.1554 39.418C9.83158 39.8174 9.90785 40.394 10.0607 40.8469C10.089 40.9306 10.1731 41.0918 10.1781 41.1669C10.1792 41.1839 10.1758 41.1823 10.1651 41.1941Z" fill="#F87537"/>
<path d="M5.25237 50.3662C4.81986 50.1692 4.39568 49.8615 4.11331 49.476C3.90015 49.185 3.72306 48.8409 3.78263 48.469C3.82201 48.223 3.96336 48.0192 4.16312 47.8744C4.60025 47.5573 5.20943 47.5147 5.72948 47.5958C5.70992 47.6187 5.70289 47.6221 5.67293 47.6253C5.5799 47.635 5.48515 47.6289 5.39146 47.6393C5.02902 47.6795 4.67349 47.823 4.42717 48.0995C4.24799 48.3006 4.15849 48.5507 4.17484 48.8199C4.20542 49.3236 4.56005 49.759 4.92621 50.0777C4.98994 50.1332 5.24352 50.3013 5.25237 50.3662Z" fill="#F87537"/>
<path d="M4.82285 41.5782C4.76243 41.4874 4.71502 41.3887 4.66899 41.29C4.51983 40.9703 4.43625 40.6504 4.50796 40.2972C4.57456 39.9693 4.78297 39.7174 5.05867 39.5373C5.67305 39.136 6.51972 39.078 7.22287 39.2293C7.71583 39.3354 8.08559 39.4993 8.49797 39.7926C8.49349 39.7946 8.48945 39.7982 8.48456 39.7987C8.4774 39.7995 8.40097 39.7573 8.38863 39.7519C8.25083 39.6911 8.11289 39.6285 7.97088 39.5782C7.93812 39.5667 7.90517 39.5558 7.87204 39.5455C7.83892 39.5351 7.80563 39.5253 7.77217 39.5161C7.73873 39.5068 7.70513 39.4982 7.67139 39.49C7.63764 39.4819 7.60378 39.4743 7.56978 39.4673C7.5358 39.4603 7.50171 39.4538 7.46751 39.448C7.4333 39.4421 7.39902 39.4368 7.36465 39.432C7.33026 39.4273 7.2958 39.4231 7.26128 39.4195C7.22677 39.4159 7.19221 39.4129 7.15759 39.4104C7.12297 39.4079 7.08833 39.406 7.05365 39.4047C7.01896 39.4034 6.98426 39.4027 6.94956 39.4025C6.91486 39.4024 6.88015 39.4028 6.84546 39.4038C6.81078 39.4048 6.77611 39.4063 6.74147 39.4085C6.70683 39.4106 6.67224 39.4133 6.63768 39.4166C6.60314 39.4199 6.56865 39.4237 6.53423 39.4282C6.49981 39.4326 6.46547 39.4376 6.43122 39.4431C6.39696 39.4487 6.36281 39.4548 6.32875 39.4615C5.78877 39.5725 5.2422 39.82 4.93206 40.2952C4.74293 40.585 4.67129 40.9347 4.74516 41.2734C4.7672 41.3744 4.81229 41.4701 4.8331 41.5693L4.82285 41.5782Z" fill="#F87537"/>
<path d="M5.25215 50.3663C5.2433 50.3014 4.98972 50.1333 4.92599 50.0778C4.55983 49.759 4.2052 49.3237 4.17462 48.82C4.15827 48.5508 4.24777 48.3007 4.42695 48.0996C4.67327 47.8231 5.0288 47.6796 5.39124 47.6393C5.48492 47.6289 5.57968 47.6351 5.67271 47.6253C5.70267 47.6222 5.7097 47.6188 5.72926 47.5959C5.8259 47.591 5.94294 47.6303 6.03505 47.6575C6.56777 47.8151 7.06966 48.1176 7.47989 48.4899C7.78718 48.7688 8.08551 49.1871 8.10546 49.6164C8.11666 49.8573 8.02876 50.0789 7.865 50.2544C7.59055 50.5485 7.12646 50.6602 6.73857 50.6716C6.3037 50.6844 5.88898 50.6175 5.48206 50.4634C5.40824 50.4355 5.31955 50.4067 5.25215 50.3663Z" fill="#F87537"/>
<path d="M10.1656 41.1938C10.1763 41.1819 10.1797 41.1836 10.1786 41.1665C10.1736 41.0914 10.0895 40.9302 10.0612 40.8465C9.90836 40.3936 9.83208 39.817 10.1559 39.4177C10.3456 39.1838 10.6486 39.0587 10.9427 39.0276C11.0619 39.0151 11.1871 39.0275 11.3052 39.0442C11.68 39.0971 11.9584 39.2147 12.2729 39.4229C12.3342 39.4635 12.4847 39.5889 12.5524 39.5969C12.5475 39.5937 12.5426 39.5906 12.5377 39.5873C12.5215 39.5765 12.5165 39.5672 12.5049 39.5522C12.5022 39.5488 12.4989 39.546 12.4961 39.5428C12.4851 39.5304 12.4892 39.536 12.4844 39.5162C12.6405 39.6471 12.7926 39.8219 12.9111 39.9868C13.2457 40.4521 13.5255 41.0825 13.4253 41.6656C13.3812 41.9221 13.2559 42.145 13.04 42.2942C12.7568 42.4898 12.3542 42.5184 12.0244 42.4586C11.2789 42.3233 10.5935 41.8105 10.1656 41.1938Z" fill="#F87537"/>
<path d="M4.82267 41.5784L4.83291 41.5694C4.8121 41.4703 4.76701 41.3746 4.74498 41.2736C4.6711 40.9349 4.74275 40.5852 4.93187 40.2954C5.24201 39.8202 5.78858 39.5726 6.32856 39.4617C6.36262 39.455 6.39677 39.4489 6.43103 39.4433C6.46529 39.4377 6.49962 39.4327 6.53404 39.4283C6.56846 39.4239 6.60295 39.42 6.63749 39.4167C6.67205 39.4135 6.70664 39.4107 6.74128 39.4086C6.77593 39.4065 6.81059 39.4049 6.84527 39.4039C6.87997 39.4029 6.91467 39.4025 6.94937 39.4027C6.98408 39.4028 7.01877 39.4036 7.05346 39.4049C7.08814 39.4062 7.12279 39.4081 7.1574 39.4105C7.19202 39.413 7.22659 39.416 7.2611 39.4196C7.29561 39.4232 7.33007 39.4274 7.36446 39.4322C7.39883 39.4369 7.43312 39.4422 7.46732 39.4481C7.50152 39.454 7.53562 39.4604 7.5696 39.4674C7.60359 39.4745 7.63746 39.482 7.6712 39.4902C7.70494 39.4983 7.73854 39.507 7.77198 39.5162C7.80544 39.5255 7.83873 39.5353 7.87185 39.5456C7.90498 39.556 7.93793 39.5669 7.97069 39.5783C8.11271 39.6287 8.25064 39.6913 8.38844 39.752C8.40078 39.7575 8.47721 39.7997 8.48437 39.7989C8.48926 39.7983 8.4933 39.7947 8.49778 39.7927C8.55876 39.8275 8.61542 39.88 8.66864 39.926C8.93085 40.1528 9.16863 40.4238 9.32828 40.733C9.51776 41.1 9.6283 41.5115 9.49615 41.9154C9.3579 42.3379 9.04309 42.6455 8.65166 42.8412C8.00884 43.1627 7.20092 43.1014 6.53662 42.8779C5.95585 42.6826 5.42973 42.3515 5.0373 41.8782C4.96155 41.7868 4.87564 41.6846 4.82267 41.5784Z" fill="#F87537"/>
<path d="M2.5119 43.1551C2.5193 43.1376 2.52935 43.1222 2.53921 43.1061C2.71301 42.8215 2.96247 42.6228 3.29021 42.5456C3.93308 42.394 4.70444 42.5987 5.25449 42.9443C5.97909 43.3996 6.61375 44.1759 6.80079 45.0227C6.90043 45.4736 6.88187 45.9654 6.62667 46.3635C6.45791 46.6177 6.25225 46.7953 5.95864 46.8905C5.35495 47.0862 4.65431 46.9896 4.09414 46.7041C3.35306 46.3264 2.74574 45.5944 2.48775 44.8066C2.31044 44.2651 2.24526 43.682 2.5119 43.1551Z" fill="#F87537"/>
<path d="M8.04716 44.5532C8.04834 44.5511 8.04948 44.549 8.0507 44.547C8.56395 43.6905 9.49299 43.2153 10.4349 42.988C11.7128 42.6796 13.6311 42.7747 14.7715 43.4766C15.2464 43.7688 15.5678 44.2664 15.6965 44.8031C15.9321 45.7857 15.7095 46.8699 15.3007 47.7767C15.1564 48.0968 14.9816 48.4017 14.7986 48.7009C14.3083 49.4702 13.7051 50.1364 12.9444 50.6443C12.6082 50.8688 12.2369 51.0629 11.8478 51.1768C11.2088 51.3638 10.564 51.37 9.96783 51.0418C9.71011 50.9 9.46765 50.7181 9.26815 50.5016C9.11168 50.3317 8.96283 50.1329 8.8431 49.9355C8.78036 49.8321 8.72512 49.7241 8.66296 49.6204C8.56766 49.4612 8.46586 49.3061 8.37397 49.1449C8.13608 48.7275 7.92646 48.2678 7.79372 47.8054C7.55608 46.9776 7.463 46.0188 7.74694 45.1895C7.82319 44.9667 7.93302 44.7583 8.04716 44.5532Z" fill="#F87537"/>
<path d="M10.2111 45.8561C10.1877 45.7798 10.1656 45.7025 10.1488 45.6245C10.0712 45.2632 10.1264 44.8738 10.3302 44.5616C10.526 44.2616 10.8587 44.0491 11.2085 43.9779C11.5876 43.9006 11.9748 43.992 12.2929 44.2047C13.0854 44.7347 13.3931 45.9725 13.5691 46.8564C13.6604 47.2943 13.6865 47.7348 13.7049 48.18L13.3859 48.2854C12.3533 48.6165 10.6633 49.0079 9.64587 48.4791C9.30535 48.3021 9.02482 48.004 8.91114 47.6335C8.79547 47.2565 8.84235 46.879 9.02663 46.5337C9.06488 46.4528 9.12921 46.3744 9.18881 46.3084C9.45565 46.0135 9.81937 45.8745 10.2111 45.8561Z" fill="#FAEDDE"/>
<path d="M58.3106 8.14678C58.6333 7.73096 59.1244 7.31951 59.6626 7.2541C59.9226 7.22246 60.1906 7.26203 60.4008 7.42756C60.6939 7.65838 60.8321 8.06621 60.8711 8.42519C60.9209 8.88383 60.7859 9.4884 60.5716 9.90146C60.554 9.91159 60.5581 9.9061 60.5493 9.92011C60.547 9.92374 60.5453 9.92772 60.5428 9.93121C60.5316 9.94658 60.5241 9.95397 60.5183 9.97255C60.5165 9.97815 60.5149 9.98379 60.5132 9.98941C60.5019 9.92215 60.58 9.74252 60.6018 9.67223C60.7133 9.31201 60.7481 9.01178 60.6937 8.63718C60.6765 8.51918 60.6533 8.39546 60.6078 8.28464C60.4954 8.01104 60.2903 7.7553 60.0126 7.63891C59.5384 7.44019 59.0064 7.67524 58.6146 7.94908C58.5422 7.99969 58.4111 8.1257 58.3404 8.15152C58.3243 8.15738 58.325 8.15366 58.3106 8.14678Z" fill="#F87537"/>
<path d="M48.1283 6.0059C48.196 5.53547 48.3723 5.04197 48.663 4.66275C48.8825 4.37649 49.163 4.10993 49.5367 4.06272C49.7839 4.03148 50.0191 4.10995 50.2142 4.26101C50.6413 4.59158 50.8531 5.16433 50.9213 5.68622C50.8938 5.67387 50.8885 5.66809 50.8771 5.64021C50.8416 5.55366 50.8209 5.46099 50.7847 5.37399C50.6443 5.03742 50.4068 4.73645 50.0723 4.57763C49.829 4.4621 49.5638 4.4464 49.31 4.53766C48.8352 4.70838 48.5168 5.17096 48.3136 5.61188C48.2782 5.68861 48.1881 5.97917 48.1283 6.0059Z" fill="#F87537"/>
<path d="M56.4424 3.12718C56.5126 3.04369 56.594 2.9705 56.6758 2.89861C56.9409 2.6657 57.2244 2.49569 57.5835 2.4654C57.917 2.43726 58.2172 2.56661 58.4675 2.78067C59.0251 3.25771 59.3184 4.05406 59.3705 4.77143C59.4071 5.27435 59.3536 5.67523 59.1878 6.15336C59.1846 6.14963 59.1801 6.14675 59.1782 6.14221C59.1754 6.13557 59.1944 6.05037 59.1962 6.03699C59.2158 5.88768 59.2372 5.73772 59.2457 5.58728C59.2474 5.55263 59.2487 5.51795 59.2493 5.48325C59.2499 5.44855 59.25 5.41384 59.2495 5.37913C59.249 5.34444 59.2479 5.30976 59.2462 5.27508C59.2445 5.24042 59.2423 5.20579 59.2395 5.17119C59.2367 5.13661 59.2333 5.10208 59.2294 5.0676C59.2254 5.03312 59.2209 4.99872 59.2158 4.9644C59.2107 4.93006 59.205 4.89581 59.1988 4.86167C59.1926 4.82753 59.1858 4.79351 59.1784 4.75959C59.1711 4.72568 59.1632 4.69189 59.1547 4.65824C59.1462 4.62458 59.1372 4.59107 59.1276 4.55772C59.118 4.52436 59.1079 4.49117 59.0972 4.45815C59.0865 4.42514 59.0753 4.39231 59.0635 4.35966C59.0517 4.32701 59.0394 4.29457 59.0265 4.26232C59.0137 4.23009 59.0003 4.19807 58.9864 4.16627C58.9725 4.13448 58.9581 4.10293 58.9431 4.07161C58.9282 4.04029 58.9127 4.00923 58.8967 3.97842C58.6386 3.49129 58.2477 3.03617 57.7045 2.87188C57.3733 2.7717 57.0175 2.80109 56.7132 2.96706C56.6224 3.01656 56.5432 3.08669 56.4539 3.13451L56.4424 3.12718Z" fill="#F87537"/>
<path d="M48.128 6.00584C48.1879 5.97911 48.278 5.68855 48.3134 5.61181C48.5166 5.1709 48.8349 4.70832 49.3097 4.5376C49.5636 4.44634 49.8287 4.46204 50.0721 4.57757C50.4065 4.73638 50.644 5.03735 50.7844 5.37393C50.8207 5.46092 50.8414 5.5536 50.8769 5.64014C50.8883 5.66802 50.8935 5.67381 50.921 5.68615C50.9528 5.77755 50.948 5.9009 50.9477 5.99695C50.946 6.55249 50.7965 7.11912 50.5543 7.61734C50.3729 7.99056 50.0551 8.39431 49.6487 8.53395C49.4206 8.61232 49.1832 8.59015 48.9688 8.48223C48.6095 8.30137 48.372 7.88728 48.2522 7.51819C48.1179 7.10439 48.0657 6.68756 48.0994 6.25375C48.1054 6.17507 48.1082 6.08185 48.128 6.00584Z" fill="#F87537"/>
<path d="M58.3109 8.14715C58.3253 8.15403 58.3246 8.15774 58.3407 8.15189C58.4114 8.12608 58.5425 8.00006 58.6149 7.94945C59.0067 7.67562 59.5387 7.44056 60.0129 7.63928C60.2906 7.75567 60.4957 8.01141 60.6081 8.28501C60.6536 8.39584 60.6768 8.51955 60.694 8.63755C60.7484 9.01214 60.7136 9.31238 60.6021 9.6726C60.5803 9.74289 60.5022 9.92252 60.5135 9.98978C60.5152 9.98416 60.5168 9.97852 60.5186 9.97292C60.5244 9.95435 60.5319 9.94695 60.5431 9.93158C60.5456 9.9281 60.5473 9.92411 60.5496 9.92048C60.5584 9.90647 60.5542 9.91196 60.5719 9.90184C60.4901 10.0884 60.3649 10.2834 60.24 10.4435C59.8873 10.8952 59.3607 11.3408 58.773 11.4082C58.5144 11.4378 58.2653 11.3802 58.0615 11.2148C57.7943 10.9979 57.6538 10.6195 57.6187 10.2862C57.5392 9.53269 57.8391 8.73093 58.3109 8.14715Z" fill="#F87537"/>
<path d="M56.4423 3.12704L56.4537 3.13437C56.5431 3.08656 56.6223 3.01642 56.713 2.96693C57.0174 2.80096 57.3732 2.77157 57.7044 2.87174C58.2476 3.03603 58.6385 3.49116 58.8966 3.97829C58.9126 4.00909 58.928 4.04015 58.943 4.07147C58.958 4.10279 58.9724 4.13435 58.9863 4.16614C59.0002 4.19793 59.0136 4.22995 59.0264 4.26219C59.0393 4.29443 59.0516 4.32687 59.0634 4.35952C59.0751 4.39217 59.0864 4.42501 59.0971 4.45801C59.1077 4.49104 59.1179 4.52423 59.1275 4.55758C59.1371 4.59093 59.1461 4.62445 59.1546 4.65811C59.163 4.69176 59.171 4.72554 59.1783 4.75946C59.1857 4.79337 59.1925 4.8274 59.1987 4.86154C59.2049 4.89568 59.2106 4.92992 59.2157 4.96426C59.2208 4.99858 59.2253 5.03298 59.2292 5.06746C59.2332 5.10194 59.2366 5.13648 59.2394 5.17106C59.2422 5.20565 59.2444 5.24028 59.2461 5.27495C59.2478 5.30962 59.2489 5.3443 59.2494 5.379C59.2499 5.41371 59.2498 5.44841 59.2492 5.48311C59.2485 5.51781 59.2473 5.55249 59.2456 5.58714C59.2371 5.73758 59.2157 5.88754 59.1961 6.03686C59.1943 6.05023 59.1753 6.13543 59.1781 6.14208C59.18 6.14661 59.1845 6.1495 59.1877 6.15322C59.1714 6.22152 59.137 6.29063 59.1077 6.35464C58.9637 6.66995 58.7703 6.97423 58.5184 7.21424C58.2193 7.49912 57.8554 7.72072 57.4306 7.70724C56.9863 7.69314 56.6027 7.47733 56.3049 7.15658C55.816 6.62982 55.6481 5.83717 55.6761 5.13686C55.7005 4.52461 55.8706 3.92671 56.2148 3.4172C56.2812 3.31884 56.3552 3.20771 56.4423 3.12704Z" fill="#F87537"/>
<path d="M54.2803 1.35165C54.2991 1.35386 54.3167 1.35918 54.335 1.36411C54.6569 1.45106 54.9176 1.63473 55.0838 1.9276C55.4097 2.50208 55.4298 3.29988 55.2524 3.92483C55.0188 4.7481 54.4518 5.57515 53.6916 5.99233C53.2867 6.21454 52.8095 6.33477 52.3558 6.20154C52.0644 6.11094 51.8363 5.96339 51.6625 5.70829C51.3052 5.1838 51.2012 4.48422 51.3181 3.86643C51.4726 3.04912 52.0047 2.26076 52.6884 1.79201C53.1584 1.46985 53.6998 1.24362 54.2803 1.35165Z" fill="#F87537"/>
<path d="M54.4919 7.05674C54.4942 7.05729 54.4965 7.05779 54.4988 7.0584C55.465 7.31061 56.1818 8.06895 56.6643 8.90921C57.319 10.0492 57.7661 11.917 57.4126 13.2086C57.2654 13.7464 56.878 14.1946 56.399 14.4687C55.522 14.9707 54.419 15.0613 53.4339 14.9235C53.0862 14.8748 52.7444 14.7927 52.4059 14.7009C51.5299 14.4463 50.7212 14.0544 50.0202 13.4668C49.7104 13.2071 49.4198 12.9052 49.2013 12.5637C48.8425 12.0029 48.6556 11.3858 48.8032 10.7214C48.867 10.4343 48.9734 10.1505 49.1253 9.89825C49.2444 9.70039 49.3935 9.50172 49.5493 9.3314C49.631 9.24216 49.7191 9.15884 49.8012 9.07005C49.9272 8.93392 50.0475 8.79266 50.1765 8.65922C50.5103 8.31374 50.8927 7.98352 51.2993 7.72632C52.0271 7.26588 52.9212 6.90744 53.7969 6.94719C54.0321 6.95785 54.2629 7.00477 54.4919 7.05674Z" fill="#F87537"/>
<path d="M53.8489 9.49952C53.9156 9.45566 53.9835 9.4128 54.0537 9.37481C54.3787 9.19892 54.768 9.14257 55.1248 9.25055C55.4677 9.35428 55.765 9.61398 55.9316 9.92968C56.1121 10.2719 56.1331 10.6691 56.0182 11.0342C55.732 11.9435 54.6303 12.5864 53.8314 13.0034C53.4367 13.2138 53.0212 13.3625 52.5991 13.5052L52.4083 13.2286C51.8007 12.3305 50.9507 10.8182 51.1727 9.69328C51.247 9.31678 51.4543 8.96386 51.7781 8.75075C52.1075 8.5339 52.4829 8.47295 52.8661 8.55289C52.9544 8.56692 53.0478 8.60663 53.1278 8.64534C53.4858 8.81867 53.7213 9.12876 53.8489 9.49952Z" fill="#FAEDDE"/>
</svg>
