<svg width="63" height="56" viewBox="0 0 63 56" fill="none" xmlns="http://www.w3.org/2000/svg">
<path d="M19.3064 33.6223C19.421 32.6662 19.3109 31.4994 18.6946 30.7223C18.3968 30.3467 17.9971 30.0537 17.5107 29.9989C16.8325 29.9225 16.1282 30.2755 15.6159 30.6926C14.9614 31.2254 14.3599 32.1859 14.1077 32.9991C14.1176 33.0349 14.1192 33.0224 14.1127 33.0519C14.111 33.0596 14.1082 33.067 14.107 33.0748C14.1017 33.1091 14.102 33.1284 14.0857 33.1601C14.0808 33.1696 14.0757 33.1791 14.0706 33.1886C14.1718 33.1156 14.3011 32.7813 14.3632 32.6619C14.6811 32.0496 15.0219 31.6142 15.5743 31.1966C15.7484 31.0651 15.9376 30.9339 16.1394 30.8482C16.6374 30.6366 17.2332 30.5675 17.7442 30.7731C18.6169 31.1241 19.0071 32.1141 19.1649 32.9742C19.1941 33.1332 19.2027 33.4657 19.2615 33.5902C19.2749 33.6185 19.2788 33.6128 19.3064 33.6223Z" fill="#F87537"/>
<path d="M35.313 43.9276C35.8297 43.2283 36.2347 42.3594 36.3439 41.492C36.4264 40.8373 36.4039 40.1296 35.9783 39.5878C35.6968 39.2293 35.2898 39.029 34.8416 38.9747C33.8608 38.8559 32.8487 39.329 32.089 39.9206C32.1406 39.9398 32.1549 39.9391 32.2056 39.9175C32.3631 39.8505 32.5091 39.7564 32.6682 39.6898C33.2836 39.4323 33.9797 39.3459 34.6192 39.5693C35.0844 39.7318 35.4497 40.0523 35.6627 40.4974C36.0612 41.3301 35.8808 42.3414 35.5783 43.1765C35.5257 43.3219 35.2694 43.8159 35.313 43.9276Z" fill="#F87537"/>
<path d="M28.1924 29.4913C28.2084 29.2923 28.1965 29.0924 28.1825 28.8937C28.137 28.2498 27.9866 27.6639 27.5582 27.1628C27.1603 26.6974 26.6033 26.4798 26.0024 26.4366C24.6633 26.3406 23.2576 26.9998 22.2675 27.8665C21.5733 28.4741 21.1275 29.0646 20.7285 29.8999C20.7375 29.8992 20.7471 29.9013 20.7554 29.8979C20.7676 29.8928 20.8523 29.7575 20.8672 29.7378C21.0336 29.5182 21.1986 29.2955 21.381 29.0889C21.4233 29.0415 21.4663 28.9948 21.5101 28.9488C21.5539 28.9028 21.5984 28.8576 21.6437 28.8131C21.689 28.7686 21.735 28.7248 21.7817 28.6818C21.8285 28.6389 21.8759 28.5967 21.9241 28.5553C21.9722 28.5139 22.021 28.4733 22.0704 28.4335C22.1199 28.3937 22.17 28.3547 22.2208 28.3166C22.2716 28.2785 22.323 28.2412 22.375 28.2048C22.427 28.1683 22.4796 28.1328 22.5327 28.0981C22.5859 28.0634 22.6397 28.0296 22.694 27.9967C22.7483 27.9638 22.8031 27.9318 22.8585 27.9007C22.9138 27.8696 22.9697 27.8395 23.0261 27.8102C23.0824 27.781 23.1392 27.7527 23.1965 27.7254C23.2538 27.698 23.3116 27.6716 23.3698 27.6462C23.4279 27.6207 23.4865 27.5963 23.5455 27.5728C23.6045 27.5493 23.6638 27.5268 23.7235 27.5052C23.7833 27.4837 23.8433 27.4632 23.9037 27.4436C24.8659 27.1414 25.96 27.0518 26.8781 27.5363C27.438 27.8318 27.8632 28.3275 28.0459 28.9348C28.1004 29.1159 28.1133 29.309 28.1681 29.4861L28.1924 29.4913Z" fill="#F87537"/>
<path d="M35.3133 43.9277C35.2697 43.816 35.526 43.3219 35.5786 43.1766C35.8811 42.3415 36.0615 41.3302 35.663 40.4975C35.45 40.0523 35.0847 39.7318 34.6195 39.5694C33.98 39.346 33.2839 39.4323 32.6685 39.6899C32.5094 39.7565 32.3633 39.8505 32.2059 39.9175C32.1552 39.9391 32.1409 39.9399 32.0893 39.9207C31.9303 39.9987 31.778 40.1655 31.6549 40.2908C30.9429 41.0161 30.409 41.9458 30.0836 42.9056C29.8398 43.6246 29.7343 44.5586 30.0837 45.2628C30.2798 45.6581 30.6172 45.9345 31.035 46.0697C31.7352 46.2963 32.5767 46.0626 33.2071 45.7363C33.914 45.3705 34.5178 44.8951 35.0318 44.2872C35.125 44.177 35.2413 44.0521 35.3133 43.9277Z" fill="white"/>
<path d="M19.3063 33.6222C19.2787 33.6127 19.2747 33.6183 19.2614 33.5901C19.2026 33.4656 19.194 33.1331 19.1648 32.9741C19.007 32.1139 18.6168 31.124 17.7441 30.773C17.2331 30.5674 16.6373 30.6365 16.1393 30.8481C15.9375 30.9338 15.7483 31.065 15.5742 31.1965C15.0217 31.6141 14.681 32.0495 14.363 32.6618C14.301 32.7812 14.1717 33.1155 14.0705 33.1885C14.0756 33.179 14.0807 33.1695 14.0856 33.16C14.1019 33.1283 14.1016 33.109 14.1069 33.0747C14.1081 33.0669 14.1109 33.0595 14.1126 33.0518C14.1191 33.0223 14.1175 33.0348 14.1076 32.999C13.9741 33.3469 13.8863 33.7617 13.8431 34.1306C13.7214 35.172 13.8338 36.4289 14.5121 37.2723C14.8105 37.6433 15.2088 37.8886 15.6867 37.9354C16.3133 37.9966 16.9827 37.6848 17.457 37.2961C18.5291 36.4176 19.1697 34.9886 19.3063 33.6222Z" fill="white"/>
<path d="M28.1919 29.4913L28.1676 29.4862C28.1128 29.309 28.0999 29.1159 28.0454 28.9349C27.8627 28.3275 27.4375 27.8319 26.8776 27.5364C25.9594 27.0518 24.8654 27.1415 23.9032 27.4437C23.8428 27.4632 23.7827 27.4838 23.723 27.5053C23.6633 27.5268 23.6039 27.5493 23.545 27.5728C23.486 27.5963 23.4274 27.6208 23.3692 27.6462C23.311 27.6717 23.2533 27.6981 23.196 27.7254C23.1387 27.7528 23.0819 27.7811 23.0255 27.8103C22.9692 27.8395 22.9133 27.8697 22.8579 27.9008C22.8026 27.9319 22.7477 27.9639 22.6934 27.9968C22.6391 28.0297 22.5854 28.0635 22.5322 28.0981C22.479 28.1328 22.4264 28.1684 22.3744 28.2048C22.3224 28.2412 22.271 28.2785 22.2203 28.3167C22.1695 28.3548 22.1194 28.3938 22.0699 28.4335C22.0204 28.4733 21.9716 28.5139 21.9235 28.5553C21.8754 28.5967 21.8279 28.6389 21.7812 28.6819C21.7345 28.7249 21.6884 28.7686 21.6432 28.8131C21.5979 28.8576 21.5533 28.9029 21.5096 28.9489C21.4658 28.9948 21.4228 29.0415 21.3805 29.0889C21.1981 29.2956 21.0331 29.5182 20.8667 29.7378C20.8518 29.7575 20.7671 29.8929 20.7549 29.8979C20.7466 29.9014 20.7369 29.8993 20.7279 29.9C20.6614 30.0099 20.6173 30.1441 20.5731 30.265C20.3552 30.8606 20.2156 31.5052 20.2349 32.1415C20.2579 32.8968 20.4466 33.6531 21.0168 34.1817C21.6132 34.7346 22.3899 34.947 23.1898 34.9123C24.5035 34.8554 25.7411 34.0397 26.6051 33.0923C27.3604 32.2639 27.9078 31.2671 28.1149 30.1615C28.1549 29.948 28.2016 29.7083 28.1919 29.4913Z" fill="white"/>
<path d="M33.2892 29.9603C33.2619 29.939 33.2321 29.9233 33.202 29.9062C32.6713 29.6055 32.0958 29.5093 31.503 29.6769C30.3402 30.0055 29.2884 31.0181 28.7157 32.0594C27.9612 33.4313 27.6358 35.2366 28.0888 36.757C28.33 37.5668 28.7965 38.3368 29.5583 38.7467C30.054 39.0035 30.5407 39.1047 31.0948 38.9962C32.2342 38.7729 33.269 37.9961 33.9112 37.0419C34.7609 35.7795 35.0821 34.0693 34.7948 32.5801C34.5974 31.5567 34.1837 30.5661 33.2892 29.9603Z" fill="white"/>
<path d="M25.6776 37.1132C25.6738 37.1109 25.6701 37.1086 25.6664 37.1064C24.0847 36.1925 22.1768 36.2579 20.4684 36.731C18.1507 37.3729 15.1672 39.229 13.9667 41.3645C13.4669 42.2537 13.3948 43.335 13.6658 44.3078C14.1617 46.0885 15.4808 47.6248 16.9401 48.7119C17.4552 49.0957 18.0056 49.4281 18.5641 49.7439C20.0317 50.5389 21.588 51.0685 23.2559 51.2051C23.993 51.2655 24.7593 51.2461 25.4826 51.0826C26.6707 50.8142 27.7075 50.2512 28.3695 49.1968C28.6557 48.741 28.882 48.2349 29.0087 47.7113C29.108 47.3006 29.1695 46.8504 29.1856 46.4284C29.1941 46.2073 29.1866 45.9855 29.1938 45.7643C29.2049 45.4252 29.2299 45.0866 29.2336 44.7472C29.2433 43.8683 29.1702 42.9469 28.9718 42.0895C28.6165 40.5544 27.9137 38.9383 26.7229 37.8642C26.4031 37.5757 26.0423 37.3399 25.6776 37.1132Z" fill="white"/>
<path d="M23.3758 41.1193C23.3454 40.9765 23.3121 40.8334 23.2696 40.6937C23.0728 40.0469 22.6386 39.4731 22.0353 39.1548C21.4557 38.849 20.7348 38.8047 20.1122 39.0014C19.4372 39.2147 18.8992 39.7047 18.5794 40.3275C17.7827 41.8791 18.39 44.1322 18.8937 45.7021C19.1367 46.4834 19.4863 47.2112 19.8522 47.9396L20.4562 47.8248C22.4016 47.4371 25.4523 46.5619 26.6097 44.8123C26.9971 44.2268 27.181 43.5009 27.0337 42.8073C26.8837 42.1015 26.4735 41.5395 25.872 41.1509C25.739 41.0556 25.5664 40.9872 25.4125 40.9347C24.7238 40.7001 24.0186 40.8009 23.3758 41.1193Z" fill="#F87537"/>
<path d="M52.3143 41.1941C52.6229 40.7676 52.88 40.1809 52.7917 39.6459C52.749 39.3874 52.6359 39.1414 52.418 38.9861C52.1142 38.7696 51.6839 38.7513 51.3284 38.8147C50.8743 38.8956 50.3319 39.1949 49.9956 39.5165C49.9908 39.5363 49.9949 39.5307 49.9839 39.5431C49.9811 39.5463 49.9778 39.5491 49.9751 39.5525C49.9635 39.5675 49.9585 39.5768 49.9423 39.5876C49.9374 39.5909 49.9325 39.5941 49.9276 39.5973C49.9953 39.5892 50.1458 39.4638 50.2071 39.4232C50.5216 39.215 50.8 39.0974 51.1748 39.0445C51.2929 39.0278 51.4181 39.0154 51.5373 39.028C51.8314 39.059 52.1344 39.1841 52.3241 39.418C52.6479 39.8173 52.5716 40.3939 52.4188 40.8469C52.3905 40.9306 52.3064 41.0918 52.3014 41.1668C52.3003 41.1839 52.3037 41.1822 52.3143 41.1941Z" fill="white"/>
<path d="M57.2276 50.3662C57.6601 50.1692 58.0843 49.8614 58.3667 49.476C58.5798 49.185 58.7569 48.8409 58.6974 48.469C58.658 48.223 58.5166 48.0192 58.3169 47.8743C57.8797 47.5573 57.2706 47.5147 56.7505 47.5958C56.7701 47.6187 56.7771 47.6221 56.8071 47.6252C56.9001 47.635 56.9948 47.6288 57.0885 47.6392C57.451 47.6795 57.8065 47.823 58.0528 48.0994C58.232 48.3005 58.3215 48.5506 58.3051 48.8199C58.2746 49.3235 57.9199 49.7589 57.5538 50.0777C57.49 50.1332 57.2365 50.3012 57.2276 50.3662Z" fill="white"/>
<path d="M57.6569 41.5782C57.7173 41.4874 57.7647 41.3887 57.8107 41.29C57.9599 40.9703 58.0435 40.6504 57.9718 40.2972C57.9052 39.9693 57.6968 39.7174 57.4211 39.5373C56.8067 39.136 55.96 39.078 55.2569 39.2293C54.7639 39.3354 54.3941 39.4993 53.9818 39.7926C53.9862 39.7946 53.9903 39.7982 53.9952 39.7987C54.0023 39.7995 54.0788 39.7573 54.0911 39.7519C54.2289 39.6911 54.3668 39.6285 54.5089 39.5782C54.5416 39.5667 54.5746 39.5558 54.6077 39.5455C54.6408 39.5351 54.6741 39.5253 54.7076 39.5161C54.741 39.5068 54.7746 39.4982 54.8083 39.49C54.8421 39.4819 54.876 39.4743 54.91 39.4673C54.9439 39.4603 54.978 39.4538 55.0122 39.448C55.0464 39.4421 55.0807 39.4368 55.1151 39.432C55.1495 39.4273 55.1839 39.4231 55.2185 39.4195C55.253 39.4159 55.2875 39.4129 55.3221 39.4104C55.3568 39.4079 55.3914 39.406 55.4261 39.4047C55.4608 39.4034 55.4955 39.4027 55.5302 39.4025C55.5649 39.4024 55.5996 39.4028 55.6343 39.4038C55.669 39.4048 55.7036 39.4063 55.7383 39.4085C55.7729 39.4106 55.8075 39.4133 55.8421 39.4166C55.8766 39.4199 55.9111 39.4237 55.9455 39.4282C55.9799 39.4326 56.0143 39.4376 56.0485 39.4431C56.0828 39.4487 56.1169 39.4548 56.151 39.4615C56.691 39.5725 57.2375 39.82 57.5477 40.2952C57.7368 40.585 57.8084 40.9347 57.7346 41.2734C57.7125 41.3744 57.6674 41.4701 57.6466 41.5693L57.6569 41.5782Z" fill="white"/>
<path d="M57.2273 50.3663C57.2362 50.3014 57.4898 50.1333 57.5535 50.0778C57.9197 49.759 58.2743 49.3237 58.3049 48.82C58.3212 48.5508 58.2317 48.3007 58.0525 48.0996C57.8062 47.8231 57.4507 47.6796 57.0882 47.6393C56.9946 47.6289 56.8998 47.6351 56.8068 47.6253C56.7768 47.6222 56.7698 47.6188 56.7502 47.5959C56.6536 47.591 56.5366 47.6303 56.4444 47.6575C55.9117 47.8151 55.4098 48.1176 54.9996 48.4899C54.6923 48.7688 54.394 49.1871 54.374 49.6164C54.3628 49.8573 54.4507 50.0789 54.6145 50.2544C54.8889 50.5485 55.353 50.6602 55.7409 50.6716C56.1758 50.6844 56.5905 50.6175 56.9974 50.4634C57.0712 50.4355 57.1599 50.4067 57.2273 50.3663Z" fill="white"/>
<path d="M52.3136 41.1938C52.303 41.1819 52.2996 41.1835 52.3007 41.1665C52.3056 41.0914 52.3898 40.9302 52.418 40.8465C52.5709 40.3936 52.6472 39.817 52.3233 39.4176C52.1337 39.1838 51.8307 39.0587 51.5365 39.0276C51.4174 39.015 51.2921 39.0275 51.174 39.0441C50.7992 39.097 50.5208 39.2147 50.2064 39.4229C50.145 39.4635 49.9946 39.5889 49.9268 39.5969C49.9317 39.5937 49.9367 39.5906 49.9416 39.5873C49.9578 39.5765 49.9628 39.5672 49.9744 39.5522C49.977 39.5488 49.9803 39.546 49.9832 39.5428C49.9942 39.5304 49.9901 39.5359 49.9948 39.5162C49.8387 39.647 49.6867 39.8219 49.5681 39.9868C49.2336 40.4521 48.9537 41.0825 49.054 41.6655C49.0981 41.9221 49.2233 42.145 49.4393 42.2942C49.7224 42.4897 50.1251 42.5184 50.4549 42.4585C51.2003 42.3233 51.8857 41.8104 52.3136 41.1938Z" fill="white"/>
<path d="M57.6568 41.5784L57.6466 41.5695C57.6674 41.4703 57.7125 41.3746 57.7345 41.2736C57.8084 40.9349 57.7367 40.5852 57.5476 40.2954C57.2375 39.8202 56.6909 39.5727 56.1509 39.4617C56.1169 39.455 56.0827 39.4489 56.0485 39.4433C56.0142 39.4377 55.9799 39.4327 55.9455 39.4283C55.911 39.4239 55.8765 39.42 55.842 39.4168C55.8074 39.4135 55.7728 39.4108 55.7382 39.4086C55.7036 39.4065 55.6689 39.4049 55.6342 39.4039C55.5995 39.4029 55.5648 39.4025 55.5301 39.4027C55.4954 39.4029 55.4607 39.4036 55.426 39.4049C55.3914 39.4062 55.3567 39.4081 55.3221 39.4106C55.2875 39.413 55.2529 39.416 55.2184 39.4197C55.1839 39.4233 55.1494 39.4274 55.115 39.4322C55.0807 39.4369 55.0464 39.4422 55.0122 39.4481C54.978 39.454 54.9439 39.4605 54.9099 39.4675C54.8759 39.4745 54.842 39.482 54.8083 39.4902C54.7745 39.4983 54.741 39.507 54.7075 39.5163C54.6741 39.5255 54.6408 39.5353 54.6076 39.5457C54.5745 39.556 54.5416 39.5669 54.5088 39.5783C54.3668 39.6287 54.2289 39.6913 54.0911 39.752C54.0787 39.7575 54.0023 39.7997 53.9951 39.7989C53.9902 39.7983 53.9862 39.7948 53.9817 39.7927C53.9207 39.8275 53.8641 39.88 53.8109 39.926C53.5486 40.1528 53.3109 40.4238 53.1512 40.733C52.9617 41.1 52.8512 41.5115 52.9833 41.9154C53.1216 42.3379 53.4364 42.6455 53.8278 42.8413C54.4707 43.1627 55.2786 43.1014 55.9429 42.8779C56.5236 42.6826 57.0498 42.3515 57.4422 41.8782C57.5179 41.7868 57.6039 41.6846 57.6568 41.5784Z" fill="white"/>
<path d="M59.9676 43.1551C59.9602 43.1376 59.9501 43.1222 59.9403 43.1061C59.7665 42.8215 59.517 42.6228 59.1893 42.5456C58.5464 42.394 57.7751 42.5987 57.225 42.9443C56.5004 43.3996 55.8657 44.1759 55.6787 45.0227C55.5791 45.4736 55.5976 45.9654 55.8528 46.3635C56.0216 46.6177 56.2272 46.7953 56.5209 46.8905C57.1245 47.0862 57.8252 46.9896 58.3854 46.7041C59.1264 46.3264 59.7338 45.5944 59.9917 44.8066C60.169 44.2651 60.2342 43.682 59.9676 43.1551Z" fill="white"/>
<path d="M54.4328 44.5532C54.4316 44.5511 54.4305 44.549 54.4293 44.547C53.916 43.6905 52.987 43.2153 52.0451 42.988C50.7672 42.6796 48.8489 42.7747 47.7085 43.4766C47.2336 43.7688 46.9122 44.2664 46.7835 44.8031C46.5479 45.7857 46.7705 46.8699 47.1793 47.7767C47.3236 48.0968 47.4984 48.4017 47.6814 48.7009C48.1717 49.4702 48.7748 50.1364 49.5356 50.6443C49.8718 50.8688 50.2431 51.0629 50.6322 51.1768C51.2711 51.3638 51.9159 51.37 52.5121 51.0418C52.7699 50.9 53.0123 50.7181 53.2118 50.5016C53.3683 50.3317 53.5172 50.1329 53.6369 49.9355C53.6996 49.8321 53.7549 49.7241 53.817 49.6204C53.9123 49.4612 54.0141 49.3061 54.106 49.1449C54.3439 48.7275 54.5535 48.2678 54.6863 47.8054C54.9239 46.9776 55.017 46.0188 54.733 45.1895C54.6568 44.9667 54.547 44.7583 54.4328 44.5532Z" fill="white"/>
<path d="M52.2684 45.8561C52.2918 45.7798 52.3139 45.7025 52.3306 45.6245C52.4083 45.2632 52.3531 44.8738 52.1493 44.5616C51.9535 44.2616 51.6208 44.0491 51.271 43.9779C50.8919 43.9006 50.5047 43.992 50.1866 44.2047C49.3941 44.7347 49.0864 45.9725 48.9104 46.8564C48.8191 47.2943 48.793 47.7348 48.7746 48.18L49.0936 48.2854C50.1262 48.6165 51.8162 49.0079 52.8336 48.4791C53.1741 48.3021 53.4547 48.004 53.5684 47.6335C53.684 47.2565 53.6371 46.879 53.4529 46.5337C53.4146 46.4528 53.3503 46.3744 53.2907 46.3084C53.0238 46.0135 52.6601 45.8745 52.2684 45.8561Z" fill="#F87537"/>
<path d="M4.16889 8.14677C3.84616 7.73095 3.35512 7.3195 2.81693 7.25408C2.55686 7.22245 2.28891 7.26202 2.0787 7.42754C1.78562 7.65836 1.64736 8.06619 1.60837 8.42518C1.55857 8.88382 1.6936 9.48839 1.90792 9.90145C1.92553 9.91157 1.92136 9.90609 1.93017 9.92009C1.93245 9.92373 1.93421 9.92771 1.93672 9.9312C1.94787 9.94656 1.95538 9.95396 1.96121 9.97254C1.96297 9.97814 1.96462 9.98377 1.96631 9.98939C1.97762 9.92213 1.89949 9.7425 1.87772 9.67221C1.76616 9.31199 1.73138 9.01176 1.78582 8.63716C1.80297 8.51916 1.82618 8.39545 1.8717 8.28462C1.9841 8.01103 2.18919 7.75529 2.4669 7.63889C2.94108 7.44018 3.4731 7.67523 3.86491 7.94906C3.93732 7.99967 4.06841 8.12569 4.13909 8.1515C4.15515 8.15736 4.15452 8.15365 4.16889 8.14677Z" fill="#F87537"/>
<path d="M14.3512 6.00593C14.2835 5.5355 14.1072 5.042 13.8165 4.66278C13.597 4.37652 13.3165 4.10996 12.9428 4.06275C12.6956 4.03151 12.4604 4.10998 12.2653 4.26104C11.8382 4.59161 11.6264 5.16436 11.5582 5.68625C11.5857 5.6739 11.591 5.66812 11.6024 5.64024C11.6379 5.55369 11.6585 5.46102 11.6948 5.37402C11.8352 5.03745 12.0727 4.73648 12.4072 4.57767C12.6505 4.46213 12.9157 4.44643 13.1695 4.53769C13.6443 4.70841 13.9627 5.17099 14.1659 5.61191C14.2012 5.68864 14.2914 5.9792 14.3512 6.00593Z" fill="#F87537"/>
<path d="M6.03731 3.12721C5.96709 3.04372 5.8857 2.97053 5.80391 2.89865C5.53886 2.66573 5.2553 2.49572 4.89622 2.46543C4.56273 2.43729 4.26249 2.56664 4.01226 2.7807C3.45464 3.25774 3.16129 4.05409 3.1092 4.77146C3.07268 5.27438 3.12614 5.67527 3.29189 6.15339C3.29511 6.14966 3.29967 6.14678 3.30156 6.14224C3.30436 6.1356 3.28532 6.0504 3.28355 6.03702C3.26391 5.88771 3.24254 5.73775 3.23407 5.58731C3.23229 5.55266 3.23108 5.51798 3.23045 5.48328C3.22981 5.44858 3.22975 5.41387 3.23026 5.37917C3.23077 5.34447 3.23186 5.30979 3.23352 5.27511C3.23519 5.24045 3.23743 5.20582 3.24024 5.17122C3.24306 5.13664 3.24643 5.10211 3.25038 5.06763C3.25435 5.03315 3.25887 4.99875 3.26395 4.96443C3.26905 4.93009 3.27471 4.89584 3.28094 4.8617C3.28717 4.82757 3.29396 4.79354 3.30131 4.75962C3.30867 4.72571 3.31658 4.69193 3.32506 4.65827C3.33354 4.62461 3.34257 4.5911 3.35216 4.55775C3.36174 4.52439 3.37188 4.4912 3.38257 4.45818C3.39326 4.42517 3.40448 4.39234 3.41625 4.35969C3.42803 4.32704 3.44034 4.2946 3.45319 4.26236C3.46603 4.23012 3.47941 4.1981 3.49333 4.1663C3.50723 4.13451 3.52167 4.10296 3.53662 4.07164C3.55158 4.04032 3.56705 4.00926 3.58303 3.97845C3.8411 3.49133 4.23208 3.0362 4.77524 2.87191C5.10648 2.77173 5.46223 2.80112 5.76658 2.96709C5.85733 3.01659 5.93651 3.08673 6.02588 3.13454L6.03731 3.12721Z" fill="#F87537"/>
<path d="M14.3512 6.00585C14.2914 5.97912 14.2012 5.68856 14.1659 5.61183C13.9627 5.17091 13.6443 4.70833 13.1695 4.53761C12.9157 4.44635 12.6505 4.46205 12.4072 4.57758C12.0727 4.7364 11.8352 5.03737 11.6948 5.37394C11.6586 5.46094 11.6379 5.55362 11.6024 5.64016C11.591 5.66803 11.5857 5.67382 11.5582 5.68617C11.5264 5.77756 11.5313 5.90091 11.5316 5.99696C11.5333 6.5525 11.6828 7.11913 11.925 7.61736C12.1064 7.99058 12.4241 8.39432 12.8305 8.53396C13.0587 8.61233 13.296 8.59017 13.5104 8.48225C13.8697 8.30139 14.1072 7.8873 14.227 7.51821C14.3614 7.10441 14.4135 6.68758 14.3799 6.25377C14.3738 6.17508 14.371 6.08186 14.3512 6.00585Z" fill="#F87537"/>
<path d="M4.16861 8.14716C4.15422 8.15404 4.15485 8.15776 4.13881 8.1519C4.06813 8.12609 3.93704 8.00007 3.86463 7.94946C3.47282 7.67563 2.9408 7.44058 2.46662 7.63929C2.18891 7.75569 1.98382 8.01143 1.87141 8.28502C1.82589 8.39585 1.80269 8.51956 1.78554 8.63756C1.7311 9.01216 1.76588 9.3124 1.87744 9.67261C1.89921 9.74291 1.97734 9.92253 1.96602 9.98979C1.96433 9.98417 1.96269 9.97854 1.96093 9.97294C1.95509 9.95436 1.94759 9.94696 1.93644 9.9316C1.93392 9.92811 1.93216 9.92413 1.92988 9.92049C1.92107 9.90649 1.92524 9.91198 1.90764 9.90185C1.9894 10.0884 2.11457 10.2835 2.23953 10.4435C2.59223 10.8952 3.11876 11.3408 3.70651 11.4082C3.96508 11.4378 4.21421 11.3802 4.41799 11.2148C4.68519 10.9979 4.82568 10.6195 4.86082 10.2862C4.94026 9.53271 4.6404 8.73094 4.16861 8.14716Z" fill="#F87537"/>
<path d="M6.03717 3.12706L6.02574 3.13439C5.93638 3.08657 5.8572 3.01643 5.76645 2.96694C5.4621 2.80097 5.10634 2.77158 4.7751 2.87176C4.23194 3.03605 3.84097 3.49117 3.58289 3.9783C3.56691 4.00911 3.55145 4.04017 3.53649 4.07149C3.52153 4.10281 3.5071 4.13436 3.4932 4.16615C3.47928 4.19795 3.4659 4.22996 3.45306 4.2622C3.44021 4.29444 3.42789 4.32689 3.41612 4.35953C3.40435 4.39219 3.39312 4.42502 3.38244 4.45803C3.37175 4.49105 3.36161 4.52424 3.35202 4.5576C3.34244 4.59095 3.33341 4.62446 3.32493 4.65812C3.31645 4.69177 3.30853 4.72556 3.30118 4.75947C3.29382 4.79339 3.28703 4.82741 3.28081 4.86155C3.27458 4.89569 3.26891 4.92993 3.26382 4.96427C3.25873 4.9986 3.25421 5.033 3.25025 5.06747C3.2463 5.10196 3.24292 5.13649 3.24011 5.17107C3.2373 5.20566 3.23506 5.24029 3.23339 5.27496C3.23173 5.30964 3.23064 5.34432 3.23013 5.37901C3.22961 5.41372 3.22967 5.44842 3.23032 5.48312C3.23095 5.51782 3.23216 5.5525 3.23394 5.58716C3.24241 5.7376 3.26377 5.88756 3.28342 6.03687C3.28519 6.05025 3.30423 6.13545 3.30143 6.14209C3.29953 6.14663 3.29498 6.14951 3.29176 6.15324C3.30808 6.22154 3.34253 6.29065 3.37178 6.35465C3.51583 6.66997 3.70916 6.97425 3.96111 7.21425C4.26018 7.49913 4.62413 7.72074 5.04887 7.70726C5.4932 7.69316 5.87683 7.47735 6.17457 7.1566C6.66351 6.62983 6.83142 5.83718 6.80343 5.13688C6.77895 4.52462 6.60886 3.92673 6.26469 3.41721C6.19825 3.31886 6.1243 3.20773 6.03717 3.12706Z" fill="#F87537"/>
<path d="M8.19916 1.35167C8.18034 1.35387 8.16275 1.35919 8.14447 1.36413C7.82259 1.45107 7.56187 1.63474 7.39571 1.92761C7.06976 2.50209 7.04974 3.2999 7.22708 3.92484C7.4607 4.74811 8.02768 5.57517 8.78787 5.99235C9.19276 6.21456 9.66998 6.33478 10.1237 6.20156C10.4151 6.11096 10.6432 5.9634 10.817 5.70831C11.1743 5.18382 11.2782 4.48424 11.1614 3.86645C11.0069 3.04914 10.4748 2.26078 9.79105 1.79202C9.32111 1.46987 8.77972 1.24364 8.19916 1.35167Z" fill="#F87537"/>
<path d="M7.98712 7.05673C7.98481 7.05728 7.98246 7.05778 7.98017 7.05838C7.01403 7.3106 6.29725 8.06893 5.81468 8.9092C5.16001 10.0491 4.71286 11.917 5.0664 13.2086C5.21361 13.7464 5.60098 14.1945 6.08002 14.4687C6.95697 14.9706 8.06004 15.0613 9.04511 14.9235C9.39283 14.8748 9.73459 14.7926 10.0731 14.7009C10.9491 14.4463 11.7578 14.0544 12.4588 13.4667C12.7686 13.2071 13.0592 12.9052 13.2777 12.5637C13.6365 12.0029 13.8234 11.3858 13.6758 10.7214C13.612 10.4342 13.5056 10.1505 13.3537 9.89823C13.2346 9.70037 13.0855 9.50171 12.9297 9.33139C12.848 9.24215 12.7599 9.15883 12.6778 9.07003C12.5518 8.9339 12.4315 8.79265 12.3025 8.6592C11.9687 8.31372 11.5863 7.98351 11.1797 7.72631C10.4519 7.26587 9.55781 6.90742 8.68211 6.94718C8.44691 6.95784 8.21607 7.00476 7.98712 7.05673Z" fill="#F87537"/>
<path d="M8.63034 9.49955C8.56367 9.45569 8.49572 9.41283 8.4255 9.37484C8.10054 9.19895 7.71126 9.1426 7.35442 9.25058C7.01154 9.35431 6.7142 9.61401 6.54767 9.92971C6.36711 10.2719 6.34612 10.6692 6.46103 11.0342C6.74726 11.9436 7.84896 12.5864 8.64789 13.0034C9.04254 13.2139 9.45804 13.3626 9.88015 13.5052L10.0709 13.2286C10.6785 12.3305 11.5285 10.8183 11.3065 9.69331C11.2322 9.31681 11.0249 8.96389 10.7012 8.75078C10.3717 8.53393 9.9963 8.47298 9.61311 8.55292C9.52481 8.56695 9.43142 8.60666 9.35143 8.64537C8.99346 8.81871 8.75796 9.12879 8.63034 9.49955Z" fill="#FAEDDE"/>
</svg>
