<svg width="63" height="56" viewBox="0 0 63 56" fill="none" xmlns="http://www.w3.org/2000/svg">
<path d="M43.1726 33.6223C43.058 32.6662 43.1681 31.4994 43.7844 30.7223C44.0822 30.3467 44.4819 30.0537 44.9683 29.9989C45.6465 29.9225 46.3508 30.2755 46.8631 30.6926C47.5176 31.2254 48.1191 32.1859 48.3713 32.9991C48.3614 33.0349 48.3598 33.0224 48.3663 33.0519C48.368 33.0596 48.3708 33.067 48.372 33.0748C48.3773 33.1091 48.377 33.1284 48.3933 33.1601C48.3982 33.1696 48.4033 33.1791 48.4084 33.1886C48.3072 33.1156 48.1779 32.7813 48.1159 32.6619C47.7979 32.0496 47.4572 31.6142 46.9047 31.1966C46.7306 31.0651 46.5414 30.9339 46.3396 30.8482C45.8416 30.6366 45.2458 30.5675 44.7348 30.7731C43.8621 31.1241 43.4719 32.1141 43.3141 32.9742C43.2849 33.1332 43.2763 33.4657 43.2175 33.5902C43.2042 33.6185 43.2002 33.6128 43.1726 33.6223Z" fill="#F87537"/>
<path d="M27.167 43.9276C26.6503 43.2283 26.2452 42.3594 26.1361 41.492C26.0536 40.8373 26.076 40.1296 26.5016 39.5878C26.7832 39.2293 27.1902 39.029 27.6384 38.9747C28.6192 38.8559 29.6313 39.329 30.391 39.9206C30.3394 39.9398 30.3251 39.9391 30.2744 39.9175C30.1169 39.8505 29.9709 39.7564 29.8118 39.6898C29.1964 39.4323 28.5003 39.3459 27.8608 39.5693C27.3956 39.7318 27.0303 40.0523 26.8172 40.4974C26.4187 41.3301 26.5992 42.3414 26.9016 43.1765C26.9543 43.3219 27.2105 43.8159 27.167 43.9276Z" fill="#F87537"/>
<path d="M34.2871 29.4913C34.2711 29.2923 34.2829 29.0924 34.297 28.8937C34.3425 28.2498 34.4929 27.6639 34.9213 27.1628C35.3192 26.6974 35.8762 26.4798 36.4771 26.4366C37.8162 26.3406 39.2219 26.9998 40.212 27.8665C40.9062 28.4741 41.352 29.0646 41.751 29.8999C41.742 29.8992 41.7324 29.9013 41.7241 29.8979C41.7119 29.8928 41.6271 29.7575 41.6123 29.7378C41.4458 29.5182 41.2808 29.2955 41.0984 29.0889C41.0562 29.0415 41.0132 28.9948 40.9694 28.9488C40.9256 28.9028 40.8811 28.8576 40.8358 28.8131C40.7905 28.7686 40.7445 28.7248 40.6978 28.6818C40.651 28.6389 40.6036 28.5967 40.5554 28.5553C40.5073 28.5139 40.4585 28.4733 40.409 28.4335C40.3596 28.3937 40.3094 28.3547 40.2587 28.3166C40.2079 28.2785 40.1565 28.2412 40.1045 28.2048C40.0525 28.1683 39.9999 28.1328 39.9468 28.0981C39.8936 28.0634 39.8398 28.0296 39.7855 27.9967C39.7312 27.9638 39.6764 27.9318 39.621 27.9007C39.5657 27.8696 39.5098 27.8395 39.4534 27.8102C39.3971 27.781 39.3403 27.7527 39.283 27.7254C39.2257 27.698 39.1679 27.6716 39.1097 27.6462C39.0516 27.6207 38.993 27.5963 38.934 27.5728C38.875 27.5493 38.8157 27.5268 38.7559 27.5052C38.6962 27.4837 38.6362 27.4632 38.5757 27.4436C37.6136 27.1414 36.5195 27.0518 35.6014 27.5363C35.0415 27.8318 34.6163 28.3275 34.4336 28.9348C34.3791 29.1159 34.3662 29.309 34.3114 29.4861L34.2871 29.4913Z" fill="#F87537"/>
<path d="M27.1667 43.9277C27.2103 43.816 26.954 43.3219 26.9014 43.1766C26.5989 42.3415 26.4185 41.3302 26.817 40.4975C27.03 40.0523 27.3953 39.7318 27.8605 39.5694C28.5 39.346 29.1961 39.4323 29.8115 39.6899C29.9706 39.7565 30.1166 39.8505 30.2741 39.9175C30.3248 39.9391 30.3391 39.9399 30.3907 39.9207C30.5496 39.9987 30.7019 40.1655 30.825 40.2908C31.5371 41.0161 32.071 41.9458 32.3964 42.9056C32.6402 43.6246 32.7457 44.5586 32.3963 45.2628C32.2002 45.6581 31.8628 45.9345 31.445 46.0697C30.7448 46.2963 29.9033 46.0626 29.2728 45.7363C28.566 45.3705 27.9621 44.8951 27.4482 44.2872C27.3549 44.177 27.2387 44.0521 27.1667 43.9277Z" fill="#F87537"/>
<path d="M43.1727 33.6222C43.2003 33.6127 43.2043 33.6183 43.2176 33.5901C43.2764 33.4656 43.285 33.1331 43.3142 32.9741C43.472 32.1139 43.8622 31.124 44.7349 30.773C45.246 30.5674 45.8417 30.6365 46.3397 30.8481C46.5415 30.9338 46.7307 31.065 46.9048 31.1965C47.4573 31.6141 47.798 32.0495 48.116 32.6618C48.178 32.7812 48.3073 33.1155 48.4085 33.1885C48.4034 33.179 48.3983 33.1695 48.3934 33.16C48.3771 33.1283 48.3774 33.109 48.3722 33.0747C48.3709 33.0669 48.3681 33.0595 48.3664 33.0518C48.3599 33.0223 48.3615 33.0348 48.3714 32.999C48.5049 33.3469 48.5927 33.7617 48.6359 34.1306C48.7576 35.172 48.6452 36.4289 47.9669 37.2723C47.6685 37.6433 47.2702 37.8886 46.7923 37.9354C46.1657 37.9966 45.4963 37.6848 45.022 37.2961C43.9499 36.4176 43.3093 34.9886 43.1727 33.6222Z" fill="#F87537"/>
<path d="M34.2871 29.4913L34.3114 29.4862C34.3663 29.309 34.3791 29.1159 34.4336 28.9349C34.6163 28.3275 35.0415 27.8319 35.6014 27.5364C36.5196 27.0518 37.6136 27.1415 38.5758 27.4437C38.6362 27.4632 38.6963 27.4838 38.756 27.5053C38.8157 27.5268 38.8751 27.5493 38.9341 27.5728C38.993 27.5963 39.0516 27.6208 39.1098 27.6462C39.168 27.6717 39.2257 27.6981 39.283 27.7254C39.3403 27.7528 39.3971 27.7811 39.4535 27.8103C39.5098 27.8395 39.5657 27.8697 39.6211 27.9008C39.6764 27.9319 39.7313 27.9639 39.7856 27.9968C39.8399 28.0297 39.8936 28.0635 39.9468 28.0981C40 28.1328 40.0526 28.1684 40.1046 28.2048C40.1566 28.2412 40.208 28.2785 40.2587 28.3167C40.3095 28.3548 40.3596 28.3938 40.4091 28.4335C40.4586 28.4733 40.5074 28.5139 40.5555 28.5553C40.6036 28.5967 40.6511 28.6389 40.6978 28.6819C40.7445 28.7249 40.7906 28.7686 40.8358 28.8131C40.8811 28.8576 40.9257 28.9029 40.9694 28.9489C41.0132 28.9948 41.0563 29.0415 41.0985 29.0889C41.2809 29.2956 41.4459 29.5182 41.6123 29.7378C41.6272 29.7575 41.712 29.8929 41.7241 29.8979C41.7324 29.9014 41.7421 29.8993 41.7511 29.9C41.8176 30.0099 41.8617 30.1441 41.9059 30.265C42.1238 30.8606 42.2634 31.5052 42.2441 32.1415C42.2211 32.8968 42.0324 33.6531 41.4622 34.1817C40.8658 34.7346 40.0891 34.947 39.2892 34.9123C37.9755 34.8554 36.7379 34.0397 35.8739 33.0923C35.1186 32.2639 34.5712 31.2671 34.3641 30.1615C34.3241 29.948 34.2774 29.7083 34.2871 29.4913Z" fill="#F87537"/>
<path d="M29.1908 29.9603C29.2181 29.939 29.2478 29.9233 29.278 29.9062C29.8087 29.6055 30.3842 29.5093 30.977 29.6769C32.1398 30.0055 33.1916 31.0181 33.7643 32.0594C34.5187 33.4313 34.8442 35.2366 34.3912 36.757C34.1499 37.5668 33.6834 38.3368 32.9217 38.7467C32.4259 39.0035 31.9393 39.1047 31.3852 38.9962C30.2458 38.7729 29.211 37.9961 28.5687 37.0419C27.719 35.7795 27.3979 34.0693 27.6851 32.5801C27.8826 31.5567 28.2963 30.5661 29.1908 29.9603Z" fill="#F87537"/>
<path d="M36.8019 37.1132C36.8057 37.1109 36.8093 37.1086 36.8131 37.1064C38.3948 36.1925 40.3027 36.2579 42.0111 36.731C44.3288 37.3729 47.3123 39.229 48.5128 41.3645C49.0126 42.2537 49.0847 43.335 48.8137 44.3078C48.3178 46.0885 46.9987 47.6248 45.5394 48.7119C45.0243 49.0957 44.4739 49.4281 43.9153 49.7439C42.4478 50.5389 40.8915 51.0685 39.2236 51.2051C38.4865 51.2655 37.7202 51.2461 36.9969 51.0826C35.8088 50.8142 34.772 50.2512 34.11 49.1968C33.8238 48.741 33.5975 48.2349 33.4708 47.7113C33.3715 47.3006 33.31 46.8504 33.2939 46.4284C33.2854 46.2073 33.2929 45.9855 33.2857 45.7643C33.2746 45.4252 33.2496 45.0866 33.2459 44.7472C33.2361 43.8683 33.3093 42.9469 33.5077 42.0895C33.863 40.5544 34.5657 38.9383 35.7566 37.8642C36.0764 37.5757 36.4371 37.3399 36.8019 37.1132Z" fill="#F87537"/>
<path d="M39.1037 41.1193C39.1341 40.9765 39.1674 40.8334 39.2099 40.6937C39.4067 40.0469 39.8409 39.4731 40.4442 39.1548C41.0238 38.849 41.7447 38.8047 42.3673 39.0014C43.0423 39.2147 43.5803 39.7047 43.9001 40.3275C44.6968 41.8791 44.0895 44.1322 43.5858 45.7021C43.3428 46.4834 42.9932 47.2112 42.6273 47.9396L42.0233 47.8248C40.0779 47.4371 37.0272 46.5619 35.8698 44.8123C35.4824 44.2268 35.2985 43.5009 35.4458 42.8073C35.5958 42.1015 36.006 41.5395 36.6075 41.1509C36.7405 41.0556 36.9131 40.9872 37.067 40.9347C37.7557 40.7001 38.4609 40.8009 39.1037 41.1193Z" fill="#FAEDDE"/>
<path d="M10.1651 41.1941C9.85662 40.7676 9.59954 40.1809 9.68781 39.6459C9.73044 39.3874 9.84364 39.1414 10.0615 38.9861C10.3653 38.7696 10.7956 38.7513 11.151 38.8147C11.6052 38.8956 12.1476 39.1949 12.4839 39.5165C12.4887 39.5363 12.4846 39.5307 12.4956 39.5431C12.4984 39.5463 12.5017 39.5491 12.5044 39.5525C12.516 39.5675 12.521 39.5768 12.5372 39.5876C12.5421 39.5909 12.547 39.5941 12.5519 39.5973C12.4842 39.5892 12.3337 39.4638 12.2724 39.4232C11.9579 39.215 11.6795 39.0974 11.3047 39.0445C11.1866 39.0278 11.0614 39.0154 10.9422 39.028C10.6481 39.059 10.3451 39.1841 10.1554 39.418C9.83158 39.8173 9.90785 40.3939 10.0607 40.8469C10.089 40.9306 10.1731 41.0918 10.1781 41.1668C10.1792 41.1839 10.1758 41.1822 10.1651 41.1941Z" fill="#F87537"/>
<path d="M5.25237 50.3662C4.81986 50.1692 4.39568 49.8614 4.11331 49.476C3.90015 49.185 3.72306 48.8409 3.78263 48.469C3.82201 48.223 3.96336 48.0192 4.16312 47.8743C4.60025 47.5573 5.20943 47.5147 5.72948 47.5958C5.70992 47.6187 5.70289 47.6221 5.67293 47.6252C5.5799 47.635 5.48515 47.6288 5.39146 47.6392C5.02902 47.6795 4.67349 47.823 4.42717 48.0994C4.24799 48.3005 4.15849 48.5506 4.17484 48.8199C4.20542 49.3235 4.56005 49.7589 4.92621 50.0777C4.98994 50.1332 5.24352 50.3012 5.25237 50.3662Z" fill="#F87537"/>
<path d="M4.8231 41.5782C4.76267 41.4874 4.71527 41.3887 4.66923 41.29C4.52008 40.9703 4.43649 40.6504 4.50821 40.2972C4.5748 39.9693 4.78322 39.7174 5.05892 39.5373C5.67329 39.136 6.51997 39.078 7.22311 39.2293C7.71607 39.3354 8.08584 39.4993 8.49822 39.7926C8.49374 39.7946 8.48969 39.7982 8.4848 39.7987C8.47764 39.7995 8.40121 39.7573 8.38887 39.7519C8.25107 39.6911 8.11314 39.6285 7.97112 39.5782C7.93836 39.5667 7.90541 39.5558 7.87229 39.5455C7.83916 39.5351 7.80587 39.5253 7.77241 39.5161C7.73897 39.5068 7.70538 39.4982 7.67163 39.49C7.63789 39.4819 7.60402 39.4743 7.57003 39.4673C7.53605 39.4603 7.50195 39.4538 7.46775 39.448C7.43355 39.4421 7.39926 39.4368 7.36489 39.432C7.3305 39.4273 7.29604 39.4231 7.26153 39.4195C7.22701 39.4159 7.19245 39.4129 7.15784 39.4104C7.12322 39.4079 7.08857 39.406 7.05389 39.4047C7.01921 39.4034 6.98451 39.4027 6.9498 39.4025C6.9151 39.4024 6.8804 39.4028 6.8457 39.4038C6.81102 39.4048 6.77636 39.4063 6.74171 39.4085C6.70707 39.4106 6.67248 39.4133 6.63793 39.4166C6.60338 39.4199 6.56889 39.4237 6.53447 39.4282C6.50005 39.4326 6.46572 39.4376 6.43146 39.4431C6.3972 39.4487 6.36305 39.4548 6.32899 39.4615C5.78901 39.5725 5.24244 39.82 4.9323 40.2952C4.74318 40.585 4.67153 40.9347 4.74541 41.2734C4.76744 41.3744 4.81253 41.4701 4.83335 41.5693L4.8231 41.5782Z" fill="#F87537"/>
<path d="M5.25215 50.3663C5.2433 50.3014 4.98972 50.1333 4.92599 50.0778C4.55983 49.759 4.2052 49.3237 4.17462 48.82C4.15827 48.5508 4.24777 48.3007 4.42695 48.0996C4.67327 47.8231 5.0288 47.6796 5.39124 47.6393C5.48492 47.6289 5.57968 47.6351 5.67271 47.6253C5.70267 47.6222 5.7097 47.6188 5.72926 47.5959C5.8259 47.591 5.94294 47.6303 6.03505 47.6575C6.56777 47.8151 7.06966 48.1176 7.47989 48.4899C7.78718 48.7688 8.08551 49.1871 8.10546 49.6164C8.11666 49.8573 8.02876 50.0789 7.865 50.2544C7.59055 50.5485 7.12646 50.6602 6.73857 50.6716C6.3037 50.6844 5.88898 50.6175 5.48206 50.4634C5.40824 50.4355 5.31955 50.4067 5.25215 50.3663Z" fill="#F87537"/>
<path d="M10.1654 41.1938C10.176 41.1819 10.1794 41.1835 10.1783 41.1665C10.1734 41.0914 10.0892 40.9302 10.061 40.8465C9.90811 40.3936 9.83183 39.817 10.1557 39.4176C10.3453 39.1838 10.6483 39.0587 10.9425 39.0276C11.0616 39.015 11.1869 39.0275 11.305 39.0441C11.6798 39.097 11.9582 39.2147 12.2726 39.4229C12.334 39.4635 12.4844 39.5889 12.5522 39.5969C12.5473 39.5937 12.5423 39.5906 12.5374 39.5873C12.5212 39.5765 12.5162 39.5672 12.5046 39.5522C12.502 39.5488 12.4987 39.546 12.4958 39.5428C12.4848 39.5304 12.4889 39.5359 12.4842 39.5162C12.6403 39.647 12.7923 39.8219 12.9109 39.9868C13.2454 40.4521 13.5253 41.0825 13.425 41.6655C13.3809 41.9221 13.2557 42.145 13.0397 42.2942C12.7566 42.4897 12.3539 42.5184 12.0241 42.4585C11.2787 42.3233 10.5933 41.8104 10.1654 41.1938Z" fill="#F87537"/>
<path d="M4.82267 41.5784L4.83291 41.5695C4.8121 41.4703 4.76701 41.3746 4.74498 41.2736C4.6711 40.9349 4.74275 40.5852 4.93187 40.2954C5.24201 39.8202 5.78858 39.5727 6.32856 39.4617C6.36262 39.455 6.39677 39.4489 6.43103 39.4433C6.46529 39.4377 6.49962 39.4327 6.53404 39.4283C6.56846 39.4239 6.60295 39.42 6.63749 39.4168C6.67205 39.4135 6.70664 39.4108 6.74128 39.4086C6.77593 39.4065 6.81059 39.4049 6.84527 39.4039C6.87997 39.4029 6.91467 39.4025 6.94937 39.4027C6.98408 39.4029 7.01877 39.4036 7.05346 39.4049C7.08814 39.4062 7.12279 39.4081 7.1574 39.4106C7.19202 39.413 7.22659 39.416 7.2611 39.4197C7.29561 39.4233 7.33007 39.4274 7.36446 39.4322C7.39883 39.4369 7.43312 39.4422 7.46732 39.4481C7.50152 39.454 7.53562 39.4605 7.5696 39.4675C7.60359 39.4745 7.63746 39.482 7.6712 39.4902C7.70494 39.4983 7.73854 39.507 7.77198 39.5163C7.80544 39.5255 7.83873 39.5353 7.87185 39.5457C7.90498 39.556 7.93793 39.5669 7.97069 39.5783C8.11271 39.6287 8.25064 39.6913 8.38844 39.752C8.40078 39.7575 8.47721 39.7997 8.48437 39.7989C8.48926 39.7983 8.4933 39.7948 8.49778 39.7927C8.55876 39.8275 8.61542 39.88 8.66864 39.926C8.93085 40.1528 9.16863 40.4238 9.32828 40.733C9.51776 41.1 9.6283 41.5115 9.49615 41.9154C9.3579 42.3379 9.04309 42.6455 8.65166 42.8413C8.00884 43.1627 7.20092 43.1014 6.53662 42.8779C5.95585 42.6826 5.42973 42.3515 5.0373 41.8782C4.96155 41.7868 4.87564 41.6846 4.82267 41.5784Z" fill="#F87537"/>
<path d="M2.5119 43.1551C2.5193 43.1376 2.52935 43.1222 2.53921 43.1061C2.71301 42.8215 2.96247 42.6228 3.29021 42.5456C3.93308 42.394 4.70444 42.5987 5.25449 42.9443C5.97909 43.3996 6.61375 44.1759 6.80079 45.0227C6.90043 45.4736 6.88187 45.9654 6.62667 46.3635C6.45791 46.6177 6.25225 46.7953 5.95864 46.8905C5.35495 47.0862 4.65431 46.9896 4.09414 46.7041C3.35306 46.3264 2.74574 45.5944 2.48775 44.8066C2.31044 44.2651 2.24526 43.682 2.5119 43.1551Z" fill="#F87537"/>
<path d="M8.04716 44.5532C8.04834 44.5511 8.04948 44.549 8.0507 44.547C8.56395 43.6905 9.49299 43.2153 10.4349 42.988C11.7128 42.6796 13.6311 42.7747 14.7715 43.4766C15.2464 43.7688 15.5678 44.2664 15.6965 44.8031C15.9321 45.7857 15.7095 46.8699 15.3007 47.7767C15.1564 48.0968 14.9816 48.4017 14.7986 48.7009C14.3083 49.4702 13.7051 50.1364 12.9444 50.6443C12.6082 50.8688 12.2369 51.0629 11.8478 51.1768C11.2088 51.3638 10.564 51.37 9.96783 51.0418C9.71011 50.9 9.46765 50.7181 9.26815 50.5016C9.11168 50.3317 8.96283 50.1329 8.8431 49.9355C8.78036 49.8321 8.72512 49.7241 8.66296 49.6204C8.56766 49.4612 8.46586 49.3061 8.37397 49.1449C8.13608 48.7275 7.92646 48.2678 7.79372 47.8054C7.55608 46.9776 7.463 46.0188 7.74694 45.1895C7.82319 44.9667 7.93302 44.7583 8.04716 44.5532Z" fill="#F87537"/>
<path d="M10.2111 45.8561C10.1877 45.7798 10.1656 45.7025 10.1488 45.6245C10.0712 45.2632 10.1264 44.8738 10.3302 44.5616C10.526 44.2616 10.8587 44.0491 11.2085 43.9779C11.5876 43.9006 11.9748 43.992 12.2929 44.2047C13.0854 44.7347 13.3931 45.9725 13.5691 46.8564C13.6604 47.2943 13.6865 47.7348 13.7049 48.18L13.3859 48.2854C12.3533 48.6165 10.6633 49.0079 9.64587 48.4791C9.30535 48.3021 9.02482 48.004 8.91114 47.6335C8.79547 47.2565 8.84235 46.879 9.02663 46.5337C9.06488 46.4528 9.12921 46.3744 9.18881 46.3084C9.45565 46.0135 9.81937 45.8745 10.2111 45.8561Z" fill="#FAEDDE"/>
<path d="M58.3106 8.14677C58.6333 7.73095 59.1244 7.3195 59.6626 7.25408C59.9226 7.22245 60.1906 7.26202 60.4008 7.42754C60.6939 7.65836 60.8321 8.06619 60.8711 8.42518C60.9209 8.88382 60.7859 9.48839 60.5716 9.90145C60.554 9.91157 60.5581 9.90609 60.5493 9.92009C60.547 9.92373 60.5453 9.92771 60.5428 9.9312C60.5316 9.94656 60.5241 9.95396 60.5183 9.97254C60.5165 9.97814 60.5149 9.98377 60.5132 9.98939C60.5019 9.92213 60.58 9.7425 60.6018 9.67221C60.7133 9.31199 60.7481 9.01176 60.6937 8.63716C60.6765 8.51916 60.6533 8.39545 60.6078 8.28462C60.4954 8.01103 60.2903 7.75529 60.0126 7.63889C59.5384 7.44018 59.0064 7.67523 58.6146 7.94906C58.5422 7.99967 58.4111 8.12569 58.3404 8.1515C58.3243 8.15736 58.325 8.15365 58.3106 8.14677Z" fill="#F87537"/>
<path d="M48.1283 6.00593C48.196 5.5355 48.3723 5.042 48.663 4.66278C48.8825 4.37652 49.163 4.10996 49.5367 4.06275C49.7839 4.03151 50.0191 4.10998 50.2142 4.26104C50.6413 4.59161 50.8531 5.16436 50.9213 5.68625C50.8938 5.6739 50.8885 5.66812 50.8771 5.64024C50.8416 5.55369 50.8209 5.46102 50.7847 5.37402C50.6443 5.03745 50.4068 4.73648 50.0723 4.57767C49.829 4.46213 49.5638 4.44643 49.31 4.53769C48.8352 4.70841 48.5168 5.17099 48.3136 5.61191C48.2782 5.68864 48.1881 5.9792 48.1283 6.00593Z" fill="#F87537"/>
<path d="M56.4422 3.12721C56.5124 3.04372 56.5938 2.97053 56.6756 2.89865C56.9406 2.66573 57.2242 2.49572 57.5833 2.46543C57.9168 2.43729 58.217 2.56664 58.4672 2.7807C59.0249 3.25774 59.3182 4.05409 59.3703 4.77146C59.4068 5.27438 59.3534 5.67527 59.1876 6.15339C59.1844 6.14966 59.1798 6.14678 59.1779 6.14224C59.1751 6.1356 59.1942 6.0504 59.1959 6.03702C59.2156 5.88771 59.2369 5.73775 59.2454 5.58731C59.2472 5.55266 59.2484 5.51798 59.249 5.48328C59.2497 5.44858 59.2497 5.41387 59.2492 5.37917C59.2487 5.34447 59.2476 5.30979 59.246 5.27511C59.2443 5.24045 59.2421 5.20582 59.2393 5.17122C59.2364 5.13664 59.2331 5.10211 59.2291 5.06763C59.2251 5.03315 59.2206 4.99875 59.2155 4.96443C59.2104 4.93009 59.2048 4.89584 59.1985 4.8617C59.1923 4.82757 59.1855 4.79354 59.1782 4.75962C59.1708 4.72571 59.1629 4.69193 59.1544 4.65827C59.146 4.62461 59.1369 4.5911 59.1273 4.55775C59.1177 4.52439 59.1076 4.4912 59.0969 4.45818C59.0862 4.42517 59.075 4.39234 59.0632 4.35969C59.0515 4.32704 59.0392 4.2946 59.0263 4.26236C59.0135 4.23012 59.0001 4.1981 58.9862 4.1663C58.9723 4.13451 58.9578 4.10296 58.9429 4.07164C58.9279 4.04032 58.9124 4.00926 58.8965 3.97845C58.6384 3.49133 58.2474 3.0362 57.7043 2.87191C57.373 2.77173 57.0173 2.80112 56.7129 2.96709C56.6222 3.01659 56.543 3.08673 56.4536 3.13454L56.4422 3.12721Z" fill="#F87537"/>
<path d="M48.1283 6.00585C48.1881 5.97912 48.2782 5.68856 48.3136 5.61183C48.5168 5.17091 48.8351 4.70833 49.31 4.53761C49.5638 4.44635 49.829 4.46205 50.0723 4.57758C50.4068 4.7364 50.6443 5.03737 50.7847 5.37394C50.8209 5.46094 50.8416 5.55362 50.8771 5.64016C50.8885 5.66803 50.8938 5.67382 50.9212 5.68617C50.9531 5.77756 50.9482 5.90091 50.9479 5.99696C50.9462 6.5525 50.7967 7.11913 50.5545 7.61736C50.3731 7.99058 50.0553 8.39432 49.649 8.53396C49.4208 8.61233 49.1835 8.59017 48.9691 8.48225C48.6097 8.30139 48.3723 7.8873 48.2525 7.51821C48.1181 7.10441 48.066 6.68758 48.0996 6.25377C48.1057 6.17508 48.1084 6.08186 48.1283 6.00585Z" fill="#F87537"/>
<path d="M58.3109 8.14716C58.3253 8.15404 58.3246 8.15776 58.3407 8.1519C58.4114 8.12609 58.5425 8.00007 58.6149 7.94946C59.0067 7.67563 59.5387 7.44058 60.0129 7.63929C60.2906 7.75569 60.4957 8.01143 60.6081 8.28502C60.6536 8.39585 60.6768 8.51956 60.694 8.63756C60.7484 9.01216 60.7136 9.3124 60.6021 9.67261C60.5803 9.74291 60.5022 9.92253 60.5135 9.98979C60.5152 9.98417 60.5168 9.97854 60.5186 9.97294C60.5244 9.95436 60.5319 9.94696 60.5431 9.9316C60.5456 9.92811 60.5473 9.92413 60.5496 9.92049C60.5584 9.90649 60.5542 9.91198 60.5719 9.90185C60.4901 10.0884 60.3649 10.2835 60.24 10.4435C59.8873 10.8952 59.3607 11.3408 58.773 11.4082C58.5144 11.4378 58.2653 11.3802 58.0615 11.2148C57.7943 10.9979 57.6538 10.6195 57.6187 10.2862C57.5392 9.53271 57.8391 8.73094 58.3109 8.14716Z" fill="#F87537"/>
<path d="M56.4423 3.12706L56.4537 3.13439C56.5431 3.08657 56.6223 3.01643 56.713 2.96694C57.0174 2.80097 57.3732 2.77158 57.7044 2.87176C58.2476 3.03605 58.6385 3.49117 58.8966 3.9783C58.9126 4.00911 58.928 4.04017 58.943 4.07149C58.958 4.10281 58.9724 4.13436 58.9863 4.16615C59.0002 4.19795 59.0136 4.22996 59.0264 4.2622C59.0393 4.29444 59.0516 4.32689 59.0634 4.35953C59.0751 4.39219 59.0864 4.42502 59.0971 4.45803C59.1077 4.49105 59.1179 4.52424 59.1275 4.5576C59.1371 4.59095 59.1461 4.62446 59.1546 4.65812C59.163 4.69177 59.171 4.72556 59.1783 4.75947C59.1857 4.79339 59.1925 4.82741 59.1987 4.86155C59.2049 4.89569 59.2106 4.92993 59.2157 4.96427C59.2208 4.9986 59.2253 5.033 59.2292 5.06747C59.2332 5.10196 59.2366 5.13649 59.2394 5.17107C59.2422 5.20566 59.2444 5.24029 59.2461 5.27496C59.2478 5.30964 59.2489 5.34432 59.2494 5.37901C59.2499 5.41372 59.2498 5.44842 59.2492 5.48312C59.2485 5.51782 59.2473 5.5525 59.2456 5.58716C59.2371 5.7376 59.2157 5.88756 59.1961 6.03687C59.1943 6.05025 59.1753 6.13545 59.1781 6.14209C59.18 6.14663 59.1845 6.14951 59.1877 6.15324C59.1714 6.22154 59.137 6.29065 59.1077 6.35465C58.9637 6.66997 58.7703 6.97425 58.5184 7.21425C58.2193 7.49913 57.8554 7.72074 57.4306 7.70726C56.9863 7.69316 56.6027 7.47735 56.3049 7.1566C55.816 6.62983 55.6481 5.83718 55.6761 5.13688C55.7005 4.52462 55.8706 3.92673 56.2148 3.41721C56.2812 3.31886 56.3552 3.20773 56.4423 3.12706Z" fill="#F87537"/>
<path d="M54.2803 1.35167C54.2991 1.35387 54.3167 1.35919 54.335 1.36413C54.6569 1.45107 54.9176 1.63474 55.0838 1.92761C55.4097 2.50209 55.4298 3.2999 55.2524 3.92484C55.0188 4.74811 54.4518 5.57517 53.6916 5.99235C53.2867 6.21456 52.8095 6.33478 52.3558 6.20156C52.0644 6.11096 51.8363 5.9634 51.6625 5.70831C51.3052 5.18382 51.2012 4.48424 51.3181 3.86645C51.4726 3.04914 52.0047 2.26078 52.6884 1.79202C53.1584 1.46987 53.6998 1.24364 54.2803 1.35167Z" fill="#F87537"/>
<path d="M54.4919 7.05673C54.4942 7.05728 54.4965 7.05778 54.4988 7.05838C55.465 7.3106 56.1818 8.06893 56.6643 8.9092C57.319 10.0491 57.7661 11.917 57.4126 13.2086C57.2654 13.7464 56.878 14.1945 56.399 14.4687C55.522 14.9706 54.419 15.0613 53.4339 14.9235C53.0862 14.8748 52.7444 14.7926 52.4059 14.7009C51.5299 14.4463 50.7212 14.0544 50.0202 13.4667C49.7104 13.2071 49.4198 12.9052 49.2013 12.5637C48.8425 12.0029 48.6556 11.3858 48.8032 10.7214C48.867 10.4342 48.9734 10.1505 49.1253 9.89823C49.2444 9.70037 49.3935 9.50171 49.5493 9.33139C49.631 9.24215 49.7191 9.15883 49.8012 9.07003C49.9272 8.9339 50.0475 8.79265 50.1765 8.6592C50.5103 8.31372 50.8927 7.98351 51.2993 7.72631C52.0271 7.26587 52.9212 6.90742 53.7969 6.94718C54.0321 6.95784 54.2629 7.00476 54.4919 7.05673Z" fill="#F87537"/>
<path d="M53.8487 9.49955C53.9153 9.45569 53.9833 9.41283 54.0535 9.37484C54.3785 9.19895 54.7677 9.1426 55.1246 9.25058C55.4675 9.35431 55.7648 9.61401 55.9313 9.92971C56.1119 10.2719 56.1329 10.6692 56.018 11.0342C55.7317 11.9436 54.63 12.5864 53.8311 13.0034C53.4365 13.2139 53.021 13.3626 52.5988 13.5052L52.4081 13.2286C51.8005 12.3305 50.9505 10.8183 51.1725 9.69331C51.2468 9.31681 51.4541 8.96389 51.7778 8.75078C52.1073 8.53393 52.4827 8.47298 52.8659 8.55292C52.9542 8.56695 53.0476 8.60666 53.1276 8.64537C53.4855 8.81871 53.721 9.12879 53.8487 9.49955Z" fill="#FAEDDE"/>
</svg>
