<svg width="198" height="47" viewBox="0 0 198 47" fill="none" xmlns="http://www.w3.org/2000/svg">
<rect y="0.926514" width="198" height="46" rx="5" fill="#F87537"/>
<path d="M52.528 17.8625L47.92 30.4265H44.86L40.252 17.8625H42.952L46.408 27.8525L49.846 17.8625H52.528ZM53.3909 25.4045C53.3909 24.3965 53.5889 23.5025 53.9849 22.7225C54.3929 21.9425 54.9389 21.3425 55.6229 20.9225C56.3189 20.5025 57.0929 20.2925 57.9449 20.2925C58.6889 20.2925 59.3369 20.4425 59.8889 20.7425C60.4529 21.0425 60.9029 21.4205 61.2389 21.8765V20.4545H63.7769V30.4265H61.2389V28.9685C60.9149 29.4365 60.4649 29.8265 59.8889 30.1385C59.3249 30.4385 58.6709 30.5885 57.9269 30.5885C57.0869 30.5885 56.3189 30.3725 55.6229 29.9405C54.9389 29.5085 54.3929 28.9025 53.9849 28.1225C53.5889 27.3305 53.3909 26.4245 53.3909 25.4045ZM61.2389 25.4405C61.2389 24.8285 61.1189 24.3065 60.8789 23.8745C60.6389 23.4305 60.3149 23.0945 59.9069 22.8665C59.4989 22.6265 59.0609 22.5065 58.5929 22.5065C58.1249 22.5065 57.6929 22.6205 57.2969 22.8485C56.9009 23.0765 56.5769 23.4125 56.3249 23.8565C56.0849 24.2885 55.9649 24.8045 55.9649 25.4045C55.9649 26.0045 56.0849 26.5325 56.3249 26.9885C56.5769 27.4325 56.9009 27.7745 57.2969 28.0145C57.7049 28.2545 58.1369 28.3745 58.5929 28.3745C59.0609 28.3745 59.4989 28.2605 59.9069 28.0325C60.3149 27.7925 60.6389 27.4565 60.8789 27.0245C61.1189 26.5805 61.2389 26.0525 61.2389 25.4405ZM67.5161 19.2665C67.0721 19.2665 66.7001 19.1285 66.4001 18.8525C66.1121 18.5645 65.9681 18.2105 65.9681 17.7905C65.9681 17.3705 66.1121 17.0225 66.4001 16.7465C66.7001 16.4585 67.0721 16.3145 67.5161 16.3145C67.9601 16.3145 68.3261 16.4585 68.6141 16.7465C68.9141 17.0225 69.0641 17.3705 69.0641 17.7905C69.0641 18.2105 68.9141 18.5645 68.6141 18.8525C68.3261 19.1285 67.9601 19.2665 67.5161 19.2665ZM68.7581 20.4545V30.4265H66.2381V20.4545H68.7581ZM74.8889 25.4045C74.8889 24.3965 75.0869 23.5025 75.4829 22.7225C75.8909 21.9425 76.4369 21.3425 77.1209 20.9225C77.8169 20.5025 78.5909 20.2925 79.4429 20.2925C80.1869 20.2925 80.8349 20.4425 81.3869 20.7425C81.9509 21.0425 82.4009 21.4205 82.7369 21.8765V20.4545H85.2749V30.4265H82.7369V28.9685C82.4129 29.4365 81.9629 29.8265 81.3869 30.1385C80.8229 30.4385 80.1689 30.5885 79.4249 30.5885C78.5849 30.5885 77.8169 30.3725 77.1209 29.9405C76.4369 29.5085 75.8909 28.9025 75.4829 28.1225C75.0869 27.3305 74.8889 26.4245 74.8889 25.4045ZM82.7369 25.4405C82.7369 24.8285 82.6169 24.3065 82.3769 23.8745C82.1369 23.4305 81.8129 23.0945 81.4049 22.8665C80.9969 22.6265 80.5589 22.5065 80.0909 22.5065C79.6229 22.5065 79.1909 22.6205 78.7949 22.8485C78.3989 23.0765 78.0749 23.4125 77.8229 23.8565C77.5829 24.2885 77.4629 24.8045 77.4629 25.4045C77.4629 26.0045 77.5829 26.5325 77.8229 26.9885C78.0749 27.4325 78.3989 27.7745 78.7949 28.0145C79.2029 28.2545 79.6349 28.3745 80.0909 28.3745C80.5589 28.3745 80.9969 28.2605 81.4049 28.0325C81.8129 27.7925 82.1369 27.4565 82.3769 27.0245C82.6169 26.5805 82.7369 26.0525 82.7369 25.4405ZM90.2561 17.1065V30.4265H87.7361V17.1065H90.2561ZM95.2659 17.1065V30.4265H92.7459V17.1065H95.2659ZM102.184 30.5885C101.224 30.5885 100.36 30.3785 99.5917 29.9585C98.8237 29.5265 98.2177 28.9205 97.7737 28.1405C97.3417 27.3605 97.1257 26.4605 97.1257 25.4405C97.1257 24.4205 97.3477 23.5205 97.7917 22.7405C98.2477 21.9605 98.8657 21.3605 99.6457 20.9405C100.426 20.5085 101.296 20.2925 102.256 20.2925C103.216 20.2925 104.086 20.5085 104.866 20.9405C105.646 21.3605 106.258 21.9605 106.702 22.7405C107.158 23.5205 107.386 24.4205 107.386 25.4405C107.386 26.4605 107.152 27.3605 106.684 28.1405C106.228 28.9205 105.604 29.5265 104.812 29.9585C104.032 30.3785 103.156 30.5885 102.184 30.5885ZM102.184 28.3925C102.64 28.3925 103.066 28.2845 103.462 28.0685C103.87 27.8405 104.194 27.5045 104.434 27.0605C104.674 26.6165 104.794 26.0765 104.794 25.4405C104.794 24.4925 104.542 23.7665 104.038 23.2625C103.546 22.7465 102.94 22.4885 102.22 22.4885C101.5 22.4885 100.894 22.7465 100.402 23.2625C99.9217 23.7665 99.6817 24.4925 99.6817 25.4405C99.6817 26.3885 99.9157 27.1205 100.384 27.6365C100.864 28.1405 101.464 28.3925 102.184 28.3925ZM117.339 30.5885C116.523 30.5885 115.791 30.4445 115.143 30.1565C114.495 29.8565 113.979 29.4545 113.595 28.9505C113.223 28.4465 113.019 27.8885 112.983 27.2765H115.521C115.569 27.6605 115.755 27.9785 116.079 28.2305C116.415 28.4825 116.829 28.6085 117.321 28.6085C117.801 28.6085 118.173 28.5125 118.437 28.3205C118.713 28.1285 118.851 27.8825 118.851 27.5825C118.851 27.2585 118.683 27.0185 118.347 26.8625C118.023 26.6945 117.501 26.5145 116.781 26.3225C116.037 26.1425 115.425 25.9565 114.945 25.7645C114.477 25.5725 114.069 25.2785 113.721 24.8825C113.385 24.4865 113.217 23.9525 113.217 23.2805C113.217 22.7285 113.373 22.2245 113.685 21.7685C114.009 21.3125 114.465 20.9525 115.053 20.6885C115.653 20.4245 116.355 20.2925 117.159 20.2925C118.347 20.2925 119.295 20.5925 120.003 21.1925C120.711 21.7805 121.101 22.5785 121.173 23.5865H118.761C118.725 23.1905 118.557 22.8785 118.257 22.6505C117.969 22.4105 117.579 22.2905 117.087 22.2905C116.631 22.2905 116.277 22.3745 116.025 22.5425C115.785 22.7105 115.665 22.9445 115.665 23.2445C115.665 23.5805 115.833 23.8385 116.169 24.0185C116.505 24.1865 117.027 24.3605 117.735 24.5405C118.455 24.7205 119.049 24.9065 119.517 25.0985C119.985 25.2905 120.387 25.5905 120.723 25.9985C121.071 26.3945 121.251 26.9225 121.263 27.5825C121.263 28.1585 121.101 28.6745 120.777 29.1305C120.465 29.5865 120.009 29.9465 119.409 30.2105C118.821 30.4625 118.131 30.5885 117.339 30.5885ZM128.948 20.3105C129.704 20.3105 130.376 20.4785 130.964 20.8145C131.552 21.1385 132.008 21.6245 132.332 22.2725C132.668 22.9085 132.836 23.6765 132.836 24.5765V30.4265H130.316V24.9185C130.316 24.1265 130.118 23.5205 129.722 23.1005C129.326 22.6685 128.786 22.4525 128.102 22.4525C127.406 22.4525 126.854 22.6685 126.446 23.1005C126.05 23.5205 125.852 24.1265 125.852 24.9185V30.4265H123.332V17.1065H125.852V21.6965C126.176 21.2645 126.608 20.9285 127.148 20.6885C127.688 20.4365 128.288 20.3105 128.948 20.3105ZM139.66 30.5885C138.7 30.5885 137.836 30.3785 137.068 29.9585C136.3 29.5265 135.694 28.9205 135.25 28.1405C134.818 27.3605 134.602 26.4605 134.602 25.4405C134.602 24.4205 134.824 23.5205 135.268 22.7405C135.724 21.9605 136.342 21.3605 137.122 20.9405C137.902 20.5085 138.772 20.2925 139.732 20.2925C140.692 20.2925 141.562 20.5085 142.342 20.9405C143.122 21.3605 143.734 21.9605 144.178 22.7405C144.634 23.5205 144.862 24.4205 144.862 25.4405C144.862 26.4605 144.628 27.3605 144.16 28.1405C143.704 28.9205 143.08 29.5265 142.288 29.9585C141.508 30.3785 140.632 30.5885 139.66 30.5885ZM139.66 28.3925C140.116 28.3925 140.542 28.2845 140.938 28.0685C141.346 27.8405 141.67 27.5045 141.91 27.0605C142.15 26.6165 142.27 26.0765 142.27 25.4405C142.27 24.4925 142.018 23.7665 141.514 23.2625C141.022 22.7465 140.416 22.4885 139.696 22.4885C138.976 22.4885 138.37 22.7465 137.878 23.2625C137.398 23.7665 137.158 24.4925 137.158 25.4405C137.158 26.3885 137.392 27.1205 137.86 27.6365C138.34 28.1405 138.94 28.3925 139.66 28.3925ZM149.231 21.8945C149.555 21.4385 149.999 21.0605 150.563 20.7605C151.139 20.4485 151.793 20.2925 152.525 20.2925C153.377 20.2925 154.145 20.5025 154.829 20.9225C155.525 21.3425 156.071 21.9425 156.467 22.7225C156.875 23.4905 157.079 24.3845 157.079 25.4045C157.079 26.4245 156.875 27.3305 156.467 28.1225C156.071 28.9025 155.525 29.5085 154.829 29.9405C154.145 30.3725 153.377 30.5885 152.525 30.5885C151.793 30.5885 151.145 30.4385 150.581 30.1385C150.029 29.8385 149.579 29.4605 149.231 29.0045V35.1785H146.711V20.4545H149.231V21.8945ZM154.505 25.4045C154.505 24.8045 154.379 24.2885 154.127 23.8565C153.887 23.4125 153.563 23.0765 153.155 22.8485C152.759 22.6205 152.327 22.5065 151.859 22.5065C151.403 22.5065 150.971 22.6265 150.563 22.8665C150.167 23.0945 149.843 23.4305 149.591 23.8745C149.351 24.3185 149.231 24.8405 149.231 25.4405C149.231 26.0405 149.351 26.5625 149.591 27.0065C149.843 27.4505 150.167 27.7925 150.563 28.0325C150.971 28.2605 151.403 28.3745 151.859 28.3745C152.327 28.3745 152.759 28.2545 153.155 28.0145C153.563 27.7745 153.887 27.4325 154.127 26.9885C154.379 26.5445 154.505 26.0165 154.505 25.4045Z" fill="white"/>
</svg>
