<svg width="181" height="160" viewBox="0 0 181 160" fill="none" xmlns="http://www.w3.org/2000/svg">
<path d="M237.75 27.7667C258.67 46.7699 266.418 79.3468 273.004 112.699C279.203 146.052 283.851 180.18 273.779 213.145C264.094 246.498 239.3 279.074 207.92 289.546C176.153 299.629 137.799 287.219 102.158 271.706C66.9042 256.193 34.3621 237.965 16.9288 210.042C-0.504461 181.731 -3.2163 144.113 3.3696 108.433C9.9555 72.366 25.4517 38.2378 51.4079 19.6224C77.3641 1.39485 113.78 -0.932077 148.647 0.619206C183.513 2.55831 217.218 8.37563 237.75 27.7667Z" fill="url(#paint0_linear_1869_765)"/>
<defs>
<linearGradient id="paint0_linear_1869_765" x1="0.0806885" y1="293.194" x2="292.732" y2="13.9247" gradientUnits="userSpaceOnUse">
<stop stop-color="#F87537"/>
<stop offset="1" stop-color="#FBA81F"/>
</linearGradient>
</defs>
</svg>
