<svg height="32" viewBox="0 0 28 32" width="28" xmlns="http://www.w3.org/2000/svg"><path d="m19.657 18.057c-1.829 0-2.743.914-5.486.914s-3.886-.914-5.714-.914c-4.571 0-8.457 3.657-8.457 8.457v2.514c0 1.6 1.371 2.971 2.971 2.971h21.943c1.6 0 2.971-1.371 2.971-2.971v-2.514c.229-4.8-3.657-8.457-8.229-8.457zm6.4 10.972c0 .457-.457.914-.914.914h-22.171c-.457 0-.914-.457-.914-.914v-2.514c0-3.429 2.971-6.4 6.4-6.4 1.143 0 2.514.914 5.714.914s4.343-.914 5.486-.914c3.429 0 6.4 2.971 6.4 6.4v2.514zm-12.114-13.029c4.343 0 8-3.657 8-8s-3.429-8-8-8-8 3.657-8 8 3.657 8 8 8zm0-13.943c3.2 0 5.943 2.743 5.943 5.943s-2.514 5.943-5.943 5.943-5.943-2.743-5.943-5.943 2.743-5.943 5.943-5.943z"/></svg>