<?xml version="1.0" encoding="utf-8"?>
<svg version="1.1" id="Capa_1" xmlns="http://www.w3.org/2000/svg" xmlns:xlink="http://www.w3.org/1999/xlink" x="0px" y="0px"
	 viewBox="0 0 41.7 64" style="enable-background:new 0 0 41.7 64;" xml:space="preserve">
<style type="text/css">
	.st0{fill:#88E2A3;}
	.st1{fill:#00A939;}
</style>
<path class="st0" d="M12.5,54.3v-8.3c0-4.6,3.7-8.3,8.3-8.3h8.3v8.3c0,4.6-3.7,8.3-8.3,8.3H12.5z"/>
<g>
	<path class="st1" d="M29.2,36.2h-8.3c-5.4,0-9.7,4.4-9.7,9.7v8.3c0,0.2,0,0.4,0.1,0.5c0.1,0.3,0.4,0.6,0.8,0.8
		c0.2,0.1,0.4,0.1,0.5,0.1h8.3c5.4,0,9.7-4.4,9.7-9.7v-8.3C30.6,36.8,30,36.2,29.2,36.2z M27.8,45.9c0,3.8-3.1,7-7,7h-5l6-6
		c0.5-0.5,0.5-1.4,0-2s-1.4-0.5-2,0l-6,6v-5c0-3.8,3.1-7,7-7h7V45.9z"/>
	<path class="st1" d="M26.4,0H15.3c-0.8,0-1.4,0.6-1.4,1.4v4.2H7c-0.5,0-1,0.3-1.2,0.8L0.1,17.5C0.1,17.7,0,17.9,0,18.1v41.7
		C0,62.1,1.9,64,4.2,64h33.4c2.3,0,4.2-1.9,4.2-4.2V18.1c0-0.2-0.1-0.4-0.1-0.6L36,6.3c-0.2-0.5-0.7-0.8-1.2-0.8h-7V1.4
		C27.8,0.6,27.2,0,26.4,0z M16.7,2.8H25v11.1h-8.3V2.8z M37.6,61.2H4.2c-0.8,0-1.4-0.6-1.4-1.4V25.1c8.6,0.1,13,1.4,17.7,2.7
		c4.6,1.3,9.5,2.7,18.5,2.8v29.2C39,60.6,38.3,61.2,37.6,61.2z M33.9,8.3l5,10.1v9.4c-8.6-0.1-13-1.4-17.7-2.7
		c-4.6-1.3-9.5-2.7-18.5-2.8v-3.9l5-10.1h6.1v7c0,0.8,0.6,1.4,1.4,1.4h11.1c0.8,0,1.4-0.6,1.4-1.4v-7H33.9z"/>
</g>
</svg>
