<?xml version="1.0" encoding="utf-8"?>
<!-- Generator: Adobe Illustrator 24.1.1, SVG Export Plug-In . SVG Version: 6.00 Build 0)  -->
<svg version="1.1" id="Capa_1" xmlns="http://www.w3.org/2000/svg" xmlns:xlink="http://www.w3.org/1999/xlink" x="0px" y="0px"
	 viewBox="0 0 41.7 64" style="enable-background:new 0 0 41.7 64;" xml:space="preserve">
<style type="text/css">
	.st0{fill:#88E2A3;}
	.st1{fill:#00A939;}
</style>
<path class="st0" d="M20.9,29.2h-9.7c-5.4,0-9.7-4.4-9.7-9.7V9.7h9.7c5.4,0,9.7,4.4,9.7,9.7v1.4V29.2z"/>
<path class="st1" d="M40.3,0h-9.7c-6.1,0-11.1,5-11.1,11.1v1c-2-2.3-5-3.8-8.3-3.8H1.4C0.6,8.3,0,9,0,9.7v9.7
	c0,6.1,5,11.1,11.1,11.1h8.3v7c0,0.1,0,0.2,0.1,0.3c0,0.4-0.1,0.7-0.1,1.1v1c-2-2.3-5-3.8-8.3-3.8H1.4c-0.8,0-1.4,0.6-1.4,1.4v9.7
	c0,6.1,5,11.1,11.1,11.1h8.3v4.2c0,0.8,0.6,1.4,1.4,1.4c0.8,0,1.4-0.6,1.4-1.4V57v-7h8.3c6.1,0,11.1-5,11.1-11.1v-9.7
	c0-0.8-0.6-1.4-1.4-1.4h-9.7c-3.3,0-6.3,1.5-8.3,3.8v-2.4v-7h8.3c6.1,0,11.1-5,11.1-11.1V1.4C41.7,0.6,41.1,0,40.3,0z M2.8,47.3V39
	h8.3c4.6,0,8.3,3.7,8.3,8.3v6.4l-8.8-8.8c-0.5-0.5-1.4-0.5-2,0c-0.5,0.5-0.5,1.4,0,2l8.8,8.8h-6.4C6.5,55.7,2.8,51.9,2.8,47.3z
	 M30.6,30.6H39V39c0,4.6-3.7,8.3-8.3,8.3h-6.4l8.8-8.8c0.5-0.5,0.5-1.4,0-2s-1.4-0.5-2,0l-8.8,8.8V39C22.3,34.4,26,30.6,30.6,30.6z
	 M2.8,19.5v-8.3h8.3c4.6,0,8.3,3.7,8.3,8.3v6.4l-8.8-8.8c-0.5-0.5-1.4-0.5-2,0c-0.5,0.5-0.5,1.4,0,2l8.8,8.8h-6.4
	C6.5,27.8,2.8,24.1,2.8,19.5z M39,11.1c0,4.6-3.7,8.3-8.3,8.3h-6.4l8.8-8.8c0.5-0.5,0.5-1.4,0-2s-1.4-0.5-2,0l-8.8,8.8v-6.4
	c0-4.6,3.7-8.3,8.3-8.3H39V11.1z"/>
</svg>
