<svg
        xmlns="http://www.w3.org/2000/svg"
        xmlns:xlink="http://www.w3.org/1999/xlink"
        width="64px" height="64px">
    <path fill-rule="evenodd"  fill="rgb(0, 0, 0)"
          d="M63.209,0.098 C63.053,0.033 62.886,-0.000 62.720,-0.000 L14.080,-0.000 C13.913,-0.000 13.747,0.033 13.591,0.098 C13.434,0.163 13.293,0.257 13.174,0.376 L0.375,13.174 C0.256,13.293 0.163,13.433 0.097,13.591 C0.033,13.747 -0.000,13.913 -0.000,14.080 L-0.000,62.720 C-0.000,63.428 0.573,64.000 1.280,64.000 L49.920,64.000 C50.086,64.000 50.253,63.967 50.409,63.901 C50.566,63.836 50.707,63.743 50.826,63.624 L63.625,50.826 C63.744,50.707 63.837,50.566 63.903,50.409 C63.967,50.252 64.000,50.086 64.000,49.920 L64.000,1.280 C64.000,1.114 63.967,0.947 63.901,0.791 C63.771,0.477 63.521,0.229 63.209,0.098 ZM61.440,49.390 L51.200,59.630 L51.200,14.610 L61.440,4.370 L61.440,49.390 ZM14.610,2.560 L35.310,2.560 L25.070,12.800 L20.480,12.800 L4.370,12.800 L14.610,2.560 ZM21.760,15.360 L29.440,15.360 L29.440,24.809 L28.732,24.455 C28.372,24.275 27.949,24.275 27.587,24.455 L25.600,25.449 L23.612,24.455 C23.432,24.365 23.236,24.320 23.040,24.320 C22.844,24.320 22.647,24.365 22.468,24.454 L21.760,24.809 L21.760,15.360 ZM30.720,12.800 L28.690,12.800 L38.930,2.560 L59.630,2.560 L49.390,12.800 L30.720,12.800 ZM2.560,15.360 L19.200,15.360 L19.200,26.880 C19.200,27.324 19.430,27.736 19.807,27.969 C20.013,28.096 20.246,28.160 20.480,28.160 C20.676,28.160 20.872,28.115 21.052,28.025 L23.040,27.031 L25.028,28.024 C25.387,28.205 25.811,28.205 26.173,28.024 L28.160,27.031 L30.148,28.024 C30.545,28.221 31.016,28.202 31.393,27.968 C31.770,27.735 32.000,27.324 32.000,26.880 L32.000,15.360 L48.640,15.360 L48.640,61.440 L2.560,61.440 L2.560,15.360 Z"/>
</svg>
