<?xml version="1.0" encoding="utf-8"?>
<!-- Generator: Adobe Illustrator 24.1.1, SVG Export Plug-In . SVG Version: 6.00 Build 0)  -->
<svg version="1.1" id="Capa_1" xmlns="http://www.w3.org/2000/svg" xmlns:xlink="http://www.w3.org/1999/xlink" x="0px" y="0px"
	 viewBox="0 0 64 64" style="enable-background:new 0 0 64 64;" xml:space="preserve">
<style type="text/css">
	.st0{fill:#88E2A3;}
	.st1{fill:#00A939;}
</style>
<g>
	<g>
		<path class="st0" d="M62.6,57v2.8c0,1.5-1.3,2.8-2.8,2.8H4.2c-1.5,0-2.8-1.3-2.8-2.8V57c0-1.5,1.3-2.8,2.8-2.8h13.9h27.8h13.9
			C61.4,54.3,62.6,55.5,62.6,57z"/>
		<path class="st0" d="M29.2,23.7V12.5c0-1,0.1-1.9,0.3-2.8c1.2-4.8,5.6-8.3,10.8-8.3h11.1v11.1c0,6.1-5,11.1-11.1,11.1H29.2z"/>
	</g>
</g>
<path class="st1" d="M59.8,52.9h-6.1c2.8-2.3,4.7-5.8,4.7-9.7V23.7c0-0.8-0.6-1.4-1.4-1.4h-8.8c2.8-2.3,4.7-5.8,4.7-9.7V1.4
	c0-0.8-0.6-1.4-1.4-1.4H40.3C35,0,30.3,3.4,28.5,8.3h-7.7c-0.5,0-0.9,0.3-1.2,0.7l-7.9,13.2H7c-0.8,0-1.4,0.6-1.4,1.4v19.5
	c0,3.9,1.8,7.4,4.7,9.7H4.2C1.9,52.9,0,54.7,0,57v2.8C0,62.1,1.9,64,4.2,64h55.7c2.3,0,4.2-1.9,4.2-4.2V57
	C64,54.7,62.1,52.9,59.8,52.9z M40.3,2.8h9.7v9.7c0,5.4-4.4,9.7-9.7,9.7h-7.8l11.5-11.5c0.5-0.5,0.5-1.4,0-2c-0.5-0.5-1.4-0.5-2,0
	L30.6,20.3v-7.8c0-0.8,0.1-1.6,0.3-2.4C32,5.8,35.9,2.8,40.3,2.8z M21.7,11.1h6.3c-0.1,0.5-0.1,0.9-0.1,1.4v9.7H15L21.7,11.1z
	 M29.2,25h11.1h15.3v5.6H8.3V25H29.2z M8.3,43.1v-9.7h47.3v9.7c0,5.4-4.4,9.7-9.7,9.7H18.1C12.7,52.9,8.3,48.5,8.3,43.1z M61.2,59.8
	c0,0.8-0.6,1.4-1.4,1.4H4.2c-0.8,0-1.4-0.6-1.4-1.4V57c0-0.8,0.6-1.4,1.4-1.4h55.7c0.8,0,1.4,0.6,1.4,1.4V59.8z"/>
</svg>
