<svg height="32" viewBox="0 0 45 32" width="45" xmlns="http://www.w3.org/2000/svg"><path d="m45.176 16.941v-8.471c0-1.6-1.224-2.824-2.824-2.824h-1.882v-1.882c0-.565-.376-.941-.941-.941h-5.647c-.565 0-.941.376-.941.941v1.882h-1.976c-.941-2.918-1.788-4.894-1.882-5.082-.094-.376-.471-.565-.847-.565h-11.294c-.376 0-.753.188-.847.565-.094.188-.941 2.165-1.882 5.082h-1.976v-1.882c0-.565-.376-.941-.941-.941h-5.647c-.565 0-.941.376-.941.941v1.882h-1.882c-1.6 0-2.824 1.224-2.824 2.824v20.706c0 1.6 1.224 2.824 2.824 2.824h39.529c1.6 0 2.824-1.224 2.824-2.824v-10.353h-1.882v10.353c0 .565-.376.941-.941.941h-13.553c2.259-1.506 3.953-3.859 4.706-6.588h1.318c1.6 0 2.824-1.224 2.824-2.824s-1.224-2.824-2.824-2.824h-1.129c-.094-.941-.188-1.882-.376-2.824h9.976v1.882h1.882zm-11.294 2.824h.941c.565 0 .941.376.941.941s-.376.941-.941.941h-1.035c0-.282.094-.659.094-.941s0-.659 0-.941zm.942-15.059h3.765v.941h-3.765zm-17.224-2.824h9.976c.188.471.376 1.035.659 1.882h-11.388c.282-.847.565-1.412.753-1.882zm-1.412 3.765h12.706c.753 2.165 1.506 4.8 2.165 7.624-2.071-2.353-5.082-3.859-8.471-3.859s-6.4 1.506-8.471 3.859c.565-2.824 1.412-5.459 2.071-7.624zm-9.6-.941h3.765v.941h-3.765zm-3.764 25.412c-.565 0-.941-.376-.941-.941v-14.118h6.588v-1.882h-6.588v-4.706c0-.565.376-.941.941-.941h10.824c-.565 1.694-1.035 3.671-1.412 5.647h-1.882v1.882h1.506c-.282 1.882-.565 3.859-.565 5.647 0 3.953 1.976 7.435 5.082 9.412zm19.764 0c-5.176 0-9.412-4.235-9.412-9.412s4.235-9.412 9.412-9.412c5.176 0 9.412 4.235 9.412 9.412s-4.235 9.412-9.412 9.412zm10.447-16.942c-.376-1.976-.941-3.953-1.412-5.647h10.729c.565 0 .941.376.941.941v4.706h-10.259zm-10.447 0c-4.141 0-7.529 3.388-7.529 7.529s3.388 7.529 7.529 7.529 7.529-3.388 7.529-7.529-3.388-7.529-7.529-7.529zm0 13.177c-3.106 0-5.647-2.541-5.647-5.647s2.541-5.647 5.647-5.647 5.647 2.541 5.647 5.647-2.541 5.647-5.647 5.647zm0-9.412v1.882c1.035 0 1.882.847 1.882 1.882h1.882c0-2.071-1.694-3.765-3.765-3.765zm-15.059-5.647h1.882v-1.882h-1.882zm-3.764 0h1.882v-1.882h-1.882z"/></svg>
