<?xml version="1.0" encoding="utf-8"?>
<!-- Generator: Adobe Illustrator 24.1.1, SVG Export Plug-In . SVG Version: 6.00 Build 0)  -->
<svg version="1.1" id="Layer_1" xmlns="http://www.w3.org/2000/svg" xmlns:xlink="http://www.w3.org/1999/xlink" x="0px" y="0px"
	 viewBox="0 0 26.6 32" style="enable-background:new 0 0 26.6 32;" xml:space="preserve">
<path d="M25.9,7.4h-6.7V5.8c0-3.2-2.7-5.8-5.9-5.8c-3.2,0-5.9,2.6-5.9,5.8v1.6H0.7C0.3,7.4,0,7.7,0,8.1v23.1C0,31.7,0.3,32,0.7,32
	h25.1c0.4,0,0.7-0.3,0.7-0.7V8.1C26.6,7.7,26.3,7.4,25.9,7.4z M9.2,5.8c0-2.2,1.8-4.1,4.1-4.1c2.3,0,4.1,1.8,4.1,4.1v1.6H9.2V5.8z
	 M25.1,30.5H1.5V8.9h5.9v2.8C7.2,11.9,7,12.2,7,12.6c0,0.7,0.6,1.3,1.3,1.3c0.7,0,1.3-0.6,1.3-1.3c0-0.4-0.1-0.7-0.4-0.9V8.9h8.2
	v2.8c-0.3,0.2-0.4,0.5-0.4,0.9c0,0.7,0.6,1.3,1.3,1.3c0.7,0,1.3-0.6,1.3-1.3c0-0.4-0.1-0.7-0.4-0.9V8.9h5.9V30.5z"/>
</svg>
