<svg height="32" viewBox="0 0 53 32" width="53" xmlns="http://www.w3.org/2000/svg"><path d="m44.622 3.556h-35.911c-.444 0-.8.356-.8.8v18.933c0 .444.356.8.711.8h35.911c.444 0 .711-.356.711-.8v-18.933c.178-.444-.178-.8-.622-.8zm-.711 19.022h-34.489v-17.511h34.4v17.511zm9.333 3.911c-.178-.178-.356-.356-.622-.356h-3.733v-23.2c0-1.6-1.244-2.933-2.844-2.933h-38.756c-1.6 0-2.844 1.333-2.844 2.933v23.2h-3.733c-.267 0-.444.089-.622.356-.089.178-.089.444 0 .711l1.067 2.578c.533 1.333 1.778 2.222 3.289 2.222h44.444c1.511 0 2.844-.889 3.378-2.311l1.067-2.578c0-.178 0-.444-.089-.622zm-47.288-23.556c0-.8.622-1.422 1.333-1.422h38.756c.8 0 1.333.622 1.333 1.422v23.2h-41.422zm44.888 26.223c-.356.8-1.156 1.333-1.956 1.333h-44.444c-.889 0-1.689-.533-1.956-1.333l-.622-1.511h49.6z"/></svg>