<svg height="32" viewBox="0 0 32 32" width="32" xmlns="http://www.w3.org/2000/svg"><path d="m30.844 3.556-2.4-2.4c-1.6-1.6-4.089-1.6-5.689 0l-21.956 22.044-.8 7.111c-.089.978.711 1.778 1.689 1.689l7.111-.8 22.044-22.044c1.511-1.511 1.511-4.089 0-5.6zm-5.955 8.711-14.044 14.044v-2.133h-2.933v-3.022h-2.222l14.044-14.044 5.156 5.156zm-16.978 16.977-3.644.444-1.867-1.867.444-3.644 1.244-1.244h2.133v3.022h3.022v2.133l-1.333 1.156zm21.511-21.511-3.111 3.111-5.156-5.156 3.111-3.111c.8-.8 2.044-.8 2.844 0l2.311 2.311c.8.8.8 2.044 0 2.844z"/></svg>
