<svg height="32" viewBox="0 0 48 32" width="48" xmlns="http://www.w3.org/2000/svg"><path d="m40.711 6.844h-7.378v-6.844h-23.467v6.133h-4.978v1.511h5.067v3.378h-9.956v1.511h9.867v3.378h-7.2v1.511h7.2v10.667h2.578c.356 2.222 2.222 3.911 4.533 3.911s4.178-1.689 4.533-3.911h14.756c.356 2.222 2.222 3.911 4.533 3.911s4.178-1.689 4.533-3.911h2.667v-13.956l-7.289-7.289zm-29.333 10.578h5.867v-1.511h-5.867v-3.378h2.667v-1.511h-2.667v-3.378h4.8v-1.511h-4.8v-4.622h20.444v19.022h-20.444zm5.689 13.067c-1.689 0-3.111-1.422-3.111-3.111s1.333-3.111 3.111-3.111 3.111 1.422 3.111 3.111c-.089 1.689-1.422 3.111-3.111 3.111zm23.822 0c-1.689 0-3.111-1.422-3.111-3.111s1.333-3.111 3.111-3.111c1.689 0 3.111 1.422 3.111 3.111-.089 1.689-1.422 3.111-3.111 3.111zm5.6-3.911h-1.156c-.356-2.133-2.222-3.822-4.533-3.822-2.222 0-4.178 1.689-4.533 3.822h-14.756c-.356-2.133-2.222-3.822-4.533-3.822s-4.178 1.689-4.533 3.822h-1.067v-4.444h21.956v-13.778h6.756l6.4 6.4v11.822zm-10.756-15.822v8.444h8.356v-3.378l-4.978-5.067h-3.378zm6.845 6.933h-5.333v-5.333h1.156l4.089 4.178v1.156z"/></svg>

