<svg height="32" viewBox="0 0 33 32" width="33" xmlns="http://www.w3.org/2000/svg"><path d="m26.578 11.111c2.133-1.778 1.422-5.244-1.289-5.956-.711-.178-1.422-.133-2.089.089l-2.133-3.689c-.844-1.511-3.022-1.556-3.911-.089-2.622 4.178-6.089 7.733-10.222 10.444-.222.133-.311.489-.178.711.044.044 3.556 6.178 3.556 6.222.133.267.489.356.756.222s.356-.489.222-.756l-3.289-5.778c3.956-2.667 7.422-6.178 10.133-10.489.489-.756 1.6-.756 2.044.044l7.6 13.289c.444.8-.089 1.778-.978 1.822-5.067.178-10 1.511-14.533 3.822 0 0-5.156 2.978-5.511 3.2-.933.533-2.089.222-2.622-.711l-2.8-4.844c-.533-.933-.222-2.089.711-2.622l3.333-1.956c.267-.133.356-.489.222-.756s-.489-.356-.756-.222l-3.333 1.956c-1.422.844-1.956 2.711-1.111 4.178l2.756 4.844c.844 1.467 2.667 1.956 4.133 1.111l.133-.089 3.422 6c.489.844 1.6 1.156 2.444.667l1.2-.711c.844-.489 1.156-1.6.667-2.444l-2.444-4.222c-.133-.267-.489-.356-.756-.222s-.356.489-.222.756l2.444 4.222c.178.311.089.756-.267.933l-1.2.711c-.311.178-.756.089-.933-.267l-3.422-6 4.4-2.533c4.311-2.222 9.067-3.511 14.044-3.689 1.733-.089 2.756-1.956 1.911-3.467l-2.133-3.733zm-.134-3.778c.533.933.356 2.133-.4 2.844l-2.222-3.911c.978-.311 2.089.089 2.622 1.067zm5.378-2.489-1.422.844c-.267.133-.578.044-.756-.222-.133-.267-.044-.622.222-.756l1.422-.844c.267-.133.578-.044.756.222.089.267 0 .622-.222.756zm-6.133-3.155.356-1.289c.089-.311.4-.489.667-.4.311.089.444.4.4.667l-.356 1.289c-.089.311-.4.489-.667.4-.311-.044-.444-.356-.4-.667zm7.2 9.067c-.044.267-.267.4-.533.4-.089 0-.044 0-1.422-.356-.311-.089-.444-.4-.4-.667.089-.311.4-.489.667-.4l1.289.356c.267.089.444.356.4.667z"/></svg>