<svg height="32" viewBox="0 0 45 32" width="45" xmlns="http://www.w3.org/2000/svg"><path d="m43.877 7.792h-1.513c-.227-1.664-1.816-2.799-3.48-2.496-1.286.227-2.27 1.21-2.496 2.496h-1.589c-.832 0-1.513.681-1.513 1.513v1.513c0 .832.681 1.513 1.513 1.513h1.513l.227 5.296h-3.253v-3.026c0-1.664-1.362-3.026-3.026-3.026h-15.13c-1.664 0-3.026 1.362-3.026 3.026v3.026h-3.253l.227-5.296h1.513c.832 0 1.513-.681 1.513-1.513v-1.513c0-.832-.681-1.513-1.513-1.513h-1.513c-.227-1.664-1.816-2.799-3.48-2.496-1.286.227-2.269 1.21-2.496 2.496h-1.589c-.832 0-1.513.681-1.513 1.513v1.513c0 .832.681 1.513 1.513 1.513h1.513l.681 17.324c0 1.286 1.059 2.345 2.345 2.345s2.345-1.059 2.345-2.345l.303-7.565h3.404v.756c0 3.782 3.026 6.808 6.809 6.808h7.565c3.782 0 6.808-3.026 6.808-6.809v-.756h3.404l.303 7.565c0 1.286 1.059 2.345 2.345 2.345s2.345-1.059 2.345-2.345l.681-17.324h1.513c.832 0 1.513-.681 1.513-1.513v-1.513c0-.832-.681-1.513-1.513-1.513zm-37.825-1.135c.681 0 1.286.454 1.437 1.135h-2.875c.151-.681.756-1.135 1.437-1.135zm.832 22.922c0 .454-.378.832-.832.832s-.832-.378-.832-.832l-.681-17.248h3.026zm1.438-18.761h-6.809v-1.513h9.078v1.513zm3.782 9.759h-3.404l.076-1.513h3.329v1.513zm18.156-4.464h1.513v6.808c0 2.95-2.345 5.296-5.296 5.296h-7.565c-2.95 0-5.296-2.345-5.296-5.296v-6.809h9.835c.454 0 .756-.303.756-.756s-.303-.756-.756-.756h-9.835c0-.832.681-1.513 1.513-1.513h15.13c.832 0 1.513.681 1.513 1.513h-1.513c-.454 0-.756.303-.756.756 0 .378.303.756.756.756zm9.078-9.456c.681 0 1.286.454 1.437 1.135h-2.875c.151-.681.757-1.135 1.437-1.135zm-6.052 13.92v-1.513h3.329l.076 1.513h-3.404zm6.884 9.002c0 .454-.378.832-.832.832s-.832-.378-.832-.832l-.681-17.248h3.026zm3.707-18.761h-9.078v-1.513h9.078zm-21.182 7.489c-2.118 0-3.782 1.664-3.782 3.782s1.664 3.782 3.782 3.782 3.782-1.664 3.782-3.782c0-2.043-1.664-3.782-3.782-3.782zm0 6.052c-1.286 0-2.27-.983-2.27-2.27s.983-2.27 2.27-2.27c1.286 0 2.27.983 2.27 2.27s-.983 2.27-2.27 2.27zm4.539-9.759h-.756c-.454 0-.756.303-.756.757s.303.756.756.756h.756c.454 0 .756-.303.756-.756s-.303-.756-.756-.756zm-7.868-6.808-.151.151c-.303.227-.378.757-.076 1.059.227.303.756.378 1.059.076l.151-.151c1.362-1.135 3.404-1.135 4.766 0l.151.151c.151.076.303.151.454.151.454 0 .756-.303.756-.757 0-.227-.076-.454-.303-.605l-.151-.151c-1.967-1.437-4.69-1.437-6.657.076zm7.868-1.513c.454 0 .756-.378.756-.756 0-.227-.151-.454-.303-.605-3.026-2.043-6.884-2.043-9.91 0-.378.151-.53.605-.378.983.227.378.681.53 1.059.303.076 0 .076-.076.151-.076 2.496-1.664 5.749-1.664 8.246 0 .076.076.227.151.378.151zm-10.213-3.026.454-.303c3.177-1.967 7.262-1.967 10.44 0l.454.303c.378.227.832.151 1.059-.227.227-.378.151-.832-.227-1.059l-.454-.227c-3.707-2.269-8.322-2.269-12.028 0l-.454.303c-.303.227-.378.681-.076.983.227.303.53.378.832.227z"/></svg>