<svg height="32" viewBox="0 0 32 32" width="32" xmlns="http://www.w3.org/2000/svg"><path d="m26.596 9.742v-2.844c0-.782-.498-1.493-1.28-1.778v-1.351h.64c1.067 0 1.849-.853 1.849-1.849.071-1.067-.782-1.92-1.778-1.92h-4.978c-.782 0-1.493.498-1.778 1.28h-3.2c-1.067 0-1.849.853-1.849 1.849 0 .356.284.64.64.64s.64-.284.64-.64.284-.64.64-.64h3.058c.284.711.924 1.28 1.778 1.28h.64v1.351c-.711.284-1.28.924-1.28 1.778v2.844c-3.058 1.209-5.404 4.124-5.404 7.538v1.209c0 .356.284.64.64.64s.64-.284.64-.64v-1.28c0-.213 0-.427 0-.64h14.436v.64 9.387h-14.364v-3.129c0-.356-.284-.64-.64-.64s-.64.284-.64.64v3.698c-.498-.142-1.067-.213-1.564-.213-.924-1.422-2.56-2.916-4.693-2.916-2.062.071-3.769 1.564-4.693 2.987-2.204-.213-4.053 1.564-4.053 3.698 0 .284 0 .498.071.782s.284.498.64.498h29.44c1.067 0 1.849-.853 1.849-1.849v-12.871c0-3.413-2.276-6.329-5.404-7.538zm-25.316 20.978c0-1.351 1.138-2.489 2.489-2.489.142 0 .356 0 .498.071.284.071.569-.071.64-.284.64-1.209 2.062-2.631 3.84-2.631 1.707 0 3.129 1.422 3.84 2.631.142.213.427.356.64.284.142 0 .356-.071.498-.071 1.351 0 2.489 1.067 2.489 2.489h-14.933zm29.44-.569c0 .356-.284.64-.64.64h-12.587c0-1.067-.427-2.062-1.28-2.773v-.071h14.507zm-9.742-27.662c-.356 0-.64-.284-.64-.64s.284-.64.64-.64h4.978c.356 0 .64.284.64.64s-.284.64-.64.64zm3.129 1.28v1.209h-1.28v-1.209zm-2.489 3.129c0-.356.284-.64.64-.64h2.489c.356 0 .64.284.64.64v2.489c-.64-.142-1.28-.213-1.92-.213s-1.209.071-1.778.213v-2.489zm-5.049 8.462c.924-2.844 3.698-4.978 6.898-4.978s6.116 2.062 7.04 4.978z"/></svg>