<svg height="32" viewBox="0 0 25 32" width="25" xmlns="http://www.w3.org/2000/svg"><path d="m12.516 11.022c0-2.418-1.92-4.409-4.338-4.409-2.347 0-4.338 1.991-4.338 4.409s1.92 4.409 4.338 4.409c2.347-.071 4.338-1.991 4.338-4.409zm-4.338 3.129c-1.707 0-3.058-1.422-3.058-3.129s1.351-3.129 3.058-3.129 3.058 1.422 3.058 3.129-1.351 3.129-3.058 3.129zm6.044-14.151h-12.16c-.569 0-1.138.284-1.493.711-.427.427-.64.996-.569 1.636l2.062 20.836c.071.569.284.996.711 1.351v5.618c0 .996.782 1.849 1.849 1.849h7.111c.996 0 1.849-.853 1.849-1.849v-5.618c.356-.356.64-.782.711-1.351l1.067-10.951c0-.356-.213-.64-.569-.711-.356 0-.64.213-.64.569l-1.067 10.951c-.071.427-.356.711-.782.711h-8.249c-.427 0-.711-.284-.782-.711l-1.849-18.773h5.547c.356 0 .64-.284.64-.64s-.284-.64-.64-.64h-5.689l-.071-.782c0-.284.071-.498.213-.64.142-.213.427-.284.64-.284h12.16c.213 0 .498.071.64.284s.213.427.213.64l-.569 5.476c0 .356.213.64.569.711.356 0 .64-.213.64-.569l.64-5.476c.071-.569-.142-1.209-.498-1.636-.427-.427-.996-.711-1.636-.711zm-10.24 25.031h8.391v3.271h-2.347c-.498-.427-1.138-.64-1.849-.64-.64 0-1.28.213-1.849.64h-2.347v-3.271zm0 4.48h2.631c.142 0 .356-.071.427-.213.284-.284.711-.498 1.138-.498s.853.142 1.138.498c.142.142.284.213.427.213h2.631v.64c0 .356-.284.64-.64.64h-7.111c-.356 0-.64-.284-.64-.64v-.64zm10.951-20.195c-.142 0-.356.071-.427.213-.142.142-.213.284-.213.427s.071.356.213.427c.142.142.284.213.427.213s.356-.071.427-.213c.142-.142.213-.284.213-.427s-.071-.356-.213-.427c-.071-.142-.213-.213-.427-.213zm-3.84 8.462c0-.356-.284-.64-.64-.64h-4.622c-.356 0-.64.284-.64.64s.284.64.64.64h4.622c.356-.071.64-.356.64-.64zm-3.911 1.849c-.356 0-.64.284-.64.64s.284.64.64.64h1.92c.356 0 .64-.284.64-.64s-.284-.64-.64-.64zm16.711 1.564c-2.844-3.627-2.133-5.618-2.062-5.689.142-.213.071-.498-.071-.711-.213-.213-.498-.213-.711-.142-.142.071-3.2 1.707-3.698 4.267-.213 1.138.071 2.276.924 3.413 2.844 3.556 2.276 5.262 2.204 5.404-.142.213-.142.498.071.711.142.142.284.213.427.213.071 0 .213 0 .284-.071.142-.071 3.058-1.493 3.627-3.911.142-1.209-.142-2.347-.996-3.484zm-.284 3.129c-.213 1.067-1.138 1.92-1.92 2.489-.071-1.138-.64-2.844-2.56-5.262-.64-.782-.853-1.564-.711-2.347.213-1.138 1.209-2.062 1.991-2.702v.427c.142 1.564.996 3.271 2.418 5.12.711.782.924 1.564.782 2.276zm-13.44-20.267c.142-.142.213-.284.213-.427s-.071-.356-.213-.427c-.142-.142-.284-.213-.427-.213s-.356.071-.427.213c-.142.142-.213.284-.213.427s.071.356.213.427.284.213.427.213c.142 0 .284-.071.427-.213z"/></svg>