<svg height="32" viewBox="0 0 32 32" width="32" xmlns="http://www.w3.org/2000/svg"><path d="m31.36 19.556v-12.302c0-1.28-.996-2.418-2.347-2.489v-1.138c0-.356-.284-.64-.64-.64h-.142v-2.347c0-.356-.284-.64-.64-.64h-2.489c-.356 0-.64.284-.64.64v2.347h-.142c-.356 0-.64.284-.64.64v1.138c-1.28.071-2.347 1.209-2.347 2.489v3.058h-8.462c-.356 0-.64.284-.64.64v2.347.071s0 0 0 0l.427 4.196c-.64-1.493-1.849-2.702-3.342-3.342v-1.564c0-.356-.284-.64-.64-.64h-1.422v-1.849h.782l.853.853c.142.142.284.213.427.213s.284-.071.427-.213c.213-.213.213-.64 0-.853l-1.067-1.067c-.142-.142-.284-.213-.427-.213h-3.698c-.356 0-.64.284-.64.64s.284.64.64.64h1.422v1.849h-1.422c-.356 0-.64.284-.64.64v1.564c-2.276.924-3.911 3.271-3.911 5.973s0 0 0 0v7.111c0 2.56 2.133 4.693 4.693 4.693h22.613c2.56 0 4.693-2.133 4.693-4.693v-7.111c0-.356-.284-.64-.64-.64zm-5.547-18.276h1.28v1.778h-1.28zm-.782 2.987h2.773v.498h-2.773zm-16.995 8.889v.569c-.427-.071-.924-.142-1.422-.142s-.996.071-1.422.142v-.569zm-1.423 1.635c2.773 0 5.049 2.062 5.333 4.764h-10.667c.284-2.702 2.56-4.764 5.333-4.764zm-3.271 15.716c-1.28-.498-2.133-1.778-2.133-3.2v-6.471h2.133zm4.836.213h-3.484-.071v-9.956h3.556v9.956zm4.764 0h-3.556v-9.956h3.556zm.569-19.2h7.396v1.067h-7.396zm4.267 19.2h-3.556v-9.956h3.556zm-1.636-11.164c.213-.356.569-.569.996-.569s.782.213.996.569h-1.991zm1.067-1.849c-1.138 0-2.062.782-2.347 1.849h-.711l-.569-5.689h7.253l-.427 5.689h-.853c-.284-1.067-1.209-1.849-2.347-1.849zm5.333 13.013h-3.556v-9.956h3.556zm.214-23.467c0-.711.569-1.28 1.28-1.28h4.907c.711 0 1.28.569 1.28 1.28v4.836c-2.418.213-4.48 1.849-5.333 4.124-.142.356.071.711.356.782.071 0 .142.071.213.071.284 0 .498-.142.569-.427.64-1.778 2.276-3.058 4.124-3.342v6.187h-7.396zm4.622 23.467h-.071-3.484v-9.956h3.556v9.956zm3.342-3.413c0 1.422-.853 2.631-2.133 3.2v-9.671h2.133z"/></svg>