<svg height="32" viewBox="0 0 36 32" width="36" xmlns="http://www.w3.org/2000/svg"><path d="m35.477 21.57c-.119-1.778-.751-13.511-.751-13.669v-.04c-.158-2.449-.356-5.254-3.16-6.677-2.015-1.027-4.267-1.027-6.439-1.067-.593 0-1.185 0-1.778-.04-1.185-.04-2.449-.079-3.674-.079-2.331 0-4.78.119-7.19.316-4.622.435-9.481.79-11.22 4.069-1.857 3.516-1.106 14.38-1.106 14.696 0 4.109 0 9.679 5.649 11.338 4.03 1.225 16.395 1.58 17.896 1.58 2.844 0 5.096-.237 7.19-.79 4.583-1.185 4.859-6.084 4.583-9.64zm-4.86 8.573c-1.975.514-4.148.751-6.914.751-1.501 0-3.002-.079-4.504-.119l-.83-.04c-4.109-.198-8.296-.514-12.365-1.343-5.531-1.146-4.741-10.864-4.741-11.18 0-5.728-.83-9.995.909-13.314 1.58-2.923 6.163-3.121 10.39-3.477 2.41-.198 4.78-.316 7.111-.316 1.225 0 2.449 0 3.635.079.593.04 1.225.04 1.817.04 2.054.04 4.148.04 5.965.948 2.212 1.106 2.41 3.477 2.568 5.768 0 .158.632 11.891.751 13.709.237 3.319 0 7.506-3.793 8.494zm-7.308-13.748c-4.701-.119-9.402-.198-14.143-.277-.119 0-.277.04-.514.119.079.356.119.632.198.948.632 2.805 1.422 5.61 1.896 8.454.593 3.556.079 2.41 2.923 2.528.751.04 1.027-.356 1.067-1.146.04-1.501-.316-3.358 1.106-3.951 4.583-1.817 4.306 5.215 4.899 5.175.869-.04 1.62-.119 2.41-.158.632 0 .948-.237 1.027-.909.316-2.805.711-5.965.948-8.77.198-1.896.119-1.975-1.817-2.015zm-4.228-7.23c.672.79 5.649 5.57 7.19 7.19.435.435.83.474 1.343.079 1.975-1.501 2.015-1.58.514-3.595-.04-.079-4.267-4.267-6.321-6.281-1.343-1.343-2.568-1.778-3.793-1.659-1.896.158-3.714 1.659-5.728 3.042-2.331 1.58-4.622 3.16-6.993 4.662-1.62 1.027-1.462 1.185-.316 3.042 1.185 1.936 9.323-4.583 12.365-6.321.672-.395 1.422-.553 1.738-.158zm7.191 17.383c.079.198.435.395.632.395 1.541 0 3.081 0 4.662-.079.198 0 .553-.198.593-.356.198-.751.277-1.501.435-2.41-2.41.119-4.622.198-7.032.316.237.83.435 1.501.711 2.133z"/></svg>
