<svg height="32" viewBox="0 0 47 32" width="47" xmlns="http://www.w3.org/2000/svg"><path d="m46.605 24.615-3.528-18.626c-.656-3.446-3.692-5.99-7.221-5.99h-5.826c-1.395 0-2.708.821-3.364 2.051-.328.738-1.067 1.231-1.887 1.231h-2.872c-.82 0-1.559-.492-1.887-1.149-.656-1.313-1.969-2.133-3.364-2.133h-5.826c-3.528 0-6.564 2.544-7.221 5.99l-3.528 18.708c-.656 3.364 1.559 6.564 4.923 7.221.328 0 .738.082 1.149.082 2.38 0 4.513-1.395 5.579-3.528l3.364-7.138c.985-1.969 2.954-3.282 5.169-3.282h6.4c2.215 0 4.185 1.313 5.169 3.282l3.364 7.138c1.477 3.118 5.087 4.431 8.123 2.954 2.38-1.231 3.774-4.021 3.282-6.81zm-5.251 5.662c-1.969.41-4.02-.656-4.841-2.462l-3.364-7.138c-1.149-2.626-3.774-4.267-6.646-4.267h-6.4c-2.872 0-5.415 1.641-6.646 4.267l-3.364 7.138c-1.067 2.297-3.692 3.2-5.99 2.215-1.887-.903-2.872-2.954-2.544-4.923l3.692-18.79c.492-2.708 2.79-4.677 5.58-4.677h5.826c.82 0 1.559.492 1.887 1.149.656 1.313 1.969 2.133 3.364 2.133h2.872c1.395 0 2.708-.821 3.364-2.051.328-.738 1.067-1.231 1.887-1.231h5.826c2.708 0 5.087 1.969 5.58 4.677l3.528 18.626c.492 2.462-1.149 4.841-3.61 5.333zm-24.534-22.892h-1.641v-1.641c0-.492-.328-.821-.821-.821h-3.282c-.41 0-.821.328-.821.821v1.641h-1.641c-.41 0-.821.328-.821.82v3.282c0 .492.328.821.821.821h1.641v1.641c0 .492.328.821.82.821h3.282c.41 0 .821-.328.821-.82v-1.641h1.641c.41 0 .82-.328.82-.821v-3.282c0-.492-.41-.821-.82-.821zm-.82 3.282h-1.641c-.41 0-.821.328-.821.821v1.641h-1.641v-1.641c0-.492-.328-.82-.821-.82h-1.641v-1.641h1.641c.41 0 .82-.328.82-.821v-1.641h1.641v1.641c0 .492.328.82.821.82h1.641v1.641zm17.887-2.052c1.149 0 2.051-.903 2.051-2.051s-.903-2.051-2.051-2.051c-1.149 0-2.051.903-2.051 2.051.082 1.149.985 2.051 2.051 2.051zm0-2.461c.246 0 .41.164.41.41s-.164.41-.41.41-.328-.164-.328-.41.164-.41.328-.41zm0 4.923c-1.149 0-2.051.903-2.051 2.051s.903 2.051 2.051 2.051c1.149 0 2.051-.903 2.051-2.051s-.903-2.051-2.051-2.051zm0 2.461c-.246 0-.41-.164-.41-.41s.164-.41.41-.41.41.164.41.41-.164.41-.41.41zm-1.149-3.692c0-1.149-.903-2.051-2.051-2.051s-2.051.903-2.051 2.051c0 1.149.903 2.051 2.051 2.051 1.067 0 2.051-.903 2.051-2.051zm-2.051.41c-.246 0-.41-.164-.41-.41s.164-.41.41-.41.41.164.41.41-.164.41-.41.41zm6.482-2.461c-1.149 0-2.051.903-2.051 2.051s.903 2.051 2.051 2.051 2.051-.903 2.051-2.051c0-1.149-.903-2.051-2.051-2.051zm0 2.461c-.246 0-.41-.164-.41-.41s.164-.41.41-.41.41.164.41.41-.164.41-.41.41z"/></svg>