<svg
        xmlns="http://www.w3.org/2000/svg"
        xmlns:xlink="http://www.w3.org/1999/xlink"
        width="52px" height="64px">
    <path fill-rule="evenodd"  fill="rgb(0, 0, 0)"
          d="M51.919,25.662 C51.919,11.512 40.276,-0.000 25.964,-0.000 C11.651,-0.000 0.007,11.512 0.007,25.662 L0.007,33.058 L0.007,41.900 C0.007,44.260 1.950,46.181 4.338,46.181 C4.948,46.181 5.528,46.052 6.055,45.825 C6.475,48.921 9.136,51.325 12.381,51.325 C15.915,51.325 18.792,48.481 18.792,44.986 L18.792,29.972 C18.792,26.477 15.915,23.634 12.381,23.634 C9.136,23.634 6.475,26.037 6.055,29.133 C5.528,28.907 4.948,28.778 4.338,28.778 C3.759,28.778 3.209,28.895 2.705,29.099 L2.705,25.662 C2.705,12.982 13.139,2.666 25.964,2.666 C38.789,2.666 49.222,12.982 49.222,25.676 L49.259,29.086 C48.766,28.892 48.232,28.778 47.669,28.778 C47.058,28.778 46.478,28.907 45.950,29.134 C45.531,26.037 42.871,23.634 39.626,23.634 C36.092,23.634 33.215,26.477 33.215,29.972 L33.215,44.986 C33.215,48.481 36.092,51.325 39.626,51.325 C42.871,51.325 45.530,48.921 45.950,45.825 C46.193,45.929 46.448,46.008 46.711,46.067 C47.796,48.891 49.358,54.956 46.803,58.037 C45.018,60.190 41.384,60.764 36.046,59.797 C35.865,57.775 33.850,56.171 31.372,56.171 C28.774,56.171 26.662,57.927 26.662,60.086 C26.662,62.244 28.774,64.000 31.372,64.000 C32.946,64.000 34.335,63.348 35.190,62.359 C37.123,62.727 38.895,62.921 40.482,62.921 C44.311,62.921 47.128,61.853 48.891,59.724 C52.330,55.571 50.514,48.761 49.469,45.781 C50.957,45.103 51.998,43.623 51.998,41.900 L51.998,33.058 C51.998,33.011 51.985,32.966 51.984,32.919 C51.985,32.893 51.998,32.871 51.998,32.845 L51.919,25.662 ZM8.667,29.972 C8.667,27.948 10.333,26.301 12.381,26.301 C14.428,26.301 16.094,27.948 16.094,29.972 L16.094,44.986 C16.094,47.011 14.428,48.658 12.381,48.658 C10.333,48.658 8.667,47.011 8.667,44.986 L8.667,41.900 L8.667,33.058 L8.667,29.972 ZM4.338,31.445 C5.237,31.445 5.969,32.168 5.969,33.058 L5.969,41.900 C5.969,42.790 5.237,43.514 4.338,43.514 C3.437,43.514 2.705,42.790 2.705,41.900 L2.705,33.058 C2.705,32.168 3.437,31.445 4.338,31.445 ZM31.372,61.333 C30.186,61.333 29.359,60.676 29.359,60.086 C29.359,59.495 30.186,58.838 31.372,58.838 C32.557,58.838 33.384,59.495 33.384,60.086 C33.384,60.676 32.557,61.333 31.372,61.333 ZM43.339,44.986 C43.339,47.011 41.673,48.658 39.626,48.658 C37.578,48.658 35.912,47.011 35.912,44.986 L35.912,29.972 C35.912,27.948 37.578,26.301 39.626,26.301 C41.673,26.301 43.339,27.948 43.339,29.972 L43.339,33.058 L43.339,41.900 L43.339,44.986 ZM46.036,33.058 C46.036,32.168 46.768,31.445 47.669,31.445 C48.569,31.445 49.301,32.168 49.301,33.058 L49.301,41.900 C49.301,42.789 48.570,43.512 47.672,43.514 C47.663,43.514 47.656,43.510 47.648,43.510 C46.757,43.498 46.036,42.783 46.036,41.900 L46.036,33.058 Z"/>
</svg>