<svg height="32" viewBox="0 0 36 32" width="36" xmlns="http://www.w3.org/2000/svg"><path d="m32 10.044h-6.044v-6.044c0-2.222-1.778-4-4-4h-17.956c-2.222 0-4 1.778-4 4v10.044c0 2.222 1.778 4 4 4h2.044v3.289c0 .444.356.711.711.711.178 0 .267 0 .444-.178l4.8-2.756v4.889c0 2.222 1.778 4 4 4h6.044l6.844 3.822c.178.089.267.178.444.178.356 0 .711-.267.711-.711v-3.289h1.956c2.222 0 4-1.778 4-4v-9.956c0-2.222-1.778-4-4-4zm-28 5.956c-1.067 0-2.044-.889-2.044-2.044v-9.956c0-1.067.889-2.044 2.044-2.044h18.044c1.067 0 2.044.889 2.044 2.044v10.044c0 1.067-.889 2.044-2.044 2.044h-8.533l-.444.267-5.067 2.756v-3.111zm30.044 8c0 1.067-.889 2.044-2.044 2.044h-4v3.111l-4.978-2.844-.444-.267h-6.578c-1.067 0-2.044-.889-2.044-2.044v-6.044h8c2.222 0 4-1.778 4-4v-2.044h6.044c1.067 0 2.044.889 2.044 2.044z"/></svg>
