<?xml version="1.0" encoding="utf-8"?>
<!-- Generator: Adobe Illustrator 24.1.1, SVG Export Plug-In . SVG Version: 6.00 Build 0)  -->
<svg version="1.1" id="Capa_1" xmlns="http://www.w3.org/2000/svg" xmlns:xlink="http://www.w3.org/1999/xlink" x="0px" y="0px"
	 viewBox="0 0 52.9 64" style="enable-background:new 0 0 52.9 64;" xml:space="preserve">
<style type="text/css">
	.st0{fill:#88E2A3;}
	.st1{fill:#00A939;}
</style>
<g>
	<path class="st0" d="M34.8,62.6V57v-2.8c0-4.6,3.7-8.3,8.3-8.3h8.3v8.3c0,4.6-3.7,8.3-8.3,8.3H34.8z"/>
	<path class="st0" d="M34.8,62.6h-5.6h-2.8c-4.6,0-8.3-3.7-8.3-8.3v-8.3h8.3c4.6,0,8.3,3.7,8.3,8.3V57V62.6z"/>
</g>
<path class="st1" d="M1.4,8.3C0.6,8.3,0,9,0,9.7V57c0,3.8,3.1,7,7,7h19.5h8.3h8.3c5.4,0,9.7-4.4,9.7-9.7v-8.3c0-0.8-0.6-1.4-1.4-1.4
	h-8.3c-2.7,0-5.2,1.1-7,2.9V9.7c0-0.8-0.6-1.4-1.4-1.4H13.9V4.2C13.9,1.9,12,0,9.7,0H1.4C0.6,0,0,0.6,0,1.4s0.6,1.4,1.4,1.4h8.3
	c0.8,0,1.4,0.6,1.4,1.4v4.2H1.4z M11.1,11.1v10.7c-2.5,0.3-5.3,0.4-8.3,0.4V11.1H11.1z M33.4,47.5c-1.8-1.8-4.2-2.9-7-2.9h-8.3
	c-0.8,0-1.4,0.6-1.4,1.4v7H2.8V25c3.1,0,5.8-0.2,8.3-0.4v12.9c0,0.8,0.6,1.4,1.4,1.4s1.4-0.6,1.4-1.4V24.3c1.6-0.2,3-0.4,4.4-0.7
	c4-0.7,7.8-1.3,15.1-1.4V47.5z M33.4,59.3l-6-6c-0.5-0.5-1.4-0.5-2,0s-0.5,1.4,0,2l6,6h-5c-3.8,0-7-3.1-7-7v-7h7c3.8,0,7,3.1,7,7
	V59.3z M7,61.2c-2.3,0-4.2-1.9-4.2-4.2v-1.4h14c0.3,2.2,1.3,4.1,2.8,5.6H7z M43.1,47.3h7v7c0,3.8-3.1,7-7,7h-5l6-6
	c0.5-0.5,0.5-1.4,0-2c-0.5-0.5-1.4-0.5-2,0l-6,6v-5C36.2,50.4,39.3,47.3,43.1,47.3z M33.4,11.1v8.4c-7.5,0.1-11.6,0.7-15.5,1.4
	c-1.3,0.2-2.6,0.4-4,0.6V11.1H33.4z"/>
</svg>
