<svg
        xmlns="http://www.w3.org/2000/svg"
        xmlns:xlink="http://www.w3.org/1999/xlink"
        width="36px" height="24px">
    <path fill-rule="evenodd"  fill="rgb(0, 0, 0)"
          d="M36.000,23.000 L36.000,1.000 C36.000,0.448 35.539,-0.000 34.971,-0.000 L1.028,-0.000 C0.461,-0.000 -0.000,0.448 -0.000,1.000 L-0.000,23.000 C-0.000,23.552 0.461,24.000 1.028,24.000 L34.971,24.000 C35.539,24.000 36.000,23.552 36.000,23.000 ZM18.000,13.080 L3.282,2.000 L32.718,2.000 L18.000,13.080 ZM2.057,22.000 L2.057,3.608 L12.755,11.661 L7.575,15.801 C7.137,16.152 7.073,16.782 7.434,17.208 C7.638,17.449 7.933,17.573 8.230,17.573 C8.459,17.573 8.690,17.499 8.883,17.346 L14.424,12.917 L17.371,15.135 C17.556,15.275 17.779,15.344 18.001,15.344 C18.223,15.344 18.445,15.274 18.631,15.135 L21.578,12.917 L27.121,17.347 C27.313,17.500 27.544,17.575 27.774,17.575 C28.071,17.575 28.366,17.450 28.569,17.210 C28.930,16.783 28.867,16.153 28.429,15.802 L23.247,11.661 L33.943,3.608 L33.943,22.000 L2.057,22.000 Z"/>
</svg>