<svg
        xmlns="http://www.w3.org/2000/svg"
        xmlns:xlink="http://www.w3.org/1999/xlink"
        width="36px" height="36px">
    <path fill-rule="evenodd"  fill="rgb(0, 0, 0)"
          d="M35.917,34.840 L28.718,20.440 C28.598,20.160 28.318,20.000 27.998,20.000 L24.918,20.000 L26.838,17.160 C29.118,13.800 29.398,9.600 27.598,5.960 C25.838,2.400 22.438,0.200 18.559,-0.000 C18.199,-0.000 17.839,-0.000 17.439,-0.000 C13.559,0.200 10.159,2.400 8.400,5.960 C6.560,9.640 6.840,13.800 9.160,17.160 L11.079,20.000 L8.000,20.000 C7.680,20.000 7.400,20.160 7.280,20.440 L0.080,34.840 C-0.040,35.080 -0.040,35.360 0.120,35.600 C0.280,35.840 0.520,36.000 0.800,36.000 L35.197,36.000 C35.477,36.000 35.717,35.840 35.877,35.600 C36.037,35.400 36.037,35.080 35.917,34.840 ZM10.479,16.280 C8.520,13.400 8.280,9.800 9.839,6.680 C11.319,3.640 14.199,1.760 17.519,1.600 C17.839,1.600 18.159,1.600 18.479,1.600 C21.798,1.760 24.678,3.640 26.158,6.640 C27.718,9.800 27.478,13.360 25.518,16.240 L18.919,25.920 C18.719,26.200 18.399,26.400 17.999,26.400 C17.599,26.400 17.279,26.200 17.079,25.920 L10.479,16.280 ZM2.080,34.400 L8.480,21.600 L12.159,21.600 L15.719,26.800 C16.239,27.560 17.079,28.000 17.999,28.000 C18.919,28.000 19.759,27.560 20.279,26.800 L23.838,21.600 L27.518,21.600 L33.917,34.400 L2.080,34.400 ZM23.198,10.800 C23.198,7.920 20.878,5.600 17.999,5.600 C15.119,5.600 12.799,7.920 12.799,10.800 C12.799,13.680 15.119,16.000 17.999,16.000 C20.878,16.000 23.198,13.680 23.198,10.800 ZM14.399,10.800 C14.399,8.800 15.999,7.200 17.999,7.200 C19.999,7.200 21.598,8.800 21.598,10.800 C21.598,12.800 19.999,14.400 17.999,14.400 C15.999,14.400 14.399,12.800 14.399,10.800 Z"/>
</svg>