<svg
        xmlns="http://www.w3.org/2000/svg"
        xmlns:xlink="http://www.w3.org/1999/xlink"
        width="48px" height="45px">
    <path fill-rule="evenodd"  fill="rgb(0, 0, 0)"
          d="M4.633,18.124 C4.460,17.947 4.286,17.654 4.286,17.361 C4.286,17.067 4.402,16.774 4.633,16.598 C4.865,16.422 5.096,16.246 5.386,16.246 C5.675,16.246 5.965,16.363 6.138,16.598 C6.312,16.833 6.486,17.067 6.486,17.361 C6.486,17.654 6.370,17.947 6.138,18.124 C5.907,18.299 5.675,18.475 5.386,18.475 C5.154,18.475 4.865,18.358 4.633,18.124 ZM9.554,10.087 C9.844,10.087 10.191,9.969 10.422,9.676 C10.828,9.206 10.712,8.502 10.249,8.092 C9.786,7.681 9.091,7.798 8.686,8.268 C8.280,8.737 8.396,9.441 8.859,9.852 C9.091,9.969 9.322,10.087 9.554,10.087 ZM21.248,2.754 C21.306,2.754 21.422,2.754 21.480,2.754 C22.059,2.636 22.464,2.050 22.290,1.404 C22.175,0.818 21.596,0.407 20.959,0.583 L20.959,0.583 C20.380,0.700 19.975,1.287 20.148,1.932 C20.264,2.401 20.727,2.754 21.248,2.754 ZM6.544,13.899 C6.717,13.958 6.891,14.017 7.007,14.017 C7.412,14.017 7.817,13.782 7.991,13.430 C8.280,12.902 8.049,12.198 7.528,11.964 C7.007,11.670 6.312,11.905 6.081,12.433 C5.791,12.961 5.965,13.665 6.544,13.899 ZM16.848,4.279 C17.022,4.279 17.138,4.220 17.312,4.161 C17.833,3.927 18.064,3.223 17.833,2.695 C17.601,2.167 16.906,1.932 16.385,2.167 C15.864,2.401 15.633,3.105 15.864,3.633 C16.038,4.044 16.443,4.279 16.848,4.279 ZM12.854,6.743 C13.086,6.743 13.317,6.684 13.549,6.508 C14.012,6.156 14.128,5.452 13.722,4.924 C13.375,4.455 12.680,4.337 12.159,4.748 L12.159,4.748 C11.696,5.100 11.580,5.804 11.986,6.332 C12.217,6.625 12.564,6.743 12.854,6.743 ZM25.880,-0.004 L25.880,-0.004 C25.822,-0.004 25.706,-0.004 25.648,-0.004 C25.590,-0.004 25.590,-0.004 25.532,0.055 C25.474,0.055 25.474,0.055 25.416,0.114 C25.359,0.114 25.359,0.172 25.301,0.172 C25.301,0.172 25.243,0.172 25.243,0.231 C25.243,0.231 25.243,0.231 25.185,0.289 C25.127,0.348 25.069,0.348 25.069,0.407 C25.069,0.407 25.011,0.465 25.011,0.524 L24.953,0.583 C24.953,0.583 24.953,0.583 24.953,0.642 C24.837,0.818 24.780,0.993 24.780,1.228 C24.780,1.463 24.837,1.639 24.953,1.815 L24.953,1.815 C25.127,2.108 25.474,2.284 25.880,2.284 C36.879,2.284 45.852,11.377 45.852,22.523 C45.852,33.669 36.879,42.762 25.880,42.762 C15.401,42.762 6.775,34.549 5.965,24.166 L7.759,25.984 C7.991,26.219 8.280,26.336 8.512,26.336 C8.744,26.336 9.091,26.219 9.265,25.984 C9.670,25.574 9.670,24.870 9.265,24.400 L5.560,20.646 C5.154,20.235 4.460,20.235 3.997,20.646 L0.291,24.400 C-0.114,24.811 -0.114,25.515 0.291,25.984 C0.523,26.219 0.812,26.336 1.044,26.336 C1.276,26.336 1.623,26.219 1.797,25.984 L3.707,24.049 C4.460,35.723 14.070,44.992 25.822,44.992 C38.037,44.992 47.994,34.901 47.994,22.523 C48.052,10.087 38.095,-0.004 25.880,-0.004 ZM18.701,18.945 C18.701,16.012 21.075,13.606 23.969,13.606 L24.780,13.606 L24.780,10.673 C24.780,10.087 25.243,9.558 25.880,9.558 C26.459,9.558 26.979,10.028 26.979,10.673 L26.979,13.606 L30.685,13.606 C31.263,13.606 31.784,14.076 31.784,14.721 C31.784,15.366 31.321,15.835 30.685,15.835 L26.979,15.835 L26.979,16.481 L26.979,22.113 L27.790,22.113 C30.685,22.113 33.058,24.518 33.058,27.451 C33.058,30.384 30.685,32.790 27.790,32.790 L27.732,32.790 L27.674,32.790 L26.979,32.790 L26.979,35.781 C26.979,36.368 26.516,36.896 25.880,36.896 C25.301,36.896 24.780,36.427 24.780,35.781 L24.780,32.790 L20.901,32.790 C20.322,32.790 19.801,32.320 19.801,31.675 C19.801,31.030 20.264,30.560 20.901,30.560 L24.780,30.560 L24.780,29.856 L24.780,24.283 L23.969,24.283 C21.075,24.342 18.701,21.937 18.701,18.945 ZM27.790,24.342 L26.979,24.342 L26.979,29.915 L26.979,30.619 L27.674,30.619 L27.732,30.619 L27.790,30.619 C29.469,30.619 30.858,29.211 30.858,27.510 C30.858,25.808 29.527,24.342 27.790,24.342 ZM20.901,18.945 C20.901,20.646 22.290,22.054 23.969,22.054 L24.780,22.054 L24.780,16.422 L24.780,15.777 L23.969,15.777 C22.290,15.835 20.901,17.243 20.901,18.945 Z"/>
</svg>