<svg height="32" viewBox="0 0 32 32" width="32" xmlns="http://www.w3.org/2000/svg"><path d="m11.691 11.157c.267-.267.267-.668 0-.935-2.539-2.539-2.539-6.547 0-9.086.267-.267.267-.668 0-.935s-.668-.267-.935 0c-3.006 3.006-3.006 7.95 0 10.956.267.267.668.267.935 0zm9.086-.936c-.267.267-.267.668 0 .935s.668.267.935 0c3.006-3.006 3.006-7.95 0-10.956-.267-.267-.668-.267-.935 0s-.267.668 0 .935c2.472 2.539 2.472 6.547 0 9.086zm-8.151-.935c.267.267.668.267.935 0s.267-.668 0-.935c-.735-.735-1.069-1.67-1.069-2.672s.401-1.937 1.069-2.672c.267-.267.267-.668 0-.935s-.668-.267-.935 0c-.935.935-1.47 2.205-1.47 3.608 0 1.336.534 2.605 1.47 3.608zm6.28 0c.267.267.668.267.935 0 2.004-2.004 2.004-5.211 0-7.215-.267-.267-.668-.267-.935 0s-.267.668 0 .935c1.47 1.47 1.47 3.875 0 5.278-.267.334-.267.735 0 1.002zm10.756 6.948h-10.155v-2.271c0-1.537-1.136-2.873-2.605-3.14v-2.806c1.002-.267 1.737-1.202 1.737-2.338 0-1.336-1.069-2.405-2.405-2.405s-2.405 1.069-2.405 2.405c0 1.069.735 2.004 1.737 2.338v2.806c-1.47.267-2.605 1.603-2.605 3.14v2.271h-10.555c-1.336 0-2.405 1.069-2.405 2.405v8.351c0 1.336 1.069 2.405 2.405 2.405h.601c.067 1.47 1.269 2.605 2.739 2.605s2.672-1.203 2.739-2.605h15.165c.067 1.47 1.269 2.605 2.739 2.605s2.672-1.203 2.739-2.605h.601c1.336 0 2.405-1.069 2.405-2.405v-8.351c-.067-1.336-1.136-2.405-2.472-2.405zm-14.497-10.556c0-.601.534-1.069 1.069-1.069.601 0 1.069.468 1.069 1.069s-.468 1.069-1.069 1.069-1.069-.468-1.069-1.069zm-.869 8.284c0-1.069.868-1.937 1.937-1.937s1.937.868 1.937 1.937v2.271h-3.808v-2.271zm-10.02 15.433h2.806c-.134 1.67-2.605 1.67-2.806 0zm1.536-1.337v-3.14c0-.468.334-.802.802-.802h18.839c.468 0 .802.334.802.802v3.14zm20.576 2.606c-.735 0-1.336-.601-1.403-1.269h2.806c-.067.668-.668 1.269-1.403 1.269zm4.343-3.674c0 .601-.468 1.069-1.069 1.069h-2.071v-3.14c0-1.203-.935-2.138-2.138-2.138h-18.839c-1.202 0-2.138.935-2.138 2.138v3.14h-2.071c-.601 0-1.069-.468-1.069-1.069v-8.351c0-.601.468-1.069 1.069-1.069h27.324c.601 0 1.069.468 1.069 1.069v8.351zm-20.977-1.604h-1.804c-.401 0-.668.267-.668.668s.267.668.668.668h1.804c.401 0 .668-.267.668-.668s-.334-.668-.668-.668zm3.607 0h-.868c-.401 0-.668.267-.668.668s.267.668.668.668h.868c.401 0 .668-.267.668-.668s-.334-.668-.668-.668zm-9.887-6.614c-.534 0-1.002.468-1.002 1.002s.468 1.002 1.002 1.002 1.002-.468 1.002-1.002c0-.601-.468-1.002-1.002-1.002zm3.207 0c-.534 0-1.002.468-1.002 1.002s.468 1.002 1.002 1.002 1.002-.468 1.002-1.002c0-.601-.401-1.002-1.002-1.002zm3.273 0c-.534 0-1.002.468-1.002 1.002s.468 1.002 1.002 1.002 1.002-.468 1.002-1.002c0-.601-.468-1.002-1.002-1.002z"/></svg>