<svg height="32" viewBox="0 0 36 32" width="36" xmlns="http://www.w3.org/2000/svg"><path d="m35.56 11.88c-.2-4.08-.48-9.68-6.16-11.08-4.12-1-16.44-.8-17.96-.72-2.84.12-5.08.48-7.12 1.12-4.52 1.4-4.56 6.28-4.16 9.84.24 1.76 1.36 13.48 1.4 13.6v.04c.28 2.48.6 5.24 3.44 6.52 2.08.92 4.32.84 6.48.76.6-.04 1.2-.04 1.76-.04 1.2 0 2.48 0 3.72-.08 2.36-.12 4.76-.32 7.16-.64 4.56-.64 9.44-1.2 11-4.56 1.68-3.6.44-14.44.44-14.76zm-1.44 14.28c-1.4 3-5.96 3.36-10.16 3.96-2.4.32-4.76.56-7.08.64-1.24.04-2.44.08-3.64.08-.6 0-1.2 0-1.8.04-2.04.08-4.16.16-6-.68-2.28-1-2.56-3.36-2.8-5.64 0-.16-1.16-11.88-1.4-13.64-.4-3.32-.32-7.56 3.4-8.68 1.92-.64 4.12-.96 6.84-1.08 1.48-.08 3-.08 4.48-.08h.84c4.08 0 8.32.12 12.4.8 5.6.92 5.2 10.6 5.24 10.96.24 5.72 1.28 9.92-.32 13.32zm-4.84-13.88c-1.04-.72-2.6-.8-3.52.16-.88.88-1.16 3.68-2.64 3.88-2.36.32-4.72.12-7.12.56-1.28.24-3.32.96-4.44 0-1.2-1-2.04-1.96-3.72-1.92-1.24 0-2.28.6-2.4 1.92-.16 1.88 1.52 2.2 2.52 3.4.28.32.4.64.44.96.12 1-.68 1.96-.72 3.12-.04 1.48.8 2.76 2.4 2.44 1.56-.32 2.52-2.32 2.68-3.76.04-.32.08-.68.12-.8 2.04-.16 4-.2 5.88-.48s3.76-.84 5.52-1.28c.76 1.6.84 3.6 2.96 3.72 1.92.12 2.88-1.36 2.44-2.88-.28-.96-1.28-1.6-1.44-2.6-.2-1.28.88-1.52 1.4-2.52.72-1.32 1.04-2.92-.36-3.92zm-17.96-1.16c1.32.64 1.76 1.52 1.88 2.88.04.68.64 1.4 1.44 1.48 2.04.2 2.48-1.36 2.2-2.56-.36-1.48 2.64-2.76 2.88-2.84.4-.12 1.8.68 2.48.8 1.24.24 2.12-1.36 1.56-2.56-.36-.76-2.12-1.2-2.48-1.28.64-1.64.56-2.6-.2-3.36-.92-.96-2.2-.76-2.68.44-.28.72-.4 2.84-.52 2.96-.88.76-1.84 1.44-2.76 2.16-.2-.36-2.28-2.28-3.28-2.04-2.28.52-2.16 3.12-.52 3.92z"/></svg>