<svg height="32" viewBox="0 0 40 32" width="40" xmlns="http://www.w3.org/2000/svg"><path d="m3.944 26.344h12.8v-1.116h-12.8zm14.884 0h3.944v-1.116h-3.944zm20.763-9.972-5.656-2.902v-2.679c0-1.191-.967-2.158-2.084-2.158h-2.009l-2.158-7.293c-.149-.521-.521-.967-.967-1.191s-.893-.298-1.34-.074l-24.112 8.633c-.744.298-1.265 1.042-1.265 1.935v.149 17.935c0 1.191.967 2.158 2.084 2.158h27.609c.819.521 1.86.893 2.902 1.116.074 0 .149.074.298.074s.149 0 .298-.074c6.995-1.637 7.07-7.963 7.07-8.037v-6.623c-.074-.372-.298-.819-.67-.967zm-13.768-15.107c.223-.074.372 0 .521.074s.298.298.372.521l2.084 6.921h-24.186zm-24.707 9.6c0-.074 0-.074 0-.149.074-.521.447-.893.967-.893h29.767c.521 0 .967.447.967.967v2.233c-.149 0-.298.074-.521.149l-1.265.67h-29.916v-2.977zm0 4.093h27.758l-2.828 1.414c-.372.149-.595.521-.595.967v.595h-24.335v-2.977zm.968 14.661c-.521.074-.967-.372-.967-.967v-9.6h24.335v4.912.074.074.074.074.149s0 .074 0 .074v.149.149s.074.149.074.223 0 .074.074.149c0 .074.074.149.074.298 0 .074 0 .074.074.074.074.149.074.298.149.447 0 .074.074.074.074.074.074.149.074.223.149.372 0 .074.074.074.074.149.074.074.074.223.149.298s.074.149.074.149c.074.074.074.223.149.298s.074.149.074.149c.074.074.149.223.149.298.074.074.074.149.149.149.074.149.149.223.298.372l.149.149c.149.149.298.372.447.521s.298.298.447.447h-26.195zm30.735 1.265c-1.042-.223-1.935-.595-2.753-1.116-3.423-2.084-3.498-5.73-3.498-5.805v-6.549l6.251-3.2 6.251 3.2v6.623h.074c-.074.149-.149 5.358-6.326 6.846zm-1.34-6.772-2.084-2.009-.744.819 2.828 2.828 5.73-5.507-.744-.893-4.986 4.763z"/></svg>