<svg
        xmlns="http://www.w3.org/2000/svg"
        xmlns:xlink="http://www.w3.org/1999/xlink"
        width="48px" height="49px">
    <path fill-rule="evenodd"  fill="rgb(0, 0, 0)"
          d="M24.186,0.000 C23.841,0.005 23.532,0.217 23.404,0.538 L21.789,4.496 L17.531,4.767 C17.060,4.799 16.704,5.207 16.735,5.679 C16.750,5.909 16.857,6.123 17.032,6.273 L20.294,9.037 L19.234,13.178 C19.115,13.636 19.389,14.104 19.846,14.223 C20.073,14.282 20.315,14.245 20.514,14.120 L24.143,11.863 L27.745,14.159 C28.144,14.412 28.672,14.293 28.924,13.894 C29.049,13.696 29.088,13.455 29.032,13.228 L28.009,9.074 L31.297,6.341 C31.659,6.038 31.707,5.497 31.404,5.135 C31.256,4.959 31.045,4.849 30.816,4.831 L26.558,4.521 L24.988,0.544 C24.858,0.214 24.540,-0.002 24.186,0.000 ZM24.180,3.161 L25.164,5.654 C25.287,5.960 25.574,6.170 25.902,6.191 L28.571,6.387 L26.508,8.093 C26.255,8.304 26.145,8.641 26.224,8.960 L26.862,11.565 L24.602,10.130 C24.325,9.953 23.973,9.951 23.694,10.124 L21.417,11.540 L22.085,8.942 C22.166,8.623 22.058,8.287 21.808,8.075 L19.765,6.341 L22.432,6.171 C22.759,6.150 23.046,5.945 23.170,5.640 L24.180,3.161 ZM7.508,10.827 C7.480,10.828 7.452,10.829 7.424,10.832 C7.109,10.864 6.838,11.069 6.718,11.363 L5.109,15.328 L0.851,15.594 C0.380,15.622 0.021,16.028 0.049,16.500 C0.063,16.735 0.173,16.954 0.352,17.105 L3.614,19.862 L2.554,24.010 C2.438,24.469 2.716,24.934 3.173,25.050 C3.399,25.107 3.637,25.070 3.834,24.947 L7.456,22.695 L11.065,24.985 C11.464,25.239 11.992,25.120 12.244,24.720 C12.369,24.523 12.408,24.282 12.352,24.055 L11.329,19.901 L14.617,17.175 C14.982,16.875 15.036,16.336 14.737,15.969 C14.588,15.787 14.371,15.675 14.136,15.658 L9.878,15.348 L8.307,11.369 C8.178,11.041 7.860,10.825 7.508,10.827 ZM40.548,10.827 C40.517,10.827 40.486,10.829 40.456,10.832 C40.143,10.867 39.875,11.070 39.756,11.363 L38.147,15.328 L33.889,15.594 C33.418,15.622 33.059,16.028 33.087,16.500 C33.101,16.735 33.211,16.954 33.390,17.105 L36.652,19.862 L35.592,24.010 C35.476,24.469 35.753,24.935 36.210,25.051 C36.436,25.108 36.676,25.071 36.874,24.947 L40.494,22.695 L44.103,24.985 C44.502,25.239 45.030,25.120 45.282,24.720 C45.407,24.523 45.446,24.282 45.390,24.055 L44.369,19.901 L47.655,17.175 C48.020,16.876 48.074,16.336 47.775,15.969 C47.627,15.787 47.410,15.675 47.176,15.658 L42.918,15.348 L41.345,11.369 C41.216,11.041 40.900,10.826 40.548,10.827 ZM7.500,13.981 L8.484,16.479 C8.605,16.784 8.889,16.992 9.215,17.016 L11.891,17.212 L9.828,18.927 C9.575,19.137 9.465,19.474 9.544,19.793 L10.182,22.392 L7.922,20.956 C7.645,20.780 7.293,20.777 7.014,20.950 L4.737,22.367 L5.405,19.767 C5.485,19.449 5.377,19.113 5.128,18.902 L3.085,17.175 L5.752,17.004 C6.080,16.984 6.367,16.778 6.491,16.473 L7.500,13.981 ZM40.539,13.981 L41.522,16.479 C41.644,16.784 41.929,16.993 42.255,17.016 L44.929,17.212 L42.866,18.927 C42.611,19.136 42.498,19.473 42.576,19.793 L43.220,22.392 L40.962,20.956 C40.685,20.780 40.333,20.777 40.053,20.950 L37.775,22.367 L38.445,19.767 C38.525,19.449 38.417,19.113 38.167,18.902 L36.123,17.175 L38.792,17.004 C39.119,16.984 39.406,16.777 39.529,16.473 L40.539,13.981 ZM24.200,20.311 C20.892,20.311 18.194,23.016 18.194,26.332 C18.194,29.648 20.892,32.357 24.200,32.357 C27.508,32.357 30.212,29.648 30.212,26.332 C30.212,23.016 27.508,20.311 24.200,20.311 ZM24.200,22.026 C26.584,22.026 28.501,23.942 28.501,26.332 C28.501,28.722 26.584,30.644 24.200,30.644 C21.815,30.644 19.903,28.722 19.903,26.332 C19.903,23.942 21.815,22.026 24.200,22.026 ZM24.200,35.273 C22.047,35.273 20.090,35.839 18.616,36.816 C17.143,37.793 16.124,39.252 16.124,40.927 L16.124,47.175 C16.122,47.648 16.504,48.033 16.975,48.035 L31.422,48.035 C31.894,48.036 32.278,47.654 32.280,47.181 C32.280,47.179 32.280,47.177 32.280,47.175 L32.280,40.927 C32.280,39.252 31.256,37.793 29.783,36.816 C28.310,35.839 26.353,35.273 24.200,35.273 ZM24.200,36.987 C26.049,36.987 27.703,37.490 28.842,38.245 C29.980,39.000 30.571,39.947 30.571,40.927 L30.571,46.321 L17.827,46.321 L17.827,40.927 C17.827,39.947 18.418,39.000 19.556,38.245 C20.694,37.490 22.350,36.987 24.200,36.987 Z"/>
</svg>