<svg height="32" viewBox="0 0 23 32" width="23" xmlns="http://www.w3.org/2000/svg"><path d="m2.909 0c-1.6 0-2.909 1.309-2.909 2.909s1.309 2.909 2.909 2.909 2.909-1.309 2.909-2.909-1.309-2.909-2.909-2.909zm8.727 0c-1.6 0-2.909 1.309-2.909 2.909s1.309 2.909 2.909 2.909 2.909-1.309 2.909-2.909-1.309-2.909-2.909-2.909zm8.728 5.818c1.6 0 2.909-1.309 2.909-2.909s-1.309-2.909-2.909-2.909-2.909 1.309-2.909 2.909 1.309 2.909 2.909 2.909zm-17.455 2.909c-1.6 0-2.909 1.309-2.909 2.909s1.309 2.909 2.909 2.909 2.909-1.309 2.909-2.909-1.309-2.909-2.909-2.909zm8.727 0c-1.6 0-2.909 1.309-2.909 2.909s1.309 2.909 2.909 2.909 2.909-1.309 2.909-2.909-1.309-2.909-2.909-2.909zm8.728 0c-1.6 0-2.909 1.309-2.909 2.909s1.309 2.909 2.909 2.909 2.909-1.309 2.909-2.909-1.309-2.909-2.909-2.909zm-17.455 8.728c-1.6 0-2.909 1.309-2.909 2.909s1.309 2.909 2.909 2.909 2.909-1.309 2.909-2.909-1.309-2.909-2.909-2.909zm8.727 0c-1.6 0-2.909 1.309-2.909 2.909s1.309 2.909 2.909 2.909 2.909-1.309 2.909-2.909-1.309-2.909-2.909-2.909zm0 8.727c-1.6 0-2.909 1.309-2.909 2.909s1.309 2.909 2.909 2.909 2.909-1.309 2.909-2.909-1.309-2.909-2.909-2.909zm8.728-8.727c-1.6 0-2.909 1.309-2.909 2.909s1.309 2.909 2.909 2.909 2.909-1.309 2.909-2.909-1.309-2.909-2.909-2.909z"/></svg>