<svg height="32" viewBox="0 0 36 32" width="36" xmlns="http://www.w3.org/2000/svg"><path d="m35.92 19.48c-.04-.32-.04-.64-.08-1-.32-3.96-.72-8.92-2.6-12.48-1.72-3.32-5-5.24-9.68-5.68-2.48-.2-4.96-.32-7.36-.32-1.28 0-2.56.04-3.8.08-.6.04-1.16.04-1.8.04-2.2.04-4.48.08-6.56 1.12-2.84 1.44-3.04 4.28-3.2 6.8v.04c0 .16-.64 12.16-.76 13.96-.28 3.64 0 7.96 4.68 9.2 2.12.56 4.44.8 7.32.8 1.56 0 14.08-.56 18.28-1.6 5.88-1.48 5.76-8.76 5.56-10.96zm-5.84 9.84c-4.12 1-8.44 1.2-12.6 1.36l-.84.04c-1.48.08-3.04.12-4.56.12-2.8 0-5.04-.24-7.04-.76-3.84-.96-4.12-4.56-3.84-8 .12-1.84.76-13.84.76-14 .16-2.32.32-4.76 2.6-5.88 1.84-.92 4-.96 6.08-.96.6 0 1.24 0 1.84-.04 1.24-.08 2.48-.08 3.72-.08 2.36 0 4.8.12 7.24.32 4.28.4 7.28 2.12 8.84 5.08 1.76 3.36 2.16 8.2 2.48 12.04.04.32.04.68.08 1 .16 2 .28 8.56-4.76 9.76zm-15.2-17.44c-3.44-1.76-6.32 2.68-6.64 5.56v.16c-.16 1.8.24 4.2 2.64 3.68.88-.2 1.36-1.08 2.32-1.2.88-.12 1.72.52 2.64.28 3.28-.92 1.16-7.36-.96-8.48zm-5.84.84c.6-.48.6-1.72.36-2.44-.64-1.92-3.52-1.6-2.8.56.32.92 1.4 2.68 2.44 1.88zm7.32-.48c.6.4 1.72.08 2.28-.36 1.52-1.12.44-3.6-1.32-2.32-.68.52-1.96 1.96-.96 2.68zm-4.76-1.4c.76-.4 1-1.76.88-2.6-.32-2.04-3.36-2.28-3.2.12.12 1.44 1.12 3.12 2.32 2.48zm3.28.04c.84-.12 1.52-1.32 1.68-2.16.36-2.04-2.36-3.28-3.04-.96-.4 1.4 0 3.32 1.36 3.12zm5 7.2c-.76.44-1.56 1.44-1.16 2.32.32.72 1.32.8 1.96.72 1.36-.2.92.68 1.56 1.52.84 1.08 3.16.88 3-1.48-.08-1.92-1.76-5.12-5.36-3.08zm1.88-1.2c.52-.08.92-.84 1-1.36.2-1.4-1.68-2.08-1.88-.52-.12.64 0 2.08.88 1.88zm5.16 1.68c-.6 0-1.92.36-1.6 1.16.16.48.92.72 1.44.68 1.28-.04 1.64-1.88.16-1.84zm-3.36-1.2c.6.08 1.24-.6 1.52-1.12.6-1.32-1-2.6-1.84-1.2-.56.84-.64 2.2.32 2.32zm1.28 1.04c.52.32 1.4-.04 1.84-.4 1.12-.92.16-2.8-1.2-1.84-.84.56-1.44 1.76-.64 2.24z"/></svg>