<!-- Generated by IcoMoon.io -->
<svg version="1.1" xmlns="http://www.w3.org/2000/svg" width="54" height="32" viewBox="0 0 54 32">
<title>professionals</title>
<path d="M44.303 21.324c-3.698 0-6.749-3.087-6.749-6.921 0-3.741 3.051-6.828 6.749-6.828 3.791 0 6.842 3.087 6.842 6.828 0 3.834-3.051 6.921-6.842 6.921zM44.303 9.446c-2.681 0-4.9 2.245-4.9 4.957 0 2.805 2.219 5.050 4.9 5.050 2.774 0 4.993-2.245 4.993-5.050 0-2.712-2.219-4.957-4.993-4.957zM27.198 17.676c-0.010 0-0.022 0-0.034 0-4.833 0-8.751-3.918-8.751-8.751 0-0.014 0-0.029 0-0.043v0.002c0-4.956 3.884-8.884 8.784-8.884 4.808 0 8.69 3.928 8.69 8.884 0 4.864-3.883 8.791-8.69 8.791zM27.198 1.871c-3.884 0-6.935 3.086-6.935 7.014-0 0.010-0 0.023-0 0.035 0 3.803 3.083 6.887 6.887 6.887 0.017 0 0.034-0 0.051-0h-0.003c3.791 0 6.841-3.087 6.841-6.922 0-3.928-3.051-7.014-6.841-7.014zM10.001 21.324c-3.792 0-6.842-3.087-6.842-6.921 0-3.741 3.051-6.828 6.842-6.828 3.698 0 6.749 3.087 6.749 6.828 0 3.834-3.051 6.921-6.749 6.921zM10.001 9.446c-2.774 0-4.993 2.245-4.993 4.957 0 2.805 2.219 5.050 4.993 5.050 2.681 0 4.9-2.245 4.9-5.050 0-2.712-2.219-4.957-4.9-4.957zM10.001 22.258c1.572 0 3.143 0.467 4.623 1.123 0.369 0.28 0.555 0.842 0.369 1.309-0.277 0.467-0.832 0.655-1.294 0.374-1.11-0.561-2.405-0.936-3.698-0.936-4.069 0-7.582 2.993-8.137 7.108-0.093 0.467-0.555 0.842-1.017 0.749-0.555 0-0.924-0.561-0.832-1.029 0.74-4.957 4.993-8.698 9.986-8.698zM27.198 19.172c6.657 0 12.297 5.144 13.037 11.785 0 0.561-0.37 1.029-0.832 1.029-0.555 0.093-1.017-0.281-1.017-0.749-0.648-5.799-5.456-10.194-11.187-10.194s-10.634 4.396-11.28 10.194c0 0.467-0.463 0.842-1.017 0.749-0.463 0-0.832-0.467-0.74-1.029 0.74-6.64 6.288-11.785 13.038-11.785zM39.31 24.69c-0.184-0.467 0-1.029 0.463-1.309 1.387-0.655 2.959-1.123 4.53-1.123 4.993 0 9.246 3.741 9.986 8.698 0.092 0.467-0.277 1.029-0.74 1.029-0.051 0.010-0.11 0.015-0.17 0.015-0.461 0-0.846-0.325-0.939-0.757l-0.001-0.006c-0.555-4.114-4.068-7.108-8.137-7.108-1.295 0-2.588 0.374-3.698 0.936-0.462 0.28-1.016 0.093-1.295-0.374z"></path>
</svg>