<?xml version="1.0" encoding="utf-8"?>
<!-- Generator: Adobe Illustrator 24.1.1, SVG Export Plug-In . SVG Version: 6.00 Build 0)  -->
<svg version="1.1" id="Layer_1" xmlns="http://www.w3.org/2000/svg" xmlns:xlink="http://www.w3.org/1999/xlink" x="0px" y="0px"
	 viewBox="0 0 90 65" style="enable-background:new 0 0 90 65;" xml:space="preserve">
<path d="M70,0c-5.5,0-10.2,2-14,5.9c-3.8,3.9-5.7,8.6-5.7,14.2c0,4.3,1.1,8,3.4,11.2c2.3,3.1,5.2,5.4,8.7,6.8L50.8,56l13.5,9
	l20-29.7c2-2.9,3.4-5.5,4.4-7.7c0.9-2.2,1.4-4.7,1.4-7.5c0-5.5-2-10.3-5.9-14.2C80.3,2,75.6,0,70,0L70,0z M19.7,0
	c-5.5,0-10.2,2-14,5.9C1.9,9.8,0,14.5,0,20.1c0,4.3,1.1,8,3.4,11.2c2.3,3.1,5.2,5.4,8.7,6.8L0.5,56L14,65l20-29.7
	c2-2.9,3.4-5.5,4.4-7.7c0.9-2.2,1.4-4.7,1.4-7.5c0-5.5-2-10.3-5.9-14.2C30,2,25.3,0,19.7,0L19.7,0z"/>
</svg>

