<?xml version="1.0" encoding="utf-8"?>
<!-- Generator: Adobe Illustrator 24.1.1, SVG Export Plug-In . SVG Version: 6.00 Build 0)  -->
<svg version="1.1" id="Layer_1" xmlns="http://www.w3.org/2000/svg" xmlns:xlink="http://www.w3.org/1999/xlink" x="0px" y="0px"
	 viewBox="0 0 90 65" style="enable-background:new 0 0 90 65;" xml:space="preserve">
<path d="M20,65c5.5,0,10.2-2,14-5.9c3.8-3.9,5.7-8.6,5.7-14.2c0-4.3-1.1-8-3.4-11.2c-2.3-3.1-5.2-5.4-8.7-6.8L39.3,9L25.7,0
	l-20,29.7c-2,2.9-3.4,5.5-4.4,7.7C0.5,39.7,0,42.2,0,44.9c0,5.5,2,10.3,5.9,14.2C9.8,63,14.5,65,20,65L20,65z M70.3,65
	c5.5,0,10.2-2,14-5.9c3.8-3.9,5.7-8.6,5.7-14.2c0-4.3-1.1-8-3.4-11.2c-2.3-3.1-5.2-5.4-8.7-6.8L89.6,9L76,0L56,29.7
	c-2,2.9-3.4,5.5-4.4,7.7c-0.9,2.2-1.4,4.7-1.4,7.5c0,5.5,2,10.3,5.9,14.2C60.1,63,64.8,65,70.3,65L70.3,65z"/>
</svg>
