<svg height="32" viewBox="0 0 29 32" width="29" xmlns="http://www.w3.org/2000/svg"><path d="m28.4 13.333c-1.2-6.467-6.467-11.333-12.933-11.867l.733-.733-.667-.733-1.533 1.533c-.2.2-.2.533 0 .733l1.533 1.533.733-.733-.6-.6c7.333.733 12.667 7.333 11.933 14.8-.6 6-5 10.867-10.8 12l.2 1c7.733-1.4 12.867-9 11.4-16.933zm-15.267 14.8-.733.733.6.6c-7.333-.733-12.667-7.333-11.933-14.8.6-6.2 5.267-11.133 11.333-12.067l-.133-1c-7.867 1.133-13.267 8.6-12.133 16.533 1 6.733 6.4 11.867 13 12.4l-.733.733.733.733 1.533-1.533c.2-.2.2-.533 0-.733l-1.533-1.6zm1.2-2.733c5.067 0 9.2-4.2 9.2-9.4s-4.133-9.4-9.2-9.4-9.2 4.2-9.2 9.4 4.133 9.4 9.2 9.4zm0-17.733c4.533 0 8.2 3.733 8.2 8.333s-3.667 8.333-8.2 8.333-8.2-3.733-8.2-8.333 3.667-8.333 8.2-8.333zm-4.6 13.533h9.2c.533 0 1-.467 1-1.067v-8.333c0-.6-.467-1.067-1-1.067h-9.2c-.533 0-1 .467-1 1.067v8.333c0 .6.4 1.067 1 1.067zm6.134-9.4h3.067v1.067h-3.067zm-2.067 0h1v3.133h-1zm-4.067 0h3.067v1.067h-3.067zm0 2.133h3.067v1.533c0 .267.2.533.533.533h2c.267 0 .533-.267.533-.533v-1.533h3.067v6.267h-9.2zm6.134 5.2h2.067v-1.067h-2.067zm-2.067 0h1v-1.067h-1z"/></svg>
