<!-- Generated by IcoMoon.io -->
<svg version="1.1" xmlns="http://www.w3.org/2000/svg" width="32" height="32" viewBox="0 0 32 32">
<title>rocket</title>
<path d="M31.568 1.209c-0.085-0.387-0.385-0.686-0.766-0.77l-0.007-0.001c-2.038-0.438-3.633-0.438-5.223-0.438-6.483 0-10.386 3.444-13.306 8h-6.338c-1.166 0.001-2.176 0.667-2.671 1.639l-0.008 0.017-3.089 6.175c-0.099 0.195-0.158 0.425-0.158 0.669 0 0.828 0.672 1.5 1.5 1.5 0 0 0.001 0 0.001 0h5.787l-0.662 1.339c-0.129 0.256-0.205 0.558-0.205 0.878 0 0.552 0.225 1.051 0.589 1.411l3.361 3.358c0.361 0.363 0.861 0.588 1.413 0.589h0c0.319-0 0.62-0.076 0.886-0.211l-0.011 0.005 1.337-0.661v5.792c0.003 0.827 0.673 1.497 1.5 1.5h0c0.242-0 0.471-0.059 0.673-0.162l-0.008 0.004 6.169-3.087c0.99-0.502 1.656-1.513 1.656-2.679 0-0.001 0-0.002 0-0.003v0-6.342c4.549-2.924 8.011-6.841 8.011-13.294 0.005-1.596 0.005-3.188-0.432-5.229zM8 16h-5.688l2.724-5.45c0.169-0.328 0.505-0.548 0.892-0.55h5.324c-0.871 1.754-1.982 4-2.973 6zM21.991 26.074c-0.001 0.389-0.224 0.725-0.548 0.89l-0.006 0.003-5.438 2.721v-5.97c2-0.989 4.239-2.099 5.991-2.971zM22.906 18.056c-2.469 1.236-8.492 4.216-11.119 5.515l-3.364-3.347c1.304-2.639 4.283-8.662 5.514-11.136 3.138-4.901 6.73-7.088 11.636-7.088 1.346 0 2.625 0 4.164 0.268 0.271 1.554 0.266 2.826 0.261 4.169 0.001 4.88-2.186 8.467-7.093 11.619zM23 5c-2.209 0-4 1.791-4 4s1.791 4 4 4c2.209 0 4-1.791 4-4v0c-0.003-2.208-1.792-3.998-4-4h-0zM23 11c-1.105 0-2-0.895-2-2s0.895-2 2-2c1.105 0 2 0.895 2 2v0c0 1.105-0.895 2-2 2v0z"></path>
</svg>
