<svg height="32" viewBox="0 0 32 32" width="32" xmlns="http://www.w3.org/2000/svg"><path d="m31.822 30.044-8-8c-.178-.178-.356-.178-.533-.178h-.711c2.133-2.311 3.378-5.333 3.378-8.889 0-7.111-5.867-12.978-12.978-12.978s-12.978 5.867-12.978 12.978 5.867 12.978 12.978 12.978c3.378 0 6.578-1.244 8.889-3.378v.533c0 .178 0 .356.178.533l8 8c.356.356.711.356 1.067 0l.533-.533c.356-.178.356-.711.178-1.067zm-18.844-6.044c-6.044 0-11.022-4.978-11.022-11.022s4.978-11.022 11.022-11.022 11.022 4.978 11.022 11.022-4.978 11.022-11.022 11.022z"/></svg>