<svg height="32" viewBox="0 0 41 32" width="41" xmlns="http://www.w3.org/2000/svg"><path d="m39.01 15.695h-4.724v-12.267c0-1.905-1.524-3.429-3.429-3.429h-20.571c-1.905 0-3.429 1.524-3.429 3.429v4.114h-3.733c-1.676 0-3.124 1.371-3.124 3.048v18.362c0 1.676 1.371 3.048 3.124 3.048h10.971c1.295 0 2.438-.838 2.895-2.057h11.886c.381 0 .686-.305.686-.686v-1.371c0-1.143-.914-2.057-2.057-2.057h-2.057v-2.743h5.486v6.705c0 1.143.914 2.133 2.133 2.133h6.019c1.143 0 2.133-.914 2.133-2.133v-12.038c-.076-1.143-.99-2.057-2.21-2.057zm-23.239 13.257c0 .914-.762 1.676-1.752 1.676h-10.895c-.914 0-1.752-.762-1.752-1.676v-.305h14.4v.305zm0-1.752h-14.4v-14.933h14.4zm0-16.305h-14.4v-.305c0-.914.762-1.676 1.752-1.676h10.971c.914 0 1.752.762 1.752 1.676v.305h-.076zm11.658 16.305c.381 0 .686.305.686.686v.686h-10.971v-1.371h10.286zm-10.286-1.295v-2.743h6.857v2.743zm13.714-4.115h-13.714v-2.057h13.714zm0-4.038v.61h-13.714v-7.771c0-1.676-1.371-3.048-3.124-3.048h-5.79v-4.114c0-1.143.914-2.057 2.057-2.057h20.571c1.143 0 2.057.914 2.057 2.057v12.267c-1.143 0-2.057.914-2.057 2.057zm8.914 12.115c0 .381-.305.762-.762.762h-6.019c-.381 0-.762-.305-.762-.762v-.61h7.543zm0-1.981h-7.543v-8.152h7.543zm0-9.524h-7.543v-.61c0-.381.305-.762.762-.762h6.019c.381 0 .762.305.762.762z"/></svg>