<svg height="32" viewBox="0 0 51 32" width="51" xmlns="http://www.w3.org/2000/svg"><path d="m13.474 30.316h-11.789v-28.632h16.842v7.579c0 .505.337.842.842.842s.842-.337.842-.842v-8.421c0-.505-.337-.842-.842-.842h-18.526c-.505 0-.842.337-.842.842v30.316c0 .505.337.842.842.842h12.632c.505 0 .842-.337.842-.842s-.337-.842-.842-.842zm3.284-21.137c-.505-3.705-3.958-6.316-7.663-5.726-3.705.505-6.232 3.958-5.726 7.663.505 3.284 3.368 5.726 6.737 5.726 1.347 0 2.695-.421 3.874-1.179.421-.253.505-.758.253-1.179s-.758-.505-1.179-.253c-2.274 1.6-5.474 1.011-7.074-1.263s-1.095-5.389 1.263-6.989c2.274-1.6 5.474-1.011 7.074 1.263.421.674.758 1.432.842 2.189.084.421.505.758.926.758.421-.084.758-.505.674-1.011zm-9.179.926c0 1.432 1.095 2.526 2.526 2.526s2.526-1.095 2.526-2.526c0-1.432-1.095-2.526-2.526-2.526s-2.526 1.095-2.526 2.526zm3.368 0c0 .505-.337.842-.842.842s-.842-.337-.842-.842.337-.842.842-.842.842.337.842.842zm-.842 9.263c-2.358 0-4.211 1.853-4.211 4.211s1.853 4.211 4.211 4.211 4.211-1.853 4.211-4.211-1.853-4.211-4.211-4.211zm0 6.737c-1.432 0-2.526-1.095-2.526-2.526s1.095-2.526 2.526-2.526c1.432 0 2.526 1.095 2.526 2.526s-1.095 2.526-2.526 2.526zm-5.052 1.684c0-.505-.337-.842-.842-.842s-.842.337-.842.842.337.842.842.842.842-.337.842-.842zm5.052-5.052c-.505 0-.842.337-.842.842s.337.842.842.842.842-.337.842-.842-.337-.842-.842-.842zm39.579-22.737h-18.526c-.505 0-.842.337-.842.842v8.421c0 .505.337.842.842.842s.842-.337.842-.842v-7.579h16.842v28.632h-11.789c-.505 0-.842.337-.842.842s.337.842.842.842h12.632c.505 0 .842-.337.842-.842v-30.316c0-.505-.337-.842-.842-.842zm-6.737 10.105c0-1.432-1.095-2.526-2.526-2.526s-2.526 1.095-2.526 2.526c0 1.432 1.095 2.526 2.526 2.526s2.526-1.095 2.526-2.526zm-3.368 0c0-.505.337-.842.842-.842s.842.337.842.842-.337.842-.842.842-.842-.337-.842-.842zm-3.368 13.474c0 2.358 1.853 4.211 4.211 4.211s4.211-1.853 4.211-4.211-1.853-4.211-4.211-4.211-4.211 1.853-4.211 4.211zm6.736 0c0 1.432-1.095 2.526-2.526 2.526s-2.526-1.095-2.526-2.526c0-1.432 1.095-2.526 2.526-2.526s2.526 1.095 2.526 2.526zm2.527 4.21c0 .505.337.842.842.842s.842-.337.842-.842-.337-.842-.842-.842-.842.337-.842.842zm-5.895-4.21c0 .505.337.842.842.842s.842-.337.842-.842-.337-.842-.842-.842-.842.337-.842.842zm.842-18.526c2.779 0 5.053 2.274 5.053 5.053s-2.274 5.053-5.053 5.053c-1.011 0-2.021-.337-2.863-.926-.421-.253-.926-.168-1.179.253-.253.337-.168.842.168 1.179 3.032 2.105 7.242 1.347 9.347-1.684s1.347-7.242-1.684-9.347c-1.095-.842-2.442-1.263-3.789-1.263-3.368 0-6.147 2.442-6.653 5.811-.084.421.253.926.674 1.011s.926-.253 1.011-.674c0 0 0 0 0-.084.337-2.526 2.442-4.379 4.968-4.379zm-9.263 16v-5.053c0-.505-.337-.842-.842-.842h-10.105c-.505 0-.842.337-.842.842v5.053c0 .505.337.842.842.842h10.105c.505 0 .842-.337.842-.842zm-10.105-.842v-3.368h3.874l3.368 3.368zm8.421-1.179-2.189-2.189h2.189zm-10.106 7.073c0 1.432 1.095 2.526 2.526 2.526s2.526-1.095 2.526-2.526c0-1.432-1.095-2.526-2.526-2.526s-2.526 1.095-2.526 2.526zm3.369 0c0 .505-.337.842-.842.842s-.842-.337-.842-.842.337-.842.842-.842.842.337.842.842zm5.895 2.527c1.432 0 2.526-1.095 2.526-2.526s-1.095-2.526-2.526-2.526c-1.432 0-2.526 1.095-2.526 2.526s1.095 2.526 2.526 2.526zm0-3.369c.505 0 .842.337.842.842s-.337.842-.842.842-.842-.337-.842-.842.337-.842.842-.842zm5.052-13.474h-16.842c-.505 0-.842.337-.842.842v18.526c0 .505.337.842.842.842h10.947c.505 0 .842-.337.842-.842s-.337-.842-.842-.842h-10.105v-16.842h15.158v16.842h-1.684c-.505 0-.842.337-.842.842s.337.842.842.842h2.526c.505 0 .842-.337.842-.842v-18.526c0-.505-.337-.842-.842-.842z"/></svg>