<svg height="32" viewBox="0 0 31 32" width="31" xmlns="http://www.w3.org/2000/svg"><path d="m28.933 6.2h-8.8v-3.8c0-1.333-1.067-2.4-2.4-2.4h-15.333c-1.333 0-2.4 1.067-2.4 2.4v11.667c0 .267.133.533.4.667.133.067.267.067.4.067s.267-.067.4-.133l2.667-1.733h9.8v3.8c0 1.333 1.067 2.4 2.4 2.4h11.333l2.667 1.733c.133.067.267.133.4.133s.267 0 .4-.067c.267-.133.4-.4.4-.667v-11.6c.067-1.333-1-2.467-2.333-2.467zm-15.266 2.467v3.333h-9.8c-.2 0-.4.067-.533.133l-2.267 1.467v-11.2c0-.733.6-1.333 1.333-1.333h15.333c.733 0 1.333.6 1.333 1.333v3.8h-3c-1.333 0-2.4 1.133-2.4 2.467zm5.4-1.4v3.333c0 .733-.6 1.333-1.333 1.333h-3v-3.333c0-.733.6-1.333 1.333-1.333zm11.2 12.533-2.267-1.467c-.133-.133-.333-.133-.533-.133h-11.4c-.733 0-1.333-.6-1.333-1.333v-3.8h3c1.333 0 2.4-1.067 2.4-2.4v-3.333h8.8c.733 0 1.333.6 1.333 1.333zm-21.667 6.6c1.8 0 3.2-1.467 3.2-3.267s-1.467-3.267-3.2-3.267c-1.8 0-3.2 1.467-3.2 3.267s1.467 3.267 3.2 3.267zm0-5.467c1.2 0 2.2 1 2.2 2.2s-1 2.2-2.2 2.2-2.2-1-2.2-2.2c.067-1.2 1.067-2.2 2.2-2.2zm5 7.467c-.267-.733-.933-1.267-1.733-1.267h-6.4c-.8 0-1.467.467-1.733 1.2l-1.2 3.533v.133h1.133l1.133-3.267c.133-.333.4-.533.733-.533h6.4c.333 0 .6.2.733.533l1.133 3.267h.867c.067-.133.067-.2 0-.333l-1.067-3.267zm-7.4 1.6c-.267-.067-.6.067-.667.333l-.467 1.533v.067h1.067l.4-1.333c.133-.2-.067-.467-.333-.6zm5.533.4c-.067-.267-.4-.467-.667-.333-.267.067-.467.4-.333.667l.4 1.333h1.067v-.067zm10.934-4c1.8 0 3.2-1.467 3.2-3.267s-1.467-3.267-3.2-3.267c-1.8 0-3.2 1.467-3.2 3.267s1.467 3.267 3.2 3.267zm0-5.467c1.2 0 2.2 1 2.2 2.2s-1 2.2-2.2 2.2-2.2-1-2.2-2.2c.067-1.2 1-2.2 2.2-2.2zm5 7.467c-.267-.733-.933-1.267-1.733-1.267h-6.4c-.8 0-1.467.467-1.733 1.2l-1.2 3.533v.133h1.133l1.133-3.267c.133-.333.4-.533.733-.533h6.4c.333 0 .6.2.733.533l1.133 3.267h1c.067-.133.067-.2 0-.333l-1.2-3.267zm-7.4 1.6c-.267-.067-.6.067-.667.333l-.467 1.533v.067h1.067l.4-1.333c.133-.2-.067-.467-.333-.6zm5.533.4c-.067-.267-.4-.467-.667-.333-.267.067-.467.4-.333.667l.4 1.333h1.067v-.067z"/></svg>