<svg
        xmlns="http://www.w3.org/2000/svg"
        xmlns:xlink="http://www.w3.org/1999/xlink"
        width="36px" height="36px">
    <path fill-rule="evenodd"  fill="rgb(0, 0, 0)"
          d="M11.808,1.477 C19.006,8.468 19.006,8.468 12.915,14.539 C12.361,14.907 11.992,15.275 11.439,15.459 L20.668,24.473 C20.852,23.737 24.729,18.586 27.682,18.770 C30.266,19.138 35.804,24.657 35.988,27.049 C36.358,30.360 26.759,41.582 17.714,32.568 L3.317,18.218 C-0.375,14.539 -1.483,8.468 2.578,4.421 C5.163,1.845 8.116,-2.202 11.808,1.477 ZM14.392,6.628 C7.931,0.190 9.039,0.558 3.686,5.893 C0.733,8.836 1.655,13.803 4.609,16.931 L19.191,31.280 C22.144,34.407 27.128,35.327 30.451,32.016 C35.619,26.865 35.804,27.969 29.343,21.530 C26.944,19.138 25.098,22.082 22.698,24.473 C21.591,25.577 22.698,26.497 21.960,27.233 C21.775,27.601 21.037,27.601 20.668,27.233 L8.670,15.275 L8.670,15.275 C8.116,14.539 8.670,13.435 9.593,13.803 C9.962,13.803 10.331,13.803 10.700,13.803 L10.700,13.803 C10.700,13.803 17.530,9.756 14.392,6.628 Z"/>
</svg>