<svg height="32" viewBox="0 0 38 32" width="38" xmlns="http://www.w3.org/2000/svg"><path d="m27.951 0c-2.482 0-5.094.914-6.922 2.873l-2.09 2.09-2.09-2.09c-3.918-3.788-10.057-3.788-13.976 0s-3.918 10.057 0 13.845c5.094 4.963 10.188 10.057 15.282 15.02.392.392 1.045.392 1.437 0l15.282-15.02c3.918-3.788 3.918-10.057 0-13.845-1.829-1.959-4.31-2.873-6.922-2.873zm0 2.09c1.959 0 4.049.784 5.486 2.22 3.004 3.004 3.004 7.706 0 10.71l-14.498 14.367c-4.833-4.833-9.665-9.535-14.629-14.367-3.004-2.873-3.004-7.575 0-10.58s7.967-3.004 10.971 0l2.873 2.743c.392.392 1.045.392 1.437 0l2.873-2.743c1.567-1.567 3.527-2.351 5.486-2.351z"/></svg>
