<svg width="752" height="494" viewBox="0 0 752 494" fill="none" xmlns="http://www.w3.org/2000/svg">
<rect width="752" height="493.961" rx="22.1176" fill="#F1FCFF"/>
<path d="M205.662 207.078H141.962C139.804 207.078 138.003 208.897 138.003 211.086V218.27C138.003 220.513 139.804 222.283 141.965 222.283H205.658C207.871 222.283 209.62 220.458 209.672 218.273V211.137C209.672 208.9 207.871 207.075 205.662 207.075V207.078ZM205.662 247.067H141.962C141.44 247.068 140.924 247.172 140.444 247.374C139.963 247.576 139.527 247.872 139.161 248.243C138.416 248.998 137.999 250.017 138 251.077V258.262C138 260.505 139.801 262.272 141.962 262.272H205.655C207.868 262.272 209.617 260.502 209.669 258.265V251.077C209.669 248.837 207.871 247.067 205.662 247.067ZM177.825 267.013H141.965C140.913 267.013 139.904 267.434 139.164 268.186C138.419 268.941 138.002 269.96 138.003 271.02V278.204C138.003 280.448 139.804 282.215 141.965 282.215H177.774C179.986 282.215 181.736 280.396 181.736 278.207V271.02C181.749 270.498 181.658 269.979 181.467 269.493C181.277 269.007 180.991 268.564 180.626 268.19C180.262 267.817 179.826 267.52 179.345 267.317C178.864 267.114 178.347 267.013 177.825 267.013ZM209.672 227.07H141.965C140.913 227.07 139.904 227.494 139.164 228.243C138.419 228.999 138.001 230.018 138.003 231.08V238.264C138.003 240.504 139.804 242.275 141.965 242.275H209.623C211.836 242.275 213.582 240.453 213.582 238.264V231.08C213.591 230.559 213.497 230.042 213.305 229.558C213.112 229.074 212.826 228.633 212.463 228.26C212.099 227.887 211.665 227.59 211.186 227.386C210.707 227.181 210.193 227.074 209.672 227.07Z" fill="#00C3F7"/>
<path d="M283.812 223.268C281.855 221.243 279.511 219.631 276.918 218.53C274.312 217.435 271.513 216.868 268.685 216.863C265.93 216.8 263.198 217.389 260.713 218.582C259.046 219.379 257.542 220.492 256.287 221.862V220.616C256.278 219.982 256.041 219.372 255.621 218.897C255.413 218.649 255.153 218.451 254.86 218.316C254.566 218.18 254.246 218.112 253.923 218.115H245.02C244.696 218.107 244.375 218.173 244.08 218.308C243.786 218.444 243.527 218.645 243.323 218.897C242.881 219.359 242.64 219.977 242.653 220.616V279.926C242.653 280.551 242.91 281.175 243.32 281.642C243.543 281.863 243.808 282.037 244.1 282.153C244.391 282.27 244.703 282.327 245.017 282.321H254.023C254.641 282.321 255.205 282.06 255.669 281.642C255.912 281.43 256.103 281.165 256.228 280.867C256.353 280.57 256.409 280.248 256.391 279.926V259.668C257.676 261.075 259.322 262.117 261.122 262.742C263.49 263.627 265.96 264.045 268.479 264.045C271.359 264.045 274.19 263.521 276.815 262.378C279.452 261.279 281.833 259.649 283.812 257.589C285.864 255.442 287.473 252.911 288.547 250.141C289.765 247.041 290.36 243.731 290.296 240.401C290.334 237.058 289.741 233.737 288.547 230.613C287.439 227.891 285.832 225.4 283.809 223.268H283.812ZM275.685 244.721C275.214 245.979 274.496 247.13 273.575 248.107C272.662 249.088 271.554 249.868 270.322 250.397C269.09 250.926 267.762 251.192 266.421 251.177C265.033 251.177 263.696 250.917 262.462 250.344C261.244 249.819 260.142 249.059 259.219 248.107C258.299 247.118 257.567 245.971 257.057 244.721C256.029 242.039 256.029 239.072 257.057 236.391C257.521 235.142 258.294 233.996 259.219 233.056C260.15 232.1 261.249 231.324 262.462 230.768C263.699 230.185 265.054 229.899 266.421 229.934C267.812 229.934 269.149 230.195 270.435 230.765C271.617 231.341 272.699 232.068 273.627 233.008C274.551 233.996 275.221 235.087 275.736 236.339C276.722 239.049 276.704 242.023 275.685 244.721ZM338.76 218.112H329.809C329.498 218.111 329.192 218.175 328.908 218.3C328.624 218.426 328.37 218.61 328.162 218.84C327.932 219.073 327.75 219.35 327.627 219.655C327.503 219.959 327.441 220.285 327.444 220.613V221.704C326.318 220.395 324.934 219.332 323.379 218.582C320.945 217.399 318.264 216.81 315.558 216.863C309.794 216.873 304.266 219.156 300.175 223.217C298.065 225.359 296.388 227.886 295.234 230.662C293.949 233.763 293.32 237.097 293.384 240.453C293.329 243.808 293.959 247.14 295.234 250.244C296.382 253.01 298.041 255.536 300.123 257.689C302.112 259.738 304.497 261.362 307.132 262.463C309.768 263.563 312.599 264.117 315.455 264.091C318.183 264.145 320.857 263.572 323.328 262.372C324.871 261.593 326.31 260.553 327.444 259.25V260.447C327.444 261.072 327.699 261.696 328.162 262.166C328.626 262.581 329.193 262.842 329.809 262.842H338.76C339.389 262.83 339.992 262.59 340.457 262.166C340.68 261.94 340.855 261.671 340.97 261.376C341.085 261.08 341.139 260.764 341.127 260.447V220.613C341.141 219.974 340.901 219.356 340.46 218.894C340.256 218.642 339.997 218.441 339.703 218.305C339.409 218.17 339.084 218.104 338.76 218.112ZM326.671 244.669C326.2 245.927 325.483 247.078 324.561 248.055C323.636 248.994 322.558 249.768 321.372 250.344C318.85 251.49 315.916 251.49 313.397 250.344C312.184 249.787 311.085 249.011 310.154 248.055C309.233 247.078 308.517 245.927 308.047 244.669C307.069 241.996 307.069 239.064 308.047 236.391C308.508 235.142 309.229 234.048 310.157 233.056C311.081 232.12 312.16 231.341 313.397 230.768C314.65 230.202 316.009 229.909 317.383 229.909C318.758 229.909 320.117 230.202 321.369 230.768C322.555 231.341 323.637 232.068 324.561 233.005C325.437 233.996 326.156 235.087 326.671 236.339C327.702 239.046 327.702 242.014 326.671 244.669ZM428.028 239.304C426.739 238.168 425.258 237.27 423.654 236.652C421.956 235.974 420.2 235.45 418.407 235.087L411.562 233.735C409.813 233.423 408.58 232.953 407.91 232.38C407.632 232.187 407.403 231.93 407.242 231.632C407.081 231.333 406.993 231.001 406.985 230.662C406.985 229.934 407.397 229.31 408.27 228.788C409.453 228.164 410.741 227.849 412.078 227.955C413.827 227.955 415.576 228.318 417.17 228.994C418.716 229.673 420.259 230.456 421.648 231.389C423.654 232.641 425.352 232.432 426.534 231.025L429.829 227.279C430.444 226.651 430.805 225.821 430.86 224.936C430.832 224.48 430.707 224.035 430.494 223.631C430.281 223.226 429.984 222.873 429.623 222.592C428.232 221.395 426.022 220.092 423.087 218.843C420.156 217.594 416.449 216.915 412.078 216.915C409.41 216.879 406.753 217.266 404.206 218.061C402.028 218.732 399.989 219.79 398.185 221.183C396.561 222.455 395.242 224.075 394.327 225.924C393.454 227.726 392.997 229.702 392.99 231.704C392.99 235.403 394.12 238.422 396.333 240.659C398.546 242.899 401.48 244.357 405.133 245.085L412.232 246.649C413.778 246.909 415.318 247.376 416.761 248.055C417.531 248.367 418.046 249.146 418.046 250.032C418.046 250.814 417.634 251.541 416.761 252.169C415.885 252.793 414.445 253.208 412.593 253.208C410.651 253.241 408.729 252.813 406.985 251.96C405.332 251.162 403.792 250.146 402.408 248.94C401.801 248.43 401.101 248.041 400.347 247.795C399.525 247.534 398.546 247.795 397.467 248.68L393.557 251.647C393.024 252.031 392.612 252.557 392.366 253.166C392.12 253.774 392.052 254.439 392.168 255.085C392.371 256.388 393.454 257.686 395.46 259.198C400.392 262.528 406.231 264.255 412.181 264.145C414.95 264.181 417.709 263.795 420.362 263C422.638 262.312 424.778 261.237 426.689 259.823C428.386 258.519 429.829 256.852 430.805 254.927C431.747 253.034 432.239 250.949 432.245 248.834C432.288 246.934 431.902 245.048 431.114 243.317C430.337 241.805 429.291 240.443 428.028 239.304ZM467.129 250.138C466.929 249.782 466.647 249.479 466.307 249.252C465.968 249.026 465.579 248.883 465.174 248.834C464.352 248.834 463.528 249.095 462.858 249.562C461.768 250.278 460.508 250.692 459.205 250.762C458.793 250.762 458.332 250.711 457.92 250.605C457.474 250.515 457.063 250.298 456.738 249.98C456.327 249.597 455.994 249.138 455.759 248.628C455.468 247.864 455.328 247.051 455.347 246.233V229.986H466.975C467.654 229.97 468.3 229.689 468.775 229.204C469.016 228.987 469.21 228.722 469.343 228.426C469.476 228.13 469.546 227.809 469.548 227.485V220.616C469.553 220.283 469.486 219.953 469.353 219.647C469.219 219.342 469.022 219.069 468.775 218.846C468.309 218.385 467.681 218.125 467.026 218.118H455.398V207.024C455.417 206.694 455.362 206.364 455.238 206.058C455.114 205.752 454.923 205.477 454.68 205.253C454.233 204.83 453.645 204.589 453.031 204.577H443.976C443.327 204.565 442.699 204.807 442.227 205.253C441.747 205.719 441.471 206.355 441.457 207.024V218.118H436.31C435.986 218.109 435.665 218.175 435.37 218.31C435.076 218.445 434.817 218.646 434.612 218.897C434.192 219.372 433.955 219.982 433.946 220.616V227.488C433.946 228.112 434.2 228.74 434.612 229.207C434.809 229.467 435.066 229.675 435.363 229.812C435.659 229.948 435.984 230.009 436.31 229.989H441.457V249.307C441.407 251.6 441.863 253.877 442.794 255.973C443.623 257.686 444.797 259.21 446.24 260.45C447.68 261.648 449.378 262.481 451.127 263.003C452.944 263.566 454.836 263.847 456.738 263.836C459.239 263.831 461.722 263.426 464.095 262.636C466.295 261.902 468.289 260.653 469.909 258.992C470.401 258.486 470.701 257.824 470.756 257.121C470.812 256.418 470.621 255.717 470.215 255.139L467.129 250.138ZM516.16 218.112H507.209C506.899 218.111 506.592 218.175 506.308 218.3C506.025 218.426 505.771 218.61 505.563 218.84C505.332 219.073 505.149 219.35 505.025 219.654C504.901 219.959 504.839 220.284 504.841 220.613V221.704C503.716 220.394 502.332 219.331 500.777 218.582C498.327 217.394 495.629 216.805 492.907 216.863C490.06 216.863 487.24 217.425 484.609 218.515C481.978 219.605 479.588 221.203 477.575 223.217C475.45 225.346 473.77 227.876 472.634 230.662C471.354 233.745 470.724 237.06 470.782 240.398C470.728 243.754 471.358 247.085 472.634 250.189C473.768 252.948 475.465 255.5 477.523 257.634C479.507 259.681 481.882 261.307 484.507 262.416C487.133 263.525 489.954 264.095 492.804 264.091C495.52 264.141 498.212 263.571 500.673 262.424C502.219 261.645 503.659 260.605 504.79 259.301V260.447C504.796 261.084 505.045 261.69 505.487 262.136C505.928 262.583 506.529 262.837 507.157 262.842H516.16C516.784 262.843 517.383 262.597 517.827 262.158C518.27 261.719 518.522 261.123 518.528 260.499V220.616C518.534 220.3 518.479 219.985 518.364 219.69C518.249 219.395 518.077 219.126 517.858 218.897C517.654 218.645 517.395 218.444 517.1 218.308C516.806 218.172 516.484 218.103 516.16 218.112ZM504.072 244.669C503.6 245.927 502.883 247.078 501.962 248.055C501.035 248.994 499.956 249.768 498.77 250.344C497.517 250.933 496.143 251.218 494.759 251.177C493.368 251.177 492.031 250.865 490.798 250.344C489.585 249.787 488.485 249.011 487.554 248.055C486.633 247.078 485.916 245.927 485.444 244.669C484.468 241.996 484.468 239.064 485.444 236.391C485.917 235.149 486.634 234.015 487.554 233.056C488.482 232.12 489.561 231.341 490.798 230.768C492.041 230.203 493.394 229.919 494.759 229.934C496.148 229.934 497.485 230.195 498.77 230.765C499.955 231.341 501.034 232.068 501.962 233.008C502.886 233.996 503.608 235.087 504.072 236.339C505.15 239.011 505.15 241.997 504.072 244.669ZM565.298 249.565L560.15 245.606C559.174 244.827 558.247 244.618 557.425 244.93C556.701 245.241 556.052 245.703 555.522 246.285C554.396 247.648 553.079 248.841 551.611 249.826C550.068 250.711 548.368 251.129 546.619 251.023C544.608 251.045 542.641 250.436 540.996 249.28C539.342 248.117 538.089 246.471 537.41 244.566C536.943 243.263 536.7 241.889 536.691 240.504C536.691 239.098 536.894 237.691 537.41 236.339C537.874 235.087 538.543 233.945 539.468 233.005C540.396 232.068 541.475 231.286 542.657 230.765C543.916 230.185 545.285 229.884 546.67 229.883C548.419 229.82 550.15 230.253 551.663 231.132C553.143 232.101 554.462 233.296 555.573 234.672C556.086 235.245 556.704 235.712 557.425 236.027C558.247 236.339 559.174 236.13 560.099 235.348L565.246 231.444C565.861 231.025 566.377 230.401 566.583 229.673C566.729 229.284 566.786 228.867 566.75 228.453C566.714 228.039 566.587 227.638 566.377 227.279C564.391 224.18 561.669 221.621 558.453 219.831C555.058 217.906 550.993 216.915 546.464 216.915C543.272 216.916 540.109 217.534 537.152 218.737C534.326 219.89 531.756 221.59 529.589 223.738C527.415 225.867 525.699 228.418 524.548 231.235C522.129 237.195 522.129 243.865 524.548 249.826C525.73 252.636 527.428 255.188 529.589 257.27C534.093 261.683 540.159 264.135 546.464 264.091C550.993 264.091 555.058 263.103 558.453 261.175C561.697 259.382 564.439 256.805 566.428 253.678C566.638 253.329 566.766 252.936 566.801 252.53C566.837 252.124 566.78 251.716 566.634 251.335C566.39 250.617 565.921 249.996 565.298 249.565ZM612.937 258.831L598.79 238.055L610.882 222.071C611.164 221.706 611.358 221.281 611.447 220.828C611.536 220.376 611.518 219.908 611.395 219.464C611.188 218.843 610.625 218.164 609.133 218.164H599.563C599.012 218.179 598.469 218.303 597.966 218.527C597.374 218.825 596.889 219.298 596.578 219.882L586.905 233.423H584.589V201.398C584.596 201.081 584.541 200.767 584.426 200.472C584.312 200.177 584.141 199.907 583.922 199.679C583.698 199.459 583.432 199.286 583.141 199.17C582.85 199.054 582.538 198.997 582.224 199.003H573.27C572.641 199.015 572.038 199.255 571.572 199.679C571.333 199.895 571.145 200.161 571.021 200.458C570.896 200.755 570.84 201.076 570.854 201.398V260.447C570.854 261.123 571.109 261.751 571.572 262.166C571.796 262.386 572.062 262.559 572.353 262.675C572.645 262.791 572.956 262.848 573.27 262.842H582.224C582.853 262.83 583.457 262.59 583.922 262.166C584.141 261.937 584.312 261.668 584.426 261.373C584.541 261.078 584.596 260.763 584.589 260.447V244.827H587.162L597.708 261.02C598.327 262.166 599.512 262.893 600.797 262.893H610.831C612.374 262.893 612.989 262.166 613.247 261.541C613.428 261.1 613.494 260.621 613.44 260.147C613.386 259.673 613.213 259.22 612.937 258.831ZM389.646 218.112H379.613C379.242 218.09 378.87 218.149 378.524 218.284C378.178 218.419 377.864 218.627 377.606 218.894C377.152 219.356 376.833 219.932 376.681 220.561L369.27 248.158H367.472L359.552 220.561C359.401 219.978 359.138 219.429 358.779 218.946C358.56 218.681 358.285 218.468 357.973 218.324C357.662 218.18 357.321 218.107 356.978 218.112H346.584C345.25 218.112 344.425 218.53 344.065 219.416C343.807 220.195 343.807 221.083 344.065 221.862L356.772 260.656C356.978 261.229 357.287 261.802 357.751 262.217C358.266 262.687 358.933 262.945 359.652 262.893H365.005L364.541 264.145L363.359 267.737C362.995 268.829 362.328 269.82 361.404 270.547C360.548 271.205 359.496 271.554 358.418 271.539C357.493 271.539 356.569 271.33 355.744 270.963C354.899 270.596 354.104 270.125 353.377 269.559C352.716 269.087 351.924 268.833 351.112 268.832H351.009C350.544 268.855 350.092 268.996 349.696 269.241C349.3 269.487 348.973 269.829 348.745 270.235L345.556 274.922C344.271 276.953 344.989 278.256 345.814 278.984C347.515 280.555 349.532 281.745 351.731 282.473C354.166 283.304 356.721 283.726 359.294 283.721C363.871 283.721 367.73 282.473 370.661 279.975C373.722 277.287 375.954 273.782 377.094 269.871L391.811 221.862C392.12 221.028 392.171 220.143 391.862 219.309C391.604 218.737 391.035 218.112 389.646 218.112Z" fill="#011B33"/>
<path d="M159 140.36L163.58 120L178.09 133.95L159 140.36Z" fill="#ACA6FF"/>
<path d="M514.56 350L506 359.5L515.5 368.05L524.05 358.55L514.56 350Z" fill="#77FCC8"/>
<path d="M306.89 177.23L295.23 172L290 183.67L301.66 188.9L306.89 177.23Z" fill="#77FCC8"/>
<path d="M577.91 288.05L557.69 294.62C557.16 294.79 556.88 295.35 557.05 295.88C557.22 296.41 557.78 296.69 558.31 296.52L578.53 289.95C579.06 289.78 579.34 289.22 579.17 288.69C579 288.16 578.44 287.88 577.91 288.05Z" fill="#ACA6FF"/>
<g opacity="0.21" clip-path="url(#clip0_3207_6974)">
<path d="M515.234 125.553C514.171 129.683 516.517 133.653 520.647 134.716L554.658 143.466C558.788 144.529 562.758 142.183 563.821 138.053L567.571 123.477L518.984 110.977L515.234 125.553ZM525.022 117.71L532.31 119.585C533.768 119.96 534.489 121.182 534.114 122.64C533.739 124.097 532.518 124.819 531.06 124.444L523.772 122.569C522.314 122.194 521.593 120.972 521.968 119.515C522.343 118.057 523.564 117.335 525.022 117.71ZM564.033 107.026L530.022 98.2756C525.892 97.2131 521.922 99.5587 520.859 103.689L520.234 106.118L568.821 118.618L569.446 116.189C570.509 112.059 568.163 108.089 564.033 107.026Z" fill="#ACA6FF"/>
</g>
<g opacity="0.21" clip-path="url(#clip1_3207_6974)">
<path d="M245.564 339.573L224.699 351.433C223.916 351.877 223.691 352.696 224.136 353.478L237.478 376.951C237.923 377.734 238.741 377.959 239.523 377.514C239.784 377.366 239.971 377.087 240.158 376.808L241.784 373.296L245.635 373.695C246.379 373.79 246.9 373.493 247.199 372.806L248.826 369.293L252.677 369.693C253.42 369.787 253.942 369.491 254.241 368.803L255.868 365.29L259.718 365.69C260.053 365.672 260.388 365.654 260.649 365.506C261.432 365.061 261.657 364.243 261.212 363.461L247.87 339.988C247.164 339.353 246.346 339.128 245.564 339.573ZM250.725 360.795L240.292 366.725C239.51 367.169 238.692 366.944 238.247 366.162C237.802 365.379 238.027 364.561 238.81 364.117L249.242 358.187C250.025 357.742 250.843 357.967 251.288 358.75C251.732 359.532 251.507 360.35 250.725 360.795ZM247.76 355.579L237.327 361.508C236.545 361.953 235.727 361.728 235.282 360.946C234.837 360.163 235.062 359.345 235.845 358.9L246.277 352.97C247.06 352.526 247.878 352.751 248.323 353.533C248.767 354.316 248.542 355.134 247.76 355.579ZM244.795 350.362L236.97 354.81C236.188 355.254 235.37 355.029 234.925 354.247C234.48 353.464 234.706 352.646 235.488 352.202L243.312 347.754C244.095 347.309 244.913 347.535 245.358 348.317C245.802 349.099 245.577 349.918 244.795 350.362Z" fill="#ACA6FF"/>
</g>
<defs>
<clipPath id="clip0_3207_6974">
<rect width="60.2029" height="60.2029" fill="white" transform="translate(521.001 83) rotate(14.4283)"/>
</clipPath>
<clipPath id="clip1_3207_6974">
<rect width="36" height="36" fill="white" transform="translate(218 351.79) rotate(-29.6139)"/>
</clipPath>
</defs>
</svg>
