<svg width="102" height="67" viewBox="0 0 102 67" fill="none" xmlns="http://www.w3.org/2000/svg">
<rect width="102" height="67" rx="3" fill="url(#paint0_linear_1239_6413)"/>
<g style="mix-blend-mode:soft-light">
<path d="M38.847 4.21904L42.6925 6.43965V2L38.847 4.21904Z" fill="#D069B5"/>
</g>
<path d="M53.8136 27.0014C60.4517 26.9042 65.8697 31.9111 65.9982 38.2722C66.0171 39.2061 65.9197 40.1152 65.719 40.9871C65.3792 42.4635 65.1772 43.9659 65.1772 45.4778V48.4003C65.1772 48.848 64.7985 49.211 64.3312 49.211H61.2817C59.7041 49.211 58.1363 49.4046 56.5958 49.7302C55.686 49.9225 54.7374 50.0159 53.7629 49.9978C47.1253 49.8747 41.9007 44.6826 42.002 38.3212C42.1007 32.112 47.3345 27.0962 53.8136 27.0014Z" fill="url(#paint1_linear_1239_6413)"/>
<path d="M53.8136 27.0014C60.4517 26.9042 65.8697 31.9111 65.9982 38.2722C66.0171 39.2061 65.9197 40.1152 65.719 40.9871C65.3792 42.4635 65.1772 43.9659 65.1772 45.4778V48.4003C65.1772 48.848 64.7985 49.211 64.3312 49.211H61.2817C59.7041 49.211 58.1363 49.4046 56.5958 49.7302C55.686 49.9225 54.7374 50.0159 53.7629 49.9978C47.1253 49.8747 41.9007 44.6826 42.002 38.3212C42.1007 32.112 47.3345 27.0962 53.8136 27.0014Z" fill="url(#paint2_linear_1239_6413)"/>
<path d="M44.7263 16.0017C36.7053 15.8834 30.1586 21.9787 30.0033 29.7227C29.9805 30.8595 30.0982 31.9663 30.3407 33.0277C30.7513 34.825 30.9954 36.6541 30.9954 38.4947V42.0525C30.9954 42.5975 31.453 43.0395 32.0176 43.0395H35.7024C37.6087 43.0395 39.5031 43.2751 41.3646 43.6716C42.464 43.9057 43.6102 44.0194 44.7877 43.9973C52.808 43.8474 59.121 37.5266 58.9988 29.7823C58.8793 22.2232 52.5553 16.1171 44.7263 16.0017Z" fill="url(#paint3_linear_1239_6413)"/>
<path d="M39.7024 29.676C39.3116 29.2608 38.7585 29 38.1432 29C36.9598 29 36.0005 29.9593 36.0005 31.1427C36.0005 31.7579 36.2612 32.311 36.6765 32.7019L41.2987 37.324C41.6895 37.7392 42.2426 38 42.8578 38C44.0412 38 45.0005 37.0407 45.0005 35.8573C45.0005 35.2421 44.7398 34.689 44.3245 34.2981L39.7024 29.676Z" fill="url(#paint4_linear_1239_6413)"/>
<path d="M38.0005 33C39.1051 33 40.0005 32.1046 40.0005 31C40.0005 29.8954 39.1051 29 38.0005 29C36.8959 29 36.0005 29.8954 36.0005 31C36.0005 32.1046 36.8959 33 38.0005 33Z" fill="white"/>
<path d="M44.7024 29.676C44.3116 29.2608 43.7585 29 43.1432 29C41.9598 29 41.0005 29.9593 41.0005 31.1427C41.0005 31.7579 41.2612 32.311 41.6765 32.7019L46.2987 37.324C46.6895 37.7392 47.2426 38 47.8578 38C49.0412 38 50.0005 37.0407 50.0005 35.8573C50.0005 35.2421 49.7398 34.689 49.3245 34.2981L44.7024 29.676Z" fill="url(#paint5_linear_1239_6413)"/>
<path d="M43.0005 33C44.1051 33 45.0005 32.1046 45.0005 31C45.0005 29.8954 44.1051 29 43.0005 29C41.8959 29 41.0005 29.8954 41.0005 31C41.0005 32.1046 41.8959 33 43.0005 33Z" fill="white"/>
<path d="M50.1137 29.676C49.6795 29.2608 49.065 29 48.3813 29C47.0664 29 46.0005 29.9593 46.0005 31.1427C46.0005 31.7579 46.2903 32.311 46.7516 32.7019L51.8873 37.324C52.3216 37.7392 52.9361 38 53.6197 38C54.9346 38 56.0005 37.0407 56.0005 35.8573C56.0005 35.2421 55.7108 34.689 55.2494 34.2981L50.1137 29.676Z" fill="url(#paint6_linear_1239_6413)"/>
<path d="M48.0005 33C49.1051 33 50.0005 32.1046 50.0005 31C50.0005 29.8954 49.1051 29 48.0005 29C46.8959 29 46.0005 29.8954 46.0005 31C46.0005 32.1046 46.8959 33 48.0005 33Z" fill="white"/>
<path d="M98.5 -9.39795e-07L77 0C104.5 7.5 88.5 22.5 102 33L102 3C102 0.599997 99.6667 -9.90791e-07 98.5 -9.39795e-07Z" fill="url(#paint7_linear_1239_6413)" fill-opacity="0.2"/>
<path d="M3.64 67L26 67C-2.6 60.4091 14.04 47.2273 0 38L-1.15239e-06 64.3636C-1.24458e-06 66.4727 2.42667 67 3.64 67Z" fill="url(#paint8_linear_1239_6413)" fill-opacity="0.27"/>
<defs>
<linearGradient id="paint0_linear_1239_6413" x1="51" y1="0" x2="51" y2="67" gradientUnits="userSpaceOnUse">
<stop stop-color="#475DEB"/>
<stop offset="1" stop-color="#59DBF2"/>
</linearGradient>
<linearGradient id="paint1_linear_1239_6413" x1="51.5782" y1="36.1793" x2="68.4468" y2="53.7814" gradientUnits="userSpaceOnUse">
<stop stop-color="#A7F3CE"/>
<stop offset="1" stop-color="#61DB99"/>
</linearGradient>
<linearGradient id="paint2_linear_1239_6413" x1="57.3454" y1="41.7059" x2="50.1805" y2="34.2302" gradientUnits="userSpaceOnUse">
<stop stop-color="#61DB99" stop-opacity="0"/>
<stop offset="1" stop-color="#009E74"/>
</linearGradient>
<linearGradient id="paint3_linear_1239_6413" x1="39.2029" y1="27.7367" x2="57.0051" y2="46.1745" gradientUnits="userSpaceOnUse">
<stop stop-color="#62E1FB"/>
<stop offset="1" stop-color="#00A2F3"/>
</linearGradient>
<linearGradient id="paint4_linear_1239_6413" x1="42.9097" y1="35.9096" x2="33.6424" y2="26.6426" gradientUnits="userSpaceOnUse">
<stop stop-color="#00A2F3" stop-opacity="0"/>
<stop offset="1" stop-color="#0075CD"/>
</linearGradient>
<linearGradient id="paint5_linear_1239_6413" x1="47.9093" y1="35.9094" x2="38.6423" y2="26.6424" gradientUnits="userSpaceOnUse">
<stop stop-color="#00A2F3" stop-opacity="0"/>
<stop offset="1" stop-color="#0075CD"/>
</linearGradient>
<linearGradient id="paint6_linear_1239_6413" x1="53.6769" y1="35.9095" x2="44.4611" y2="25.6697" gradientUnits="userSpaceOnUse">
<stop stop-color="#00A2F3" stop-opacity="0"/>
<stop offset="1" stop-color="#0075CD"/>
</linearGradient>
<linearGradient id="paint7_linear_1239_6413" x1="70.5" y1="3.5" x2="105.5" y2="13.5" gradientUnits="userSpaceOnUse">
<stop stop-color="#2ABDF6"/>
<stop offset="1" stop-color="#63D4A5" stop-opacity="0.2"/>
</linearGradient>
<linearGradient id="paint8_linear_1239_6413" x1="32.76" y1="63.9242" x2="-2.57191" y2="51.9775" gradientUnits="userSpaceOnUse">
<stop stop-color="#2ABDF6"/>
<stop offset="1" stop-color="#58D0F2"/>
</linearGradient>
</defs>
</svg>
