<?xml version="1.0" encoding="utf-8"?>
<svg version="1.1" id="Layer_1" xmlns="http://www.w3.org/2000/svg" xmlns:xlink="http://www.w3.org/1999/xlink" x="0px" y="0px"
	 viewBox="0 0 22 19" style="enable-background:new 0 0 22 19;" xml:space="preserve">
<g>
	<g>
		<path d="M3.4,9.9c-0.4,0-0.7,0.3-0.7,0.7c0,0.4,0.3,0.7,0.7,0.7h2.8c0.4,0,0.7-0.3,0.7-0.7V4.9c0-0.4-0.3-0.7-0.7-0.7H3.4
			c-0.4,0-0.7,0.3-0.7,0.7c0,0.4,0.3,0.7,0.7,0.7h2.1V7H3.4C3.1,7,2.8,7.4,2.8,7.7s0.3,0.7,0.7,0.7h2.1v1.4H3.4z M12.4,8.4
			C12.4,7.7,11.8,7,11,7H9.6V5.6h2.1c0.4,0,0.7-0.3,0.7-0.7c0-0.4-0.3-0.7-0.7-0.7H9.6c-0.8,0-1.4,0.6-1.4,1.4v4.2
			c0,0.8,0.6,1.4,1.4,1.4H11c0.8,0,1.4-0.6,1.4-1.4V8.4z M11,9.9H9.6V8.4H11V9.9z M15.1,11.3h1.4c0.8,0,1.4-0.6,1.4-1.4V5.6
			c0-0.8-0.6-1.4-1.4-1.4h-1.4c-0.8,0-1.4,0.6-1.4,1.4v4.2C13.8,10.6,14.4,11.3,15.1,11.3z M15.1,5.6h1.4v4.2h-1.4V5.6z M20.4,8.3
			c-0.3-0.2-0.7-0.2-1,0.1c-0.2,0.3-0.2,0.7,0.1,1c0.6,0.4,1,1.1,1.1,1.9c0,1.9-3.3,3.7-7.6,4.1c-0.4,0-0.7,0.3-0.7,0.7
			c0,0.4,0.3,0.7,0.7,0.7l0.1,0c5.2-0.5,8.9-2.8,8.9-5.5C21.9,10.1,21.3,8.9,20.4,8.3z M11.6,15.8c0,0,0-0.1-0.1-0.1l-2.1-2.1
			c-0.3-0.3-0.7-0.3-1,0c-0.3,0.3-0.3,0.7,0,1l0.8,0.8C4.5,15,1.4,13,1.4,11.3c0.1-0.8,0.5-1.5,1.1-1.9c0.3-0.2,0.4-0.7,0.1-1
			C2.4,8.1,1.9,8,1.6,8.3c-1,0.7-1.6,1.8-1.6,3c0,2.9,4,5.2,9.4,5.6l-1,1c-0.1,0.1-0.2,0.3-0.2,0.5c0,0.4,0.3,0.7,0.7,0.7
			c0.2,0,0.4-0.1,0.5-0.2l2.1-2.1c0,0,0,0,0,0c0,0,0.1-0.1,0.1-0.1c0,0,0-0.1,0.1-0.1C11.7,16.3,11.7,16.1,11.6,15.8
			C11.6,15.9,11.6,15.9,11.6,15.8z M19.9,4.2c1.1,0,2.1-0.9,2.1-2.1C22,0.9,21.1,0,19.9,0c-1.1,0-2.1,0.9-2.1,2.1
			C17.9,3.3,18.8,4.2,19.9,4.2z M19.9,1.4c0.4,0,0.7,0.3,0.7,0.7c0,0.4-0.3,0.7-0.7,0.7s-0.7-0.3-0.7-0.7
			C19.3,1.7,19.6,1.4,19.9,1.4z"/>
	</g>
</g>
</svg>
