<svg height="1em" preserveAspectRatio="xMidYMid meet" transform="rotate(360deg)" viewBox="0 0 1024 1024" width="1em" xmlns="http://www.w3.org/2000/svg"><path d="m960 1024h-320q-27 0-45.5-18.5t-18.5-45.5v-320q0-27 18.5-45.5t45.5-18.5h320q27 0 45.5 18.5t18.5 45.5v320q0 27-18.5 45.5t-45.5 18.5zm0-384h-320v320h320zm0-192h-320q-27 0-45.5-18.5t-18.5-45.5v-320q0-27 18.5-45.5t45.5-18.5h320q27 0 45.5 18.5t18.5 45.5v320q0 27-18.5 45.5t-45.5 18.5zm0-384h-320v320h320zm-576 960h-320q-27 0-45.5-18.5t-18.5-45.5v-320q0-27 18.5-45.5t45.5-18.5h320q27 0 45.5 18.5t18.5 45.5v320q0 27-18.5 45.5t-45.5 18.5zm0-384h-320v320h320zm0-192h-320q-27 0-45.5-18.5t-18.5-45.5v-320q0-27 18.5-45.5t45.5-18.5h320q27 0 45.5 18.5t18.5 45.5v320q0 27-18.5 45.5t-45.5 18.5zm0-384h-320v320h320z"/></svg>