<svg height="1em" preserveAspectRatio="xMidYMid meet" transform="rotate(360deg)" viewBox="0 0 1024 896" width="1.15em" xmlns="http://www.w3.org/2000/svg"><path d="m96 384h-64q-13 0-22.5 9.5t-9.5 22.5v64q0 13 9.5 22.5t22.5 9.5h64q13 0 22.5-9.5t9.5-22.5v-64q0-13-9.5-22.5t-22.5-9.5zm896 32h-672q-13 0-22.5 9.5t-9.5 22.5 9.5 22.5 22.5 9.5h672q13 0 22.5-9.5t9.5-22.5-9.5-22.5-22.5-9.5zm-896 224h-64q-13 0-22.5 9.5t-9.5 22.5v64q0 13 9.5 22.5t22.5 9.5h64q13 0 22.5-9.5t9.5-22.5v-64q0-13-9.5-22.5t-22.5-9.5zm896 32h-672q-13 0-22.5 9.5t-9.5 22.5 9.5 22.5 22.5 9.5h672q13 0 22.5-9.5t9.5-22.5-9.5-22.5-22.5-9.5zm-896-544h-64q-13 0-22.5 9.5t-9.5 22.5v64q0 13 9.5 22.5t22.5 9.5h64q13 0 22.5-9.5t9.5-22.5v-64q0-13-9.5-22.5t-22.5-9.5zm224 96h672q13 0 22.5-9.5t9.5-22.5-9.5-22.5-22.5-9.5h-672q-13 0-22.5 9.5t-9.5 22.5 9.5 22.5 22.5 9.5z"/></svg>