<?xml version="1.0" encoding="utf-8"?>
<!-- Generator: Adobe Illustrator 24.1.1, SVG Export Plug-In . SVG Version: 6.00 Build 0)  -->
<svg version="1.1" id="Layer_1" xmlns="http://www.w3.org/2000/svg" xmlns:xlink="http://www.w3.org/1999/xlink" x="0px" y="0px"
	 viewBox="0 0 20.2 13.5" style="enable-background:new 0 0 20.2 13.5;" xml:space="preserve">
<path d="M19.1,1.1c-0.2,0-0.4,0.1-0.6,0.2l-3.9,2.5V1.7c0-0.9-0.8-1.7-1.8-1.7h-11C0.8,0,0,0.8,0,1.7v10.1c0,0.9,0.8,1.7,1.8,1.7h11
	c1,0,1.8-0.8,1.8-1.7V9.7l3.9,2.5c0.2,0.1,0.4,0.2,0.6,0.2c0.6,0,1.1-0.5,1.1-1.1v-9C20.3,1.6,19.7,1.1,19.1,1.1z M13.5,11.8
	c0,0.3-0.3,0.6-0.7,0.6h-11c-0.4,0-0.7-0.3-0.7-0.6V1.7c0-0.3,0.3-0.6,0.7-0.6h11c0.4,0,0.7,0.3,0.7,0.6V11.8z M19.1,11.3L19.1,11.3
	l-4.5-2.9V5.1l4.5-2.9V11.3z"/>
</svg>
