<?xml version="1.0" encoding="utf-8"?>
<!-- Generator: Adobe Illustrator 27.0.1, SVG Export Plug-In . SVG Version: 6.00 Build 0)  -->
<svg version="1.1" id="Layer_1" xmlns="http://www.w3.org/2000/svg" xmlns:xlink="http://www.w3.org/1999/xlink" x="0px" y="0px"
	 viewBox="0 0 131.21 130.81" style="enable-background:new 0 0 131.21 130.81;" xml:space="preserve">
<style type="text/css">
	.st0{fill:#1A1818;}
</style>
<g id="Group_43">
	<path id="Path_18" class="st0" d="M91.72,64.53c-0.41,0.81-0.77,1.64-1.24,2.42c-1.11,1.95-2.78,3.52-4.8,4.52
		c-1.25,0.68-2.71,0.85-4.08,0.45c-1.6-0.54-2.73-1.96-2.89-3.64c-0.34-2.2,0.07-4.46,1.18-6.39c1.1-2.3,2.92-4.17,5.18-5.35
		c3.91-1.95,7.31,0.21,7.22,4.58c-0.01,0.65-0.09,1.3-0.14,1.95L91.72,64.53z"/>
	<path id="Path_19" class="st0" d="M69.42,89.14c-1.54-0.56-2.98-1.38-4.25-2.41c-1.05-0.75-2.15-1.44-3.28-2.05
		c-1.87-0.96-3.93-0.94-5.97-0.99c-1.9-0.05-3.82-0.02-5.71-0.23c-2.93-0.18-5.48-2.09-6.47-4.86c-1.2-2.77-0.71-5.98,1.26-8.26
		c1.49-1.67,3.27-3.06,5.24-4.12c1.8-1.09,3.62-2.16,5.31-3.4c1.18-0.97,2.31-2,3.38-3.09c1.64-1.63,3.94-2.41,6.23-2.14
		c2.84,0.37,5.39,1.95,6.99,4.33c1.51,2.19,2.63,4.63,3.31,7.21c0.89,2.93,1.77,5.86,2.61,8.8c0.7,2.02,0.85,4.19,0.42,6.28
		c-0.89,3.28-3.99,5.47-7.38,5.21C70.55,89.36,69.99,89.23,69.42,89.14"/>
	<path id="Path_20" class="st0" d="M43.09,50.77c0.38-1.42,1.07-2.74,2.03-3.86c1.46-1.89,4.18-2.24,6.07-0.78
		c0.29,0.22,0.54,0.48,0.76,0.76c1.45,1.67,2.29,3.78,2.4,5.98c0.37,2.79-0.32,5.62-1.94,7.92c-0.9,1.5-2.59,2.35-4.33,2.19
		c-1.61-0.25-3-1.25-3.75-2.69c-1.45-2.43-1.99-5.3-1.52-8.09C42.9,51.65,43.03,51.11,43.09,50.77"/>
	<path id="Path_21" class="st0" d="M84.65,50.88c-1.18,3.47-3.16,6.28-6.65,7.77c-1.36,0.68-2.96,0.66-4.3-0.05
		c-1.45-0.85-2.33-2.41-2.3-4.09c-0.12-2.75,0.76-5.44,2.49-7.58c1.25-1.82,3.06-3.18,5.16-3.87c2.24-0.88,4.76,0.22,5.64,2.46
		c0.16,0.4,0.26,0.83,0.29,1.27C85.18,48.16,85.07,49.56,84.65,50.88"/>
	<path id="Path_22" class="st0" d="M57,42.9c0.38-1.54,1.19-2.93,2.32-4.04c1.59-1.69,4.25-1.76,5.94-0.17
		c0.06,0.06,0.12,0.11,0.17,0.17c1.55,1.55,2.5,3.59,2.69,5.78c0.5,2.92-0.14,5.93-1.8,8.39c-0.86,1.47-2.45,2.36-4.16,2.3
		c-1.73-0.16-3.26-1.21-4.03-2.77C56.44,49.63,56.03,46.14,57,42.9"/>
	<path id="Path_23" class="st0" d="M10.53,29.78L11,29.07c0.51-0.89,1.27-1.61,2.2-2.05c0.7-0.29,1.5-0.21,2.12,0.22
		c0.37,0.24,0.67,0.56,0.87,0.95c0.19,0.34,0.3,0.72,0.31,1.11c-0.02,0.18,0,0.37,0.03,0.55c0.22-0.08,0.43-0.19,0.62-0.32
		c0.35-0.21,0.74-0.35,1.14-0.4c0.54-0.08,1.09,0.04,1.55,0.34L20,29.59c1.3,0.86,1.6,2.18,0.92,3.96
		c-0.28,0.65-0.62,1.26-1.02,1.84l-0.23,0.35l-0.12,0.17c-0.08,0.12-0.16,0.23-0.24,0.34l-0.24,0.34c-0.08,0.11-0.16,0.22-0.24,0.34
		l-0.58,0.83c-0.18,0.29-0.37,0.56-0.58,0.82c-0.2,0.2-0.38,0.24-0.54,0.13c-0.12-0.08-0.21-0.34-0.26-0.79
		c-0.06-0.34-0.23-0.65-0.49-0.87c-0.93-0.74-1.9-1.43-2.91-2.06c-0.93-0.66-1.9-1.26-2.9-1.79c-0.31-0.1-0.64-0.1-0.95,0.02
		c-0.24,0.12-0.51,0.12-0.75,0.02c-0.15-0.1-0.21-0.29-0.13-0.45c0.23-0.5,0.51-0.98,0.83-1.43l0.42-0.7
		C10.28,30.18,10.46,29.89,10.53,29.78 M13.8,32.45l0.24,0.14c0.13,0.09,0.27,0.04,0.39-0.15l0.2-0.3l0.03-0.06l0.22-0.36
		c0.02-0.04,0.04-0.07,0.06-0.11c0.22-0.35,0.31-0.76,0.23-1.17c-0.06-0.43-0.3-0.81-0.67-1.04l-0.1-0.08l-0.21-0.14
		c-0.36-0.26-0.82-0.34-1.25-0.22c-0.52,0.18-0.95,0.54-1.21,1.01l-0.17,0.25c-0.19,0.29-0.23,0.5-0.12,0.64
		c0.36,0.28,0.74,0.54,1.13,0.79l1.17,0.78L13.8,32.45z M17.79,35.1l0.28,0.16c0.26,0.17,0.54,0.02,0.85-0.44l0.05-0.05l0.04-0.05
		l0.16-0.23l0.19-0.29c0.28-0.4,0.39-0.89,0.31-1.37c-0.08-0.5-0.38-0.93-0.82-1.19l-0.25-0.16c-0.42-0.29-0.94-0.39-1.44-0.28
		c-0.6,0.17-1.12,0.57-1.42,1.12l-0.27,0.4c-0.22,0.33-0.3,0.54-0.25,0.62c0.46,0.38,0.95,0.73,1.46,1.04l0.11,0.08l0.16,0.11
		l0.05,0.04l0.11,0.07l0.22,0.15l0.05,0.03l0.06,0.03l0.11,0.07l0.06,0.03l0.12,0.08L17.79,35.1z"/>
	<path id="Path_24" class="st0" d="M19.32,18.87l0.16-0.16c0.27-0.27,0.87-0.28,1.79-0.03c0.61,0.21,1.21,0.45,1.79,0.74
		c0.87,0.41,1.6,0.74,2.19,1c0.59,0.25,1.27,0.58,2.05,0.96c0.78,0.39,1.31,0.63,1.59,0.73c0.33,0.11,0.68,0.13,1.03,0.07
		c0.41-0.06,0.67-0.02,0.8,0.11c0.13,0.14,0.13,0.35,0.01,0.49c-0.56,0.72-1.17,1.39-1.84,2c-0.47,0.46-0.8,0.59-1,0.39
		c-0.11-0.15-0.2-0.32-0.26-0.49c-0.08-0.2-0.19-0.39-0.33-0.56c-0.39-0.42-0.9-0.71-1.46-0.83c-0.21-0.04-0.56,0.17-1.03,0.64
		c-0.52,0.45-0.99,0.97-1.39,1.53c-0.05,0.26-0.03,0.52,0.07,0.76c0.08,0.3,0.23,0.57,0.44,0.8c0.22,0.21,0.48,0.37,0.77,0.47
		c0.25,0.07,0.48,0.2,0.67,0.37c0.15,0.16,0.06,0.4-0.27,0.73c-0.51,0.55-1.08,1.04-1.7,1.46c-0.2,0.12-0.46,0.08-0.61-0.11
		c-0.02-0.33-0.01-0.66,0.03-0.98c0.02-0.37-0.04-0.74-0.19-1.08c-0.73-1.94-1.59-3.83-2.56-5.67c-0.45-0.7-0.82-1.44-1.1-2.22
		C18.87,19.57,19.01,19.14,19.32,18.87 M22.54,24.33l0.05,0.06c0.04,0.04,0.24-0.1,0.58-0.44l0.64-0.63
		c0.51-0.5,0.73-0.78,0.68-0.84c-0.6-0.4-1.25-0.74-1.92-1c-1.12-0.51-1.69-0.76-1.7-0.75c-0.01,0.01,0.23,0.58,0.73,1.71
		C21.85,23.09,22.17,23.73,22.54,24.33"/>
	<path id="Path_25" class="st0" d="M30.36,10.62c0.03,0.27,0.01,0.54-0.05,0.8c-0.08,0.36-0.07,0.73,0.02,1.08
		c0.57,1.05,1.2,2.07,1.88,3.05c0.62,1.01,1.29,1.99,2.01,2.92c0.15,0.15,0.36,0.21,0.57,0.18c0.32-0.09,0.63-0.24,0.9-0.44
		c0.36-0.22,0.67-0.53,0.89-0.89c0.23-0.43,0.39-0.91,0.45-1.39c0.02-0.43,0.2-0.83,0.52-1.13c0.19-0.12,0.36-0.07,0.51,0.17
		l0.11,0.17c0.23,0.37,0.42,0.77,0.55,1.19c0.12,0.27,0.18,0.56,0.2,0.85c-0.05,0.21-0.34,0.49-0.86,0.83l-3.52,2.29
		c-1.15,0.75-1.79,1.15-1.93,1.21c-0.19,0.11-0.44,0.04-0.55-0.15c-0.07-0.24-0.06-0.5,0.02-0.73c0.08-0.41,0.04-0.83-0.11-1.22
		c-0.06-0.17-0.68-1.16-1.86-2.97c-0.62-1.01-1.29-1.99-2.02-2.92c-0.25-0.16-0.55-0.23-0.85-0.2c-0.31,0.04-0.62-0.08-0.82-0.33
		c-0.12-0.18,0.25-0.55,1.1-1.1l1.74-1.13c0.22-0.16,0.46-0.29,0.72-0.36C30.15,10.39,30.29,10.48,30.36,10.62"/>
	<path id="Path_26" class="st0" d="M45.13,14.76c-0.64,0.27-1.33,0.37-2.02,0.3c-1.23-0.14-2.3-0.91-2.83-2.03l-0.14-0.29
		c-0.04-0.1-0.13-0.3-0.24-0.6l-0.56-1.47L38.7,9.04c-0.17-0.51-0.4-1.01-0.67-1.48c-0.21-0.13-0.45-0.2-0.69-0.21
		c-0.37-0.04-0.59-0.16-0.67-0.36l-0.09-0.23c-0.07-0.16,0.07-0.33,0.42-0.51c0.7-0.36,1.5-0.72,2.41-1.08
		c0.58-0.23,0.92-0.24,1-0.02c0,0.01-0.01,0.23-0.04,0.65c-0.03,0.43,0,0.86,0.1,1.29c0.3,1.02,0.66,2.02,1.07,2.99
		c0.34,1.07,0.87,2.06,1.58,2.93c0.61,0.56,1.5,0.68,2.24,0.31c0.8-0.25,1.38-0.93,1.52-1.75c-0.05-1.24-0.36-2.45-0.91-3.55
		c-0.39-1.2-0.98-2.33-1.74-3.34l-0.17-0.14l-0.19-0.12c-0.16-0.09-0.3-0.22-0.4-0.38c-0.07-0.18,0.01-0.39,0.19-0.47
		c0.37-0.18,0.75-0.34,1.13-0.48c0.5-0.22,1.03-0.36,1.57-0.4c0.15,0,0.27,0.1,0.35,0.32c0.09,0.21,0.06,0.45-0.06,0.64
		c-0.2,0.27-0.33,0.58-0.38,0.9c0.2,0.69,0.44,1.37,0.73,2.03l0.36,0.86l0.13,0.29c0.37,0.86,0.65,1.76,0.85,2.67
		c0.11,0.58,0.08,1.17-0.1,1.73c-0.51,1.21-1.53,2.13-2.78,2.51L45.13,14.76z"/>
	<path id="Path_27" class="st0" d="M71.17,0.01l0.23,0.02c0.38,0.03,0.78,0.48,1.18,1.35c0.24,0.6,0.44,1.22,0.59,1.84
		c0.25,0.93,0.47,1.7,0.65,2.31C74,6.15,74.2,6.88,74.41,7.72c0.21,0.84,0.36,1.4,0.47,1.68c0.13,0.32,0.34,0.61,0.61,0.83
		c0.31,0.27,0.45,0.5,0.43,0.68s-0.14,0.29-0.37,0.32c-0.91,0.04-1.81,0-2.71-0.11c-0.65-0.06-0.97-0.23-0.94-0.51
		c0.05-0.18,0.12-0.36,0.2-0.52c0.1-0.19,0.17-0.4,0.21-0.61c0.07-0.57-0.04-1.15-0.31-1.65c-0.11-0.19-0.49-0.31-1.15-0.37
		c-0.68-0.1-1.37-0.13-2.06-0.07c-0.23,0.13-0.42,0.32-0.54,0.55c-0.18,0.26-0.29,0.55-0.32,0.86c-0.02,0.3,0.03,0.61,0.14,0.89
		c0.1,0.24,0.16,0.49,0.16,0.75c-0.02,0.22-0.26,0.31-0.73,0.26c-0.75-0.04-1.49-0.16-2.21-0.36c-0.22-0.08-0.36-0.31-0.31-0.54
		c0.24-0.23,0.49-0.43,0.77-0.61c0.3-0.22,0.54-0.51,0.7-0.84c1.01-1.81,1.9-3.69,2.66-5.62c0.24-0.79,0.57-1.56,0.99-2.27
		C70.33,0.12,70.75-0.05,71.17,0.01 M69.08,6l-0.01,0.08c-0.01,0.06,0.23,0.12,0.72,0.16l0.9,0.08c0.71,0.07,1.07,0.06,1.08-0.03
		c-0.08-0.72-0.24-1.43-0.48-2.11c-0.34-1.19-0.51-1.78-0.53-1.78c-0.02,0-0.29,0.55-0.84,1.66C69.58,4.67,69.29,5.32,69.08,6"/>
	<path id="Path_28" class="st0" d="M77.57,11.41c0.09-0.33,0.36-0.59,0.69-0.68c0.3-0.07,0.56-0.26,0.71-0.52
		C79.42,9.11,79.8,8,80.11,6.86c0.38-1.1,0.67-2.23,0.88-3.38c0.04-0.3-0.01-0.61-0.15-0.88c-0.27-0.41-0.39-0.66-0.36-0.75
		l0.03-0.12c0.06-0.2,0.29-0.28,0.68-0.22c0.11,0.02,0.64,0.17,1.6,0.46l1,0.29l0.19,0.06l0.58,0.2l0.6,0.18
		c1.77,0.54,2.78,1.44,3.03,2.71c0.1,0.48,0.07,0.97-0.07,1.44l-0.06,0.21c-0.23,0.81-0.8,1.48-1.57,1.84
		c-0.91,0.4-1.94,0.48-2.9,0.22c-0.38-0.1-0.77-0.16-1.16-0.19c-0.38,0.05-0.72,0.55-1.01,1.52c-0.14,0.39-0.09,0.83,0.15,1.18
		c0.31,0.46,0.43,0.8,0.36,1.03c-0.05,0.18-0.28,0.25-0.68,0.2c-0.57-0.09-1.14-0.22-1.69-0.4C78.16,12.03,77.5,11.68,77.57,11.41
		 M82.24,7.09c-0.09,0.2-0.09,0.42-0.02,0.63c0.16,0.19,0.39,0.32,0.64,0.36l0.36,0.11c0.48,0.16,1.01,0.09,1.43-0.19
		c0.49-0.36,0.84-0.89,0.98-1.49l0.02-0.08c0.22-0.6,0.2-1.25-0.05-1.84c-0.24-0.51-0.68-0.89-1.22-1.03L84.18,3.5
		c-0.42-0.13-0.7-0.1-0.83,0.08c-0.15,0.36-0.28,0.74-0.38,1.12l-0.35,1.14l-0.1,0.28L82.24,7.09z"/>
	<path id="Path_29" class="st0" d="M87.79,14.74c0.16-0.31,0.46-0.51,0.81-0.54c0.31-0.01,0.6-0.15,0.8-0.38
		c0.64-0.99,1.23-2.01,1.75-3.06c0.58-1.01,1.09-2.06,1.51-3.15c0.1-0.29,0.11-0.6,0.02-0.9C92.5,6.26,92.43,6,92.48,5.91l0.06-0.11
		c0.1-0.19,0.34-0.22,0.71-0.08c0.1,0.04,0.6,0.29,1.48,0.76l0.92,0.47l0.18,0.1l0.54,0.31l0.55,0.29c1.63,0.86,2.45,1.95,2.46,3.24
		c0,0.49-0.11,0.97-0.34,1.39l-0.1,0.19c-0.38,0.75-1.07,1.3-1.89,1.51c-0.97,0.22-1.99,0.1-2.89-0.34c-0.35-0.17-0.72-0.3-1.1-0.41
		c-0.38-0.03-0.81,0.41-1.28,1.3c-0.21,0.36-0.24,0.8-0.08,1.19c0.22,0.51,0.27,0.87,0.16,1.09c-0.09,0.17-0.32,0.19-0.71,0.07
		c-0.55-0.19-1.08-0.43-1.58-0.72C88.24,15.48,87.65,15,87.79,14.74 M93.18,11.41c-0.12,0.18-0.17,0.4-0.14,0.61
		c0.13,0.22,0.32,0.38,0.56,0.47l0.33,0.18c0.44,0.25,0.97,0.28,1.44,0.08c0.55-0.26,1-0.71,1.25-1.27l0.03-0.07
		c0.33-0.54,0.44-1.19,0.31-1.81c-0.13-0.54-0.5-1-1-1.25l-0.17-0.09c-0.39-0.21-0.67-0.23-0.83-0.08
		c-0.22,0.33-0.42,0.67-0.59,1.02l-0.56,1.05l-0.15,0.26L93.18,11.41z"/>
	<path id="Path_30" class="st0" d="M106.71,14.27l0.41,0.34c0.88,0.65,1.55,1.55,1.92,2.59c0.26,0.83,0.07,1.73-0.51,2.38
		c-0.3,0.38-0.69,0.67-1.14,0.86c-0.34,0.15-0.71,0.24-1.08,0.27c-0.36-0.01-0.72,0.03-1.07,0.1c-0.15,0.23-0.25,0.5-0.27,0.77
		c-0.06,0.37-0.13,0.8-0.23,1.3c-0.07,0.33-0.12,0.67-0.16,1.01c-0.04,0.39,0.03,0.79,0.19,1.15c0.28,0.55,0.38,0.87,0.31,0.96
		c-0.16,0.24-0.46,0.33-0.72,0.21c-0.43-0.19-0.84-0.45-1.2-0.76c-0.39-0.29-0.63-0.73-0.68-1.22c0-0.73,0.1-1.46,0.31-2.15
		c0.16-0.58,0.29-1.16,0.37-1.75c0.03-0.4-0.15-0.79-0.46-1.04c-0.16-0.15-0.4-0.16-0.57-0.03c-0.44,0.36-0.83,0.77-1.17,1.22
		c-0.2,0.31-0.33,0.65-0.4,1.01l-0.11,0.59c-0.02,0.16-0.06,0.32-0.12,0.47c-0.17,0.21-0.59,0.04-1.24-0.5
		c-0.69-0.53-1.34-1.11-1.93-1.74c-0.15-0.16-0.15-0.41-0.01-0.58c0.14-0.17,0.39-0.22,0.76-0.17c0.3,0.07,0.62,0.01,0.88-0.16
		c0.81-0.81,1.56-1.67,2.27-2.57c0.79-0.89,1.52-1.83,2.18-2.82c0.15-0.27,0.22-0.59,0.2-0.9c-0.07-0.29-0.06-0.59,0.01-0.87
		c0.13-0.16,0.39-0.13,0.76,0.1C105.06,12.92,105.9,13.57,106.71,14.27 M106.32,15.3l-0.19-0.16c-0.27-0.23-0.47-0.33-0.59-0.3
		c-0.23,0.12-0.43,0.29-0.57,0.51l-1.81,2.19c-0.11,0.11-0.18,0.27-0.18,0.43c0.01,0.12,0.13,0.28,0.37,0.48l0.23,0.19l0.05,0.03
		l0.14,0.11c0.03,0.02,0.07,0.04,0.1,0.07c0.33,0.25,0.76,0.35,1.17,0.28c0.51-0.05,0.98-0.32,1.29-0.73l0.24-0.29
		c0.35-0.4,0.53-0.91,0.5-1.44C107.03,16.13,106.76,15.63,106.32,15.3"/>
	<path id="Path_31" class="st0" d="M109.75,24.3c0.62-0.49,1.31-0.87,2.06-1.12c1.27-0.47,2.68-0.37,3.87,0.28
		c0.67,0.36,1.26,0.85,1.73,1.45l0.11,0.15l0.11,0.14c0.39,0.52,0.68,1.11,0.83,1.74c0.18,0.66,0.22,1.36,0.1,2.04
		c-0.12,0.68-0.38,1.34-0.75,1.92c-0.37,0.59-0.85,1.11-1.4,1.55l-0.14,0.11c-0.6,0.48-1.29,0.84-2.02,1.08
		c-0.69,0.23-1.42,0.31-2.15,0.24c-1.48-0.18-2.81-0.97-3.68-2.18c-0.41-0.53-0.72-1.14-0.9-1.78c-0.18-0.62-0.22-1.27-0.12-1.91
		C107.68,26.52,108.52,25.19,109.75,24.3 M114.31,30.71l0.41-0.32c0.44-0.35,0.84-0.75,1.19-1.2c0.67-0.72,1.02-1.68,0.99-2.66
		c-0.04-0.38-0.2-0.75-0.44-1.05l-0.07-0.09c-0.23-0.28-0.54-0.5-0.88-0.63c-0.83-0.3-1.74-0.23-2.52,0.17
		c-0.58,0.25-1.13,0.57-1.63,0.96l-0.21,0.16c-0.48,0.38-0.91,0.81-1.28,1.3c-0.67,0.76-1,1.76-0.93,2.77
		c0.04,0.34,0.16,0.67,0.37,0.94l0.14,0.19c0.23,0.29,0.53,0.5,0.87,0.62c0.37,0.13,0.76,0.17,1.15,0.12
		C112.53,31.83,113.5,31.38,114.31,30.71"/>
	<path id="Path_32" class="st0" d="M123.58,34.57c0.41,0.85,0.46,1.34,0.16,1.49c-0.16,0.07-0.33,0.09-0.5,0.08
		c-0.22-0.01-0.43,0.04-0.62,0.13c-0.34,0.2-0.65,0.44-0.92,0.73c-1.67,1.6-2.75,2.67-3.25,3.22c-0.28,0.26-0.52,0.56-0.71,0.89
		c0.07,0.14,1.53,0.01,4.4-0.37c0.82-0.08,1.63-0.27,2.4-0.58c0.18-0.12,0.33-0.28,0.44-0.46c0.09-0.16,0.21-0.3,0.35-0.42
		c0.15-0.08,0.34-0.03,0.44,0.1c0.24,0.3,0.43,0.64,0.58,0.99l0.24,0.49c0.19,0.33,0.32,0.7,0.37,1.09
		c0.01,0.17-0.08,0.32-0.23,0.39c-0.15,0.07-0.41,0.01-0.8-0.18c-0.35-0.18-0.74-0.28-1.14-0.29c-0.07,0-1.45,0.12-4.14,0.37
		c-1.58,0.19-3.17,0.29-4.76,0.3c-0.49-0.06-0.91-0.38-1.09-0.84c-0.14-0.29,0.04-0.72,0.53-1.29c0.27-0.32,1.25-1.38,2.94-3.16
		l1.49-1.57c0.25-0.26,0.54-0.56,0.86-0.9c0.32-0.34,0.54-0.57,0.65-0.69c0.22-0.29,0.34-0.64,0.35-1.01
		c0.04-0.43,0.15-0.69,0.33-0.78c0.18-0.09,0.31-0.1,0.38-0.04c0.46,0.65,0.84,1.36,1.14,2.09L123.58,34.57z"/>
	<path id="Path_33" class="st0" d="M128.93,53.86c-0.22,0.08-0.47,0.09-0.7,0.02c-0.14-0.09-0.24-0.24-0.27-0.4l0.03-0.15l0.07-0.19
		l0.06-0.21c0.08-0.37,0.14-0.75,0.16-1.12c0.06-0.49,0.03-0.99-0.08-1.47c-0.07-0.39-0.34-0.71-0.71-0.84
		c-0.67-0.1-1.36-0.04-2.01,0.18c-0.25,0.05-0.47,0.2-0.6,0.42c-0.13,0.24-0.15,0.52-0.07,0.78c0.1,0.35,0.3,0.67,0.57,0.93
		c0.22,0.19,0.4,0.43,0.51,0.7c0.03,0.19-0.05,0.37-0.21,0.48c-0.19,0.18-0.43,0.3-0.69,0.36c-0.47,0.18-0.98,0.22-1.47,0.1
		l-0.16-0.18c-0.08-0.25-0.07-0.52,0.03-0.76c0.17-0.3,0.25-0.63,0.24-0.97c-0.14-0.58-0.36-0.93-0.65-1.07
		c-0.44-0.04-0.87,0.02-1.28,0.17c-0.58,0.1-1.11,0.4-1.51,0.83c-0.17,0.33-0.19,0.73-0.05,1.08c0.21,0.68,0.56,1.3,1.02,1.85
		c0.33,0.39,0.62,0.8,0.87,1.25c0.05,0.22-0.12,0.38-0.53,0.48l-0.27,0.07c-0.21,0.04-0.42,0.03-0.63,0
		c-0.26-0.03-0.51-0.15-0.71-0.32c-0.25-0.28-0.41-0.63-0.47-0.99l-1.37-5.5c-0.21-0.84-0.2-1.29,0.01-1.34l0.24-0.06
		c0.17-0.04,0.38,0.07,0.63,0.34c0.17,0.22,0.42,0.37,0.69,0.41c1.18-0.2,2.35-0.47,3.51-0.79c1.21-0.26,2.41-0.6,3.59-1
		c0.29-0.17,0.52-0.42,0.65-0.72c0.1-0.28,0.32-0.5,0.6-0.6c0.17-0.04,0.31,0.12,0.42,0.48c0.11,0.36,0.42,1.55,0.92,3.58l0.5,1.97
		l0.08,0.32c0.12,0.36,0.14,0.76,0.05,1.13c-0.17,0.42-0.55,0.72-1,0.79"/>
	<path id="Path_34" class="st0" d="M129.94,58.36c0.14-0.3,0.32-0.46,0.53-0.47c0.21-0.01,0.34,0.11,0.39,0.36
		c0.19,1.2,0.3,2.41,0.31,3.63l0.02,0.41c0.15,1.56-0.31,3.11-1.28,4.34c-0.98,1.11-2.4,1.73-3.88,1.71
		c-1.5,0.12-2.98-0.39-4.08-1.42c-1.08-1.08-1.68-2.56-1.67-4.09l-0.02-0.62l0-0.21l-0.01-0.42c0-0.14,0-0.27-0.01-0.4l-0.01-1.75
		c-0.04-0.35-0.02-0.7,0.06-1.04c0.06-0.11,0.19-0.17,0.39-0.17c0.11,0,0.28,0.14,0.49,0.44c0.17,0.27,0.43,0.46,0.74,0.54
		c0.92,0.08,1.84,0.09,2.76,0.02l1-0.05l1.18-0.02l0.2,0c0.14,0,0.27,0,0.4-0.01l0.59-0.01c0.49,0.01,0.98-0.06,1.45-0.22
		C129.69,58.8,129.85,58.6,129.94,58.36 M125.51,65.77l0.53-0.02c0.55-0.02,1.09-0.12,1.61-0.29c0.99-0.26,1.8-0.95,2.2-1.89
		c0.16-0.42,0.24-0.87,0.22-1.32l-0.01-0.11c-0.02-0.59-0.17-0.92-0.44-0.99c-0.06-0.02-0.84,0-2.34,0.06l-3,0.11l-0.12,0
		l-0.23,0.01l-0.82,0.01l-0.23,0.01l-0.35,0l-0.13,0c-0.3-0.02-0.6,0.05-0.86,0.2c-0.14,0.11-0.2,0.4-0.18,0.84l0.02,0.47
		c0.02,0.44,0.15,0.87,0.38,1.24c0.21,0.36,0.5,0.68,0.84,0.92c0.39,0.25,0.82,0.44,1.26,0.55
		C124.39,65.73,124.95,65.8,125.51,65.77"/>
	<path id="Path_35" class="st0" d="M120.69,101.04l-0.47,0.7c-0.51,0.89-1.28,1.61-2.2,2.05c-0.7,0.29-1.5,0.21-2.12-0.22
		c-0.37-0.24-0.67-0.56-0.87-0.95c-0.19-0.34-0.3-0.72-0.31-1.11c0.02-0.18,0-0.37-0.03-0.55c-0.22,0.08-0.43,0.18-0.62,0.32
		c-0.35,0.21-0.74,0.35-1.14,0.4c-0.54,0.08-1.09-0.04-1.55-0.34l-0.17-0.11c-1.3-0.86-1.6-2.18-0.92-3.96
		c0.28-0.65,0.62-1.26,1.02-1.84l0.23-0.35l0.12-0.17c0.08-0.11,0.16-0.23,0.24-0.34l0.24-0.34c0.08-0.11,0.16-0.22,0.24-0.34
		l0.58-0.83c0.18-0.29,0.37-0.56,0.58-0.82c0.2-0.2,0.38-0.24,0.54-0.13c0.12,0.08,0.21,0.34,0.26,0.79
		c0.06,0.34,0.23,0.65,0.49,0.87c0.93,0.74,1.9,1.43,2.91,2.06c0.93,0.66,1.9,1.26,2.9,1.79c0.31,0.1,0.64,0.1,0.95-0.02
		c0.24-0.12,0.51-0.12,0.75-0.02c0.15,0.1,0.21,0.29,0.13,0.45c-0.23,0.5-0.51,0.98-0.83,1.43l-0.42,0.7
		c-0.28,0.46-0.46,0.75-0.53,0.86 M113.43,95.71l-0.28-0.16c-0.26-0.17-0.54-0.02-0.85,0.44l-0.05,0.05l-0.04,0.05l-0.16,0.23
		l-0.19,0.29c-0.28,0.4-0.39,0.89-0.32,1.37c0.08,0.5,0.38,0.93,0.82,1.19l0.25,0.16c0.42,0.29,0.94,0.39,1.44,0.28
		c0.6-0.17,1.12-0.57,1.42-1.12l0.27-0.4c0.22-0.33,0.3-0.54,0.25-0.62c-0.46-0.38-0.95-0.73-1.46-1.03l-0.11-0.08l-0.16-0.11
		l-0.05-0.04l-0.11-0.07l-0.22-0.15l-0.05-0.03l-0.06-0.03l-0.11-0.07l-0.06-0.03l-0.12-0.08L113.43,95.71z M117.42,98.36
		l-0.24-0.14c-0.13-0.09-0.27-0.04-0.39,0.15l-0.2,0.3l-0.03,0.06l-0.22,0.36c-0.02,0.04-0.04,0.07-0.06,0.11
		c-0.22,0.35-0.31,0.76-0.23,1.17c0.06,0.43,0.3,0.81,0.67,1.04l0.1,0.08l0.21,0.14c0.36,0.26,0.82,0.34,1.25,0.22
		c0.52-0.18,0.95-0.54,1.21-1.01l0.17-0.25c0.19-0.29,0.23-0.5,0.12-0.64c-0.36-0.28-0.74-0.54-1.13-0.79l-1.17-0.78L117.42,98.36z"
		/>
	<path id="Path_36" class="st0" d="M111.89,111.94l-0.16,0.16c-0.27,0.27-0.87,0.28-1.79,0.03c-0.61-0.21-1.21-0.45-1.79-0.74
		c-0.87-0.41-1.6-0.74-2.19-1c-0.59-0.26-1.27-0.58-2.05-0.96c-0.78-0.39-1.31-0.63-1.59-0.73c-0.33-0.11-0.68-0.13-1.03-0.07
		c-0.41,0.06-0.67,0.02-0.8-0.11c-0.13-0.14-0.13-0.35-0.01-0.49c0.56-0.72,1.17-1.39,1.84-2c0.47-0.46,0.8-0.59,1-0.39
		c0.11,0.15,0.2,0.32,0.26,0.49c0.08,0.2,0.19,0.39,0.33,0.56c0.39,0.42,0.9,0.71,1.46,0.83c0.21,0.04,0.56-0.17,1.03-0.64
		c0.52-0.45,0.99-0.97,1.39-1.53c0.05-0.26,0.03-0.52-0.07-0.76c-0.08-0.3-0.23-0.57-0.44-0.8c-0.22-0.21-0.48-0.37-0.77-0.47
		c-0.25-0.08-0.48-0.2-0.67-0.37c-0.15-0.16-0.06-0.4,0.27-0.73c0.51-0.55,1.08-1.04,1.7-1.46c0.2-0.12,0.46-0.08,0.61,0.11
		c0.02,0.33,0.01,0.66-0.03,0.98c-0.02,0.37,0.04,0.74,0.19,1.08c0.73,1.94,1.59,3.84,2.56,5.67c0.45,0.7,0.82,1.44,1.1,2.22
		C112.34,111.23,112.2,111.67,111.89,111.94 M108.67,106.48l-0.05-0.06c-0.04-0.04-0.24,0.1-0.58,0.44l-0.64,0.63
		c-0.51,0.5-0.73,0.78-0.68,0.84c0.6,0.4,1.25,0.74,1.92,1c1.12,0.51,1.69,0.76,1.7,0.75c0.01-0.01-0.23-0.58-0.73-1.71
		C109.36,107.72,109.04,107.08,108.67,106.48"/>
	<path id="Path_37" class="st0" d="M100.85,120.19c-0.03-0.27-0.01-0.54,0.05-0.8c0.08-0.36,0.07-0.73-0.02-1.08
		c-0.57-1.05-1.2-2.07-1.88-3.05c-0.62-1.01-1.29-1.99-2.01-2.92c-0.15-0.15-0.36-0.21-0.57-0.18c-0.32,0.09-0.63,0.24-0.9,0.44
		c-0.36,0.22-0.67,0.53-0.89,0.89c-0.23,0.43-0.39,0.91-0.45,1.39c-0.02,0.43-0.2,0.83-0.52,1.13c-0.19,0.12-0.36,0.07-0.51-0.17
		l-0.11-0.17c-0.23-0.37-0.42-0.77-0.55-1.19c-0.12-0.27-0.18-0.56-0.2-0.85c0.05-0.21,0.34-0.49,0.86-0.83l3.52-2.29
		c1.15-0.75,1.79-1.15,1.93-1.21c0.19-0.11,0.44-0.04,0.55,0.15c0.07,0.24,0.06,0.5-0.02,0.73c-0.08,0.41-0.04,0.83,0.11,1.22
		c0.06,0.17,0.68,1.16,1.86,2.97c0.61,1.01,1.29,1.99,2.02,2.92c0.25,0.16,0.55,0.23,0.85,0.2c0.31-0.04,0.62,0.08,0.82,0.33
		c0.12,0.18-0.25,0.55-1.1,1.1l-1.74,1.13c-0.22,0.16-0.46,0.29-0.72,0.36C101.07,120.42,100.92,120.33,100.85,120.19"/>
	<path id="Path_38" class="st0" d="M86.08,116.05c0.64-0.27,1.33-0.37,2.02-0.3c1.23,0.14,2.3,0.91,2.83,2.03l0.14,0.29
		c0.04,0.1,0.13,0.3,0.24,0.6l0.56,1.47l0.65,1.63c0.17,0.51,0.4,1.01,0.67,1.48c0.21,0.13,0.45,0.2,0.69,0.2
		c0.37,0.04,0.59,0.16,0.67,0.36l0.09,0.23c0.07,0.17-0.07,0.34-0.42,0.51c-0.7,0.36-1.5,0.72-2.41,1.08
		c-0.58,0.23-0.92,0.24-1,0.02c0-0.01,0.01-0.23,0.04-0.65c0.03-0.43,0-0.86-0.1-1.29c-0.3-1.02-0.66-2.02-1.07-2.99
		c-0.34-1.07-0.88-2.06-1.58-2.93c-0.61-0.56-1.5-0.68-2.24-0.31c-0.8,0.25-1.38,0.93-1.52,1.75c0.05,1.24,0.36,2.45,0.91,3.55
		c0.39,1.2,0.98,2.33,1.74,3.34l0.17,0.14l0.19,0.12c0.16,0.09,0.3,0.22,0.4,0.38c0.07,0.18-0.01,0.39-0.19,0.47
		c-0.37,0.18-0.75,0.34-1.13,0.48c-0.5,0.22-1.03,0.36-1.57,0.4c-0.15,0-0.27-0.1-0.35-0.32c-0.09-0.21-0.06-0.45,0.06-0.64
		c0.2-0.27,0.33-0.58,0.38-0.9c-0.2-0.69-0.44-1.37-0.73-2.03l-0.36-0.86l-0.13-0.29c-0.37-0.86-0.65-1.76-0.86-2.67
		c-0.11-0.58-0.08-1.17,0.1-1.73c0.51-1.21,1.53-2.13,2.78-2.51L86.08,116.05z"/>
	<path id="Path_39" class="st0" d="M60.05,130.8l-0.23-0.02c-0.38-0.03-0.78-0.48-1.18-1.35c-0.24-0.6-0.44-1.22-0.59-1.84
		c-0.25-0.93-0.47-1.7-0.65-2.31c-0.19-0.61-0.38-1.34-0.59-2.18c-0.21-0.84-0.36-1.4-0.47-1.68c-0.13-0.32-0.34-0.61-0.61-0.83
		c-0.31-0.27-0.45-0.5-0.43-0.68c0.02-0.18,0.14-0.29,0.37-0.32c0.91-0.04,1.81,0,2.71,0.11c0.65,0.06,0.97,0.23,0.94,0.51
		c-0.05,0.18-0.12,0.35-0.2,0.52c-0.1,0.19-0.17,0.4-0.21,0.61c-0.07,0.57,0.04,1.15,0.31,1.65c0.11,0.19,0.49,0.31,1.15,0.37
		c0.68,0.1,1.37,0.13,2.06,0.07c0.23-0.13,0.42-0.32,0.54-0.55c0.18-0.26,0.29-0.55,0.32-0.86c0.02-0.3-0.03-0.61-0.14-0.89
		c-0.1-0.24-0.16-0.49-0.16-0.75c0.02-0.22,0.26-0.31,0.73-0.26c0.75,0.04,1.49,0.16,2.21,0.36c0.22,0.08,0.36,0.31,0.31,0.54
		c-0.24,0.23-0.49,0.43-0.77,0.61c-0.29,0.22-0.54,0.51-0.7,0.84c-1.01,1.81-1.9,3.69-2.66,5.62c-0.24,0.79-0.57,1.56-0.99,2.27
		C60.88,130.69,60.46,130.86,60.05,130.8 M62.14,124.81l0.01-0.08c0.01-0.06-0.23-0.12-0.72-0.16l-0.9-0.08
		c-0.71-0.07-1.07-0.06-1.08,0.03c0.08,0.72,0.24,1.43,0.48,2.11c0.34,1.19,0.51,1.78,0.53,1.78c0.01,0,0.29-0.55,0.84-1.66
		C61.64,126.14,61.92,125.49,62.14,124.81"/>
	<path id="Path_40" class="st0" d="M53.64,119.4c-0.09,0.33-0.36,0.59-0.69,0.69c-0.3,0.07-0.56,0.26-0.71,0.52
		c-0.44,1.09-0.82,2.21-1.13,3.34c-0.38,1.1-0.67,2.23-0.88,3.38c-0.04,0.3,0.01,0.61,0.15,0.88c0.27,0.41,0.39,0.66,0.36,0.75
		l-0.03,0.12c-0.06,0.2-0.29,0.28-0.68,0.22c-0.11-0.02-0.64-0.17-1.6-0.46l-0.99-0.29l-0.19-0.06l-0.58-0.2l-0.6-0.18
		c-1.77-0.54-2.78-1.44-3.03-2.71c-0.1-0.48-0.07-0.97,0.07-1.44l0.06-0.21c0.23-0.81,0.8-1.48,1.57-1.84
		c0.91-0.4,1.94-0.48,2.9-0.22c0.38,0.1,0.77,0.16,1.16,0.19c0.38-0.05,0.72-0.55,1.01-1.52c0.14-0.39,0.09-0.83-0.15-1.18
		c-0.31-0.46-0.43-0.8-0.36-1.03c0.05-0.18,0.28-0.25,0.68-0.2c0.57,0.09,1.14,0.22,1.69,0.4c1.41,0.43,2.08,0.78,1.99,1.06
		 M48.98,123.73c0.09-0.2,0.09-0.42,0.02-0.63c-0.16-0.19-0.39-0.32-0.64-0.36l-0.36-0.11c-0.48-0.16-1.01-0.09-1.43,0.19
		c-0.49,0.36-0.84,0.89-0.98,1.49l-0.02,0.08c-0.22,0.6-0.2,1.25,0.05,1.84c0.23,0.51,0.68,0.89,1.22,1.03l0.19,0.06
		c0.42,0.13,0.7,0.1,0.83-0.08c0.15-0.36,0.28-0.74,0.38-1.12l0.35-1.14l0.1-0.28L48.98,123.73z"/>
	<path id="Path_41" class="st0" d="M43.43,116.07c-0.16,0.31-0.46,0.51-0.81,0.54c-0.31,0.01-0.6,0.15-0.8,0.38
		c-0.64,0.99-1.23,2.01-1.75,3.06c-0.58,1.01-1.09,2.06-1.51,3.15c-0.1,0.29-0.11,0.6-0.02,0.9c0.19,0.45,0.26,0.72,0.21,0.8
		l-0.06,0.11c-0.1,0.19-0.34,0.22-0.71,0.08c-0.1-0.04-0.6-0.29-1.48-0.76l-0.92-0.47l-0.18-0.1l-0.54-0.31l-0.55-0.29
		c-1.63-0.86-2.45-1.95-2.46-3.24c0-0.49,0.11-0.97,0.34-1.39l0.1-0.19c0.38-0.75,1.07-1.3,1.89-1.51c0.97-0.22,1.99-0.1,2.89,0.34
		c0.35,0.17,0.72,0.3,1.1,0.41c0.38,0.03,0.81-0.41,1.28-1.3c0.21-0.36,0.24-0.8,0.08-1.19c-0.22-0.51-0.27-0.87-0.16-1.09
		c0.09-0.17,0.32-0.19,0.71-0.07c0.55,0.19,1.08,0.43,1.58,0.72C42.98,115.34,43.56,115.81,43.43,116.07 M38.03,119.41
		c0.12-0.18,0.17-0.4,0.14-0.61c-0.13-0.22-0.32-0.38-0.56-0.47l-0.33-0.18c-0.44-0.25-0.97-0.28-1.44-0.08
		c-0.55,0.26-1,0.71-1.25,1.27l-0.03,0.07c-0.33,0.54-0.44,1.19-0.31,1.81c0.13,0.54,0.5,1,1,1.25l0.17,0.09
		c0.39,0.21,0.67,0.23,0.83,0.08c0.22-0.33,0.42-0.67,0.59-1.02l0.56-1.05l0.15-0.26L38.03,119.41z"/>
	<path id="Path_42" class="st0" d="M24.51,116.55l-0.41-0.34c-0.88-0.65-1.55-1.55-1.92-2.59c-0.26-0.83-0.07-1.73,0.51-2.38
		c0.3-0.38,0.69-0.67,1.14-0.86c0.34-0.15,0.71-0.24,1.08-0.27c0.36,0.01,0.72-0.03,1.07-0.1c0.15-0.23,0.25-0.5,0.27-0.77
		c0.06-0.37,0.13-0.8,0.23-1.3c0.07-0.33,0.12-0.67,0.15-1.01c0.04-0.39-0.03-0.79-0.19-1.15c-0.28-0.55-0.38-0.87-0.31-0.96
		c0.16-0.24,0.46-0.33,0.72-0.21c0.43,0.19,0.84,0.45,1.2,0.76c0.39,0.29,0.63,0.73,0.68,1.22c0,0.73-0.1,1.46-0.31,2.16
		c-0.16,0.58-0.29,1.16-0.37,1.75c-0.03,0.4,0.15,0.79,0.46,1.05c0.16,0.14,0.4,0.16,0.57,0.03c0.44-0.36,0.83-0.77,1.17-1.22
		c0.2-0.31,0.33-0.65,0.4-1.01l0.11-0.59c0.02-0.16,0.06-0.32,0.12-0.47c0.17-0.21,0.59-0.04,1.24,0.5
		c0.69,0.53,1.34,1.11,1.93,1.74c0.15,0.16,0.15,0.41,0.01,0.58c-0.14,0.17-0.39,0.23-0.76,0.17c-0.3-0.07-0.62-0.01-0.88,0.16
		c-1.59,1.7-3.08,3.51-4.45,5.4c-0.15,0.27-0.22,0.59-0.2,0.9c0.07,0.29,0.06,0.59-0.01,0.87c-0.13,0.16-0.39,0.13-0.76-0.1
		C26.15,117.9,25.32,117.24,24.51,116.55 M24.89,115.51l0.19,0.16c0.27,0.23,0.47,0.33,0.59,0.3c0.23-0.12,0.43-0.29,0.57-0.51
		l1.81-2.19c0.11-0.11,0.18-0.27,0.18-0.43c-0.01-0.12-0.13-0.28-0.37-0.48l-0.23-0.19l-0.05-0.03l-0.14-0.11
		c-0.03-0.02-0.07-0.04-0.1-0.07c-0.33-0.25-0.76-0.35-1.17-0.28c-0.51,0.05-0.98,0.32-1.29,0.73l-0.24,0.29
		c-0.35,0.4-0.53,0.91-0.5,1.44C24.18,114.68,24.45,115.19,24.89,115.51"/>
	<path id="Path_43" class="st0" d="M21.47,106.51c-0.62,0.49-1.31,0.87-2.06,1.12c-1.27,0.47-2.68,0.37-3.87-0.28
		c-0.67-0.36-1.26-0.85-1.73-1.45l-0.11-0.15l-0.11-0.14c-0.39-0.52-0.68-1.11-0.83-1.74c-0.18-0.66-0.22-1.36-0.1-2.04
		c0.12-0.68,0.38-1.34,0.75-1.92c0.37-0.59,0.85-1.11,1.4-1.55l0.14-0.11c0.6-0.48,1.29-0.84,2.02-1.08
		c0.69-0.23,1.42-0.31,2.15-0.24c1.48,0.18,2.81,0.97,3.68,2.18c0.41,0.53,0.72,1.14,0.9,1.78c0.18,0.62,0.22,1.27,0.12,1.91
		C23.53,104.29,22.69,105.62,21.47,106.51 M16.9,100.1l-0.41,0.32c-0.44,0.35-0.84,0.75-1.19,1.2c-0.67,0.72-1.02,1.68-0.99,2.66
		c0.04,0.38,0.2,0.75,0.44,1.05l0.07,0.09c0.23,0.28,0.54,0.5,0.88,0.63c0.83,0.29,1.74,0.23,2.52-0.17
		c0.58-0.25,1.13-0.57,1.63-0.96l0.21-0.16c0.48-0.38,0.91-0.81,1.28-1.3c0.67-0.76,1-1.76,0.93-2.77
		c-0.04-0.34-0.16-0.67-0.37-0.94l-0.14-0.19c-0.23-0.29-0.53-0.5-0.87-0.62c-0.37-0.13-0.76-0.17-1.15-0.12
		C18.69,98.98,17.71,99.43,16.9,100.1"/>
	<path id="Path_44" class="st0" d="M7.64,96.25c-0.41-0.85-0.46-1.34-0.16-1.49c0.16-0.07,0.33-0.09,0.5-0.08
		c0.22,0.01,0.43-0.04,0.62-0.13c0.34-0.2,0.65-0.44,0.92-0.73c1.67-1.6,2.75-2.67,3.25-3.22c0.28-0.26,0.52-0.56,0.71-0.89
		c-0.07-0.14-1.53-0.01-4.4,0.37c-0.82,0.08-1.63,0.27-2.4,0.58c-0.18,0.12-0.33,0.28-0.44,0.46c-0.09,0.16-0.21,0.3-0.35,0.42
		c-0.15,0.08-0.34,0.03-0.44-0.1c-0.24-0.3-0.43-0.64-0.58-0.99l-0.24-0.49c-0.19-0.33-0.32-0.7-0.37-1.09
		c-0.01-0.17,0.08-0.32,0.23-0.39c0.15-0.07,0.41-0.01,0.8,0.18c0.35,0.18,0.74,0.28,1.14,0.29c0.07,0,1.45-0.12,4.14-0.37
		c1.58-0.19,3.17-0.29,4.76-0.3c0.49,0.06,0.91,0.38,1.09,0.84c0.14,0.29-0.04,0.72-0.53,1.29c-0.27,0.32-1.25,1.38-2.94,3.16
		l-1.49,1.57c-0.25,0.26-0.54,0.56-0.86,0.9c-0.32,0.33-0.54,0.56-0.65,0.69c-0.22,0.29-0.34,0.64-0.35,1.01
		c-0.04,0.43-0.15,0.7-0.33,0.78c-0.18,0.09-0.31,0.1-0.38,0.04c-0.46-0.65-0.84-1.36-1.14-2.09L7.64,96.25z"/>
	<path id="Path_45" class="st0" d="M2.28,76.95c0.22-0.09,0.47-0.09,0.7-0.02c0.14,0.09,0.24,0.24,0.27,0.4l-0.03,0.15l-0.07,0.19
		l-0.06,0.21C3,78.25,2.95,78.63,2.92,79.01C2.86,79.5,2.89,80,3,80.48c0.07,0.39,0.34,0.71,0.71,0.84c0.67,0.1,1.36,0.04,2.01-0.18
		c0.25-0.05,0.47-0.2,0.6-0.42c0.13-0.24,0.15-0.52,0.07-0.78c-0.1-0.35-0.3-0.67-0.57-0.93c-0.22-0.19-0.4-0.43-0.51-0.7
		c-0.03-0.19,0.05-0.37,0.21-0.48c0.19-0.18,0.43-0.3,0.69-0.36c0.47-0.18,0.98-0.22,1.47-0.1l0.16,0.18
		c0.08,0.25,0.07,0.52-0.03,0.76c-0.17,0.3-0.25,0.63-0.24,0.97c0.14,0.58,0.36,0.93,0.65,1.07c0.44,0.04,0.87-0.02,1.28-0.17
		c0.58-0.1,1.11-0.4,1.51-0.83c0.17-0.33,0.19-0.73,0.05-1.08c-0.21-0.68-0.56-1.3-1.02-1.85c-0.33-0.39-0.62-0.8-0.87-1.25
		c-0.05-0.22,0.12-0.38,0.53-0.48L10,74.64c0.21-0.04,0.42-0.03,0.63,0c0.26,0.03,0.51,0.15,0.71,0.32
		c0.25,0.28,0.41,0.63,0.47,0.99l1.37,5.5c0.21,0.84,0.2,1.29-0.01,1.34l-0.24,0.06c-0.17,0.04-0.38-0.07-0.63-0.34
		c-0.17-0.22-0.42-0.37-0.69-0.41c-1.18,0.2-2.35,0.47-3.51,0.79c-1.21,0.26-2.41,0.6-3.59,1c-0.29,0.17-0.52,0.42-0.65,0.72
		c-0.1,0.28-0.32,0.5-0.6,0.6c-0.17,0.04-0.31-0.12-0.42-0.48c-0.11-0.36-0.42-1.55-0.93-3.59l-0.5-1.97l-0.08-0.32
		c-0.12-0.36-0.14-0.76-0.05-1.13C1.46,77.33,1.83,77.03,2.28,76.95"/>
	<path id="Path_46" class="st0" d="M1.27,72.45c-0.14,0.3-0.32,0.46-0.53,0.47c-0.21,0.01-0.34-0.11-0.39-0.36
		c-0.19-1.2-0.3-2.41-0.31-3.63l-0.02-0.41c-0.15-1.56,0.31-3.11,1.28-4.34c0.98-1.11,2.4-1.73,3.88-1.71
		c1.5-0.12,2.98,0.39,4.08,1.42c1.08,1.08,1.68,2.56,1.67,4.09l0.02,0.62l0,0.21l0.01,0.42c0,0.14,0,0.27,0.01,0.4l0.01,1.75
		c0.04,0.35,0.02,0.7-0.06,1.04c-0.06,0.11-0.19,0.17-0.39,0.18c-0.11,0-0.28-0.14-0.49-0.44c-0.17-0.27-0.43-0.46-0.74-0.54
		c-0.92-0.08-1.84-0.09-2.76-0.02l-1,0.05l-1.18,0.02l-0.2,0c-0.14,0-0.27,0-0.4,0.01l-0.59,0.01c-0.49-0.01-0.98,0.06-1.45,0.22
		C1.52,72.01,1.36,72.21,1.27,72.45 M5.71,65.04l-0.53,0.02c-0.55,0.02-1.09,0.12-1.61,0.29c-0.99,0.26-1.8,0.95-2.2,1.89
		c-0.16,0.42-0.24,0.87-0.22,1.32l0.01,0.11c0.02,0.59,0.17,0.92,0.44,0.99c0.06,0.02,0.84,0,2.34-0.06l3-0.11l0.12,0l0.23-0.01
		l0.82-0.01l0.23-0.01l0.35,0l0.13,0c0.3,0.02,0.6-0.05,0.86-0.2c0.14-0.11,0.2-0.4,0.18-0.84l-0.02-0.47
		c-0.02-0.44-0.15-0.87-0.38-1.24c-0.21-0.36-0.5-0.68-0.84-0.92c-0.39-0.25-0.82-0.44-1.27-0.56C6.81,65.07,6.26,65.01,5.71,65.04"
		/>
</g>
</svg>
