<?xml version="1.0" encoding="utf-8"?>
<!-- Generator: Adobe Illustrator 27.0.1, SVG Export Plug-In . SVG Version: 6.00 Build 0)  -->
<svg version="1.1" id="Layer_1" xmlns="http://www.w3.org/2000/svg" xmlns:xlink="http://www.w3.org/1999/xlink" x="0px" y="0px"
	 viewBox="0 0 50.5 48.1" style="enable-background:new 0 0 50.5 48.1;" xml:space="preserve">
<style type="text/css">
	.st0{fill:#1A1818;}
</style>
<g>
	<path id="Path_18" class="st0" d="M50.5,17.8c-0.2,0.9-0.3,1.8-0.5,2.7c-0.5,2.2-1.6,4.2-3.3,5.7c-1,1-2.4,1.6-3.8,1.6
		c-1.7-0.1-3.2-1.1-3.8-2.7c-1-2-1.2-4.3-0.7-6.5c0.4-2.5,1.6-4.8,3.4-6.6c3.2-3,7.1-1.9,8.2,2.3c0.2,0.6,0.3,1.3,0.4,1.9L50.5,17.8
		z"/>
	<path id="Path_19" class="st0" d="M36.3,47.8c-1.6-0.1-3.3-0.5-4.8-1.1c-1.2-0.4-2.5-0.8-3.7-1c-2.1-0.4-4,0.2-6,0.8
		c-1.8,0.5-3.7,1.1-5.5,1.4c-2.9,0.7-5.8-0.4-7.6-2.8c-1.9-2.3-2.4-5.5-1.2-8.3c0.9-2,2.2-3.9,3.8-5.5c1.4-1.6,2.8-3.1,4.1-4.8
		c0.9-1.3,1.6-2.6,2.3-3.9c1.1-2,3.1-3.4,5.3-3.8c2.8-0.5,5.7,0.3,7.9,2.1c2.1,1.7,3.9,3.7,5.2,6c1.7,2.5,3.4,5.1,5,7.7
		c1.3,1.7,2,3.8,2.2,5.9c0.1,3.4-2.2,6.4-5.6,7.1C37.4,47.7,36.8,47.8,36.3,47.8"/>
	<path id="Path_20" class="st0" d="M0,18.7c0-1.5,0.2-2.9,0.8-4.3c0.9-2.2,3.4-3.3,5.6-2.5c0.3,0.1,0.7,0.3,0.9,0.5
		c1.9,1.2,3.3,3,4,5c1.2,2.6,1.3,5.5,0.4,8.1c-0.4,1.7-1.8,3-3.5,3.3c-1.6,0.2-3.2-0.3-4.4-1.5c-2.1-1.9-3.4-4.5-3.8-7.3
		C0.1,19.6,0,19,0,18.7"/>
	<path id="Path_21" class="st0" d="M39.8,6.8c-0.1,3.7-1.2,6.9-4.1,9.4c-1.1,1-2.6,1.5-4.1,1.2c-1.6-0.4-2.9-1.6-3.4-3.3
		c-0.9-2.6-0.8-5.4,0.2-8c0.7-2.1,2-3.9,3.8-5.2c1.9-1.5,4.6-1.2,6.1,0.7C38.6,2,38.8,2.4,39,2.8C39.6,4.1,39.9,5.4,39.8,6.8"/>
	<path id="Path_22" class="st0" d="M11.1,7.1C11,5.6,11.4,4,12.1,2.6c1-2.1,3.6-2.9,5.6-1.9c0.1,0,0.1,0.1,0.2,0.1
		c1.9,1,3.4,2.7,4.2,4.8c1.3,2.7,1.6,5.7,0.7,8.6c-0.4,1.7-1.7,3-3.3,3.4c-1.7,0.3-3.5-0.2-4.7-1.5C12.5,13.7,11.1,10.5,11.1,7.1"/>
</g>
</svg>
