<svg viewBox="0 0 243 165" xmlns="http://www.w3.org/2000/svg"><path d="m215 79.8c-8.6 0-16.6-2.9-23-7.8-6.4 4.9-14.4 7.8-23 7.8-8.9 0-17-3.1-23.5-8.1-6.5 5.1-14.6 8.1-23.5 8.1s-17.1-3.1-23.6-8.2c-6.5 5.1-14.7 8.2-23.6 8.2s-17-3.1-23.5-8.1c-6.5 5.1-14.6 8.1-23.5 8.1-2 0-4-.2-6-.5v16.7 56.8c0 6.3 5.7 12 12 12h55c6.3 0 10.9-5.7 10.9-12v-20.6-10.1c6.9 2.2 14.1 3.5 22.8 3.5s17.1-1.3 22.8-3.5v10.1 20.6c0 6.3 5.7 12 12 12h54.9c6.3 0 10.9-5.7 10.9-12v-73.8c-2.6.5-5.3.8-8.1.8z" fill="#f6a02a"/><path d="m76.5 107.8c0-5-4.1-9.1-9.1-9.1h-14.2c-5 0-9.1 4.1-9.1 9.1v14.1c0 5 4.1 9.1 9.1 9.1h14.1c5 0 9.1-4.1 9.1-9.1v-14.1z" fill="#fff"/><path d="m199.8 107.8c0-5-4.1-9.1-9.1-9.1h-14.1c-5 0-9.1 4.1-9.1 9.1v14.1c0 5 4.1 9.1 9.1 9.1h14.1c5 0 9.1-4.1 9.1-9.1z" fill="#fff"/><path d="m235.9 36.9-30.1-30.1c-3.9-3.9-11.6-7.1-17.1-7.1h-134.4c-5.5 0-13.2 3.2-17.1 7.1l-30.1 30.1-7 7c.9 12.5 10 22.7 21.9 25.3h.1c.4.1.9.2 1.3.3h.1c.4.1.8.1 1.3.2h.2c.4 0 .8.1 1.2.1h.3 1.5c.7 0 1.4 0 2-.1.2 0 .4 0 .6-.1.5 0 .9-.1 1.4-.2.2 0 .5-.1.7-.1.4-.1.8-.1 1.2-.2.2-.1.5-.1.7-.2.4-.1.8-.2 1.2-.3.2-.1.4-.1.6-.2.5-.2 1-.3 1.5-.5.1 0 .2-.1.4-.1.6-.2 1.2-.5 1.7-.8.2-.1.4-.2.5-.3.4-.2.8-.4 1.1-.6.2-.1.4-.3.7-.4l.9-.6c.1-.1.2-.1.3-.2 3.1-2.1 5.7-4.8 7.7-7.9 5 7.7 13.6 12.7 23.5 12.7s18.6-5.1 23.6-12.9c2 3.2 4.7 5.9 7.8 8.1.5.4 1.1.7 1.6 1 .1.1.2.1.3.2 1.1.6 2.2 1.2 3.4 1.6.1 0 .2.1.3.1.6.2 1.2.4 1.8.6.6.2 1.2.3 1.8.5.1 0 .3.1.4.1.6.1 1.2.3 1.8.4.6.1 1.3.2 1.9.2h.5c.6 0 1.3.1 1.9.1s1.3 0 1.9-.1h.5c.6-.1 1.3-.1 1.9-.2.6-.1 1.2-.2 1.8-.4.1 0 .3-.1.4-.1.6-.1 1.2-.3 1.8-.5.6-.2 1.2-.4 1.8-.6.1 0 .2-.1.3-.1 1.2-.5 2.3-1 3.4-1.6.1-.1.2-.1.3-.2.5-.3 1.1-.7 1.6-1 3.1-2.1 5.7-4.8 7.7-7.9 5 7.7 13.6 12.7 23.5 12.7 9.5 0 18-4.8 23-12.1 2 2.8 4.4 5.3 7.3 7.2.5.4 1.1.7 1.6 1 .1.1.2.1.3.2 1.1.6 2.2 1.2 3.4 1.6.1 0 .2.1.3.1.6.2 1.2.4 1.8.6.6.2 1.2.3 1.8.5.1 0 .3.1.4.1.6.1 1.2.3 1.8.4.6.1 1.3.2 1.9.2h.5c.6 0 1.3.1 1.9.1s1.2 0 1.9-.1h.4c.6 0 1.2-.1 1.7-.2h.1c.6-.1 1.3-.2 1.9-.4h.1c11.9-2.7 20.9-12.8 21.8-25.3z" fill="#f6a02a"/><g fill="#fff"><path d="m73.8 7-15 37c.1 8.8 7.2 15.9 16.1 15.9 8.8 0 16-7.1 16.1-15.9l7.8-37z"/><path d="m169.8 7 15 37c-.1 8.8-7.2 15.9-16.1 15.9-8.8 0-16-7.1-16.1-15.9l-7.8-37z"/></g></svg>